G04 #@! TF.GenerationSoftware,KiCad,Pcbnew,(5.1.8)-1*
G04 #@! TF.CreationDate,2021-01-22T21:00:44-06:00*
G04 #@! TF.ProjectId,Pulse_Oximeter,50756c73-655f-44f7-9869-6d657465722e,rev?*
G04 #@! TF.SameCoordinates,Original*
G04 #@! TF.FileFunction,Soldermask,Bot*
G04 #@! TF.FilePolarity,Negative*
%FSLAX46Y46*%
G04 Gerber Fmt 4.6, Leading zero omitted, Abs format (unit mm)*
G04 Created by KiCad (PCBNEW (5.1.8)-1) date 2021-01-22 21:00:44*
%MOMM*%
%LPD*%
G01*
G04 APERTURE LIST*
%ADD10R,1.800000X2.600000*%
%ADD11O,1.800000X2.600000*%
%ADD12R,0.650000X0.400000*%
%ADD13R,0.400000X0.600000*%
%ADD14R,0.600000X0.700000*%
%ADD15R,0.600000X0.500000*%
%ADD16R,0.600000X0.400000*%
%ADD17R,0.650000X1.060000*%
%ADD18R,1.060000X0.650000*%
%ADD19R,1.500000X1.300000*%
%ADD20R,0.300000X0.750000*%
%ADD21R,1.700000X1.700000*%
%ADD22R,3.200000X0.800000*%
%ADD23R,0.450000X0.700000*%
%ADD24O,1.700000X1.700000*%
%ADD25C,0.900000*%
%ADD26R,2.000000X2.500000*%
%ADD27R,0.500000X2.300000*%
%ADD28C,3.000000*%
%ADD29R,0.700000X0.600000*%
%ADD30R,0.500000X0.600000*%
%ADD31R,0.400000X1.060000*%
%ADD32C,1.700000*%
%ADD33R,1.300000X1.500000*%
%ADD34R,0.750000X0.300000*%
%ADD35R,3.500000X3.500000*%
%ADD36C,2.000000*%
%ADD37R,1.450000X0.450000*%
G04 APERTURE END LIST*
D10*
X184187600Y-61592500D03*
D11*
X181647600Y-61592500D03*
X179107600Y-61592500D03*
X176567600Y-61592500D03*
X174027600Y-61592500D03*
X171487600Y-61592500D03*
X168947600Y-61592500D03*
X166407600Y-61592500D03*
X163867600Y-61592500D03*
X161327600Y-61592500D03*
X158787600Y-61592500D03*
X156247600Y-61592500D03*
X153707600Y-61592500D03*
X151167600Y-61592500D03*
X148627600Y-61592500D03*
X146087600Y-61592500D03*
D12*
X186058000Y-122419000D03*
X186058000Y-123719000D03*
X187958000Y-123069000D03*
X186058000Y-123069000D03*
X187958000Y-123719000D03*
X187958000Y-122419000D03*
D13*
X183573000Y-122428000D03*
X184473000Y-122428000D03*
D14*
X184573000Y-123634000D03*
X183473000Y-123634000D03*
D15*
X187558000Y-124904000D03*
X186458000Y-124904000D03*
D13*
X161042000Y-92961500D03*
X160142000Y-92961500D03*
D16*
X164148000Y-93718000D03*
X164148000Y-94618000D03*
D12*
X181544000Y-127142000D03*
X181544000Y-125842000D03*
X179644000Y-126492000D03*
X181544000Y-126492000D03*
X179644000Y-125842000D03*
X179644000Y-127142000D03*
D17*
X175895000Y-125392000D03*
X176845000Y-125392000D03*
X174945000Y-125392000D03*
X174945000Y-127592000D03*
X175895000Y-127592000D03*
X176845000Y-127592000D03*
D18*
X139680000Y-128524000D03*
X139680000Y-127574000D03*
X139680000Y-129474000D03*
X141880000Y-129474000D03*
X141880000Y-128524000D03*
X141880000Y-127574000D03*
D17*
X141732000Y-118852000D03*
X142682000Y-118852000D03*
X140782000Y-118852000D03*
X140782000Y-121052000D03*
X141732000Y-121052000D03*
X142682000Y-121052000D03*
D19*
X119570000Y-115570000D03*
D20*
X118820000Y-117020000D03*
X119320000Y-117020000D03*
X119820000Y-117020000D03*
X120320000Y-117020000D03*
X120320000Y-114120000D03*
X119820000Y-114120000D03*
X119320000Y-114120000D03*
X118820000Y-114120000D03*
D21*
X192405000Y-130366000D03*
D13*
X178684000Y-98105000D03*
X179584000Y-98105000D03*
X179584000Y-93025000D03*
X178684000Y-93025000D03*
X178684000Y-87945000D03*
X179584000Y-87945000D03*
X178684000Y-82865000D03*
X179584000Y-82865000D03*
D16*
X109410000Y-82478500D03*
X109410000Y-83378500D03*
X178244000Y-126942000D03*
X178244000Y-126042000D03*
D13*
X175953000Y-129032000D03*
X176853000Y-129032000D03*
X173667000Y-129032000D03*
X174567000Y-129032000D03*
D16*
X151194000Y-66106500D03*
X151194000Y-65206500D03*
X153734000Y-66106500D03*
X153734000Y-65206500D03*
X156274000Y-66106500D03*
X156274000Y-65206500D03*
X171514000Y-65206500D03*
X171514000Y-66106500D03*
X158814000Y-66106500D03*
X158814000Y-65206500D03*
X161354000Y-66106500D03*
X161354000Y-65206500D03*
X163894000Y-66106500D03*
X163894000Y-65206500D03*
X166434000Y-66106500D03*
X166434000Y-65206500D03*
X168974000Y-66106500D03*
X168974000Y-65206500D03*
X174054000Y-66106500D03*
X174054000Y-65206500D03*
X176594000Y-66106500D03*
X176594000Y-65206500D03*
X137541000Y-114993000D03*
X137541000Y-115893000D03*
X136208000Y-114993000D03*
X136208000Y-115893000D03*
D13*
X135197000Y-125476000D03*
X134297000Y-125476000D03*
D16*
X136144000Y-125418000D03*
X136144000Y-124518000D03*
X137160000Y-125418000D03*
X137160000Y-124518000D03*
D22*
X140780000Y-125768000D03*
X140780000Y-124168000D03*
D16*
X137541000Y-111448000D03*
X137541000Y-110548000D03*
D13*
X142690000Y-117348000D03*
X141790000Y-117348000D03*
D16*
X139319000Y-117724000D03*
X139319000Y-118624000D03*
X139319000Y-119502000D03*
X139319000Y-120402000D03*
X139319000Y-121280000D03*
X139319000Y-122180000D03*
D13*
X128085000Y-110046000D03*
X127185000Y-110046000D03*
D16*
X129476000Y-113660000D03*
X129476000Y-114560000D03*
X130556000Y-112591000D03*
X130556000Y-111691000D03*
X130556000Y-116528000D03*
X130556000Y-115628000D03*
D13*
X128085000Y-118237000D03*
X127185000Y-118237000D03*
D16*
X114808000Y-119057000D03*
X114808000Y-119957000D03*
D23*
X127635000Y-111332000D03*
X126985000Y-113332000D03*
X128285000Y-113332000D03*
X127635000Y-114951000D03*
X126985000Y-116951000D03*
X128285000Y-116951000D03*
D13*
X133852000Y-131382000D03*
X134752000Y-131382000D03*
X139960000Y-131382000D03*
X139060000Y-131382000D03*
D24*
X157416000Y-123952000D03*
X154876000Y-123952000D03*
X152336000Y-123952000D03*
X149796000Y-123952000D03*
X147256000Y-123952000D03*
D21*
X144716000Y-123952000D03*
D25*
X134770000Y-136198000D03*
X139170000Y-136198000D03*
D26*
X132520000Y-139198000D03*
X132520000Y-133698000D03*
X141420000Y-139198000D03*
X141420000Y-133698000D03*
D27*
X135370000Y-133598000D03*
X136170000Y-133598000D03*
X136970000Y-133598000D03*
X137770000Y-133598000D03*
X138570000Y-133598000D03*
D28*
X190060000Y-136115000D03*
X190060000Y-63115000D03*
X100060000Y-136115000D03*
X100060000Y-63102500D03*
D29*
X130556000Y-114660000D03*
X130556000Y-113560000D03*
D30*
X173609000Y-127042000D03*
X173609000Y-125942000D03*
X136334000Y-112670000D03*
X136334000Y-113770000D03*
X136144000Y-122450000D03*
X136144000Y-123550000D03*
X117666000Y-115020000D03*
X117666000Y-116120000D03*
X129476000Y-116628000D03*
X129476000Y-115528000D03*
D31*
X154214000Y-130132000D03*
X154864000Y-130132000D03*
X155524000Y-130132000D03*
X156174000Y-130132000D03*
X156174000Y-127932000D03*
X155524000Y-127932000D03*
X154864000Y-127932000D03*
X154214000Y-127932000D03*
D30*
X157544000Y-129582000D03*
X157544000Y-128482000D03*
D21*
X138620000Y-61592500D03*
D24*
X136080000Y-61592500D03*
X133540000Y-61592500D03*
X131000000Y-61592500D03*
X128460000Y-61592500D03*
X125920000Y-61592500D03*
X123380000Y-61592500D03*
D32*
X120840000Y-61592500D03*
D33*
X147574000Y-129604000D03*
D34*
X149024000Y-130354000D03*
X149024000Y-129854000D03*
X149024000Y-129354000D03*
X149024000Y-128854000D03*
X146124000Y-128854000D03*
X146124000Y-129354000D03*
X146124000Y-129854000D03*
X146124000Y-130354000D03*
D15*
X155046000Y-126556000D03*
X153946000Y-126556000D03*
D30*
X150304000Y-129371000D03*
X150304000Y-130471000D03*
D15*
X118216000Y-122428000D03*
X117116000Y-122428000D03*
D30*
X120586000Y-125391000D03*
X120586000Y-124291000D03*
D15*
X110258000Y-122808000D03*
X111358000Y-122808000D03*
D30*
X137478000Y-113770000D03*
X137478000Y-112670000D03*
D15*
X156570000Y-139319000D03*
X155470000Y-139319000D03*
D35*
X103632000Y-126428000D03*
X97632000Y-126428000D03*
X100632000Y-121728000D03*
D16*
X162306000Y-87252000D03*
X162306000Y-86352000D03*
X163322000Y-86352000D03*
X163322000Y-87252000D03*
X136208000Y-111448000D03*
X136208000Y-110548000D03*
D13*
X135197000Y-124396000D03*
X134297000Y-124396000D03*
D16*
X138176000Y-124518000D03*
X138176000Y-125418000D03*
D13*
X166300000Y-134556000D03*
X167200000Y-134556000D03*
D36*
X132270000Y-87047500D03*
X132270000Y-82547500D03*
X138770000Y-87047500D03*
X138770000Y-82547500D03*
D31*
X117328000Y-125936000D03*
X117978000Y-125936000D03*
X118638000Y-125936000D03*
X119288000Y-125936000D03*
X119288000Y-123736000D03*
X118638000Y-123736000D03*
X117978000Y-123736000D03*
X117328000Y-123736000D03*
D34*
X112994000Y-123852000D03*
X112994000Y-124352000D03*
X112994000Y-124852000D03*
X112994000Y-125352000D03*
X110094000Y-125352000D03*
X110094000Y-124852000D03*
X110094000Y-124352000D03*
X110094000Y-123852000D03*
D33*
X111544000Y-124602000D03*
D37*
X168950000Y-131295000D03*
X168950000Y-131945000D03*
X168950000Y-132595000D03*
X168950000Y-133245000D03*
X164550000Y-133245000D03*
X164550000Y-132595000D03*
X164550000Y-131945000D03*
X164550000Y-131295000D03*
G36*
G01*
X162357000Y-131052500D02*
X162357000Y-131227500D01*
G75*
G02*
X162269500Y-131315000I-87500J0D01*
G01*
X161694500Y-131315000D01*
G75*
G02*
X161607000Y-131227500I0J87500D01*
G01*
X161607000Y-131052500D01*
G75*
G02*
X161694500Y-130965000I87500J0D01*
G01*
X162269500Y-130965000D01*
G75*
G02*
X162357000Y-131052500I0J-87500D01*
G01*
G37*
G36*
G01*
X162357000Y-131852500D02*
X162357000Y-132027500D01*
G75*
G02*
X162269500Y-132115000I-87500J0D01*
G01*
X161694500Y-132115000D01*
G75*
G02*
X161607000Y-132027500I0J87500D01*
G01*
X161607000Y-131852500D01*
G75*
G02*
X161694500Y-131765000I87500J0D01*
G01*
X162269500Y-131765000D01*
G75*
G02*
X162357000Y-131852500I0J-87500D01*
G01*
G37*
G36*
G01*
X162357000Y-132652500D02*
X162357000Y-132827500D01*
G75*
G02*
X162269500Y-132915000I-87500J0D01*
G01*
X161694500Y-132915000D01*
G75*
G02*
X161607000Y-132827500I0J87500D01*
G01*
X161607000Y-132652500D01*
G75*
G02*
X161694500Y-132565000I87500J0D01*
G01*
X162269500Y-132565000D01*
G75*
G02*
X162357000Y-132652500I0J-87500D01*
G01*
G37*
G36*
G01*
X162357000Y-133452500D02*
X162357000Y-133627500D01*
G75*
G02*
X162269500Y-133715000I-87500J0D01*
G01*
X161694500Y-133715000D01*
G75*
G02*
X161607000Y-133627500I0J87500D01*
G01*
X161607000Y-133452500D01*
G75*
G02*
X161694500Y-133365000I87500J0D01*
G01*
X162269500Y-133365000D01*
G75*
G02*
X162357000Y-133452500I0J-87500D01*
G01*
G37*
G36*
G01*
X162357000Y-134252500D02*
X162357000Y-134427500D01*
G75*
G02*
X162269500Y-134515000I-87500J0D01*
G01*
X161694500Y-134515000D01*
G75*
G02*
X161607000Y-134427500I0J87500D01*
G01*
X161607000Y-134252500D01*
G75*
G02*
X161694500Y-134165000I87500J0D01*
G01*
X162269500Y-134165000D01*
G75*
G02*
X162357000Y-134252500I0J-87500D01*
G01*
G37*
G36*
G01*
X162357000Y-135052500D02*
X162357000Y-135227500D01*
G75*
G02*
X162269500Y-135315000I-87500J0D01*
G01*
X161694500Y-135315000D01*
G75*
G02*
X161607000Y-135227500I0J87500D01*
G01*
X161607000Y-135052500D01*
G75*
G02*
X161694500Y-134965000I87500J0D01*
G01*
X162269500Y-134965000D01*
G75*
G02*
X162357000Y-135052500I0J-87500D01*
G01*
G37*
G36*
G01*
X162357000Y-135852500D02*
X162357000Y-136027500D01*
G75*
G02*
X162269500Y-136115000I-87500J0D01*
G01*
X161694500Y-136115000D01*
G75*
G02*
X161607000Y-136027500I0J87500D01*
G01*
X161607000Y-135852500D01*
G75*
G02*
X161694500Y-135765000I87500J0D01*
G01*
X162269500Y-135765000D01*
G75*
G02*
X162357000Y-135852500I0J-87500D01*
G01*
G37*
G36*
G01*
X159957000Y-135852500D02*
X159957000Y-136027500D01*
G75*
G02*
X159869500Y-136115000I-87500J0D01*
G01*
X159294500Y-136115000D01*
G75*
G02*
X159207000Y-136027500I0J87500D01*
G01*
X159207000Y-135852500D01*
G75*
G02*
X159294500Y-135765000I87500J0D01*
G01*
X159869500Y-135765000D01*
G75*
G02*
X159957000Y-135852500I0J-87500D01*
G01*
G37*
G36*
G01*
X159957000Y-135052500D02*
X159957000Y-135227500D01*
G75*
G02*
X159869500Y-135315000I-87500J0D01*
G01*
X159294500Y-135315000D01*
G75*
G02*
X159207000Y-135227500I0J87500D01*
G01*
X159207000Y-135052500D01*
G75*
G02*
X159294500Y-134965000I87500J0D01*
G01*
X159869500Y-134965000D01*
G75*
G02*
X159957000Y-135052500I0J-87500D01*
G01*
G37*
G36*
G01*
X159957000Y-134252500D02*
X159957000Y-134427500D01*
G75*
G02*
X159869500Y-134515000I-87500J0D01*
G01*
X159294500Y-134515000D01*
G75*
G02*
X159207000Y-134427500I0J87500D01*
G01*
X159207000Y-134252500D01*
G75*
G02*
X159294500Y-134165000I87500J0D01*
G01*
X159869500Y-134165000D01*
G75*
G02*
X159957000Y-134252500I0J-87500D01*
G01*
G37*
G36*
G01*
X159957000Y-133452500D02*
X159957000Y-133627500D01*
G75*
G02*
X159869500Y-133715000I-87500J0D01*
G01*
X159294500Y-133715000D01*
G75*
G02*
X159207000Y-133627500I0J87500D01*
G01*
X159207000Y-133452500D01*
G75*
G02*
X159294500Y-133365000I87500J0D01*
G01*
X159869500Y-133365000D01*
G75*
G02*
X159957000Y-133452500I0J-87500D01*
G01*
G37*
G36*
G01*
X159957000Y-132652500D02*
X159957000Y-132827500D01*
G75*
G02*
X159869500Y-132915000I-87500J0D01*
G01*
X159294500Y-132915000D01*
G75*
G02*
X159207000Y-132827500I0J87500D01*
G01*
X159207000Y-132652500D01*
G75*
G02*
X159294500Y-132565000I87500J0D01*
G01*
X159869500Y-132565000D01*
G75*
G02*
X159957000Y-132652500I0J-87500D01*
G01*
G37*
G36*
G01*
X159957000Y-131852500D02*
X159957000Y-132027500D01*
G75*
G02*
X159869500Y-132115000I-87500J0D01*
G01*
X159294500Y-132115000D01*
G75*
G02*
X159207000Y-132027500I0J87500D01*
G01*
X159207000Y-131852500D01*
G75*
G02*
X159294500Y-131765000I87500J0D01*
G01*
X159869500Y-131765000D01*
G75*
G02*
X159957000Y-131852500I0J-87500D01*
G01*
G37*
G36*
G01*
X159957000Y-131052500D02*
X159957000Y-131227500D01*
G75*
G02*
X159869500Y-131315000I-87500J0D01*
G01*
X159294500Y-131315000D01*
G75*
G02*
X159207000Y-131227500I0J87500D01*
G01*
X159207000Y-131052500D01*
G75*
G02*
X159294500Y-130965000I87500J0D01*
G01*
X159869500Y-130965000D01*
G75*
G02*
X159957000Y-131052500I0J-87500D01*
G01*
G37*
D16*
X182753000Y-126042000D03*
X182753000Y-126942000D03*
M02*
