M48
; DRILL file {KiCad (5.1.8)-1} date 01/22/21 21:00:52
; FORMAT={-:-/ absolute / inch / decimal}
; #@! TF.CreationDate,2021-01-22T21:00:52-06:00
; #@! TF.GenerationSoftware,Kicad,Pcbnew,(5.1.8)-1
; #@! TF.FileFunction,Plated,1,4,PTH
FMAT,2
INCH
T1C0.0079
T2C0.0394
T3C0.0433
T4C0.0472
%
G90
G05
T1
X4.075Y-4.4632
X4.075Y-4.5082
X4.1464Y-4.5636
X4.22Y-3.28
X4.2325Y-5.1557
X4.2625Y-3.3382
X4.2625Y-3.5382
X4.2625Y-3.7382
X4.2625Y-3.9382
X4.27Y-4.8725
X4.31Y-3.2225
X4.34Y-4.1925
X4.34Y-4.2175
X4.34Y-4.2425
X4.34Y-4.8107
X4.35Y-3.3382
X4.35Y-3.5382
X4.35Y-3.7382
X4.35Y-3.9382
X4.3525Y-4.9557
X4.3525Y-4.9982
X4.36Y-5.0875
X4.365Y-4.1925
X4.365Y-4.2175
X4.365Y-4.2425
X4.3715Y-3.8355
X4.3775Y-5.1682
X4.3802Y-3.6341
X4.385Y-4.8107
X4.3864Y-3.2341
X4.3888Y-5.0721
X4.39Y-4.1925
X4.39Y-4.2175
X4.39Y-4.2425
X4.415Y-4.1925
X4.415Y-4.2175
X4.415Y-4.2425
X4.4259Y-4.9961
X4.4265Y-4.9536
X4.4399Y-4.6777
X4.44Y-4.1925
X4.44Y-4.2175
X4.44Y-4.2425
X4.465Y-4.1925
X4.465Y-4.2175
X4.465Y-4.2425
X4.467Y-3.4181
X4.49Y-4.1925
X4.49Y-4.2175
X4.49Y-4.2425
X4.4925Y-5.1732
X4.4975Y-4.8075
X4.5076Y-3.8806
X4.515Y-4.1925
X4.515Y-4.2175
X4.515Y-4.2425
X4.515Y-5.04
X4.52Y-4.6675
X4.54Y-4.1925
X4.54Y-4.2175
X4.54Y-4.2425
X4.5527Y-4.9775
X4.5604Y-5.0146
X4.565Y-4.1925
X4.565Y-4.2175
X4.5675Y-4.78
X4.58Y-4.7307
X4.6082Y-4.6051
X4.6125Y-4.7957
X4.6253Y-4.1596
X4.6525Y-4.7957
X4.655Y-4.7475
X4.6805Y-5.0281
X4.6875Y-4.4375
X4.6875Y-4.5307
X4.6875Y-4.5707
X4.6975Y-4.82
X4.7075Y-4.55
X4.7175Y-4.6457
X4.7275Y-4.5307
X4.7275Y-4.5707
X4.7331Y-5.1377
X4.7675Y-4.2625
X4.7675Y-4.2875
X4.7675Y-4.3525
X4.7675Y-4.3775
X4.77Y-5.1582
X4.77Y-5.2182
X4.775Y-4.4707
X4.7825Y-4.86
X4.7875Y-4.7725
X4.8Y-4.6332
X4.8Y-5.1882
X4.825Y-3.3924
X4.83Y-5.1582
X4.83Y-5.2182
X4.8425Y-4.4075
X4.8675Y-4.4075
X4.8694Y-4.6419
X4.87Y-3.3924
X4.8782Y-3.7193
X4.8825Y-3.2899
X4.895Y-3.6574
X4.935Y-4.5225
X4.9685Y-4.6683
X4.9688Y-3.683
X4.9775Y-4.3325
X5.0Y-4.4375
X5.0Y-4.5775
X5.0161Y-3.6094
X5.0475Y-4.7775
X5.0525Y-4.56
X5.08Y-4.6575
X5.1425Y-4.6075
X5.1575Y-4.71
X5.175Y-3.8325
X5.2075Y-5.045
X5.21Y-4.9575
X5.2125Y-4.9
X5.24Y-4.8657
X5.2575Y-4.5425
X5.26Y-4.6075
X5.26Y-4.6475
X5.2625Y-4.7432
X5.2625Y-4.865
X5.285Y-2.5457
X5.285Y-4.8657
X5.29Y-4.4675
X5.3027Y-5.1232
X5.305Y-4.965
X5.305Y-5.2107
X5.305Y-5.2382
X5.305Y-5.2657
X5.305Y-5.2932
X5.3125Y-4.6425
X5.32Y-4.835
X5.3275Y-4.98
X5.33Y-2.5457
X5.33Y-4.4025
X5.33Y-4.515
X5.33Y-5.1657
X5.33Y-5.1932
X5.36Y-4.795
X5.3625Y-4.3325
X5.3815Y-5.1075
X5.39Y-4.8809
X5.4Y-4.7207
X5.4025Y-4.7657
X5.4035Y-5.1075
X5.4088Y-4.8809
X5.4525Y-4.4025
X5.4525Y-4.515
X5.475Y-4.99
X5.485Y-4.6175
X5.49Y-4.5675
X5.4923Y-4.4457
X5.495Y-4.4675
X5.535Y-4.82
X5.5525Y-4.7225
X5.5669Y-3.6556
X5.57Y-4.82
X5.6125Y-4.7225
X5.6175Y-5.06
X5.6388Y-4.5566
X5.6525Y-4.975
X5.6675Y-3.3724
X5.6833Y-5.0828
X5.6898Y-5.1419
X5.7025Y-5.1225
X5.745Y-3.3557
X5.745Y-3.3982
X5.7632Y-3.7016
X5.78Y-5.1925
X5.7872Y-4.7715
X5.79Y-5.0832
X5.79Y-5.1232
X5.805Y-3.2425
X5.81Y-5.1025
X5.8266Y-3.3449
X5.8275Y-4.7825
X5.83Y-5.0832
X5.83Y-5.1232
X5.8475Y-4.985
X5.8853Y-3.5693
X5.895Y-4.6675
X5.8966Y-4.5149
X5.9175Y-5.0125
X5.92Y-2.6632
X5.92Y-2.7057
X5.9346Y-3.4704
X5.95Y-5.125
X5.95Y-5.17
X5.9575Y-5.02
X5.975Y-5.115
X5.9775Y-3.8207
X5.9775Y-5.2875
X5.9825Y-2.6025
X5.9827Y-3.4154
X5.9975Y-5.02
X6.0014Y-3.8806
X6.0199Y-3.545
X6.02Y-3.0482
X6.0277Y-3.4332
X6.0325Y-3.8207
X6.034Y-4.7836
X6.0423Y-3.5411
X6.0425Y-5.35
X6.0625Y-4.9507
X6.0648Y-3.5079
X6.065Y-3.0482
X6.0787Y-3.4709
X6.0825Y-2.6025
X6.0875Y-3.3125
X6.0875Y-5.445
X6.1Y-3.7457
X6.1025Y-4.9507
X6.1039Y-3.5747
X6.11Y-3.48
X6.12Y-3.0482
X6.1243Y-3.8046
X6.125Y-5.445
X6.1325Y-3.391
X6.1375Y-4.9957
X6.145Y-3.7457
X6.145Y-4.3925
X6.155Y-3.5475
X6.1625Y-5.445
X6.1647Y-3.5767
X6.165Y-3.0482
X6.1725Y-5.0
X6.1825Y-2.6025
X6.2025Y-5.0307
X6.2108Y-3.2333
X6.2125Y-5.1632
X6.2125Y-5.1907
X6.2255Y-3.1314
X6.2286Y-3.8364
X6.2325Y-4.555
X6.2325Y-5.0607
X6.235Y-4.4875
X6.2375Y-3.6857
X6.2375Y-3.7257
X6.2395Y-5.3965
X6.2468Y-5.0206
X6.25Y-3.2275
X6.2512Y-3.3317
X6.2625Y-3.2775
X6.2775Y-3.6457
X6.28Y-5.3925
X6.2825Y-2.6025
X6.2825Y-3.3649
X6.2825Y-3.3874
X6.3117Y-5.1664
X6.3125Y-5.2182
X6.3125Y-5.2607
X6.315Y-5.3032
X6.315Y-5.3432
X6.35Y-5.2582
X6.3678Y-3.8046
X6.3825Y-2.6025
X6.3925Y-5.0
X6.3925Y-3.515
X6.42Y-5.17
X6.42Y-5.2475
X6.455Y-3.4382
X6.4553Y-3.3982
X6.46Y-5.14
X6.4725Y-3.8907
X6.475Y-3.8457
X6.4825Y-2.6025
X6.505Y-3.6907
X6.505Y-3.7232
X6.535Y-3.2325
X6.5475Y-5.1575
X6.5825Y-2.6025
X6.5825Y-5.1575
X6.61Y-3.3525
X6.63Y-3.3125
X6.67Y-5.2825
X6.6825Y-2.6025
X6.7Y-3.3825
X6.7Y-3.455
X6.705Y-3.5025
X6.7075Y-5.1625
X6.7075Y-5.245
X6.7525Y-2.974
X6.7525Y-3.015
X6.7825Y-2.6025
X6.815Y-5.08
X6.8825Y-2.6025
X6.895Y-5.08
X6.9Y-4.985
X6.905Y-3.4157
X6.905Y-3.4607
X6.955Y-4.9775
X6.9825Y-2.6025
X7.0075Y-3.3357
X7.0075Y-3.5357
X7.0075Y-3.7357
X7.0075Y-3.9357
X7.0175Y-4.9325
X7.0975Y-3.3357
X7.0975Y-3.5357
X7.0975Y-3.7357
X7.0975Y-3.9357
X7.11Y-4.955
X7.1108Y-4.9981
X7.12Y-3.2382
X7.12Y-3.4382
X7.12Y-3.6382
X7.12Y-3.8382
X7.1225Y-2.5932
X7.1475Y-5.0275
X7.18Y-2.6632
X7.225Y-2.6632
X7.3019Y-4.7642
X7.315Y-4.9182
X7.405Y-4.9182
T2
X7.575Y-5.1325
X4.7575Y-2.4249
X4.8575Y-2.4249
X4.9575Y-2.4249
X5.0575Y-2.4249
X5.1575Y-2.4249
X5.2575Y-2.4249
X5.3575Y-2.4249
X5.4575Y-2.4249
X5.6975Y-4.88
X5.7975Y-4.88
X5.8975Y-4.88
X5.9975Y-4.88
X6.0975Y-4.88
X6.1975Y-4.88
T3
X5.2075Y-3.2499
X5.2075Y-3.4271
X5.4634Y-3.2499
X5.4634Y-3.4271
T4
X5.7515Y-2.4249
X5.8515Y-2.4249
X5.9515Y-2.4249
X6.0515Y-2.4249
X6.1515Y-2.4249
X6.2515Y-2.4249
X6.3515Y-2.4249
X6.4515Y-2.4249
X6.5515Y-2.4249
X6.6515Y-2.4249
X6.7515Y-2.4249
X6.8515Y-2.4249
X6.9515Y-2.4249
X7.0515Y-2.4249
X7.1515Y-2.4249
X7.2515Y-2.4249
T2
G00X3.8438Y-4.9381
M15
G01X3.8438Y-5.0169
M16
G05
G00X3.9225Y-4.7924
M15
G01X4.0013Y-4.7924
M16
G05
G00X4.08Y-4.9381
M15
G01X4.08Y-5.0169
M16
G05
T0
M30
