G04 #@! TF.GenerationSoftware,KiCad,Pcbnew,(5.1.8)-1*
G04 #@! TF.CreationDate,2021-01-22T21:00:44-06:00*
G04 #@! TF.ProjectId,Pulse_Oximeter,50756c73-655f-44f7-9869-6d657465722e,rev?*
G04 #@! TF.SameCoordinates,Original*
G04 #@! TF.FileFunction,Legend,Bot*
G04 #@! TF.FilePolarity,Positive*
%FSLAX46Y46*%
G04 Gerber Fmt 4.6, Leading zero omitted, Abs format (unit mm)*
G04 Created by KiCad (PCBNEW (5.1.8)-1) date 2021-01-22 21:00:44*
%MOMM*%
%LPD*%
G01*
G04 APERTURE LIST*
%ADD10C,0.150000*%
%ADD11C,0.300000*%
%ADD12C,0.120000*%
%ADD13C,0.500000*%
G04 APERTURE END LIST*
D10*
X171688880Y-123404380D02*
X171498404Y-123404380D01*
X171403166Y-123452000D01*
X171307928Y-123547238D01*
X171260309Y-123737714D01*
X171260309Y-124071047D01*
X171307928Y-124261523D01*
X171403166Y-124356761D01*
X171498404Y-124404380D01*
X171688880Y-124404380D01*
X171784119Y-124356761D01*
X171879357Y-124261523D01*
X171926976Y-124071047D01*
X171926976Y-123737714D01*
X171879357Y-123547238D01*
X171784119Y-123452000D01*
X171688880Y-123404380D01*
X170879357Y-124356761D02*
X170736500Y-124404380D01*
X170498404Y-124404380D01*
X170403166Y-124356761D01*
X170355547Y-124309142D01*
X170307928Y-124213904D01*
X170307928Y-124118666D01*
X170355547Y-124023428D01*
X170403166Y-123975809D01*
X170498404Y-123928190D01*
X170688880Y-123880571D01*
X170784119Y-123832952D01*
X170831738Y-123785333D01*
X170879357Y-123690095D01*
X170879357Y-123594857D01*
X170831738Y-123499619D01*
X170784119Y-123452000D01*
X170688880Y-123404380D01*
X170450785Y-123404380D01*
X170307928Y-123452000D01*
X169879357Y-123880571D02*
X169546023Y-123880571D01*
X169403166Y-124404380D02*
X169879357Y-124404380D01*
X169879357Y-123404380D01*
X169403166Y-123404380D01*
X168974595Y-124404380D02*
X168974595Y-123404380D01*
X168593642Y-123404380D01*
X168498404Y-123452000D01*
X168450785Y-123499619D01*
X168403166Y-123594857D01*
X168403166Y-123737714D01*
X168450785Y-123832952D01*
X168498404Y-123880571D01*
X168593642Y-123928190D01*
X168974595Y-123928190D01*
X167974595Y-124404380D02*
X167974595Y-123404380D01*
X167593642Y-123404380D01*
X167498404Y-123452000D01*
X167450785Y-123499619D01*
X167403166Y-123594857D01*
X167403166Y-123737714D01*
X167450785Y-123832952D01*
X167498404Y-123880571D01*
X167593642Y-123928190D01*
X167974595Y-123928190D01*
X166974595Y-124023428D02*
X166212690Y-124023428D01*
X165403166Y-123880571D02*
X165736500Y-123880571D01*
X165736500Y-124404380D02*
X165736500Y-123404380D01*
X165260309Y-123404380D01*
X165022214Y-123404380D02*
X164450785Y-123404380D01*
X164736500Y-124404380D02*
X164736500Y-123404380D01*
X164117452Y-124404380D02*
X164117452Y-123404380D01*
X163879357Y-123404380D01*
X163736500Y-123452000D01*
X163641261Y-123547238D01*
X163593642Y-123642476D01*
X163546023Y-123832952D01*
X163546023Y-123975809D01*
X163593642Y-124166285D01*
X163641261Y-124261523D01*
X163736500Y-124356761D01*
X163879357Y-124404380D01*
X164117452Y-124404380D01*
X163117452Y-124404380D02*
X163117452Y-123404380D01*
X162641261Y-124023428D02*
X161879357Y-124023428D01*
X161212690Y-123404380D02*
X161117452Y-123404380D01*
X161022214Y-123452000D01*
X160974595Y-123499619D01*
X160926976Y-123594857D01*
X160879357Y-123785333D01*
X160879357Y-124023428D01*
X160926976Y-124213904D01*
X160974595Y-124309142D01*
X161022214Y-124356761D01*
X161117452Y-124404380D01*
X161212690Y-124404380D01*
X161307928Y-124356761D01*
X161355547Y-124309142D01*
X161403166Y-124213904D01*
X161450785Y-124023428D01*
X161450785Y-123785333D01*
X161403166Y-123594857D01*
X161355547Y-123499619D01*
X161307928Y-123452000D01*
X161212690Y-123404380D01*
X159926976Y-124404380D02*
X160498404Y-124404380D01*
X160212690Y-124404380D02*
X160212690Y-123404380D01*
X160307928Y-123547238D01*
X160403166Y-123642476D01*
X160498404Y-123690095D01*
X157916500Y-121441595D02*
X157964119Y-121536833D01*
X157964119Y-121679690D01*
X157916500Y-121822547D01*
X157821261Y-121917785D01*
X157726023Y-121965404D01*
X157535547Y-122013023D01*
X157392690Y-122013023D01*
X157202214Y-121965404D01*
X157106976Y-121917785D01*
X157011738Y-121822547D01*
X156964119Y-121679690D01*
X156964119Y-121584452D01*
X157011738Y-121441595D01*
X157059357Y-121393976D01*
X157392690Y-121393976D01*
X157392690Y-121584452D01*
X156964119Y-120965404D02*
X157964119Y-120965404D01*
X156964119Y-120393976D01*
X157964119Y-120393976D01*
X156964119Y-119917785D02*
X157964119Y-119917785D01*
X157964119Y-119679690D01*
X157916500Y-119536833D01*
X157821261Y-119441595D01*
X157726023Y-119393976D01*
X157535547Y-119346357D01*
X157392690Y-119346357D01*
X157202214Y-119393976D01*
X157106976Y-119441595D01*
X157011738Y-119536833D01*
X156964119Y-119679690D01*
X156964119Y-119917785D01*
X152884119Y-122108261D02*
X151884119Y-121774928D01*
X152884119Y-121441595D01*
X151884119Y-121108261D02*
X152884119Y-121108261D01*
X152884119Y-120870166D01*
X152836500Y-120727309D01*
X152741261Y-120632071D01*
X152646023Y-120584452D01*
X152455547Y-120536833D01*
X152312690Y-120536833D01*
X152122214Y-120584452D01*
X152026976Y-120632071D01*
X151931738Y-120727309D01*
X151884119Y-120870166D01*
X151884119Y-121108261D01*
X151884119Y-120108261D02*
X152884119Y-120108261D01*
X152884119Y-119870166D01*
X152836500Y-119727309D01*
X152741261Y-119632071D01*
X152646023Y-119584452D01*
X152455547Y-119536833D01*
X152312690Y-119536833D01*
X152122214Y-119584452D01*
X152026976Y-119632071D01*
X151931738Y-119727309D01*
X151884119Y-119870166D01*
X151884119Y-120108261D01*
X149280619Y-121393976D02*
X149756809Y-121727309D01*
X149280619Y-121965404D02*
X150280619Y-121965404D01*
X150280619Y-121584452D01*
X150233000Y-121489214D01*
X150185380Y-121441595D01*
X150090142Y-121393976D01*
X149947285Y-121393976D01*
X149852047Y-121441595D01*
X149804428Y-121489214D01*
X149756809Y-121584452D01*
X149756809Y-121965404D01*
X150280619Y-121060642D02*
X149280619Y-120393976D01*
X150280619Y-120393976D02*
X149280619Y-121060642D01*
X147804119Y-122108261D02*
X147804119Y-121536833D01*
X146804119Y-121822547D02*
X147804119Y-121822547D01*
X147804119Y-121298738D02*
X146804119Y-120632071D01*
X147804119Y-120632071D02*
X146804119Y-121298738D01*
X156953904Y-134310880D02*
X156953904Y-133310880D01*
X156572952Y-133310880D01*
X156477714Y-133358500D01*
X156430095Y-133406119D01*
X156382476Y-133501357D01*
X156382476Y-133644214D01*
X156430095Y-133739452D01*
X156477714Y-133787071D01*
X156572952Y-133834690D01*
X156953904Y-133834690D01*
X155811047Y-134310880D02*
X155906285Y-134263261D01*
X155953904Y-134168023D01*
X155953904Y-133310880D01*
X155001523Y-134310880D02*
X155001523Y-133787071D01*
X155049142Y-133691833D01*
X155144380Y-133644214D01*
X155334857Y-133644214D01*
X155430095Y-133691833D01*
X155001523Y-134263261D02*
X155096761Y-134310880D01*
X155334857Y-134310880D01*
X155430095Y-134263261D01*
X155477714Y-134168023D01*
X155477714Y-134072785D01*
X155430095Y-133977547D01*
X155334857Y-133929928D01*
X155096761Y-133929928D01*
X155001523Y-133882309D01*
X154096761Y-134263261D02*
X154192000Y-134310880D01*
X154382476Y-134310880D01*
X154477714Y-134263261D01*
X154525333Y-134215642D01*
X154572952Y-134120404D01*
X154572952Y-133834690D01*
X154525333Y-133739452D01*
X154477714Y-133691833D01*
X154382476Y-133644214D01*
X154192000Y-133644214D01*
X154096761Y-133691833D01*
X153287238Y-134263261D02*
X153382476Y-134310880D01*
X153572952Y-134310880D01*
X153668190Y-134263261D01*
X153715809Y-134168023D01*
X153715809Y-133787071D01*
X153668190Y-133691833D01*
X153572952Y-133644214D01*
X153382476Y-133644214D01*
X153287238Y-133691833D01*
X153239619Y-133787071D01*
X153239619Y-133882309D01*
X153715809Y-133977547D01*
X151715809Y-133787071D02*
X152049142Y-133787071D01*
X152049142Y-134310880D02*
X152049142Y-133310880D01*
X151572952Y-133310880D01*
X151192000Y-134310880D02*
X151192000Y-133644214D01*
X151192000Y-133310880D02*
X151239619Y-133358500D01*
X151192000Y-133406119D01*
X151144380Y-133358500D01*
X151192000Y-133310880D01*
X151192000Y-133406119D01*
X150715809Y-133644214D02*
X150715809Y-134310880D01*
X150715809Y-133739452D02*
X150668190Y-133691833D01*
X150572952Y-133644214D01*
X150430095Y-133644214D01*
X150334857Y-133691833D01*
X150287238Y-133787071D01*
X150287238Y-134310880D01*
X149382476Y-133644214D02*
X149382476Y-134453738D01*
X149430095Y-134548976D01*
X149477714Y-134596595D01*
X149572952Y-134644214D01*
X149715809Y-134644214D01*
X149811047Y-134596595D01*
X149382476Y-134263261D02*
X149477714Y-134310880D01*
X149668190Y-134310880D01*
X149763428Y-134263261D01*
X149811047Y-134215642D01*
X149858666Y-134120404D01*
X149858666Y-133834690D01*
X149811047Y-133739452D01*
X149763428Y-133691833D01*
X149668190Y-133644214D01*
X149477714Y-133644214D01*
X149382476Y-133691833D01*
X148525333Y-134263261D02*
X148620571Y-134310880D01*
X148811047Y-134310880D01*
X148906285Y-134263261D01*
X148953904Y-134168023D01*
X148953904Y-133787071D01*
X148906285Y-133691833D01*
X148811047Y-133644214D01*
X148620571Y-133644214D01*
X148525333Y-133691833D01*
X148477714Y-133787071D01*
X148477714Y-133882309D01*
X148953904Y-133977547D01*
X148049142Y-134310880D02*
X148049142Y-133644214D01*
X148049142Y-133834690D02*
X148001523Y-133739452D01*
X147953904Y-133691833D01*
X147858666Y-133644214D01*
X147763428Y-133644214D01*
X146668190Y-134310880D02*
X146668190Y-133310880D01*
X146668190Y-133787071D02*
X146096761Y-133787071D01*
X146096761Y-134310880D02*
X146096761Y-133310880D01*
X145239619Y-134263261D02*
X145334857Y-134310880D01*
X145525333Y-134310880D01*
X145620571Y-134263261D01*
X145668190Y-134168023D01*
X145668190Y-133787071D01*
X145620571Y-133691833D01*
X145525333Y-133644214D01*
X145334857Y-133644214D01*
X145239619Y-133691833D01*
X145192000Y-133787071D01*
X145192000Y-133882309D01*
X145668190Y-133977547D01*
X144763428Y-134310880D02*
X144763428Y-133644214D01*
X144763428Y-133834690D02*
X144715809Y-133739452D01*
X144668190Y-133691833D01*
X144572952Y-133644214D01*
X144477714Y-133644214D01*
X143763428Y-134263261D02*
X143858666Y-134310880D01*
X144049142Y-134310880D01*
X144144380Y-134263261D01*
X144192000Y-134168023D01*
X144192000Y-133787071D01*
X144144380Y-133691833D01*
X144049142Y-133644214D01*
X143858666Y-133644214D01*
X143763428Y-133691833D01*
X143715809Y-133787071D01*
X143715809Y-133882309D01*
X144192000Y-133977547D01*
X156192000Y-135294214D02*
X156953904Y-135579928D01*
X156192000Y-135865642D01*
X154953904Y-135579928D02*
X154192000Y-135579928D01*
X153715809Y-135579928D02*
X152953904Y-135579928D01*
X152477714Y-135579928D02*
X151715809Y-135579928D01*
X151239619Y-135579928D02*
X150477714Y-135579928D01*
X150001523Y-135579928D02*
X149239619Y-135579928D01*
X148763428Y-135579928D02*
X148001523Y-135579928D01*
X147525333Y-135579928D02*
X146763428Y-135579928D01*
X146287238Y-135579928D02*
X145525333Y-135579928D01*
X145049142Y-135579928D02*
X144287238Y-135579928D01*
X182353904Y-122690380D02*
X182353904Y-121690380D01*
X181972952Y-121690380D01*
X181877714Y-121738000D01*
X181830095Y-121785619D01*
X181782476Y-121880857D01*
X181782476Y-122023714D01*
X181830095Y-122118952D01*
X181877714Y-122166571D01*
X181972952Y-122214190D01*
X182353904Y-122214190D01*
X181163428Y-121690380D02*
X180972952Y-121690380D01*
X180877714Y-121738000D01*
X180782476Y-121833238D01*
X180734857Y-122023714D01*
X180734857Y-122357047D01*
X180782476Y-122547523D01*
X180877714Y-122642761D01*
X180972952Y-122690380D01*
X181163428Y-122690380D01*
X181258666Y-122642761D01*
X181353904Y-122547523D01*
X181401523Y-122357047D01*
X181401523Y-122023714D01*
X181353904Y-121833238D01*
X181258666Y-121738000D01*
X181163428Y-121690380D01*
X180401523Y-121690380D02*
X179734857Y-122690380D01*
X179734857Y-121690380D02*
X180401523Y-122690380D01*
X182353904Y-124340380D02*
X182353904Y-123340380D01*
X182115809Y-123340380D01*
X181972952Y-123388000D01*
X181877714Y-123483238D01*
X181830095Y-123578476D01*
X181782476Y-123768952D01*
X181782476Y-123911809D01*
X181830095Y-124102285D01*
X181877714Y-124197523D01*
X181972952Y-124292761D01*
X182115809Y-124340380D01*
X182353904Y-124340380D01*
X181401523Y-124054666D02*
X180925333Y-124054666D01*
X181496761Y-124340380D02*
X181163428Y-123340380D01*
X180830095Y-124340380D01*
X180639619Y-123340380D02*
X180068190Y-123340380D01*
X180353904Y-124340380D02*
X180353904Y-123340380D01*
X179782476Y-124054666D02*
X179306285Y-124054666D01*
X179877714Y-124340380D02*
X179544380Y-123340380D01*
X179211047Y-124340380D01*
X127934404Y-128613880D02*
X127934404Y-129423404D01*
X127886785Y-129518642D01*
X127839166Y-129566261D01*
X127743928Y-129613880D01*
X127553452Y-129613880D01*
X127458214Y-129566261D01*
X127410595Y-129518642D01*
X127362976Y-129423404D01*
X127362976Y-128613880D01*
X126934404Y-129566261D02*
X126791547Y-129613880D01*
X126553452Y-129613880D01*
X126458214Y-129566261D01*
X126410595Y-129518642D01*
X126362976Y-129423404D01*
X126362976Y-129328166D01*
X126410595Y-129232928D01*
X126458214Y-129185309D01*
X126553452Y-129137690D01*
X126743928Y-129090071D01*
X126839166Y-129042452D01*
X126886785Y-128994833D01*
X126934404Y-128899595D01*
X126934404Y-128804357D01*
X126886785Y-128709119D01*
X126839166Y-128661500D01*
X126743928Y-128613880D01*
X126505833Y-128613880D01*
X126362976Y-128661500D01*
X125601071Y-129090071D02*
X125458214Y-129137690D01*
X125410595Y-129185309D01*
X125362976Y-129280547D01*
X125362976Y-129423404D01*
X125410595Y-129518642D01*
X125458214Y-129566261D01*
X125553452Y-129613880D01*
X125934404Y-129613880D01*
X125934404Y-128613880D01*
X125601071Y-128613880D01*
X125505833Y-128661500D01*
X125458214Y-128709119D01*
X125410595Y-128804357D01*
X125410595Y-128899595D01*
X125458214Y-128994833D01*
X125505833Y-129042452D01*
X125601071Y-129090071D01*
X125934404Y-129090071D01*
X123601071Y-129518642D02*
X123648690Y-129566261D01*
X123791547Y-129613880D01*
X123886785Y-129613880D01*
X124029642Y-129566261D01*
X124124880Y-129471023D01*
X124172500Y-129375785D01*
X124220119Y-129185309D01*
X124220119Y-129042452D01*
X124172500Y-128851976D01*
X124124880Y-128756738D01*
X124029642Y-128661500D01*
X123886785Y-128613880D01*
X123791547Y-128613880D01*
X123648690Y-128661500D01*
X123601071Y-128709119D01*
X122982023Y-128613880D02*
X122791547Y-128613880D01*
X122696309Y-128661500D01*
X122601071Y-128756738D01*
X122553452Y-128947214D01*
X122553452Y-129280547D01*
X122601071Y-129471023D01*
X122696309Y-129566261D01*
X122791547Y-129613880D01*
X122982023Y-129613880D01*
X123077261Y-129566261D01*
X123172500Y-129471023D01*
X123220119Y-129280547D01*
X123220119Y-128947214D01*
X123172500Y-128756738D01*
X123077261Y-128661500D01*
X122982023Y-128613880D01*
X122124880Y-129613880D02*
X122124880Y-128613880D01*
X121791547Y-129328166D01*
X121458214Y-128613880D01*
X121458214Y-129613880D01*
X120220119Y-129613880D02*
X120220119Y-128613880D01*
X119839166Y-128613880D01*
X119743928Y-128661500D01*
X119696309Y-128709119D01*
X119648690Y-128804357D01*
X119648690Y-128947214D01*
X119696309Y-129042452D01*
X119743928Y-129090071D01*
X119839166Y-129137690D01*
X120220119Y-129137690D01*
X119077261Y-129613880D02*
X119172500Y-129566261D01*
X119220119Y-129518642D01*
X119267738Y-129423404D01*
X119267738Y-129137690D01*
X119220119Y-129042452D01*
X119172500Y-128994833D01*
X119077261Y-128947214D01*
X118934404Y-128947214D01*
X118839166Y-128994833D01*
X118791547Y-129042452D01*
X118743928Y-129137690D01*
X118743928Y-129423404D01*
X118791547Y-129518642D01*
X118839166Y-129566261D01*
X118934404Y-129613880D01*
X119077261Y-129613880D01*
X118315357Y-129613880D02*
X118315357Y-128947214D01*
X118315357Y-129137690D02*
X118267738Y-129042452D01*
X118220119Y-128994833D01*
X118124880Y-128947214D01*
X118029642Y-128947214D01*
X117839166Y-128947214D02*
X117458214Y-128947214D01*
X117696309Y-128613880D02*
X117696309Y-129471023D01*
X117648690Y-129566261D01*
X117553452Y-129613880D01*
X117458214Y-129613880D01*
X117124880Y-129518642D02*
X117077261Y-129566261D01*
X117124880Y-129613880D01*
X117172500Y-129566261D01*
X117124880Y-129518642D01*
X117124880Y-129613880D01*
X117124880Y-128994833D02*
X117077261Y-129042452D01*
X117124880Y-129090071D01*
X117172500Y-129042452D01*
X117124880Y-128994833D01*
X117124880Y-129090071D01*
X127601071Y-130740071D02*
X127458214Y-130787690D01*
X127410595Y-130835309D01*
X127362976Y-130930547D01*
X127362976Y-131073404D01*
X127410595Y-131168642D01*
X127458214Y-131216261D01*
X127553452Y-131263880D01*
X127934404Y-131263880D01*
X127934404Y-130263880D01*
X127601071Y-130263880D01*
X127505833Y-130311500D01*
X127458214Y-130359119D01*
X127410595Y-130454357D01*
X127410595Y-130549595D01*
X127458214Y-130644833D01*
X127505833Y-130692452D01*
X127601071Y-130740071D01*
X127934404Y-130740071D01*
X126505833Y-131263880D02*
X126505833Y-130740071D01*
X126553452Y-130644833D01*
X126648690Y-130597214D01*
X126839166Y-130597214D01*
X126934404Y-130644833D01*
X126505833Y-131216261D02*
X126601071Y-131263880D01*
X126839166Y-131263880D01*
X126934404Y-131216261D01*
X126982023Y-131121023D01*
X126982023Y-131025785D01*
X126934404Y-130930547D01*
X126839166Y-130882928D01*
X126601071Y-130882928D01*
X126505833Y-130835309D01*
X125601071Y-130597214D02*
X125601071Y-131263880D01*
X126029642Y-130597214D02*
X126029642Y-131121023D01*
X125982023Y-131216261D01*
X125886785Y-131263880D01*
X125743928Y-131263880D01*
X125648690Y-131216261D01*
X125601071Y-131168642D01*
X124696309Y-131263880D02*
X124696309Y-130263880D01*
X124696309Y-131216261D02*
X124791547Y-131263880D01*
X124982023Y-131263880D01*
X125077261Y-131216261D01*
X125124880Y-131168642D01*
X125172500Y-131073404D01*
X125172500Y-130787690D01*
X125124880Y-130692452D01*
X125077261Y-130644833D01*
X124982023Y-130597214D01*
X124791547Y-130597214D01*
X124696309Y-130644833D01*
X124220119Y-131168642D02*
X124172500Y-131216261D01*
X124220119Y-131263880D01*
X124267738Y-131216261D01*
X124220119Y-131168642D01*
X124220119Y-131263880D01*
X124220119Y-130644833D02*
X124172500Y-130692452D01*
X124220119Y-130740071D01*
X124267738Y-130692452D01*
X124220119Y-130644833D01*
X124220119Y-130740071D01*
X122458214Y-131263880D02*
X123029642Y-131263880D01*
X122743928Y-131263880D02*
X122743928Y-130263880D01*
X122839166Y-130406738D01*
X122934404Y-130501976D01*
X123029642Y-130549595D01*
X121505833Y-131263880D02*
X122077261Y-131263880D01*
X121791547Y-131263880D02*
X121791547Y-130263880D01*
X121886785Y-130406738D01*
X121982023Y-130501976D01*
X122077261Y-130549595D01*
X120601071Y-130263880D02*
X121077261Y-130263880D01*
X121124880Y-130740071D01*
X121077261Y-130692452D01*
X120982023Y-130644833D01*
X120743928Y-130644833D01*
X120648690Y-130692452D01*
X120601071Y-130740071D01*
X120553452Y-130835309D01*
X120553452Y-131073404D01*
X120601071Y-131168642D01*
X120648690Y-131216261D01*
X120743928Y-131263880D01*
X120982023Y-131263880D01*
X121077261Y-131216261D01*
X121124880Y-131168642D01*
X120124880Y-131168642D02*
X120077261Y-131216261D01*
X120124880Y-131263880D01*
X120172500Y-131216261D01*
X120124880Y-131168642D01*
X120124880Y-131263880D01*
X119696309Y-130359119D02*
X119648690Y-130311500D01*
X119553452Y-130263880D01*
X119315357Y-130263880D01*
X119220119Y-130311500D01*
X119172500Y-130359119D01*
X119124880Y-130454357D01*
X119124880Y-130549595D01*
X119172500Y-130692452D01*
X119743928Y-131263880D01*
X119124880Y-131263880D01*
X118696309Y-131263880D02*
X118696309Y-130263880D01*
X118601071Y-130882928D02*
X118315357Y-131263880D01*
X118315357Y-130597214D02*
X118696309Y-130978166D01*
X117886785Y-131263880D02*
X117886785Y-130263880D01*
X117886785Y-130644833D02*
X117791547Y-130597214D01*
X117601071Y-130597214D01*
X117505833Y-130644833D01*
X117458214Y-130692452D01*
X117410595Y-130787690D01*
X117410595Y-131073404D01*
X117458214Y-131168642D01*
X117505833Y-131216261D01*
X117601071Y-131263880D01*
X117791547Y-131263880D01*
X117886785Y-131216261D01*
X116982023Y-130597214D02*
X116982023Y-131597214D01*
X116982023Y-130644833D02*
X116886785Y-130597214D01*
X116696309Y-130597214D01*
X116601071Y-130644833D01*
X116553452Y-130692452D01*
X116505833Y-130787690D01*
X116505833Y-131073404D01*
X116553452Y-131168642D01*
X116601071Y-131216261D01*
X116696309Y-131263880D01*
X116886785Y-131263880D01*
X116982023Y-131216261D01*
X116124880Y-131216261D02*
X116029642Y-131263880D01*
X115839166Y-131263880D01*
X115743928Y-131216261D01*
X115696309Y-131121023D01*
X115696309Y-131073404D01*
X115743928Y-130978166D01*
X115839166Y-130930547D01*
X115982023Y-130930547D01*
X116077261Y-130882928D01*
X116124880Y-130787690D01*
X116124880Y-130740071D01*
X116077261Y-130644833D01*
X115982023Y-130597214D01*
X115839166Y-130597214D01*
X115743928Y-130644833D01*
X127934404Y-132913880D02*
X127934404Y-131913880D01*
X127696309Y-131913880D01*
X127553452Y-131961500D01*
X127458214Y-132056738D01*
X127410595Y-132151976D01*
X127362976Y-132342452D01*
X127362976Y-132485309D01*
X127410595Y-132675785D01*
X127458214Y-132771023D01*
X127553452Y-132866261D01*
X127696309Y-132913880D01*
X127934404Y-132913880D01*
X126505833Y-132913880D02*
X126505833Y-132390071D01*
X126553452Y-132294833D01*
X126648690Y-132247214D01*
X126839166Y-132247214D01*
X126934404Y-132294833D01*
X126505833Y-132866261D02*
X126601071Y-132913880D01*
X126839166Y-132913880D01*
X126934404Y-132866261D01*
X126982023Y-132771023D01*
X126982023Y-132675785D01*
X126934404Y-132580547D01*
X126839166Y-132532928D01*
X126601071Y-132532928D01*
X126505833Y-132485309D01*
X126172500Y-132247214D02*
X125791547Y-132247214D01*
X126029642Y-131913880D02*
X126029642Y-132771023D01*
X125982023Y-132866261D01*
X125886785Y-132913880D01*
X125791547Y-132913880D01*
X125029642Y-132913880D02*
X125029642Y-132390071D01*
X125077261Y-132294833D01*
X125172500Y-132247214D01*
X125362976Y-132247214D01*
X125458214Y-132294833D01*
X125029642Y-132866261D02*
X125124880Y-132913880D01*
X125362976Y-132913880D01*
X125458214Y-132866261D01*
X125505833Y-132771023D01*
X125505833Y-132675785D01*
X125458214Y-132580547D01*
X125362976Y-132532928D01*
X125124880Y-132532928D01*
X125029642Y-132485309D01*
X123458214Y-132390071D02*
X123315357Y-132437690D01*
X123267738Y-132485309D01*
X123220119Y-132580547D01*
X123220119Y-132723404D01*
X123267738Y-132818642D01*
X123315357Y-132866261D01*
X123410595Y-132913880D01*
X123791547Y-132913880D01*
X123791547Y-131913880D01*
X123458214Y-131913880D01*
X123362976Y-131961500D01*
X123315357Y-132009119D01*
X123267738Y-132104357D01*
X123267738Y-132199595D01*
X123315357Y-132294833D01*
X123362976Y-132342452D01*
X123458214Y-132390071D01*
X123791547Y-132390071D01*
X122791547Y-132913880D02*
X122791547Y-132247214D01*
X122791547Y-131913880D02*
X122839166Y-131961500D01*
X122791547Y-132009119D01*
X122743928Y-131961500D01*
X122791547Y-131913880D01*
X122791547Y-132009119D01*
X122458214Y-132247214D02*
X122077261Y-132247214D01*
X122315357Y-131913880D02*
X122315357Y-132771023D01*
X122267738Y-132866261D01*
X122172500Y-132913880D01*
X122077261Y-132913880D01*
X121791547Y-132866261D02*
X121696309Y-132913880D01*
X121505833Y-132913880D01*
X121410595Y-132866261D01*
X121362976Y-132771023D01*
X121362976Y-132723404D01*
X121410595Y-132628166D01*
X121505833Y-132580547D01*
X121648690Y-132580547D01*
X121743928Y-132532928D01*
X121791547Y-132437690D01*
X121791547Y-132390071D01*
X121743928Y-132294833D01*
X121648690Y-132247214D01*
X121505833Y-132247214D01*
X121410595Y-132294833D01*
X120934404Y-132818642D02*
X120886785Y-132866261D01*
X120934404Y-132913880D01*
X120982023Y-132866261D01*
X120934404Y-132818642D01*
X120934404Y-132913880D01*
X120934404Y-132294833D02*
X120886785Y-132342452D01*
X120934404Y-132390071D01*
X120982023Y-132342452D01*
X120934404Y-132294833D01*
X120934404Y-132390071D01*
X119553452Y-132342452D02*
X119648690Y-132294833D01*
X119696309Y-132247214D01*
X119743928Y-132151976D01*
X119743928Y-132104357D01*
X119696309Y-132009119D01*
X119648690Y-131961500D01*
X119553452Y-131913880D01*
X119362976Y-131913880D01*
X119267738Y-131961500D01*
X119220119Y-132009119D01*
X119172500Y-132104357D01*
X119172500Y-132151976D01*
X119220119Y-132247214D01*
X119267738Y-132294833D01*
X119362976Y-132342452D01*
X119553452Y-132342452D01*
X119648690Y-132390071D01*
X119696309Y-132437690D01*
X119743928Y-132532928D01*
X119743928Y-132723404D01*
X119696309Y-132818642D01*
X119648690Y-132866261D01*
X119553452Y-132913880D01*
X119362976Y-132913880D01*
X119267738Y-132866261D01*
X119220119Y-132818642D01*
X119172500Y-132723404D01*
X119172500Y-132532928D01*
X119220119Y-132437690D01*
X119267738Y-132390071D01*
X119362976Y-132342452D01*
X127982023Y-134516261D02*
X127839166Y-134563880D01*
X127601071Y-134563880D01*
X127505833Y-134516261D01*
X127458214Y-134468642D01*
X127410595Y-134373404D01*
X127410595Y-134278166D01*
X127458214Y-134182928D01*
X127505833Y-134135309D01*
X127601071Y-134087690D01*
X127791547Y-134040071D01*
X127886785Y-133992452D01*
X127934404Y-133944833D01*
X127982023Y-133849595D01*
X127982023Y-133754357D01*
X127934404Y-133659119D01*
X127886785Y-133611500D01*
X127791547Y-133563880D01*
X127553452Y-133563880D01*
X127410595Y-133611500D01*
X127124880Y-133897214D02*
X126743928Y-133897214D01*
X126982023Y-133563880D02*
X126982023Y-134421023D01*
X126934404Y-134516261D01*
X126839166Y-134563880D01*
X126743928Y-134563880D01*
X126267738Y-134563880D02*
X126362976Y-134516261D01*
X126410595Y-134468642D01*
X126458214Y-134373404D01*
X126458214Y-134087690D01*
X126410595Y-133992452D01*
X126362976Y-133944833D01*
X126267738Y-133897214D01*
X126124880Y-133897214D01*
X126029642Y-133944833D01*
X125982023Y-133992452D01*
X125934404Y-134087690D01*
X125934404Y-134373404D01*
X125982023Y-134468642D01*
X126029642Y-134516261D01*
X126124880Y-134563880D01*
X126267738Y-134563880D01*
X125505833Y-133897214D02*
X125505833Y-134897214D01*
X125505833Y-133944833D02*
X125410595Y-133897214D01*
X125220119Y-133897214D01*
X125124880Y-133944833D01*
X125077261Y-133992452D01*
X125029642Y-134087690D01*
X125029642Y-134373404D01*
X125077261Y-134468642D01*
X125124880Y-134516261D01*
X125220119Y-134563880D01*
X125410595Y-134563880D01*
X125505833Y-134516261D01*
X123505833Y-134040071D02*
X123362976Y-134087690D01*
X123315357Y-134135309D01*
X123267738Y-134230547D01*
X123267738Y-134373404D01*
X123315357Y-134468642D01*
X123362976Y-134516261D01*
X123458214Y-134563880D01*
X123839166Y-134563880D01*
X123839166Y-133563880D01*
X123505833Y-133563880D01*
X123410595Y-133611500D01*
X123362976Y-133659119D01*
X123315357Y-133754357D01*
X123315357Y-133849595D01*
X123362976Y-133944833D01*
X123410595Y-133992452D01*
X123505833Y-134040071D01*
X123839166Y-134040071D01*
X122839166Y-134563880D02*
X122839166Y-133897214D01*
X122839166Y-133563880D02*
X122886785Y-133611500D01*
X122839166Y-133659119D01*
X122791547Y-133611500D01*
X122839166Y-133563880D01*
X122839166Y-133659119D01*
X122505833Y-133897214D02*
X122124880Y-133897214D01*
X122362976Y-133563880D02*
X122362976Y-134421023D01*
X122315357Y-134516261D01*
X122220119Y-134563880D01*
X122124880Y-134563880D01*
X121839166Y-134516261D02*
X121743928Y-134563880D01*
X121553452Y-134563880D01*
X121458214Y-134516261D01*
X121410595Y-134421023D01*
X121410595Y-134373404D01*
X121458214Y-134278166D01*
X121553452Y-134230547D01*
X121696309Y-134230547D01*
X121791547Y-134182928D01*
X121839166Y-134087690D01*
X121839166Y-134040071D01*
X121791547Y-133944833D01*
X121696309Y-133897214D01*
X121553452Y-133897214D01*
X121458214Y-133944833D01*
X120982023Y-134468642D02*
X120934404Y-134516261D01*
X120982023Y-134563880D01*
X121029642Y-134516261D01*
X120982023Y-134468642D01*
X120982023Y-134563880D01*
X120982023Y-133944833D02*
X120934404Y-133992452D01*
X120982023Y-134040071D01*
X121029642Y-133992452D01*
X120982023Y-133944833D01*
X120982023Y-134040071D01*
X119220119Y-134563880D02*
X119791547Y-134563880D01*
X119505833Y-134563880D02*
X119505833Y-133563880D01*
X119601071Y-133706738D01*
X119696309Y-133801976D01*
X119791547Y-133849595D01*
X127934404Y-136213880D02*
X127934404Y-135213880D01*
X127553452Y-135213880D01*
X127458214Y-135261500D01*
X127410595Y-135309119D01*
X127362976Y-135404357D01*
X127362976Y-135547214D01*
X127410595Y-135642452D01*
X127458214Y-135690071D01*
X127553452Y-135737690D01*
X127934404Y-135737690D01*
X126505833Y-136213880D02*
X126505833Y-135690071D01*
X126553452Y-135594833D01*
X126648690Y-135547214D01*
X126839166Y-135547214D01*
X126934404Y-135594833D01*
X126505833Y-136166261D02*
X126601071Y-136213880D01*
X126839166Y-136213880D01*
X126934404Y-136166261D01*
X126982023Y-136071023D01*
X126982023Y-135975785D01*
X126934404Y-135880547D01*
X126839166Y-135832928D01*
X126601071Y-135832928D01*
X126505833Y-135785309D01*
X126029642Y-136213880D02*
X126029642Y-135547214D01*
X126029642Y-135737690D02*
X125982023Y-135642452D01*
X125934404Y-135594833D01*
X125839166Y-135547214D01*
X125743928Y-135547214D01*
X125410595Y-136213880D02*
X125410595Y-135547214D01*
X125410595Y-135213880D02*
X125458214Y-135261500D01*
X125410595Y-135309119D01*
X125362976Y-135261500D01*
X125410595Y-135213880D01*
X125410595Y-135309119D01*
X125077261Y-135547214D02*
X124696309Y-135547214D01*
X124934404Y-135213880D02*
X124934404Y-136071023D01*
X124886785Y-136166261D01*
X124791547Y-136213880D01*
X124696309Y-136213880D01*
X124458214Y-135547214D02*
X124220119Y-136213880D01*
X123982023Y-135547214D02*
X124220119Y-136213880D01*
X124315357Y-136451976D01*
X124362976Y-136499595D01*
X124458214Y-136547214D01*
X123601071Y-136118642D02*
X123553452Y-136166261D01*
X123601071Y-136213880D01*
X123648690Y-136166261D01*
X123601071Y-136118642D01*
X123601071Y-136213880D01*
X123601071Y-135594833D02*
X123553452Y-135642452D01*
X123601071Y-135690071D01*
X123648690Y-135642452D01*
X123601071Y-135594833D01*
X123601071Y-135690071D01*
X122362976Y-136213880D02*
X122362976Y-135213880D01*
X121791547Y-136213880D01*
X121791547Y-135213880D01*
X121172500Y-136213880D02*
X121267738Y-136166261D01*
X121315357Y-136118642D01*
X121362976Y-136023404D01*
X121362976Y-135737690D01*
X121315357Y-135642452D01*
X121267738Y-135594833D01*
X121172500Y-135547214D01*
X121029642Y-135547214D01*
X120934404Y-135594833D01*
X120886785Y-135642452D01*
X120839166Y-135737690D01*
X120839166Y-136023404D01*
X120886785Y-136118642D01*
X120934404Y-136166261D01*
X121029642Y-136213880D01*
X121172500Y-136213880D01*
X120410595Y-135547214D02*
X120410595Y-136213880D01*
X120410595Y-135642452D02*
X120362976Y-135594833D01*
X120267738Y-135547214D01*
X120124880Y-135547214D01*
X120029642Y-135594833D01*
X119982023Y-135690071D01*
X119982023Y-136213880D01*
X119124880Y-136166261D02*
X119220119Y-136213880D01*
X119410595Y-136213880D01*
X119505833Y-136166261D01*
X119553452Y-136071023D01*
X119553452Y-135690071D01*
X119505833Y-135594833D01*
X119410595Y-135547214D01*
X119220119Y-135547214D01*
X119124880Y-135594833D01*
X119077261Y-135690071D01*
X119077261Y-135785309D01*
X119553452Y-135880547D01*
X127601071Y-137340071D02*
X127934404Y-137340071D01*
X127934404Y-137863880D02*
X127934404Y-136863880D01*
X127458214Y-136863880D01*
X126934404Y-137863880D02*
X127029642Y-137816261D01*
X127077261Y-137721023D01*
X127077261Y-136863880D01*
X126410595Y-137863880D02*
X126505833Y-137816261D01*
X126553452Y-137768642D01*
X126601071Y-137673404D01*
X126601071Y-137387690D01*
X126553452Y-137292452D01*
X126505833Y-137244833D01*
X126410595Y-137197214D01*
X126267738Y-137197214D01*
X126172500Y-137244833D01*
X126124880Y-137292452D01*
X126077261Y-137387690D01*
X126077261Y-137673404D01*
X126124880Y-137768642D01*
X126172500Y-137816261D01*
X126267738Y-137863880D01*
X126410595Y-137863880D01*
X125743928Y-137197214D02*
X125553452Y-137863880D01*
X125362976Y-137387690D01*
X125172500Y-137863880D01*
X124982023Y-137197214D01*
X123267738Y-137768642D02*
X123315357Y-137816261D01*
X123458214Y-137863880D01*
X123553452Y-137863880D01*
X123696309Y-137816261D01*
X123791547Y-137721023D01*
X123839166Y-137625785D01*
X123886785Y-137435309D01*
X123886785Y-137292452D01*
X123839166Y-137101976D01*
X123791547Y-137006738D01*
X123696309Y-136911500D01*
X123553452Y-136863880D01*
X123458214Y-136863880D01*
X123315357Y-136911500D01*
X123267738Y-136959119D01*
X122696309Y-137863880D02*
X122791547Y-137816261D01*
X122839166Y-137768642D01*
X122886785Y-137673404D01*
X122886785Y-137387690D01*
X122839166Y-137292452D01*
X122791547Y-137244833D01*
X122696309Y-137197214D01*
X122553452Y-137197214D01*
X122458214Y-137244833D01*
X122410595Y-137292452D01*
X122362976Y-137387690D01*
X122362976Y-137673404D01*
X122410595Y-137768642D01*
X122458214Y-137816261D01*
X122553452Y-137863880D01*
X122696309Y-137863880D01*
X121934404Y-137197214D02*
X121934404Y-137863880D01*
X121934404Y-137292452D02*
X121886785Y-137244833D01*
X121791547Y-137197214D01*
X121648690Y-137197214D01*
X121553452Y-137244833D01*
X121505833Y-137340071D01*
X121505833Y-137863880D01*
X121172500Y-137197214D02*
X120791547Y-137197214D01*
X121029642Y-136863880D02*
X121029642Y-137721023D01*
X120982023Y-137816261D01*
X120886785Y-137863880D01*
X120791547Y-137863880D01*
X120458214Y-137863880D02*
X120458214Y-137197214D01*
X120458214Y-137387690D02*
X120410595Y-137292452D01*
X120362976Y-137244833D01*
X120267738Y-137197214D01*
X120172500Y-137197214D01*
X119696309Y-137863880D02*
X119791547Y-137816261D01*
X119839166Y-137768642D01*
X119886785Y-137673404D01*
X119886785Y-137387690D01*
X119839166Y-137292452D01*
X119791547Y-137244833D01*
X119696309Y-137197214D01*
X119553452Y-137197214D01*
X119458214Y-137244833D01*
X119410595Y-137292452D01*
X119362976Y-137387690D01*
X119362976Y-137673404D01*
X119410595Y-137768642D01*
X119458214Y-137816261D01*
X119553452Y-137863880D01*
X119696309Y-137863880D01*
X118791547Y-137863880D02*
X118886785Y-137816261D01*
X118934404Y-137721023D01*
X118934404Y-136863880D01*
X118410595Y-137768642D02*
X118362976Y-137816261D01*
X118410595Y-137863880D01*
X118458214Y-137816261D01*
X118410595Y-137768642D01*
X118410595Y-137863880D01*
X118410595Y-137244833D02*
X118362976Y-137292452D01*
X118410595Y-137340071D01*
X118458214Y-137292452D01*
X118410595Y-137244833D01*
X118410595Y-137340071D01*
X117172500Y-137863880D02*
X117172500Y-136863880D01*
X116601071Y-137863880D01*
X116601071Y-136863880D01*
X115982023Y-137863880D02*
X116077261Y-137816261D01*
X116124880Y-137768642D01*
X116172500Y-137673404D01*
X116172500Y-137387690D01*
X116124880Y-137292452D01*
X116077261Y-137244833D01*
X115982023Y-137197214D01*
X115839166Y-137197214D01*
X115743928Y-137244833D01*
X115696309Y-137292452D01*
X115648690Y-137387690D01*
X115648690Y-137673404D01*
X115696309Y-137768642D01*
X115743928Y-137816261D01*
X115839166Y-137863880D01*
X115982023Y-137863880D01*
X115220119Y-137197214D02*
X115220119Y-137863880D01*
X115220119Y-137292452D02*
X115172500Y-137244833D01*
X115077261Y-137197214D01*
X114934404Y-137197214D01*
X114839166Y-137244833D01*
X114791547Y-137340071D01*
X114791547Y-137863880D01*
X113934404Y-137816261D02*
X114029642Y-137863880D01*
X114220119Y-137863880D01*
X114315357Y-137816261D01*
X114362976Y-137721023D01*
X114362976Y-137340071D01*
X114315357Y-137244833D01*
X114220119Y-137197214D01*
X114029642Y-137197214D01*
X113934404Y-137244833D01*
X113886785Y-137340071D01*
X113886785Y-137435309D01*
X114362976Y-137530547D01*
X130229047Y-140152380D02*
X130229047Y-139152380D01*
X129848095Y-139152380D01*
X129752857Y-139200000D01*
X129705238Y-139247619D01*
X129657619Y-139342857D01*
X129657619Y-139485714D01*
X129705238Y-139580952D01*
X129752857Y-139628571D01*
X129848095Y-139676190D01*
X130229047Y-139676190D01*
X128800476Y-139485714D02*
X128800476Y-140152380D01*
X129229047Y-139485714D02*
X129229047Y-140009523D01*
X129181428Y-140104761D01*
X129086190Y-140152380D01*
X128943333Y-140152380D01*
X128848095Y-140104761D01*
X128800476Y-140057142D01*
X128181428Y-140152380D02*
X128276666Y-140104761D01*
X128324285Y-140009523D01*
X128324285Y-139152380D01*
X127848095Y-140104761D02*
X127752857Y-140152380D01*
X127562380Y-140152380D01*
X127467142Y-140104761D01*
X127419523Y-140009523D01*
X127419523Y-139961904D01*
X127467142Y-139866666D01*
X127562380Y-139819047D01*
X127705238Y-139819047D01*
X127800476Y-139771428D01*
X127848095Y-139676190D01*
X127848095Y-139628571D01*
X127800476Y-139533333D01*
X127705238Y-139485714D01*
X127562380Y-139485714D01*
X127467142Y-139533333D01*
X126610000Y-140104761D02*
X126705238Y-140152380D01*
X126895714Y-140152380D01*
X126990952Y-140104761D01*
X127038571Y-140009523D01*
X127038571Y-139628571D01*
X126990952Y-139533333D01*
X126895714Y-139485714D01*
X126705238Y-139485714D01*
X126610000Y-139533333D01*
X126562380Y-139628571D01*
X126562380Y-139723809D01*
X127038571Y-139819047D01*
X125181428Y-139152380D02*
X124990952Y-139152380D01*
X124895714Y-139200000D01*
X124800476Y-139295238D01*
X124752857Y-139485714D01*
X124752857Y-139819047D01*
X124800476Y-140009523D01*
X124895714Y-140104761D01*
X124990952Y-140152380D01*
X125181428Y-140152380D01*
X125276666Y-140104761D01*
X125371904Y-140009523D01*
X125419523Y-139819047D01*
X125419523Y-139485714D01*
X125371904Y-139295238D01*
X125276666Y-139200000D01*
X125181428Y-139152380D01*
X124419523Y-140152380D02*
X123895714Y-139485714D01*
X124419523Y-139485714D02*
X123895714Y-140152380D01*
X123514761Y-140152380D02*
X123514761Y-139485714D01*
X123514761Y-139152380D02*
X123562380Y-139200000D01*
X123514761Y-139247619D01*
X123467142Y-139200000D01*
X123514761Y-139152380D01*
X123514761Y-139247619D01*
X123038571Y-140152380D02*
X123038571Y-139485714D01*
X123038571Y-139580952D02*
X122990952Y-139533333D01*
X122895714Y-139485714D01*
X122752857Y-139485714D01*
X122657619Y-139533333D01*
X122610000Y-139628571D01*
X122610000Y-140152380D01*
X122610000Y-139628571D02*
X122562380Y-139533333D01*
X122467142Y-139485714D01*
X122324285Y-139485714D01*
X122229047Y-139533333D01*
X122181428Y-139628571D01*
X122181428Y-140152380D01*
X121324285Y-140104761D02*
X121419523Y-140152380D01*
X121610000Y-140152380D01*
X121705238Y-140104761D01*
X121752857Y-140009523D01*
X121752857Y-139628571D01*
X121705238Y-139533333D01*
X121610000Y-139485714D01*
X121419523Y-139485714D01*
X121324285Y-139533333D01*
X121276666Y-139628571D01*
X121276666Y-139723809D01*
X121752857Y-139819047D01*
X120990952Y-139485714D02*
X120610000Y-139485714D01*
X120848095Y-139152380D02*
X120848095Y-140009523D01*
X120800476Y-140104761D01*
X120705238Y-140152380D01*
X120610000Y-140152380D01*
X119895714Y-140104761D02*
X119990952Y-140152380D01*
X120181428Y-140152380D01*
X120276666Y-140104761D01*
X120324285Y-140009523D01*
X120324285Y-139628571D01*
X120276666Y-139533333D01*
X120181428Y-139485714D01*
X119990952Y-139485714D01*
X119895714Y-139533333D01*
X119848095Y-139628571D01*
X119848095Y-139723809D01*
X120324285Y-139819047D01*
X119419523Y-140152380D02*
X119419523Y-139485714D01*
X119419523Y-139676190D02*
X119371904Y-139580952D01*
X119324285Y-139533333D01*
X119229047Y-139485714D01*
X119133809Y-139485714D01*
X117467142Y-140152380D02*
X117800476Y-139676190D01*
X118038571Y-140152380D02*
X118038571Y-139152380D01*
X117657619Y-139152380D01*
X117562380Y-139200000D01*
X117514761Y-139247619D01*
X117467142Y-139342857D01*
X117467142Y-139485714D01*
X117514761Y-139580952D01*
X117562380Y-139628571D01*
X117657619Y-139676190D01*
X118038571Y-139676190D01*
X117038571Y-139628571D02*
X116705238Y-139628571D01*
X116562380Y-140152380D02*
X117038571Y-140152380D01*
X117038571Y-139152380D01*
X116562380Y-139152380D01*
X116276666Y-139152380D02*
X115943333Y-140152380D01*
X115610000Y-139152380D01*
X114181428Y-139628571D02*
X114038571Y-139676190D01*
X113990952Y-139723809D01*
X113943333Y-139819047D01*
X113943333Y-139961904D01*
X113990952Y-140057142D01*
X114038571Y-140104761D01*
X114133809Y-140152380D01*
X114514761Y-140152380D01*
X114514761Y-139152380D01*
X114181428Y-139152380D01*
X114086190Y-139200000D01*
X114038571Y-139247619D01*
X113990952Y-139342857D01*
X113990952Y-139438095D01*
X114038571Y-139533333D01*
X114086190Y-139580952D01*
X114181428Y-139628571D01*
X114514761Y-139628571D01*
X112467142Y-139152380D02*
X112467142Y-139866666D01*
X112514761Y-140009523D01*
X112610000Y-140104761D01*
X112752857Y-140152380D01*
X112848095Y-140152380D01*
X112038571Y-139866666D02*
X111562380Y-139866666D01*
X112133809Y-140152380D02*
X111800476Y-139152380D01*
X111467142Y-140152380D01*
X111133809Y-140152380D02*
X111133809Y-139152380D01*
X110562380Y-140152380D01*
X110562380Y-139152380D01*
X109371904Y-139247619D02*
X109324285Y-139200000D01*
X109229047Y-139152380D01*
X108990952Y-139152380D01*
X108895714Y-139200000D01*
X108848095Y-139247619D01*
X108800476Y-139342857D01*
X108800476Y-139438095D01*
X108848095Y-139580952D01*
X109419523Y-140152380D01*
X108800476Y-140152380D01*
X108181428Y-139152380D02*
X108086190Y-139152380D01*
X107990952Y-139200000D01*
X107943333Y-139247619D01*
X107895714Y-139342857D01*
X107848095Y-139533333D01*
X107848095Y-139771428D01*
X107895714Y-139961904D01*
X107943333Y-140057142D01*
X107990952Y-140104761D01*
X108086190Y-140152380D01*
X108181428Y-140152380D01*
X108276666Y-140104761D01*
X108324285Y-140057142D01*
X108371904Y-139961904D01*
X108419523Y-139771428D01*
X108419523Y-139533333D01*
X108371904Y-139342857D01*
X108324285Y-139247619D01*
X108276666Y-139200000D01*
X108181428Y-139152380D01*
X107467142Y-139247619D02*
X107419523Y-139200000D01*
X107324285Y-139152380D01*
X107086190Y-139152380D01*
X106990952Y-139200000D01*
X106943333Y-139247619D01*
X106895714Y-139342857D01*
X106895714Y-139438095D01*
X106943333Y-139580952D01*
X107514761Y-140152380D01*
X106895714Y-140152380D01*
X105943333Y-140152380D02*
X106514761Y-140152380D01*
X106229047Y-140152380D02*
X106229047Y-139152380D01*
X106324285Y-139295238D01*
X106419523Y-139390476D01*
X106514761Y-139438095D01*
X102599809Y-132232928D02*
X101837904Y-132232928D01*
X102218857Y-132613880D02*
X102218857Y-131851976D01*
X100837904Y-132613880D02*
X101409333Y-132613880D01*
X101123619Y-132613880D02*
X101123619Y-131613880D01*
X101218857Y-131756738D01*
X101314095Y-131851976D01*
X101409333Y-131899595D01*
X100456952Y-131709119D02*
X100409333Y-131661500D01*
X100314095Y-131613880D01*
X100076000Y-131613880D01*
X99980761Y-131661500D01*
X99933142Y-131709119D01*
X99885523Y-131804357D01*
X99885523Y-131899595D01*
X99933142Y-132042452D01*
X100504571Y-132613880D01*
X99885523Y-132613880D01*
X99599809Y-131613880D02*
X99266476Y-132613880D01*
X98933142Y-131613880D01*
X98599809Y-132613880D02*
X98599809Y-131613880D01*
X98123619Y-132613880D02*
X98123619Y-131613880D01*
X97552190Y-132613880D01*
X97552190Y-131613880D01*
D11*
X182387380Y-135842261D02*
X182387380Y-133842261D01*
X181625476Y-133842261D01*
X181435000Y-133937500D01*
X181339761Y-134032738D01*
X181244523Y-134223214D01*
X181244523Y-134508928D01*
X181339761Y-134699404D01*
X181435000Y-134794642D01*
X181625476Y-134889880D01*
X182387380Y-134889880D01*
X180101666Y-135842261D02*
X180292142Y-135747023D01*
X180387380Y-135651785D01*
X180482619Y-135461309D01*
X180482619Y-134889880D01*
X180387380Y-134699404D01*
X180292142Y-134604166D01*
X180101666Y-134508928D01*
X179815952Y-134508928D01*
X179625476Y-134604166D01*
X179530238Y-134699404D01*
X179435000Y-134889880D01*
X179435000Y-135461309D01*
X179530238Y-135651785D01*
X179625476Y-135747023D01*
X179815952Y-135842261D01*
X180101666Y-135842261D01*
X178768333Y-134508928D02*
X178387380Y-135842261D01*
X178006428Y-134889880D01*
X177625476Y-135842261D01*
X177244523Y-134508928D01*
X175720714Y-135747023D02*
X175911190Y-135842261D01*
X176292142Y-135842261D01*
X176482619Y-135747023D01*
X176577857Y-135556547D01*
X176577857Y-134794642D01*
X176482619Y-134604166D01*
X176292142Y-134508928D01*
X175911190Y-134508928D01*
X175720714Y-134604166D01*
X175625476Y-134794642D01*
X175625476Y-134985119D01*
X176577857Y-135175595D01*
X174768333Y-135842261D02*
X174768333Y-134508928D01*
X174768333Y-134889880D02*
X174673095Y-134699404D01*
X174577857Y-134604166D01*
X174387380Y-134508928D01*
X174196904Y-134508928D01*
D10*
X107177928Y-122763547D02*
X107177928Y-123525452D01*
X107177928Y-128796047D02*
X107177928Y-129557952D01*
X107558880Y-129177000D02*
X106796976Y-129177000D01*
D12*
X183992000Y-102052500D02*
X183992000Y-76052500D01*
X183992000Y-102052500D02*
X183992000Y-76052500D01*
X105992000Y-102052500D02*
X105992000Y-76052500D01*
X183992000Y-102052500D02*
X105992000Y-102052500D01*
X183992000Y-76052500D02*
X105992000Y-76052500D01*
X193992000Y-109052500D02*
X95992000Y-109052500D01*
X193992000Y-69052500D02*
X95992000Y-69052500D01*
X95992000Y-119052500D02*
X95992000Y-59052500D01*
X193992000Y-59052500D02*
X193992000Y-119047300D01*
X193992000Y-119052500D02*
X95992000Y-119052500D01*
X193992000Y-59052500D02*
X95992000Y-59052500D01*
X187708000Y-124229000D02*
X186308000Y-124229000D01*
X186308000Y-121909000D02*
X188208000Y-121909000D01*
X184273000Y-122958000D02*
X183773000Y-122958000D01*
X183773000Y-121898000D02*
X184273000Y-121898000D01*
X184973000Y-123184000D02*
X183523000Y-123184000D01*
X184973000Y-124084000D02*
X183523000Y-124084000D01*
X184973000Y-123184000D02*
X184973000Y-124084000D01*
X186758000Y-124434000D02*
X187258000Y-124434000D01*
X187258000Y-125374000D02*
X186758000Y-125374000D01*
D10*
X107181000Y-126192000D02*
X107181000Y-128192000D01*
X107181000Y-124192000D02*
X107181000Y-125092000D01*
X108106000Y-123192000D02*
G75*
G03*
X108106000Y-123192000I-925000J0D01*
G01*
X108106000Y-129192000D02*
G75*
G03*
X108106000Y-129192000I-925000J0D01*
G01*
D13*
X107356000Y-126192000D02*
G75*
G03*
X107356000Y-126192000I-175000J0D01*
G01*
D10*
X106431000Y-126867000D02*
G75*
G02*
X107856000Y-126942000I750000J675000D01*
G01*
D12*
X160342000Y-92431500D02*
X160842000Y-92431500D01*
X160842000Y-93491500D02*
X160342000Y-93491500D01*
X163618000Y-94418000D02*
X163618000Y-93918000D01*
X164678000Y-93918000D02*
X164678000Y-94418000D01*
X179894000Y-125332000D02*
X181294000Y-125332000D01*
X181294000Y-127652000D02*
X179394000Y-127652000D01*
X177505000Y-125592000D02*
X177505000Y-128042000D01*
X174285000Y-127392000D02*
X174285000Y-125592000D01*
X139880000Y-126914000D02*
X142330000Y-126914000D01*
X141680000Y-130134000D02*
X139880000Y-130134000D01*
X143342000Y-119052000D02*
X143342000Y-121502000D01*
X140122000Y-120852000D02*
X140122000Y-119052000D01*
D10*
X118445000Y-115570000D02*
X118445000Y-117070000D01*
X120695000Y-114070000D02*
X120695000Y-117070000D01*
D12*
X173418500Y-139954500D02*
X183451500Y-139954500D01*
X173418500Y-129921500D02*
X173418500Y-139954500D01*
X183451500Y-129921500D02*
X173418500Y-129921500D01*
X183451500Y-139954500D02*
X183451500Y-129921500D01*
X179384000Y-98635000D02*
X178884000Y-98635000D01*
X178884000Y-97575000D02*
X179384000Y-97575000D01*
X178884000Y-92495000D02*
X179384000Y-92495000D01*
X179384000Y-93555000D02*
X178884000Y-93555000D01*
X179384000Y-88475000D02*
X178884000Y-88475000D01*
X178884000Y-87415000D02*
X179384000Y-87415000D01*
X179384000Y-83395000D02*
X178884000Y-83395000D01*
X178884000Y-82335000D02*
X179384000Y-82335000D01*
X108880000Y-83178500D02*
X108880000Y-82678500D01*
X109940000Y-82678500D02*
X109940000Y-83178500D01*
X178774000Y-126242000D02*
X178774000Y-126742000D01*
X177714000Y-126742000D02*
X177714000Y-126242000D01*
X176653000Y-129562000D02*
X176153000Y-129562000D01*
X176153000Y-128502000D02*
X176653000Y-128502000D01*
X174367000Y-129562000D02*
X173867000Y-129562000D01*
X173867000Y-128502000D02*
X174367000Y-128502000D01*
X151724000Y-65406500D02*
X151724000Y-65906500D01*
X150664000Y-65906500D02*
X150664000Y-65406500D01*
X154264000Y-65406500D02*
X154264000Y-65906500D01*
X153204000Y-65906500D02*
X153204000Y-65406500D01*
X156804000Y-65406500D02*
X156804000Y-65906500D01*
X155744000Y-65906500D02*
X155744000Y-65406500D01*
X170984000Y-65906500D02*
X170984000Y-65406500D01*
X172044000Y-65406500D02*
X172044000Y-65906500D01*
X159344000Y-65406500D02*
X159344000Y-65906500D01*
X158284000Y-65906500D02*
X158284000Y-65406500D01*
X161884000Y-65406500D02*
X161884000Y-65906500D01*
X160824000Y-65906500D02*
X160824000Y-65406500D01*
X164424000Y-65406500D02*
X164424000Y-65906500D01*
X163364000Y-65906500D02*
X163364000Y-65406500D01*
X166964000Y-65406500D02*
X166964000Y-65906500D01*
X165904000Y-65906500D02*
X165904000Y-65406500D01*
X169504000Y-65406500D02*
X169504000Y-65906500D01*
X168444000Y-65906500D02*
X168444000Y-65406500D01*
X174584000Y-65406500D02*
X174584000Y-65906500D01*
X173524000Y-65906500D02*
X173524000Y-65406500D01*
X177124000Y-65406500D02*
X177124000Y-65906500D01*
X176064000Y-65906500D02*
X176064000Y-65406500D01*
X137011000Y-115693000D02*
X137011000Y-115193000D01*
X138071000Y-115193000D02*
X138071000Y-115693000D01*
X135678000Y-115693000D02*
X135678000Y-115193000D01*
X136738000Y-115193000D02*
X136738000Y-115693000D01*
X134497000Y-124946000D02*
X134997000Y-124946000D01*
X134997000Y-126006000D02*
X134497000Y-126006000D01*
X136674000Y-124718000D02*
X136674000Y-125218000D01*
X135614000Y-125218000D02*
X135614000Y-124718000D01*
X137690000Y-124718000D02*
X137690000Y-125218000D01*
X136630000Y-125218000D02*
X136630000Y-124718000D01*
X138980000Y-124468000D02*
X138980000Y-125468000D01*
X142580000Y-125468000D02*
X142580000Y-124468000D01*
X138071000Y-110748000D02*
X138071000Y-111248000D01*
X137011000Y-111248000D02*
X137011000Y-110748000D01*
X141990000Y-116818000D02*
X142490000Y-116818000D01*
X142490000Y-117878000D02*
X141990000Y-117878000D01*
X138789000Y-118424000D02*
X138789000Y-117924000D01*
X139849000Y-117924000D02*
X139849000Y-118424000D01*
X138789000Y-120202000D02*
X138789000Y-119702000D01*
X139849000Y-119702000D02*
X139849000Y-120202000D01*
X138789000Y-121980000D02*
X138789000Y-121480000D01*
X139849000Y-121480000D02*
X139849000Y-121980000D01*
X127385000Y-109516000D02*
X127885000Y-109516000D01*
X127885000Y-110576000D02*
X127385000Y-110576000D01*
X128946000Y-114360000D02*
X128946000Y-113860000D01*
X130006000Y-113860000D02*
X130006000Y-114360000D01*
X131086000Y-111891000D02*
X131086000Y-112391000D01*
X130026000Y-112391000D02*
X130026000Y-111891000D01*
X131086000Y-115828000D02*
X131086000Y-116328000D01*
X130026000Y-116328000D02*
X130026000Y-115828000D01*
X127385000Y-117707000D02*
X127885000Y-117707000D01*
X127885000Y-118767000D02*
X127385000Y-118767000D01*
X114278000Y-119757000D02*
X114278000Y-119257000D01*
X115338000Y-119257000D02*
X115338000Y-119757000D01*
X126475000Y-113012000D02*
X126475000Y-111602000D01*
X128795000Y-111602000D02*
X128795000Y-113632000D01*
X128795000Y-111602000D02*
X128135000Y-111602000D01*
X127135000Y-111602000D02*
X126475000Y-111602000D01*
X126475000Y-116631000D02*
X126475000Y-115221000D01*
X128795000Y-115221000D02*
X128795000Y-117251000D01*
X128795000Y-115221000D02*
X128135000Y-115221000D01*
X127135000Y-115221000D02*
X126475000Y-115221000D01*
X134552000Y-131912000D02*
X134052000Y-131912000D01*
X134052000Y-130852000D02*
X134552000Y-130852000D01*
X139260000Y-130852000D02*
X139760000Y-130852000D01*
X139760000Y-131912000D02*
X139260000Y-131912000D01*
X143386000Y-122622000D02*
X143386000Y-123952000D01*
X144716000Y-122622000D02*
X143386000Y-122622000D01*
X145986000Y-122622000D02*
X145986000Y-125282000D01*
X145986000Y-125282000D02*
X158746000Y-125282000D01*
X145986000Y-122622000D02*
X158746000Y-122622000D01*
X158746000Y-122622000D02*
X158746000Y-125282000D01*
X140820000Y-132448000D02*
X140820000Y-141648000D01*
X133120000Y-132448000D02*
X140820000Y-132448000D01*
X133120000Y-141648000D02*
X133120000Y-132448000D01*
X140820000Y-141648000D02*
X133120000Y-141648000D01*
X140820000Y-140648000D02*
X133120000Y-140648000D01*
X131006000Y-115060000D02*
X131006000Y-113610000D01*
X130106000Y-115060000D02*
X130106000Y-113610000D01*
X131006000Y-115060000D02*
X130106000Y-115060000D01*
X174079000Y-126242000D02*
X174079000Y-126742000D01*
X173139000Y-126742000D02*
X173139000Y-126242000D01*
X135864000Y-113470000D02*
X135864000Y-112970000D01*
X136804000Y-112970000D02*
X136804000Y-113470000D01*
X135674000Y-123250000D02*
X135674000Y-122750000D01*
X136614000Y-122750000D02*
X136614000Y-123250000D01*
X117196000Y-115820000D02*
X117196000Y-115320000D01*
X118136000Y-115320000D02*
X118136000Y-115820000D01*
X129946000Y-115828000D02*
X129946000Y-116328000D01*
X129006000Y-116328000D02*
X129006000Y-115828000D01*
X153584000Y-129932000D02*
X153584000Y-127482000D01*
X156804000Y-128132000D02*
X156804000Y-129932000D01*
X158014000Y-128782000D02*
X158014000Y-129282000D01*
X157074000Y-129282000D02*
X157074000Y-128782000D01*
D10*
X147574000Y-130729000D02*
X149074000Y-130729000D01*
X146074000Y-128479000D02*
X149074000Y-128479000D01*
D12*
X154246000Y-126086000D02*
X154746000Y-126086000D01*
X154746000Y-127026000D02*
X154246000Y-127026000D01*
X149834000Y-130171000D02*
X149834000Y-129671000D01*
X150774000Y-129671000D02*
X150774000Y-130171000D01*
X117916000Y-122898000D02*
X117416000Y-122898000D01*
X117416000Y-121958000D02*
X117916000Y-121958000D01*
X120116000Y-125091000D02*
X120116000Y-124591000D01*
X121056000Y-124591000D02*
X121056000Y-125091000D01*
X110558000Y-122338000D02*
X111058000Y-122338000D01*
X111058000Y-123278000D02*
X110558000Y-123278000D01*
X137008000Y-113470000D02*
X137008000Y-112970000D01*
X137948000Y-112970000D02*
X137948000Y-113470000D01*
X156270000Y-139789000D02*
X155770000Y-139789000D01*
X155770000Y-138849000D02*
X156270000Y-138849000D01*
X104532000Y-131028000D02*
X104532000Y-128428000D01*
X89832000Y-131028000D02*
X104532000Y-131028000D01*
X104532000Y-121828000D02*
X102632000Y-121828000D01*
X104532000Y-124528000D02*
X104532000Y-121828000D01*
X89832000Y-121828000D02*
X89832000Y-131028000D01*
X98632000Y-121828000D02*
X89832000Y-121828000D01*
X161776000Y-87052000D02*
X161776000Y-86552000D01*
X162836000Y-86552000D02*
X162836000Y-87052000D01*
X163852000Y-86552000D02*
X163852000Y-87052000D01*
X162792000Y-87052000D02*
X162792000Y-86552000D01*
X135678000Y-111248000D02*
X135678000Y-110748000D01*
X136738000Y-110748000D02*
X136738000Y-111248000D01*
X134997000Y-124926000D02*
X134497000Y-124926000D01*
X134497000Y-123866000D02*
X134997000Y-123866000D01*
X138706000Y-124718000D02*
X138706000Y-125218000D01*
X137646000Y-125218000D02*
X137646000Y-124718000D01*
X166500000Y-134026000D02*
X167000000Y-134026000D01*
X167000000Y-135086000D02*
X166500000Y-135086000D01*
X119918000Y-123936000D02*
X119918000Y-125736000D01*
X116698000Y-125736000D02*
X116698000Y-123286000D01*
D10*
X113444000Y-123477000D02*
X110469000Y-123477000D01*
X112619000Y-125727000D02*
X110469000Y-125727000D01*
D12*
X166750000Y-130650000D02*
X169750000Y-130650000D01*
X165750000Y-133890000D02*
X167750000Y-133890000D01*
X159122000Y-136440000D02*
X162432000Y-136440000D01*
X160782000Y-130620000D02*
X159142000Y-130620000D01*
X183283000Y-126242000D02*
X183283000Y-126742000D01*
X182223000Y-126742000D02*
X182223000Y-126242000D01*
D10*
X193501547Y-67567380D02*
X193501547Y-68376904D01*
X193453928Y-68472142D01*
X193406309Y-68519761D01*
X193311071Y-68567380D01*
X193120595Y-68567380D01*
X193025357Y-68519761D01*
X192977738Y-68472142D01*
X192930119Y-68376904D01*
X192930119Y-67567380D01*
X191930119Y-68567380D02*
X192501547Y-68567380D01*
X192215833Y-68567380D02*
X192215833Y-67567380D01*
X192311071Y-67710238D01*
X192406309Y-67805476D01*
X192501547Y-67853095D01*
X191072976Y-67567380D02*
X191263452Y-67567380D01*
X191358690Y-67615000D01*
X191406309Y-67662619D01*
X191501547Y-67805476D01*
X191549166Y-67995952D01*
X191549166Y-68376904D01*
X191501547Y-68472142D01*
X191453928Y-68519761D01*
X191358690Y-68567380D01*
X191168214Y-68567380D01*
X191072976Y-68519761D01*
X191025357Y-68472142D01*
X190977738Y-68376904D01*
X190977738Y-68138809D01*
X191025357Y-68043571D01*
X191072976Y-67995952D01*
X191168214Y-67948333D01*
X191358690Y-67948333D01*
X191453928Y-67995952D01*
X191501547Y-68043571D01*
X191549166Y-68138809D01*
X190358690Y-67567380D02*
X190263452Y-67567380D01*
X190168214Y-67615000D01*
X190120595Y-67662619D01*
X190072976Y-67757857D01*
X190025357Y-67948333D01*
X190025357Y-68186428D01*
X190072976Y-68376904D01*
X190120595Y-68472142D01*
X190168214Y-68519761D01*
X190263452Y-68567380D01*
X190358690Y-68567380D01*
X190453928Y-68519761D01*
X190501547Y-68472142D01*
X190549166Y-68376904D01*
X190596785Y-68186428D01*
X190596785Y-67948333D01*
X190549166Y-67757857D01*
X190501547Y-67662619D01*
X190453928Y-67615000D01*
X190358690Y-67567380D01*
X189644404Y-67662619D02*
X189596785Y-67615000D01*
X189501547Y-67567380D01*
X189263452Y-67567380D01*
X189168214Y-67615000D01*
X189120595Y-67662619D01*
X189072976Y-67757857D01*
X189072976Y-67853095D01*
X189120595Y-67995952D01*
X189692023Y-68567380D01*
X189072976Y-68567380D01*
X189198476Y-120521380D02*
X189198476Y-121330904D01*
X189150857Y-121426142D01*
X189103238Y-121473761D01*
X189008000Y-121521380D01*
X188817523Y-121521380D01*
X188722285Y-121473761D01*
X188674666Y-121426142D01*
X188627047Y-121330904D01*
X188627047Y-120521380D01*
X187627047Y-121521380D02*
X188198476Y-121521380D01*
X187912761Y-121521380D02*
X187912761Y-120521380D01*
X188008000Y-120664238D01*
X188103238Y-120759476D01*
X188198476Y-120807095D01*
X186722285Y-120521380D02*
X187198476Y-120521380D01*
X187246095Y-120997571D01*
X187198476Y-120949952D01*
X187103238Y-120902333D01*
X186865142Y-120902333D01*
X186769904Y-120949952D01*
X186722285Y-120997571D01*
X186674666Y-121092809D01*
X186674666Y-121330904D01*
X186722285Y-121426142D01*
X186769904Y-121473761D01*
X186865142Y-121521380D01*
X187103238Y-121521380D01*
X187198476Y-121473761D01*
X187246095Y-121426142D01*
X186055619Y-120521380D02*
X185960380Y-120521380D01*
X185865142Y-120569000D01*
X185817523Y-120616619D01*
X185769904Y-120711857D01*
X185722285Y-120902333D01*
X185722285Y-121140428D01*
X185769904Y-121330904D01*
X185817523Y-121426142D01*
X185865142Y-121473761D01*
X185960380Y-121521380D01*
X186055619Y-121521380D01*
X186150857Y-121473761D01*
X186198476Y-121426142D01*
X186246095Y-121330904D01*
X186293714Y-121140428D01*
X186293714Y-120902333D01*
X186246095Y-120711857D01*
X186198476Y-120616619D01*
X186150857Y-120569000D01*
X186055619Y-120521380D01*
X184865142Y-120854714D02*
X184865142Y-121521380D01*
X185103238Y-120473761D02*
X185341333Y-121188047D01*
X184722285Y-121188047D01*
X182784476Y-127944380D02*
X182784476Y-128753904D01*
X182736857Y-128849142D01*
X182689238Y-128896761D01*
X182594000Y-128944380D01*
X182403523Y-128944380D01*
X182308285Y-128896761D01*
X182260666Y-128849142D01*
X182213047Y-128753904D01*
X182213047Y-127944380D01*
X181213047Y-128944380D02*
X181784476Y-128944380D01*
X181498761Y-128944380D02*
X181498761Y-127944380D01*
X181594000Y-128087238D01*
X181689238Y-128182476D01*
X181784476Y-128230095D01*
X180879714Y-127944380D02*
X180213047Y-127944380D01*
X180641619Y-128944380D01*
X179641619Y-127944380D02*
X179546380Y-127944380D01*
X179451142Y-127992000D01*
X179403523Y-128039619D01*
X179355904Y-128134857D01*
X179308285Y-128325333D01*
X179308285Y-128563428D01*
X179355904Y-128753904D01*
X179403523Y-128849142D01*
X179451142Y-128896761D01*
X179546380Y-128944380D01*
X179641619Y-128944380D01*
X179736857Y-128896761D01*
X179784476Y-128849142D01*
X179832095Y-128753904D01*
X179879714Y-128563428D01*
X179879714Y-128325333D01*
X179832095Y-128134857D01*
X179784476Y-128039619D01*
X179736857Y-127992000D01*
X179641619Y-127944380D01*
X178927333Y-128039619D02*
X178879714Y-127992000D01*
X178784476Y-127944380D01*
X178546380Y-127944380D01*
X178451142Y-127992000D01*
X178403523Y-128039619D01*
X178355904Y-128134857D01*
X178355904Y-128230095D01*
X178403523Y-128372952D01*
X178974952Y-128944380D01*
X178355904Y-128944380D01*
X172687976Y-125944380D02*
X172687976Y-126753904D01*
X172640357Y-126849142D01*
X172592738Y-126896761D01*
X172497500Y-126944380D01*
X172307023Y-126944380D01*
X172211785Y-126896761D01*
X172164166Y-126849142D01*
X172116547Y-126753904D01*
X172116547Y-125944380D01*
X171116547Y-126944380D02*
X171687976Y-126944380D01*
X171402261Y-126944380D02*
X171402261Y-125944380D01*
X171497500Y-126087238D01*
X171592738Y-126182476D01*
X171687976Y-126230095D01*
X170783214Y-125944380D02*
X170116547Y-125944380D01*
X170545119Y-126944380D01*
X169545119Y-125944380D02*
X169449880Y-125944380D01*
X169354642Y-125992000D01*
X169307023Y-126039619D01*
X169259404Y-126134857D01*
X169211785Y-126325333D01*
X169211785Y-126563428D01*
X169259404Y-126753904D01*
X169307023Y-126849142D01*
X169354642Y-126896761D01*
X169449880Y-126944380D01*
X169545119Y-126944380D01*
X169640357Y-126896761D01*
X169687976Y-126849142D01*
X169735595Y-126753904D01*
X169783214Y-126563428D01*
X169783214Y-126325333D01*
X169735595Y-126134857D01*
X169687976Y-126039619D01*
X169640357Y-125992000D01*
X169545119Y-125944380D01*
X168259404Y-126944380D02*
X168830833Y-126944380D01*
X168545119Y-126944380D02*
X168545119Y-125944380D01*
X168640357Y-126087238D01*
X168735595Y-126182476D01*
X168830833Y-126230095D01*
X137247880Y-126333523D02*
X138057404Y-126333523D01*
X138152642Y-126381142D01*
X138200261Y-126428761D01*
X138247880Y-126524000D01*
X138247880Y-126714476D01*
X138200261Y-126809714D01*
X138152642Y-126857333D01*
X138057404Y-126904952D01*
X137247880Y-126904952D01*
X138247880Y-127904952D02*
X138247880Y-127333523D01*
X138247880Y-127619238D02*
X137247880Y-127619238D01*
X137390738Y-127524000D01*
X137485976Y-127428761D01*
X137533595Y-127333523D01*
X137343119Y-128285904D02*
X137295500Y-128333523D01*
X137247880Y-128428761D01*
X137247880Y-128666857D01*
X137295500Y-128762095D01*
X137343119Y-128809714D01*
X137438357Y-128857333D01*
X137533595Y-128857333D01*
X137676452Y-128809714D01*
X138247880Y-128238285D01*
X138247880Y-128857333D01*
X137247880Y-129476380D02*
X137247880Y-129571619D01*
X137295500Y-129666857D01*
X137343119Y-129714476D01*
X137438357Y-129762095D01*
X137628833Y-129809714D01*
X137866928Y-129809714D01*
X138057404Y-129762095D01*
X138152642Y-129714476D01*
X138200261Y-129666857D01*
X138247880Y-129571619D01*
X138247880Y-129476380D01*
X138200261Y-129381142D01*
X138152642Y-129333523D01*
X138057404Y-129285904D01*
X137866928Y-129238285D01*
X137628833Y-129238285D01*
X137438357Y-129285904D01*
X137343119Y-129333523D01*
X137295500Y-129381142D01*
X137247880Y-129476380D01*
X137581214Y-130666857D02*
X138247880Y-130666857D01*
X137200261Y-130428761D02*
X137914547Y-130190666D01*
X137914547Y-130809714D01*
X138461476Y-119404380D02*
X138461476Y-120213904D01*
X138413857Y-120309142D01*
X138366238Y-120356761D01*
X138271000Y-120404380D01*
X138080523Y-120404380D01*
X137985285Y-120356761D01*
X137937666Y-120309142D01*
X137890047Y-120213904D01*
X137890047Y-119404380D01*
X136890047Y-120404380D02*
X137461476Y-120404380D01*
X137175761Y-120404380D02*
X137175761Y-119404380D01*
X137271000Y-119547238D01*
X137366238Y-119642476D01*
X137461476Y-119690095D01*
X136509095Y-119499619D02*
X136461476Y-119452000D01*
X136366238Y-119404380D01*
X136128142Y-119404380D01*
X136032904Y-119452000D01*
X135985285Y-119499619D01*
X135937666Y-119594857D01*
X135937666Y-119690095D01*
X135985285Y-119832952D01*
X136556714Y-120404380D01*
X135937666Y-120404380D01*
X135318619Y-119404380D02*
X135223380Y-119404380D01*
X135128142Y-119452000D01*
X135080523Y-119499619D01*
X135032904Y-119594857D01*
X134985285Y-119785333D01*
X134985285Y-120023428D01*
X135032904Y-120213904D01*
X135080523Y-120309142D01*
X135128142Y-120356761D01*
X135223380Y-120404380D01*
X135318619Y-120404380D01*
X135413857Y-120356761D01*
X135461476Y-120309142D01*
X135509095Y-120213904D01*
X135556714Y-120023428D01*
X135556714Y-119785333D01*
X135509095Y-119594857D01*
X135461476Y-119499619D01*
X135413857Y-119452000D01*
X135318619Y-119404380D01*
X134032904Y-120404380D02*
X134604333Y-120404380D01*
X134318619Y-120404380D02*
X134318619Y-119404380D01*
X134413857Y-119547238D01*
X134509095Y-119642476D01*
X134604333Y-119690095D01*
X121244880Y-113855714D02*
X122054404Y-113855714D01*
X122149642Y-113903333D01*
X122197261Y-113950952D01*
X122244880Y-114046190D01*
X122244880Y-114236666D01*
X122197261Y-114331904D01*
X122149642Y-114379523D01*
X122054404Y-114427142D01*
X121244880Y-114427142D01*
X121244880Y-115379523D02*
X121244880Y-114903333D01*
X121721071Y-114855714D01*
X121673452Y-114903333D01*
X121625833Y-114998571D01*
X121625833Y-115236666D01*
X121673452Y-115331904D01*
X121721071Y-115379523D01*
X121816309Y-115427142D01*
X122054404Y-115427142D01*
X122149642Y-115379523D01*
X122197261Y-115331904D01*
X122244880Y-115236666D01*
X122244880Y-114998571D01*
X122197261Y-114903333D01*
X122149642Y-114855714D01*
X121244880Y-116046190D02*
X121244880Y-116141428D01*
X121292500Y-116236666D01*
X121340119Y-116284285D01*
X121435357Y-116331904D01*
X121625833Y-116379523D01*
X121863928Y-116379523D01*
X122054404Y-116331904D01*
X122149642Y-116284285D01*
X122197261Y-116236666D01*
X122244880Y-116141428D01*
X122244880Y-116046190D01*
X122197261Y-115950952D01*
X122149642Y-115903333D01*
X122054404Y-115855714D01*
X121863928Y-115808095D01*
X121625833Y-115808095D01*
X121435357Y-115855714D01*
X121340119Y-115903333D01*
X121292500Y-115950952D01*
X121244880Y-116046190D01*
X122244880Y-117331904D02*
X122244880Y-116760476D01*
X122244880Y-117046190D02*
X121244880Y-117046190D01*
X121387738Y-116950952D01*
X121482976Y-116855714D01*
X121530595Y-116760476D01*
X150414904Y-125880880D02*
X150414904Y-126595166D01*
X150462523Y-126738023D01*
X150557761Y-126833261D01*
X150700619Y-126880880D01*
X150795857Y-126880880D01*
X149414904Y-126880880D02*
X149986333Y-126880880D01*
X149700619Y-126880880D02*
X149700619Y-125880880D01*
X149795857Y-126023738D01*
X149891095Y-126118976D01*
X149986333Y-126166595D01*
X149033952Y-125976119D02*
X148986333Y-125928500D01*
X148891095Y-125880880D01*
X148653000Y-125880880D01*
X148557761Y-125928500D01*
X148510142Y-125976119D01*
X148462523Y-126071357D01*
X148462523Y-126166595D01*
X148510142Y-126309452D01*
X149081571Y-126880880D01*
X148462523Y-126880880D01*
X147843476Y-125880880D02*
X147748238Y-125880880D01*
X147653000Y-125928500D01*
X147605380Y-125976119D01*
X147557761Y-126071357D01*
X147510142Y-126261833D01*
X147510142Y-126499928D01*
X147557761Y-126690404D01*
X147605380Y-126785642D01*
X147653000Y-126833261D01*
X147748238Y-126880880D01*
X147843476Y-126880880D01*
X147938714Y-126833261D01*
X147986333Y-126785642D01*
X148033952Y-126690404D01*
X148081571Y-126499928D01*
X148081571Y-126261833D01*
X148033952Y-126071357D01*
X147986333Y-125976119D01*
X147938714Y-125928500D01*
X147843476Y-125880880D01*
X147129190Y-125976119D02*
X147081571Y-125928500D01*
X146986333Y-125880880D01*
X146748238Y-125880880D01*
X146653000Y-125928500D01*
X146605380Y-125976119D01*
X146557761Y-126071357D01*
X146557761Y-126166595D01*
X146605380Y-126309452D01*
X147176809Y-126880880D01*
X146557761Y-126880880D01*
X146986404Y-139406380D02*
X146986404Y-140120666D01*
X147034023Y-140263523D01*
X147129261Y-140358761D01*
X147272119Y-140406380D01*
X147367357Y-140406380D01*
X145986404Y-140406380D02*
X146557833Y-140406380D01*
X146272119Y-140406380D02*
X146272119Y-139406380D01*
X146367357Y-139549238D01*
X146462595Y-139644476D01*
X146557833Y-139692095D01*
X145605452Y-139501619D02*
X145557833Y-139454000D01*
X145462595Y-139406380D01*
X145224500Y-139406380D01*
X145129261Y-139454000D01*
X145081642Y-139501619D01*
X145034023Y-139596857D01*
X145034023Y-139692095D01*
X145081642Y-139834952D01*
X145653071Y-140406380D01*
X145034023Y-140406380D01*
X144414976Y-139406380D02*
X144319738Y-139406380D01*
X144224500Y-139454000D01*
X144176880Y-139501619D01*
X144129261Y-139596857D01*
X144081642Y-139787333D01*
X144081642Y-140025428D01*
X144129261Y-140215904D01*
X144176880Y-140311142D01*
X144224500Y-140358761D01*
X144319738Y-140406380D01*
X144414976Y-140406380D01*
X144510214Y-140358761D01*
X144557833Y-140311142D01*
X144605452Y-140215904D01*
X144653071Y-140025428D01*
X144653071Y-139787333D01*
X144605452Y-139596857D01*
X144557833Y-139501619D01*
X144510214Y-139454000D01*
X144414976Y-139406380D01*
X143129261Y-140406380D02*
X143700690Y-140406380D01*
X143414976Y-140406380D02*
X143414976Y-139406380D01*
X143510214Y-139549238D01*
X143605452Y-139644476D01*
X143700690Y-139692095D01*
X152146380Y-127952714D02*
X152955904Y-127952714D01*
X153051142Y-128000333D01*
X153098761Y-128047952D01*
X153146380Y-128143190D01*
X153146380Y-128333666D01*
X153098761Y-128428904D01*
X153051142Y-128476523D01*
X152955904Y-128524142D01*
X152146380Y-128524142D01*
X152146380Y-128905095D02*
X152146380Y-129571761D01*
X153146380Y-129143190D01*
X152146380Y-130143190D02*
X152146380Y-130238428D01*
X152194000Y-130333666D01*
X152241619Y-130381285D01*
X152336857Y-130428904D01*
X152527333Y-130476523D01*
X152765428Y-130476523D01*
X152955904Y-130428904D01*
X153051142Y-130381285D01*
X153098761Y-130333666D01*
X153146380Y-130238428D01*
X153146380Y-130143190D01*
X153098761Y-130047952D01*
X153051142Y-130000333D01*
X152955904Y-129952714D01*
X152765428Y-129905095D01*
X152527333Y-129905095D01*
X152336857Y-129952714D01*
X152241619Y-130000333D01*
X152194000Y-130047952D01*
X152146380Y-130143190D01*
X152241619Y-130857476D02*
X152194000Y-130905095D01*
X152146380Y-131000333D01*
X152146380Y-131238428D01*
X152194000Y-131333666D01*
X152241619Y-131381285D01*
X152336857Y-131428904D01*
X152432095Y-131428904D01*
X152574952Y-131381285D01*
X153146380Y-130809857D01*
X153146380Y-131428904D01*
X149288285Y-131106380D02*
X149288285Y-131915904D01*
X149240666Y-132011142D01*
X149193047Y-132058761D01*
X149097809Y-132106380D01*
X148907333Y-132106380D01*
X148812095Y-132058761D01*
X148764476Y-132011142D01*
X148716857Y-131915904D01*
X148716857Y-131106380D01*
X148335904Y-131106380D02*
X147669238Y-131106380D01*
X148097809Y-132106380D01*
X147097809Y-131106380D02*
X147002571Y-131106380D01*
X146907333Y-131154000D01*
X146859714Y-131201619D01*
X146812095Y-131296857D01*
X146764476Y-131487333D01*
X146764476Y-131725428D01*
X146812095Y-131915904D01*
X146859714Y-132011142D01*
X146907333Y-132058761D01*
X147002571Y-132106380D01*
X147097809Y-132106380D01*
X147193047Y-132058761D01*
X147240666Y-132011142D01*
X147288285Y-131915904D01*
X147335904Y-131725428D01*
X147335904Y-131487333D01*
X147288285Y-131296857D01*
X147240666Y-131201619D01*
X147193047Y-131154000D01*
X147097809Y-131106380D01*
X145812095Y-132106380D02*
X146383523Y-132106380D01*
X146097809Y-132106380D02*
X146097809Y-131106380D01*
X146193047Y-131249238D01*
X146288285Y-131344476D01*
X146383523Y-131392095D01*
X120015784Y-126896379D02*
X120015784Y-127705903D01*
X119968165Y-127801141D01*
X119920546Y-127848760D01*
X119825308Y-127896379D01*
X119634832Y-127896379D01*
X119539594Y-127848760D01*
X119491975Y-127801141D01*
X119444356Y-127705903D01*
X119444356Y-126896379D01*
X119063403Y-126896379D02*
X118444356Y-126896379D01*
X118777689Y-127277332D01*
X118634832Y-127277332D01*
X118539594Y-127324951D01*
X118491975Y-127372570D01*
X118444356Y-127467808D01*
X118444356Y-127705903D01*
X118491975Y-127801141D01*
X118539594Y-127848760D01*
X118634832Y-127896379D01*
X118920546Y-127896379D01*
X119015784Y-127848760D01*
X119063403Y-127801141D01*
X117825308Y-126896379D02*
X117730070Y-126896379D01*
X117634832Y-126943999D01*
X117587213Y-126991618D01*
X117539594Y-127086856D01*
X117491975Y-127277332D01*
X117491975Y-127515427D01*
X117539594Y-127705903D01*
X117587213Y-127801141D01*
X117634832Y-127848760D01*
X117730070Y-127896379D01*
X117825308Y-127896379D01*
X117920546Y-127848760D01*
X117968165Y-127801141D01*
X118015784Y-127705903D01*
X118063403Y-127515427D01*
X118063403Y-127277332D01*
X118015784Y-127086856D01*
X117968165Y-126991618D01*
X117920546Y-126943999D01*
X117825308Y-126896379D01*
X116539594Y-127896379D02*
X117111022Y-127896379D01*
X116825308Y-127896379D02*
X116825308Y-126896379D01*
X116920546Y-127039237D01*
X117015784Y-127134475D01*
X117111022Y-127182094D01*
X113258285Y-126135379D02*
X113258285Y-126944903D01*
X113210666Y-127040141D01*
X113163047Y-127087760D01*
X113067809Y-127135379D01*
X112877333Y-127135379D01*
X112782095Y-127087760D01*
X112734476Y-127040141D01*
X112686857Y-126944903D01*
X112686857Y-126135379D01*
X112305904Y-126135379D02*
X111686857Y-126135379D01*
X112020190Y-126516332D01*
X111877333Y-126516332D01*
X111782095Y-126563951D01*
X111734476Y-126611570D01*
X111686857Y-126706808D01*
X111686857Y-126944903D01*
X111734476Y-127040141D01*
X111782095Y-127087760D01*
X111877333Y-127135379D01*
X112163047Y-127135379D01*
X112258285Y-127087760D01*
X112305904Y-127040141D01*
X111067809Y-126135379D02*
X110972571Y-126135379D01*
X110877333Y-126182999D01*
X110829714Y-126230618D01*
X110782095Y-126325856D01*
X110734476Y-126516332D01*
X110734476Y-126754427D01*
X110782095Y-126944903D01*
X110829714Y-127040141D01*
X110877333Y-127087760D01*
X110972571Y-127135379D01*
X111067809Y-127135379D01*
X111163047Y-127087760D01*
X111210666Y-127040141D01*
X111258285Y-126944903D01*
X111305904Y-126754427D01*
X111305904Y-126516332D01*
X111258285Y-126325856D01*
X111210666Y-126230618D01*
X111163047Y-126182999D01*
X111067809Y-126135379D01*
X110353523Y-126230618D02*
X110305904Y-126182999D01*
X110210666Y-126135379D01*
X109972571Y-126135379D01*
X109877333Y-126182999D01*
X109829714Y-126230618D01*
X109782095Y-126325856D01*
X109782095Y-126421094D01*
X109829714Y-126563951D01*
X110401142Y-127135379D01*
X109782095Y-127135379D01*
X168940476Y-129222380D02*
X168940476Y-130031904D01*
X168892857Y-130127142D01*
X168845238Y-130174761D01*
X168750000Y-130222380D01*
X168559523Y-130222380D01*
X168464285Y-130174761D01*
X168416666Y-130127142D01*
X168369047Y-130031904D01*
X168369047Y-129222380D01*
X167369047Y-130222380D02*
X167940476Y-130222380D01*
X167654761Y-130222380D02*
X167654761Y-129222380D01*
X167750000Y-129365238D01*
X167845238Y-129460476D01*
X167940476Y-129508095D01*
X166464285Y-129222380D02*
X166940476Y-129222380D01*
X166988095Y-129698571D01*
X166940476Y-129650952D01*
X166845238Y-129603333D01*
X166607142Y-129603333D01*
X166511904Y-129650952D01*
X166464285Y-129698571D01*
X166416666Y-129793809D01*
X166416666Y-130031904D01*
X166464285Y-130127142D01*
X166511904Y-130174761D01*
X166607142Y-130222380D01*
X166845238Y-130222380D01*
X166940476Y-130174761D01*
X166988095Y-130127142D01*
X165797619Y-129222380D02*
X165702380Y-129222380D01*
X165607142Y-129270000D01*
X165559523Y-129317619D01*
X165511904Y-129412857D01*
X165464285Y-129603333D01*
X165464285Y-129841428D01*
X165511904Y-130031904D01*
X165559523Y-130127142D01*
X165607142Y-130174761D01*
X165702380Y-130222380D01*
X165797619Y-130222380D01*
X165892857Y-130174761D01*
X165940476Y-130127142D01*
X165988095Y-130031904D01*
X166035714Y-129841428D01*
X166035714Y-129603333D01*
X165988095Y-129412857D01*
X165940476Y-129317619D01*
X165892857Y-129270000D01*
X165797619Y-129222380D01*
X165083333Y-129317619D02*
X165035714Y-129270000D01*
X164940476Y-129222380D01*
X164702380Y-129222380D01*
X164607142Y-129270000D01*
X164559523Y-129317619D01*
X164511904Y-129412857D01*
X164511904Y-129508095D01*
X164559523Y-129650952D01*
X165130952Y-130222380D01*
X164511904Y-130222380D01*
X162971976Y-136865880D02*
X162971976Y-137675404D01*
X162924357Y-137770642D01*
X162876738Y-137818261D01*
X162781500Y-137865880D01*
X162591023Y-137865880D01*
X162495785Y-137818261D01*
X162448166Y-137770642D01*
X162400547Y-137675404D01*
X162400547Y-136865880D01*
X161400547Y-137865880D02*
X161971976Y-137865880D01*
X161686261Y-137865880D02*
X161686261Y-136865880D01*
X161781500Y-137008738D01*
X161876738Y-137103976D01*
X161971976Y-137151595D01*
X160495785Y-136865880D02*
X160971976Y-136865880D01*
X161019595Y-137342071D01*
X160971976Y-137294452D01*
X160876738Y-137246833D01*
X160638642Y-137246833D01*
X160543404Y-137294452D01*
X160495785Y-137342071D01*
X160448166Y-137437309D01*
X160448166Y-137675404D01*
X160495785Y-137770642D01*
X160543404Y-137818261D01*
X160638642Y-137865880D01*
X160876738Y-137865880D01*
X160971976Y-137818261D01*
X161019595Y-137770642D01*
X159829119Y-136865880D02*
X159733880Y-136865880D01*
X159638642Y-136913500D01*
X159591023Y-136961119D01*
X159543404Y-137056357D01*
X159495785Y-137246833D01*
X159495785Y-137484928D01*
X159543404Y-137675404D01*
X159591023Y-137770642D01*
X159638642Y-137818261D01*
X159733880Y-137865880D01*
X159829119Y-137865880D01*
X159924357Y-137818261D01*
X159971976Y-137770642D01*
X160019595Y-137675404D01*
X160067214Y-137484928D01*
X160067214Y-137246833D01*
X160019595Y-137056357D01*
X159971976Y-136961119D01*
X159924357Y-136913500D01*
X159829119Y-136865880D01*
X159162452Y-136865880D02*
X158543404Y-136865880D01*
X158876738Y-137246833D01*
X158733880Y-137246833D01*
X158638642Y-137294452D01*
X158591023Y-137342071D01*
X158543404Y-137437309D01*
X158543404Y-137675404D01*
X158591023Y-137770642D01*
X158638642Y-137818261D01*
X158733880Y-137865880D01*
X159019595Y-137865880D01*
X159114833Y-137818261D01*
X159162452Y-137770642D01*
M02*
