G04 #@! TF.GenerationSoftware,KiCad,Pcbnew,(5.1.8)-1*
G04 #@! TF.CreationDate,2021-01-22T21:00:44-06:00*
G04 #@! TF.ProjectId,Pulse_Oximeter,50756c73-655f-44f7-9869-6d657465722e,rev?*
G04 #@! TF.SameCoordinates,Original*
G04 #@! TF.FileFunction,Soldermask,Top*
G04 #@! TF.FilePolarity,Negative*
%FSLAX46Y46*%
G04 Gerber Fmt 4.6, Leading zero omitted, Abs format (unit mm)*
G04 Created by KiCad (PCBNEW (5.1.8)-1) date 2021-01-22 21:00:44*
%MOMM*%
%LPD*%
G01*
G04 APERTURE LIST*
%ADD10C,0.100000*%
%ADD11C,0.010000*%
%ADD12R,0.400000X0.600000*%
%ADD13R,1.800000X2.600000*%
%ADD14O,1.800000X2.600000*%
%ADD15R,0.600000X0.500000*%
%ADD16R,0.600000X0.400000*%
%ADD17R,1.060000X0.650000*%
%ADD18R,0.650000X0.400000*%
%ADD19R,0.400000X0.650000*%
%ADD20R,0.650000X1.060000*%
%ADD21R,0.750000X0.250000*%
%ADD22R,0.400000X1.060000*%
%ADD23R,1.800000X1.800000*%
%ADD24O,0.300000X0.750000*%
%ADD25O,0.750000X0.300000*%
%ADD26C,1.500000*%
%ADD27R,1.700000X1.700000*%
%ADD28R,3.200000X0.800000*%
%ADD29R,1.200000X1.500000*%
%ADD30O,1.700000X1.700000*%
%ADD31C,0.900000*%
%ADD32C,3.000000*%
%ADD33R,0.600000X0.700000*%
%ADD34R,0.500000X0.600000*%
%ADD35R,1.000000X1.600000*%
%ADD36R,1.600000X1.000000*%
%ADD37R,0.800000X3.200000*%
%ADD38C,1.700000*%
%ADD39R,1.750000X1.750000*%
%ADD40R,1.825000X1.325000*%
%ADD41R,0.700000X0.250000*%
%ADD42R,0.250000X0.700000*%
%ADD43R,0.450000X0.700000*%
%ADD44R,2.700000X2.550000*%
%ADD45R,2.500000X1.800000*%
%ADD46R,0.600000X0.450000*%
%ADD47R,3.500000X3.500000*%
%ADD48C,2.000000*%
%ADD49R,0.830000X1.190000*%
%ADD50R,1.500000X1.300000*%
%ADD51R,0.300000X0.750000*%
%ADD52R,1.550000X0.600000*%
%ADD53R,1.300000X1.500000*%
%ADD54R,0.750000X0.300000*%
%ADD55R,1.100000X1.300000*%
G04 APERTURE END LIST*
D10*
G36*
X114363500Y-60452000D02*
G01*
X108902500Y-60452000D01*
X108902500Y-58102500D01*
X114363500Y-58102500D01*
X114363500Y-60452000D01*
G37*
X114363500Y-60452000D02*
X108902500Y-60452000D01*
X108902500Y-58102500D01*
X114363500Y-58102500D01*
X114363500Y-60452000D01*
D11*
G36*
X119860228Y-72116158D02*
G01*
X119886212Y-72158060D01*
X119936366Y-72350935D01*
X119889812Y-72544820D01*
X119818022Y-72651747D01*
X119697244Y-72792159D01*
X119661464Y-72532009D01*
X119652090Y-72339450D01*
X119675668Y-72187629D01*
X119723809Y-72090503D01*
X119788125Y-72062027D01*
X119860228Y-72116158D01*
G37*
X119860228Y-72116158D02*
X119886212Y-72158060D01*
X119936366Y-72350935D01*
X119889812Y-72544820D01*
X119818022Y-72651747D01*
X119697244Y-72792159D01*
X119661464Y-72532009D01*
X119652090Y-72339450D01*
X119675668Y-72187629D01*
X119723809Y-72090503D01*
X119788125Y-72062027D01*
X119860228Y-72116158D01*
G36*
X118999829Y-72219836D02*
G01*
X119079600Y-72273569D01*
X119165701Y-72385315D01*
X119186854Y-72422888D01*
X119243047Y-72579212D01*
X119252151Y-72718112D01*
X119222238Y-72821270D01*
X119161378Y-72870373D01*
X119077643Y-72847104D01*
X119023001Y-72794714D01*
X118980542Y-72700378D01*
X118945330Y-72548167D01*
X118933631Y-72459451D01*
X118923162Y-72308211D01*
X118933933Y-72234735D01*
X118972224Y-72216291D01*
X118999829Y-72219836D01*
G37*
X118999829Y-72219836D02*
X119079600Y-72273569D01*
X119165701Y-72385315D01*
X119186854Y-72422888D01*
X119243047Y-72579212D01*
X119252151Y-72718112D01*
X119222238Y-72821270D01*
X119161378Y-72870373D01*
X119077643Y-72847104D01*
X119023001Y-72794714D01*
X118980542Y-72700378D01*
X118945330Y-72548167D01*
X118933631Y-72459451D01*
X118923162Y-72308211D01*
X118933933Y-72234735D01*
X118972224Y-72216291D01*
X118999829Y-72219836D01*
G36*
X118708321Y-72636035D02*
G01*
X118710698Y-72752035D01*
X118650275Y-72940931D01*
X118619368Y-73012300D01*
X118525522Y-73169139D01*
X118431882Y-73224785D01*
X118337632Y-73179636D01*
X118319465Y-73159549D01*
X118293722Y-73058926D01*
X118320681Y-72918087D01*
X118386499Y-72773591D01*
X118477334Y-72661998D01*
X118518292Y-72634397D01*
X118643925Y-72595849D01*
X118708321Y-72636035D01*
G37*
X118708321Y-72636035D02*
X118710698Y-72752035D01*
X118650275Y-72940931D01*
X118619368Y-73012300D01*
X118525522Y-73169139D01*
X118431882Y-73224785D01*
X118337632Y-73179636D01*
X118319465Y-73159549D01*
X118293722Y-73058926D01*
X118320681Y-72918087D01*
X118386499Y-72773591D01*
X118477334Y-72661998D01*
X118518292Y-72634397D01*
X118643925Y-72595849D01*
X118708321Y-72636035D01*
G36*
X121031073Y-73408988D02*
G01*
X121151806Y-73479805D01*
X121269227Y-73571529D01*
X121356512Y-73662640D01*
X121386840Y-73731617D01*
X121383437Y-73741317D01*
X121307197Y-73778752D01*
X121170825Y-73779400D01*
X121008090Y-73745278D01*
X120922798Y-73713828D01*
X120803559Y-73650239D01*
X120730144Y-73589897D01*
X120727925Y-73586591D01*
X120724315Y-73502087D01*
X120792359Y-73424763D01*
X120904232Y-73382452D01*
X120933852Y-73380600D01*
X121031073Y-73408988D01*
G37*
X121031073Y-73408988D02*
X121151806Y-73479805D01*
X121269227Y-73571529D01*
X121356512Y-73662640D01*
X121386840Y-73731617D01*
X121383437Y-73741317D01*
X121307197Y-73778752D01*
X121170825Y-73779400D01*
X121008090Y-73745278D01*
X120922798Y-73713828D01*
X120803559Y-73650239D01*
X120730144Y-73589897D01*
X120727925Y-73586591D01*
X120724315Y-73502087D01*
X120792359Y-73424763D01*
X120904232Y-73382452D01*
X120933852Y-73380600D01*
X121031073Y-73408988D01*
G36*
X109237616Y-74410528D02*
G01*
X109251531Y-74472455D01*
X109238677Y-74536300D01*
X109192843Y-74651553D01*
X109111258Y-74802609D01*
X109014807Y-74955804D01*
X108924376Y-75077473D01*
X108870828Y-75129227D01*
X108802767Y-75129384D01*
X108795285Y-75123352D01*
X108774944Y-75056301D01*
X108763628Y-74928298D01*
X108762800Y-74880237D01*
X108783473Y-74709295D01*
X108860480Y-74579380D01*
X108905279Y-74533104D01*
X109027015Y-74443270D01*
X109143210Y-74397926D01*
X109160247Y-74396600D01*
X109237616Y-74410528D01*
G37*
X109237616Y-74410528D02*
X109251531Y-74472455D01*
X109238677Y-74536300D01*
X109192843Y-74651553D01*
X109111258Y-74802609D01*
X109014807Y-74955804D01*
X108924376Y-75077473D01*
X108870828Y-75129227D01*
X108802767Y-75129384D01*
X108795285Y-75123352D01*
X108774944Y-75056301D01*
X108763628Y-74928298D01*
X108762800Y-74880237D01*
X108783473Y-74709295D01*
X108860480Y-74579380D01*
X108905279Y-74533104D01*
X109027015Y-74443270D01*
X109143210Y-74397926D01*
X109160247Y-74396600D01*
X109237616Y-74410528D01*
G36*
X109492954Y-74816661D02*
G01*
X109524800Y-74869695D01*
X109493088Y-74943424D01*
X109416634Y-75036848D01*
X109323458Y-75123211D01*
X109241581Y-75175755D01*
X109203777Y-75176244D01*
X109167980Y-75079302D01*
X109187998Y-74957863D01*
X109253397Y-74864464D01*
X109267460Y-74855587D01*
X109398441Y-74808548D01*
X109492954Y-74816661D01*
G37*
X109492954Y-74816661D02*
X109524800Y-74869695D01*
X109493088Y-74943424D01*
X109416634Y-75036848D01*
X109323458Y-75123211D01*
X109241581Y-75175755D01*
X109203777Y-75176244D01*
X109167980Y-75079302D01*
X109187998Y-74957863D01*
X109253397Y-74864464D01*
X109267460Y-74855587D01*
X109398441Y-74808548D01*
X109492954Y-74816661D01*
G36*
X120353413Y-74924295D02*
G01*
X120427939Y-74978492D01*
X120412029Y-75059854D01*
X120306757Y-75161044D01*
X120134722Y-75263912D01*
X119943322Y-75342633D01*
X119809574Y-75356972D01*
X119742103Y-75306851D01*
X119735600Y-75267617D01*
X119768552Y-75168415D01*
X119849006Y-75051445D01*
X119860174Y-75039017D01*
X119988022Y-74939473D01*
X120147597Y-74905413D01*
X120187376Y-74904600D01*
X120353413Y-74924295D01*
G37*
X120353413Y-74924295D02*
X120427939Y-74978492D01*
X120412029Y-75059854D01*
X120306757Y-75161044D01*
X120134722Y-75263912D01*
X119943322Y-75342633D01*
X119809574Y-75356972D01*
X119742103Y-75306851D01*
X119735600Y-75267617D01*
X119768552Y-75168415D01*
X119849006Y-75051445D01*
X119860174Y-75039017D01*
X119988022Y-74939473D01*
X120147597Y-74905413D01*
X120187376Y-74904600D01*
X120353413Y-74924295D01*
G36*
X120531423Y-76249217D02*
G01*
X120685105Y-76320309D01*
X120824610Y-76422482D01*
X120923175Y-76540381D01*
X120954800Y-76643980D01*
X120948408Y-76703314D01*
X120915149Y-76724198D01*
X120833892Y-76706121D01*
X120683509Y-76648573D01*
X120654208Y-76636717D01*
X120485758Y-76549670D01*
X120355926Y-76447939D01*
X120281913Y-76349168D01*
X120280925Y-76271002D01*
X120288577Y-76261702D01*
X120390326Y-76224563D01*
X120531423Y-76249217D01*
G37*
X120531423Y-76249217D02*
X120685105Y-76320309D01*
X120824610Y-76422482D01*
X120923175Y-76540381D01*
X120954800Y-76643980D01*
X120948408Y-76703314D01*
X120915149Y-76724198D01*
X120833892Y-76706121D01*
X120683509Y-76648573D01*
X120654208Y-76636717D01*
X120485758Y-76549670D01*
X120355926Y-76447939D01*
X120281913Y-76349168D01*
X120280925Y-76271002D01*
X120288577Y-76261702D01*
X120390326Y-76224563D01*
X120531423Y-76249217D01*
G36*
X119777770Y-76517807D02*
G01*
X119852557Y-76639733D01*
X119906855Y-76796198D01*
X119913282Y-76826839D01*
X119931400Y-76965505D01*
X119909144Y-77015181D01*
X119836191Y-76983929D01*
X119772655Y-76936692D01*
X119670796Y-76818728D01*
X119608641Y-76674532D01*
X119596778Y-76539757D01*
X119631603Y-76461679D01*
X119698712Y-76451447D01*
X119777770Y-76517807D01*
G37*
X119777770Y-76517807D02*
X119852557Y-76639733D01*
X119906855Y-76796198D01*
X119913282Y-76826839D01*
X119931400Y-76965505D01*
X119909144Y-77015181D01*
X119836191Y-76983929D01*
X119772655Y-76936692D01*
X119670796Y-76818728D01*
X119608641Y-76674532D01*
X119596778Y-76539757D01*
X119631603Y-76461679D01*
X119698712Y-76451447D01*
X119777770Y-76517807D01*
G36*
X115028630Y-66365235D02*
G01*
X115030230Y-66480139D01*
X115025653Y-66560699D01*
X115019172Y-66704889D01*
X115014899Y-66925787D01*
X115012837Y-67198525D01*
X115012990Y-67498236D01*
X115015361Y-67800051D01*
X115019952Y-68079102D01*
X115025437Y-68275200D01*
X115021947Y-68445355D01*
X115005013Y-68654731D01*
X114990878Y-68769007D01*
X114970209Y-68934198D01*
X114973116Y-69028117D01*
X115006133Y-69079649D01*
X115069033Y-69114599D01*
X115228522Y-69238483D01*
X115372041Y-69457739D01*
X115500985Y-69774699D01*
X115540479Y-69900800D01*
X115691201Y-70539192D01*
X115758288Y-71144277D01*
X115747352Y-71637724D01*
X115726354Y-71888716D01*
X115708383Y-72145472D01*
X115696801Y-72359100D01*
X115695627Y-72390000D01*
X115656092Y-72862818D01*
X115573125Y-73247206D01*
X115540333Y-73343528D01*
X115492993Y-73499127D01*
X115469099Y-73635520D01*
X115468400Y-73653923D01*
X115447586Y-73750287D01*
X115391707Y-73910991D01*
X115310604Y-74109240D01*
X115258892Y-74224395D01*
X115159744Y-74445986D01*
X115062220Y-74677466D01*
X114975005Y-74896592D01*
X114906782Y-75081119D01*
X114866234Y-75208803D01*
X114858800Y-75249297D01*
X114904752Y-75262555D01*
X115031156Y-75250949D01*
X115220828Y-75217733D01*
X115456588Y-75166157D01*
X115721254Y-75099474D01*
X115874747Y-75057014D01*
X116238065Y-74938260D01*
X116519247Y-74811325D01*
X116676051Y-74714262D01*
X116847778Y-74595538D01*
X117013085Y-74485964D01*
X117108527Y-74426098D01*
X117236704Y-74340976D01*
X117402113Y-74219960D01*
X117534767Y-74116475D01*
X117688307Y-74009889D01*
X117917902Y-73872774D01*
X118205877Y-73713817D01*
X118534559Y-73541705D01*
X118886276Y-73365124D01*
X119243354Y-73192760D01*
X119588119Y-73033300D01*
X119902900Y-72895431D01*
X120170022Y-72787839D01*
X120371812Y-72719210D01*
X120385019Y-72715551D01*
X120603564Y-72663165D01*
X120763097Y-72638752D01*
X120846350Y-72644807D01*
X120850966Y-72648259D01*
X120889498Y-72726034D01*
X120925525Y-72856636D01*
X120930178Y-72880385D01*
X120944654Y-72993966D01*
X120922075Y-73067577D01*
X120843006Y-73133810D01*
X120743631Y-73193242D01*
X120553837Y-73289530D01*
X120340322Y-73379574D01*
X120269024Y-73405057D01*
X120090573Y-73470909D01*
X119869460Y-73561396D01*
X119659424Y-73654271D01*
X119468955Y-73741958D01*
X119299075Y-73819279D01*
X119183870Y-73870729D01*
X119176800Y-73873798D01*
X119098342Y-73918492D01*
X119113394Y-73948482D01*
X119126000Y-73953094D01*
X119270599Y-73988442D01*
X119485224Y-74027800D01*
X119738667Y-74066576D01*
X119999716Y-74100180D01*
X120237165Y-74124021D01*
X120332500Y-74130588D01*
X120547466Y-74149706D01*
X120667847Y-74179297D01*
X120700800Y-74215467D01*
X120653193Y-74255162D01*
X120522806Y-74288463D01*
X120328289Y-74314851D01*
X120088292Y-74333811D01*
X119821465Y-74344824D01*
X119546457Y-74347374D01*
X119281918Y-74340942D01*
X119046498Y-74325013D01*
X118858847Y-74299069D01*
X118752596Y-74269499D01*
X118623833Y-74224111D01*
X118531541Y-74227778D01*
X118421676Y-74283404D01*
X118414635Y-74287673D01*
X118296992Y-74371732D01*
X118141994Y-74498690D01*
X117994143Y-74631007D01*
X117832936Y-74776842D01*
X117674345Y-74911416D01*
X117563133Y-74997839D01*
X117432501Y-75114548D01*
X117331065Y-75244955D01*
X117322233Y-75260908D01*
X117292226Y-75321089D01*
X117280174Y-75367298D01*
X117297413Y-75402284D01*
X117355277Y-75428794D01*
X117465102Y-75449577D01*
X117638222Y-75467380D01*
X117885973Y-75484953D01*
X118219690Y-75505042D01*
X118364000Y-75513475D01*
X118694030Y-75534732D01*
X119017968Y-75559102D01*
X119310553Y-75584433D01*
X119546529Y-75608574D01*
X119674572Y-75625122D01*
X120045345Y-75681818D01*
X120030172Y-75915509D01*
X120015000Y-76149200D01*
X119521090Y-76132770D01*
X119196484Y-76134886D01*
X118839696Y-76157531D01*
X118530490Y-76194439D01*
X118178324Y-76234702D01*
X117735687Y-76259677D01*
X117212632Y-76268844D01*
X117094000Y-76268714D01*
X116752412Y-76267305D01*
X116406120Y-76265842D01*
X116083824Y-76264450D01*
X115814226Y-76263251D01*
X115671600Y-76262591D01*
X115389929Y-76265970D01*
X115080910Y-76277001D01*
X114803021Y-76293468D01*
X114755352Y-76297301D01*
X114321704Y-76334312D01*
X114050093Y-77066645D01*
X113924058Y-77397159D01*
X113823834Y-77637011D01*
X113745634Y-77792731D01*
X113685671Y-77870849D01*
X113640160Y-77877895D01*
X113608306Y-77828560D01*
X113577810Y-77786881D01*
X113533331Y-77820394D01*
X113481452Y-77899039D01*
X113387524Y-78021794D01*
X113314692Y-78048721D01*
X113269726Y-77990700D01*
X113227557Y-77978037D01*
X113146836Y-78052239D01*
X113134806Y-78066900D01*
X112994500Y-78181052D01*
X112838664Y-78195060D01*
X112669363Y-78108846D01*
X112641222Y-78085795D01*
X112531664Y-78008335D01*
X112450433Y-78001627D01*
X112412924Y-78019857D01*
X112291673Y-78041001D01*
X112155738Y-77978945D01*
X112026679Y-77845404D01*
X111990991Y-77790568D01*
X111919392Y-77693487D01*
X111870274Y-77687952D01*
X111860517Y-77700352D01*
X111789793Y-77742245D01*
X111698171Y-77701910D01*
X111606005Y-77589967D01*
X111588528Y-77558438D01*
X111541752Y-77446036D01*
X111479024Y-77265895D01*
X111410634Y-77048430D01*
X111377055Y-76933524D01*
X111314409Y-76723533D01*
X111257076Y-76549837D01*
X111213210Y-76436265D01*
X111196882Y-76407039D01*
X111135795Y-76393452D01*
X110987573Y-76380323D01*
X110766685Y-76368332D01*
X110487595Y-76358161D01*
X110164771Y-76350488D01*
X109919799Y-76346962D01*
X109512804Y-76340234D01*
X109076625Y-76328819D01*
X108628394Y-76313531D01*
X108185244Y-76295183D01*
X107764308Y-76274589D01*
X107382716Y-76252562D01*
X107057602Y-76229916D01*
X106806098Y-76207464D01*
X106692700Y-76193720D01*
X106527600Y-76169996D01*
X106527600Y-75147063D01*
X106743500Y-75177463D01*
X106868297Y-75189755D01*
X107082842Y-75204848D01*
X107375341Y-75222165D01*
X107733998Y-75241129D01*
X108147017Y-75261164D01*
X108602603Y-75281691D01*
X109088961Y-75302135D01*
X109594295Y-75321919D01*
X109999789Y-75336723D01*
X110279888Y-75344381D01*
X110519118Y-75346651D01*
X110701461Y-75343733D01*
X110810898Y-75335829D01*
X110835310Y-75326267D01*
X110803296Y-75258011D01*
X110747312Y-75135110D01*
X110723562Y-75082400D01*
X110648955Y-74934929D01*
X110575216Y-74817155D01*
X110557555Y-74795038D01*
X110504051Y-74700902D01*
X110444590Y-74546573D01*
X110406805Y-74419747D01*
X110353454Y-74240973D01*
X110296592Y-74088957D01*
X110262962Y-74021308D01*
X110219322Y-73921766D01*
X110161167Y-73747282D01*
X110095367Y-73522238D01*
X110028791Y-73271017D01*
X109968309Y-73018000D01*
X109932155Y-72847200D01*
X109914409Y-72726766D01*
X109891711Y-72527797D01*
X109866389Y-72273094D01*
X109840770Y-71985461D01*
X109827217Y-71819209D01*
X109801237Y-71446901D01*
X109791021Y-71149561D01*
X109799383Y-70901387D01*
X109829137Y-70676575D01*
X109883097Y-70449322D01*
X109964077Y-70193825D01*
X110022586Y-70027937D01*
X110134062Y-69763928D01*
X110265035Y-69556861D01*
X110402129Y-69402188D01*
X110529623Y-69270314D01*
X110597707Y-69180821D01*
X110618569Y-69104009D01*
X110604401Y-69010178D01*
X110588279Y-68948669D01*
X110556423Y-68772661D01*
X110539324Y-68558045D01*
X110537165Y-68338476D01*
X110550127Y-68147609D01*
X110578389Y-68019100D01*
X110583221Y-68008682D01*
X110632000Y-67866368D01*
X110645763Y-67785428D01*
X111260715Y-67785428D01*
X111273285Y-67894748D01*
X111300691Y-68037413D01*
X111337020Y-68181075D01*
X111364456Y-68264552D01*
X111472765Y-68418453D01*
X111643169Y-68515547D01*
X111849925Y-68550085D01*
X112067289Y-68516319D01*
X112206205Y-68452519D01*
X112356592Y-68335148D01*
X112406957Y-68232530D01*
X113346286Y-68232530D01*
X113408579Y-68327361D01*
X113483292Y-68406107D01*
X113667454Y-68527250D01*
X113880036Y-68550885D01*
X114120855Y-68476997D01*
X114143795Y-68465621D01*
X114300693Y-68365680D01*
X114378653Y-68250776D01*
X114392793Y-68089845D01*
X114380255Y-67979736D01*
X114356433Y-67838400D01*
X114329746Y-67779846D01*
X114282502Y-67786342D01*
X114223634Y-67822779D01*
X114122283Y-67939000D01*
X114086928Y-68088689D01*
X114065582Y-68215296D01*
X114013525Y-68272904D01*
X113930927Y-68291348D01*
X113784335Y-68268028D01*
X113679388Y-68182803D01*
X113588189Y-68100211D01*
X113506281Y-68090977D01*
X113451560Y-68111308D01*
X113361335Y-68167215D01*
X113346286Y-68232530D01*
X112406957Y-68232530D01*
X112409465Y-68227421D01*
X112363573Y-68132425D01*
X112342744Y-68115453D01*
X112234361Y-68054587D01*
X112163048Y-68077279D01*
X112106356Y-68173600D01*
X112014926Y-68279489D01*
X111931624Y-68300600D01*
X111809254Y-68263111D01*
X111698747Y-68172016D01*
X111630878Y-68059366D01*
X111625881Y-67982177D01*
X111612024Y-67905466D01*
X111515814Y-67837357D01*
X111469947Y-67816823D01*
X111349277Y-67768526D01*
X111275592Y-67742999D01*
X111268894Y-67741800D01*
X111260715Y-67785428D01*
X110645763Y-67785428D01*
X110662908Y-67684605D01*
X110672129Y-67504611D01*
X110655848Y-67367605D01*
X110645094Y-67340433D01*
X110616703Y-67208507D01*
X110640220Y-67005503D01*
X110642256Y-66995599D01*
X110667658Y-66789833D01*
X110641898Y-66611684D01*
X110621532Y-66548000D01*
X110581584Y-66418937D01*
X110566592Y-66336870D01*
X110569118Y-66325262D01*
X110626090Y-66327512D01*
X110727268Y-66363631D01*
X110830122Y-66414575D01*
X110892123Y-66461303D01*
X110896400Y-66471800D01*
X110945844Y-66519820D01*
X111090261Y-66578049D01*
X111323780Y-66644343D01*
X111455200Y-66675965D01*
X111671137Y-66737436D01*
X111904537Y-66820993D01*
X112008576Y-66864886D01*
X112149667Y-66924454D01*
X112270501Y-66958279D01*
X112404202Y-66970326D01*
X112583894Y-66964563D01*
X112743788Y-66952928D01*
X113105576Y-66905857D01*
X113457730Y-66817128D01*
X113689011Y-66738126D01*
X113898554Y-66663601D01*
X114137955Y-66582635D01*
X114385444Y-66502083D01*
X114619247Y-66428799D01*
X114817592Y-66369637D01*
X114958707Y-66331453D01*
X115015107Y-66320638D01*
X115028630Y-66365235D01*
G37*
X115028630Y-66365235D02*
X115030230Y-66480139D01*
X115025653Y-66560699D01*
X115019172Y-66704889D01*
X115014899Y-66925787D01*
X115012837Y-67198525D01*
X115012990Y-67498236D01*
X115015361Y-67800051D01*
X115019952Y-68079102D01*
X115025437Y-68275200D01*
X115021947Y-68445355D01*
X115005013Y-68654731D01*
X114990878Y-68769007D01*
X114970209Y-68934198D01*
X114973116Y-69028117D01*
X115006133Y-69079649D01*
X115069033Y-69114599D01*
X115228522Y-69238483D01*
X115372041Y-69457739D01*
X115500985Y-69774699D01*
X115540479Y-69900800D01*
X115691201Y-70539192D01*
X115758288Y-71144277D01*
X115747352Y-71637724D01*
X115726354Y-71888716D01*
X115708383Y-72145472D01*
X115696801Y-72359100D01*
X115695627Y-72390000D01*
X115656092Y-72862818D01*
X115573125Y-73247206D01*
X115540333Y-73343528D01*
X115492993Y-73499127D01*
X115469099Y-73635520D01*
X115468400Y-73653923D01*
X115447586Y-73750287D01*
X115391707Y-73910991D01*
X115310604Y-74109240D01*
X115258892Y-74224395D01*
X115159744Y-74445986D01*
X115062220Y-74677466D01*
X114975005Y-74896592D01*
X114906782Y-75081119D01*
X114866234Y-75208803D01*
X114858800Y-75249297D01*
X114904752Y-75262555D01*
X115031156Y-75250949D01*
X115220828Y-75217733D01*
X115456588Y-75166157D01*
X115721254Y-75099474D01*
X115874747Y-75057014D01*
X116238065Y-74938260D01*
X116519247Y-74811325D01*
X116676051Y-74714262D01*
X116847778Y-74595538D01*
X117013085Y-74485964D01*
X117108527Y-74426098D01*
X117236704Y-74340976D01*
X117402113Y-74219960D01*
X117534767Y-74116475D01*
X117688307Y-74009889D01*
X117917902Y-73872774D01*
X118205877Y-73713817D01*
X118534559Y-73541705D01*
X118886276Y-73365124D01*
X119243354Y-73192760D01*
X119588119Y-73033300D01*
X119902900Y-72895431D01*
X120170022Y-72787839D01*
X120371812Y-72719210D01*
X120385019Y-72715551D01*
X120603564Y-72663165D01*
X120763097Y-72638752D01*
X120846350Y-72644807D01*
X120850966Y-72648259D01*
X120889498Y-72726034D01*
X120925525Y-72856636D01*
X120930178Y-72880385D01*
X120944654Y-72993966D01*
X120922075Y-73067577D01*
X120843006Y-73133810D01*
X120743631Y-73193242D01*
X120553837Y-73289530D01*
X120340322Y-73379574D01*
X120269024Y-73405057D01*
X120090573Y-73470909D01*
X119869460Y-73561396D01*
X119659424Y-73654271D01*
X119468955Y-73741958D01*
X119299075Y-73819279D01*
X119183870Y-73870729D01*
X119176800Y-73873798D01*
X119098342Y-73918492D01*
X119113394Y-73948482D01*
X119126000Y-73953094D01*
X119270599Y-73988442D01*
X119485224Y-74027800D01*
X119738667Y-74066576D01*
X119999716Y-74100180D01*
X120237165Y-74124021D01*
X120332500Y-74130588D01*
X120547466Y-74149706D01*
X120667847Y-74179297D01*
X120700800Y-74215467D01*
X120653193Y-74255162D01*
X120522806Y-74288463D01*
X120328289Y-74314851D01*
X120088292Y-74333811D01*
X119821465Y-74344824D01*
X119546457Y-74347374D01*
X119281918Y-74340942D01*
X119046498Y-74325013D01*
X118858847Y-74299069D01*
X118752596Y-74269499D01*
X118623833Y-74224111D01*
X118531541Y-74227778D01*
X118421676Y-74283404D01*
X118414635Y-74287673D01*
X118296992Y-74371732D01*
X118141994Y-74498690D01*
X117994143Y-74631007D01*
X117832936Y-74776842D01*
X117674345Y-74911416D01*
X117563133Y-74997839D01*
X117432501Y-75114548D01*
X117331065Y-75244955D01*
X117322233Y-75260908D01*
X117292226Y-75321089D01*
X117280174Y-75367298D01*
X117297413Y-75402284D01*
X117355277Y-75428794D01*
X117465102Y-75449577D01*
X117638222Y-75467380D01*
X117885973Y-75484953D01*
X118219690Y-75505042D01*
X118364000Y-75513475D01*
X118694030Y-75534732D01*
X119017968Y-75559102D01*
X119310553Y-75584433D01*
X119546529Y-75608574D01*
X119674572Y-75625122D01*
X120045345Y-75681818D01*
X120030172Y-75915509D01*
X120015000Y-76149200D01*
X119521090Y-76132770D01*
X119196484Y-76134886D01*
X118839696Y-76157531D01*
X118530490Y-76194439D01*
X118178324Y-76234702D01*
X117735687Y-76259677D01*
X117212632Y-76268844D01*
X117094000Y-76268714D01*
X116752412Y-76267305D01*
X116406120Y-76265842D01*
X116083824Y-76264450D01*
X115814226Y-76263251D01*
X115671600Y-76262591D01*
X115389929Y-76265970D01*
X115080910Y-76277001D01*
X114803021Y-76293468D01*
X114755352Y-76297301D01*
X114321704Y-76334312D01*
X114050093Y-77066645D01*
X113924058Y-77397159D01*
X113823834Y-77637011D01*
X113745634Y-77792731D01*
X113685671Y-77870849D01*
X113640160Y-77877895D01*
X113608306Y-77828560D01*
X113577810Y-77786881D01*
X113533331Y-77820394D01*
X113481452Y-77899039D01*
X113387524Y-78021794D01*
X113314692Y-78048721D01*
X113269726Y-77990700D01*
X113227557Y-77978037D01*
X113146836Y-78052239D01*
X113134806Y-78066900D01*
X112994500Y-78181052D01*
X112838664Y-78195060D01*
X112669363Y-78108846D01*
X112641222Y-78085795D01*
X112531664Y-78008335D01*
X112450433Y-78001627D01*
X112412924Y-78019857D01*
X112291673Y-78041001D01*
X112155738Y-77978945D01*
X112026679Y-77845404D01*
X111990991Y-77790568D01*
X111919392Y-77693487D01*
X111870274Y-77687952D01*
X111860517Y-77700352D01*
X111789793Y-77742245D01*
X111698171Y-77701910D01*
X111606005Y-77589967D01*
X111588528Y-77558438D01*
X111541752Y-77446036D01*
X111479024Y-77265895D01*
X111410634Y-77048430D01*
X111377055Y-76933524D01*
X111314409Y-76723533D01*
X111257076Y-76549837D01*
X111213210Y-76436265D01*
X111196882Y-76407039D01*
X111135795Y-76393452D01*
X110987573Y-76380323D01*
X110766685Y-76368332D01*
X110487595Y-76358161D01*
X110164771Y-76350488D01*
X109919799Y-76346962D01*
X109512804Y-76340234D01*
X109076625Y-76328819D01*
X108628394Y-76313531D01*
X108185244Y-76295183D01*
X107764308Y-76274589D01*
X107382716Y-76252562D01*
X107057602Y-76229916D01*
X106806098Y-76207464D01*
X106692700Y-76193720D01*
X106527600Y-76169996D01*
X106527600Y-75147063D01*
X106743500Y-75177463D01*
X106868297Y-75189755D01*
X107082842Y-75204848D01*
X107375341Y-75222165D01*
X107733998Y-75241129D01*
X108147017Y-75261164D01*
X108602603Y-75281691D01*
X109088961Y-75302135D01*
X109594295Y-75321919D01*
X109999789Y-75336723D01*
X110279888Y-75344381D01*
X110519118Y-75346651D01*
X110701461Y-75343733D01*
X110810898Y-75335829D01*
X110835310Y-75326267D01*
X110803296Y-75258011D01*
X110747312Y-75135110D01*
X110723562Y-75082400D01*
X110648955Y-74934929D01*
X110575216Y-74817155D01*
X110557555Y-74795038D01*
X110504051Y-74700902D01*
X110444590Y-74546573D01*
X110406805Y-74419747D01*
X110353454Y-74240973D01*
X110296592Y-74088957D01*
X110262962Y-74021308D01*
X110219322Y-73921766D01*
X110161167Y-73747282D01*
X110095367Y-73522238D01*
X110028791Y-73271017D01*
X109968309Y-73018000D01*
X109932155Y-72847200D01*
X109914409Y-72726766D01*
X109891711Y-72527797D01*
X109866389Y-72273094D01*
X109840770Y-71985461D01*
X109827217Y-71819209D01*
X109801237Y-71446901D01*
X109791021Y-71149561D01*
X109799383Y-70901387D01*
X109829137Y-70676575D01*
X109883097Y-70449322D01*
X109964077Y-70193825D01*
X110022586Y-70027937D01*
X110134062Y-69763928D01*
X110265035Y-69556861D01*
X110402129Y-69402188D01*
X110529623Y-69270314D01*
X110597707Y-69180821D01*
X110618569Y-69104009D01*
X110604401Y-69010178D01*
X110588279Y-68948669D01*
X110556423Y-68772661D01*
X110539324Y-68558045D01*
X110537165Y-68338476D01*
X110550127Y-68147609D01*
X110578389Y-68019100D01*
X110583221Y-68008682D01*
X110632000Y-67866368D01*
X110645763Y-67785428D01*
X111260715Y-67785428D01*
X111273285Y-67894748D01*
X111300691Y-68037413D01*
X111337020Y-68181075D01*
X111364456Y-68264552D01*
X111472765Y-68418453D01*
X111643169Y-68515547D01*
X111849925Y-68550085D01*
X112067289Y-68516319D01*
X112206205Y-68452519D01*
X112356592Y-68335148D01*
X112406957Y-68232530D01*
X113346286Y-68232530D01*
X113408579Y-68327361D01*
X113483292Y-68406107D01*
X113667454Y-68527250D01*
X113880036Y-68550885D01*
X114120855Y-68476997D01*
X114143795Y-68465621D01*
X114300693Y-68365680D01*
X114378653Y-68250776D01*
X114392793Y-68089845D01*
X114380255Y-67979736D01*
X114356433Y-67838400D01*
X114329746Y-67779846D01*
X114282502Y-67786342D01*
X114223634Y-67822779D01*
X114122283Y-67939000D01*
X114086928Y-68088689D01*
X114065582Y-68215296D01*
X114013525Y-68272904D01*
X113930927Y-68291348D01*
X113784335Y-68268028D01*
X113679388Y-68182803D01*
X113588189Y-68100211D01*
X113506281Y-68090977D01*
X113451560Y-68111308D01*
X113361335Y-68167215D01*
X113346286Y-68232530D01*
X112406957Y-68232530D01*
X112409465Y-68227421D01*
X112363573Y-68132425D01*
X112342744Y-68115453D01*
X112234361Y-68054587D01*
X112163048Y-68077279D01*
X112106356Y-68173600D01*
X112014926Y-68279489D01*
X111931624Y-68300600D01*
X111809254Y-68263111D01*
X111698747Y-68172016D01*
X111630878Y-68059366D01*
X111625881Y-67982177D01*
X111612024Y-67905466D01*
X111515814Y-67837357D01*
X111469947Y-67816823D01*
X111349277Y-67768526D01*
X111275592Y-67742999D01*
X111268894Y-67741800D01*
X111260715Y-67785428D01*
X110645763Y-67785428D01*
X110662908Y-67684605D01*
X110672129Y-67504611D01*
X110655848Y-67367605D01*
X110645094Y-67340433D01*
X110616703Y-67208507D01*
X110640220Y-67005503D01*
X110642256Y-66995599D01*
X110667658Y-66789833D01*
X110641898Y-66611684D01*
X110621532Y-66548000D01*
X110581584Y-66418937D01*
X110566592Y-66336870D01*
X110569118Y-66325262D01*
X110626090Y-66327512D01*
X110727268Y-66363631D01*
X110830122Y-66414575D01*
X110892123Y-66461303D01*
X110896400Y-66471800D01*
X110945844Y-66519820D01*
X111090261Y-66578049D01*
X111323780Y-66644343D01*
X111455200Y-66675965D01*
X111671137Y-66737436D01*
X111904537Y-66820993D01*
X112008576Y-66864886D01*
X112149667Y-66924454D01*
X112270501Y-66958279D01*
X112404202Y-66970326D01*
X112583894Y-66964563D01*
X112743788Y-66952928D01*
X113105576Y-66905857D01*
X113457730Y-66817128D01*
X113689011Y-66738126D01*
X113898554Y-66663601D01*
X114137955Y-66582635D01*
X114385444Y-66502083D01*
X114619247Y-66428799D01*
X114817592Y-66369637D01*
X114958707Y-66331453D01*
X115015107Y-66320638D01*
X115028630Y-66365235D01*
G36*
X184963441Y-70369960D02*
G01*
X185081045Y-70436395D01*
X185174523Y-70539045D01*
X185218312Y-70625124D01*
X185248922Y-70763614D01*
X185239821Y-70901591D01*
X185192473Y-71023084D01*
X185180088Y-71041850D01*
X185089649Y-71129408D01*
X184970771Y-71189553D01*
X184837833Y-71219418D01*
X184705213Y-71216134D01*
X184587290Y-71176832D01*
X184566506Y-71164244D01*
X184484237Y-71085394D01*
X184416414Y-70976770D01*
X184374247Y-70859295D01*
X184365900Y-70789799D01*
X184385174Y-70680575D01*
X184435690Y-70566110D01*
X184506482Y-70467158D01*
X184562142Y-70418295D01*
X184694361Y-70357876D01*
X184831337Y-70342776D01*
X184963441Y-70369960D01*
G37*
X184963441Y-70369960D02*
X185081045Y-70436395D01*
X185174523Y-70539045D01*
X185218312Y-70625124D01*
X185248922Y-70763614D01*
X185239821Y-70901591D01*
X185192473Y-71023084D01*
X185180088Y-71041850D01*
X185089649Y-71129408D01*
X184970771Y-71189553D01*
X184837833Y-71219418D01*
X184705213Y-71216134D01*
X184587290Y-71176832D01*
X184566506Y-71164244D01*
X184484237Y-71085394D01*
X184416414Y-70976770D01*
X184374247Y-70859295D01*
X184365900Y-70789799D01*
X184385174Y-70680575D01*
X184435690Y-70566110D01*
X184506482Y-70467158D01*
X184562142Y-70418295D01*
X184694361Y-70357876D01*
X184831337Y-70342776D01*
X184963441Y-70369960D01*
G36*
X185204100Y-73236045D02*
G01*
X185204321Y-73507528D01*
X185205083Y-73732618D01*
X185206526Y-73915721D01*
X185208794Y-74061240D01*
X185212031Y-74173583D01*
X185216378Y-74257155D01*
X185221980Y-74316359D01*
X185228978Y-74355603D01*
X185237516Y-74379292D01*
X185241392Y-74385395D01*
X185267678Y-74422943D01*
X185278391Y-74451085D01*
X185268210Y-74471174D01*
X185231812Y-74484563D01*
X185163876Y-74492605D01*
X185059078Y-74496653D01*
X184912098Y-74498060D01*
X184797700Y-74498200D01*
X184647418Y-74497515D01*
X184516227Y-74495608D01*
X184411927Y-74492702D01*
X184342319Y-74489017D01*
X184315205Y-74484776D01*
X184315100Y-74484488D01*
X184325655Y-74455454D01*
X184352226Y-74398509D01*
X184365900Y-74371200D01*
X184378766Y-74343760D01*
X184389259Y-74313394D01*
X184397620Y-74274920D01*
X184404091Y-74223155D01*
X184408911Y-74152918D01*
X184412322Y-74059027D01*
X184414565Y-73936301D01*
X184415881Y-73779559D01*
X184416510Y-73583617D01*
X184416695Y-73343296D01*
X184416700Y-73278750D01*
X184416447Y-73021269D01*
X184415571Y-72809749D01*
X184413896Y-72639351D01*
X184411248Y-72505238D01*
X184407450Y-72402571D01*
X184402327Y-72326513D01*
X184395703Y-72272226D01*
X184387403Y-72234872D01*
X184377947Y-72210938D01*
X184339195Y-72136000D01*
X185204100Y-72136000D01*
X185204100Y-73236045D01*
G37*
X185204100Y-73236045D02*
X185204321Y-73507528D01*
X185205083Y-73732618D01*
X185206526Y-73915721D01*
X185208794Y-74061240D01*
X185212031Y-74173583D01*
X185216378Y-74257155D01*
X185221980Y-74316359D01*
X185228978Y-74355603D01*
X185237516Y-74379292D01*
X185241392Y-74385395D01*
X185267678Y-74422943D01*
X185278391Y-74451085D01*
X185268210Y-74471174D01*
X185231812Y-74484563D01*
X185163876Y-74492605D01*
X185059078Y-74496653D01*
X184912098Y-74498060D01*
X184797700Y-74498200D01*
X184647418Y-74497515D01*
X184516227Y-74495608D01*
X184411927Y-74492702D01*
X184342319Y-74489017D01*
X184315205Y-74484776D01*
X184315100Y-74484488D01*
X184325655Y-74455454D01*
X184352226Y-74398509D01*
X184365900Y-74371200D01*
X184378766Y-74343760D01*
X184389259Y-74313394D01*
X184397620Y-74274920D01*
X184404091Y-74223155D01*
X184408911Y-74152918D01*
X184412322Y-74059027D01*
X184414565Y-73936301D01*
X184415881Y-73779559D01*
X184416510Y-73583617D01*
X184416695Y-73343296D01*
X184416700Y-73278750D01*
X184416447Y-73021269D01*
X184415571Y-72809749D01*
X184413896Y-72639351D01*
X184411248Y-72505238D01*
X184407450Y-72402571D01*
X184402327Y-72326513D01*
X184395703Y-72272226D01*
X184387403Y-72234872D01*
X184377947Y-72210938D01*
X184339195Y-72136000D01*
X185204100Y-72136000D01*
X185204100Y-73236045D01*
G36*
X183621247Y-71272400D02*
G01*
X184166559Y-71272400D01*
X183967779Y-71473787D01*
X183638071Y-71836691D01*
X183423651Y-72110815D01*
X183345203Y-72214400D01*
X183250644Y-72334529D01*
X183150550Y-72458202D01*
X183055498Y-72572419D01*
X182976066Y-72664181D01*
X182950968Y-72691760D01*
X182869536Y-72779212D01*
X182939494Y-72870356D01*
X183074936Y-73059604D01*
X183162478Y-73199050D01*
X183217348Y-73281286D01*
X183278624Y-73360612D01*
X183283773Y-73366607D01*
X183352722Y-73449581D01*
X183433247Y-73552137D01*
X183516442Y-73662288D01*
X183593402Y-73768047D01*
X183655219Y-73857425D01*
X183690876Y-73914547D01*
X183725957Y-73967596D01*
X183784486Y-74046062D01*
X183856320Y-74137252D01*
X183931315Y-74228472D01*
X183999328Y-74307032D01*
X184035700Y-74346020D01*
X184059589Y-74372081D01*
X184101863Y-74419406D01*
X184109977Y-74428570D01*
X184171555Y-74498200D01*
X183045100Y-74498200D01*
X183045100Y-74419923D01*
X183028337Y-74343395D01*
X182981107Y-74238149D01*
X182907993Y-74112239D01*
X182813581Y-73973716D01*
X182726042Y-73859533D01*
X182654768Y-73767313D01*
X182589447Y-73676269D01*
X182542277Y-73603535D01*
X182536171Y-73592833D01*
X182496129Y-73526434D01*
X182460842Y-73478284D01*
X182452199Y-73469500D01*
X182417638Y-73430816D01*
X182377415Y-73374250D01*
X182339726Y-73326093D01*
X182309215Y-73304487D01*
X182307914Y-73304400D01*
X182299038Y-73329091D01*
X182291918Y-73400381D01*
X182286764Y-73514092D01*
X182283783Y-73666044D01*
X182283100Y-73800961D01*
X182283784Y-73980263D01*
X182286195Y-74116270D01*
X182290875Y-74216475D01*
X182298363Y-74288369D01*
X182309198Y-74339443D01*
X182323921Y-74377188D01*
X182324744Y-74378811D01*
X182360217Y-74438491D01*
X182391723Y-74476618D01*
X182394594Y-74478761D01*
X182379097Y-74484323D01*
X182319747Y-74489262D01*
X182223486Y-74493312D01*
X182097259Y-74496207D01*
X181948011Y-74497682D01*
X181896294Y-74497811D01*
X181369789Y-74498200D01*
X181399468Y-74428350D01*
X181427641Y-74369758D01*
X181449724Y-74334370D01*
X181453557Y-74305142D01*
X181457157Y-74229781D01*
X181460459Y-74112951D01*
X181463396Y-73959317D01*
X181465899Y-73773546D01*
X181467904Y-73560302D01*
X181469342Y-73324251D01*
X181470147Y-73070059D01*
X181470299Y-72898290D01*
X181470241Y-72594311D01*
X181469970Y-72336912D01*
X181469346Y-72121874D01*
X181468226Y-71944978D01*
X181466469Y-71802004D01*
X181463933Y-71688733D01*
X181460476Y-71600945D01*
X181455957Y-71534421D01*
X181450233Y-71484941D01*
X181443162Y-71448286D01*
X181434604Y-71420237D01*
X181424416Y-71396574D01*
X181419499Y-71386699D01*
X181388744Y-71324869D01*
X181370690Y-71285660D01*
X181368699Y-71279729D01*
X181392835Y-71277507D01*
X181460188Y-71275556D01*
X181563172Y-71273984D01*
X181694206Y-71272901D01*
X181845705Y-71272415D01*
X181879417Y-71272400D01*
X182052560Y-71272664D01*
X182181129Y-71273831D01*
X182271346Y-71276464D01*
X182329437Y-71281123D01*
X182361624Y-71288372D01*
X182374132Y-71298772D01*
X182373186Y-71312885D01*
X182371664Y-71316850D01*
X182338305Y-71405673D01*
X182314239Y-71494181D01*
X182298080Y-71593141D01*
X182288442Y-71713321D01*
X182283940Y-71865488D01*
X182283100Y-72005088D01*
X182283099Y-72424904D01*
X182359299Y-72351900D01*
X182406913Y-72301557D01*
X182433494Y-72264278D01*
X182435500Y-72257483D01*
X182450637Y-72231550D01*
X182490128Y-72178128D01*
X182545088Y-72108145D01*
X182606632Y-72032529D01*
X182665877Y-71962209D01*
X182713939Y-71908114D01*
X182740739Y-71882000D01*
X182763061Y-71854734D01*
X182801436Y-71798630D01*
X182829302Y-71755000D01*
X182887505Y-71667298D01*
X182950451Y-71580698D01*
X182972799Y-71552362D01*
X183017513Y-71485736D01*
X183042908Y-71424643D01*
X183045100Y-71408390D01*
X183045622Y-71364677D01*
X183051291Y-71331502D01*
X183068262Y-71307412D01*
X183102689Y-71290955D01*
X183160726Y-71280677D01*
X183248528Y-71275127D01*
X183372250Y-71272851D01*
X183538045Y-71272396D01*
X183621247Y-71272400D01*
G37*
X183621247Y-71272400D02*
X184166559Y-71272400D01*
X183967779Y-71473787D01*
X183638071Y-71836691D01*
X183423651Y-72110815D01*
X183345203Y-72214400D01*
X183250644Y-72334529D01*
X183150550Y-72458202D01*
X183055498Y-72572419D01*
X182976066Y-72664181D01*
X182950968Y-72691760D01*
X182869536Y-72779212D01*
X182939494Y-72870356D01*
X183074936Y-73059604D01*
X183162478Y-73199050D01*
X183217348Y-73281286D01*
X183278624Y-73360612D01*
X183283773Y-73366607D01*
X183352722Y-73449581D01*
X183433247Y-73552137D01*
X183516442Y-73662288D01*
X183593402Y-73768047D01*
X183655219Y-73857425D01*
X183690876Y-73914547D01*
X183725957Y-73967596D01*
X183784486Y-74046062D01*
X183856320Y-74137252D01*
X183931315Y-74228472D01*
X183999328Y-74307032D01*
X184035700Y-74346020D01*
X184059589Y-74372081D01*
X184101863Y-74419406D01*
X184109977Y-74428570D01*
X184171555Y-74498200D01*
X183045100Y-74498200D01*
X183045100Y-74419923D01*
X183028337Y-74343395D01*
X182981107Y-74238149D01*
X182907993Y-74112239D01*
X182813581Y-73973716D01*
X182726042Y-73859533D01*
X182654768Y-73767313D01*
X182589447Y-73676269D01*
X182542277Y-73603535D01*
X182536171Y-73592833D01*
X182496129Y-73526434D01*
X182460842Y-73478284D01*
X182452199Y-73469500D01*
X182417638Y-73430816D01*
X182377415Y-73374250D01*
X182339726Y-73326093D01*
X182309215Y-73304487D01*
X182307914Y-73304400D01*
X182299038Y-73329091D01*
X182291918Y-73400381D01*
X182286764Y-73514092D01*
X182283783Y-73666044D01*
X182283100Y-73800961D01*
X182283784Y-73980263D01*
X182286195Y-74116270D01*
X182290875Y-74216475D01*
X182298363Y-74288369D01*
X182309198Y-74339443D01*
X182323921Y-74377188D01*
X182324744Y-74378811D01*
X182360217Y-74438491D01*
X182391723Y-74476618D01*
X182394594Y-74478761D01*
X182379097Y-74484323D01*
X182319747Y-74489262D01*
X182223486Y-74493312D01*
X182097259Y-74496207D01*
X181948011Y-74497682D01*
X181896294Y-74497811D01*
X181369789Y-74498200D01*
X181399468Y-74428350D01*
X181427641Y-74369758D01*
X181449724Y-74334370D01*
X181453557Y-74305142D01*
X181457157Y-74229781D01*
X181460459Y-74112951D01*
X181463396Y-73959317D01*
X181465899Y-73773546D01*
X181467904Y-73560302D01*
X181469342Y-73324251D01*
X181470147Y-73070059D01*
X181470299Y-72898290D01*
X181470241Y-72594311D01*
X181469970Y-72336912D01*
X181469346Y-72121874D01*
X181468226Y-71944978D01*
X181466469Y-71802004D01*
X181463933Y-71688733D01*
X181460476Y-71600945D01*
X181455957Y-71534421D01*
X181450233Y-71484941D01*
X181443162Y-71448286D01*
X181434604Y-71420237D01*
X181424416Y-71396574D01*
X181419499Y-71386699D01*
X181388744Y-71324869D01*
X181370690Y-71285660D01*
X181368699Y-71279729D01*
X181392835Y-71277507D01*
X181460188Y-71275556D01*
X181563172Y-71273984D01*
X181694206Y-71272901D01*
X181845705Y-71272415D01*
X181879417Y-71272400D01*
X182052560Y-71272664D01*
X182181129Y-71273831D01*
X182271346Y-71276464D01*
X182329437Y-71281123D01*
X182361624Y-71288372D01*
X182374132Y-71298772D01*
X182373186Y-71312885D01*
X182371664Y-71316850D01*
X182338305Y-71405673D01*
X182314239Y-71494181D01*
X182298080Y-71593141D01*
X182288442Y-71713321D01*
X182283940Y-71865488D01*
X182283100Y-72005088D01*
X182283099Y-72424904D01*
X182359299Y-72351900D01*
X182406913Y-72301557D01*
X182433494Y-72264278D01*
X182435500Y-72257483D01*
X182450637Y-72231550D01*
X182490128Y-72178128D01*
X182545088Y-72108145D01*
X182606632Y-72032529D01*
X182665877Y-71962209D01*
X182713939Y-71908114D01*
X182740739Y-71882000D01*
X182763061Y-71854734D01*
X182801436Y-71798630D01*
X182829302Y-71755000D01*
X182887505Y-71667298D01*
X182950451Y-71580698D01*
X182972799Y-71552362D01*
X183017513Y-71485736D01*
X183042908Y-71424643D01*
X183045100Y-71408390D01*
X183045622Y-71364677D01*
X183051291Y-71331502D01*
X183068262Y-71307412D01*
X183102689Y-71290955D01*
X183160726Y-71280677D01*
X183248528Y-71275127D01*
X183372250Y-71272851D01*
X183538045Y-71272396D01*
X183621247Y-71272400D01*
D12*
X118116000Y-128397000D03*
X117216000Y-128397000D03*
D13*
X184187600Y-61592500D03*
D14*
X181647600Y-61592500D03*
X179107600Y-61592500D03*
X176567600Y-61592500D03*
X174027600Y-61592500D03*
X171487600Y-61592500D03*
X168947600Y-61592500D03*
X166407600Y-61592500D03*
X163867600Y-61592500D03*
X161327600Y-61592500D03*
X158787600Y-61592500D03*
X156247600Y-61592500D03*
X153707600Y-61592500D03*
X151167600Y-61592500D03*
X148627600Y-61592500D03*
X146087600Y-61592500D03*
D15*
X183494000Y-66990000D03*
X182394000Y-66990000D03*
X183494000Y-66101000D03*
X182394000Y-66101000D03*
X108860000Y-84770000D03*
X109960000Y-84770000D03*
D16*
X167005000Y-85283500D03*
X167005000Y-84383500D03*
G36*
G01*
X151104000Y-81294000D02*
X151104000Y-79969000D01*
G75*
G02*
X151179000Y-79894000I75000J0D01*
G01*
X151329000Y-79894000D01*
G75*
G02*
X151404000Y-79969000I0J-75000D01*
G01*
X151404000Y-81294000D01*
G75*
G02*
X151329000Y-81369000I-75000J0D01*
G01*
X151179000Y-81369000D01*
G75*
G02*
X151104000Y-81294000I0J75000D01*
G01*
G37*
G36*
G01*
X151604000Y-81294000D02*
X151604000Y-79969000D01*
G75*
G02*
X151679000Y-79894000I75000J0D01*
G01*
X151829000Y-79894000D01*
G75*
G02*
X151904000Y-79969000I0J-75000D01*
G01*
X151904000Y-81294000D01*
G75*
G02*
X151829000Y-81369000I-75000J0D01*
G01*
X151679000Y-81369000D01*
G75*
G02*
X151604000Y-81294000I0J75000D01*
G01*
G37*
G36*
G01*
X152104000Y-81294000D02*
X152104000Y-79969000D01*
G75*
G02*
X152179000Y-79894000I75000J0D01*
G01*
X152329000Y-79894000D01*
G75*
G02*
X152404000Y-79969000I0J-75000D01*
G01*
X152404000Y-81294000D01*
G75*
G02*
X152329000Y-81369000I-75000J0D01*
G01*
X152179000Y-81369000D01*
G75*
G02*
X152104000Y-81294000I0J75000D01*
G01*
G37*
G36*
G01*
X152604000Y-81294000D02*
X152604000Y-79969000D01*
G75*
G02*
X152679000Y-79894000I75000J0D01*
G01*
X152829000Y-79894000D01*
G75*
G02*
X152904000Y-79969000I0J-75000D01*
G01*
X152904000Y-81294000D01*
G75*
G02*
X152829000Y-81369000I-75000J0D01*
G01*
X152679000Y-81369000D01*
G75*
G02*
X152604000Y-81294000I0J75000D01*
G01*
G37*
G36*
G01*
X153104000Y-81294000D02*
X153104000Y-79969000D01*
G75*
G02*
X153179000Y-79894000I75000J0D01*
G01*
X153329000Y-79894000D01*
G75*
G02*
X153404000Y-79969000I0J-75000D01*
G01*
X153404000Y-81294000D01*
G75*
G02*
X153329000Y-81369000I-75000J0D01*
G01*
X153179000Y-81369000D01*
G75*
G02*
X153104000Y-81294000I0J75000D01*
G01*
G37*
G36*
G01*
X153604000Y-81294000D02*
X153604000Y-79969000D01*
G75*
G02*
X153679000Y-79894000I75000J0D01*
G01*
X153829000Y-79894000D01*
G75*
G02*
X153904000Y-79969000I0J-75000D01*
G01*
X153904000Y-81294000D01*
G75*
G02*
X153829000Y-81369000I-75000J0D01*
G01*
X153679000Y-81369000D01*
G75*
G02*
X153604000Y-81294000I0J75000D01*
G01*
G37*
G36*
G01*
X154104000Y-81294000D02*
X154104000Y-79969000D01*
G75*
G02*
X154179000Y-79894000I75000J0D01*
G01*
X154329000Y-79894000D01*
G75*
G02*
X154404000Y-79969000I0J-75000D01*
G01*
X154404000Y-81294000D01*
G75*
G02*
X154329000Y-81369000I-75000J0D01*
G01*
X154179000Y-81369000D01*
G75*
G02*
X154104000Y-81294000I0J75000D01*
G01*
G37*
G36*
G01*
X154604000Y-81294000D02*
X154604000Y-79969000D01*
G75*
G02*
X154679000Y-79894000I75000J0D01*
G01*
X154829000Y-79894000D01*
G75*
G02*
X154904000Y-79969000I0J-75000D01*
G01*
X154904000Y-81294000D01*
G75*
G02*
X154829000Y-81369000I-75000J0D01*
G01*
X154679000Y-81369000D01*
G75*
G02*
X154604000Y-81294000I0J75000D01*
G01*
G37*
G36*
G01*
X155104000Y-81294000D02*
X155104000Y-79969000D01*
G75*
G02*
X155179000Y-79894000I75000J0D01*
G01*
X155329000Y-79894000D01*
G75*
G02*
X155404000Y-79969000I0J-75000D01*
G01*
X155404000Y-81294000D01*
G75*
G02*
X155329000Y-81369000I-75000J0D01*
G01*
X155179000Y-81369000D01*
G75*
G02*
X155104000Y-81294000I0J75000D01*
G01*
G37*
G36*
G01*
X155604000Y-81294000D02*
X155604000Y-79969000D01*
G75*
G02*
X155679000Y-79894000I75000J0D01*
G01*
X155829000Y-79894000D01*
G75*
G02*
X155904000Y-79969000I0J-75000D01*
G01*
X155904000Y-81294000D01*
G75*
G02*
X155829000Y-81369000I-75000J0D01*
G01*
X155679000Y-81369000D01*
G75*
G02*
X155604000Y-81294000I0J75000D01*
G01*
G37*
G36*
G01*
X156104000Y-81294000D02*
X156104000Y-79969000D01*
G75*
G02*
X156179000Y-79894000I75000J0D01*
G01*
X156329000Y-79894000D01*
G75*
G02*
X156404000Y-79969000I0J-75000D01*
G01*
X156404000Y-81294000D01*
G75*
G02*
X156329000Y-81369000I-75000J0D01*
G01*
X156179000Y-81369000D01*
G75*
G02*
X156104000Y-81294000I0J75000D01*
G01*
G37*
G36*
G01*
X156604000Y-81294000D02*
X156604000Y-79969000D01*
G75*
G02*
X156679000Y-79894000I75000J0D01*
G01*
X156829000Y-79894000D01*
G75*
G02*
X156904000Y-79969000I0J-75000D01*
G01*
X156904000Y-81294000D01*
G75*
G02*
X156829000Y-81369000I-75000J0D01*
G01*
X156679000Y-81369000D01*
G75*
G02*
X156604000Y-81294000I0J75000D01*
G01*
G37*
G36*
G01*
X157104000Y-81294000D02*
X157104000Y-79969000D01*
G75*
G02*
X157179000Y-79894000I75000J0D01*
G01*
X157329000Y-79894000D01*
G75*
G02*
X157404000Y-79969000I0J-75000D01*
G01*
X157404000Y-81294000D01*
G75*
G02*
X157329000Y-81369000I-75000J0D01*
G01*
X157179000Y-81369000D01*
G75*
G02*
X157104000Y-81294000I0J75000D01*
G01*
G37*
G36*
G01*
X157604000Y-81294000D02*
X157604000Y-79969000D01*
G75*
G02*
X157679000Y-79894000I75000J0D01*
G01*
X157829000Y-79894000D01*
G75*
G02*
X157904000Y-79969000I0J-75000D01*
G01*
X157904000Y-81294000D01*
G75*
G02*
X157829000Y-81369000I-75000J0D01*
G01*
X157679000Y-81369000D01*
G75*
G02*
X157604000Y-81294000I0J75000D01*
G01*
G37*
G36*
G01*
X158104000Y-81294000D02*
X158104000Y-79969000D01*
G75*
G02*
X158179000Y-79894000I75000J0D01*
G01*
X158329000Y-79894000D01*
G75*
G02*
X158404000Y-79969000I0J-75000D01*
G01*
X158404000Y-81294000D01*
G75*
G02*
X158329000Y-81369000I-75000J0D01*
G01*
X158179000Y-81369000D01*
G75*
G02*
X158104000Y-81294000I0J75000D01*
G01*
G37*
G36*
G01*
X158604000Y-81294000D02*
X158604000Y-79969000D01*
G75*
G02*
X158679000Y-79894000I75000J0D01*
G01*
X158829000Y-79894000D01*
G75*
G02*
X158904000Y-79969000I0J-75000D01*
G01*
X158904000Y-81294000D01*
G75*
G02*
X158829000Y-81369000I-75000J0D01*
G01*
X158679000Y-81369000D01*
G75*
G02*
X158604000Y-81294000I0J75000D01*
G01*
G37*
G36*
G01*
X159929000Y-82619000D02*
X159929000Y-82469000D01*
G75*
G02*
X160004000Y-82394000I75000J0D01*
G01*
X161329000Y-82394000D01*
G75*
G02*
X161404000Y-82469000I0J-75000D01*
G01*
X161404000Y-82619000D01*
G75*
G02*
X161329000Y-82694000I-75000J0D01*
G01*
X160004000Y-82694000D01*
G75*
G02*
X159929000Y-82619000I0J75000D01*
G01*
G37*
G36*
G01*
X159929000Y-83119000D02*
X159929000Y-82969000D01*
G75*
G02*
X160004000Y-82894000I75000J0D01*
G01*
X161329000Y-82894000D01*
G75*
G02*
X161404000Y-82969000I0J-75000D01*
G01*
X161404000Y-83119000D01*
G75*
G02*
X161329000Y-83194000I-75000J0D01*
G01*
X160004000Y-83194000D01*
G75*
G02*
X159929000Y-83119000I0J75000D01*
G01*
G37*
G36*
G01*
X159929000Y-83619000D02*
X159929000Y-83469000D01*
G75*
G02*
X160004000Y-83394000I75000J0D01*
G01*
X161329000Y-83394000D01*
G75*
G02*
X161404000Y-83469000I0J-75000D01*
G01*
X161404000Y-83619000D01*
G75*
G02*
X161329000Y-83694000I-75000J0D01*
G01*
X160004000Y-83694000D01*
G75*
G02*
X159929000Y-83619000I0J75000D01*
G01*
G37*
G36*
G01*
X159929000Y-84119000D02*
X159929000Y-83969000D01*
G75*
G02*
X160004000Y-83894000I75000J0D01*
G01*
X161329000Y-83894000D01*
G75*
G02*
X161404000Y-83969000I0J-75000D01*
G01*
X161404000Y-84119000D01*
G75*
G02*
X161329000Y-84194000I-75000J0D01*
G01*
X160004000Y-84194000D01*
G75*
G02*
X159929000Y-84119000I0J75000D01*
G01*
G37*
G36*
G01*
X159929000Y-84619000D02*
X159929000Y-84469000D01*
G75*
G02*
X160004000Y-84394000I75000J0D01*
G01*
X161329000Y-84394000D01*
G75*
G02*
X161404000Y-84469000I0J-75000D01*
G01*
X161404000Y-84619000D01*
G75*
G02*
X161329000Y-84694000I-75000J0D01*
G01*
X160004000Y-84694000D01*
G75*
G02*
X159929000Y-84619000I0J75000D01*
G01*
G37*
G36*
G01*
X159929000Y-85119000D02*
X159929000Y-84969000D01*
G75*
G02*
X160004000Y-84894000I75000J0D01*
G01*
X161329000Y-84894000D01*
G75*
G02*
X161404000Y-84969000I0J-75000D01*
G01*
X161404000Y-85119000D01*
G75*
G02*
X161329000Y-85194000I-75000J0D01*
G01*
X160004000Y-85194000D01*
G75*
G02*
X159929000Y-85119000I0J75000D01*
G01*
G37*
G36*
G01*
X159929000Y-85619000D02*
X159929000Y-85469000D01*
G75*
G02*
X160004000Y-85394000I75000J0D01*
G01*
X161329000Y-85394000D01*
G75*
G02*
X161404000Y-85469000I0J-75000D01*
G01*
X161404000Y-85619000D01*
G75*
G02*
X161329000Y-85694000I-75000J0D01*
G01*
X160004000Y-85694000D01*
G75*
G02*
X159929000Y-85619000I0J75000D01*
G01*
G37*
G36*
G01*
X159929000Y-86119000D02*
X159929000Y-85969000D01*
G75*
G02*
X160004000Y-85894000I75000J0D01*
G01*
X161329000Y-85894000D01*
G75*
G02*
X161404000Y-85969000I0J-75000D01*
G01*
X161404000Y-86119000D01*
G75*
G02*
X161329000Y-86194000I-75000J0D01*
G01*
X160004000Y-86194000D01*
G75*
G02*
X159929000Y-86119000I0J75000D01*
G01*
G37*
G36*
G01*
X159929000Y-86619000D02*
X159929000Y-86469000D01*
G75*
G02*
X160004000Y-86394000I75000J0D01*
G01*
X161329000Y-86394000D01*
G75*
G02*
X161404000Y-86469000I0J-75000D01*
G01*
X161404000Y-86619000D01*
G75*
G02*
X161329000Y-86694000I-75000J0D01*
G01*
X160004000Y-86694000D01*
G75*
G02*
X159929000Y-86619000I0J75000D01*
G01*
G37*
G36*
G01*
X159929000Y-87119000D02*
X159929000Y-86969000D01*
G75*
G02*
X160004000Y-86894000I75000J0D01*
G01*
X161329000Y-86894000D01*
G75*
G02*
X161404000Y-86969000I0J-75000D01*
G01*
X161404000Y-87119000D01*
G75*
G02*
X161329000Y-87194000I-75000J0D01*
G01*
X160004000Y-87194000D01*
G75*
G02*
X159929000Y-87119000I0J75000D01*
G01*
G37*
G36*
G01*
X159929000Y-87619000D02*
X159929000Y-87469000D01*
G75*
G02*
X160004000Y-87394000I75000J0D01*
G01*
X161329000Y-87394000D01*
G75*
G02*
X161404000Y-87469000I0J-75000D01*
G01*
X161404000Y-87619000D01*
G75*
G02*
X161329000Y-87694000I-75000J0D01*
G01*
X160004000Y-87694000D01*
G75*
G02*
X159929000Y-87619000I0J75000D01*
G01*
G37*
G36*
G01*
X159929000Y-88119000D02*
X159929000Y-87969000D01*
G75*
G02*
X160004000Y-87894000I75000J0D01*
G01*
X161329000Y-87894000D01*
G75*
G02*
X161404000Y-87969000I0J-75000D01*
G01*
X161404000Y-88119000D01*
G75*
G02*
X161329000Y-88194000I-75000J0D01*
G01*
X160004000Y-88194000D01*
G75*
G02*
X159929000Y-88119000I0J75000D01*
G01*
G37*
G36*
G01*
X159929000Y-88619000D02*
X159929000Y-88469000D01*
G75*
G02*
X160004000Y-88394000I75000J0D01*
G01*
X161329000Y-88394000D01*
G75*
G02*
X161404000Y-88469000I0J-75000D01*
G01*
X161404000Y-88619000D01*
G75*
G02*
X161329000Y-88694000I-75000J0D01*
G01*
X160004000Y-88694000D01*
G75*
G02*
X159929000Y-88619000I0J75000D01*
G01*
G37*
G36*
G01*
X159929000Y-89119000D02*
X159929000Y-88969000D01*
G75*
G02*
X160004000Y-88894000I75000J0D01*
G01*
X161329000Y-88894000D01*
G75*
G02*
X161404000Y-88969000I0J-75000D01*
G01*
X161404000Y-89119000D01*
G75*
G02*
X161329000Y-89194000I-75000J0D01*
G01*
X160004000Y-89194000D01*
G75*
G02*
X159929000Y-89119000I0J75000D01*
G01*
G37*
G36*
G01*
X159929000Y-89619000D02*
X159929000Y-89469000D01*
G75*
G02*
X160004000Y-89394000I75000J0D01*
G01*
X161329000Y-89394000D01*
G75*
G02*
X161404000Y-89469000I0J-75000D01*
G01*
X161404000Y-89619000D01*
G75*
G02*
X161329000Y-89694000I-75000J0D01*
G01*
X160004000Y-89694000D01*
G75*
G02*
X159929000Y-89619000I0J75000D01*
G01*
G37*
G36*
G01*
X159929000Y-90119000D02*
X159929000Y-89969000D01*
G75*
G02*
X160004000Y-89894000I75000J0D01*
G01*
X161329000Y-89894000D01*
G75*
G02*
X161404000Y-89969000I0J-75000D01*
G01*
X161404000Y-90119000D01*
G75*
G02*
X161329000Y-90194000I-75000J0D01*
G01*
X160004000Y-90194000D01*
G75*
G02*
X159929000Y-90119000I0J75000D01*
G01*
G37*
G36*
G01*
X158604000Y-92619000D02*
X158604000Y-91294000D01*
G75*
G02*
X158679000Y-91219000I75000J0D01*
G01*
X158829000Y-91219000D01*
G75*
G02*
X158904000Y-91294000I0J-75000D01*
G01*
X158904000Y-92619000D01*
G75*
G02*
X158829000Y-92694000I-75000J0D01*
G01*
X158679000Y-92694000D01*
G75*
G02*
X158604000Y-92619000I0J75000D01*
G01*
G37*
G36*
G01*
X158104000Y-92619000D02*
X158104000Y-91294000D01*
G75*
G02*
X158179000Y-91219000I75000J0D01*
G01*
X158329000Y-91219000D01*
G75*
G02*
X158404000Y-91294000I0J-75000D01*
G01*
X158404000Y-92619000D01*
G75*
G02*
X158329000Y-92694000I-75000J0D01*
G01*
X158179000Y-92694000D01*
G75*
G02*
X158104000Y-92619000I0J75000D01*
G01*
G37*
G36*
G01*
X157604000Y-92619000D02*
X157604000Y-91294000D01*
G75*
G02*
X157679000Y-91219000I75000J0D01*
G01*
X157829000Y-91219000D01*
G75*
G02*
X157904000Y-91294000I0J-75000D01*
G01*
X157904000Y-92619000D01*
G75*
G02*
X157829000Y-92694000I-75000J0D01*
G01*
X157679000Y-92694000D01*
G75*
G02*
X157604000Y-92619000I0J75000D01*
G01*
G37*
G36*
G01*
X157104000Y-92619000D02*
X157104000Y-91294000D01*
G75*
G02*
X157179000Y-91219000I75000J0D01*
G01*
X157329000Y-91219000D01*
G75*
G02*
X157404000Y-91294000I0J-75000D01*
G01*
X157404000Y-92619000D01*
G75*
G02*
X157329000Y-92694000I-75000J0D01*
G01*
X157179000Y-92694000D01*
G75*
G02*
X157104000Y-92619000I0J75000D01*
G01*
G37*
G36*
G01*
X156604000Y-92619000D02*
X156604000Y-91294000D01*
G75*
G02*
X156679000Y-91219000I75000J0D01*
G01*
X156829000Y-91219000D01*
G75*
G02*
X156904000Y-91294000I0J-75000D01*
G01*
X156904000Y-92619000D01*
G75*
G02*
X156829000Y-92694000I-75000J0D01*
G01*
X156679000Y-92694000D01*
G75*
G02*
X156604000Y-92619000I0J75000D01*
G01*
G37*
G36*
G01*
X156104000Y-92619000D02*
X156104000Y-91294000D01*
G75*
G02*
X156179000Y-91219000I75000J0D01*
G01*
X156329000Y-91219000D01*
G75*
G02*
X156404000Y-91294000I0J-75000D01*
G01*
X156404000Y-92619000D01*
G75*
G02*
X156329000Y-92694000I-75000J0D01*
G01*
X156179000Y-92694000D01*
G75*
G02*
X156104000Y-92619000I0J75000D01*
G01*
G37*
G36*
G01*
X155604000Y-92619000D02*
X155604000Y-91294000D01*
G75*
G02*
X155679000Y-91219000I75000J0D01*
G01*
X155829000Y-91219000D01*
G75*
G02*
X155904000Y-91294000I0J-75000D01*
G01*
X155904000Y-92619000D01*
G75*
G02*
X155829000Y-92694000I-75000J0D01*
G01*
X155679000Y-92694000D01*
G75*
G02*
X155604000Y-92619000I0J75000D01*
G01*
G37*
G36*
G01*
X155104000Y-92619000D02*
X155104000Y-91294000D01*
G75*
G02*
X155179000Y-91219000I75000J0D01*
G01*
X155329000Y-91219000D01*
G75*
G02*
X155404000Y-91294000I0J-75000D01*
G01*
X155404000Y-92619000D01*
G75*
G02*
X155329000Y-92694000I-75000J0D01*
G01*
X155179000Y-92694000D01*
G75*
G02*
X155104000Y-92619000I0J75000D01*
G01*
G37*
G36*
G01*
X154604000Y-92619000D02*
X154604000Y-91294000D01*
G75*
G02*
X154679000Y-91219000I75000J0D01*
G01*
X154829000Y-91219000D01*
G75*
G02*
X154904000Y-91294000I0J-75000D01*
G01*
X154904000Y-92619000D01*
G75*
G02*
X154829000Y-92694000I-75000J0D01*
G01*
X154679000Y-92694000D01*
G75*
G02*
X154604000Y-92619000I0J75000D01*
G01*
G37*
G36*
G01*
X154104000Y-92619000D02*
X154104000Y-91294000D01*
G75*
G02*
X154179000Y-91219000I75000J0D01*
G01*
X154329000Y-91219000D01*
G75*
G02*
X154404000Y-91294000I0J-75000D01*
G01*
X154404000Y-92619000D01*
G75*
G02*
X154329000Y-92694000I-75000J0D01*
G01*
X154179000Y-92694000D01*
G75*
G02*
X154104000Y-92619000I0J75000D01*
G01*
G37*
G36*
G01*
X153604000Y-92619000D02*
X153604000Y-91294000D01*
G75*
G02*
X153679000Y-91219000I75000J0D01*
G01*
X153829000Y-91219000D01*
G75*
G02*
X153904000Y-91294000I0J-75000D01*
G01*
X153904000Y-92619000D01*
G75*
G02*
X153829000Y-92694000I-75000J0D01*
G01*
X153679000Y-92694000D01*
G75*
G02*
X153604000Y-92619000I0J75000D01*
G01*
G37*
G36*
G01*
X153104000Y-92619000D02*
X153104000Y-91294000D01*
G75*
G02*
X153179000Y-91219000I75000J0D01*
G01*
X153329000Y-91219000D01*
G75*
G02*
X153404000Y-91294000I0J-75000D01*
G01*
X153404000Y-92619000D01*
G75*
G02*
X153329000Y-92694000I-75000J0D01*
G01*
X153179000Y-92694000D01*
G75*
G02*
X153104000Y-92619000I0J75000D01*
G01*
G37*
G36*
G01*
X152604000Y-92619000D02*
X152604000Y-91294000D01*
G75*
G02*
X152679000Y-91219000I75000J0D01*
G01*
X152829000Y-91219000D01*
G75*
G02*
X152904000Y-91294000I0J-75000D01*
G01*
X152904000Y-92619000D01*
G75*
G02*
X152829000Y-92694000I-75000J0D01*
G01*
X152679000Y-92694000D01*
G75*
G02*
X152604000Y-92619000I0J75000D01*
G01*
G37*
G36*
G01*
X152104000Y-92619000D02*
X152104000Y-91294000D01*
G75*
G02*
X152179000Y-91219000I75000J0D01*
G01*
X152329000Y-91219000D01*
G75*
G02*
X152404000Y-91294000I0J-75000D01*
G01*
X152404000Y-92619000D01*
G75*
G02*
X152329000Y-92694000I-75000J0D01*
G01*
X152179000Y-92694000D01*
G75*
G02*
X152104000Y-92619000I0J75000D01*
G01*
G37*
G36*
G01*
X151604000Y-92619000D02*
X151604000Y-91294000D01*
G75*
G02*
X151679000Y-91219000I75000J0D01*
G01*
X151829000Y-91219000D01*
G75*
G02*
X151904000Y-91294000I0J-75000D01*
G01*
X151904000Y-92619000D01*
G75*
G02*
X151829000Y-92694000I-75000J0D01*
G01*
X151679000Y-92694000D01*
G75*
G02*
X151604000Y-92619000I0J75000D01*
G01*
G37*
G36*
G01*
X151104000Y-92619000D02*
X151104000Y-91294000D01*
G75*
G02*
X151179000Y-91219000I75000J0D01*
G01*
X151329000Y-91219000D01*
G75*
G02*
X151404000Y-91294000I0J-75000D01*
G01*
X151404000Y-92619000D01*
G75*
G02*
X151329000Y-92694000I-75000J0D01*
G01*
X151179000Y-92694000D01*
G75*
G02*
X151104000Y-92619000I0J75000D01*
G01*
G37*
G36*
G01*
X148604000Y-90119000D02*
X148604000Y-89969000D01*
G75*
G02*
X148679000Y-89894000I75000J0D01*
G01*
X150004000Y-89894000D01*
G75*
G02*
X150079000Y-89969000I0J-75000D01*
G01*
X150079000Y-90119000D01*
G75*
G02*
X150004000Y-90194000I-75000J0D01*
G01*
X148679000Y-90194000D01*
G75*
G02*
X148604000Y-90119000I0J75000D01*
G01*
G37*
G36*
G01*
X148604000Y-89619000D02*
X148604000Y-89469000D01*
G75*
G02*
X148679000Y-89394000I75000J0D01*
G01*
X150004000Y-89394000D01*
G75*
G02*
X150079000Y-89469000I0J-75000D01*
G01*
X150079000Y-89619000D01*
G75*
G02*
X150004000Y-89694000I-75000J0D01*
G01*
X148679000Y-89694000D01*
G75*
G02*
X148604000Y-89619000I0J75000D01*
G01*
G37*
G36*
G01*
X148604000Y-89119000D02*
X148604000Y-88969000D01*
G75*
G02*
X148679000Y-88894000I75000J0D01*
G01*
X150004000Y-88894000D01*
G75*
G02*
X150079000Y-88969000I0J-75000D01*
G01*
X150079000Y-89119000D01*
G75*
G02*
X150004000Y-89194000I-75000J0D01*
G01*
X148679000Y-89194000D01*
G75*
G02*
X148604000Y-89119000I0J75000D01*
G01*
G37*
G36*
G01*
X148604000Y-88619000D02*
X148604000Y-88469000D01*
G75*
G02*
X148679000Y-88394000I75000J0D01*
G01*
X150004000Y-88394000D01*
G75*
G02*
X150079000Y-88469000I0J-75000D01*
G01*
X150079000Y-88619000D01*
G75*
G02*
X150004000Y-88694000I-75000J0D01*
G01*
X148679000Y-88694000D01*
G75*
G02*
X148604000Y-88619000I0J75000D01*
G01*
G37*
G36*
G01*
X148604000Y-88119000D02*
X148604000Y-87969000D01*
G75*
G02*
X148679000Y-87894000I75000J0D01*
G01*
X150004000Y-87894000D01*
G75*
G02*
X150079000Y-87969000I0J-75000D01*
G01*
X150079000Y-88119000D01*
G75*
G02*
X150004000Y-88194000I-75000J0D01*
G01*
X148679000Y-88194000D01*
G75*
G02*
X148604000Y-88119000I0J75000D01*
G01*
G37*
G36*
G01*
X148604000Y-87619000D02*
X148604000Y-87469000D01*
G75*
G02*
X148679000Y-87394000I75000J0D01*
G01*
X150004000Y-87394000D01*
G75*
G02*
X150079000Y-87469000I0J-75000D01*
G01*
X150079000Y-87619000D01*
G75*
G02*
X150004000Y-87694000I-75000J0D01*
G01*
X148679000Y-87694000D01*
G75*
G02*
X148604000Y-87619000I0J75000D01*
G01*
G37*
G36*
G01*
X148604000Y-87119000D02*
X148604000Y-86969000D01*
G75*
G02*
X148679000Y-86894000I75000J0D01*
G01*
X150004000Y-86894000D01*
G75*
G02*
X150079000Y-86969000I0J-75000D01*
G01*
X150079000Y-87119000D01*
G75*
G02*
X150004000Y-87194000I-75000J0D01*
G01*
X148679000Y-87194000D01*
G75*
G02*
X148604000Y-87119000I0J75000D01*
G01*
G37*
G36*
G01*
X148604000Y-86619000D02*
X148604000Y-86469000D01*
G75*
G02*
X148679000Y-86394000I75000J0D01*
G01*
X150004000Y-86394000D01*
G75*
G02*
X150079000Y-86469000I0J-75000D01*
G01*
X150079000Y-86619000D01*
G75*
G02*
X150004000Y-86694000I-75000J0D01*
G01*
X148679000Y-86694000D01*
G75*
G02*
X148604000Y-86619000I0J75000D01*
G01*
G37*
G36*
G01*
X148604000Y-86119000D02*
X148604000Y-85969000D01*
G75*
G02*
X148679000Y-85894000I75000J0D01*
G01*
X150004000Y-85894000D01*
G75*
G02*
X150079000Y-85969000I0J-75000D01*
G01*
X150079000Y-86119000D01*
G75*
G02*
X150004000Y-86194000I-75000J0D01*
G01*
X148679000Y-86194000D01*
G75*
G02*
X148604000Y-86119000I0J75000D01*
G01*
G37*
G36*
G01*
X148604000Y-85619000D02*
X148604000Y-85469000D01*
G75*
G02*
X148679000Y-85394000I75000J0D01*
G01*
X150004000Y-85394000D01*
G75*
G02*
X150079000Y-85469000I0J-75000D01*
G01*
X150079000Y-85619000D01*
G75*
G02*
X150004000Y-85694000I-75000J0D01*
G01*
X148679000Y-85694000D01*
G75*
G02*
X148604000Y-85619000I0J75000D01*
G01*
G37*
G36*
G01*
X148604000Y-85119000D02*
X148604000Y-84969000D01*
G75*
G02*
X148679000Y-84894000I75000J0D01*
G01*
X150004000Y-84894000D01*
G75*
G02*
X150079000Y-84969000I0J-75000D01*
G01*
X150079000Y-85119000D01*
G75*
G02*
X150004000Y-85194000I-75000J0D01*
G01*
X148679000Y-85194000D01*
G75*
G02*
X148604000Y-85119000I0J75000D01*
G01*
G37*
G36*
G01*
X148604000Y-84619000D02*
X148604000Y-84469000D01*
G75*
G02*
X148679000Y-84394000I75000J0D01*
G01*
X150004000Y-84394000D01*
G75*
G02*
X150079000Y-84469000I0J-75000D01*
G01*
X150079000Y-84619000D01*
G75*
G02*
X150004000Y-84694000I-75000J0D01*
G01*
X148679000Y-84694000D01*
G75*
G02*
X148604000Y-84619000I0J75000D01*
G01*
G37*
G36*
G01*
X148604000Y-84119000D02*
X148604000Y-83969000D01*
G75*
G02*
X148679000Y-83894000I75000J0D01*
G01*
X150004000Y-83894000D01*
G75*
G02*
X150079000Y-83969000I0J-75000D01*
G01*
X150079000Y-84119000D01*
G75*
G02*
X150004000Y-84194000I-75000J0D01*
G01*
X148679000Y-84194000D01*
G75*
G02*
X148604000Y-84119000I0J75000D01*
G01*
G37*
G36*
G01*
X148604000Y-83619000D02*
X148604000Y-83469000D01*
G75*
G02*
X148679000Y-83394000I75000J0D01*
G01*
X150004000Y-83394000D01*
G75*
G02*
X150079000Y-83469000I0J-75000D01*
G01*
X150079000Y-83619000D01*
G75*
G02*
X150004000Y-83694000I-75000J0D01*
G01*
X148679000Y-83694000D01*
G75*
G02*
X148604000Y-83619000I0J75000D01*
G01*
G37*
G36*
G01*
X148604000Y-83119000D02*
X148604000Y-82969000D01*
G75*
G02*
X148679000Y-82894000I75000J0D01*
G01*
X150004000Y-82894000D01*
G75*
G02*
X150079000Y-82969000I0J-75000D01*
G01*
X150079000Y-83119000D01*
G75*
G02*
X150004000Y-83194000I-75000J0D01*
G01*
X148679000Y-83194000D01*
G75*
G02*
X148604000Y-83119000I0J75000D01*
G01*
G37*
G36*
G01*
X148604000Y-82619000D02*
X148604000Y-82469000D01*
G75*
G02*
X148679000Y-82394000I75000J0D01*
G01*
X150004000Y-82394000D01*
G75*
G02*
X150079000Y-82469000I0J-75000D01*
G01*
X150079000Y-82619000D01*
G75*
G02*
X150004000Y-82694000I-75000J0D01*
G01*
X148679000Y-82694000D01*
G75*
G02*
X148604000Y-82619000I0J75000D01*
G01*
G37*
D17*
X171228000Y-87774500D03*
X171228000Y-85874500D03*
X173428000Y-85874500D03*
X173428000Y-86824500D03*
X173428000Y-87774500D03*
D18*
X180084000Y-97455000D03*
X180084000Y-98755000D03*
X178184000Y-98105000D03*
X180084000Y-98105000D03*
X178184000Y-98755000D03*
X178184000Y-97455000D03*
X180084000Y-92375000D03*
X180084000Y-93675000D03*
X178184000Y-93025000D03*
X180084000Y-93025000D03*
X178184000Y-93675000D03*
X178184000Y-92375000D03*
X180084000Y-87295000D03*
X180084000Y-88595000D03*
X178184000Y-87945000D03*
X180084000Y-87945000D03*
X178184000Y-88595000D03*
X178184000Y-87295000D03*
X180084000Y-82215000D03*
X180084000Y-83515000D03*
X178184000Y-82865000D03*
X180084000Y-82865000D03*
X178184000Y-83515000D03*
X178184000Y-82215000D03*
X110360000Y-97518500D03*
X110360000Y-98818500D03*
X108460000Y-98168500D03*
X110360000Y-98168500D03*
X108460000Y-98818500D03*
X108460000Y-97518500D03*
X110360000Y-92438500D03*
X110360000Y-93738500D03*
X108460000Y-93088500D03*
X110360000Y-93088500D03*
X108460000Y-93738500D03*
X108460000Y-92438500D03*
X110360000Y-87358500D03*
X110360000Y-88658500D03*
X108460000Y-88008500D03*
X110360000Y-88008500D03*
X108460000Y-88658500D03*
X108460000Y-87358500D03*
X110360000Y-82278500D03*
X110360000Y-83578500D03*
X108460000Y-82928500D03*
X110360000Y-82928500D03*
X108460000Y-83578500D03*
X108460000Y-82278500D03*
D19*
X147305000Y-67246500D03*
X148605000Y-67246500D03*
X147955000Y-69146500D03*
X147955000Y-67246500D03*
X148605000Y-69146500D03*
X147305000Y-69146500D03*
D20*
X155547000Y-139255000D03*
X156497000Y-139255000D03*
X154597000Y-139255000D03*
X154597000Y-137055000D03*
X155547000Y-137055000D03*
X156497000Y-137055000D03*
D21*
X135356000Y-113970000D03*
X135356000Y-113470000D03*
X135356000Y-112970000D03*
X135356000Y-112470000D03*
X138456000Y-112470000D03*
X138456000Y-112970000D03*
X138456000Y-113470000D03*
X138456000Y-113970000D03*
D22*
X107406000Y-115023000D03*
X106756000Y-115023000D03*
X106096000Y-115023000D03*
X105446000Y-115023000D03*
X105446000Y-112823000D03*
X106096000Y-112823000D03*
X106756000Y-112823000D03*
X107406000Y-112823000D03*
D23*
X119570000Y-115570000D03*
D24*
X118820000Y-114095000D03*
X119320000Y-114095000D03*
X119820000Y-114095000D03*
X120320000Y-114095000D03*
D25*
X121045000Y-114820000D03*
X121045000Y-115320000D03*
X121045000Y-115820000D03*
X121045000Y-116320000D03*
D24*
X120320000Y-117045000D03*
X119820000Y-117045000D03*
X119320000Y-117045000D03*
X118820000Y-117045000D03*
D25*
X118095000Y-116320000D03*
X118095000Y-115820000D03*
X118095000Y-115320000D03*
X118095000Y-114820000D03*
D18*
X115756000Y-118857000D03*
X115756000Y-120157000D03*
X113856000Y-119507000D03*
X115756000Y-119507000D03*
X113856000Y-120157000D03*
X113856000Y-118857000D03*
D26*
X108394000Y-107188000D03*
D27*
X192405000Y-130366000D03*
D12*
X157881000Y-93639500D03*
X156981000Y-93639500D03*
X156966000Y-94612500D03*
X157866000Y-94612500D03*
X182568000Y-97470000D03*
X181668000Y-97470000D03*
X182568000Y-92390000D03*
X181668000Y-92390000D03*
X182632000Y-87310000D03*
X181732000Y-87310000D03*
X182632000Y-82230000D03*
X181732000Y-82230000D03*
X112908000Y-97533500D03*
X112008000Y-97533500D03*
X112908000Y-92453500D03*
X112008000Y-92453500D03*
X112908000Y-87373500D03*
X112008000Y-87373500D03*
X112908000Y-82293500D03*
X112008000Y-82293500D03*
X173667000Y-129032000D03*
X174567000Y-129032000D03*
D16*
X148654000Y-65206500D03*
X148654000Y-66106500D03*
D12*
X180917000Y-65275500D03*
X180017000Y-65275500D03*
X180017000Y-64323000D03*
X180917000Y-64323000D03*
X148405000Y-70419000D03*
X147505000Y-70419000D03*
X166301000Y-133858000D03*
X167201000Y-133858000D03*
X155517000Y-135700000D03*
X154617000Y-135700000D03*
X149675000Y-120206000D03*
X148775000Y-120206000D03*
D16*
X137478000Y-127185000D03*
X137478000Y-128085000D03*
X136462000Y-127185000D03*
X136462000Y-128085000D03*
D12*
X135260000Y-117030000D03*
X134360000Y-117030000D03*
X160142000Y-92961500D03*
X161042000Y-92961500D03*
D16*
X119253000Y-119957000D03*
X119253000Y-119057000D03*
X118237000Y-119057000D03*
X118237000Y-119957000D03*
D12*
X109162000Y-109156000D03*
X108262000Y-109156000D03*
D16*
X112268000Y-109214000D03*
X112268000Y-110114000D03*
X111252000Y-109214000D03*
X111252000Y-110114000D03*
X110236000Y-109214000D03*
X110236000Y-110114000D03*
D28*
X114808000Y-108864000D03*
X114808000Y-110464000D03*
D12*
X109162000Y-110172000D03*
X108262000Y-110172000D03*
D16*
X120269000Y-119957000D03*
X120269000Y-119057000D03*
X117221000Y-119057000D03*
X117221000Y-119957000D03*
X156654000Y-132646000D03*
X156654000Y-133546000D03*
X156654000Y-135642000D03*
X156654000Y-134742000D03*
D29*
X114808000Y-112569000D03*
X114808000Y-115269000D03*
D30*
X157416000Y-123952000D03*
X154876000Y-123952000D03*
X152336000Y-123952000D03*
X149796000Y-123952000D03*
X147256000Y-123952000D03*
D27*
X144716000Y-123952000D03*
D31*
X134770000Y-136198000D03*
X139170000Y-136198000D03*
D32*
X190060000Y-136115000D03*
X190060000Y-63115000D03*
X100060000Y-136115000D03*
X100060000Y-63102500D03*
D33*
X181568000Y-98676500D03*
X182668000Y-98676500D03*
X181568000Y-93596500D03*
X182668000Y-93596500D03*
X181632000Y-88516500D03*
X182732000Y-88516500D03*
X181632000Y-83436500D03*
X182732000Y-83436500D03*
X111908000Y-98740000D03*
X113008000Y-98740000D03*
X111908000Y-93660000D03*
X113008000Y-93660000D03*
X111908000Y-88580000D03*
X113008000Y-88580000D03*
X111908000Y-83500000D03*
X113008000Y-83500000D03*
D34*
X174816000Y-86762500D03*
X174816000Y-87862500D03*
D15*
X178584000Y-99946500D03*
X179684000Y-99946500D03*
X178584000Y-94866500D03*
X179684000Y-94866500D03*
X178584000Y-89786500D03*
X179684000Y-89786500D03*
X178584000Y-84706500D03*
X179684000Y-84706500D03*
X108860000Y-100010000D03*
X109960000Y-100010000D03*
X108860000Y-94930000D03*
X109960000Y-94930000D03*
X108860000Y-89850000D03*
X109960000Y-89850000D03*
X180044000Y-126492000D03*
X181144000Y-126492000D03*
D34*
X178244000Y-127042000D03*
X178244000Y-125942000D03*
X175895000Y-127042000D03*
X175895000Y-125942000D03*
D15*
X183494000Y-64323000D03*
X182394000Y-64323000D03*
X183494000Y-65212000D03*
X182394000Y-65212000D03*
D34*
X149796000Y-68746500D03*
X149796000Y-67646500D03*
X159576000Y-132546000D03*
X159576000Y-133646000D03*
X159576000Y-135742000D03*
X159576000Y-134642000D03*
X158686000Y-132546000D03*
X158686000Y-133646000D03*
X158686000Y-135742000D03*
X158686000Y-134642000D03*
D15*
X146198000Y-84198500D03*
X147298000Y-84198500D03*
D34*
X157798000Y-132546000D03*
X157798000Y-133646000D03*
X168084000Y-132820000D03*
X168084000Y-131720000D03*
D15*
X148675000Y-121476000D03*
X149775000Y-121476000D03*
D34*
X138430000Y-127085000D03*
X138430000Y-128185000D03*
D15*
X163872000Y-97660500D03*
X162772000Y-97660500D03*
X163872000Y-96771500D03*
X162772000Y-96771500D03*
X134260000Y-64005500D03*
X135360000Y-64005500D03*
D34*
X104140000Y-114469000D03*
X104140000Y-113369000D03*
D15*
X106574000Y-111506000D03*
X107674000Y-111506000D03*
D35*
X121070000Y-108585000D03*
X118070000Y-108585000D03*
X121070000Y-110871000D03*
X118070000Y-110871000D03*
D34*
X122682000Y-117644000D03*
X122682000Y-116544000D03*
X121285000Y-120057000D03*
X121285000Y-118957000D03*
D36*
X123317000Y-111974000D03*
X123317000Y-114974000D03*
D15*
X114258000Y-121412000D03*
X115358000Y-121412000D03*
D26*
X157290000Y-129604000D03*
D37*
X118466000Y-125730000D03*
X116866000Y-125730000D03*
D16*
X110172000Y-129788000D03*
X110172000Y-130688000D03*
X107506000Y-130308000D03*
X107506000Y-129408000D03*
D27*
X138620000Y-61592500D03*
D30*
X136080000Y-61592500D03*
X133540000Y-61592500D03*
X131000000Y-61592500D03*
X128460000Y-61592500D03*
X125920000Y-61592500D03*
X123380000Y-61592500D03*
D38*
X120840000Y-61592500D03*
D39*
X147574000Y-129604000D03*
G36*
G01*
X148711500Y-128729000D02*
X149361500Y-128729000D01*
G75*
G02*
X149424000Y-128791500I0J-62500D01*
G01*
X149424000Y-128916500D01*
G75*
G02*
X149361500Y-128979000I-62500J0D01*
G01*
X148711500Y-128979000D01*
G75*
G02*
X148649000Y-128916500I0J62500D01*
G01*
X148649000Y-128791500D01*
G75*
G02*
X148711500Y-128729000I62500J0D01*
G01*
G37*
G36*
G01*
X148711500Y-129229000D02*
X149361500Y-129229000D01*
G75*
G02*
X149424000Y-129291500I0J-62500D01*
G01*
X149424000Y-129416500D01*
G75*
G02*
X149361500Y-129479000I-62500J0D01*
G01*
X148711500Y-129479000D01*
G75*
G02*
X148649000Y-129416500I0J62500D01*
G01*
X148649000Y-129291500D01*
G75*
G02*
X148711500Y-129229000I62500J0D01*
G01*
G37*
G36*
G01*
X148711500Y-129729000D02*
X149361500Y-129729000D01*
G75*
G02*
X149424000Y-129791500I0J-62500D01*
G01*
X149424000Y-129916500D01*
G75*
G02*
X149361500Y-129979000I-62500J0D01*
G01*
X148711500Y-129979000D01*
G75*
G02*
X148649000Y-129916500I0J62500D01*
G01*
X148649000Y-129791500D01*
G75*
G02*
X148711500Y-129729000I62500J0D01*
G01*
G37*
G36*
G01*
X148711500Y-130229000D02*
X149361500Y-130229000D01*
G75*
G02*
X149424000Y-130291500I0J-62500D01*
G01*
X149424000Y-130416500D01*
G75*
G02*
X149361500Y-130479000I-62500J0D01*
G01*
X148711500Y-130479000D01*
G75*
G02*
X148649000Y-130416500I0J62500D01*
G01*
X148649000Y-130291500D01*
G75*
G02*
X148711500Y-130229000I62500J0D01*
G01*
G37*
G36*
G01*
X148261500Y-130679000D02*
X148386500Y-130679000D01*
G75*
G02*
X148449000Y-130741500I0J-62500D01*
G01*
X148449000Y-131391500D01*
G75*
G02*
X148386500Y-131454000I-62500J0D01*
G01*
X148261500Y-131454000D01*
G75*
G02*
X148199000Y-131391500I0J62500D01*
G01*
X148199000Y-130741500D01*
G75*
G02*
X148261500Y-130679000I62500J0D01*
G01*
G37*
G36*
G01*
X147761500Y-130679000D02*
X147886500Y-130679000D01*
G75*
G02*
X147949000Y-130741500I0J-62500D01*
G01*
X147949000Y-131391500D01*
G75*
G02*
X147886500Y-131454000I-62500J0D01*
G01*
X147761500Y-131454000D01*
G75*
G02*
X147699000Y-131391500I0J62500D01*
G01*
X147699000Y-130741500D01*
G75*
G02*
X147761500Y-130679000I62500J0D01*
G01*
G37*
G36*
G01*
X147261500Y-130679000D02*
X147386500Y-130679000D01*
G75*
G02*
X147449000Y-130741500I0J-62500D01*
G01*
X147449000Y-131391500D01*
G75*
G02*
X147386500Y-131454000I-62500J0D01*
G01*
X147261500Y-131454000D01*
G75*
G02*
X147199000Y-131391500I0J62500D01*
G01*
X147199000Y-130741500D01*
G75*
G02*
X147261500Y-130679000I62500J0D01*
G01*
G37*
G36*
G01*
X146761500Y-130679000D02*
X146886500Y-130679000D01*
G75*
G02*
X146949000Y-130741500I0J-62500D01*
G01*
X146949000Y-131391500D01*
G75*
G02*
X146886500Y-131454000I-62500J0D01*
G01*
X146761500Y-131454000D01*
G75*
G02*
X146699000Y-131391500I0J62500D01*
G01*
X146699000Y-130741500D01*
G75*
G02*
X146761500Y-130679000I62500J0D01*
G01*
G37*
G36*
G01*
X145786500Y-130229000D02*
X146436500Y-130229000D01*
G75*
G02*
X146499000Y-130291500I0J-62500D01*
G01*
X146499000Y-130416500D01*
G75*
G02*
X146436500Y-130479000I-62500J0D01*
G01*
X145786500Y-130479000D01*
G75*
G02*
X145724000Y-130416500I0J62500D01*
G01*
X145724000Y-130291500D01*
G75*
G02*
X145786500Y-130229000I62500J0D01*
G01*
G37*
G36*
G01*
X145786500Y-129729000D02*
X146436500Y-129729000D01*
G75*
G02*
X146499000Y-129791500I0J-62500D01*
G01*
X146499000Y-129916500D01*
G75*
G02*
X146436500Y-129979000I-62500J0D01*
G01*
X145786500Y-129979000D01*
G75*
G02*
X145724000Y-129916500I0J62500D01*
G01*
X145724000Y-129791500D01*
G75*
G02*
X145786500Y-129729000I62500J0D01*
G01*
G37*
G36*
G01*
X145786500Y-129229000D02*
X146436500Y-129229000D01*
G75*
G02*
X146499000Y-129291500I0J-62500D01*
G01*
X146499000Y-129416500D01*
G75*
G02*
X146436500Y-129479000I-62500J0D01*
G01*
X145786500Y-129479000D01*
G75*
G02*
X145724000Y-129416500I0J62500D01*
G01*
X145724000Y-129291500D01*
G75*
G02*
X145786500Y-129229000I62500J0D01*
G01*
G37*
G36*
G01*
X145786500Y-128729000D02*
X146436500Y-128729000D01*
G75*
G02*
X146499000Y-128791500I0J-62500D01*
G01*
X146499000Y-128916500D01*
G75*
G02*
X146436500Y-128979000I-62500J0D01*
G01*
X145786500Y-128979000D01*
G75*
G02*
X145724000Y-128916500I0J62500D01*
G01*
X145724000Y-128791500D01*
G75*
G02*
X145786500Y-128729000I62500J0D01*
G01*
G37*
G36*
G01*
X146761500Y-127754000D02*
X146886500Y-127754000D01*
G75*
G02*
X146949000Y-127816500I0J-62500D01*
G01*
X146949000Y-128466500D01*
G75*
G02*
X146886500Y-128529000I-62500J0D01*
G01*
X146761500Y-128529000D01*
G75*
G02*
X146699000Y-128466500I0J62500D01*
G01*
X146699000Y-127816500D01*
G75*
G02*
X146761500Y-127754000I62500J0D01*
G01*
G37*
G36*
G01*
X147261500Y-127754000D02*
X147386500Y-127754000D01*
G75*
G02*
X147449000Y-127816500I0J-62500D01*
G01*
X147449000Y-128466500D01*
G75*
G02*
X147386500Y-128529000I-62500J0D01*
G01*
X147261500Y-128529000D01*
G75*
G02*
X147199000Y-128466500I0J62500D01*
G01*
X147199000Y-127816500D01*
G75*
G02*
X147261500Y-127754000I62500J0D01*
G01*
G37*
G36*
G01*
X147761500Y-127754000D02*
X147886500Y-127754000D01*
G75*
G02*
X147949000Y-127816500I0J-62500D01*
G01*
X147949000Y-128466500D01*
G75*
G02*
X147886500Y-128529000I-62500J0D01*
G01*
X147761500Y-128529000D01*
G75*
G02*
X147699000Y-128466500I0J62500D01*
G01*
X147699000Y-127816500D01*
G75*
G02*
X147761500Y-127754000I62500J0D01*
G01*
G37*
G36*
G01*
X148261500Y-127754000D02*
X148386500Y-127754000D01*
G75*
G02*
X148449000Y-127816500I0J-62500D01*
G01*
X148449000Y-128466500D01*
G75*
G02*
X148386500Y-128529000I-62500J0D01*
G01*
X148261500Y-128529000D01*
G75*
G02*
X148199000Y-128466500I0J62500D01*
G01*
X148199000Y-127816500D01*
G75*
G02*
X148261500Y-127754000I62500J0D01*
G01*
G37*
D40*
X112418500Y-125575500D03*
X110593500Y-125575500D03*
X112418500Y-126900500D03*
X110593500Y-126900500D03*
D41*
X113906000Y-125238000D03*
X113906000Y-125738000D03*
X113906000Y-126238000D03*
X113906000Y-126738000D03*
X113906000Y-127238000D03*
D42*
X113006000Y-128138000D03*
X112506000Y-128138000D03*
X112006000Y-128138000D03*
X111506000Y-128138000D03*
X111006000Y-128138000D03*
X110506000Y-128138000D03*
X110006000Y-128138000D03*
D41*
X109106000Y-127238000D03*
X109106000Y-126738000D03*
X109106000Y-126238000D03*
X109106000Y-125738000D03*
X109106000Y-125238000D03*
D42*
X110006000Y-124338000D03*
X110506000Y-124338000D03*
X111006000Y-124338000D03*
X111506000Y-124338000D03*
X112006000Y-124338000D03*
X112506000Y-124338000D03*
X113006000Y-124338000D03*
D16*
X155004000Y-127132000D03*
X155004000Y-126232000D03*
D12*
X154946000Y-134239000D03*
X154046000Y-134239000D03*
X154946000Y-133223000D03*
X154046000Y-133223000D03*
X154946000Y-132207000D03*
X154046000Y-132207000D03*
D37*
X155296000Y-129604000D03*
X153696000Y-129604000D03*
D16*
X153988000Y-127132000D03*
X153988000Y-126232000D03*
X152336000Y-128010000D03*
X152336000Y-128910000D03*
X151320000Y-128010000D03*
X151320000Y-128910000D03*
X148844000Y-133800000D03*
X148844000Y-132900000D03*
D12*
X144468000Y-127208000D03*
X143568000Y-127208000D03*
D16*
X115126000Y-130688000D03*
X115126000Y-129788000D03*
X114110000Y-130688000D03*
X114110000Y-129788000D03*
X116142000Y-129788000D03*
X116142000Y-130688000D03*
D12*
X116084000Y-131699000D03*
X115184000Y-131699000D03*
X115184000Y-132715000D03*
X116084000Y-132715000D03*
X116898000Y-132715000D03*
X117798000Y-132715000D03*
D16*
X111188000Y-130688000D03*
X111188000Y-129788000D03*
X118174000Y-123259000D03*
X118174000Y-122359000D03*
X112204000Y-130688000D03*
X112204000Y-129788000D03*
D12*
X118116000Y-130429000D03*
X117216000Y-130429000D03*
X118116000Y-129413000D03*
X117216000Y-129413000D03*
D16*
X117158000Y-123259000D03*
X117158000Y-122359000D03*
X107506000Y-128593000D03*
X107506000Y-127693000D03*
X107506000Y-126878000D03*
X107506000Y-125978000D03*
X106490000Y-130308000D03*
X106490000Y-129408000D03*
X106490000Y-126878000D03*
X106490000Y-125978000D03*
D43*
X143320000Y-84468500D03*
X143970000Y-86468500D03*
X142670000Y-86468500D03*
D15*
X153077000Y-94549000D03*
X151977000Y-94549000D03*
D34*
X163195000Y-86252000D03*
X163195000Y-87352000D03*
D15*
X153077000Y-93660000D03*
X151977000Y-93660000D03*
D34*
X162306000Y-86252000D03*
X162306000Y-87352000D03*
D15*
X155470000Y-77975500D03*
X156570000Y-77975500D03*
X155470000Y-78864500D03*
X156570000Y-78864500D03*
X154030000Y-77975500D03*
X152930000Y-77975500D03*
X154030000Y-78864500D03*
X152930000Y-78864500D03*
X154962000Y-94549000D03*
X156062000Y-94549000D03*
D34*
X146494000Y-85236000D03*
X146494000Y-86336000D03*
D15*
X154962000Y-93660000D03*
X156062000Y-93660000D03*
D34*
X147384000Y-85236000D03*
X147384000Y-86336000D03*
X150304000Y-127910000D03*
X150304000Y-129010000D03*
X147828000Y-133900000D03*
X147828000Y-132800000D03*
X150304000Y-131296000D03*
X150304000Y-130196000D03*
D44*
X121920000Y-131781000D03*
X121920000Y-125431000D03*
D34*
X107506000Y-123783000D03*
X107506000Y-124883000D03*
X113157000Y-130788000D03*
X113157000Y-129688000D03*
X157798000Y-134642000D03*
X157798000Y-135742000D03*
D16*
X165989000Y-84383500D03*
X165989000Y-85283500D03*
D34*
X141732000Y-120502000D03*
X141732000Y-119402000D03*
X141478000Y-86018500D03*
X141478000Y-84918500D03*
D15*
X134218000Y-124460000D03*
X133118000Y-124460000D03*
X141012000Y-123380000D03*
X139912000Y-123380000D03*
X139912000Y-124270000D03*
X141012000Y-124270000D03*
X141012000Y-125158000D03*
X139912000Y-125158000D03*
D34*
X135510000Y-128185000D03*
X135510000Y-127085000D03*
D15*
X133117000Y-122872000D03*
X134217000Y-122872000D03*
D34*
X136589000Y-119910000D03*
X136589000Y-121010000D03*
D15*
X133118000Y-125350000D03*
X134218000Y-125350000D03*
D34*
X125666000Y-86569500D03*
X125666000Y-87669500D03*
X127444000Y-87669500D03*
X127444000Y-86569500D03*
X126556000Y-86569500D03*
X126556000Y-87669500D03*
X128334000Y-87669500D03*
X128334000Y-86569500D03*
X167196000Y-132820000D03*
X167196000Y-131720000D03*
X165418000Y-131720000D03*
X165418000Y-132820000D03*
X166306000Y-132820000D03*
X166306000Y-131720000D03*
D15*
X122576000Y-85341500D03*
X123676000Y-85341500D03*
D45*
X102712000Y-130746000D03*
X98712000Y-130746000D03*
D33*
X136230000Y-117030000D03*
X137330000Y-117030000D03*
D46*
X122394000Y-87183000D03*
X124494000Y-87183000D03*
D47*
X103632000Y-126428000D03*
X97632000Y-126428000D03*
X100632000Y-121728000D03*
D16*
X151828000Y-95686500D03*
X151828000Y-96586500D03*
X153226000Y-96586500D03*
X153226000Y-95686500D03*
D12*
X162872000Y-98803500D03*
X163772000Y-98803500D03*
X142372000Y-87691000D03*
X141472000Y-87691000D03*
X144086000Y-87691000D03*
X143186000Y-87691000D03*
X144278000Y-83246000D03*
X143378000Y-83246000D03*
X141662000Y-83246000D03*
X142562000Y-83246000D03*
X142552000Y-82166500D03*
X143452000Y-82166500D03*
X166301000Y-134810000D03*
X167201000Y-134810000D03*
D16*
X157924000Y-137546000D03*
X157924000Y-136646000D03*
D12*
X147198000Y-83246000D03*
X146298000Y-83246000D03*
X159580000Y-131508000D03*
X158680000Y-131508000D03*
D16*
X165989000Y-82669000D03*
X165989000Y-83569000D03*
D48*
X132270000Y-87047500D03*
X132270000Y-82547500D03*
X138770000Y-87047500D03*
X138770000Y-82547500D03*
D26*
X107125000Y-122047000D03*
X126238000Y-124078000D03*
D41*
X138370000Y-125839000D03*
X138370000Y-125389000D03*
X138370000Y-124939000D03*
X138370000Y-124489000D03*
X138370000Y-124039000D03*
X138370000Y-123589000D03*
X135570000Y-123589000D03*
X135570000Y-124039000D03*
X135570000Y-124489000D03*
X135570000Y-124939000D03*
X135570000Y-125389000D03*
X135570000Y-125839000D03*
D49*
X136555000Y-124119000D03*
X136555000Y-125309000D03*
X137385000Y-124119000D03*
X137385000Y-125309000D03*
D22*
X133323000Y-121560000D03*
X133973000Y-121560000D03*
X134633000Y-121560000D03*
X135283000Y-121560000D03*
X135283000Y-119360000D03*
X134633000Y-119360000D03*
X133973000Y-119360000D03*
X133323000Y-119360000D03*
D50*
X133414000Y-128144000D03*
D51*
X132664000Y-126694000D03*
X133164000Y-126694000D03*
X133664000Y-126694000D03*
X134164000Y-126694000D03*
X134164000Y-129594000D03*
X133664000Y-129594000D03*
X133164000Y-129594000D03*
X132664000Y-129594000D03*
D52*
X123152000Y-89139000D03*
X123152000Y-90409000D03*
X123152000Y-91679000D03*
X123152000Y-92949000D03*
X128552000Y-92949000D03*
X128552000Y-91679000D03*
X128552000Y-90409000D03*
X128552000Y-89139000D03*
D53*
X124016000Y-83563500D03*
D54*
X122566000Y-84313500D03*
X122566000Y-83813500D03*
X122566000Y-83313500D03*
X122566000Y-82813500D03*
X125466000Y-82813500D03*
X125466000Y-83313500D03*
X125466000Y-83813500D03*
X125466000Y-84313500D03*
D55*
X162497000Y-95218000D03*
X162497000Y-93118000D03*
X164147000Y-93118000D03*
X164147000Y-95218000D03*
D26*
X167704000Y-81087000D03*
X141115000Y-115080000D03*
M02*
