G04 #@! TF.GenerationSoftware,KiCad,Pcbnew,(5.1.4)-1*
G04 #@! TF.CreationDate,2020-06-05T19:42:11-05:00*
G04 #@! TF.ProjectId,Pulse_Oximeter,50756c73-655f-44f7-9869-6d657465722e,rev?*
G04 #@! TF.SameCoordinates,Original*
G04 #@! TF.FileFunction,Soldermask,Top*
G04 #@! TF.FilePolarity,Negative*
%FSLAX46Y46*%
G04 Gerber Fmt 4.6, Leading zero omitted, Abs format (unit mm)*
G04 Created by KiCad (PCBNEW (5.1.4)-1) date 2020-06-05 19:42:11*
%MOMM*%
%LPD*%
G04 APERTURE LIST*
%ADD10C,0.100000*%
G04 APERTURE END LIST*
D10*
G36*
X160718500Y-66865500D02*
G01*
X155257500Y-66865500D01*
X155257500Y-64516000D01*
X160718500Y-64516000D01*
X160718500Y-66865500D01*
G37*
X160718500Y-66865500D02*
X155257500Y-66865500D01*
X155257500Y-64516000D01*
X160718500Y-64516000D01*
X160718500Y-66865500D01*
G36*
X146668443Y-112071519D02*
G01*
X146734627Y-112078037D01*
X146904466Y-112129557D01*
X147060991Y-112213222D01*
X147096729Y-112242552D01*
X147198186Y-112325814D01*
X147281448Y-112427271D01*
X147310778Y-112463009D01*
X147394443Y-112619534D01*
X147445963Y-112789373D01*
X147463359Y-112966000D01*
X147445963Y-113142627D01*
X147394443Y-113312466D01*
X147310778Y-113468991D01*
X147281448Y-113504729D01*
X147198186Y-113606186D01*
X147096729Y-113689448D01*
X147060991Y-113718778D01*
X146904466Y-113802443D01*
X146734627Y-113853963D01*
X146668443Y-113860481D01*
X146602260Y-113867000D01*
X146513740Y-113867000D01*
X146447557Y-113860481D01*
X146381373Y-113853963D01*
X146211534Y-113802443D01*
X146055009Y-113718778D01*
X146019271Y-113689448D01*
X145917814Y-113606186D01*
X145834552Y-113504729D01*
X145805222Y-113468991D01*
X145721557Y-113312466D01*
X145670037Y-113142627D01*
X145652641Y-112966000D01*
X145670037Y-112789373D01*
X145721557Y-112619534D01*
X145805222Y-112463009D01*
X145834552Y-112427271D01*
X145917814Y-112325814D01*
X146019271Y-112242552D01*
X146055009Y-112213222D01*
X146211534Y-112129557D01*
X146381373Y-112078037D01*
X146447557Y-112071519D01*
X146513740Y-112065000D01*
X146602260Y-112065000D01*
X146668443Y-112071519D01*
X146668443Y-112071519D01*
G37*
G36*
X144128443Y-112071519D02*
G01*
X144194627Y-112078037D01*
X144364466Y-112129557D01*
X144520991Y-112213222D01*
X144556729Y-112242552D01*
X144658186Y-112325814D01*
X144741448Y-112427271D01*
X144770778Y-112463009D01*
X144854443Y-112619534D01*
X144905963Y-112789373D01*
X144923359Y-112966000D01*
X144905963Y-113142627D01*
X144854443Y-113312466D01*
X144770778Y-113468991D01*
X144741448Y-113504729D01*
X144658186Y-113606186D01*
X144556729Y-113689448D01*
X144520991Y-113718778D01*
X144364466Y-113802443D01*
X144194627Y-113853963D01*
X144128443Y-113860481D01*
X144062260Y-113867000D01*
X143973740Y-113867000D01*
X143907557Y-113860481D01*
X143841373Y-113853963D01*
X143671534Y-113802443D01*
X143515009Y-113718778D01*
X143479271Y-113689448D01*
X143377814Y-113606186D01*
X143294552Y-113504729D01*
X143265222Y-113468991D01*
X143181557Y-113312466D01*
X143130037Y-113142627D01*
X143112641Y-112966000D01*
X143130037Y-112789373D01*
X143181557Y-112619534D01*
X143265222Y-112463009D01*
X143294552Y-112427271D01*
X143377814Y-112325814D01*
X143479271Y-112242552D01*
X143515009Y-112213222D01*
X143671534Y-112129557D01*
X143841373Y-112078037D01*
X143907557Y-112071519D01*
X143973740Y-112065000D01*
X144062260Y-112065000D01*
X144128443Y-112071519D01*
X144128443Y-112071519D01*
G37*
G36*
X141588443Y-112071519D02*
G01*
X141654627Y-112078037D01*
X141824466Y-112129557D01*
X141980991Y-112213222D01*
X142016729Y-112242552D01*
X142118186Y-112325814D01*
X142201448Y-112427271D01*
X142230778Y-112463009D01*
X142314443Y-112619534D01*
X142365963Y-112789373D01*
X142383359Y-112966000D01*
X142365963Y-113142627D01*
X142314443Y-113312466D01*
X142230778Y-113468991D01*
X142201448Y-113504729D01*
X142118186Y-113606186D01*
X142016729Y-113689448D01*
X141980991Y-113718778D01*
X141824466Y-113802443D01*
X141654627Y-113853963D01*
X141588443Y-113860481D01*
X141522260Y-113867000D01*
X141433740Y-113867000D01*
X141367557Y-113860481D01*
X141301373Y-113853963D01*
X141131534Y-113802443D01*
X140975009Y-113718778D01*
X140939271Y-113689448D01*
X140837814Y-113606186D01*
X140754552Y-113504729D01*
X140725222Y-113468991D01*
X140641557Y-113312466D01*
X140590037Y-113142627D01*
X140572641Y-112966000D01*
X140590037Y-112789373D01*
X140641557Y-112619534D01*
X140725222Y-112463009D01*
X140754552Y-112427271D01*
X140837814Y-112325814D01*
X140939271Y-112242552D01*
X140975009Y-112213222D01*
X141131534Y-112129557D01*
X141301373Y-112078037D01*
X141367557Y-112071519D01*
X141433740Y-112065000D01*
X141522260Y-112065000D01*
X141588443Y-112071519D01*
X141588443Y-112071519D01*
G37*
G36*
X139048443Y-112071519D02*
G01*
X139114627Y-112078037D01*
X139284466Y-112129557D01*
X139440991Y-112213222D01*
X139476729Y-112242552D01*
X139578186Y-112325814D01*
X139661448Y-112427271D01*
X139690778Y-112463009D01*
X139774443Y-112619534D01*
X139825963Y-112789373D01*
X139843359Y-112966000D01*
X139825963Y-113142627D01*
X139774443Y-113312466D01*
X139690778Y-113468991D01*
X139661448Y-113504729D01*
X139578186Y-113606186D01*
X139476729Y-113689448D01*
X139440991Y-113718778D01*
X139284466Y-113802443D01*
X139114627Y-113853963D01*
X139048443Y-113860481D01*
X138982260Y-113867000D01*
X138893740Y-113867000D01*
X138827557Y-113860481D01*
X138761373Y-113853963D01*
X138591534Y-113802443D01*
X138435009Y-113718778D01*
X138399271Y-113689448D01*
X138297814Y-113606186D01*
X138214552Y-113504729D01*
X138185222Y-113468991D01*
X138101557Y-113312466D01*
X138050037Y-113142627D01*
X138032641Y-112966000D01*
X138050037Y-112789373D01*
X138101557Y-112619534D01*
X138185222Y-112463009D01*
X138214552Y-112427271D01*
X138297814Y-112325814D01*
X138399271Y-112242552D01*
X138435009Y-112213222D01*
X138591534Y-112129557D01*
X138761373Y-112078037D01*
X138827557Y-112071519D01*
X138893740Y-112065000D01*
X138982260Y-112065000D01*
X139048443Y-112071519D01*
X139048443Y-112071519D01*
G37*
G36*
X134759000Y-113867000D02*
G01*
X132957000Y-113867000D01*
X132957000Y-112065000D01*
X134759000Y-112065000D01*
X134759000Y-113867000D01*
X134759000Y-113867000D01*
G37*
G36*
X136508443Y-112071519D02*
G01*
X136574627Y-112078037D01*
X136744466Y-112129557D01*
X136900991Y-112213222D01*
X136936729Y-112242552D01*
X137038186Y-112325814D01*
X137121448Y-112427271D01*
X137150778Y-112463009D01*
X137234443Y-112619534D01*
X137285963Y-112789373D01*
X137303359Y-112966000D01*
X137285963Y-113142627D01*
X137234443Y-113312466D01*
X137150778Y-113468991D01*
X137121448Y-113504729D01*
X137038186Y-113606186D01*
X136936729Y-113689448D01*
X136900991Y-113718778D01*
X136744466Y-113802443D01*
X136574627Y-113853963D01*
X136508443Y-113860481D01*
X136442260Y-113867000D01*
X136353740Y-113867000D01*
X136287557Y-113860481D01*
X136221373Y-113853963D01*
X136051534Y-113802443D01*
X135895009Y-113718778D01*
X135859271Y-113689448D01*
X135757814Y-113606186D01*
X135674552Y-113504729D01*
X135645222Y-113468991D01*
X135561557Y-113312466D01*
X135510037Y-113142627D01*
X135492641Y-112966000D01*
X135510037Y-112789373D01*
X135561557Y-112619534D01*
X135645222Y-112463009D01*
X135674552Y-112427271D01*
X135757814Y-112325814D01*
X135859271Y-112242552D01*
X135895009Y-112213222D01*
X136051534Y-112129557D01*
X136221373Y-112078037D01*
X136287557Y-112071519D01*
X136353740Y-112065000D01*
X136442260Y-112065000D01*
X136508443Y-112071519D01*
X136508443Y-112071519D01*
G37*
G36*
X124452000Y-113631000D02*
G01*
X121800000Y-113631000D01*
X121800000Y-112469000D01*
X124452000Y-112469000D01*
X124452000Y-113631000D01*
X124452000Y-113631000D01*
G37*
G36*
X126666000Y-111963000D02*
G01*
X126064000Y-111963000D01*
X126064000Y-111261000D01*
X126666000Y-111261000D01*
X126666000Y-111963000D01*
X126666000Y-111963000D01*
G37*
G36*
X127555000Y-111963000D02*
G01*
X126953000Y-111963000D01*
X126953000Y-111261000D01*
X127555000Y-111261000D01*
X127555000Y-111963000D01*
X127555000Y-111963000D01*
G37*
G36*
X128444000Y-111963000D02*
G01*
X127842000Y-111963000D01*
X127842000Y-111261000D01*
X128444000Y-111261000D01*
X128444000Y-111963000D01*
X128444000Y-111963000D01*
G37*
G36*
X125777000Y-111963000D02*
G01*
X125175000Y-111963000D01*
X125175000Y-111261000D01*
X125777000Y-111261000D01*
X125777000Y-111963000D01*
X125777000Y-111963000D01*
G37*
G36*
X161706000Y-111949000D02*
G01*
X160854000Y-111949000D01*
X160854000Y-110047000D01*
X161706000Y-110047000D01*
X161706000Y-111949000D01*
X161706000Y-111949000D01*
G37*
G36*
X158806000Y-111949000D02*
G01*
X157954000Y-111949000D01*
X157954000Y-110047000D01*
X158806000Y-110047000D01*
X158806000Y-111949000D01*
X158806000Y-111949000D01*
G37*
G36*
X160531000Y-111799000D02*
G01*
X159129000Y-111799000D01*
X159129000Y-110197000D01*
X160531000Y-110197000D01*
X160531000Y-111799000D01*
X160531000Y-111799000D01*
G37*
G36*
X116239000Y-111699000D02*
G01*
X115537000Y-111699000D01*
X115537000Y-111197000D01*
X116239000Y-111197000D01*
X116239000Y-111699000D01*
X116239000Y-111699000D01*
G37*
G36*
X118715000Y-111699000D02*
G01*
X118013000Y-111699000D01*
X118013000Y-111197000D01*
X118715000Y-111197000D01*
X118715000Y-111699000D01*
X118715000Y-111699000D01*
G37*
G36*
X155559000Y-111645000D02*
G01*
X154957000Y-111645000D01*
X154957000Y-110943000D01*
X155559000Y-110943000D01*
X155559000Y-111645000D01*
X155559000Y-111645000D01*
G37*
G36*
X157337000Y-111645000D02*
G01*
X156735000Y-111645000D01*
X156735000Y-110943000D01*
X157337000Y-110943000D01*
X157337000Y-111645000D01*
X157337000Y-111645000D01*
G37*
G36*
X156447000Y-111645000D02*
G01*
X155845000Y-111645000D01*
X155845000Y-110943000D01*
X156447000Y-110943000D01*
X156447000Y-111645000D01*
X156447000Y-111645000D01*
G37*
G36*
X154075000Y-111536000D02*
G01*
X151613000Y-111536000D01*
X151613000Y-110374000D01*
X154075000Y-110374000D01*
X154075000Y-111536000D01*
X154075000Y-111536000D01*
G37*
G36*
X124452000Y-111431000D02*
G01*
X121800000Y-111431000D01*
X121800000Y-110269000D01*
X124452000Y-110269000D01*
X124452000Y-111431000D01*
X124452000Y-111431000D01*
G37*
G36*
X137469000Y-110981000D02*
G01*
X136767000Y-110981000D01*
X136767000Y-110379000D01*
X137469000Y-110379000D01*
X137469000Y-110981000D01*
X137469000Y-110981000D01*
G37*
G36*
X138569000Y-110981000D02*
G01*
X137867000Y-110981000D01*
X137867000Y-110379000D01*
X138569000Y-110379000D01*
X138569000Y-110981000D01*
X138569000Y-110981000D01*
G37*
G36*
X108628012Y-107875162D02*
G01*
X108846410Y-107918604D01*
X109128674Y-108035521D01*
X109382705Y-108205259D01*
X109598741Y-108421295D01*
X109768479Y-108675326D01*
X109835446Y-108837000D01*
X109885396Y-108957591D01*
X109945000Y-109257239D01*
X109945000Y-109562761D01*
X109915198Y-109712585D01*
X109885396Y-109862410D01*
X109768479Y-110144674D01*
X109598741Y-110398705D01*
X109382705Y-110614741D01*
X109128674Y-110784479D01*
X108846410Y-110901396D01*
X108696585Y-110931198D01*
X108546761Y-110961000D01*
X108241239Y-110961000D01*
X108091415Y-110931198D01*
X107941590Y-110901396D01*
X107659326Y-110784479D01*
X107405295Y-110614741D01*
X107189259Y-110398705D01*
X107019521Y-110144674D01*
X106902604Y-109862410D01*
X106872802Y-109712585D01*
X106843000Y-109562761D01*
X106843000Y-109257239D01*
X106902604Y-108957591D01*
X106952554Y-108837000D01*
X107019521Y-108675326D01*
X107189259Y-108421295D01*
X107405295Y-108205259D01*
X107659326Y-108035521D01*
X107941590Y-107918604D01*
X108159988Y-107875162D01*
X108241239Y-107859000D01*
X108546761Y-107859000D01*
X108628012Y-107875162D01*
X108628012Y-107875162D01*
G37*
G36*
X198481012Y-107875162D02*
G01*
X198699410Y-107918604D01*
X198981674Y-108035521D01*
X199235705Y-108205259D01*
X199451741Y-108421295D01*
X199621479Y-108675326D01*
X199688446Y-108837000D01*
X199738396Y-108957591D01*
X199798000Y-109257239D01*
X199798000Y-109562761D01*
X199768198Y-109712585D01*
X199738396Y-109862410D01*
X199621479Y-110144674D01*
X199451741Y-110398705D01*
X199235705Y-110614741D01*
X198981674Y-110784479D01*
X198699410Y-110901396D01*
X198549585Y-110931198D01*
X198399761Y-110961000D01*
X198094239Y-110961000D01*
X197944415Y-110931198D01*
X197794590Y-110901396D01*
X197512326Y-110784479D01*
X197258295Y-110614741D01*
X197042259Y-110398705D01*
X196872521Y-110144674D01*
X196755604Y-109862410D01*
X196725802Y-109712585D01*
X196696000Y-109562761D01*
X196696000Y-109257239D01*
X196755604Y-108957591D01*
X196805554Y-108837000D01*
X196872521Y-108675326D01*
X197042259Y-108421295D01*
X197258295Y-108205259D01*
X197512326Y-108035521D01*
X197794590Y-107918604D01*
X198012988Y-107875162D01*
X198094239Y-107859000D01*
X198399761Y-107859000D01*
X198481012Y-107875162D01*
X198481012Y-107875162D01*
G37*
G36*
X125777000Y-110863000D02*
G01*
X125175000Y-110863000D01*
X125175000Y-110161000D01*
X125777000Y-110161000D01*
X125777000Y-110863000D01*
X125777000Y-110863000D01*
G37*
G36*
X126666000Y-110863000D02*
G01*
X126064000Y-110863000D01*
X126064000Y-110161000D01*
X126666000Y-110161000D01*
X126666000Y-110863000D01*
X126666000Y-110863000D01*
G37*
G36*
X127555000Y-110863000D02*
G01*
X126953000Y-110863000D01*
X126953000Y-110161000D01*
X127555000Y-110161000D01*
X127555000Y-110863000D01*
X127555000Y-110863000D01*
G37*
G36*
X128444000Y-110863000D02*
G01*
X127842000Y-110863000D01*
X127842000Y-110161000D01*
X128444000Y-110161000D01*
X128444000Y-110863000D01*
X128444000Y-110863000D01*
G37*
G36*
X116239000Y-110799000D02*
G01*
X115537000Y-110799000D01*
X115537000Y-110297000D01*
X116239000Y-110297000D01*
X116239000Y-110799000D01*
X116239000Y-110799000D01*
G37*
G36*
X118715000Y-110799000D02*
G01*
X118013000Y-110799000D01*
X118013000Y-110297000D01*
X118715000Y-110297000D01*
X118715000Y-110799000D01*
X118715000Y-110799000D01*
G37*
G36*
X150859000Y-110756000D02*
G01*
X150257000Y-110756000D01*
X150257000Y-110054000D01*
X150859000Y-110054000D01*
X150859000Y-110756000D01*
X150859000Y-110756000D01*
G37*
G36*
X156447000Y-110545000D02*
G01*
X155845000Y-110545000D01*
X155845000Y-109843000D01*
X156447000Y-109843000D01*
X156447000Y-110545000D01*
X156447000Y-110545000D01*
G37*
G36*
X155559000Y-110545000D02*
G01*
X154957000Y-110545000D01*
X154957000Y-109843000D01*
X155559000Y-109843000D01*
X155559000Y-110545000D01*
X155559000Y-110545000D01*
G37*
G36*
X157337000Y-110545000D02*
G01*
X156735000Y-110545000D01*
X156735000Y-109843000D01*
X157337000Y-109843000D01*
X157337000Y-110545000D01*
X157337000Y-110545000D01*
G37*
G36*
X149068000Y-110239000D02*
G01*
X148366000Y-110239000D01*
X148366000Y-109737000D01*
X149068000Y-109737000D01*
X149068000Y-110239000D01*
X149068000Y-110239000D01*
G37*
G36*
X166045740Y-109100626D02*
G01*
X166094136Y-109110253D01*
X166131902Y-109125896D01*
X166185311Y-109148019D01*
X166185312Y-109148020D01*
X166267369Y-109202848D01*
X166337152Y-109272631D01*
X166337153Y-109272633D01*
X166391981Y-109354689D01*
X166429747Y-109445865D01*
X166449000Y-109542655D01*
X166449000Y-109641345D01*
X166429747Y-109738135D01*
X166391981Y-109829311D01*
X166391980Y-109829312D01*
X166337152Y-109911369D01*
X166267369Y-109981152D01*
X166226062Y-110008752D01*
X166185311Y-110035981D01*
X166141809Y-110054000D01*
X166094136Y-110073747D01*
X166045740Y-110083374D01*
X165997345Y-110093000D01*
X165898655Y-110093000D01*
X165850260Y-110083374D01*
X165801864Y-110073747D01*
X165754191Y-110054000D01*
X165710689Y-110035981D01*
X165669938Y-110008752D01*
X165628631Y-109981152D01*
X165558848Y-109911369D01*
X165504020Y-109829312D01*
X165504019Y-109829311D01*
X165466253Y-109738135D01*
X165447000Y-109641345D01*
X165447000Y-109542655D01*
X165466253Y-109445865D01*
X165504019Y-109354689D01*
X165558847Y-109272633D01*
X165558848Y-109272631D01*
X165628631Y-109202848D01*
X165710688Y-109148020D01*
X165710689Y-109148019D01*
X165764098Y-109125896D01*
X165801864Y-109110253D01*
X165850260Y-109100626D01*
X165898655Y-109091000D01*
X165997345Y-109091000D01*
X166045740Y-109100626D01*
X166045740Y-109100626D01*
G37*
G36*
X170445740Y-109100626D02*
G01*
X170494136Y-109110253D01*
X170531902Y-109125896D01*
X170585311Y-109148019D01*
X170585312Y-109148020D01*
X170667369Y-109202848D01*
X170737152Y-109272631D01*
X170737153Y-109272633D01*
X170791981Y-109354689D01*
X170829747Y-109445865D01*
X170849000Y-109542655D01*
X170849000Y-109641345D01*
X170829747Y-109738135D01*
X170791981Y-109829311D01*
X170791980Y-109829312D01*
X170737152Y-109911369D01*
X170667369Y-109981152D01*
X170626062Y-110008752D01*
X170585311Y-110035981D01*
X170541809Y-110054000D01*
X170494136Y-110073747D01*
X170445740Y-110083374D01*
X170397345Y-110093000D01*
X170298655Y-110093000D01*
X170250260Y-110083374D01*
X170201864Y-110073747D01*
X170154191Y-110054000D01*
X170110689Y-110035981D01*
X170069938Y-110008752D01*
X170028631Y-109981152D01*
X169958848Y-109911369D01*
X169904020Y-109829312D01*
X169904019Y-109829311D01*
X169866253Y-109738135D01*
X169847000Y-109641345D01*
X169847000Y-109542655D01*
X169866253Y-109445865D01*
X169904019Y-109354689D01*
X169958847Y-109272633D01*
X169958848Y-109272631D01*
X170028631Y-109202848D01*
X170110688Y-109148020D01*
X170110689Y-109148019D01*
X170164098Y-109125896D01*
X170201864Y-109110253D01*
X170250260Y-109100626D01*
X170298655Y-109091000D01*
X170397345Y-109091000D01*
X170445740Y-109100626D01*
X170445740Y-109100626D01*
G37*
G36*
X127555000Y-109867000D02*
G01*
X126953000Y-109867000D01*
X126953000Y-109165000D01*
X127555000Y-109165000D01*
X127555000Y-109867000D01*
X127555000Y-109867000D01*
G37*
G36*
X126666000Y-109867000D02*
G01*
X126064000Y-109867000D01*
X126064000Y-109165000D01*
X126666000Y-109165000D01*
X126666000Y-109867000D01*
X126666000Y-109867000D01*
G37*
G36*
X125777000Y-109867000D02*
G01*
X125175000Y-109867000D01*
X125175000Y-109165000D01*
X125777000Y-109165000D01*
X125777000Y-109867000D01*
X125777000Y-109867000D01*
G37*
G36*
X128444000Y-109867000D02*
G01*
X127842000Y-109867000D01*
X127842000Y-109165000D01*
X128444000Y-109165000D01*
X128444000Y-109867000D01*
X128444000Y-109867000D01*
G37*
G36*
X118049000Y-109816000D02*
G01*
X116147000Y-109816000D01*
X116147000Y-108964000D01*
X118049000Y-108964000D01*
X118049000Y-109816000D01*
X118049000Y-109816000D01*
G37*
G36*
X150859000Y-109656000D02*
G01*
X150257000Y-109656000D01*
X150257000Y-108954000D01*
X150859000Y-108954000D01*
X150859000Y-109656000D01*
X150859000Y-109656000D01*
G37*
G36*
X123804642Y-107814781D02*
G01*
X123950414Y-107875162D01*
X123950416Y-107875163D01*
X124081608Y-107962822D01*
X124193178Y-108074392D01*
X124280837Y-108205584D01*
X124280838Y-108205586D01*
X124341219Y-108351358D01*
X124372000Y-108506107D01*
X124372000Y-108663893D01*
X124341219Y-108818642D01*
X124283664Y-108957591D01*
X124280837Y-108964416D01*
X124193178Y-109095608D01*
X124081608Y-109207178D01*
X123950416Y-109294837D01*
X123950415Y-109294838D01*
X123950414Y-109294838D01*
X123804642Y-109355219D01*
X123649893Y-109386000D01*
X123492107Y-109386000D01*
X123337358Y-109355219D01*
X123191586Y-109294838D01*
X123191585Y-109294838D01*
X123191584Y-109294837D01*
X123060392Y-109207178D01*
X122948822Y-109095608D01*
X122861163Y-108964416D01*
X122858336Y-108957591D01*
X122800781Y-108818642D01*
X122770000Y-108663893D01*
X122770000Y-108506107D01*
X122800781Y-108351358D01*
X122861162Y-108205586D01*
X122861163Y-108205584D01*
X122948822Y-108074392D01*
X123060392Y-107962822D01*
X123191584Y-107875163D01*
X123191586Y-107875162D01*
X123337358Y-107814781D01*
X123492107Y-107784000D01*
X123649893Y-107784000D01*
X123804642Y-107814781D01*
X123804642Y-107814781D01*
G37*
G36*
X149068000Y-109339000D02*
G01*
X148366000Y-109339000D01*
X148366000Y-108837000D01*
X149068000Y-108837000D01*
X149068000Y-109339000D01*
X149068000Y-109339000D01*
G37*
G36*
X154075000Y-109336000D02*
G01*
X151613000Y-109336000D01*
X151613000Y-108174000D01*
X154075000Y-108174000D01*
X154075000Y-109336000D01*
X154075000Y-109336000D01*
G37*
G36*
X178565000Y-109253000D02*
G01*
X178063000Y-109253000D01*
X178063000Y-108551000D01*
X178565000Y-108551000D01*
X178565000Y-109253000D01*
X178565000Y-109253000D01*
G37*
G36*
X177665000Y-109253000D02*
G01*
X177163000Y-109253000D01*
X177163000Y-108551000D01*
X177665000Y-108551000D01*
X177665000Y-109253000D01*
X177665000Y-109253000D01*
G37*
G36*
X157701000Y-106461689D02*
G01*
X157696553Y-106464066D01*
X157677611Y-106479611D01*
X157662066Y-106498553D01*
X157650515Y-106520164D01*
X157643402Y-106543613D01*
X157641000Y-106567999D01*
X157641000Y-108316001D01*
X157643402Y-108340387D01*
X157650515Y-108363836D01*
X157662066Y-108385447D01*
X157677611Y-108404389D01*
X157696553Y-108419934D01*
X157701000Y-108422311D01*
X157701000Y-109243000D01*
X155099000Y-109243000D01*
X155099000Y-108422311D01*
X155103447Y-108419934D01*
X155122389Y-108404389D01*
X155137934Y-108385447D01*
X155149485Y-108363836D01*
X155156598Y-108340387D01*
X155159000Y-108316001D01*
X155159000Y-106567999D01*
X155156598Y-106543613D01*
X155149485Y-106520164D01*
X155137934Y-106498553D01*
X155122389Y-106479611D01*
X155103447Y-106464066D01*
X155099000Y-106461689D01*
X155099000Y-105641000D01*
X157701000Y-105641000D01*
X157701000Y-106461689D01*
X157701000Y-106461689D01*
G37*
G36*
X159059000Y-109203000D02*
G01*
X158357000Y-109203000D01*
X158357000Y-108601000D01*
X159059000Y-108601000D01*
X159059000Y-109203000D01*
X159059000Y-109203000D01*
G37*
G36*
X160159000Y-109203000D02*
G01*
X159457000Y-109203000D01*
X159457000Y-108601000D01*
X160159000Y-108601000D01*
X160159000Y-109203000D01*
X160159000Y-109203000D01*
G37*
G36*
X134286000Y-108978000D02*
G01*
X133684000Y-108978000D01*
X133684000Y-108276000D01*
X134286000Y-108276000D01*
X134286000Y-108978000D01*
X134286000Y-108978000D01*
G37*
G36*
X135175000Y-108978000D02*
G01*
X134573000Y-108978000D01*
X134573000Y-108276000D01*
X135175000Y-108276000D01*
X135175000Y-108978000D01*
X135175000Y-108978000D01*
G37*
G36*
X136953000Y-108978000D02*
G01*
X136351000Y-108978000D01*
X136351000Y-108276000D01*
X136953000Y-108276000D01*
X136953000Y-108978000D01*
X136953000Y-108978000D01*
G37*
G36*
X136064000Y-108978000D02*
G01*
X135462000Y-108978000D01*
X135462000Y-108276000D01*
X136064000Y-108276000D01*
X136064000Y-108978000D01*
X136064000Y-108978000D01*
G37*
G36*
X133035000Y-108936000D02*
G01*
X132533000Y-108936000D01*
X132533000Y-108234000D01*
X133035000Y-108234000D01*
X133035000Y-108936000D01*
X133035000Y-108936000D01*
G37*
G36*
X132135000Y-108936000D02*
G01*
X131633000Y-108936000D01*
X131633000Y-108234000D01*
X132135000Y-108234000D01*
X132135000Y-108936000D01*
X132135000Y-108936000D01*
G37*
G36*
X125777000Y-108767000D02*
G01*
X125175000Y-108767000D01*
X125175000Y-108065000D01*
X125777000Y-108065000D01*
X125777000Y-108767000D01*
X125777000Y-108767000D01*
G37*
G36*
X128444000Y-108767000D02*
G01*
X127842000Y-108767000D01*
X127842000Y-108065000D01*
X128444000Y-108065000D01*
X128444000Y-108767000D01*
X128444000Y-108767000D01*
G37*
G36*
X126666000Y-108767000D02*
G01*
X126064000Y-108767000D01*
X126064000Y-108065000D01*
X126666000Y-108065000D01*
X126666000Y-108767000D01*
X126666000Y-108767000D01*
G37*
G36*
X127555000Y-108767000D02*
G01*
X126953000Y-108767000D01*
X126953000Y-108065000D01*
X127555000Y-108065000D01*
X127555000Y-108767000D01*
X127555000Y-108767000D01*
G37*
G36*
X117899000Y-108641000D02*
G01*
X116297000Y-108641000D01*
X116297000Y-107239000D01*
X117899000Y-107239000D01*
X117899000Y-108641000D01*
X117899000Y-108641000D01*
G37*
G36*
X149118000Y-108533000D02*
G01*
X148316000Y-108533000D01*
X148316000Y-107831000D01*
X149118000Y-107831000D01*
X149118000Y-108533000D01*
X149118000Y-108533000D01*
G37*
G36*
X159059000Y-108301000D02*
G01*
X158557000Y-108301000D01*
X158557000Y-107599000D01*
X159059000Y-107599000D01*
X159059000Y-108301000D01*
X159059000Y-108301000D01*
G37*
G36*
X159959000Y-108301000D02*
G01*
X159457000Y-108301000D01*
X159457000Y-107599000D01*
X159959000Y-107599000D01*
X159959000Y-108301000D01*
X159959000Y-108301000D01*
G37*
G36*
X178765000Y-108251000D02*
G01*
X178063000Y-108251000D01*
X178063000Y-107649000D01*
X178765000Y-107649000D01*
X178765000Y-108251000D01*
X178765000Y-108251000D01*
G37*
G36*
X177665000Y-108251000D02*
G01*
X176963000Y-108251000D01*
X176963000Y-107649000D01*
X177665000Y-107649000D01*
X177665000Y-108251000D01*
X177665000Y-108251000D01*
G37*
G36*
X115617000Y-108025000D02*
G01*
X115015000Y-108025000D01*
X115015000Y-107323000D01*
X115617000Y-107323000D01*
X115617000Y-108025000D01*
X115617000Y-108025000D01*
G37*
G36*
X132135000Y-107983000D02*
G01*
X131633000Y-107983000D01*
X131633000Y-107281000D01*
X132135000Y-107281000D01*
X132135000Y-107983000D01*
X132135000Y-107983000D01*
G37*
G36*
X133035000Y-107983000D02*
G01*
X132533000Y-107983000D01*
X132533000Y-107281000D01*
X133035000Y-107281000D01*
X133035000Y-107983000D01*
X133035000Y-107983000D01*
G37*
G36*
X134286000Y-107878000D02*
G01*
X133684000Y-107878000D01*
X133684000Y-107176000D01*
X134286000Y-107176000D01*
X134286000Y-107878000D01*
X134286000Y-107878000D01*
G37*
G36*
X135175000Y-107878000D02*
G01*
X134573000Y-107878000D01*
X134573000Y-107176000D01*
X135175000Y-107176000D01*
X135175000Y-107878000D01*
X135175000Y-107878000D01*
G37*
G36*
X136064000Y-107878000D02*
G01*
X135462000Y-107878000D01*
X135462000Y-107176000D01*
X136064000Y-107176000D01*
X136064000Y-107878000D01*
X136064000Y-107878000D01*
G37*
G36*
X136953000Y-107878000D02*
G01*
X136351000Y-107878000D01*
X136351000Y-107176000D01*
X136953000Y-107176000D01*
X136953000Y-107878000D01*
X136953000Y-107878000D01*
G37*
G36*
X154381000Y-107743000D02*
G01*
X153679000Y-107743000D01*
X153679000Y-107141000D01*
X154381000Y-107141000D01*
X154381000Y-107743000D01*
X154381000Y-107743000D01*
G37*
G36*
X153281000Y-107743000D02*
G01*
X152579000Y-107743000D01*
X152579000Y-107141000D01*
X153281000Y-107141000D01*
X153281000Y-107743000D01*
X153281000Y-107743000D01*
G37*
G36*
X127499000Y-107666000D02*
G01*
X126997000Y-107666000D01*
X126997000Y-106964000D01*
X127499000Y-106964000D01*
X127499000Y-107666000D01*
X127499000Y-107666000D01*
G37*
G36*
X128399000Y-107666000D02*
G01*
X127897000Y-107666000D01*
X127897000Y-106964000D01*
X128399000Y-106964000D01*
X128399000Y-107666000D01*
X128399000Y-107666000D01*
G37*
G36*
X149118000Y-107433000D02*
G01*
X148316000Y-107433000D01*
X148316000Y-106731000D01*
X149118000Y-106731000D01*
X149118000Y-107433000D01*
X149118000Y-107433000D01*
G37*
G36*
X159959000Y-107285000D02*
G01*
X159457000Y-107285000D01*
X159457000Y-106583000D01*
X159959000Y-106583000D01*
X159959000Y-107285000D01*
X159959000Y-107285000D01*
G37*
G36*
X159059000Y-107285000D02*
G01*
X158557000Y-107285000D01*
X158557000Y-106583000D01*
X159059000Y-106583000D01*
X159059000Y-107285000D01*
X159059000Y-107285000D01*
G37*
G36*
X178765000Y-107180000D02*
G01*
X176963000Y-107180000D01*
X176963000Y-106428000D01*
X178765000Y-106428000D01*
X178765000Y-107180000D01*
X178765000Y-107180000D01*
G37*
G36*
X115617000Y-106925000D02*
G01*
X115015000Y-106925000D01*
X115015000Y-106223000D01*
X115617000Y-106223000D01*
X115617000Y-106925000D01*
X115617000Y-106925000D01*
G37*
G36*
X118049000Y-106916000D02*
G01*
X116147000Y-106916000D01*
X116147000Y-106064000D01*
X118049000Y-106064000D01*
X118049000Y-106916000D01*
X118049000Y-106916000D01*
G37*
G36*
X121563000Y-106329000D02*
G01*
X119101000Y-106329000D01*
X119101000Y-105167000D01*
X121563000Y-105167000D01*
X121563000Y-106329000D01*
X121563000Y-106329000D01*
G37*
G36*
X159059000Y-106283000D02*
G01*
X158357000Y-106283000D01*
X158357000Y-105681000D01*
X159059000Y-105681000D01*
X159059000Y-106283000D01*
X159059000Y-106283000D01*
G37*
G36*
X160159000Y-106283000D02*
G01*
X159457000Y-106283000D01*
X159457000Y-105681000D01*
X160159000Y-105681000D01*
X160159000Y-106283000D01*
X160159000Y-106283000D01*
G37*
G36*
X118284000Y-105549000D02*
G01*
X117682000Y-105549000D01*
X117682000Y-104847000D01*
X118284000Y-104847000D01*
X118284000Y-105549000D01*
X118284000Y-105549000D01*
G37*
G36*
X177465000Y-105280000D02*
G01*
X176963000Y-105280000D01*
X176963000Y-104528000D01*
X177465000Y-104528000D01*
X177465000Y-105280000D01*
X177465000Y-105280000D01*
G37*
G36*
X178765000Y-105280000D02*
G01*
X178263000Y-105280000D01*
X178263000Y-104528000D01*
X178765000Y-104528000D01*
X178765000Y-105280000D01*
X178765000Y-105280000D01*
G37*
G36*
X156257000Y-104851000D02*
G01*
X155655000Y-104851000D01*
X155655000Y-104149000D01*
X156257000Y-104149000D01*
X156257000Y-104851000D01*
X156257000Y-104851000D01*
G37*
G36*
X157146000Y-104851000D02*
G01*
X156544000Y-104851000D01*
X156544000Y-104149000D01*
X157146000Y-104149000D01*
X157146000Y-104851000D01*
X157146000Y-104851000D01*
G37*
G36*
X155368000Y-104851000D02*
G01*
X154766000Y-104851000D01*
X154766000Y-104149000D01*
X155368000Y-104149000D01*
X155368000Y-104851000D01*
X155368000Y-104851000D01*
G37*
G36*
X118284000Y-104449000D02*
G01*
X117682000Y-104449000D01*
X117682000Y-103747000D01*
X118284000Y-103747000D01*
X118284000Y-104449000D01*
X118284000Y-104449000D01*
G37*
G36*
X200957642Y-102861781D02*
G01*
X201103414Y-102922162D01*
X201103416Y-102922163D01*
X201234608Y-103009822D01*
X201346178Y-103121392D01*
X201427433Y-103243000D01*
X201433838Y-103252586D01*
X201494219Y-103398358D01*
X201525000Y-103553107D01*
X201525000Y-103710893D01*
X201494219Y-103865642D01*
X201469632Y-103925000D01*
X201433837Y-104011416D01*
X201346178Y-104142608D01*
X201234608Y-104254178D01*
X201103416Y-104341837D01*
X201103415Y-104341838D01*
X201103414Y-104341838D01*
X200957642Y-104402219D01*
X200802893Y-104433000D01*
X200645107Y-104433000D01*
X200490358Y-104402219D01*
X200344586Y-104341838D01*
X200344585Y-104341838D01*
X200344584Y-104341837D01*
X200213392Y-104254178D01*
X200101822Y-104142608D01*
X200014163Y-104011416D01*
X199978368Y-103925000D01*
X199953781Y-103865642D01*
X199923000Y-103710893D01*
X199923000Y-103553107D01*
X199953781Y-103398358D01*
X200014162Y-103252586D01*
X200020567Y-103243000D01*
X200101822Y-103121392D01*
X200213392Y-103009822D01*
X200344584Y-102922163D01*
X200344586Y-102922162D01*
X200490358Y-102861781D01*
X200645107Y-102831000D01*
X200802893Y-102831000D01*
X200957642Y-102861781D01*
X200957642Y-102861781D01*
G37*
G36*
X170481000Y-104343000D02*
G01*
X169879000Y-104343000D01*
X169879000Y-103641000D01*
X170481000Y-103641000D01*
X170481000Y-104343000D01*
X170481000Y-104343000D01*
G37*
G36*
X174545000Y-104343000D02*
G01*
X173943000Y-104343000D01*
X173943000Y-103641000D01*
X174545000Y-103641000D01*
X174545000Y-104343000D01*
X174545000Y-104343000D01*
G37*
G36*
X173579000Y-104143000D02*
G01*
X172877000Y-104143000D01*
X172877000Y-103641000D01*
X173579000Y-103641000D01*
X173579000Y-104143000D01*
X173579000Y-104143000D01*
G37*
G36*
X172563000Y-104143000D02*
G01*
X171861000Y-104143000D01*
X171861000Y-103641000D01*
X172563000Y-103641000D01*
X172563000Y-104143000D01*
X172563000Y-104143000D01*
G37*
G36*
X171547000Y-104143000D02*
G01*
X170845000Y-104143000D01*
X170845000Y-103641000D01*
X171547000Y-103641000D01*
X171547000Y-104143000D01*
X171547000Y-104143000D01*
G37*
G36*
X121563000Y-104129000D02*
G01*
X119101000Y-104129000D01*
X119101000Y-102967000D01*
X121563000Y-102967000D01*
X121563000Y-104129000D01*
X121563000Y-104129000D01*
G37*
G36*
X177665000Y-104060000D02*
G01*
X176963000Y-104060000D01*
X176963000Y-103458000D01*
X177665000Y-103458000D01*
X177665000Y-104060000D01*
X177665000Y-104060000D01*
G37*
G36*
X178765000Y-104060000D02*
G01*
X178063000Y-104060000D01*
X178063000Y-103458000D01*
X178765000Y-103458000D01*
X178765000Y-104060000D01*
X178765000Y-104060000D01*
G37*
G36*
X151744642Y-102353781D02*
G01*
X151890414Y-102414162D01*
X151890416Y-102414163D01*
X152021608Y-102501822D01*
X152133178Y-102613392D01*
X152218442Y-102741000D01*
X152220838Y-102744586D01*
X152281219Y-102890358D01*
X152312000Y-103045107D01*
X152312000Y-103202893D01*
X152281219Y-103357642D01*
X152239649Y-103458000D01*
X152220837Y-103503416D01*
X152133178Y-103634608D01*
X152021608Y-103746178D01*
X151890416Y-103833837D01*
X151890415Y-103833838D01*
X151890414Y-103833838D01*
X151744642Y-103894219D01*
X151589893Y-103925000D01*
X151432107Y-103925000D01*
X151277358Y-103894219D01*
X151131586Y-103833838D01*
X151131585Y-103833838D01*
X151131584Y-103833837D01*
X151000392Y-103746178D01*
X150888822Y-103634608D01*
X150801163Y-103503416D01*
X150782351Y-103458000D01*
X150740781Y-103357642D01*
X150710000Y-103202893D01*
X150710000Y-103045107D01*
X150740781Y-102890358D01*
X150801162Y-102744586D01*
X150803558Y-102741000D01*
X150888822Y-102613392D01*
X151000392Y-102501822D01*
X151131584Y-102414163D01*
X151131586Y-102414162D01*
X151277358Y-102353781D01*
X151432107Y-102323000D01*
X151589893Y-102323000D01*
X151744642Y-102353781D01*
X151744642Y-102353781D01*
G37*
G36*
X155368000Y-103751000D02*
G01*
X154766000Y-103751000D01*
X154766000Y-103049000D01*
X155368000Y-103049000D01*
X155368000Y-103751000D01*
X155368000Y-103751000D01*
G37*
G36*
X156257000Y-103751000D02*
G01*
X155655000Y-103751000D01*
X155655000Y-103049000D01*
X156257000Y-103049000D01*
X156257000Y-103751000D01*
X156257000Y-103751000D01*
G37*
G36*
X157146000Y-103751000D02*
G01*
X156544000Y-103751000D01*
X156544000Y-103049000D01*
X157146000Y-103049000D01*
X157146000Y-103751000D01*
X157146000Y-103751000D01*
G37*
G36*
X172563000Y-103243000D02*
G01*
X171861000Y-103243000D01*
X171861000Y-102741000D01*
X172563000Y-102741000D01*
X172563000Y-103243000D01*
X172563000Y-103243000D01*
G37*
G36*
X170481000Y-103243000D02*
G01*
X169879000Y-103243000D01*
X169879000Y-102541000D01*
X170481000Y-102541000D01*
X170481000Y-103243000D01*
X170481000Y-103243000D01*
G37*
G36*
X174545000Y-103243000D02*
G01*
X173943000Y-103243000D01*
X173943000Y-102541000D01*
X174545000Y-102541000D01*
X174545000Y-103243000D01*
X174545000Y-103243000D01*
G37*
G36*
X173579000Y-103243000D02*
G01*
X172877000Y-103243000D01*
X172877000Y-102741000D01*
X173579000Y-102741000D01*
X173579000Y-103243000D01*
X173579000Y-103243000D01*
G37*
G36*
X171547000Y-103243000D02*
G01*
X170845000Y-103243000D01*
X170845000Y-102741000D01*
X171547000Y-102741000D01*
X171547000Y-103243000D01*
X171547000Y-103243000D01*
G37*
G36*
X175688000Y-102628000D02*
G01*
X175086000Y-102628000D01*
X175086000Y-101926000D01*
X175688000Y-101926000D01*
X175688000Y-102628000D01*
X175688000Y-102628000D01*
G37*
G36*
X120769000Y-102536000D02*
G01*
X120067000Y-102536000D01*
X120067000Y-101934000D01*
X120769000Y-101934000D01*
X120769000Y-102536000D01*
X120769000Y-102536000D01*
G37*
G36*
X121869000Y-102536000D02*
G01*
X121167000Y-102536000D01*
X121167000Y-101934000D01*
X121869000Y-101934000D01*
X121869000Y-102536000D01*
X121869000Y-102536000D01*
G37*
G36*
X172038304Y-98238452D02*
G01*
X172073400Y-98241908D01*
X172092346Y-98247656D01*
X172111290Y-98253402D01*
X172146209Y-98272066D01*
X172176816Y-98297184D01*
X172187379Y-98310055D01*
X172204701Y-98327377D01*
X172225075Y-98340991D01*
X172247714Y-98350368D01*
X172271747Y-98355149D01*
X172296251Y-98355149D01*
X172320284Y-98350369D01*
X172342923Y-98340992D01*
X172363298Y-98327378D01*
X172380622Y-98310054D01*
X172391184Y-98297184D01*
X172421790Y-98272066D01*
X172456709Y-98253402D01*
X172475653Y-98247656D01*
X172494599Y-98241908D01*
X172533999Y-98238028D01*
X172534000Y-98238028D01*
X172538304Y-98238452D01*
X172573400Y-98241908D01*
X172592346Y-98247656D01*
X172611290Y-98253402D01*
X172646209Y-98272066D01*
X172676816Y-98297184D01*
X172687379Y-98310055D01*
X172704701Y-98327377D01*
X172725075Y-98340991D01*
X172747714Y-98350368D01*
X172771747Y-98355149D01*
X172796251Y-98355149D01*
X172820284Y-98350369D01*
X172842923Y-98340992D01*
X172863298Y-98327378D01*
X172880622Y-98310054D01*
X172891184Y-98297184D01*
X172921790Y-98272066D01*
X172956709Y-98253402D01*
X172975653Y-98247656D01*
X172994599Y-98241908D01*
X173033999Y-98238028D01*
X173034000Y-98238028D01*
X173038304Y-98238452D01*
X173073400Y-98241908D01*
X173092346Y-98247656D01*
X173111290Y-98253402D01*
X173146209Y-98272066D01*
X173176816Y-98297184D01*
X173187379Y-98310055D01*
X173204701Y-98327377D01*
X173225075Y-98340991D01*
X173247714Y-98350368D01*
X173271747Y-98355149D01*
X173296251Y-98355149D01*
X173320284Y-98350369D01*
X173342923Y-98340992D01*
X173363298Y-98327378D01*
X173380622Y-98310054D01*
X173391184Y-98297184D01*
X173421790Y-98272066D01*
X173456709Y-98253402D01*
X173475653Y-98247656D01*
X173494599Y-98241908D01*
X173533999Y-98238028D01*
X173534000Y-98238028D01*
X173538304Y-98238452D01*
X173573400Y-98241908D01*
X173592346Y-98247656D01*
X173611290Y-98253402D01*
X173646209Y-98272066D01*
X173676816Y-98297184D01*
X173701934Y-98327790D01*
X173720598Y-98362709D01*
X173726345Y-98381653D01*
X173732092Y-98400599D01*
X173735000Y-98430126D01*
X173735000Y-98899874D01*
X173732092Y-98929401D01*
X173720598Y-98967291D01*
X173701934Y-99002210D01*
X173701931Y-99002214D01*
X173700401Y-99005076D01*
X173691024Y-99027714D01*
X173686243Y-99051747D01*
X173686243Y-99076252D01*
X173691023Y-99100285D01*
X173700400Y-99122924D01*
X173714013Y-99143298D01*
X173731340Y-99160626D01*
X173751361Y-99174004D01*
X173756066Y-99182806D01*
X173771611Y-99201748D01*
X173790553Y-99217293D01*
X173812164Y-99228844D01*
X173835613Y-99235957D01*
X173859999Y-99238359D01*
X173884385Y-99235957D01*
X173907834Y-99228844D01*
X173918924Y-99223599D01*
X173921786Y-99222069D01*
X173921790Y-99222066D01*
X173956709Y-99203402D01*
X173994599Y-99191908D01*
X174024126Y-99189000D01*
X174493874Y-99189000D01*
X174523401Y-99191908D01*
X174542347Y-99197655D01*
X174561291Y-99203402D01*
X174596210Y-99222066D01*
X174626816Y-99247184D01*
X174651934Y-99277790D01*
X174669466Y-99310590D01*
X174670597Y-99312707D01*
X174682092Y-99350599D01*
X174685972Y-99390000D01*
X174682092Y-99429401D01*
X174682091Y-99429403D01*
X174670598Y-99467291D01*
X174651934Y-99502210D01*
X174626816Y-99532816D01*
X174613945Y-99543379D01*
X174596623Y-99560701D01*
X174583009Y-99581075D01*
X174573632Y-99603714D01*
X174568851Y-99627747D01*
X174568851Y-99652251D01*
X174573631Y-99676284D01*
X174583008Y-99698923D01*
X174596622Y-99719298D01*
X174613945Y-99736621D01*
X174626816Y-99747184D01*
X174651934Y-99777790D01*
X174669466Y-99810590D01*
X174670597Y-99812707D01*
X174682092Y-99850599D01*
X174685972Y-99890000D01*
X174682092Y-99929401D01*
X174682091Y-99929403D01*
X174670598Y-99967291D01*
X174651934Y-100002210D01*
X174626816Y-100032816D01*
X174613945Y-100043379D01*
X174596623Y-100060701D01*
X174583009Y-100081075D01*
X174573632Y-100103714D01*
X174568851Y-100127747D01*
X174568851Y-100152251D01*
X174573631Y-100176284D01*
X174583008Y-100198923D01*
X174596622Y-100219298D01*
X174613945Y-100236621D01*
X174626816Y-100247184D01*
X174651934Y-100277790D01*
X174669466Y-100310590D01*
X174670597Y-100312707D01*
X174682092Y-100350599D01*
X174685972Y-100390000D01*
X174682092Y-100429401D01*
X174682091Y-100429403D01*
X174670598Y-100467291D01*
X174651934Y-100502210D01*
X174626816Y-100532816D01*
X174613945Y-100543379D01*
X174596623Y-100560701D01*
X174583009Y-100581075D01*
X174573632Y-100603714D01*
X174568851Y-100627747D01*
X174568851Y-100652251D01*
X174573631Y-100676284D01*
X174583008Y-100698923D01*
X174596622Y-100719298D01*
X174613945Y-100736621D01*
X174626816Y-100747184D01*
X174651934Y-100777790D01*
X174669466Y-100810590D01*
X174670597Y-100812707D01*
X174682092Y-100850599D01*
X174685972Y-100890000D01*
X174682092Y-100929401D01*
X174682091Y-100929403D01*
X174670598Y-100967291D01*
X174651934Y-101002210D01*
X174626816Y-101032816D01*
X174596210Y-101057934D01*
X174561291Y-101076598D01*
X174542347Y-101082344D01*
X174523401Y-101088092D01*
X174493874Y-101091000D01*
X174024126Y-101091000D01*
X173994599Y-101088092D01*
X173956709Y-101076598D01*
X173956707Y-101076597D01*
X173921790Y-101057934D01*
X173921786Y-101057931D01*
X173918924Y-101056401D01*
X173896286Y-101047024D01*
X173872253Y-101042243D01*
X173847748Y-101042243D01*
X173823715Y-101047023D01*
X173801076Y-101056400D01*
X173780702Y-101070013D01*
X173763374Y-101087340D01*
X173749996Y-101107361D01*
X173741194Y-101112066D01*
X173722252Y-101127611D01*
X173706707Y-101146553D01*
X173695156Y-101168164D01*
X173688043Y-101191613D01*
X173685641Y-101215999D01*
X173688043Y-101240385D01*
X173695156Y-101263834D01*
X173700401Y-101274924D01*
X173701931Y-101277786D01*
X173701934Y-101277790D01*
X173720597Y-101312708D01*
X173720598Y-101312709D01*
X173732092Y-101350599D01*
X173735000Y-101380126D01*
X173735000Y-101849874D01*
X173732092Y-101879401D01*
X173732091Y-101879403D01*
X173720598Y-101917291D01*
X173701934Y-101952210D01*
X173676816Y-101982816D01*
X173646210Y-102007934D01*
X173611291Y-102026598D01*
X173592347Y-102032345D01*
X173573401Y-102038092D01*
X173534001Y-102041972D01*
X173534000Y-102041972D01*
X173529696Y-102041548D01*
X173494600Y-102038092D01*
X173475654Y-102032345D01*
X173456710Y-102026598D01*
X173421791Y-102007934D01*
X173391185Y-101982816D01*
X173380617Y-101969939D01*
X173363302Y-101952624D01*
X173342928Y-101939009D01*
X173320290Y-101929631D01*
X173296257Y-101924850D01*
X173271753Y-101924850D01*
X173247719Y-101929629D01*
X173225080Y-101939006D01*
X173204705Y-101952619D01*
X173187379Y-101969945D01*
X173176816Y-101982816D01*
X173146210Y-102007934D01*
X173111291Y-102026598D01*
X173092347Y-102032345D01*
X173073401Y-102038092D01*
X173034001Y-102041972D01*
X173034000Y-102041972D01*
X173029696Y-102041548D01*
X172994600Y-102038092D01*
X172975654Y-102032345D01*
X172956710Y-102026598D01*
X172921791Y-102007934D01*
X172891185Y-101982816D01*
X172880617Y-101969939D01*
X172863302Y-101952624D01*
X172842928Y-101939009D01*
X172820290Y-101929631D01*
X172796257Y-101924850D01*
X172771753Y-101924850D01*
X172747719Y-101929629D01*
X172725080Y-101939006D01*
X172704705Y-101952619D01*
X172687379Y-101969945D01*
X172676816Y-101982816D01*
X172646210Y-102007934D01*
X172611291Y-102026598D01*
X172592347Y-102032345D01*
X172573401Y-102038092D01*
X172534001Y-102041972D01*
X172534000Y-102041972D01*
X172529696Y-102041548D01*
X172494600Y-102038092D01*
X172475654Y-102032345D01*
X172456710Y-102026598D01*
X172421791Y-102007934D01*
X172391185Y-101982816D01*
X172380617Y-101969939D01*
X172363302Y-101952624D01*
X172342928Y-101939009D01*
X172320290Y-101929631D01*
X172296257Y-101924850D01*
X172271753Y-101924850D01*
X172247719Y-101929629D01*
X172225080Y-101939006D01*
X172204705Y-101952619D01*
X172187379Y-101969945D01*
X172176816Y-101982816D01*
X172146210Y-102007934D01*
X172111291Y-102026598D01*
X172092347Y-102032345D01*
X172073401Y-102038092D01*
X172034001Y-102041972D01*
X172034000Y-102041972D01*
X172029696Y-102041548D01*
X171994600Y-102038092D01*
X171975654Y-102032345D01*
X171956710Y-102026598D01*
X171921791Y-102007934D01*
X171891185Y-101982816D01*
X171866067Y-101952210D01*
X171847403Y-101917291D01*
X171835910Y-101879403D01*
X171835909Y-101879401D01*
X171833000Y-101849869D01*
X171833000Y-101380127D01*
X171835908Y-101350600D01*
X171847403Y-101312708D01*
X171848556Y-101310552D01*
X171866066Y-101277791D01*
X171866069Y-101277787D01*
X171867599Y-101274925D01*
X171876977Y-101252287D01*
X171881758Y-101228254D01*
X171881758Y-101203749D01*
X171876978Y-101179716D01*
X171867601Y-101157077D01*
X171853988Y-101136702D01*
X171836661Y-101119375D01*
X171816639Y-101105996D01*
X171811934Y-101097194D01*
X171796389Y-101078252D01*
X171777447Y-101062707D01*
X171755836Y-101051156D01*
X171732387Y-101044043D01*
X171708001Y-101041641D01*
X171683615Y-101044043D01*
X171660166Y-101051156D01*
X171649076Y-101056401D01*
X171646214Y-101057931D01*
X171646210Y-101057934D01*
X171611293Y-101076597D01*
X171611291Y-101076598D01*
X171573401Y-101088092D01*
X171543874Y-101091000D01*
X171074126Y-101091000D01*
X171044599Y-101088092D01*
X171025653Y-101082344D01*
X171006709Y-101076598D01*
X170971790Y-101057934D01*
X170941184Y-101032816D01*
X170916066Y-101002210D01*
X170897402Y-100967291D01*
X170885909Y-100929403D01*
X170885908Y-100929401D01*
X170882028Y-100890000D01*
X170885908Y-100850599D01*
X170897403Y-100812707D01*
X170898534Y-100810590D01*
X170916066Y-100777790D01*
X170941184Y-100747184D01*
X170954055Y-100736621D01*
X170971377Y-100719299D01*
X170984991Y-100698925D01*
X170994368Y-100676286D01*
X170999149Y-100652253D01*
X170999149Y-100627749D01*
X170994369Y-100603716D01*
X170984992Y-100581077D01*
X170971378Y-100560702D01*
X170954055Y-100543379D01*
X170941184Y-100532816D01*
X170916066Y-100502210D01*
X170897402Y-100467291D01*
X170885909Y-100429403D01*
X170885908Y-100429401D01*
X170882028Y-100390000D01*
X170885908Y-100350599D01*
X170897403Y-100312707D01*
X170898534Y-100310590D01*
X170916066Y-100277790D01*
X170941184Y-100247184D01*
X170954055Y-100236621D01*
X170971377Y-100219299D01*
X170984991Y-100198925D01*
X170994368Y-100176286D01*
X170999149Y-100152253D01*
X170999149Y-100127749D01*
X170994369Y-100103716D01*
X170984992Y-100081077D01*
X170971378Y-100060702D01*
X170954055Y-100043379D01*
X170941184Y-100032816D01*
X170916066Y-100002210D01*
X170897402Y-99967291D01*
X170885909Y-99929403D01*
X170885908Y-99929401D01*
X170882028Y-99890000D01*
X170885908Y-99850599D01*
X170897403Y-99812707D01*
X170898534Y-99810590D01*
X170916066Y-99777790D01*
X170941184Y-99747184D01*
X170954055Y-99736621D01*
X170971377Y-99719299D01*
X170984991Y-99698925D01*
X170994368Y-99676286D01*
X170999149Y-99652253D01*
X170999149Y-99627749D01*
X170994369Y-99603716D01*
X170984992Y-99581077D01*
X170971378Y-99560702D01*
X170954055Y-99543379D01*
X170941184Y-99532816D01*
X170916066Y-99502210D01*
X170897402Y-99467291D01*
X170885909Y-99429403D01*
X170885908Y-99429401D01*
X170882028Y-99390000D01*
X170885908Y-99350599D01*
X170897403Y-99312707D01*
X170898534Y-99310590D01*
X170916066Y-99277790D01*
X170941184Y-99247184D01*
X170971790Y-99222066D01*
X171006709Y-99203402D01*
X171025653Y-99197655D01*
X171044599Y-99191908D01*
X171074126Y-99189000D01*
X171543874Y-99189000D01*
X171573401Y-99191908D01*
X171611291Y-99203402D01*
X171646210Y-99222066D01*
X171646214Y-99222069D01*
X171649076Y-99223599D01*
X171671714Y-99232976D01*
X171695747Y-99237757D01*
X171720252Y-99237757D01*
X171744285Y-99232977D01*
X171766924Y-99223600D01*
X171787298Y-99209987D01*
X171804626Y-99192660D01*
X171818003Y-99172640D01*
X171826807Y-99167934D01*
X171845749Y-99152389D01*
X171861294Y-99133447D01*
X171872845Y-99111836D01*
X171879958Y-99088387D01*
X171882360Y-99064001D01*
X171879958Y-99039615D01*
X171872845Y-99016166D01*
X171867600Y-99005076D01*
X171866070Y-99002214D01*
X171866067Y-99002210D01*
X171847403Y-98967291D01*
X171835909Y-98929401D01*
X171833000Y-98899869D01*
X171833000Y-98430127D01*
X171835908Y-98400600D01*
X171847403Y-98362708D01*
X171866065Y-98327793D01*
X171866066Y-98327791D01*
X171891184Y-98297184D01*
X171921790Y-98272066D01*
X171956709Y-98253402D01*
X171975653Y-98247656D01*
X171994599Y-98241908D01*
X172033999Y-98238028D01*
X172034000Y-98238028D01*
X172038304Y-98238452D01*
X172038304Y-98238452D01*
G37*
G36*
X175688000Y-101528000D02*
G01*
X175086000Y-101528000D01*
X175086000Y-100826000D01*
X175688000Y-100826000D01*
X175688000Y-101528000D01*
X175688000Y-101528000D01*
G37*
G36*
X201669000Y-101096000D02*
G01*
X199017000Y-101096000D01*
X199017000Y-98294000D01*
X201669000Y-98294000D01*
X201669000Y-101096000D01*
X201669000Y-101096000D01*
G37*
G36*
X195319000Y-101096000D02*
G01*
X192667000Y-101096000D01*
X192667000Y-98294000D01*
X195319000Y-98294000D01*
X195319000Y-101096000D01*
X195319000Y-101096000D01*
G37*
G36*
X169053000Y-100576000D02*
G01*
X167751000Y-100576000D01*
X167751000Y-98974000D01*
X169053000Y-98974000D01*
X169053000Y-100576000D01*
X169053000Y-100576000D01*
G37*
G36*
X163855000Y-100423500D02*
G01*
X161393000Y-100423500D01*
X161393000Y-99261500D01*
X163855000Y-99261500D01*
X163855000Y-100423500D01*
X163855000Y-100423500D01*
G37*
G36*
X107009000Y-100342000D02*
G01*
X105207000Y-100342000D01*
X105207000Y-98540000D01*
X107009000Y-98540000D01*
X107009000Y-100342000D01*
X107009000Y-100342000D01*
G37*
G36*
X189452564Y-98034389D02*
G01*
X189556643Y-98077500D01*
X189643835Y-98113616D01*
X189808288Y-98223500D01*
X189815973Y-98228635D01*
X189962365Y-98375027D01*
X190077385Y-98547167D01*
X190156611Y-98738436D01*
X190197000Y-98941484D01*
X190197000Y-99148516D01*
X190156611Y-99351564D01*
X190081534Y-99532816D01*
X190077384Y-99542835D01*
X189962365Y-99714973D01*
X189815973Y-99861365D01*
X189643835Y-99976384D01*
X189643834Y-99976385D01*
X189643833Y-99976385D01*
X189452564Y-100055611D01*
X189249516Y-100096000D01*
X189042484Y-100096000D01*
X188839436Y-100055611D01*
X188648167Y-99976385D01*
X188648166Y-99976385D01*
X188648165Y-99976384D01*
X188476027Y-99861365D01*
X188329635Y-99714973D01*
X188214616Y-99542835D01*
X188210466Y-99532816D01*
X188135389Y-99351564D01*
X188095000Y-99148516D01*
X188095000Y-98941484D01*
X188135389Y-98738436D01*
X188214615Y-98547167D01*
X188329635Y-98375027D01*
X188476027Y-98228635D01*
X188483712Y-98223500D01*
X188648165Y-98113616D01*
X188735357Y-98077500D01*
X188839436Y-98034389D01*
X189042484Y-97994000D01*
X189249516Y-97994000D01*
X189452564Y-98034389D01*
X189452564Y-98034389D01*
G37*
G36*
X177063000Y-100095000D02*
G01*
X175361000Y-100095000D01*
X175361000Y-98993000D01*
X177063000Y-98993000D01*
X177063000Y-100095000D01*
X177063000Y-100095000D01*
G37*
G36*
X160639000Y-99643500D02*
G01*
X160037000Y-99643500D01*
X160037000Y-98941500D01*
X160639000Y-98941500D01*
X160639000Y-99643500D01*
X160639000Y-99643500D01*
G37*
G36*
X137934000Y-99143500D02*
G01*
X137232000Y-99143500D01*
X137232000Y-98341500D01*
X137934000Y-98341500D01*
X137934000Y-99143500D01*
X137934000Y-99143500D01*
G37*
G36*
X136834000Y-99143500D02*
G01*
X136132000Y-99143500D01*
X136132000Y-98341500D01*
X136834000Y-98341500D01*
X136834000Y-99143500D01*
X136834000Y-99143500D01*
G37*
G36*
X133728000Y-99135500D02*
G01*
X132976000Y-99135500D01*
X132976000Y-97333500D01*
X133728000Y-97333500D01*
X133728000Y-99135500D01*
X133728000Y-99135500D01*
G37*
G36*
X135628000Y-99135500D02*
G01*
X134876000Y-99135500D01*
X134876000Y-98633500D01*
X135628000Y-98633500D01*
X135628000Y-99135500D01*
X135628000Y-99135500D01*
G37*
G36*
X160639000Y-98543500D02*
G01*
X160037000Y-98543500D01*
X160037000Y-97841500D01*
X160639000Y-97841500D01*
X160639000Y-98543500D01*
X160639000Y-98543500D01*
G37*
G36*
X163855000Y-98223500D02*
G01*
X161393000Y-98223500D01*
X161393000Y-97061500D01*
X163855000Y-97061500D01*
X163855000Y-98223500D01*
X163855000Y-98223500D01*
G37*
G36*
X137734000Y-98077500D02*
G01*
X137232000Y-98077500D01*
X137232000Y-97375500D01*
X137734000Y-97375500D01*
X137734000Y-98077500D01*
X137734000Y-98077500D01*
G37*
G36*
X136834000Y-98077500D02*
G01*
X136332000Y-98077500D01*
X136332000Y-97375500D01*
X136834000Y-97375500D01*
X136834000Y-98077500D01*
X136834000Y-98077500D01*
G37*
G36*
X169053000Y-97876000D02*
G01*
X167751000Y-97876000D01*
X167751000Y-96274000D01*
X169053000Y-96274000D01*
X169053000Y-97876000D01*
X169053000Y-97876000D01*
G37*
G36*
X135628000Y-97835500D02*
G01*
X134876000Y-97835500D01*
X134876000Y-97333500D01*
X135628000Y-97333500D01*
X135628000Y-97835500D01*
X135628000Y-97835500D01*
G37*
G36*
X174771000Y-97688500D02*
G01*
X173669000Y-97688500D01*
X173669000Y-95986500D01*
X174771000Y-95986500D01*
X174771000Y-97688500D01*
X174771000Y-97688500D01*
G37*
G36*
X171771000Y-97688500D02*
G01*
X170669000Y-97688500D01*
X170669000Y-95986500D01*
X171771000Y-95986500D01*
X171771000Y-97688500D01*
X171771000Y-97688500D01*
G37*
G36*
X177063000Y-97095000D02*
G01*
X175361000Y-97095000D01*
X175361000Y-95993000D01*
X177063000Y-95993000D01*
X177063000Y-97095000D01*
X177063000Y-97095000D01*
G37*
G36*
X201613000Y-96755000D02*
G01*
X198311000Y-96755000D01*
X198311000Y-95853000D01*
X201613000Y-95853000D01*
X201613000Y-96755000D01*
X201613000Y-96755000D01*
G37*
G36*
X164223000Y-96630500D02*
G01*
X163521000Y-96630500D01*
X163521000Y-96028500D01*
X164223000Y-96028500D01*
X164223000Y-96630500D01*
X164223000Y-96630500D01*
G37*
G36*
X163123000Y-96630500D02*
G01*
X162421000Y-96630500D01*
X162421000Y-96028500D01*
X163123000Y-96028500D01*
X163123000Y-96630500D01*
X163123000Y-96630500D01*
G37*
G36*
X196841000Y-96363000D02*
G01*
X196339000Y-96363000D01*
X196339000Y-95661000D01*
X196841000Y-95661000D01*
X196841000Y-96363000D01*
X196841000Y-96363000D01*
G37*
G36*
X197741000Y-96363000D02*
G01*
X197239000Y-96363000D01*
X197239000Y-95661000D01*
X197741000Y-95661000D01*
X197741000Y-96363000D01*
X197741000Y-96363000D01*
G37*
G36*
X195169000Y-96205000D02*
G01*
X194467000Y-96205000D01*
X194467000Y-95703000D01*
X195169000Y-95703000D01*
X195169000Y-96205000D01*
X195169000Y-96205000D01*
G37*
G36*
X170053000Y-95739000D02*
G01*
X166751000Y-95739000D01*
X166751000Y-94837000D01*
X170053000Y-94837000D01*
X170053000Y-95739000D01*
X170053000Y-95739000D01*
G37*
G36*
X177579000Y-95570000D02*
G01*
X176877000Y-95570000D01*
X176877000Y-95068000D01*
X177579000Y-95068000D01*
X177579000Y-95570000D01*
X177579000Y-95570000D01*
G37*
G36*
X196841000Y-95347000D02*
G01*
X196339000Y-95347000D01*
X196339000Y-94645000D01*
X196841000Y-94645000D01*
X196841000Y-95347000D01*
X196841000Y-95347000D01*
G37*
G36*
X165282000Y-95347000D02*
G01*
X164780000Y-95347000D01*
X164780000Y-94645000D01*
X165282000Y-94645000D01*
X165282000Y-95347000D01*
X165282000Y-95347000D01*
G37*
G36*
X166182000Y-95347000D02*
G01*
X165680000Y-95347000D01*
X165680000Y-94645000D01*
X166182000Y-94645000D01*
X166182000Y-95347000D01*
X166182000Y-95347000D01*
G37*
G36*
X197741000Y-95347000D02*
G01*
X197239000Y-95347000D01*
X197239000Y-94645000D01*
X197741000Y-94645000D01*
X197741000Y-95347000D01*
X197741000Y-95347000D01*
G37*
G36*
X195169000Y-95305000D02*
G01*
X194467000Y-95305000D01*
X194467000Y-94803000D01*
X195169000Y-94803000D01*
X195169000Y-95305000D01*
X195169000Y-95305000D01*
G37*
G36*
X173713000Y-95254000D02*
G01*
X172711000Y-95254000D01*
X172711000Y-94352000D01*
X173713000Y-94352000D01*
X173713000Y-95254000D01*
X173713000Y-95254000D01*
G37*
G36*
X175600000Y-95254000D02*
G01*
X175048000Y-95254000D01*
X175048000Y-94452000D01*
X175600000Y-94452000D01*
X175600000Y-95254000D01*
X175600000Y-95254000D01*
G37*
G36*
X179092000Y-95190500D02*
G01*
X178540000Y-95190500D01*
X178540000Y-94488500D01*
X179092000Y-94488500D01*
X179092000Y-95190500D01*
X179092000Y-95190500D01*
G37*
G36*
X201613000Y-95155000D02*
G01*
X198311000Y-95155000D01*
X198311000Y-94253000D01*
X201613000Y-94253000D01*
X201613000Y-95155000D01*
X201613000Y-95155000D01*
G37*
G36*
X136834000Y-95016000D02*
G01*
X136132000Y-95016000D01*
X136132000Y-94214000D01*
X136834000Y-94214000D01*
X136834000Y-95016000D01*
X136834000Y-95016000D01*
G37*
G36*
X137934000Y-95016000D02*
G01*
X137232000Y-95016000D01*
X137232000Y-94214000D01*
X137934000Y-94214000D01*
X137934000Y-95016000D01*
X137934000Y-95016000D01*
G37*
G36*
X133728000Y-95008000D02*
G01*
X132976000Y-95008000D01*
X132976000Y-93206000D01*
X133728000Y-93206000D01*
X133728000Y-95008000D01*
X133728000Y-95008000D01*
G37*
G36*
X135628000Y-95008000D02*
G01*
X134876000Y-95008000D01*
X134876000Y-94506000D01*
X135628000Y-94506000D01*
X135628000Y-95008000D01*
X135628000Y-95008000D01*
G37*
G36*
X177579000Y-94670000D02*
G01*
X176877000Y-94670000D01*
X176877000Y-94168000D01*
X177579000Y-94168000D01*
X177579000Y-94670000D01*
X177579000Y-94670000D01*
G37*
G36*
X166182000Y-94331000D02*
G01*
X165680000Y-94331000D01*
X165680000Y-93629000D01*
X166182000Y-93629000D01*
X166182000Y-94331000D01*
X166182000Y-94331000D01*
G37*
G36*
X165282000Y-94331000D02*
G01*
X164780000Y-94331000D01*
X164780000Y-93629000D01*
X165282000Y-93629000D01*
X165282000Y-94331000D01*
X165282000Y-94331000D01*
G37*
G36*
X106218443Y-92514019D02*
G01*
X106284627Y-92520537D01*
X106454466Y-92572057D01*
X106610991Y-92655722D01*
X106636309Y-92676500D01*
X106748186Y-92768314D01*
X106813858Y-92848337D01*
X106860778Y-92905509D01*
X106944443Y-93062034D01*
X106995963Y-93231873D01*
X107013359Y-93408500D01*
X106995963Y-93585127D01*
X106944443Y-93754966D01*
X106860778Y-93911491D01*
X106831448Y-93947229D01*
X106748186Y-94048686D01*
X106646729Y-94131948D01*
X106610991Y-94161278D01*
X106454466Y-94244943D01*
X106284627Y-94296463D01*
X106218443Y-94302981D01*
X106152260Y-94309500D01*
X106063740Y-94309500D01*
X105997557Y-94302981D01*
X105931373Y-94296463D01*
X105761534Y-94244943D01*
X105605009Y-94161278D01*
X105569271Y-94131948D01*
X105467814Y-94048686D01*
X105384552Y-93947229D01*
X105355222Y-93911491D01*
X105271557Y-93754966D01*
X105220037Y-93585127D01*
X105202641Y-93408500D01*
X105220037Y-93231873D01*
X105271557Y-93062034D01*
X105355222Y-92905509D01*
X105402142Y-92848337D01*
X105467814Y-92768314D01*
X105579691Y-92676500D01*
X105605009Y-92655722D01*
X105761534Y-92572057D01*
X105931373Y-92520537D01*
X105997557Y-92514019D01*
X106063740Y-92507500D01*
X106152260Y-92507500D01*
X106218443Y-92514019D01*
X106218443Y-92514019D01*
G37*
G36*
X171713000Y-94304000D02*
G01*
X170711000Y-94304000D01*
X170711000Y-93402000D01*
X171713000Y-93402000D01*
X171713000Y-94304000D01*
X171713000Y-94304000D01*
G37*
G36*
X151037000Y-94173000D02*
G01*
X150335000Y-94173000D01*
X150335000Y-93671000D01*
X151037000Y-93671000D01*
X151037000Y-94173000D01*
X151037000Y-94173000D01*
G37*
G36*
X149639000Y-94173000D02*
G01*
X148937000Y-94173000D01*
X148937000Y-93671000D01*
X149639000Y-93671000D01*
X149639000Y-94173000D01*
X149639000Y-94173000D01*
G37*
G36*
X170053000Y-94139000D02*
G01*
X166751000Y-94139000D01*
X166751000Y-93237000D01*
X170053000Y-93237000D01*
X170053000Y-94139000D01*
X170053000Y-94139000D01*
G37*
G36*
X136834000Y-93950000D02*
G01*
X136332000Y-93950000D01*
X136332000Y-93248000D01*
X136834000Y-93248000D01*
X136834000Y-93950000D01*
X136834000Y-93950000D01*
G37*
G36*
X137734000Y-93950000D02*
G01*
X137232000Y-93950000D01*
X137232000Y-93248000D01*
X137734000Y-93248000D01*
X137734000Y-93950000D01*
X137734000Y-93950000D01*
G37*
G36*
X177529000Y-93865000D02*
G01*
X176927000Y-93865000D01*
X176927000Y-93163000D01*
X177529000Y-93163000D01*
X177529000Y-93865000D01*
X177529000Y-93865000D01*
G37*
G36*
X135628000Y-93708000D02*
G01*
X134876000Y-93708000D01*
X134876000Y-93206000D01*
X135628000Y-93206000D01*
X135628000Y-93708000D01*
X135628000Y-93708000D01*
G37*
G36*
X116831000Y-93569000D02*
G01*
X116329000Y-93569000D01*
X116329000Y-92867000D01*
X116831000Y-92867000D01*
X116831000Y-93569000D01*
X116831000Y-93569000D01*
G37*
G36*
X117731000Y-93569000D02*
G01*
X117229000Y-93569000D01*
X117229000Y-92867000D01*
X117731000Y-92867000D01*
X117731000Y-93569000D01*
X117731000Y-93569000D01*
G37*
G36*
X201656928Y-92679264D02*
G01*
X201678009Y-92685660D01*
X201697445Y-92696048D01*
X201714476Y-92710024D01*
X201728452Y-92727055D01*
X201738840Y-92746491D01*
X201745236Y-92767572D01*
X201748000Y-92795640D01*
X201748000Y-93259360D01*
X201745236Y-93287428D01*
X201738840Y-93308509D01*
X201728452Y-93327945D01*
X201714476Y-93344976D01*
X201697445Y-93358952D01*
X201678009Y-93369340D01*
X201656928Y-93375736D01*
X201628860Y-93378500D01*
X199815140Y-93378500D01*
X199787072Y-93375736D01*
X199765991Y-93369340D01*
X199746555Y-93358952D01*
X199729524Y-93344976D01*
X199715548Y-93327945D01*
X199705160Y-93308509D01*
X199698764Y-93287428D01*
X199696000Y-93259360D01*
X199696000Y-92795640D01*
X199698764Y-92767572D01*
X199705160Y-92746491D01*
X199715548Y-92727055D01*
X199729524Y-92710024D01*
X199746555Y-92696048D01*
X199765991Y-92685660D01*
X199787072Y-92679264D01*
X199815140Y-92676500D01*
X201628860Y-92676500D01*
X201656928Y-92679264D01*
X201656928Y-92679264D01*
G37*
G36*
X196706928Y-92679264D02*
G01*
X196728009Y-92685660D01*
X196747445Y-92696048D01*
X196764476Y-92710024D01*
X196778452Y-92727055D01*
X196788840Y-92746491D01*
X196795236Y-92767572D01*
X196798000Y-92795640D01*
X196798000Y-93259360D01*
X196795236Y-93287428D01*
X196788840Y-93308509D01*
X196778452Y-93327945D01*
X196764476Y-93344976D01*
X196747445Y-93358952D01*
X196728009Y-93369340D01*
X196706928Y-93375736D01*
X196678860Y-93378500D01*
X194865140Y-93378500D01*
X194837072Y-93375736D01*
X194815991Y-93369340D01*
X194796555Y-93358952D01*
X194779524Y-93344976D01*
X194765548Y-93327945D01*
X194755160Y-93308509D01*
X194748764Y-93287428D01*
X194746000Y-93259360D01*
X194746000Y-92795640D01*
X194748764Y-92767572D01*
X194755160Y-92746491D01*
X194765548Y-92727055D01*
X194779524Y-92710024D01*
X194796555Y-92696048D01*
X194815991Y-92685660D01*
X194837072Y-92679264D01*
X194865140Y-92676500D01*
X196678860Y-92676500D01*
X196706928Y-92679264D01*
X196706928Y-92679264D01*
G37*
G36*
X173713000Y-93354000D02*
G01*
X172711000Y-93354000D01*
X172711000Y-92452000D01*
X173713000Y-92452000D01*
X173713000Y-93354000D01*
X173713000Y-93354000D01*
G37*
G36*
X151037000Y-93273000D02*
G01*
X150335000Y-93273000D01*
X150335000Y-92771000D01*
X151037000Y-92771000D01*
X151037000Y-93273000D01*
X151037000Y-93273000D01*
G37*
G36*
X149639000Y-93273000D02*
G01*
X148937000Y-93273000D01*
X148937000Y-92771000D01*
X149639000Y-92771000D01*
X149639000Y-93273000D01*
X149639000Y-93273000D01*
G37*
G36*
X176250000Y-93254000D02*
G01*
X175698000Y-93254000D01*
X175698000Y-92452000D01*
X176250000Y-92452000D01*
X176250000Y-93254000D01*
X176250000Y-93254000D01*
G37*
G36*
X174950000Y-93254000D02*
G01*
X174398000Y-93254000D01*
X174398000Y-92452000D01*
X174950000Y-92452000D01*
X174950000Y-93254000D01*
X174950000Y-93254000D01*
G37*
G36*
X179092000Y-93090500D02*
G01*
X178540000Y-93090500D01*
X178540000Y-92388500D01*
X179092000Y-92388500D01*
X179092000Y-93090500D01*
X179092000Y-93090500D01*
G37*
G36*
X165714642Y-91368281D02*
G01*
X165854103Y-91426048D01*
X165860416Y-91428663D01*
X165991608Y-91516322D01*
X166103178Y-91627892D01*
X166190837Y-91759084D01*
X166190838Y-91759086D01*
X166251219Y-91904858D01*
X166282000Y-92059607D01*
X166282000Y-92217393D01*
X166251219Y-92372142D01*
X166190838Y-92517914D01*
X166190837Y-92517916D01*
X166103178Y-92649108D01*
X165991608Y-92760678D01*
X165860416Y-92848337D01*
X165860415Y-92848338D01*
X165860414Y-92848338D01*
X165714642Y-92908719D01*
X165559893Y-92939500D01*
X165402107Y-92939500D01*
X165247358Y-92908719D01*
X165101586Y-92848338D01*
X165101585Y-92848338D01*
X165101584Y-92848337D01*
X164970392Y-92760678D01*
X164858822Y-92649108D01*
X164771163Y-92517916D01*
X164771162Y-92517914D01*
X164710781Y-92372142D01*
X164680000Y-92217393D01*
X164680000Y-92059607D01*
X164710781Y-91904858D01*
X164771162Y-91759086D01*
X164771163Y-91759084D01*
X164858822Y-91627892D01*
X164970392Y-91516322D01*
X165101584Y-91428663D01*
X165107897Y-91426048D01*
X165247358Y-91368281D01*
X165402107Y-91337500D01*
X165559893Y-91337500D01*
X165714642Y-91368281D01*
X165714642Y-91368281D01*
G37*
G36*
X157471000Y-92807000D02*
G01*
X156969000Y-92807000D01*
X156969000Y-92105000D01*
X157471000Y-92105000D01*
X157471000Y-92807000D01*
X157471000Y-92807000D01*
G37*
G36*
X158371000Y-92807000D02*
G01*
X157869000Y-92807000D01*
X157869000Y-92105000D01*
X158371000Y-92105000D01*
X158371000Y-92807000D01*
X158371000Y-92807000D01*
G37*
G36*
X177529000Y-92765000D02*
G01*
X176927000Y-92765000D01*
X176927000Y-92063000D01*
X177529000Y-92063000D01*
X177529000Y-92765000D01*
X177529000Y-92765000D01*
G37*
G36*
X114379642Y-91164781D02*
G01*
X114525414Y-91225162D01*
X114525416Y-91225163D01*
X114656608Y-91312822D01*
X114768178Y-91424392D01*
X114855837Y-91555584D01*
X114855838Y-91555586D01*
X114916219Y-91701358D01*
X114947000Y-91856107D01*
X114947000Y-92013893D01*
X114916219Y-92168642D01*
X114882933Y-92249000D01*
X114855837Y-92314416D01*
X114768178Y-92445608D01*
X114656608Y-92557178D01*
X114525416Y-92644837D01*
X114525415Y-92644838D01*
X114525414Y-92644838D01*
X114379642Y-92705219D01*
X114224893Y-92736000D01*
X114067107Y-92736000D01*
X113912358Y-92705219D01*
X113766586Y-92644838D01*
X113766585Y-92644838D01*
X113766584Y-92644837D01*
X113635392Y-92557178D01*
X113523822Y-92445608D01*
X113436163Y-92314416D01*
X113409067Y-92249000D01*
X113375781Y-92168642D01*
X113345000Y-92013893D01*
X113345000Y-91856107D01*
X113375781Y-91701358D01*
X113436162Y-91555586D01*
X113436163Y-91555584D01*
X113523822Y-91424392D01*
X113635392Y-91312822D01*
X113766584Y-91225163D01*
X113766586Y-91225162D01*
X113912358Y-91164781D01*
X114067107Y-91134000D01*
X114224893Y-91134000D01*
X114379642Y-91164781D01*
X114379642Y-91164781D01*
G37*
G36*
X189379642Y-91164781D02*
G01*
X189525414Y-91225162D01*
X189525416Y-91225163D01*
X189656608Y-91312822D01*
X189768178Y-91424392D01*
X189855837Y-91555584D01*
X189855838Y-91555586D01*
X189916219Y-91701358D01*
X189947000Y-91856107D01*
X189947000Y-92013893D01*
X189916219Y-92168642D01*
X189882933Y-92249000D01*
X189855837Y-92314416D01*
X189768178Y-92445608D01*
X189656608Y-92557178D01*
X189525416Y-92644837D01*
X189525415Y-92644838D01*
X189525414Y-92644838D01*
X189379642Y-92705219D01*
X189224893Y-92736000D01*
X189067107Y-92736000D01*
X188912358Y-92705219D01*
X188766586Y-92644838D01*
X188766585Y-92644838D01*
X188766584Y-92644837D01*
X188635392Y-92557178D01*
X188523822Y-92445608D01*
X188436163Y-92314416D01*
X188409067Y-92249000D01*
X188375781Y-92168642D01*
X188345000Y-92013893D01*
X188345000Y-91856107D01*
X188375781Y-91701358D01*
X188436162Y-91555586D01*
X188436163Y-91555584D01*
X188523822Y-91424392D01*
X188635392Y-91312822D01*
X188766584Y-91225163D01*
X188766586Y-91225162D01*
X188912358Y-91164781D01*
X189067107Y-91134000D01*
X189224893Y-91134000D01*
X189379642Y-91164781D01*
X189379642Y-91164781D01*
G37*
G36*
X160558000Y-92429000D02*
G01*
X159356000Y-92429000D01*
X159356000Y-91027000D01*
X160558000Y-91027000D01*
X160558000Y-92429000D01*
X160558000Y-92429000D01*
G37*
G36*
X162208000Y-92429000D02*
G01*
X161006000Y-92429000D01*
X161006000Y-91027000D01*
X162208000Y-91027000D01*
X162208000Y-92429000D01*
X162208000Y-92429000D01*
G37*
G36*
X117600000Y-92388000D02*
G01*
X115798000Y-92388000D01*
X115798000Y-91636000D01*
X117600000Y-91636000D01*
X117600000Y-92388000D01*
X117600000Y-92388000D01*
G37*
G36*
X149788000Y-92312500D02*
G01*
X149086000Y-92312500D01*
X149086000Y-91710500D01*
X149788000Y-91710500D01*
X149788000Y-92312500D01*
X149788000Y-92312500D01*
G37*
G36*
X150888000Y-92312500D02*
G01*
X150186000Y-92312500D01*
X150186000Y-91710500D01*
X150888000Y-91710500D01*
X150888000Y-92312500D01*
X150888000Y-92312500D01*
G37*
G36*
X187835000Y-92299000D02*
G01*
X187333000Y-92299000D01*
X187333000Y-91597000D01*
X187835000Y-91597000D01*
X187835000Y-92299000D01*
X187835000Y-92299000D01*
G37*
G36*
X186935000Y-92299000D02*
G01*
X186433000Y-92299000D01*
X186433000Y-91597000D01*
X186935000Y-91597000D01*
X186935000Y-92299000D01*
X186935000Y-92299000D01*
G37*
G36*
X153873000Y-92249000D02*
G01*
X153171000Y-92249000D01*
X153171000Y-90821500D01*
X153873000Y-90821500D01*
X153873000Y-92249000D01*
X153873000Y-92249000D01*
G37*
G36*
X152773000Y-92249000D02*
G01*
X152071000Y-92249000D01*
X152071000Y-90821500D01*
X152773000Y-90821500D01*
X152773000Y-92249000D01*
X152773000Y-92249000D01*
G37*
G36*
X196706928Y-91409264D02*
G01*
X196728009Y-91415660D01*
X196747445Y-91426048D01*
X196764476Y-91440024D01*
X196778452Y-91457055D01*
X196788840Y-91476491D01*
X196795236Y-91497572D01*
X196798000Y-91525640D01*
X196798000Y-91989360D01*
X196795236Y-92017428D01*
X196788840Y-92038509D01*
X196778452Y-92057945D01*
X196764476Y-92074976D01*
X196747445Y-92088952D01*
X196728009Y-92099340D01*
X196706928Y-92105736D01*
X196678860Y-92108500D01*
X194865140Y-92108500D01*
X194837072Y-92105736D01*
X194815991Y-92099340D01*
X194796555Y-92088952D01*
X194779524Y-92074976D01*
X194765548Y-92057945D01*
X194755160Y-92038509D01*
X194748764Y-92017428D01*
X194746000Y-91989360D01*
X194746000Y-91525640D01*
X194748764Y-91497572D01*
X194755160Y-91476491D01*
X194765548Y-91457055D01*
X194779524Y-91440024D01*
X194796555Y-91426048D01*
X194815991Y-91415660D01*
X194837072Y-91409264D01*
X194865140Y-91406500D01*
X196678860Y-91406500D01*
X196706928Y-91409264D01*
X196706928Y-91409264D01*
G37*
G36*
X201656928Y-91409264D02*
G01*
X201678009Y-91415660D01*
X201697445Y-91426048D01*
X201714476Y-91440024D01*
X201728452Y-91457055D01*
X201738840Y-91476491D01*
X201745236Y-91497572D01*
X201748000Y-91525640D01*
X201748000Y-91989360D01*
X201745236Y-92017428D01*
X201738840Y-92038509D01*
X201728452Y-92057945D01*
X201714476Y-92074976D01*
X201697445Y-92088952D01*
X201678009Y-92099340D01*
X201656928Y-92105736D01*
X201628860Y-92108500D01*
X199815140Y-92108500D01*
X199787072Y-92105736D01*
X199765991Y-92099340D01*
X199746555Y-92088952D01*
X199729524Y-92074976D01*
X199715548Y-92057945D01*
X199705160Y-92038509D01*
X199698764Y-92017428D01*
X199696000Y-91989360D01*
X199696000Y-91525640D01*
X199698764Y-91497572D01*
X199705160Y-91476491D01*
X199715548Y-91457055D01*
X199729524Y-91440024D01*
X199746555Y-91426048D01*
X199765991Y-91415660D01*
X199787072Y-91409264D01*
X199815140Y-91406500D01*
X201628860Y-91406500D01*
X201656928Y-91409264D01*
X201656928Y-91409264D01*
G37*
G36*
X185009000Y-92014000D02*
G01*
X184307000Y-92014000D01*
X184307000Y-91512000D01*
X185009000Y-91512000D01*
X185009000Y-92014000D01*
X185009000Y-92014000D01*
G37*
G36*
X118855000Y-91960000D02*
G01*
X118253000Y-91960000D01*
X118253000Y-91258000D01*
X118855000Y-91258000D01*
X118855000Y-91960000D01*
X118855000Y-91960000D01*
G37*
G36*
X176373000Y-91950500D02*
G01*
X175671000Y-91950500D01*
X175671000Y-91448500D01*
X176373000Y-91448500D01*
X176373000Y-91950500D01*
X176373000Y-91950500D01*
G37*
G36*
X106218443Y-89974019D02*
G01*
X106284627Y-89980537D01*
X106454466Y-90032057D01*
X106610991Y-90115722D01*
X106636309Y-90136500D01*
X106748186Y-90228314D01*
X106816864Y-90312000D01*
X106860778Y-90365509D01*
X106944443Y-90522034D01*
X106995963Y-90691873D01*
X107013359Y-90868500D01*
X106995963Y-91045127D01*
X106944443Y-91214966D01*
X106860778Y-91371491D01*
X106832047Y-91406500D01*
X106748186Y-91508686D01*
X106662507Y-91579000D01*
X106610991Y-91621278D01*
X106454466Y-91704943D01*
X106284627Y-91756463D01*
X106218443Y-91762981D01*
X106152260Y-91769500D01*
X106063740Y-91769500D01*
X105997557Y-91762981D01*
X105931373Y-91756463D01*
X105761534Y-91704943D01*
X105605009Y-91621278D01*
X105553493Y-91579000D01*
X105467814Y-91508686D01*
X105383953Y-91406500D01*
X105355222Y-91371491D01*
X105271557Y-91214966D01*
X105220037Y-91045127D01*
X105202641Y-90868500D01*
X105220037Y-90691873D01*
X105271557Y-90522034D01*
X105355222Y-90365509D01*
X105399136Y-90312000D01*
X105467814Y-90228314D01*
X105579691Y-90136500D01*
X105605009Y-90115722D01*
X105761534Y-90032057D01*
X105931373Y-89980537D01*
X105997557Y-89974019D01*
X106063740Y-89967500D01*
X106152260Y-89967500D01*
X106218443Y-89974019D01*
X106218443Y-89974019D01*
G37*
G36*
X157083000Y-91579000D02*
G01*
X156481000Y-91579000D01*
X156481000Y-90877000D01*
X157083000Y-90877000D01*
X157083000Y-91579000D01*
X157083000Y-91579000D01*
G37*
G36*
X157971000Y-91579000D02*
G01*
X157369000Y-91579000D01*
X157369000Y-90877000D01*
X157971000Y-90877000D01*
X157971000Y-91579000D01*
X157971000Y-91579000D01*
G37*
G36*
X158861000Y-91579000D02*
G01*
X158259000Y-91579000D01*
X158259000Y-90877000D01*
X158861000Y-90877000D01*
X158861000Y-91579000D01*
X158861000Y-91579000D01*
G37*
G36*
X149788000Y-91423500D02*
G01*
X149086000Y-91423500D01*
X149086000Y-90821500D01*
X149788000Y-90821500D01*
X149788000Y-91423500D01*
X149788000Y-91423500D01*
G37*
G36*
X150888000Y-91423500D02*
G01*
X150186000Y-91423500D01*
X150186000Y-90821500D01*
X150888000Y-90821500D01*
X150888000Y-91423500D01*
X150888000Y-91423500D01*
G37*
G36*
X179697000Y-91156000D02*
G01*
X179195000Y-91156000D01*
X179195000Y-90454000D01*
X179697000Y-90454000D01*
X179697000Y-91156000D01*
X179697000Y-91156000D01*
G37*
G36*
X180597000Y-91156000D02*
G01*
X180095000Y-91156000D01*
X180095000Y-90454000D01*
X180597000Y-90454000D01*
X180597000Y-91156000D01*
X180597000Y-91156000D01*
G37*
G36*
X185009000Y-91114000D02*
G01*
X184307000Y-91114000D01*
X184307000Y-89861000D01*
X185009000Y-89861000D01*
X185009000Y-91114000D01*
X185009000Y-91114000D01*
G37*
G36*
X176373000Y-91050500D02*
G01*
X175671000Y-91050500D01*
X175671000Y-90548500D01*
X176373000Y-90548500D01*
X176373000Y-91050500D01*
X176373000Y-91050500D01*
G37*
G36*
X136834000Y-90888500D02*
G01*
X136132000Y-90888500D01*
X136132000Y-90086500D01*
X136834000Y-90086500D01*
X136834000Y-90888500D01*
X136834000Y-90888500D01*
G37*
G36*
X137934000Y-90888500D02*
G01*
X137232000Y-90888500D01*
X137232000Y-90086500D01*
X137934000Y-90086500D01*
X137934000Y-90888500D01*
X137934000Y-90888500D01*
G37*
G36*
X133728000Y-90880500D02*
G01*
X132976000Y-90880500D01*
X132976000Y-89078500D01*
X133728000Y-89078500D01*
X133728000Y-90880500D01*
X133728000Y-90880500D01*
G37*
G36*
X135628000Y-90880500D02*
G01*
X134876000Y-90880500D01*
X134876000Y-90378500D01*
X135628000Y-90378500D01*
X135628000Y-90880500D01*
X135628000Y-90880500D01*
G37*
G36*
X118855000Y-90860000D02*
G01*
X118253000Y-90860000D01*
X118253000Y-90158000D01*
X118855000Y-90158000D01*
X118855000Y-90860000D01*
X118855000Y-90860000D01*
G37*
G36*
X196706928Y-90139264D02*
G01*
X196728009Y-90145660D01*
X196747445Y-90156048D01*
X196764476Y-90170024D01*
X196778452Y-90187055D01*
X196788840Y-90206491D01*
X196795236Y-90227572D01*
X196798000Y-90255640D01*
X196798000Y-90719360D01*
X196795236Y-90747428D01*
X196788840Y-90768509D01*
X196778452Y-90787945D01*
X196764476Y-90804976D01*
X196747445Y-90818952D01*
X196728009Y-90829340D01*
X196706928Y-90835736D01*
X196678860Y-90838500D01*
X194865140Y-90838500D01*
X194837072Y-90835736D01*
X194815991Y-90829340D01*
X194796555Y-90818952D01*
X194779524Y-90804976D01*
X194765548Y-90787945D01*
X194755160Y-90768509D01*
X194748764Y-90747428D01*
X194746000Y-90719360D01*
X194746000Y-90255640D01*
X194748764Y-90227572D01*
X194755160Y-90206491D01*
X194765548Y-90187055D01*
X194779524Y-90170024D01*
X194796555Y-90156048D01*
X194815991Y-90145660D01*
X194837072Y-90139264D01*
X194865140Y-90136500D01*
X196678860Y-90136500D01*
X196706928Y-90139264D01*
X196706928Y-90139264D01*
G37*
G36*
X201656928Y-90139264D02*
G01*
X201678009Y-90145660D01*
X201697445Y-90156048D01*
X201714476Y-90170024D01*
X201728452Y-90187055D01*
X201738840Y-90206491D01*
X201745236Y-90227572D01*
X201748000Y-90255640D01*
X201748000Y-90719360D01*
X201745236Y-90747428D01*
X201738840Y-90768509D01*
X201728452Y-90787945D01*
X201714476Y-90804976D01*
X201697445Y-90818952D01*
X201678009Y-90829340D01*
X201656928Y-90835736D01*
X201628860Y-90838500D01*
X199815140Y-90838500D01*
X199787072Y-90835736D01*
X199765991Y-90829340D01*
X199746555Y-90818952D01*
X199729524Y-90804976D01*
X199715548Y-90787945D01*
X199705160Y-90768509D01*
X199698764Y-90747428D01*
X199696000Y-90719360D01*
X199696000Y-90255640D01*
X199698764Y-90227572D01*
X199705160Y-90206491D01*
X199715548Y-90187055D01*
X199729524Y-90170024D01*
X199746555Y-90156048D01*
X199765991Y-90145660D01*
X199787072Y-90139264D01*
X199815140Y-90136500D01*
X201628860Y-90136500D01*
X201656928Y-90139264D01*
X201656928Y-90139264D01*
G37*
G36*
X182918000Y-88611001D02*
G01*
X182920402Y-88635387D01*
X182927515Y-88658836D01*
X182939066Y-88680447D01*
X182954611Y-88699389D01*
X182973553Y-88714934D01*
X182995164Y-88726485D01*
X183018613Y-88733598D01*
X183042999Y-88736000D01*
X183888000Y-88736000D01*
X183888000Y-90588000D01*
X183042999Y-90588000D01*
X183018613Y-90590402D01*
X182995164Y-90597515D01*
X182973553Y-90609066D01*
X182954611Y-90624611D01*
X182939066Y-90643553D01*
X182927515Y-90665164D01*
X182920402Y-90688613D01*
X182918000Y-90712999D01*
X182918000Y-90813000D01*
X182206000Y-90813000D01*
X182206000Y-90712999D01*
X182203598Y-90688613D01*
X182196485Y-90665164D01*
X182184934Y-90643553D01*
X182169389Y-90624611D01*
X182150447Y-90609066D01*
X182128836Y-90597515D01*
X182105387Y-90590402D01*
X182081001Y-90588000D01*
X181236000Y-90588000D01*
X181236000Y-88736000D01*
X182081001Y-88736000D01*
X182105387Y-88733598D01*
X182128836Y-88726485D01*
X182150447Y-88714934D01*
X182169389Y-88699389D01*
X182184934Y-88680447D01*
X182196485Y-88658836D01*
X182203598Y-88635387D01*
X182206000Y-88611001D01*
X182206000Y-88511000D01*
X182918000Y-88511000D01*
X182918000Y-88611001D01*
X182918000Y-88611001D01*
G37*
G36*
X150888000Y-90534500D02*
G01*
X150186000Y-90534500D01*
X150186000Y-89932500D01*
X150888000Y-89932500D01*
X150888000Y-90534500D01*
X150888000Y-90534500D01*
G37*
G36*
X149788000Y-90534500D02*
G01*
X149086000Y-90534500D01*
X149086000Y-89932500D01*
X149788000Y-89932500D01*
X149788000Y-90534500D01*
X149788000Y-90534500D01*
G37*
G36*
X152773000Y-90534500D02*
G01*
X152071000Y-90534500D01*
X152071000Y-89932500D01*
X152773000Y-89932500D01*
X152773000Y-90534500D01*
X152773000Y-90534500D01*
G37*
G36*
X153873000Y-90534500D02*
G01*
X153171000Y-90534500D01*
X153171000Y-89932500D01*
X153873000Y-89932500D01*
X153873000Y-90534500D01*
X153873000Y-90534500D01*
G37*
G36*
X117600000Y-90488000D02*
G01*
X117098000Y-90488000D01*
X117098000Y-89736000D01*
X117600000Y-89736000D01*
X117600000Y-90488000D01*
X117600000Y-90488000D01*
G37*
G36*
X116300000Y-90488000D02*
G01*
X115798000Y-90488000D01*
X115798000Y-89736000D01*
X116300000Y-89736000D01*
X116300000Y-90488000D01*
X116300000Y-90488000D01*
G37*
G36*
X158861000Y-90479000D02*
G01*
X158259000Y-90479000D01*
X158259000Y-89777000D01*
X158861000Y-89777000D01*
X158861000Y-90479000D01*
X158861000Y-90479000D01*
G37*
G36*
X157971000Y-90479000D02*
G01*
X157369000Y-90479000D01*
X157369000Y-89777000D01*
X157971000Y-89777000D01*
X157971000Y-90479000D01*
X157971000Y-90479000D01*
G37*
G36*
X157083000Y-90479000D02*
G01*
X156481000Y-90479000D01*
X156481000Y-89777000D01*
X157083000Y-89777000D01*
X157083000Y-90479000D01*
X157083000Y-90479000D01*
G37*
G36*
X160558000Y-90329000D02*
G01*
X159356000Y-90329000D01*
X159356000Y-88927000D01*
X160558000Y-88927000D01*
X160558000Y-90329000D01*
X160558000Y-90329000D01*
G37*
G36*
X162208000Y-90329000D02*
G01*
X161006000Y-90329000D01*
X161006000Y-88927000D01*
X162208000Y-88927000D01*
X162208000Y-90329000D01*
X162208000Y-90329000D01*
G37*
G36*
X179697000Y-90203500D02*
G01*
X179195000Y-90203500D01*
X179195000Y-89501500D01*
X179697000Y-89501500D01*
X179697000Y-90203500D01*
X179697000Y-90203500D01*
G37*
G36*
X180597000Y-90203500D02*
G01*
X180095000Y-90203500D01*
X180095000Y-89501500D01*
X180597000Y-89501500D01*
X180597000Y-90203500D01*
X180597000Y-90203500D01*
G37*
G36*
X189379642Y-88624781D02*
G01*
X189503295Y-88676000D01*
X189525416Y-88685163D01*
X189656608Y-88772822D01*
X189768178Y-88884392D01*
X189855837Y-89015584D01*
X189855838Y-89015586D01*
X189916219Y-89161358D01*
X189947000Y-89316107D01*
X189947000Y-89473893D01*
X189916219Y-89628642D01*
X189862223Y-89759000D01*
X189855837Y-89774416D01*
X189768178Y-89905608D01*
X189656608Y-90017178D01*
X189525416Y-90104837D01*
X189525415Y-90104838D01*
X189525414Y-90104838D01*
X189379642Y-90165219D01*
X189224893Y-90196000D01*
X189067107Y-90196000D01*
X188912358Y-90165219D01*
X188766586Y-90104838D01*
X188766585Y-90104838D01*
X188766584Y-90104837D01*
X188635392Y-90017178D01*
X188523822Y-89905608D01*
X188436163Y-89774416D01*
X188429777Y-89759000D01*
X188375781Y-89628642D01*
X188345000Y-89473893D01*
X188345000Y-89316107D01*
X188375781Y-89161358D01*
X188436162Y-89015586D01*
X188436163Y-89015584D01*
X188523822Y-88884392D01*
X188635392Y-88772822D01*
X188766584Y-88685163D01*
X188788705Y-88676000D01*
X188912358Y-88624781D01*
X189067107Y-88594000D01*
X189224893Y-88594000D01*
X189379642Y-88624781D01*
X189379642Y-88624781D01*
G37*
G36*
X114379642Y-88624781D02*
G01*
X114503295Y-88676000D01*
X114525416Y-88685163D01*
X114656608Y-88772822D01*
X114768178Y-88884392D01*
X114855837Y-89015584D01*
X114855838Y-89015586D01*
X114916219Y-89161358D01*
X114947000Y-89316107D01*
X114947000Y-89473893D01*
X114916219Y-89628642D01*
X114862223Y-89759000D01*
X114855837Y-89774416D01*
X114768178Y-89905608D01*
X114656608Y-90017178D01*
X114525416Y-90104837D01*
X114525415Y-90104838D01*
X114525414Y-90104838D01*
X114379642Y-90165219D01*
X114224893Y-90196000D01*
X114067107Y-90196000D01*
X113912358Y-90165219D01*
X113766586Y-90104838D01*
X113766585Y-90104838D01*
X113766584Y-90104837D01*
X113635392Y-90017178D01*
X113523822Y-89905608D01*
X113436163Y-89774416D01*
X113429777Y-89759000D01*
X113375781Y-89628642D01*
X113345000Y-89473893D01*
X113345000Y-89316107D01*
X113375781Y-89161358D01*
X113436162Y-89015586D01*
X113436163Y-89015584D01*
X113523822Y-88884392D01*
X113635392Y-88772822D01*
X113766584Y-88685163D01*
X113788705Y-88676000D01*
X113912358Y-88624781D01*
X114067107Y-88594000D01*
X114224893Y-88594000D01*
X114379642Y-88624781D01*
X114379642Y-88624781D01*
G37*
G36*
X136834000Y-89822500D02*
G01*
X136332000Y-89822500D01*
X136332000Y-89120500D01*
X136834000Y-89120500D01*
X136834000Y-89822500D01*
X136834000Y-89822500D01*
G37*
G36*
X137734000Y-89822500D02*
G01*
X137232000Y-89822500D01*
X137232000Y-89120500D01*
X137734000Y-89120500D01*
X137734000Y-89822500D01*
X137734000Y-89822500D01*
G37*
G36*
X187835000Y-89759000D02*
G01*
X187333000Y-89759000D01*
X187333000Y-89057000D01*
X187835000Y-89057000D01*
X187835000Y-89759000D01*
X187835000Y-89759000D01*
G37*
G36*
X186935000Y-89759000D02*
G01*
X186433000Y-89759000D01*
X186433000Y-89057000D01*
X186935000Y-89057000D01*
X186935000Y-89759000D01*
X186935000Y-89759000D01*
G37*
G36*
X135628000Y-89580500D02*
G01*
X134876000Y-89580500D01*
X134876000Y-89078500D01*
X135628000Y-89078500D01*
X135628000Y-89580500D01*
X135628000Y-89580500D01*
G37*
G36*
X201656928Y-88869264D02*
G01*
X201678009Y-88875660D01*
X201697445Y-88886048D01*
X201714476Y-88900024D01*
X201728452Y-88917055D01*
X201738840Y-88936491D01*
X201745236Y-88957572D01*
X201748000Y-88985640D01*
X201748000Y-89449360D01*
X201745236Y-89477428D01*
X201738840Y-89498509D01*
X201728452Y-89517945D01*
X201714476Y-89534976D01*
X201697445Y-89548952D01*
X201678009Y-89559340D01*
X201656928Y-89565736D01*
X201628860Y-89568500D01*
X199815140Y-89568500D01*
X199787072Y-89565736D01*
X199765991Y-89559340D01*
X199746555Y-89548952D01*
X199729524Y-89534976D01*
X199715548Y-89517945D01*
X199705160Y-89498509D01*
X199698764Y-89477428D01*
X199696000Y-89449360D01*
X199696000Y-88985640D01*
X199698764Y-88957572D01*
X199705160Y-88936491D01*
X199715548Y-88917055D01*
X199729524Y-88900024D01*
X199746555Y-88886048D01*
X199765991Y-88875660D01*
X199787072Y-88869264D01*
X199815140Y-88866500D01*
X201628860Y-88866500D01*
X201656928Y-88869264D01*
X201656928Y-88869264D01*
G37*
G36*
X196706928Y-88869264D02*
G01*
X196728009Y-88875660D01*
X196747445Y-88886048D01*
X196764476Y-88900024D01*
X196778452Y-88917055D01*
X196788840Y-88936491D01*
X196795236Y-88957572D01*
X196798000Y-88985640D01*
X196798000Y-89449360D01*
X196795236Y-89477428D01*
X196788840Y-89498509D01*
X196778452Y-89517945D01*
X196764476Y-89534976D01*
X196747445Y-89548952D01*
X196728009Y-89559340D01*
X196706928Y-89565736D01*
X196678860Y-89568500D01*
X194865140Y-89568500D01*
X194837072Y-89565736D01*
X194815991Y-89559340D01*
X194796555Y-89548952D01*
X194779524Y-89534976D01*
X194765548Y-89517945D01*
X194755160Y-89498509D01*
X194748764Y-89477428D01*
X194746000Y-89449360D01*
X194746000Y-88985640D01*
X194748764Y-88957572D01*
X194755160Y-88936491D01*
X194765548Y-88917055D01*
X194779524Y-88900024D01*
X194796555Y-88886048D01*
X194815991Y-88875660D01*
X194837072Y-88869264D01*
X194865140Y-88866500D01*
X196678860Y-88866500D01*
X196706928Y-88869264D01*
X196706928Y-88869264D01*
G37*
G36*
X185009000Y-89463000D02*
G01*
X184307000Y-89463000D01*
X184307000Y-88210000D01*
X185009000Y-88210000D01*
X185009000Y-89463000D01*
X185009000Y-89463000D01*
G37*
G36*
X157471000Y-89378000D02*
G01*
X156969000Y-89378000D01*
X156969000Y-88676000D01*
X157471000Y-88676000D01*
X157471000Y-89378000D01*
X157471000Y-89378000D01*
G37*
G36*
X158371000Y-89378000D02*
G01*
X157869000Y-89378000D01*
X157869000Y-88676000D01*
X158371000Y-88676000D01*
X158371000Y-89378000D01*
X158371000Y-89378000D01*
G37*
G36*
X116514000Y-89314500D02*
G01*
X116012000Y-89314500D01*
X116012000Y-88612500D01*
X116514000Y-88612500D01*
X116514000Y-89314500D01*
X116514000Y-89314500D01*
G37*
G36*
X117414000Y-89314500D02*
G01*
X116912000Y-89314500D01*
X116912000Y-88612500D01*
X117414000Y-88612500D01*
X117414000Y-89314500D01*
X117414000Y-89314500D01*
G37*
G36*
X148884295Y-87679323D02*
G01*
X148891309Y-87681451D01*
X148905077Y-87688810D01*
X148927716Y-87698187D01*
X148951749Y-87702967D01*
X148976253Y-87702967D01*
X149000286Y-87698186D01*
X149022923Y-87688810D01*
X149036691Y-87681451D01*
X149043705Y-87679323D01*
X149057140Y-87678000D01*
X149370860Y-87678000D01*
X149384295Y-87679323D01*
X149391309Y-87681451D01*
X149405077Y-87688810D01*
X149427716Y-87698187D01*
X149451749Y-87702967D01*
X149476253Y-87702967D01*
X149500286Y-87698186D01*
X149522923Y-87688810D01*
X149536691Y-87681451D01*
X149543705Y-87679323D01*
X149557140Y-87678000D01*
X149870860Y-87678000D01*
X149884295Y-87679323D01*
X149891309Y-87681451D01*
X149905077Y-87688810D01*
X149927716Y-87698187D01*
X149951749Y-87702967D01*
X149976253Y-87702967D01*
X150000286Y-87698186D01*
X150022923Y-87688810D01*
X150036691Y-87681451D01*
X150043705Y-87679323D01*
X150057140Y-87678000D01*
X150370860Y-87678000D01*
X150384295Y-87679323D01*
X150391309Y-87681451D01*
X150405077Y-87688810D01*
X150427716Y-87698187D01*
X150451749Y-87702967D01*
X150476253Y-87702967D01*
X150500286Y-87698186D01*
X150522923Y-87688810D01*
X150536691Y-87681451D01*
X150543705Y-87679323D01*
X150557140Y-87678000D01*
X150870860Y-87678000D01*
X150884295Y-87679323D01*
X150891309Y-87681451D01*
X150905077Y-87688810D01*
X150927716Y-87698187D01*
X150951749Y-87702967D01*
X150976253Y-87702967D01*
X151000286Y-87698186D01*
X151022923Y-87688810D01*
X151036691Y-87681451D01*
X151043705Y-87679323D01*
X151057140Y-87678000D01*
X151370860Y-87678000D01*
X151384295Y-87679323D01*
X151391309Y-87681451D01*
X151405077Y-87688810D01*
X151427716Y-87698187D01*
X151451749Y-87702967D01*
X151476253Y-87702967D01*
X151500286Y-87698186D01*
X151522923Y-87688810D01*
X151536691Y-87681451D01*
X151543705Y-87679323D01*
X151557140Y-87678000D01*
X151870860Y-87678000D01*
X151884295Y-87679323D01*
X151891309Y-87681451D01*
X151905077Y-87688810D01*
X151927716Y-87698187D01*
X151951749Y-87702967D01*
X151976253Y-87702967D01*
X152000286Y-87698186D01*
X152022923Y-87688810D01*
X152036691Y-87681451D01*
X152043705Y-87679323D01*
X152057140Y-87678000D01*
X152370860Y-87678000D01*
X152384295Y-87679323D01*
X152391309Y-87681451D01*
X152405077Y-87688810D01*
X152427716Y-87698187D01*
X152451749Y-87702967D01*
X152476253Y-87702967D01*
X152500286Y-87698186D01*
X152522923Y-87688810D01*
X152536691Y-87681451D01*
X152543705Y-87679323D01*
X152557140Y-87678000D01*
X152870860Y-87678000D01*
X152884295Y-87679323D01*
X152891309Y-87681451D01*
X152905077Y-87688810D01*
X152927716Y-87698187D01*
X152951749Y-87702967D01*
X152976253Y-87702967D01*
X153000286Y-87698186D01*
X153022923Y-87688810D01*
X153036691Y-87681451D01*
X153043705Y-87679323D01*
X153057140Y-87678000D01*
X153370860Y-87678000D01*
X153384295Y-87679323D01*
X153391309Y-87681451D01*
X153405077Y-87688810D01*
X153427716Y-87698187D01*
X153451749Y-87702967D01*
X153476253Y-87702967D01*
X153500286Y-87698186D01*
X153522923Y-87688810D01*
X153536691Y-87681451D01*
X153543705Y-87679323D01*
X153557140Y-87678000D01*
X153870860Y-87678000D01*
X153884295Y-87679323D01*
X153891309Y-87681451D01*
X153905077Y-87688810D01*
X153927716Y-87698187D01*
X153951749Y-87702967D01*
X153976253Y-87702967D01*
X154000286Y-87698186D01*
X154022923Y-87688810D01*
X154036691Y-87681451D01*
X154043705Y-87679323D01*
X154057140Y-87678000D01*
X154370860Y-87678000D01*
X154384295Y-87679323D01*
X154391309Y-87681451D01*
X154405077Y-87688810D01*
X154427716Y-87698187D01*
X154451749Y-87702967D01*
X154476253Y-87702967D01*
X154500286Y-87698186D01*
X154522923Y-87688810D01*
X154536691Y-87681451D01*
X154543705Y-87679323D01*
X154557140Y-87678000D01*
X154870860Y-87678000D01*
X154884295Y-87679323D01*
X154891309Y-87681451D01*
X154905077Y-87688810D01*
X154927716Y-87698187D01*
X154951749Y-87702967D01*
X154976253Y-87702967D01*
X155000286Y-87698186D01*
X155022923Y-87688810D01*
X155036691Y-87681451D01*
X155043705Y-87679323D01*
X155057140Y-87678000D01*
X155370860Y-87678000D01*
X155384295Y-87679323D01*
X155391309Y-87681451D01*
X155405077Y-87688810D01*
X155427716Y-87698187D01*
X155451749Y-87702967D01*
X155476253Y-87702967D01*
X155500286Y-87698186D01*
X155522923Y-87688810D01*
X155536691Y-87681451D01*
X155543705Y-87679323D01*
X155557140Y-87678000D01*
X155870860Y-87678000D01*
X155884295Y-87679323D01*
X155891309Y-87681451D01*
X155905077Y-87688810D01*
X155927716Y-87698187D01*
X155951749Y-87702967D01*
X155976253Y-87702967D01*
X156000286Y-87698186D01*
X156022923Y-87688810D01*
X156036691Y-87681451D01*
X156043705Y-87679323D01*
X156057140Y-87678000D01*
X156370860Y-87678000D01*
X156384295Y-87679323D01*
X156391310Y-87681451D01*
X156397776Y-87684908D01*
X156403442Y-87689558D01*
X156408092Y-87695224D01*
X156411549Y-87701690D01*
X156413677Y-87708705D01*
X156415000Y-87722140D01*
X156415000Y-89210860D01*
X156413677Y-89224295D01*
X156411549Y-89231310D01*
X156408092Y-89237776D01*
X156403442Y-89243442D01*
X156397776Y-89248092D01*
X156391310Y-89251549D01*
X156384295Y-89253677D01*
X156370860Y-89255000D01*
X156057140Y-89255000D01*
X156043705Y-89253677D01*
X156036691Y-89251549D01*
X156022923Y-89244190D01*
X156000284Y-89234813D01*
X155976251Y-89230033D01*
X155951747Y-89230033D01*
X155927714Y-89234814D01*
X155905077Y-89244190D01*
X155891309Y-89251549D01*
X155884295Y-89253677D01*
X155870860Y-89255000D01*
X155557140Y-89255000D01*
X155543705Y-89253677D01*
X155536691Y-89251549D01*
X155522923Y-89244190D01*
X155500284Y-89234813D01*
X155476251Y-89230033D01*
X155451747Y-89230033D01*
X155427714Y-89234814D01*
X155405077Y-89244190D01*
X155391309Y-89251549D01*
X155384295Y-89253677D01*
X155370860Y-89255000D01*
X155057140Y-89255000D01*
X155043705Y-89253677D01*
X155036691Y-89251549D01*
X155022923Y-89244190D01*
X155000284Y-89234813D01*
X154976251Y-89230033D01*
X154951747Y-89230033D01*
X154927714Y-89234814D01*
X154905077Y-89244190D01*
X154891309Y-89251549D01*
X154884295Y-89253677D01*
X154870860Y-89255000D01*
X154557140Y-89255000D01*
X154543705Y-89253677D01*
X154536691Y-89251549D01*
X154522923Y-89244190D01*
X154500284Y-89234813D01*
X154476251Y-89230033D01*
X154451747Y-89230033D01*
X154427714Y-89234814D01*
X154405077Y-89244190D01*
X154391309Y-89251549D01*
X154384295Y-89253677D01*
X154370860Y-89255000D01*
X154057140Y-89255000D01*
X154043705Y-89253677D01*
X154036691Y-89251549D01*
X154022923Y-89244190D01*
X154000284Y-89234813D01*
X153976251Y-89230033D01*
X153951747Y-89230033D01*
X153927714Y-89234814D01*
X153905077Y-89244190D01*
X153891309Y-89251549D01*
X153884295Y-89253677D01*
X153870860Y-89255000D01*
X153557140Y-89255000D01*
X153543705Y-89253677D01*
X153536691Y-89251549D01*
X153522923Y-89244190D01*
X153500284Y-89234813D01*
X153476251Y-89230033D01*
X153451747Y-89230033D01*
X153427714Y-89234814D01*
X153405077Y-89244190D01*
X153391309Y-89251549D01*
X153384295Y-89253677D01*
X153370860Y-89255000D01*
X153057140Y-89255000D01*
X153043705Y-89253677D01*
X153036691Y-89251549D01*
X153022923Y-89244190D01*
X153000284Y-89234813D01*
X152976251Y-89230033D01*
X152951747Y-89230033D01*
X152927714Y-89234814D01*
X152905077Y-89244190D01*
X152891309Y-89251549D01*
X152884295Y-89253677D01*
X152870860Y-89255000D01*
X152557140Y-89255000D01*
X152543705Y-89253677D01*
X152536691Y-89251549D01*
X152522923Y-89244190D01*
X152500284Y-89234813D01*
X152476251Y-89230033D01*
X152451747Y-89230033D01*
X152427714Y-89234814D01*
X152405077Y-89244190D01*
X152391309Y-89251549D01*
X152384295Y-89253677D01*
X152370860Y-89255000D01*
X152057140Y-89255000D01*
X152043705Y-89253677D01*
X152036691Y-89251549D01*
X152022923Y-89244190D01*
X152000284Y-89234813D01*
X151976251Y-89230033D01*
X151951747Y-89230033D01*
X151927714Y-89234814D01*
X151905077Y-89244190D01*
X151891309Y-89251549D01*
X151884295Y-89253677D01*
X151870860Y-89255000D01*
X151557140Y-89255000D01*
X151543705Y-89253677D01*
X151536691Y-89251549D01*
X151522923Y-89244190D01*
X151500284Y-89234813D01*
X151476251Y-89230033D01*
X151451747Y-89230033D01*
X151427714Y-89234814D01*
X151405077Y-89244190D01*
X151391309Y-89251549D01*
X151384295Y-89253677D01*
X151370860Y-89255000D01*
X151057140Y-89255000D01*
X151043705Y-89253677D01*
X151036691Y-89251549D01*
X151022923Y-89244190D01*
X151000284Y-89234813D01*
X150976251Y-89230033D01*
X150951747Y-89230033D01*
X150927714Y-89234814D01*
X150905077Y-89244190D01*
X150891309Y-89251549D01*
X150884295Y-89253677D01*
X150870860Y-89255000D01*
X150557140Y-89255000D01*
X150543705Y-89253677D01*
X150536691Y-89251549D01*
X150522923Y-89244190D01*
X150500284Y-89234813D01*
X150476251Y-89230033D01*
X150451747Y-89230033D01*
X150427714Y-89234814D01*
X150405077Y-89244190D01*
X150391309Y-89251549D01*
X150384295Y-89253677D01*
X150370860Y-89255000D01*
X150057140Y-89255000D01*
X150043705Y-89253677D01*
X150036691Y-89251549D01*
X150022923Y-89244190D01*
X150000284Y-89234813D01*
X149976251Y-89230033D01*
X149951747Y-89230033D01*
X149927714Y-89234814D01*
X149905077Y-89244190D01*
X149891309Y-89251549D01*
X149884295Y-89253677D01*
X149870860Y-89255000D01*
X149557140Y-89255000D01*
X149543705Y-89253677D01*
X149536691Y-89251549D01*
X149522923Y-89244190D01*
X149500284Y-89234813D01*
X149476251Y-89230033D01*
X149451747Y-89230033D01*
X149427714Y-89234814D01*
X149405077Y-89244190D01*
X149391309Y-89251549D01*
X149384295Y-89253677D01*
X149370860Y-89255000D01*
X149057140Y-89255000D01*
X149043705Y-89253677D01*
X149036691Y-89251549D01*
X149022923Y-89244190D01*
X149000284Y-89234813D01*
X148976251Y-89230033D01*
X148951747Y-89230033D01*
X148927714Y-89234814D01*
X148905077Y-89244190D01*
X148891309Y-89251549D01*
X148884295Y-89253677D01*
X148870860Y-89255000D01*
X148557140Y-89255000D01*
X148543705Y-89253677D01*
X148536690Y-89251549D01*
X148530224Y-89248092D01*
X148524558Y-89243442D01*
X148519908Y-89237776D01*
X148516451Y-89231310D01*
X148514323Y-89224295D01*
X148513000Y-89210860D01*
X148513000Y-87722140D01*
X148514323Y-87708705D01*
X148516451Y-87701690D01*
X148519908Y-87695224D01*
X148524558Y-87689558D01*
X148530224Y-87684908D01*
X148536690Y-87681451D01*
X148543705Y-87679323D01*
X148557140Y-87678000D01*
X148870860Y-87678000D01*
X148884295Y-87679323D01*
X148884295Y-87679323D01*
G37*
G36*
X179697000Y-89251000D02*
G01*
X179195000Y-89251000D01*
X179195000Y-88549000D01*
X179697000Y-88549000D01*
X179697000Y-89251000D01*
X179697000Y-89251000D01*
G37*
G36*
X180597000Y-89251000D02*
G01*
X180095000Y-89251000D01*
X180095000Y-88549000D01*
X180597000Y-88549000D01*
X180597000Y-89251000D01*
X180597000Y-89251000D01*
G37*
G36*
X107009000Y-89229500D02*
G01*
X105207000Y-89229500D01*
X105207000Y-87427500D01*
X107009000Y-87427500D01*
X107009000Y-89229500D01*
X107009000Y-89229500D01*
G37*
G36*
X180797000Y-88248500D02*
G01*
X180095000Y-88248500D01*
X180095000Y-87646500D01*
X180797000Y-87646500D01*
X180797000Y-88248500D01*
X180797000Y-88248500D01*
G37*
G36*
X179697000Y-88248500D02*
G01*
X178995000Y-88248500D01*
X178995000Y-87646500D01*
X179697000Y-87646500D01*
X179697000Y-88248500D01*
X179697000Y-88248500D01*
G37*
G36*
X185009000Y-87812000D02*
G01*
X184307000Y-87812000D01*
X184307000Y-87310000D01*
X185009000Y-87310000D01*
X185009000Y-87812000D01*
X185009000Y-87812000D01*
G37*
G36*
X183908000Y-87677000D02*
G01*
X183206000Y-87677000D01*
X183206000Y-87075000D01*
X183908000Y-87075000D01*
X183908000Y-87677000D01*
X183908000Y-87677000D01*
G37*
G36*
X182808000Y-87677000D02*
G01*
X182106000Y-87677000D01*
X182106000Y-87075000D01*
X182808000Y-87075000D01*
X182808000Y-87677000D01*
X182808000Y-87677000D01*
G37*
G36*
X189379642Y-86084781D02*
G01*
X189525414Y-86145162D01*
X189525416Y-86145163D01*
X189656608Y-86232822D01*
X189768178Y-86344392D01*
X189855837Y-86475584D01*
X189855838Y-86475586D01*
X189916219Y-86621358D01*
X189947000Y-86776107D01*
X189947000Y-86933893D01*
X189916219Y-87088642D01*
X189862223Y-87219000D01*
X189855837Y-87234416D01*
X189768178Y-87365608D01*
X189656608Y-87477178D01*
X189525416Y-87564837D01*
X189525415Y-87564838D01*
X189525414Y-87564838D01*
X189379642Y-87625219D01*
X189224893Y-87656000D01*
X189067107Y-87656000D01*
X188912358Y-87625219D01*
X188766586Y-87564838D01*
X188766585Y-87564838D01*
X188766584Y-87564837D01*
X188635392Y-87477178D01*
X188523822Y-87365608D01*
X188436163Y-87234416D01*
X188429777Y-87219000D01*
X188375781Y-87088642D01*
X188345000Y-86933893D01*
X188345000Y-86776107D01*
X188375781Y-86621358D01*
X188436162Y-86475586D01*
X188436163Y-86475584D01*
X188523822Y-86344392D01*
X188635392Y-86232822D01*
X188766584Y-86145163D01*
X188766586Y-86145162D01*
X188912358Y-86084781D01*
X189067107Y-86054000D01*
X189224893Y-86054000D01*
X189379642Y-86084781D01*
X189379642Y-86084781D01*
G37*
G36*
X114379642Y-86084781D02*
G01*
X114525414Y-86145162D01*
X114525416Y-86145163D01*
X114656608Y-86232822D01*
X114768178Y-86344392D01*
X114855837Y-86475584D01*
X114855838Y-86475586D01*
X114916219Y-86621358D01*
X114947000Y-86776107D01*
X114947000Y-86933893D01*
X114916219Y-87088642D01*
X114862223Y-87219000D01*
X114855837Y-87234416D01*
X114768178Y-87365608D01*
X114656608Y-87477178D01*
X114525416Y-87564837D01*
X114525415Y-87564838D01*
X114525414Y-87564838D01*
X114379642Y-87625219D01*
X114224893Y-87656000D01*
X114067107Y-87656000D01*
X113912358Y-87625219D01*
X113766586Y-87564838D01*
X113766585Y-87564838D01*
X113766584Y-87564837D01*
X113635392Y-87477178D01*
X113523822Y-87365608D01*
X113436163Y-87234416D01*
X113429777Y-87219000D01*
X113375781Y-87088642D01*
X113345000Y-86933893D01*
X113345000Y-86776107D01*
X113375781Y-86621358D01*
X113436162Y-86475586D01*
X113436163Y-86475584D01*
X113523822Y-86344392D01*
X113635392Y-86232822D01*
X113766584Y-86145163D01*
X113766586Y-86145162D01*
X113912358Y-86084781D01*
X114067107Y-86054000D01*
X114224893Y-86054000D01*
X114379642Y-86084781D01*
X114379642Y-86084781D01*
G37*
G36*
X186935000Y-87219000D02*
G01*
X186433000Y-87219000D01*
X186433000Y-86517000D01*
X186935000Y-86517000D01*
X186935000Y-87219000D01*
X186935000Y-87219000D01*
G37*
G36*
X187835000Y-87219000D02*
G01*
X187333000Y-87219000D01*
X187333000Y-86517000D01*
X187835000Y-86517000D01*
X187835000Y-87219000D01*
X187835000Y-87219000D01*
G37*
G36*
X116843000Y-87219000D02*
G01*
X116341000Y-87219000D01*
X116341000Y-86517000D01*
X116843000Y-86517000D01*
X116843000Y-87219000D01*
X116843000Y-87219000D01*
G37*
G36*
X115943000Y-87219000D02*
G01*
X115441000Y-87219000D01*
X115441000Y-86517000D01*
X115943000Y-86517000D01*
X115943000Y-87219000D01*
X115943000Y-87219000D01*
G37*
G36*
X182808000Y-86788000D02*
G01*
X182106000Y-86788000D01*
X182106000Y-86186000D01*
X182808000Y-86186000D01*
X182808000Y-86788000D01*
X182808000Y-86788000D01*
G37*
G36*
X183908000Y-86788000D02*
G01*
X183206000Y-86788000D01*
X183206000Y-86186000D01*
X183908000Y-86186000D01*
X183908000Y-86788000D01*
X183908000Y-86788000D01*
G37*
G36*
X136834000Y-86761000D02*
G01*
X136132000Y-86761000D01*
X136132000Y-85959000D01*
X136834000Y-85959000D01*
X136834000Y-86761000D01*
X136834000Y-86761000D01*
G37*
G36*
X137934000Y-86761000D02*
G01*
X137232000Y-86761000D01*
X137232000Y-85959000D01*
X137934000Y-85959000D01*
X137934000Y-86761000D01*
X137934000Y-86761000D01*
G37*
G36*
X158884295Y-78854323D02*
G01*
X158891310Y-78856451D01*
X158897776Y-78859908D01*
X158903442Y-78864558D01*
X158908092Y-78870224D01*
X158911549Y-78876690D01*
X158913677Y-78883705D01*
X158915000Y-78897140D01*
X158915000Y-79210860D01*
X158913677Y-79224295D01*
X158911549Y-79231309D01*
X158904190Y-79245077D01*
X158894813Y-79267716D01*
X158890033Y-79291749D01*
X158890033Y-79316253D01*
X158894814Y-79340286D01*
X158904190Y-79362923D01*
X158911549Y-79376691D01*
X158913677Y-79383705D01*
X158915000Y-79397140D01*
X158915000Y-79710860D01*
X158913677Y-79724295D01*
X158911549Y-79731309D01*
X158904190Y-79745077D01*
X158894813Y-79767716D01*
X158890033Y-79791749D01*
X158890033Y-79816253D01*
X158894814Y-79840286D01*
X158904190Y-79862923D01*
X158911549Y-79876691D01*
X158913677Y-79883705D01*
X158915000Y-79897140D01*
X158915000Y-80210860D01*
X158913677Y-80224295D01*
X158911549Y-80231309D01*
X158904190Y-80245077D01*
X158894813Y-80267716D01*
X158890033Y-80291749D01*
X158890033Y-80316253D01*
X158894814Y-80340286D01*
X158904190Y-80362923D01*
X158911549Y-80376691D01*
X158913677Y-80383705D01*
X158915000Y-80397140D01*
X158915000Y-80710860D01*
X158913677Y-80724295D01*
X158911549Y-80731309D01*
X158904190Y-80745077D01*
X158894813Y-80767716D01*
X158890033Y-80791749D01*
X158890033Y-80816253D01*
X158894814Y-80840286D01*
X158904190Y-80862923D01*
X158911549Y-80876691D01*
X158913677Y-80883705D01*
X158915000Y-80897140D01*
X158915000Y-81210860D01*
X158913677Y-81224295D01*
X158911549Y-81231309D01*
X158904190Y-81245077D01*
X158894813Y-81267716D01*
X158890033Y-81291749D01*
X158890033Y-81316253D01*
X158894814Y-81340286D01*
X158904190Y-81362923D01*
X158911549Y-81376691D01*
X158913677Y-81383705D01*
X158915000Y-81397140D01*
X158915000Y-81710860D01*
X158913677Y-81724295D01*
X158911549Y-81731309D01*
X158904190Y-81745077D01*
X158894813Y-81767716D01*
X158890033Y-81791749D01*
X158890033Y-81816253D01*
X158894814Y-81840286D01*
X158904190Y-81862923D01*
X158911549Y-81876691D01*
X158913677Y-81883705D01*
X158915000Y-81897140D01*
X158915000Y-82210860D01*
X158913677Y-82224295D01*
X158911549Y-82231309D01*
X158904190Y-82245077D01*
X158894813Y-82267716D01*
X158890033Y-82291749D01*
X158890033Y-82316253D01*
X158894814Y-82340286D01*
X158904190Y-82362923D01*
X158911549Y-82376691D01*
X158913677Y-82383705D01*
X158915000Y-82397140D01*
X158915000Y-82710860D01*
X158913677Y-82724295D01*
X158911549Y-82731309D01*
X158904190Y-82745077D01*
X158894813Y-82767716D01*
X158890033Y-82791749D01*
X158890033Y-82816253D01*
X158894814Y-82840286D01*
X158904190Y-82862923D01*
X158911549Y-82876691D01*
X158913677Y-82883705D01*
X158915000Y-82897140D01*
X158915000Y-83210860D01*
X158913677Y-83224295D01*
X158911549Y-83231309D01*
X158904190Y-83245077D01*
X158894813Y-83267716D01*
X158890033Y-83291749D01*
X158890033Y-83316253D01*
X158894814Y-83340286D01*
X158904190Y-83362923D01*
X158911549Y-83376691D01*
X158913677Y-83383705D01*
X158915000Y-83397140D01*
X158915000Y-83710860D01*
X158913677Y-83724295D01*
X158911549Y-83731309D01*
X158904190Y-83745077D01*
X158894813Y-83767716D01*
X158890033Y-83791749D01*
X158890033Y-83816253D01*
X158894814Y-83840286D01*
X158904190Y-83862923D01*
X158911549Y-83876691D01*
X158913677Y-83883705D01*
X158915000Y-83897140D01*
X158915000Y-84210860D01*
X158913677Y-84224295D01*
X158911549Y-84231309D01*
X158904190Y-84245077D01*
X158894813Y-84267716D01*
X158890033Y-84291749D01*
X158890033Y-84316253D01*
X158894814Y-84340286D01*
X158904190Y-84362923D01*
X158911549Y-84376691D01*
X158913677Y-84383705D01*
X158915000Y-84397140D01*
X158915000Y-84710860D01*
X158913677Y-84724295D01*
X158911549Y-84731309D01*
X158904190Y-84745077D01*
X158894813Y-84767716D01*
X158890033Y-84791749D01*
X158890033Y-84816253D01*
X158894814Y-84840286D01*
X158904190Y-84862923D01*
X158911549Y-84876691D01*
X158913677Y-84883705D01*
X158915000Y-84897140D01*
X158915000Y-85210860D01*
X158913677Y-85224295D01*
X158911549Y-85231309D01*
X158904190Y-85245077D01*
X158894813Y-85267716D01*
X158890033Y-85291749D01*
X158890033Y-85316253D01*
X158894814Y-85340286D01*
X158904190Y-85362923D01*
X158911549Y-85376691D01*
X158913677Y-85383705D01*
X158915000Y-85397140D01*
X158915000Y-85710860D01*
X158913677Y-85724295D01*
X158911549Y-85731309D01*
X158904190Y-85745077D01*
X158894813Y-85767716D01*
X158890033Y-85791749D01*
X158890033Y-85816253D01*
X158894814Y-85840286D01*
X158904190Y-85862923D01*
X158911549Y-85876691D01*
X158913677Y-85883705D01*
X158915000Y-85897140D01*
X158915000Y-86210860D01*
X158913677Y-86224295D01*
X158911549Y-86231309D01*
X158904190Y-86245077D01*
X158894813Y-86267716D01*
X158890033Y-86291749D01*
X158890033Y-86316253D01*
X158894814Y-86340286D01*
X158904190Y-86362923D01*
X158911549Y-86376691D01*
X158913677Y-86383705D01*
X158915000Y-86397140D01*
X158915000Y-86710860D01*
X158913677Y-86724295D01*
X158911549Y-86731310D01*
X158908092Y-86737776D01*
X158903442Y-86743442D01*
X158897776Y-86748092D01*
X158891310Y-86751549D01*
X158884295Y-86753677D01*
X158870860Y-86755000D01*
X157382140Y-86755000D01*
X157368705Y-86753677D01*
X157361690Y-86751549D01*
X157355224Y-86748092D01*
X157349558Y-86743442D01*
X157344908Y-86737776D01*
X157341451Y-86731310D01*
X157339323Y-86724295D01*
X157338000Y-86710860D01*
X157338000Y-86397140D01*
X157339323Y-86383705D01*
X157341451Y-86376691D01*
X157348810Y-86362923D01*
X157358187Y-86340284D01*
X157362967Y-86316251D01*
X157362967Y-86291747D01*
X157358186Y-86267714D01*
X157348810Y-86245077D01*
X157341451Y-86231309D01*
X157339323Y-86224295D01*
X157338000Y-86210860D01*
X157338000Y-85897140D01*
X157339323Y-85883705D01*
X157341451Y-85876691D01*
X157348810Y-85862923D01*
X157358187Y-85840284D01*
X157362967Y-85816251D01*
X157362967Y-85791747D01*
X157358186Y-85767714D01*
X157348810Y-85745077D01*
X157341451Y-85731309D01*
X157339323Y-85724295D01*
X157338000Y-85710860D01*
X157338000Y-85397140D01*
X157339323Y-85383705D01*
X157341451Y-85376691D01*
X157348810Y-85362923D01*
X157358187Y-85340284D01*
X157362967Y-85316251D01*
X157362967Y-85291747D01*
X157358186Y-85267714D01*
X157348810Y-85245077D01*
X157341451Y-85231309D01*
X157339323Y-85224295D01*
X157338000Y-85210860D01*
X157338000Y-84897140D01*
X157339323Y-84883705D01*
X157341451Y-84876691D01*
X157348810Y-84862923D01*
X157358187Y-84840284D01*
X157362967Y-84816251D01*
X157362967Y-84791747D01*
X157358186Y-84767714D01*
X157348810Y-84745077D01*
X157341451Y-84731309D01*
X157339323Y-84724295D01*
X157338000Y-84710860D01*
X157338000Y-84397140D01*
X157339323Y-84383705D01*
X157341451Y-84376691D01*
X157348810Y-84362923D01*
X157358187Y-84340284D01*
X157362967Y-84316251D01*
X157362967Y-84291747D01*
X157358186Y-84267714D01*
X157348810Y-84245077D01*
X157341451Y-84231309D01*
X157339323Y-84224295D01*
X157338000Y-84210860D01*
X157338000Y-83897140D01*
X157339323Y-83883705D01*
X157341451Y-83876691D01*
X157348810Y-83862923D01*
X157358187Y-83840284D01*
X157362967Y-83816251D01*
X157362967Y-83791747D01*
X157358186Y-83767714D01*
X157348810Y-83745077D01*
X157341451Y-83731309D01*
X157339323Y-83724295D01*
X157338000Y-83710860D01*
X157338000Y-83397140D01*
X157339323Y-83383705D01*
X157341451Y-83376691D01*
X157348810Y-83362923D01*
X157358187Y-83340284D01*
X157362967Y-83316251D01*
X157362967Y-83291747D01*
X157358186Y-83267714D01*
X157348810Y-83245077D01*
X157341451Y-83231309D01*
X157339323Y-83224295D01*
X157338000Y-83210860D01*
X157338000Y-82897140D01*
X157339323Y-82883705D01*
X157341451Y-82876691D01*
X157348810Y-82862923D01*
X157358187Y-82840284D01*
X157362967Y-82816251D01*
X157362967Y-82791747D01*
X157358186Y-82767714D01*
X157348810Y-82745077D01*
X157341451Y-82731309D01*
X157339323Y-82724295D01*
X157338000Y-82710860D01*
X157338000Y-82397140D01*
X157339323Y-82383705D01*
X157341451Y-82376691D01*
X157348810Y-82362923D01*
X157358187Y-82340284D01*
X157362967Y-82316251D01*
X157362967Y-82291747D01*
X157358186Y-82267714D01*
X157348810Y-82245077D01*
X157341451Y-82231309D01*
X157339323Y-82224295D01*
X157338000Y-82210860D01*
X157338000Y-81897140D01*
X157339323Y-81883705D01*
X157341451Y-81876691D01*
X157348810Y-81862923D01*
X157358187Y-81840284D01*
X157362967Y-81816251D01*
X157362967Y-81791747D01*
X157358186Y-81767714D01*
X157348810Y-81745077D01*
X157341451Y-81731309D01*
X157339323Y-81724295D01*
X157338000Y-81710860D01*
X157338000Y-81397140D01*
X157339323Y-81383705D01*
X157341451Y-81376691D01*
X157348810Y-81362923D01*
X157358187Y-81340284D01*
X157362967Y-81316251D01*
X157362967Y-81291747D01*
X157358186Y-81267714D01*
X157348810Y-81245077D01*
X157341451Y-81231309D01*
X157339323Y-81224295D01*
X157338000Y-81210860D01*
X157338000Y-80897140D01*
X157339323Y-80883705D01*
X157341451Y-80876691D01*
X157348810Y-80862923D01*
X157358187Y-80840284D01*
X157362967Y-80816251D01*
X157362967Y-80791747D01*
X157358186Y-80767714D01*
X157348810Y-80745077D01*
X157341451Y-80731309D01*
X157339323Y-80724295D01*
X157338000Y-80710860D01*
X157338000Y-80397140D01*
X157339323Y-80383705D01*
X157341451Y-80376691D01*
X157348810Y-80362923D01*
X157358187Y-80340284D01*
X157362967Y-80316251D01*
X157362967Y-80291747D01*
X157358186Y-80267714D01*
X157348810Y-80245077D01*
X157341451Y-80231309D01*
X157339323Y-80224295D01*
X157338000Y-80210860D01*
X157338000Y-79897140D01*
X157339323Y-79883705D01*
X157341451Y-79876691D01*
X157348810Y-79862923D01*
X157358187Y-79840284D01*
X157362967Y-79816251D01*
X157362967Y-79791747D01*
X157358186Y-79767714D01*
X157348810Y-79745077D01*
X157341451Y-79731309D01*
X157339323Y-79724295D01*
X157338000Y-79710860D01*
X157338000Y-79397140D01*
X157339323Y-79383705D01*
X157341451Y-79376691D01*
X157348810Y-79362923D01*
X157358187Y-79340284D01*
X157362967Y-79316251D01*
X157362967Y-79291747D01*
X157358186Y-79267714D01*
X157348810Y-79245077D01*
X157341451Y-79231309D01*
X157339323Y-79224295D01*
X157338000Y-79210860D01*
X157338000Y-78897140D01*
X157339323Y-78883705D01*
X157341451Y-78876690D01*
X157344908Y-78870224D01*
X157349558Y-78864558D01*
X157355224Y-78859908D01*
X157361690Y-78856451D01*
X157368705Y-78854323D01*
X157382140Y-78853000D01*
X158870860Y-78853000D01*
X158884295Y-78854323D01*
X158884295Y-78854323D01*
G37*
G36*
X147559295Y-78854323D02*
G01*
X147566310Y-78856451D01*
X147572776Y-78859908D01*
X147578442Y-78864558D01*
X147583092Y-78870224D01*
X147586549Y-78876690D01*
X147588677Y-78883705D01*
X147590000Y-78897140D01*
X147590000Y-79210860D01*
X147588677Y-79224295D01*
X147586549Y-79231309D01*
X147579190Y-79245077D01*
X147569813Y-79267716D01*
X147565033Y-79291749D01*
X147565033Y-79316253D01*
X147569814Y-79340286D01*
X147579190Y-79362923D01*
X147586549Y-79376691D01*
X147588677Y-79383705D01*
X147590000Y-79397140D01*
X147590000Y-79710860D01*
X147588677Y-79724295D01*
X147586549Y-79731309D01*
X147579190Y-79745077D01*
X147569813Y-79767716D01*
X147565033Y-79791749D01*
X147565033Y-79816253D01*
X147569814Y-79840286D01*
X147579190Y-79862923D01*
X147586549Y-79876691D01*
X147588677Y-79883705D01*
X147590000Y-79897140D01*
X147590000Y-80210860D01*
X147588677Y-80224295D01*
X147586549Y-80231309D01*
X147579190Y-80245077D01*
X147569813Y-80267716D01*
X147565033Y-80291749D01*
X147565033Y-80316253D01*
X147569814Y-80340286D01*
X147579190Y-80362923D01*
X147586549Y-80376691D01*
X147588677Y-80383705D01*
X147590000Y-80397140D01*
X147590000Y-80710860D01*
X147588677Y-80724295D01*
X147586549Y-80731309D01*
X147579190Y-80745077D01*
X147569813Y-80767716D01*
X147565033Y-80791749D01*
X147565033Y-80816253D01*
X147569814Y-80840286D01*
X147579190Y-80862923D01*
X147586549Y-80876691D01*
X147588677Y-80883705D01*
X147590000Y-80897140D01*
X147590000Y-81210860D01*
X147588677Y-81224295D01*
X147586549Y-81231309D01*
X147579190Y-81245077D01*
X147569813Y-81267716D01*
X147565033Y-81291749D01*
X147565033Y-81316253D01*
X147569814Y-81340286D01*
X147579190Y-81362923D01*
X147586549Y-81376691D01*
X147588677Y-81383705D01*
X147590000Y-81397140D01*
X147590000Y-81710860D01*
X147588677Y-81724295D01*
X147586549Y-81731309D01*
X147579190Y-81745077D01*
X147569813Y-81767716D01*
X147565033Y-81791749D01*
X147565033Y-81816253D01*
X147569814Y-81840286D01*
X147579190Y-81862923D01*
X147586549Y-81876691D01*
X147588677Y-81883705D01*
X147590000Y-81897140D01*
X147590000Y-82210860D01*
X147588677Y-82224295D01*
X147586549Y-82231309D01*
X147579190Y-82245077D01*
X147569813Y-82267716D01*
X147565033Y-82291749D01*
X147565033Y-82316253D01*
X147569814Y-82340286D01*
X147579190Y-82362923D01*
X147586549Y-82376691D01*
X147588677Y-82383705D01*
X147590000Y-82397140D01*
X147590000Y-82710860D01*
X147588677Y-82724295D01*
X147586549Y-82731309D01*
X147579190Y-82745077D01*
X147569813Y-82767716D01*
X147565033Y-82791749D01*
X147565033Y-82816253D01*
X147569814Y-82840286D01*
X147579190Y-82862923D01*
X147586549Y-82876691D01*
X147588677Y-82883705D01*
X147590000Y-82897140D01*
X147590000Y-83210860D01*
X147588677Y-83224295D01*
X147586549Y-83231309D01*
X147579190Y-83245077D01*
X147569813Y-83267716D01*
X147565033Y-83291749D01*
X147565033Y-83316253D01*
X147569814Y-83340286D01*
X147579190Y-83362923D01*
X147586549Y-83376691D01*
X147588677Y-83383705D01*
X147590000Y-83397140D01*
X147590000Y-83710860D01*
X147588677Y-83724295D01*
X147586549Y-83731309D01*
X147579190Y-83745077D01*
X147569813Y-83767716D01*
X147565033Y-83791749D01*
X147565033Y-83816253D01*
X147569814Y-83840286D01*
X147579190Y-83862923D01*
X147586549Y-83876691D01*
X147588677Y-83883705D01*
X147590000Y-83897140D01*
X147590000Y-84210860D01*
X147588677Y-84224295D01*
X147586549Y-84231309D01*
X147579190Y-84245077D01*
X147569813Y-84267716D01*
X147565033Y-84291749D01*
X147565033Y-84316253D01*
X147569814Y-84340286D01*
X147579190Y-84362923D01*
X147586549Y-84376691D01*
X147588677Y-84383705D01*
X147590000Y-84397140D01*
X147590000Y-84710860D01*
X147588677Y-84724295D01*
X147586549Y-84731309D01*
X147579190Y-84745077D01*
X147569813Y-84767716D01*
X147565033Y-84791749D01*
X147565033Y-84816253D01*
X147569814Y-84840286D01*
X147579190Y-84862923D01*
X147586549Y-84876691D01*
X147588677Y-84883705D01*
X147590000Y-84897140D01*
X147590000Y-85210860D01*
X147588677Y-85224295D01*
X147586549Y-85231309D01*
X147579190Y-85245077D01*
X147569813Y-85267716D01*
X147565033Y-85291749D01*
X147565033Y-85316253D01*
X147569814Y-85340286D01*
X147579190Y-85362923D01*
X147586549Y-85376691D01*
X147588677Y-85383705D01*
X147590000Y-85397140D01*
X147590000Y-85710860D01*
X147588677Y-85724295D01*
X147586549Y-85731309D01*
X147579190Y-85745077D01*
X147569813Y-85767716D01*
X147565033Y-85791749D01*
X147565033Y-85816253D01*
X147569814Y-85840286D01*
X147579190Y-85862923D01*
X147586549Y-85876691D01*
X147588677Y-85883705D01*
X147590000Y-85897140D01*
X147590000Y-86210860D01*
X147588677Y-86224295D01*
X147586549Y-86231309D01*
X147579190Y-86245077D01*
X147569813Y-86267716D01*
X147565033Y-86291749D01*
X147565033Y-86316253D01*
X147569814Y-86340286D01*
X147579190Y-86362923D01*
X147586549Y-86376691D01*
X147588677Y-86383705D01*
X147590000Y-86397140D01*
X147590000Y-86710860D01*
X147588677Y-86724295D01*
X147586549Y-86731310D01*
X147583092Y-86737776D01*
X147578442Y-86743442D01*
X147572776Y-86748092D01*
X147566310Y-86751549D01*
X147559295Y-86753677D01*
X147545860Y-86755000D01*
X146057140Y-86755000D01*
X146043705Y-86753677D01*
X146036690Y-86751549D01*
X146030224Y-86748092D01*
X146024558Y-86743442D01*
X146019908Y-86737776D01*
X146016451Y-86731310D01*
X146014323Y-86724295D01*
X146013000Y-86710860D01*
X146013000Y-86397140D01*
X146014323Y-86383705D01*
X146016451Y-86376691D01*
X146023810Y-86362923D01*
X146033187Y-86340284D01*
X146037967Y-86316251D01*
X146037967Y-86291747D01*
X146033186Y-86267714D01*
X146023810Y-86245077D01*
X146016451Y-86231309D01*
X146014323Y-86224295D01*
X146013000Y-86210860D01*
X146013000Y-85897140D01*
X146014323Y-85883705D01*
X146016451Y-85876691D01*
X146023810Y-85862923D01*
X146033187Y-85840284D01*
X146037967Y-85816251D01*
X146037967Y-85791747D01*
X146033186Y-85767714D01*
X146023810Y-85745077D01*
X146016451Y-85731309D01*
X146014323Y-85724295D01*
X146013000Y-85710860D01*
X146013000Y-85397140D01*
X146014323Y-85383705D01*
X146016451Y-85376691D01*
X146023810Y-85362923D01*
X146033187Y-85340284D01*
X146037967Y-85316251D01*
X146037967Y-85291747D01*
X146033186Y-85267714D01*
X146023810Y-85245077D01*
X146016451Y-85231309D01*
X146014323Y-85224295D01*
X146013000Y-85210860D01*
X146013000Y-84897140D01*
X146014323Y-84883705D01*
X146016451Y-84876691D01*
X146023810Y-84862923D01*
X146033187Y-84840284D01*
X146037967Y-84816251D01*
X146037967Y-84791747D01*
X146033186Y-84767714D01*
X146023810Y-84745077D01*
X146016451Y-84731309D01*
X146014323Y-84724295D01*
X146013000Y-84710860D01*
X146013000Y-84397140D01*
X146014323Y-84383705D01*
X146016451Y-84376691D01*
X146023810Y-84362923D01*
X146033187Y-84340284D01*
X146037967Y-84316251D01*
X146037967Y-84291747D01*
X146033186Y-84267714D01*
X146023810Y-84245077D01*
X146016451Y-84231309D01*
X146014323Y-84224295D01*
X146013000Y-84210860D01*
X146013000Y-83897140D01*
X146014323Y-83883705D01*
X146016451Y-83876691D01*
X146023810Y-83862923D01*
X146033187Y-83840284D01*
X146037967Y-83816251D01*
X146037967Y-83791747D01*
X146033186Y-83767714D01*
X146023810Y-83745077D01*
X146016451Y-83731309D01*
X146014323Y-83724295D01*
X146013000Y-83710860D01*
X146013000Y-83397140D01*
X146014323Y-83383705D01*
X146016451Y-83376691D01*
X146023810Y-83362923D01*
X146033187Y-83340284D01*
X146037967Y-83316251D01*
X146037967Y-83291747D01*
X146033186Y-83267714D01*
X146023810Y-83245077D01*
X146016451Y-83231309D01*
X146014323Y-83224295D01*
X146013000Y-83210860D01*
X146013000Y-82897140D01*
X146014323Y-82883705D01*
X146016451Y-82876691D01*
X146023810Y-82862923D01*
X146033187Y-82840284D01*
X146037967Y-82816251D01*
X146037967Y-82791747D01*
X146033186Y-82767714D01*
X146023810Y-82745077D01*
X146016451Y-82731309D01*
X146014323Y-82724295D01*
X146013000Y-82710860D01*
X146013000Y-82397140D01*
X146014323Y-82383705D01*
X146016451Y-82376691D01*
X146023810Y-82362923D01*
X146033187Y-82340284D01*
X146037967Y-82316251D01*
X146037967Y-82291747D01*
X146033186Y-82267714D01*
X146023810Y-82245077D01*
X146016451Y-82231309D01*
X146014323Y-82224295D01*
X146013000Y-82210860D01*
X146013000Y-81897140D01*
X146014323Y-81883705D01*
X146016451Y-81876691D01*
X146023810Y-81862923D01*
X146033187Y-81840284D01*
X146037967Y-81816251D01*
X146037967Y-81791747D01*
X146033186Y-81767714D01*
X146023810Y-81745077D01*
X146016451Y-81731309D01*
X146014323Y-81724295D01*
X146013000Y-81710860D01*
X146013000Y-81397140D01*
X146014323Y-81383705D01*
X146016451Y-81376691D01*
X146023810Y-81362923D01*
X146033187Y-81340284D01*
X146037967Y-81316251D01*
X146037967Y-81291747D01*
X146033186Y-81267714D01*
X146023810Y-81245077D01*
X146016451Y-81231309D01*
X146014323Y-81224295D01*
X146013000Y-81210860D01*
X146013000Y-80897140D01*
X146014323Y-80883705D01*
X146016451Y-80876691D01*
X146023810Y-80862923D01*
X146033187Y-80840284D01*
X146037967Y-80816251D01*
X146037967Y-80791747D01*
X146033186Y-80767714D01*
X146023810Y-80745077D01*
X146016451Y-80731309D01*
X146014323Y-80724295D01*
X146013000Y-80710860D01*
X146013000Y-80397140D01*
X146014323Y-80383705D01*
X146016451Y-80376691D01*
X146023810Y-80362923D01*
X146033187Y-80340284D01*
X146037967Y-80316251D01*
X146037967Y-80291747D01*
X146033186Y-80267714D01*
X146023810Y-80245077D01*
X146016451Y-80231309D01*
X146014323Y-80224295D01*
X146013000Y-80210860D01*
X146013000Y-79897140D01*
X146014323Y-79883705D01*
X146016451Y-79876691D01*
X146023810Y-79862923D01*
X146033187Y-79840284D01*
X146037967Y-79816251D01*
X146037967Y-79791747D01*
X146033186Y-79767714D01*
X146023810Y-79745077D01*
X146016451Y-79731309D01*
X146014323Y-79724295D01*
X146013000Y-79710860D01*
X146013000Y-79397140D01*
X146014323Y-79383705D01*
X146016451Y-79376691D01*
X146023810Y-79362923D01*
X146033187Y-79340284D01*
X146037967Y-79316251D01*
X146037967Y-79291747D01*
X146033186Y-79267714D01*
X146023810Y-79245077D01*
X146016451Y-79231309D01*
X146014323Y-79224295D01*
X146013000Y-79210860D01*
X146013000Y-78897140D01*
X146014323Y-78883705D01*
X146016451Y-78876690D01*
X146019908Y-78870224D01*
X146024558Y-78864558D01*
X146030224Y-78859908D01*
X146036690Y-78856451D01*
X146043705Y-78854323D01*
X146057140Y-78853000D01*
X147545860Y-78853000D01*
X147559295Y-78854323D01*
X147559295Y-78854323D01*
G37*
G36*
X135628000Y-86753000D02*
G01*
X134876000Y-86753000D01*
X134876000Y-86251000D01*
X135628000Y-86251000D01*
X135628000Y-86753000D01*
X135628000Y-86753000D01*
G37*
G36*
X133728000Y-86753000D02*
G01*
X132976000Y-86753000D01*
X132976000Y-84951000D01*
X133728000Y-84951000D01*
X133728000Y-86753000D01*
X133728000Y-86753000D01*
G37*
G36*
X180637642Y-85081781D02*
G01*
X180783414Y-85142162D01*
X180783416Y-85142163D01*
X180914608Y-85229822D01*
X181026178Y-85341392D01*
X181113837Y-85472584D01*
X181113838Y-85472586D01*
X181174219Y-85618358D01*
X181205000Y-85773107D01*
X181205000Y-85930893D01*
X181174219Y-86085642D01*
X181149564Y-86145163D01*
X181113837Y-86231416D01*
X181026178Y-86362608D01*
X180914608Y-86474178D01*
X180783416Y-86561837D01*
X180783415Y-86561838D01*
X180783414Y-86561838D01*
X180637642Y-86622219D01*
X180482893Y-86653000D01*
X180325107Y-86653000D01*
X180170358Y-86622219D01*
X180024586Y-86561838D01*
X180024585Y-86561838D01*
X180024584Y-86561837D01*
X179893392Y-86474178D01*
X179781822Y-86362608D01*
X179694163Y-86231416D01*
X179658436Y-86145163D01*
X179633781Y-86085642D01*
X179603000Y-85930893D01*
X179603000Y-85773107D01*
X179633781Y-85618358D01*
X179694162Y-85472586D01*
X179694163Y-85472584D01*
X179781822Y-85341392D01*
X179893392Y-85229822D01*
X180024584Y-85142163D01*
X180024586Y-85142162D01*
X180170358Y-85081781D01*
X180325107Y-85051000D01*
X180482893Y-85051000D01*
X180637642Y-85081781D01*
X180637642Y-85081781D01*
G37*
G36*
X183908000Y-85899000D02*
G01*
X183206000Y-85899000D01*
X183206000Y-85297000D01*
X183908000Y-85297000D01*
X183908000Y-85899000D01*
X183908000Y-85899000D01*
G37*
G36*
X182808000Y-85899000D02*
G01*
X182106000Y-85899000D01*
X182106000Y-85297000D01*
X182808000Y-85297000D01*
X182808000Y-85899000D01*
X182808000Y-85899000D01*
G37*
G36*
X199937000Y-85812500D02*
G01*
X196335000Y-85812500D01*
X196335000Y-82210500D01*
X199937000Y-82210500D01*
X199937000Y-85812500D01*
X199937000Y-85812500D01*
G37*
G36*
X137734000Y-85695000D02*
G01*
X137232000Y-85695000D01*
X137232000Y-84993000D01*
X137734000Y-84993000D01*
X137734000Y-85695000D01*
X137734000Y-85695000D01*
G37*
G36*
X136834000Y-85695000D02*
G01*
X136332000Y-85695000D01*
X136332000Y-84993000D01*
X136834000Y-84993000D01*
X136834000Y-85695000D01*
X136834000Y-85695000D01*
G37*
G36*
X135628000Y-85453000D02*
G01*
X134876000Y-85453000D01*
X134876000Y-84951000D01*
X135628000Y-84951000D01*
X135628000Y-85453000D01*
X135628000Y-85453000D01*
G37*
G36*
X189379642Y-83544781D02*
G01*
X189525414Y-83605162D01*
X189525416Y-83605163D01*
X189656608Y-83692822D01*
X189768178Y-83804392D01*
X189842110Y-83915040D01*
X189855838Y-83935586D01*
X189916219Y-84081358D01*
X189947000Y-84236107D01*
X189947000Y-84393893D01*
X189916219Y-84548642D01*
X189872371Y-84654500D01*
X189855837Y-84694416D01*
X189768178Y-84825608D01*
X189656608Y-84937178D01*
X189525416Y-85024837D01*
X189525415Y-85024838D01*
X189525414Y-85024838D01*
X189379642Y-85085219D01*
X189224893Y-85116000D01*
X189067107Y-85116000D01*
X188912358Y-85085219D01*
X188766586Y-85024838D01*
X188766585Y-85024838D01*
X188766584Y-85024837D01*
X188635392Y-84937178D01*
X188523822Y-84825608D01*
X188436163Y-84694416D01*
X188419629Y-84654500D01*
X188375781Y-84548642D01*
X188345000Y-84393893D01*
X188345000Y-84236107D01*
X188375781Y-84081358D01*
X188436162Y-83935586D01*
X188449890Y-83915040D01*
X188523822Y-83804392D01*
X188635392Y-83692822D01*
X188766584Y-83605163D01*
X188766586Y-83605162D01*
X188912358Y-83544781D01*
X189067107Y-83514000D01*
X189224893Y-83514000D01*
X189379642Y-83544781D01*
X189379642Y-83544781D01*
G37*
G36*
X114379642Y-83544781D02*
G01*
X114525414Y-83605162D01*
X114525416Y-83605163D01*
X114656608Y-83692822D01*
X114768178Y-83804392D01*
X114842110Y-83915040D01*
X114855838Y-83935586D01*
X114916219Y-84081358D01*
X114947000Y-84236107D01*
X114947000Y-84393893D01*
X114916219Y-84548642D01*
X114872371Y-84654500D01*
X114855837Y-84694416D01*
X114768178Y-84825608D01*
X114656608Y-84937178D01*
X114525416Y-85024837D01*
X114525415Y-85024838D01*
X114525414Y-85024838D01*
X114379642Y-85085219D01*
X114224893Y-85116000D01*
X114067107Y-85116000D01*
X113912358Y-85085219D01*
X113766586Y-85024838D01*
X113766585Y-85024838D01*
X113766584Y-85024837D01*
X113635392Y-84937178D01*
X113523822Y-84825608D01*
X113436163Y-84694416D01*
X113419629Y-84654500D01*
X113375781Y-84548642D01*
X113345000Y-84393893D01*
X113345000Y-84236107D01*
X113375781Y-84081358D01*
X113436162Y-83935586D01*
X113449890Y-83915040D01*
X113523822Y-83804392D01*
X113635392Y-83692822D01*
X113766584Y-83605163D01*
X113766586Y-83605162D01*
X113912358Y-83544781D01*
X114067107Y-83514000D01*
X114224893Y-83514000D01*
X114379642Y-83544781D01*
X114379642Y-83544781D01*
G37*
G36*
X186935000Y-84679000D02*
G01*
X186433000Y-84679000D01*
X186433000Y-83977000D01*
X186935000Y-83977000D01*
X186935000Y-84679000D01*
X186935000Y-84679000D01*
G37*
G36*
X187835000Y-84679000D02*
G01*
X187333000Y-84679000D01*
X187333000Y-83977000D01*
X187835000Y-83977000D01*
X187835000Y-84679000D01*
X187835000Y-84679000D01*
G37*
G36*
X116843000Y-84679000D02*
G01*
X116341000Y-84679000D01*
X116341000Y-83977000D01*
X116843000Y-83977000D01*
X116843000Y-84679000D01*
X116843000Y-84679000D01*
G37*
G36*
X115943000Y-84679000D02*
G01*
X115441000Y-84679000D01*
X115441000Y-83977000D01*
X115943000Y-83977000D01*
X115943000Y-84679000D01*
X115943000Y-84679000D01*
G37*
G36*
X160956000Y-84213000D02*
G01*
X160354000Y-84213000D01*
X160354000Y-83511000D01*
X160956000Y-83511000D01*
X160956000Y-84213000D01*
X160956000Y-84213000D01*
G37*
G36*
X161845000Y-84213000D02*
G01*
X161243000Y-84213000D01*
X161243000Y-83511000D01*
X161845000Y-83511000D01*
X161845000Y-84213000D01*
X161845000Y-84213000D01*
G37*
G36*
X162734000Y-84213000D02*
G01*
X162132000Y-84213000D01*
X162132000Y-83511000D01*
X162734000Y-83511000D01*
X162734000Y-84213000D01*
X162734000Y-84213000D01*
G37*
G36*
X160067000Y-84213000D02*
G01*
X159465000Y-84213000D01*
X159465000Y-83511000D01*
X160067000Y-83511000D01*
X160067000Y-84213000D01*
X160067000Y-84213000D01*
G37*
G36*
X106219442Y-81832518D02*
G01*
X106285627Y-81839037D01*
X106455466Y-81890557D01*
X106611991Y-81974222D01*
X106647729Y-82003552D01*
X106749186Y-82086814D01*
X106820824Y-82174107D01*
X106861778Y-82224009D01*
X106945443Y-82380534D01*
X106996963Y-82550373D01*
X107014359Y-82727000D01*
X106996963Y-82903627D01*
X106981834Y-82953500D01*
X106945442Y-83073468D01*
X106903611Y-83151728D01*
X106861778Y-83229991D01*
X106842838Y-83253069D01*
X106749186Y-83367186D01*
X106667902Y-83433893D01*
X106611991Y-83479778D01*
X106455466Y-83563443D01*
X106285627Y-83614963D01*
X106219443Y-83621481D01*
X106153260Y-83628000D01*
X106064740Y-83628000D01*
X105998557Y-83621481D01*
X105932373Y-83614963D01*
X105762534Y-83563443D01*
X105606009Y-83479778D01*
X105550098Y-83433893D01*
X105468814Y-83367186D01*
X105375162Y-83253069D01*
X105356222Y-83229991D01*
X105314390Y-83151729D01*
X105272558Y-83073468D01*
X105236166Y-82953500D01*
X105221037Y-82903627D01*
X105203641Y-82727000D01*
X105221037Y-82550373D01*
X105272557Y-82380534D01*
X105356222Y-82224009D01*
X105397176Y-82174107D01*
X105468814Y-82086814D01*
X105570271Y-82003552D01*
X105606009Y-81974222D01*
X105762534Y-81890557D01*
X105932373Y-81839037D01*
X105998558Y-81832518D01*
X106064740Y-81826000D01*
X106153260Y-81826000D01*
X106219442Y-81832518D01*
X106219442Y-81832518D01*
G37*
G36*
X145399000Y-83197000D02*
G01*
X144797000Y-83197000D01*
X144797000Y-82495000D01*
X145399000Y-82495000D01*
X145399000Y-83197000D01*
X145399000Y-83197000D01*
G37*
G36*
X144509000Y-83197000D02*
G01*
X143907000Y-83197000D01*
X143907000Y-82495000D01*
X144509000Y-82495000D01*
X144509000Y-83197000D01*
X144509000Y-83197000D01*
G37*
G36*
X142731000Y-83197000D02*
G01*
X142129000Y-83197000D01*
X142129000Y-82495000D01*
X142731000Y-82495000D01*
X142731000Y-83197000D01*
X142731000Y-83197000D01*
G37*
G36*
X143621000Y-83197000D02*
G01*
X143019000Y-83197000D01*
X143019000Y-82495000D01*
X143621000Y-82495000D01*
X143621000Y-83197000D01*
X143621000Y-83197000D01*
G37*
G36*
X161845000Y-83113000D02*
G01*
X161243000Y-83113000D01*
X161243000Y-82411000D01*
X161845000Y-82411000D01*
X161845000Y-83113000D01*
X161845000Y-83113000D01*
G37*
G36*
X160067000Y-83113000D02*
G01*
X159465000Y-83113000D01*
X159465000Y-82411000D01*
X160067000Y-82411000D01*
X160067000Y-83113000D01*
X160067000Y-83113000D01*
G37*
G36*
X160956000Y-83113000D02*
G01*
X160354000Y-83113000D01*
X160354000Y-82411000D01*
X160956000Y-82411000D01*
X160956000Y-83113000D01*
X160956000Y-83113000D01*
G37*
G36*
X162734000Y-83113000D02*
G01*
X162132000Y-83113000D01*
X162132000Y-82411000D01*
X162734000Y-82411000D01*
X162734000Y-83113000D01*
X162734000Y-83113000D01*
G37*
G36*
X114379642Y-81004781D02*
G01*
X114525414Y-81065162D01*
X114525416Y-81065163D01*
X114656608Y-81152822D01*
X114768178Y-81264392D01*
X114855837Y-81395584D01*
X114855838Y-81395586D01*
X114916219Y-81541358D01*
X114947000Y-81696107D01*
X114947000Y-81853893D01*
X114916219Y-82008642D01*
X114862223Y-82139000D01*
X114855837Y-82154416D01*
X114768178Y-82285608D01*
X114656608Y-82397178D01*
X114525416Y-82484837D01*
X114525415Y-82484838D01*
X114525414Y-82484838D01*
X114379642Y-82545219D01*
X114224893Y-82576000D01*
X114067107Y-82576000D01*
X113912358Y-82545219D01*
X113766586Y-82484838D01*
X113766585Y-82484838D01*
X113766584Y-82484837D01*
X113635392Y-82397178D01*
X113523822Y-82285608D01*
X113436163Y-82154416D01*
X113429777Y-82139000D01*
X113375781Y-82008642D01*
X113345000Y-81853893D01*
X113345000Y-81696107D01*
X113375781Y-81541358D01*
X113436162Y-81395586D01*
X113436163Y-81395584D01*
X113523822Y-81264392D01*
X113635392Y-81152822D01*
X113766584Y-81065163D01*
X113766586Y-81065162D01*
X113912358Y-81004781D01*
X114067107Y-80974000D01*
X114224893Y-80974000D01*
X114379642Y-81004781D01*
X114379642Y-81004781D01*
G37*
G36*
X189379642Y-81004781D02*
G01*
X189525414Y-81065162D01*
X189525416Y-81065163D01*
X189656608Y-81152822D01*
X189768178Y-81264392D01*
X189855837Y-81395584D01*
X189855838Y-81395586D01*
X189916219Y-81541358D01*
X189947000Y-81696107D01*
X189947000Y-81853893D01*
X189916219Y-82008642D01*
X189862223Y-82139000D01*
X189855837Y-82154416D01*
X189768178Y-82285608D01*
X189656608Y-82397178D01*
X189525416Y-82484837D01*
X189525415Y-82484838D01*
X189525414Y-82484838D01*
X189379642Y-82545219D01*
X189224893Y-82576000D01*
X189067107Y-82576000D01*
X188912358Y-82545219D01*
X188766586Y-82484838D01*
X188766585Y-82484838D01*
X188766584Y-82484837D01*
X188635392Y-82397178D01*
X188523822Y-82285608D01*
X188436163Y-82154416D01*
X188429777Y-82139000D01*
X188375781Y-82008642D01*
X188345000Y-81853893D01*
X188345000Y-81696107D01*
X188375781Y-81541358D01*
X188436162Y-81395586D01*
X188436163Y-81395584D01*
X188523822Y-81264392D01*
X188635392Y-81152822D01*
X188766584Y-81065163D01*
X188766586Y-81065162D01*
X188912358Y-81004781D01*
X189067107Y-80974000D01*
X189224893Y-80974000D01*
X189379642Y-81004781D01*
X189379642Y-81004781D01*
G37*
G36*
X187835000Y-82139000D02*
G01*
X187333000Y-82139000D01*
X187333000Y-81437000D01*
X187835000Y-81437000D01*
X187835000Y-82139000D01*
X187835000Y-82139000D01*
G37*
G36*
X116843000Y-82139000D02*
G01*
X116341000Y-82139000D01*
X116341000Y-81437000D01*
X116843000Y-81437000D01*
X116843000Y-82139000D01*
X116843000Y-82139000D01*
G37*
G36*
X115943000Y-82139000D02*
G01*
X115441000Y-82139000D01*
X115441000Y-81437000D01*
X115943000Y-81437000D01*
X115943000Y-82139000D01*
X115943000Y-82139000D01*
G37*
G36*
X186935000Y-82139000D02*
G01*
X186433000Y-82139000D01*
X186433000Y-81437000D01*
X186935000Y-81437000D01*
X186935000Y-82139000D01*
X186935000Y-82139000D01*
G37*
G36*
X171505000Y-82125500D02*
G01*
X170803000Y-82125500D01*
X170803000Y-81323500D01*
X171505000Y-81323500D01*
X171505000Y-82125500D01*
X171505000Y-82125500D01*
G37*
G36*
X172605000Y-82125500D02*
G01*
X171903000Y-82125500D01*
X171903000Y-81323500D01*
X172605000Y-81323500D01*
X172605000Y-82125500D01*
X172605000Y-82125500D01*
G37*
G36*
X168400000Y-82117500D02*
G01*
X167648000Y-82117500D01*
X167648000Y-80315500D01*
X168400000Y-80315500D01*
X168400000Y-82117500D01*
X168400000Y-82117500D01*
G37*
G36*
X170300000Y-82117500D02*
G01*
X169548000Y-82117500D01*
X169548000Y-81615500D01*
X170300000Y-81615500D01*
X170300000Y-82117500D01*
X170300000Y-82117500D01*
G37*
G36*
X142731000Y-82097000D02*
G01*
X142129000Y-82097000D01*
X142129000Y-81395000D01*
X142731000Y-81395000D01*
X142731000Y-82097000D01*
X142731000Y-82097000D01*
G37*
G36*
X143621000Y-82097000D02*
G01*
X143019000Y-82097000D01*
X143019000Y-81395000D01*
X143621000Y-81395000D01*
X143621000Y-82097000D01*
X143621000Y-82097000D01*
G37*
G36*
X144509000Y-82097000D02*
G01*
X143907000Y-82097000D01*
X143907000Y-81395000D01*
X144509000Y-81395000D01*
X144509000Y-82097000D01*
X144509000Y-82097000D01*
G37*
G36*
X145399000Y-82097000D02*
G01*
X144797000Y-82097000D01*
X144797000Y-81395000D01*
X145399000Y-81395000D01*
X145399000Y-82097000D01*
X145399000Y-82097000D01*
G37*
G36*
X163800000Y-82044500D02*
G01*
X163098000Y-82044500D01*
X163098000Y-81542500D01*
X163800000Y-81542500D01*
X163800000Y-82044500D01*
X163800000Y-82044500D01*
G37*
G36*
X179942000Y-81353000D02*
G01*
X178540000Y-81353000D01*
X178540000Y-79951000D01*
X179942000Y-79951000D01*
X179942000Y-81353000D01*
X179942000Y-81353000D01*
G37*
G36*
X163800000Y-81144500D02*
G01*
X163098000Y-81144500D01*
X163098000Y-80642500D01*
X163800000Y-80642500D01*
X163800000Y-81144500D01*
X163800000Y-81144500D01*
G37*
G36*
X202937000Y-81112500D02*
G01*
X199335000Y-81112500D01*
X199335000Y-77510500D01*
X202937000Y-77510500D01*
X202937000Y-81112500D01*
X202937000Y-81112500D01*
G37*
G36*
X196937000Y-81112500D02*
G01*
X193335000Y-81112500D01*
X193335000Y-77510500D01*
X196937000Y-77510500D01*
X196937000Y-81112500D01*
X196937000Y-81112500D01*
G37*
G36*
X106211609Y-79291747D02*
G01*
X106285627Y-79299037D01*
X106455466Y-79350557D01*
X106455468Y-79350558D01*
X106463649Y-79354931D01*
X106611991Y-79434222D01*
X106635481Y-79453500D01*
X106749186Y-79546814D01*
X106832448Y-79648271D01*
X106861778Y-79684009D01*
X106861779Y-79684011D01*
X106945311Y-79840286D01*
X106945443Y-79840534D01*
X106996963Y-80010373D01*
X107014359Y-80187000D01*
X106996963Y-80363627D01*
X106945443Y-80533466D01*
X106861778Y-80689991D01*
X106859341Y-80692960D01*
X106749186Y-80827186D01*
X106647729Y-80910448D01*
X106611991Y-80939778D01*
X106455466Y-81023443D01*
X106285627Y-81074963D01*
X106219443Y-81081481D01*
X106153260Y-81088000D01*
X106064740Y-81088000D01*
X105998557Y-81081481D01*
X105932373Y-81074963D01*
X105762534Y-81023443D01*
X105606009Y-80939778D01*
X105570271Y-80910448D01*
X105468814Y-80827186D01*
X105358659Y-80692960D01*
X105356222Y-80689991D01*
X105272557Y-80533466D01*
X105221037Y-80363627D01*
X105203641Y-80187000D01*
X105221037Y-80010373D01*
X105272557Y-79840534D01*
X105272690Y-79840286D01*
X105356221Y-79684011D01*
X105356222Y-79684009D01*
X105385552Y-79648271D01*
X105468814Y-79546814D01*
X105582519Y-79453500D01*
X105606009Y-79434222D01*
X105754351Y-79354931D01*
X105762532Y-79350558D01*
X105762534Y-79350557D01*
X105932373Y-79299037D01*
X106006391Y-79291747D01*
X106064740Y-79286000D01*
X106153260Y-79286000D01*
X106211609Y-79291747D01*
X106211609Y-79291747D01*
G37*
G36*
X172405000Y-81059500D02*
G01*
X171903000Y-81059500D01*
X171903000Y-80357500D01*
X172405000Y-80357500D01*
X172405000Y-81059500D01*
X172405000Y-81059500D01*
G37*
G36*
X171505000Y-81059500D02*
G01*
X171003000Y-81059500D01*
X171003000Y-80357500D01*
X171505000Y-80357500D01*
X171505000Y-81059500D01*
X171505000Y-81059500D01*
G37*
G36*
X145107000Y-81030000D02*
G01*
X144405000Y-81030000D01*
X144405000Y-80428000D01*
X145107000Y-80428000D01*
X145107000Y-81030000D01*
X145107000Y-81030000D01*
G37*
G36*
X144007000Y-81030000D02*
G01*
X143305000Y-81030000D01*
X143305000Y-80428000D01*
X144007000Y-80428000D01*
X144007000Y-81030000D01*
X144007000Y-81030000D01*
G37*
G36*
X170300000Y-80817500D02*
G01*
X169548000Y-80817500D01*
X169548000Y-80315500D01*
X170300000Y-80315500D01*
X170300000Y-80817500D01*
X170300000Y-80817500D01*
G37*
G36*
X163800000Y-80330000D02*
G01*
X163098000Y-80330000D01*
X163098000Y-79828000D01*
X163800000Y-79828000D01*
X163800000Y-80330000D01*
X163800000Y-80330000D01*
G37*
G36*
X185792000Y-80203000D02*
G01*
X183690000Y-80203000D01*
X183690000Y-78801000D01*
X185792000Y-78801000D01*
X185792000Y-80203000D01*
X185792000Y-80203000D01*
G37*
G36*
X144009000Y-80107000D02*
G01*
X143507000Y-80107000D01*
X143507000Y-79405000D01*
X144009000Y-79405000D01*
X144009000Y-80107000D01*
X144009000Y-80107000D01*
G37*
G36*
X144909000Y-80107000D02*
G01*
X144407000Y-80107000D01*
X144407000Y-79405000D01*
X144909000Y-79405000D01*
X144909000Y-80107000D01*
X144909000Y-80107000D01*
G37*
G36*
X189379642Y-78464781D02*
G01*
X189525414Y-78525162D01*
X189525416Y-78525163D01*
X189656608Y-78612822D01*
X189768178Y-78724392D01*
X189855837Y-78855584D01*
X189855838Y-78855586D01*
X189916219Y-79001358D01*
X189947000Y-79156107D01*
X189947000Y-79313893D01*
X189916219Y-79468642D01*
X189862223Y-79599000D01*
X189855837Y-79614416D01*
X189768178Y-79745608D01*
X189656608Y-79857178D01*
X189525416Y-79944837D01*
X189525415Y-79944838D01*
X189525414Y-79944838D01*
X189379642Y-80005219D01*
X189224893Y-80036000D01*
X189067107Y-80036000D01*
X188912358Y-80005219D01*
X188766586Y-79944838D01*
X188766585Y-79944838D01*
X188766584Y-79944837D01*
X188635392Y-79857178D01*
X188523822Y-79745608D01*
X188436163Y-79614416D01*
X188429777Y-79599000D01*
X188375781Y-79468642D01*
X188345000Y-79313893D01*
X188345000Y-79156107D01*
X188375781Y-79001358D01*
X188436162Y-78855586D01*
X188436163Y-78855584D01*
X188523822Y-78724392D01*
X188635392Y-78612822D01*
X188766584Y-78525163D01*
X188766586Y-78525162D01*
X188912358Y-78464781D01*
X189067107Y-78434000D01*
X189224893Y-78434000D01*
X189379642Y-78464781D01*
X189379642Y-78464781D01*
G37*
G36*
X114379642Y-78464781D02*
G01*
X114525414Y-78525162D01*
X114525416Y-78525163D01*
X114656608Y-78612822D01*
X114768178Y-78724392D01*
X114855837Y-78855584D01*
X114855838Y-78855586D01*
X114916219Y-79001358D01*
X114947000Y-79156107D01*
X114947000Y-79313893D01*
X114916219Y-79468642D01*
X114862223Y-79599000D01*
X114855837Y-79614416D01*
X114768178Y-79745608D01*
X114656608Y-79857178D01*
X114525416Y-79944837D01*
X114525415Y-79944838D01*
X114525414Y-79944838D01*
X114379642Y-80005219D01*
X114224893Y-80036000D01*
X114067107Y-80036000D01*
X113912358Y-80005219D01*
X113766586Y-79944838D01*
X113766585Y-79944838D01*
X113766584Y-79944837D01*
X113635392Y-79857178D01*
X113523822Y-79745608D01*
X113436163Y-79614416D01*
X113429777Y-79599000D01*
X113375781Y-79468642D01*
X113345000Y-79313893D01*
X113345000Y-79156107D01*
X113375781Y-79001358D01*
X113436162Y-78855586D01*
X113436163Y-78855584D01*
X113523822Y-78724392D01*
X113635392Y-78612822D01*
X113766584Y-78525163D01*
X113766586Y-78525162D01*
X113912358Y-78464781D01*
X114067107Y-78434000D01*
X114224893Y-78434000D01*
X114379642Y-78464781D01*
X114379642Y-78464781D01*
G37*
G36*
X115943000Y-79599000D02*
G01*
X115441000Y-79599000D01*
X115441000Y-78897000D01*
X115943000Y-78897000D01*
X115943000Y-79599000D01*
X115943000Y-79599000D01*
G37*
G36*
X116843000Y-79599000D02*
G01*
X116341000Y-79599000D01*
X116341000Y-78897000D01*
X116843000Y-78897000D01*
X116843000Y-79599000D01*
X116843000Y-79599000D01*
G37*
G36*
X163800000Y-79430000D02*
G01*
X163098000Y-79430000D01*
X163098000Y-78928000D01*
X163800000Y-78928000D01*
X163800000Y-79430000D01*
X163800000Y-79430000D01*
G37*
G36*
X179942000Y-79053000D02*
G01*
X178540000Y-79053000D01*
X178540000Y-77651000D01*
X179942000Y-77651000D01*
X179942000Y-79053000D01*
X179942000Y-79053000D01*
G37*
G36*
X129696000Y-78824500D02*
G01*
X128044000Y-78824500D01*
X128044000Y-78122500D01*
X129696000Y-78122500D01*
X129696000Y-78824500D01*
X129696000Y-78824500D01*
G37*
G36*
X124296000Y-78824500D02*
G01*
X122644000Y-78824500D01*
X122644000Y-78122500D01*
X124296000Y-78122500D01*
X124296000Y-78824500D01*
X124296000Y-78824500D01*
G37*
G36*
X107010000Y-78548000D02*
G01*
X105208000Y-78548000D01*
X105208000Y-76746000D01*
X107010000Y-76746000D01*
X107010000Y-78548000D01*
X107010000Y-78548000D01*
G37*
G36*
X165397642Y-76826781D02*
G01*
X165543414Y-76887162D01*
X165543416Y-76887163D01*
X165674608Y-76974822D01*
X165786178Y-77086392D01*
X165859415Y-77196000D01*
X165873838Y-77217586D01*
X165934219Y-77363358D01*
X165965000Y-77518107D01*
X165965000Y-77675893D01*
X165934219Y-77830642D01*
X165894493Y-77926549D01*
X165873837Y-77976416D01*
X165786178Y-78107608D01*
X165674608Y-78219178D01*
X165543416Y-78306837D01*
X165543415Y-78306838D01*
X165543414Y-78306838D01*
X165397642Y-78367219D01*
X165242893Y-78398000D01*
X165085107Y-78398000D01*
X164930358Y-78367219D01*
X164784586Y-78306838D01*
X164784585Y-78306838D01*
X164784584Y-78306837D01*
X164653392Y-78219178D01*
X164541822Y-78107608D01*
X164454163Y-77976416D01*
X164433507Y-77926549D01*
X164393781Y-77830642D01*
X164363000Y-77675893D01*
X164363000Y-77518107D01*
X164393781Y-77363358D01*
X164454162Y-77217586D01*
X164468585Y-77196000D01*
X164541822Y-77086392D01*
X164653392Y-76974822D01*
X164784584Y-76887163D01*
X164784586Y-76887162D01*
X164930358Y-76826781D01*
X165085107Y-76796000D01*
X165242893Y-76796000D01*
X165397642Y-76826781D01*
X165397642Y-76826781D01*
G37*
G36*
X163673000Y-78298000D02*
G01*
X162971000Y-78298000D01*
X162971000Y-77796000D01*
X163673000Y-77796000D01*
X163673000Y-78298000D01*
X163673000Y-78298000D01*
G37*
G36*
X172605000Y-77998000D02*
G01*
X171903000Y-77998000D01*
X171903000Y-77196000D01*
X172605000Y-77196000D01*
X172605000Y-77998000D01*
X172605000Y-77998000D01*
G37*
G36*
X171505000Y-77998000D02*
G01*
X170803000Y-77998000D01*
X170803000Y-77196000D01*
X171505000Y-77196000D01*
X171505000Y-77998000D01*
X171505000Y-77998000D01*
G37*
G36*
X168400000Y-77990000D02*
G01*
X167648000Y-77990000D01*
X167648000Y-76188000D01*
X168400000Y-76188000D01*
X168400000Y-77990000D01*
X168400000Y-77990000D01*
G37*
G36*
X170300000Y-77990000D02*
G01*
X169548000Y-77990000D01*
X169548000Y-77488000D01*
X170300000Y-77488000D01*
X170300000Y-77990000D01*
X170300000Y-77990000D01*
G37*
G36*
X148884295Y-76354323D02*
G01*
X148891309Y-76356451D01*
X148905077Y-76363810D01*
X148927716Y-76373187D01*
X148951749Y-76377967D01*
X148976253Y-76377967D01*
X149000286Y-76373186D01*
X149022923Y-76363810D01*
X149036691Y-76356451D01*
X149043705Y-76354323D01*
X149057140Y-76353000D01*
X149370860Y-76353000D01*
X149384295Y-76354323D01*
X149391309Y-76356451D01*
X149405077Y-76363810D01*
X149427716Y-76373187D01*
X149451749Y-76377967D01*
X149476253Y-76377967D01*
X149500286Y-76373186D01*
X149522923Y-76363810D01*
X149536691Y-76356451D01*
X149543705Y-76354323D01*
X149557140Y-76353000D01*
X149870860Y-76353000D01*
X149884295Y-76354323D01*
X149891309Y-76356451D01*
X149905077Y-76363810D01*
X149927716Y-76373187D01*
X149951749Y-76377967D01*
X149976253Y-76377967D01*
X150000286Y-76373186D01*
X150022923Y-76363810D01*
X150036691Y-76356451D01*
X150043705Y-76354323D01*
X150057140Y-76353000D01*
X150370860Y-76353000D01*
X150384295Y-76354323D01*
X150391309Y-76356451D01*
X150405077Y-76363810D01*
X150427716Y-76373187D01*
X150451749Y-76377967D01*
X150476253Y-76377967D01*
X150500286Y-76373186D01*
X150522923Y-76363810D01*
X150536691Y-76356451D01*
X150543705Y-76354323D01*
X150557140Y-76353000D01*
X150870860Y-76353000D01*
X150884295Y-76354323D01*
X150891309Y-76356451D01*
X150905077Y-76363810D01*
X150927716Y-76373187D01*
X150951749Y-76377967D01*
X150976253Y-76377967D01*
X151000286Y-76373186D01*
X151022923Y-76363810D01*
X151036691Y-76356451D01*
X151043705Y-76354323D01*
X151057140Y-76353000D01*
X151370860Y-76353000D01*
X151384295Y-76354323D01*
X151391309Y-76356451D01*
X151405077Y-76363810D01*
X151427716Y-76373187D01*
X151451749Y-76377967D01*
X151476253Y-76377967D01*
X151500286Y-76373186D01*
X151522923Y-76363810D01*
X151536691Y-76356451D01*
X151543705Y-76354323D01*
X151557140Y-76353000D01*
X151870860Y-76353000D01*
X151884295Y-76354323D01*
X151891309Y-76356451D01*
X151905077Y-76363810D01*
X151927716Y-76373187D01*
X151951749Y-76377967D01*
X151976253Y-76377967D01*
X152000286Y-76373186D01*
X152022923Y-76363810D01*
X152036691Y-76356451D01*
X152043705Y-76354323D01*
X152057140Y-76353000D01*
X152370860Y-76353000D01*
X152384295Y-76354323D01*
X152391309Y-76356451D01*
X152405077Y-76363810D01*
X152427716Y-76373187D01*
X152451749Y-76377967D01*
X152476253Y-76377967D01*
X152500286Y-76373186D01*
X152522923Y-76363810D01*
X152536691Y-76356451D01*
X152543705Y-76354323D01*
X152557140Y-76353000D01*
X152870860Y-76353000D01*
X152884295Y-76354323D01*
X152891309Y-76356451D01*
X152905077Y-76363810D01*
X152927716Y-76373187D01*
X152951749Y-76377967D01*
X152976253Y-76377967D01*
X153000286Y-76373186D01*
X153022923Y-76363810D01*
X153036691Y-76356451D01*
X153043705Y-76354323D01*
X153057140Y-76353000D01*
X153370860Y-76353000D01*
X153384295Y-76354323D01*
X153391309Y-76356451D01*
X153405077Y-76363810D01*
X153427716Y-76373187D01*
X153451749Y-76377967D01*
X153476253Y-76377967D01*
X153500286Y-76373186D01*
X153522923Y-76363810D01*
X153536691Y-76356451D01*
X153543705Y-76354323D01*
X153557140Y-76353000D01*
X153870860Y-76353000D01*
X153884295Y-76354323D01*
X153891309Y-76356451D01*
X153905077Y-76363810D01*
X153927716Y-76373187D01*
X153951749Y-76377967D01*
X153976253Y-76377967D01*
X154000286Y-76373186D01*
X154022923Y-76363810D01*
X154036691Y-76356451D01*
X154043705Y-76354323D01*
X154057140Y-76353000D01*
X154370860Y-76353000D01*
X154384295Y-76354323D01*
X154391309Y-76356451D01*
X154405077Y-76363810D01*
X154427716Y-76373187D01*
X154451749Y-76377967D01*
X154476253Y-76377967D01*
X154500286Y-76373186D01*
X154522923Y-76363810D01*
X154536691Y-76356451D01*
X154543705Y-76354323D01*
X154557140Y-76353000D01*
X154870860Y-76353000D01*
X154884295Y-76354323D01*
X154891309Y-76356451D01*
X154905077Y-76363810D01*
X154927716Y-76373187D01*
X154951749Y-76377967D01*
X154976253Y-76377967D01*
X155000286Y-76373186D01*
X155022923Y-76363810D01*
X155036691Y-76356451D01*
X155043705Y-76354323D01*
X155057140Y-76353000D01*
X155370860Y-76353000D01*
X155384295Y-76354323D01*
X155391309Y-76356451D01*
X155405077Y-76363810D01*
X155427716Y-76373187D01*
X155451749Y-76377967D01*
X155476253Y-76377967D01*
X155500286Y-76373186D01*
X155522923Y-76363810D01*
X155536691Y-76356451D01*
X155543705Y-76354323D01*
X155557140Y-76353000D01*
X155870860Y-76353000D01*
X155884295Y-76354323D01*
X155891309Y-76356451D01*
X155905077Y-76363810D01*
X155927716Y-76373187D01*
X155951749Y-76377967D01*
X155976253Y-76377967D01*
X156000286Y-76373186D01*
X156022923Y-76363810D01*
X156036691Y-76356451D01*
X156043705Y-76354323D01*
X156057140Y-76353000D01*
X156370860Y-76353000D01*
X156384295Y-76354323D01*
X156391310Y-76356451D01*
X156397776Y-76359908D01*
X156403442Y-76364558D01*
X156408092Y-76370224D01*
X156411549Y-76376690D01*
X156413677Y-76383705D01*
X156415000Y-76397140D01*
X156415000Y-77885860D01*
X156413677Y-77899295D01*
X156411549Y-77906310D01*
X156408092Y-77912776D01*
X156403442Y-77918442D01*
X156397776Y-77923092D01*
X156391310Y-77926549D01*
X156384295Y-77928677D01*
X156370860Y-77930000D01*
X156057140Y-77930000D01*
X156043705Y-77928677D01*
X156036691Y-77926549D01*
X156022923Y-77919190D01*
X156000284Y-77909813D01*
X155976251Y-77905033D01*
X155951747Y-77905033D01*
X155927714Y-77909814D01*
X155905077Y-77919190D01*
X155891309Y-77926549D01*
X155884295Y-77928677D01*
X155870860Y-77930000D01*
X155557140Y-77930000D01*
X155543705Y-77928677D01*
X155536691Y-77926549D01*
X155522923Y-77919190D01*
X155500284Y-77909813D01*
X155476251Y-77905033D01*
X155451747Y-77905033D01*
X155427714Y-77909814D01*
X155405077Y-77919190D01*
X155391309Y-77926549D01*
X155384295Y-77928677D01*
X155370860Y-77930000D01*
X155057140Y-77930000D01*
X155043705Y-77928677D01*
X155036691Y-77926549D01*
X155022923Y-77919190D01*
X155000284Y-77909813D01*
X154976251Y-77905033D01*
X154951747Y-77905033D01*
X154927714Y-77909814D01*
X154905077Y-77919190D01*
X154891309Y-77926549D01*
X154884295Y-77928677D01*
X154870860Y-77930000D01*
X154557140Y-77930000D01*
X154543705Y-77928677D01*
X154536691Y-77926549D01*
X154522923Y-77919190D01*
X154500284Y-77909813D01*
X154476251Y-77905033D01*
X154451747Y-77905033D01*
X154427714Y-77909814D01*
X154405077Y-77919190D01*
X154391309Y-77926549D01*
X154384295Y-77928677D01*
X154370860Y-77930000D01*
X154057140Y-77930000D01*
X154043705Y-77928677D01*
X154036691Y-77926549D01*
X154022923Y-77919190D01*
X154000284Y-77909813D01*
X153976251Y-77905033D01*
X153951747Y-77905033D01*
X153927714Y-77909814D01*
X153905077Y-77919190D01*
X153891309Y-77926549D01*
X153884295Y-77928677D01*
X153870860Y-77930000D01*
X153557140Y-77930000D01*
X153543705Y-77928677D01*
X153536691Y-77926549D01*
X153522923Y-77919190D01*
X153500284Y-77909813D01*
X153476251Y-77905033D01*
X153451747Y-77905033D01*
X153427714Y-77909814D01*
X153405077Y-77919190D01*
X153391309Y-77926549D01*
X153384295Y-77928677D01*
X153370860Y-77930000D01*
X153057140Y-77930000D01*
X153043705Y-77928677D01*
X153036691Y-77926549D01*
X153022923Y-77919190D01*
X153000284Y-77909813D01*
X152976251Y-77905033D01*
X152951747Y-77905033D01*
X152927714Y-77909814D01*
X152905077Y-77919190D01*
X152891309Y-77926549D01*
X152884295Y-77928677D01*
X152870860Y-77930000D01*
X152557140Y-77930000D01*
X152543705Y-77928677D01*
X152536691Y-77926549D01*
X152522923Y-77919190D01*
X152500284Y-77909813D01*
X152476251Y-77905033D01*
X152451747Y-77905033D01*
X152427714Y-77909814D01*
X152405077Y-77919190D01*
X152391309Y-77926549D01*
X152384295Y-77928677D01*
X152370860Y-77930000D01*
X152057140Y-77930000D01*
X152043705Y-77928677D01*
X152036691Y-77926549D01*
X152022923Y-77919190D01*
X152000284Y-77909813D01*
X151976251Y-77905033D01*
X151951747Y-77905033D01*
X151927714Y-77909814D01*
X151905077Y-77919190D01*
X151891309Y-77926549D01*
X151884295Y-77928677D01*
X151870860Y-77930000D01*
X151557140Y-77930000D01*
X151543705Y-77928677D01*
X151536691Y-77926549D01*
X151522923Y-77919190D01*
X151500284Y-77909813D01*
X151476251Y-77905033D01*
X151451747Y-77905033D01*
X151427714Y-77909814D01*
X151405077Y-77919190D01*
X151391309Y-77926549D01*
X151384295Y-77928677D01*
X151370860Y-77930000D01*
X151057140Y-77930000D01*
X151043705Y-77928677D01*
X151036691Y-77926549D01*
X151022923Y-77919190D01*
X151000284Y-77909813D01*
X150976251Y-77905033D01*
X150951747Y-77905033D01*
X150927714Y-77909814D01*
X150905077Y-77919190D01*
X150891309Y-77926549D01*
X150884295Y-77928677D01*
X150870860Y-77930000D01*
X150557140Y-77930000D01*
X150543705Y-77928677D01*
X150536691Y-77926549D01*
X150522923Y-77919190D01*
X150500284Y-77909813D01*
X150476251Y-77905033D01*
X150451747Y-77905033D01*
X150427714Y-77909814D01*
X150405077Y-77919190D01*
X150391309Y-77926549D01*
X150384295Y-77928677D01*
X150370860Y-77930000D01*
X150057140Y-77930000D01*
X150043705Y-77928677D01*
X150036691Y-77926549D01*
X150022923Y-77919190D01*
X150000284Y-77909813D01*
X149976251Y-77905033D01*
X149951747Y-77905033D01*
X149927714Y-77909814D01*
X149905077Y-77919190D01*
X149891309Y-77926549D01*
X149884295Y-77928677D01*
X149870860Y-77930000D01*
X149557140Y-77930000D01*
X149543705Y-77928677D01*
X149536691Y-77926549D01*
X149522923Y-77919190D01*
X149500284Y-77909813D01*
X149476251Y-77905033D01*
X149451747Y-77905033D01*
X149427714Y-77909814D01*
X149405077Y-77919190D01*
X149391309Y-77926549D01*
X149384295Y-77928677D01*
X149370860Y-77930000D01*
X149057140Y-77930000D01*
X149043705Y-77928677D01*
X149036691Y-77926549D01*
X149022923Y-77919190D01*
X149000284Y-77909813D01*
X148976251Y-77905033D01*
X148951747Y-77905033D01*
X148927714Y-77909814D01*
X148905077Y-77919190D01*
X148891309Y-77926549D01*
X148884295Y-77928677D01*
X148870860Y-77930000D01*
X148557140Y-77930000D01*
X148543705Y-77928677D01*
X148536690Y-77926549D01*
X148530224Y-77923092D01*
X148524558Y-77918442D01*
X148519908Y-77912776D01*
X148516451Y-77906310D01*
X148514323Y-77899295D01*
X148513000Y-77885860D01*
X148513000Y-76397140D01*
X148514323Y-76383705D01*
X148516451Y-76376690D01*
X148519908Y-76370224D01*
X148524558Y-76364558D01*
X148530224Y-76359908D01*
X148536690Y-76356451D01*
X148543705Y-76354323D01*
X148557140Y-76353000D01*
X148870860Y-76353000D01*
X148884295Y-76354323D01*
X148884295Y-76354323D01*
G37*
G36*
X124296000Y-77554500D02*
G01*
X122644000Y-77554500D01*
X122644000Y-76852500D01*
X124296000Y-76852500D01*
X124296000Y-77554500D01*
X124296000Y-77554500D01*
G37*
G36*
X129696000Y-77554500D02*
G01*
X128044000Y-77554500D01*
X128044000Y-76852500D01*
X129696000Y-76852500D01*
X129696000Y-77554500D01*
X129696000Y-77554500D01*
G37*
G36*
X189379642Y-75924781D02*
G01*
X189525414Y-75985162D01*
X189525416Y-75985163D01*
X189656608Y-76072822D01*
X189768178Y-76184392D01*
X189835067Y-76284500D01*
X189855838Y-76315586D01*
X189916219Y-76461358D01*
X189947000Y-76616107D01*
X189947000Y-76773893D01*
X189916219Y-76928642D01*
X189862223Y-77059000D01*
X189855837Y-77074416D01*
X189768178Y-77205608D01*
X189656608Y-77317178D01*
X189525416Y-77404837D01*
X189525415Y-77404838D01*
X189525414Y-77404838D01*
X189379642Y-77465219D01*
X189224893Y-77496000D01*
X189067107Y-77496000D01*
X188912358Y-77465219D01*
X188766586Y-77404838D01*
X188766585Y-77404838D01*
X188766584Y-77404837D01*
X188635392Y-77317178D01*
X188523822Y-77205608D01*
X188436163Y-77074416D01*
X188429777Y-77059000D01*
X188375781Y-76928642D01*
X188345000Y-76773893D01*
X188345000Y-76616107D01*
X188375781Y-76461358D01*
X188436162Y-76315586D01*
X188456933Y-76284500D01*
X188523822Y-76184392D01*
X188635392Y-76072822D01*
X188766584Y-75985163D01*
X188766586Y-75985162D01*
X188912358Y-75924781D01*
X189067107Y-75894000D01*
X189224893Y-75894000D01*
X189379642Y-75924781D01*
X189379642Y-75924781D01*
G37*
G36*
X114379642Y-75924781D02*
G01*
X114525414Y-75985162D01*
X114525416Y-75985163D01*
X114656608Y-76072822D01*
X114768178Y-76184392D01*
X114835067Y-76284500D01*
X114855838Y-76315586D01*
X114916219Y-76461358D01*
X114947000Y-76616107D01*
X114947000Y-76773893D01*
X114916219Y-76928642D01*
X114862223Y-77059000D01*
X114855837Y-77074416D01*
X114768178Y-77205608D01*
X114656608Y-77317178D01*
X114525416Y-77404837D01*
X114525415Y-77404838D01*
X114525414Y-77404838D01*
X114379642Y-77465219D01*
X114224893Y-77496000D01*
X114067107Y-77496000D01*
X113912358Y-77465219D01*
X113766586Y-77404838D01*
X113766585Y-77404838D01*
X113766584Y-77404837D01*
X113635392Y-77317178D01*
X113523822Y-77205608D01*
X113436163Y-77074416D01*
X113429777Y-77059000D01*
X113375781Y-76928642D01*
X113345000Y-76773893D01*
X113345000Y-76616107D01*
X113375781Y-76461358D01*
X113436162Y-76315586D01*
X113456933Y-76284500D01*
X113523822Y-76184392D01*
X113635392Y-76072822D01*
X113766584Y-75985163D01*
X113766586Y-75985162D01*
X113912358Y-75924781D01*
X114067107Y-75894000D01*
X114224893Y-75894000D01*
X114379642Y-75924781D01*
X114379642Y-75924781D01*
G37*
G36*
X163673000Y-77398000D02*
G01*
X162971000Y-77398000D01*
X162971000Y-76896000D01*
X163673000Y-76896000D01*
X163673000Y-77398000D01*
X163673000Y-77398000D01*
G37*
G36*
X115943000Y-77059000D02*
G01*
X115441000Y-77059000D01*
X115441000Y-76357000D01*
X115943000Y-76357000D01*
X115943000Y-77059000D01*
X115943000Y-77059000D01*
G37*
G36*
X116843000Y-77059000D02*
G01*
X116341000Y-77059000D01*
X116341000Y-76357000D01*
X116843000Y-76357000D01*
X116843000Y-77059000D01*
X116843000Y-77059000D01*
G37*
G36*
X171505000Y-76932000D02*
G01*
X171003000Y-76932000D01*
X171003000Y-76230000D01*
X171505000Y-76230000D01*
X171505000Y-76932000D01*
X171505000Y-76932000D01*
G37*
G36*
X172405000Y-76932000D02*
G01*
X171903000Y-76932000D01*
X171903000Y-76230000D01*
X172405000Y-76230000D01*
X172405000Y-76932000D01*
X172405000Y-76932000D01*
G37*
G36*
X170300000Y-76690000D02*
G01*
X169548000Y-76690000D01*
X169548000Y-76188000D01*
X170300000Y-76188000D01*
X170300000Y-76690000D01*
X170300000Y-76690000D01*
G37*
G36*
X186102000Y-76402500D02*
G01*
X185500000Y-76402500D01*
X185500000Y-75700500D01*
X186102000Y-75700500D01*
X186102000Y-76402500D01*
X186102000Y-76402500D01*
G37*
G36*
X185213000Y-76402500D02*
G01*
X184611000Y-76402500D01*
X184611000Y-75700500D01*
X185213000Y-75700500D01*
X185213000Y-76402500D01*
X185213000Y-76402500D01*
G37*
G36*
X186991000Y-76402500D02*
G01*
X186389000Y-76402500D01*
X186389000Y-75700500D01*
X186991000Y-75700500D01*
X186991000Y-76402500D01*
X186991000Y-76402500D01*
G37*
G36*
X187880000Y-76402500D02*
G01*
X187278000Y-76402500D01*
X187278000Y-75700500D01*
X187880000Y-75700500D01*
X187880000Y-76402500D01*
X187880000Y-76402500D01*
G37*
G36*
X124296000Y-76284500D02*
G01*
X122644000Y-76284500D01*
X122644000Y-75582500D01*
X124296000Y-75582500D01*
X124296000Y-76284500D01*
X124296000Y-76284500D01*
G37*
G36*
X129696000Y-76284500D02*
G01*
X128044000Y-76284500D01*
X128044000Y-75582500D01*
X129696000Y-75582500D01*
X129696000Y-76284500D01*
X129696000Y-76284500D01*
G37*
G36*
X201357000Y-75944500D02*
G01*
X198755000Y-75944500D01*
X198755000Y-74042500D01*
X201357000Y-74042500D01*
X201357000Y-75944500D01*
X201357000Y-75944500D01*
G37*
G36*
X197357000Y-75944500D02*
G01*
X194755000Y-75944500D01*
X194755000Y-74042500D01*
X197357000Y-74042500D01*
X197357000Y-75944500D01*
X197357000Y-75944500D01*
G37*
G36*
X151841000Y-75548500D02*
G01*
X151139000Y-75548500D01*
X151139000Y-74946500D01*
X151841000Y-74946500D01*
X151841000Y-75548500D01*
X151841000Y-75548500D01*
G37*
G36*
X153281000Y-75548500D02*
G01*
X152579000Y-75548500D01*
X152579000Y-74946500D01*
X153281000Y-74946500D01*
X153281000Y-75548500D01*
X153281000Y-75548500D01*
G37*
G36*
X154381000Y-75548500D02*
G01*
X153679000Y-75548500D01*
X153679000Y-74946500D01*
X154381000Y-74946500D01*
X154381000Y-75548500D01*
X154381000Y-75548500D01*
G37*
G36*
X150741000Y-75548500D02*
G01*
X150039000Y-75548500D01*
X150039000Y-74946500D01*
X150741000Y-74946500D01*
X150741000Y-75548500D01*
X150741000Y-75548500D01*
G37*
G36*
X187880000Y-75302500D02*
G01*
X187278000Y-75302500D01*
X187278000Y-74600500D01*
X187880000Y-74600500D01*
X187880000Y-75302500D01*
X187880000Y-75302500D01*
G37*
G36*
X186991000Y-75302500D02*
G01*
X186389000Y-75302500D01*
X186389000Y-74600500D01*
X186991000Y-74600500D01*
X186991000Y-75302500D01*
X186991000Y-75302500D01*
G37*
G36*
X185213000Y-75302500D02*
G01*
X184611000Y-75302500D01*
X184611000Y-74600500D01*
X185213000Y-74600500D01*
X185213000Y-75302500D01*
X185213000Y-75302500D01*
G37*
G36*
X186102000Y-75302500D02*
G01*
X185500000Y-75302500D01*
X185500000Y-74600500D01*
X186102000Y-74600500D01*
X186102000Y-75302500D01*
X186102000Y-75302500D01*
G37*
G36*
X129696000Y-75014500D02*
G01*
X128044000Y-75014500D01*
X128044000Y-74312500D01*
X129696000Y-74312500D01*
X129696000Y-75014500D01*
X129696000Y-75014500D01*
G37*
G36*
X124296000Y-75014500D02*
G01*
X122644000Y-75014500D01*
X122644000Y-74312500D01*
X124296000Y-74312500D01*
X124296000Y-75014500D01*
X124296000Y-75014500D01*
G37*
G36*
X114379642Y-73384781D02*
G01*
X114525414Y-73445162D01*
X114525416Y-73445163D01*
X114656608Y-73532822D01*
X114768178Y-73644392D01*
X114852440Y-73770500D01*
X114855838Y-73775586D01*
X114916219Y-73921358D01*
X114947000Y-74076107D01*
X114947000Y-74233893D01*
X114916219Y-74388642D01*
X114862223Y-74519000D01*
X114855837Y-74534416D01*
X114768178Y-74665608D01*
X114656608Y-74777178D01*
X114525416Y-74864837D01*
X114525415Y-74864838D01*
X114525414Y-74864838D01*
X114379642Y-74925219D01*
X114224893Y-74956000D01*
X114067107Y-74956000D01*
X113912358Y-74925219D01*
X113766586Y-74864838D01*
X113766585Y-74864838D01*
X113766584Y-74864837D01*
X113635392Y-74777178D01*
X113523822Y-74665608D01*
X113436163Y-74534416D01*
X113429777Y-74519000D01*
X113375781Y-74388642D01*
X113345000Y-74233893D01*
X113345000Y-74076107D01*
X113375781Y-73921358D01*
X113436162Y-73775586D01*
X113439560Y-73770500D01*
X113523822Y-73644392D01*
X113635392Y-73532822D01*
X113766584Y-73445163D01*
X113766586Y-73445162D01*
X113912358Y-73384781D01*
X114067107Y-73354000D01*
X114224893Y-73354000D01*
X114379642Y-73384781D01*
X114379642Y-73384781D01*
G37*
G36*
X189947000Y-74956000D02*
G01*
X188345000Y-74956000D01*
X188345000Y-73354000D01*
X189947000Y-73354000D01*
X189947000Y-74956000D01*
X189947000Y-74956000D01*
G37*
G36*
X153281000Y-74659500D02*
G01*
X152579000Y-74659500D01*
X152579000Y-74057500D01*
X153281000Y-74057500D01*
X153281000Y-74659500D01*
X153281000Y-74659500D01*
G37*
G36*
X154381000Y-74659500D02*
G01*
X153679000Y-74659500D01*
X153679000Y-74057500D01*
X154381000Y-74057500D01*
X154381000Y-74659500D01*
X154381000Y-74659500D01*
G37*
G36*
X151841000Y-74659500D02*
G01*
X151139000Y-74659500D01*
X151139000Y-74057500D01*
X151841000Y-74057500D01*
X151841000Y-74659500D01*
X151841000Y-74659500D01*
G37*
G36*
X150741000Y-74659500D02*
G01*
X150039000Y-74659500D01*
X150039000Y-74057500D01*
X150741000Y-74057500D01*
X150741000Y-74659500D01*
X150741000Y-74659500D01*
G37*
G36*
X116843000Y-74519000D02*
G01*
X116341000Y-74519000D01*
X116341000Y-73817000D01*
X116843000Y-73817000D01*
X116843000Y-74519000D01*
X116843000Y-74519000D01*
G37*
G36*
X115943000Y-74519000D02*
G01*
X115441000Y-74519000D01*
X115441000Y-73817000D01*
X115943000Y-73817000D01*
X115943000Y-74519000D01*
X115943000Y-74519000D01*
G37*
G36*
X171505000Y-73870500D02*
G01*
X170803000Y-73870500D01*
X170803000Y-73068500D01*
X171505000Y-73068500D01*
X171505000Y-73870500D01*
X171505000Y-73870500D01*
G37*
G36*
X172605000Y-73870500D02*
G01*
X171903000Y-73870500D01*
X171903000Y-73068500D01*
X172605000Y-73068500D01*
X172605000Y-73870500D01*
X172605000Y-73870500D01*
G37*
G36*
X168400000Y-73862500D02*
G01*
X167648000Y-73862500D01*
X167648000Y-72060500D01*
X168400000Y-72060500D01*
X168400000Y-73862500D01*
X168400000Y-73862500D01*
G37*
G36*
X170300000Y-73862500D02*
G01*
X169548000Y-73862500D01*
X169548000Y-73360500D01*
X170300000Y-73360500D01*
X170300000Y-73862500D01*
X170300000Y-73862500D01*
G37*
G36*
X153281000Y-73770500D02*
G01*
X152579000Y-73770500D01*
X152579000Y-73168500D01*
X153281000Y-73168500D01*
X153281000Y-73770500D01*
X153281000Y-73770500D01*
G37*
G36*
X154381000Y-73770500D02*
G01*
X153679000Y-73770500D01*
X153679000Y-73168500D01*
X154381000Y-73168500D01*
X154381000Y-73770500D01*
X154381000Y-73770500D01*
G37*
G36*
X150741000Y-73770500D02*
G01*
X150039000Y-73770500D01*
X150039000Y-73168500D01*
X150741000Y-73168500D01*
X150741000Y-73770500D01*
X150741000Y-73770500D01*
G37*
G36*
X151841000Y-73770500D02*
G01*
X151139000Y-73770500D01*
X151139000Y-73168500D01*
X151841000Y-73168500D01*
X151841000Y-73770500D01*
X151841000Y-73770500D01*
G37*
G36*
X139394564Y-71561389D02*
G01*
X139585833Y-71640615D01*
X139585835Y-71640616D01*
X139739063Y-71743000D01*
X139757973Y-71755635D01*
X139904365Y-71902027D01*
X140019385Y-72074167D01*
X140098611Y-72265436D01*
X140139000Y-72468484D01*
X140139000Y-72675516D01*
X140098611Y-72878564D01*
X140055145Y-72983500D01*
X140019384Y-73069835D01*
X139904365Y-73241973D01*
X139757973Y-73388365D01*
X139585835Y-73503384D01*
X139585834Y-73503385D01*
X139585833Y-73503385D01*
X139394564Y-73582611D01*
X139191516Y-73623000D01*
X138984484Y-73623000D01*
X138781436Y-73582611D01*
X138590167Y-73503385D01*
X138590166Y-73503385D01*
X138590165Y-73503384D01*
X138418027Y-73388365D01*
X138271635Y-73241973D01*
X138156616Y-73069835D01*
X138120855Y-72983500D01*
X138077389Y-72878564D01*
X138037000Y-72675516D01*
X138037000Y-72468484D01*
X138077389Y-72265436D01*
X138156615Y-72074167D01*
X138271635Y-71902027D01*
X138418027Y-71755635D01*
X138436937Y-71743000D01*
X138590165Y-71640616D01*
X138590167Y-71640615D01*
X138781436Y-71561389D01*
X138984484Y-71521000D01*
X139191516Y-71521000D01*
X139394564Y-71561389D01*
X139394564Y-71561389D01*
G37*
G36*
X132894564Y-71561389D02*
G01*
X133085833Y-71640615D01*
X133085835Y-71640616D01*
X133239063Y-71743000D01*
X133257973Y-71755635D01*
X133404365Y-71902027D01*
X133519385Y-72074167D01*
X133598611Y-72265436D01*
X133639000Y-72468484D01*
X133639000Y-72675516D01*
X133598611Y-72878564D01*
X133555145Y-72983500D01*
X133519384Y-73069835D01*
X133404365Y-73241973D01*
X133257973Y-73388365D01*
X133085835Y-73503384D01*
X133085834Y-73503385D01*
X133085833Y-73503385D01*
X132894564Y-73582611D01*
X132691516Y-73623000D01*
X132484484Y-73623000D01*
X132281436Y-73582611D01*
X132090167Y-73503385D01*
X132090166Y-73503385D01*
X132090165Y-73503384D01*
X131918027Y-73388365D01*
X131771635Y-73241973D01*
X131656616Y-73069835D01*
X131620855Y-72983500D01*
X131577389Y-72878564D01*
X131537000Y-72675516D01*
X131537000Y-72468484D01*
X131577389Y-72265436D01*
X131656615Y-72074167D01*
X131771635Y-71902027D01*
X131918027Y-71755635D01*
X131936937Y-71743000D01*
X132090165Y-71640616D01*
X132090167Y-71640615D01*
X132281436Y-71561389D01*
X132484484Y-71521000D01*
X132691516Y-71521000D01*
X132894564Y-71561389D01*
X132894564Y-71561389D01*
G37*
G36*
X142941000Y-73566500D02*
G01*
X142439000Y-73566500D01*
X142439000Y-72864500D01*
X142941000Y-72864500D01*
X142941000Y-73566500D01*
X142941000Y-73566500D01*
G37*
G36*
X143755000Y-73566500D02*
G01*
X143253000Y-73566500D01*
X143253000Y-72864500D01*
X143755000Y-72864500D01*
X143755000Y-73566500D01*
X143755000Y-73566500D01*
G37*
G36*
X142041000Y-73566500D02*
G01*
X141539000Y-73566500D01*
X141539000Y-72864500D01*
X142041000Y-72864500D01*
X142041000Y-73566500D01*
X142041000Y-73566500D01*
G37*
G36*
X144655000Y-73566500D02*
G01*
X144153000Y-73566500D01*
X144153000Y-72864500D01*
X144655000Y-72864500D01*
X144655000Y-73566500D01*
X144655000Y-73566500D01*
G37*
G36*
X127174000Y-73545000D02*
G01*
X126572000Y-73545000D01*
X126572000Y-72843000D01*
X127174000Y-72843000D01*
X127174000Y-73545000D01*
X127174000Y-73545000D01*
G37*
G36*
X126285000Y-73545000D02*
G01*
X125683000Y-73545000D01*
X125683000Y-72843000D01*
X126285000Y-72843000D01*
X126285000Y-73545000D01*
X126285000Y-73545000D01*
G37*
G36*
X128063000Y-73545000D02*
G01*
X127461000Y-73545000D01*
X127461000Y-72843000D01*
X128063000Y-72843000D01*
X128063000Y-73545000D01*
X128063000Y-73545000D01*
G37*
G36*
X128952000Y-73545000D02*
G01*
X128350000Y-73545000D01*
X128350000Y-72843000D01*
X128952000Y-72843000D01*
X128952000Y-73545000D01*
X128952000Y-73545000D01*
G37*
G36*
X125163000Y-72983500D02*
G01*
X124461000Y-72983500D01*
X124461000Y-72431500D01*
X125163000Y-72431500D01*
X125163000Y-72983500D01*
X125163000Y-72983500D01*
G37*
G36*
X123063000Y-72983500D02*
G01*
X122361000Y-72983500D01*
X122361000Y-72431500D01*
X123063000Y-72431500D01*
X123063000Y-72983500D01*
X123063000Y-72983500D01*
G37*
G36*
X150741000Y-72881500D02*
G01*
X150039000Y-72881500D01*
X150039000Y-72279500D01*
X150741000Y-72279500D01*
X150741000Y-72881500D01*
X150741000Y-72881500D01*
G37*
G36*
X151841000Y-72881500D02*
G01*
X151139000Y-72881500D01*
X151139000Y-72279500D01*
X151841000Y-72279500D01*
X151841000Y-72881500D01*
X151841000Y-72881500D01*
G37*
G36*
X172405000Y-72804500D02*
G01*
X171903000Y-72804500D01*
X171903000Y-72102500D01*
X172405000Y-72102500D01*
X172405000Y-72804500D01*
X172405000Y-72804500D01*
G37*
G36*
X171505000Y-72804500D02*
G01*
X171003000Y-72804500D01*
X171003000Y-72102500D01*
X171505000Y-72102500D01*
X171505000Y-72804500D01*
X171505000Y-72804500D01*
G37*
G36*
X170300000Y-72562500D02*
G01*
X169548000Y-72562500D01*
X169548000Y-72060500D01*
X170300000Y-72060500D01*
X170300000Y-72562500D01*
X170300000Y-72562500D01*
G37*
G36*
X128952000Y-72445000D02*
G01*
X128350000Y-72445000D01*
X128350000Y-71743000D01*
X128952000Y-71743000D01*
X128952000Y-72445000D01*
X128952000Y-72445000D01*
G37*
G36*
X128063000Y-72445000D02*
G01*
X127461000Y-72445000D01*
X127461000Y-71743000D01*
X128063000Y-71743000D01*
X128063000Y-72445000D01*
X128063000Y-72445000D01*
G37*
G36*
X127174000Y-72445000D02*
G01*
X126572000Y-72445000D01*
X126572000Y-71743000D01*
X127174000Y-71743000D01*
X127174000Y-72445000D01*
X127174000Y-72445000D01*
G37*
G36*
X126285000Y-72445000D02*
G01*
X125683000Y-72445000D01*
X125683000Y-71743000D01*
X126285000Y-71743000D01*
X126285000Y-72445000D01*
X126285000Y-72445000D01*
G37*
G36*
X144563000Y-72394000D02*
G01*
X144011000Y-72394000D01*
X144011000Y-71592000D01*
X144563000Y-71592000D01*
X144563000Y-72394000D01*
X144563000Y-72394000D01*
G37*
G36*
X143263000Y-72394000D02*
G01*
X142711000Y-72394000D01*
X142711000Y-71592000D01*
X143263000Y-71592000D01*
X143263000Y-72394000D01*
X143263000Y-72394000D01*
G37*
G36*
X142097000Y-71894000D02*
G01*
X141495000Y-71894000D01*
X141495000Y-71192000D01*
X142097000Y-71192000D01*
X142097000Y-71894000D01*
X142097000Y-71894000D01*
G37*
G36*
X124345000Y-71167000D02*
G01*
X123643000Y-71167000D01*
X123643000Y-70565000D01*
X124345000Y-70565000D01*
X124345000Y-71167000D01*
X124345000Y-71167000D01*
G37*
G36*
X123245000Y-71167000D02*
G01*
X122543000Y-71167000D01*
X122543000Y-70565000D01*
X123245000Y-70565000D01*
X123245000Y-71167000D01*
X123245000Y-71167000D01*
G37*
G36*
X108696585Y-68011302D02*
G01*
X108846410Y-68041104D01*
X109128674Y-68158021D01*
X109382705Y-68327759D01*
X109598741Y-68543795D01*
X109768479Y-68797826D01*
X109885396Y-69080090D01*
X109945000Y-69379740D01*
X109945000Y-69685260D01*
X109885396Y-69984910D01*
X109768479Y-70267174D01*
X109598741Y-70521205D01*
X109382705Y-70737241D01*
X109128674Y-70906979D01*
X108846410Y-71023896D01*
X108696585Y-71053698D01*
X108546761Y-71083500D01*
X108241239Y-71083500D01*
X108091415Y-71053698D01*
X107941590Y-71023896D01*
X107659326Y-70906979D01*
X107405295Y-70737241D01*
X107189259Y-70521205D01*
X107019521Y-70267174D01*
X106902604Y-69984910D01*
X106843000Y-69685260D01*
X106843000Y-69379740D01*
X106902604Y-69080090D01*
X107019521Y-68797826D01*
X107189259Y-68543795D01*
X107405295Y-68327759D01*
X107659326Y-68158021D01*
X107941590Y-68041104D01*
X108091415Y-68011302D01*
X108241239Y-67981500D01*
X108546761Y-67981500D01*
X108696585Y-68011302D01*
X108696585Y-68011302D01*
G37*
G36*
X198549585Y-68011302D02*
G01*
X198699410Y-68041104D01*
X198981674Y-68158021D01*
X199235705Y-68327759D01*
X199451741Y-68543795D01*
X199621479Y-68797826D01*
X199738396Y-69080090D01*
X199798000Y-69379740D01*
X199798000Y-69685260D01*
X199738396Y-69984910D01*
X199621479Y-70267174D01*
X199451741Y-70521205D01*
X199235705Y-70737241D01*
X198981674Y-70906979D01*
X198699410Y-71023896D01*
X198549585Y-71053698D01*
X198399761Y-71083500D01*
X198094239Y-71083500D01*
X197944415Y-71053698D01*
X197794590Y-71023896D01*
X197512326Y-70906979D01*
X197258295Y-70737241D01*
X197042259Y-70521205D01*
X196872521Y-70267174D01*
X196755604Y-69984910D01*
X196696000Y-69685260D01*
X196696000Y-69379740D01*
X196755604Y-69080090D01*
X196872521Y-68797826D01*
X197042259Y-68543795D01*
X197258295Y-68327759D01*
X197512326Y-68158021D01*
X197794590Y-68041104D01*
X197944415Y-68011302D01*
X198094239Y-67981500D01*
X198399761Y-67981500D01*
X198549585Y-68011302D01*
X198549585Y-68011302D01*
G37*
G36*
X142097000Y-70794000D02*
G01*
X141495000Y-70794000D01*
X141495000Y-70092000D01*
X142097000Y-70092000D01*
X142097000Y-70794000D01*
X142097000Y-70794000D01*
G37*
G36*
X143913000Y-70394000D02*
G01*
X143361000Y-70394000D01*
X143361000Y-69592000D01*
X143913000Y-69592000D01*
X143913000Y-70394000D01*
X143913000Y-70394000D01*
G37*
G36*
X126209000Y-70039000D02*
G01*
X125357000Y-70039000D01*
X125357000Y-68137000D01*
X126209000Y-68137000D01*
X126209000Y-70039000D01*
X126209000Y-70039000D01*
G37*
G36*
X123309000Y-70039000D02*
G01*
X122457000Y-70039000D01*
X122457000Y-68137000D01*
X123309000Y-68137000D01*
X123309000Y-70039000D01*
X123309000Y-70039000D01*
G37*
G36*
X125034000Y-69889000D02*
G01*
X123632000Y-69889000D01*
X123632000Y-68287000D01*
X125034000Y-68287000D01*
X125034000Y-69889000D01*
X125034000Y-69889000D01*
G37*
G36*
X172605000Y-69806500D02*
G01*
X171903000Y-69806500D01*
X171903000Y-69004500D01*
X172605000Y-69004500D01*
X172605000Y-69806500D01*
X172605000Y-69806500D01*
G37*
G36*
X171505000Y-69806500D02*
G01*
X170803000Y-69806500D01*
X170803000Y-69004500D01*
X171505000Y-69004500D01*
X171505000Y-69806500D01*
X171505000Y-69806500D01*
G37*
G36*
X186682000Y-69798500D02*
G01*
X185930000Y-69798500D01*
X185930000Y-67996500D01*
X186682000Y-67996500D01*
X186682000Y-69798500D01*
X186682000Y-69798500D01*
G37*
G36*
X184782000Y-69798500D02*
G01*
X184030000Y-69798500D01*
X184030000Y-69296500D01*
X184782000Y-69296500D01*
X184782000Y-69798500D01*
X184782000Y-69798500D01*
G37*
G36*
X168400000Y-69735000D02*
G01*
X167648000Y-69735000D01*
X167648000Y-67933000D01*
X168400000Y-67933000D01*
X168400000Y-69735000D01*
X168400000Y-69735000D01*
G37*
G36*
X170300000Y-69735000D02*
G01*
X169548000Y-69735000D01*
X169548000Y-69233000D01*
X170300000Y-69233000D01*
X170300000Y-69735000D01*
X170300000Y-69735000D01*
G37*
G36*
X132894564Y-67061389D02*
G01*
X133085833Y-67140615D01*
X133085835Y-67140616D01*
X133257973Y-67255635D01*
X133404365Y-67402027D01*
X133498449Y-67542833D01*
X133519385Y-67574167D01*
X133598611Y-67765436D01*
X133639000Y-67968484D01*
X133639000Y-68175516D01*
X133598611Y-68378564D01*
X133548932Y-68498500D01*
X133519384Y-68569835D01*
X133404365Y-68741973D01*
X133257973Y-68888365D01*
X133085835Y-69003384D01*
X133085834Y-69003385D01*
X133085833Y-69003385D01*
X132894564Y-69082611D01*
X132691516Y-69123000D01*
X132484484Y-69123000D01*
X132281436Y-69082611D01*
X132090167Y-69003385D01*
X132090166Y-69003385D01*
X132090165Y-69003384D01*
X131918027Y-68888365D01*
X131771635Y-68741973D01*
X131656616Y-68569835D01*
X131627068Y-68498500D01*
X131577389Y-68378564D01*
X131537000Y-68175516D01*
X131537000Y-67968484D01*
X131577389Y-67765436D01*
X131656615Y-67574167D01*
X131677552Y-67542833D01*
X131771635Y-67402027D01*
X131918027Y-67255635D01*
X132090165Y-67140616D01*
X132090167Y-67140615D01*
X132281436Y-67061389D01*
X132484484Y-67021000D01*
X132691516Y-67021000D01*
X132894564Y-67061389D01*
X132894564Y-67061389D01*
G37*
G36*
X139394564Y-67061389D02*
G01*
X139585833Y-67140615D01*
X139585835Y-67140616D01*
X139757973Y-67255635D01*
X139904365Y-67402027D01*
X139998449Y-67542833D01*
X140019385Y-67574167D01*
X140098611Y-67765436D01*
X140139000Y-67968484D01*
X140139000Y-68175516D01*
X140098611Y-68378564D01*
X140048932Y-68498500D01*
X140019384Y-68569835D01*
X139904365Y-68741973D01*
X139757973Y-68888365D01*
X139585835Y-69003384D01*
X139585834Y-69003385D01*
X139585833Y-69003385D01*
X139394564Y-69082611D01*
X139191516Y-69123000D01*
X138984484Y-69123000D01*
X138781436Y-69082611D01*
X138590167Y-69003385D01*
X138590166Y-69003385D01*
X138590165Y-69003384D01*
X138418027Y-68888365D01*
X138271635Y-68741973D01*
X138156616Y-68569835D01*
X138127068Y-68498500D01*
X138077389Y-68378564D01*
X138037000Y-68175516D01*
X138037000Y-67968484D01*
X138077389Y-67765436D01*
X138156615Y-67574167D01*
X138177552Y-67542833D01*
X138271635Y-67402027D01*
X138418027Y-67255635D01*
X138590165Y-67140616D01*
X138590167Y-67140615D01*
X138781436Y-67061389D01*
X138984484Y-67021000D01*
X139191516Y-67021000D01*
X139394564Y-67061389D01*
X139394564Y-67061389D01*
G37*
G36*
X143946000Y-69121500D02*
G01*
X143444000Y-69121500D01*
X143444000Y-68419500D01*
X143946000Y-68419500D01*
X143946000Y-69121500D01*
X143946000Y-69121500D01*
G37*
G36*
X143131000Y-69121500D02*
G01*
X142629000Y-69121500D01*
X142629000Y-68419500D01*
X143131000Y-68419500D01*
X143131000Y-69121500D01*
X143131000Y-69121500D01*
G37*
G36*
X144846000Y-69121500D02*
G01*
X144344000Y-69121500D01*
X144344000Y-68419500D01*
X144846000Y-68419500D01*
X144846000Y-69121500D01*
X144846000Y-69121500D01*
G37*
G36*
X142231000Y-69121500D02*
G01*
X141729000Y-69121500D01*
X141729000Y-68419500D01*
X142231000Y-68419500D01*
X142231000Y-69121500D01*
X142231000Y-69121500D01*
G37*
G36*
X171505000Y-68677000D02*
G01*
X171003000Y-68677000D01*
X171003000Y-67975000D01*
X171505000Y-67975000D01*
X171505000Y-68677000D01*
X171505000Y-68677000D01*
G37*
G36*
X172405000Y-68677000D02*
G01*
X171903000Y-68677000D01*
X171903000Y-67975000D01*
X172405000Y-67975000D01*
X172405000Y-68677000D01*
X172405000Y-68677000D01*
G37*
G36*
X184782000Y-68498500D02*
G01*
X184030000Y-68498500D01*
X184030000Y-67996500D01*
X184782000Y-67996500D01*
X184782000Y-68498500D01*
X184782000Y-68498500D01*
G37*
G36*
X170300000Y-68435000D02*
G01*
X169548000Y-68435000D01*
X169548000Y-67933000D01*
X170300000Y-67933000D01*
X170300000Y-68435000D01*
X170300000Y-68435000D01*
G37*
G36*
X114452564Y-66034389D02*
G01*
X114643833Y-66113615D01*
X114643835Y-66113616D01*
X114815973Y-66228635D01*
X114962365Y-66375027D01*
X115077385Y-66547167D01*
X115156611Y-66738436D01*
X115197000Y-66941484D01*
X115197000Y-67148516D01*
X115156611Y-67351564D01*
X115077385Y-67542833D01*
X115077384Y-67542835D01*
X114962365Y-67714973D01*
X114815973Y-67861365D01*
X114643835Y-67976384D01*
X114643834Y-67976385D01*
X114643833Y-67976385D01*
X114452564Y-68055611D01*
X114249516Y-68096000D01*
X114042484Y-68096000D01*
X113839436Y-68055611D01*
X113648167Y-67976385D01*
X113648166Y-67976385D01*
X113648165Y-67976384D01*
X113476027Y-67861365D01*
X113329635Y-67714973D01*
X113214616Y-67542835D01*
X113214615Y-67542833D01*
X113135389Y-67351564D01*
X113095000Y-67148516D01*
X113095000Y-66941484D01*
X113135389Y-66738436D01*
X113214615Y-66547167D01*
X113329635Y-66375027D01*
X113476027Y-66228635D01*
X113648165Y-66113616D01*
X113648167Y-66113615D01*
X113839436Y-66034389D01*
X114042484Y-65994000D01*
X114249516Y-65994000D01*
X114452564Y-66034389D01*
X114452564Y-66034389D01*
G37*
G36*
X143121000Y-68042000D02*
G01*
X142619000Y-68042000D01*
X142619000Y-67340000D01*
X143121000Y-67340000D01*
X143121000Y-68042000D01*
X143121000Y-68042000D01*
G37*
G36*
X144021000Y-68042000D02*
G01*
X143519000Y-68042000D01*
X143519000Y-67340000D01*
X144021000Y-67340000D01*
X144021000Y-68042000D01*
X144021000Y-68042000D01*
G37*
G36*
X186257000Y-67293500D02*
G01*
X185555000Y-67293500D01*
X185555000Y-66691500D01*
X186257000Y-66691500D01*
X186257000Y-67293500D01*
X186257000Y-67293500D01*
G37*
G36*
X185157000Y-67293500D02*
G01*
X184455000Y-67293500D01*
X184455000Y-66691500D01*
X185157000Y-66691500D01*
X185157000Y-67293500D01*
X185157000Y-67293500D01*
G37*
M02*
