M48
; DRILL file {KiCad (5.1.4)-1} date 6/5/2020 7:42:13 PM
; FORMAT={-:-/ absolute / inch / decimal}
; #@! TF.CreationDate,2020-06-05T19:42:13-05:00
; #@! TF.GenerationSoftware,Kicad,Pcbnew,(5.1.4)-1
; #@! TF.FileFunction,Plated,1,4,PTH
FMAT,2
INCH
T1C0.0079
T2C0.0394
T3C0.0433
%
G90
G05
T1
X4.4877Y-4.2696
X4.5125Y-4.2139
X4.53Y-4.3525
X4.545Y-4.145
X4.5575Y-4.3075
X4.5625Y-4.4075
X4.5675Y-4.145
X4.5935Y-3.8501
X4.595Y-4.235
X4.595Y-4.265
X4.605Y-4.14
X4.61Y-4.25
X4.615Y-2.92
X4.615Y-3.02
X4.615Y-3.12
X4.615Y-3.22
X4.615Y-3.32
X4.615Y-3.42
X4.615Y-4.095
X4.625Y-4.235
X4.625Y-4.265
X4.66Y-4.4075
X4.6725Y-4.3225
X4.6925Y-3.5625
X4.6925Y-3.6075
X4.6937Y-4.2027
X4.71Y-4.33
X4.7593Y-4.0117
X4.7717Y-3.1121
X4.785Y-3.9925
X4.785Y-4.365
X4.81Y-4.22
X4.81Y-4.415
X4.835Y-4.14
X4.8375Y-2.8225
X4.85Y-4.4175
X4.8757Y-3.8599
X4.8825Y-2.8225
X4.895Y-2.72
X4.9075Y-3.0875
X4.915Y-4.375
X4.915Y-4.45
X4.94Y-4.2425
X4.94Y-4.4175
X5.0071Y-3.4611
X5.0742Y-4.2139
X5.0775Y-4.31
X5.0775Y-4.35
X5.08Y-4.2675
X5.1129Y-4.4859
X5.1725Y-4.29
X5.185Y-4.2075
X5.22Y-3.705
X5.22Y-3.8675
X5.2225Y-3.38
X5.2225Y-3.5425
X5.24Y-4.1975
X5.275Y-3.8925
X5.2775Y-3.4075
X5.2775Y-3.7325
X5.2825Y-3.5675
X5.31Y-4.3025
X5.3375Y-3.54
X5.3375Y-3.705
X5.3375Y-3.8675
X5.34Y-3.3825
X5.365Y-4.21
X5.3672Y-4.1408
X5.4412Y-3.0475
X5.4526Y-3.9531
X5.514Y-3.9761
X5.5229Y-3.908
X5.5775Y-3.2175
X5.5775Y-3.2625
X5.5825Y-2.845
X5.6225Y-3.13
X5.68Y-2.8025
X5.7005Y-3.4165
X5.7361Y-3.3729
X5.74Y-3.21
X5.77Y-2.935
X5.77Y-3.02
X5.825Y-3.3475
X5.8749Y-4.4179
X5.8756Y-4.3953
X5.8775Y-3.72
X5.92Y-2.835
X5.9275Y-4.28
X5.9275Y-4.375
X5.9304Y-3.0802
X5.9325Y-3.72
X5.965Y-2.835
X5.975Y-4.195
X5.98Y-3.965
X5.985Y-4.4588
X5.9925Y-4.23
X6.0Y-3.645
X6.0Y-2.9934
X6.0041Y-4.2524
X6.005Y-4.0125
X6.0175Y-3.345
X6.02Y-2.87
X6.02Y-4.48
X6.045Y-3.645
X6.0535Y-4.1
X6.065Y-2.87
X6.075Y-4.255
X6.085Y-3.7225
X6.0925Y-4.36
X6.105Y-3.395
X6.11Y-3.65
X6.1125Y-4.44
X6.1311Y-4.2429
X6.1341Y-4.2137
X6.135Y-3.3975
X6.1351Y-3.8956
X6.15Y-3.5475
X6.1508Y-3.1529
X6.1725Y-3.4025
X6.1809Y-4.2137
X6.1809Y-4.2463
X6.1823Y-3.1471
X6.1825Y-3.2275
X6.1825Y-3.25
X6.1958Y-3.0564
X6.2039Y-3.505
X6.2039Y-4.4854
X6.22Y-4.0225
X6.2475Y-3.64
X6.255Y-3.5235
X6.2663Y-4.1777
X6.2663Y-4.2825
X6.275Y-4.021
X6.275Y-3.3875
X6.2837Y-4.1203
X6.285Y-3.865
X6.285Y-3.9125
X6.2879Y-3.8114
X6.29Y-3.325
X6.2925Y-4.37
X6.3038Y-3.1911
X6.3125Y-4.021
X6.3325Y-3.9625
X6.34Y-3.4075
X6.35Y-4.2025
X6.35Y-4.265
X6.3709Y-3.9653
X6.378Y-4.3798
X6.3836Y-3.3852
X6.3975Y-3.57
X6.4025Y-3.0375
X6.405Y-3.6125
X6.4175Y-3.2575
X6.4175Y-3.3025
X6.435Y-3.0975
X6.4845Y-4.3697
X6.4852Y-3.9617
X6.53Y-3.8025
X6.5675Y-4.13
X6.58Y-3.6025
X6.58Y-3.6275
X6.58Y-3.6525
X6.5923Y-2.9259
X6.605Y-3.6025
X6.605Y-3.6275
X6.605Y-3.6525
X6.6248Y-4.3025
X6.63Y-3.6025
X6.63Y-3.6275
X6.63Y-3.6525
X6.6423Y-2.6847
X6.6425Y-3.0625
X6.6425Y-3.2225
X6.6467Y-4.3025
X6.6475Y-2.74
X6.6475Y-2.9
X6.655Y-3.6025
X6.655Y-3.6275
X6.655Y-3.6525
X6.68Y-3.6025
X6.68Y-3.6275
X6.68Y-3.6525
X6.7Y-3.035
X6.7Y-4.0275
X6.7025Y-2.71
X6.7025Y-2.8725
X6.7025Y-3.1975
X6.74Y-3.4075
X6.74Y-4.1125
X6.7775Y-3.9175
X6.7775Y-3.9425
X6.7775Y-3.9675
X6.795Y-3.8525
X6.8025Y-3.9175
X6.8025Y-3.9425
X6.8025Y-3.9675
X6.82Y-3.69
X6.8275Y-3.9175
X6.8275Y-3.9425
X6.8275Y-3.9675
X6.8591Y-3.7925
X6.8591Y-3.8125
X6.8591Y-3.8325
X6.9175Y-3.8009
X6.93Y-3.55
X6.9325Y-4.0275
X6.9375Y-3.8009
X6.945Y-3.2075
X6.9575Y-3.8009
X6.96Y-3.265
X6.965Y-3.335
X6.9775Y-3.6125
X6.98Y-4.06
X6.985Y-3.4225
X7.005Y-4.3775
X7.0225Y-4.06
X7.0375Y-3.5825
X7.04Y-3.68
X7.0575Y-4.2875
X7.0861Y-3.5375
X7.095Y-3.65
X7.0975Y-3.085
X7.0975Y-3.175
X7.0975Y-4.3125
X7.1Y-4.015
X7.1Y-4.1825
X7.1Y-4.2275
X7.1225Y-3.8025
X7.1225Y-3.52
X7.1425Y-3.475
X7.1825Y-3.345
X7.1875Y-3.5083
X7.1875Y-3.5517
X7.2125Y-3.6942
X7.2575Y-2.95
X7.2575Y-2.995
X7.27Y-3.635
X7.33Y-3.22
X7.33Y-3.32
X7.33Y-3.42
X7.33Y-3.52
X7.33Y-3.62
X7.3425Y-2.6375
X7.6075Y-3.895
X7.6075Y-3.955
X7.6375Y-3.925
X7.6675Y-3.895
X7.6675Y-3.955
X7.67Y-3.7225
X7.7076Y-3.5625
X7.7076Y-3.6625
X7.7175Y-3.7425
X7.7175Y-3.8725
X7.7545Y-3.764
X7.8019Y-3.5865
X7.885Y-3.8525
T2
X4.1775Y-3.915
X4.1775Y-3.057
X4.1775Y-3.157
X4.1775Y-3.257
X4.4939Y-2.9195
X4.4939Y-3.0195
X4.4939Y-3.1195
X4.4939Y-3.2195
X4.4939Y-3.3195
X4.4939Y-3.4195
X4.4939Y-3.5195
X4.4939Y-3.6195
X7.4467Y-2.9195
X7.4467Y-3.0195
X7.4467Y-3.1195
X7.4467Y-3.2195
X7.4467Y-3.3195
X7.4467Y-3.4195
X7.4467Y-3.5195
X7.4467Y-3.6195
X4.1775Y-3.4775
X4.1775Y-3.5775
X4.1775Y-3.6775
X5.27Y-4.4475
X5.37Y-4.4475
X5.47Y-4.4475
X5.57Y-4.4475
X5.67Y-4.4475
X5.77Y-4.4475
T3
X5.22Y-2.68
X5.22Y-2.8572
X5.4759Y-2.68
X5.4759Y-2.8572
T2
G00X7.6825Y-3.1619
M15
G01X7.6825Y-3.0831
M16
G05
G00X7.84Y-3.3075
M15
G01X7.7613Y-3.3075
M16
G05
G00X7.9187Y-3.1619
M15
G01X7.9187Y-3.0831
M16
G05
T0
M30
