G04 #@! TF.GenerationSoftware,KiCad,Pcbnew,(5.1.4)-1*
G04 #@! TF.CreationDate,2020-06-05T19:42:11-05:00*
G04 #@! TF.ProjectId,Pulse_Oximeter,50756c73-655f-44f7-9869-6d657465722e,rev?*
G04 #@! TF.SameCoordinates,Original*
G04 #@! TF.FileFunction,Soldermask,Bot*
G04 #@! TF.FilePolarity,Negative*
%FSLAX46Y46*%
G04 Gerber Fmt 4.6, Leading zero omitted, Abs format (unit mm)*
G04 Created by KiCad (PCBNEW (5.1.4)-1) date 2020-06-05 19:42:11*
%MOMM*%
%LPD*%
G04 APERTURE LIST*
%ADD10C,0.100000*%
G04 APERTURE END LIST*
D10*
G36*
X173649000Y-113893000D02*
G01*
X171547000Y-113893000D01*
X171547000Y-111291000D01*
X173649000Y-111291000D01*
X173649000Y-113893000D01*
X173649000Y-113893000D01*
G37*
G36*
X164749000Y-113893000D02*
G01*
X162647000Y-113893000D01*
X162647000Y-111291000D01*
X164749000Y-111291000D01*
X164749000Y-113893000D01*
X164749000Y-113893000D01*
G37*
G36*
X146668443Y-112071519D02*
G01*
X146734627Y-112078037D01*
X146904466Y-112129557D01*
X147060991Y-112213222D01*
X147096729Y-112242552D01*
X147198186Y-112325814D01*
X147253323Y-112393000D01*
X147310778Y-112463009D01*
X147394443Y-112619534D01*
X147445963Y-112789373D01*
X147463359Y-112966000D01*
X147445963Y-113142627D01*
X147394443Y-113312466D01*
X147310778Y-113468991D01*
X147281448Y-113504729D01*
X147198186Y-113606186D01*
X147096729Y-113689448D01*
X147060991Y-113718778D01*
X146904466Y-113802443D01*
X146734627Y-113853963D01*
X146668443Y-113860481D01*
X146602260Y-113867000D01*
X146513740Y-113867000D01*
X146447557Y-113860481D01*
X146381373Y-113853963D01*
X146211534Y-113802443D01*
X146055009Y-113718778D01*
X146019271Y-113689448D01*
X145917814Y-113606186D01*
X145834552Y-113504729D01*
X145805222Y-113468991D01*
X145721557Y-113312466D01*
X145670037Y-113142627D01*
X145652641Y-112966000D01*
X145670037Y-112789373D01*
X145721557Y-112619534D01*
X145805222Y-112463009D01*
X145862677Y-112393000D01*
X145917814Y-112325814D01*
X146019271Y-112242552D01*
X146055009Y-112213222D01*
X146211534Y-112129557D01*
X146381373Y-112078037D01*
X146447557Y-112071519D01*
X146513740Y-112065000D01*
X146602260Y-112065000D01*
X146668443Y-112071519D01*
X146668443Y-112071519D01*
G37*
G36*
X139048443Y-112071519D02*
G01*
X139114627Y-112078037D01*
X139284466Y-112129557D01*
X139440991Y-112213222D01*
X139476729Y-112242552D01*
X139578186Y-112325814D01*
X139633323Y-112393000D01*
X139690778Y-112463009D01*
X139774443Y-112619534D01*
X139825963Y-112789373D01*
X139843359Y-112966000D01*
X139825963Y-113142627D01*
X139774443Y-113312466D01*
X139690778Y-113468991D01*
X139661448Y-113504729D01*
X139578186Y-113606186D01*
X139476729Y-113689448D01*
X139440991Y-113718778D01*
X139284466Y-113802443D01*
X139114627Y-113853963D01*
X139048443Y-113860481D01*
X138982260Y-113867000D01*
X138893740Y-113867000D01*
X138827557Y-113860481D01*
X138761373Y-113853963D01*
X138591534Y-113802443D01*
X138435009Y-113718778D01*
X138399271Y-113689448D01*
X138297814Y-113606186D01*
X138214552Y-113504729D01*
X138185222Y-113468991D01*
X138101557Y-113312466D01*
X138050037Y-113142627D01*
X138032641Y-112966000D01*
X138050037Y-112789373D01*
X138101557Y-112619534D01*
X138185222Y-112463009D01*
X138242677Y-112393000D01*
X138297814Y-112325814D01*
X138399271Y-112242552D01*
X138435009Y-112213222D01*
X138591534Y-112129557D01*
X138761373Y-112078037D01*
X138827557Y-112071519D01*
X138893740Y-112065000D01*
X138982260Y-112065000D01*
X139048443Y-112071519D01*
X139048443Y-112071519D01*
G37*
G36*
X141588443Y-112071519D02*
G01*
X141654627Y-112078037D01*
X141824466Y-112129557D01*
X141980991Y-112213222D01*
X142016729Y-112242552D01*
X142118186Y-112325814D01*
X142173323Y-112393000D01*
X142230778Y-112463009D01*
X142314443Y-112619534D01*
X142365963Y-112789373D01*
X142383359Y-112966000D01*
X142365963Y-113142627D01*
X142314443Y-113312466D01*
X142230778Y-113468991D01*
X142201448Y-113504729D01*
X142118186Y-113606186D01*
X142016729Y-113689448D01*
X141980991Y-113718778D01*
X141824466Y-113802443D01*
X141654627Y-113853963D01*
X141588443Y-113860481D01*
X141522260Y-113867000D01*
X141433740Y-113867000D01*
X141367557Y-113860481D01*
X141301373Y-113853963D01*
X141131534Y-113802443D01*
X140975009Y-113718778D01*
X140939271Y-113689448D01*
X140837814Y-113606186D01*
X140754552Y-113504729D01*
X140725222Y-113468991D01*
X140641557Y-113312466D01*
X140590037Y-113142627D01*
X140572641Y-112966000D01*
X140590037Y-112789373D01*
X140641557Y-112619534D01*
X140725222Y-112463009D01*
X140782677Y-112393000D01*
X140837814Y-112325814D01*
X140939271Y-112242552D01*
X140975009Y-112213222D01*
X141131534Y-112129557D01*
X141301373Y-112078037D01*
X141367557Y-112071519D01*
X141433740Y-112065000D01*
X141522260Y-112065000D01*
X141588443Y-112071519D01*
X141588443Y-112071519D01*
G37*
G36*
X136508443Y-112071519D02*
G01*
X136574627Y-112078037D01*
X136744466Y-112129557D01*
X136900991Y-112213222D01*
X136936729Y-112242552D01*
X137038186Y-112325814D01*
X137093323Y-112393000D01*
X137150778Y-112463009D01*
X137234443Y-112619534D01*
X137285963Y-112789373D01*
X137303359Y-112966000D01*
X137285963Y-113142627D01*
X137234443Y-113312466D01*
X137150778Y-113468991D01*
X137121448Y-113504729D01*
X137038186Y-113606186D01*
X136936729Y-113689448D01*
X136900991Y-113718778D01*
X136744466Y-113802443D01*
X136574627Y-113853963D01*
X136508443Y-113860481D01*
X136442260Y-113867000D01*
X136353740Y-113867000D01*
X136287557Y-113860481D01*
X136221373Y-113853963D01*
X136051534Y-113802443D01*
X135895009Y-113718778D01*
X135859271Y-113689448D01*
X135757814Y-113606186D01*
X135674552Y-113504729D01*
X135645222Y-113468991D01*
X135561557Y-113312466D01*
X135510037Y-113142627D01*
X135492641Y-112966000D01*
X135510037Y-112789373D01*
X135561557Y-112619534D01*
X135645222Y-112463009D01*
X135702677Y-112393000D01*
X135757814Y-112325814D01*
X135859271Y-112242552D01*
X135895009Y-112213222D01*
X136051534Y-112129557D01*
X136221373Y-112078037D01*
X136287557Y-112071519D01*
X136353740Y-112065000D01*
X136442260Y-112065000D01*
X136508443Y-112071519D01*
X136508443Y-112071519D01*
G37*
G36*
X144128443Y-112071519D02*
G01*
X144194627Y-112078037D01*
X144364466Y-112129557D01*
X144520991Y-112213222D01*
X144556729Y-112242552D01*
X144658186Y-112325814D01*
X144713323Y-112393000D01*
X144770778Y-112463009D01*
X144854443Y-112619534D01*
X144905963Y-112789373D01*
X144923359Y-112966000D01*
X144905963Y-113142627D01*
X144854443Y-113312466D01*
X144770778Y-113468991D01*
X144741448Y-113504729D01*
X144658186Y-113606186D01*
X144556729Y-113689448D01*
X144520991Y-113718778D01*
X144364466Y-113802443D01*
X144194627Y-113853963D01*
X144128443Y-113860481D01*
X144062260Y-113867000D01*
X143973740Y-113867000D01*
X143907557Y-113860481D01*
X143841373Y-113853963D01*
X143671534Y-113802443D01*
X143515009Y-113718778D01*
X143479271Y-113689448D01*
X143377814Y-113606186D01*
X143294552Y-113504729D01*
X143265222Y-113468991D01*
X143181557Y-113312466D01*
X143130037Y-113142627D01*
X143112641Y-112966000D01*
X143130037Y-112789373D01*
X143181557Y-112619534D01*
X143265222Y-112463009D01*
X143322677Y-112393000D01*
X143377814Y-112325814D01*
X143479271Y-112242552D01*
X143515009Y-112213222D01*
X143671534Y-112129557D01*
X143841373Y-112078037D01*
X143907557Y-112071519D01*
X143973740Y-112065000D01*
X144062260Y-112065000D01*
X144128443Y-112071519D01*
X144128443Y-112071519D01*
G37*
G36*
X134759000Y-113867000D02*
G01*
X132957000Y-113867000D01*
X132957000Y-112065000D01*
X134759000Y-112065000D01*
X134759000Y-113867000D01*
X134759000Y-113867000D01*
G37*
G36*
X180691000Y-113795000D02*
G01*
X179989000Y-113795000D01*
X179989000Y-113293000D01*
X180691000Y-113293000D01*
X180691000Y-113795000D01*
X180691000Y-113795000D01*
G37*
G36*
X178765000Y-113775000D02*
G01*
X178063000Y-113775000D01*
X178063000Y-113173000D01*
X178765000Y-113173000D01*
X178765000Y-113775000D01*
X178765000Y-113775000D01*
G37*
G36*
X177665000Y-113775000D02*
G01*
X176963000Y-113775000D01*
X176963000Y-113173000D01*
X177665000Y-113173000D01*
X177665000Y-113775000D01*
X177665000Y-113775000D01*
G37*
G36*
X123583000Y-113395000D02*
G01*
X122881000Y-113395000D01*
X122881000Y-112793000D01*
X123583000Y-112793000D01*
X123583000Y-113395000D01*
X123583000Y-113395000D01*
G37*
G36*
X122483000Y-113395000D02*
G01*
X121781000Y-113395000D01*
X121781000Y-112793000D01*
X122483000Y-112793000D01*
X122483000Y-113395000D01*
X122483000Y-113395000D01*
G37*
G36*
X153259000Y-113159000D02*
G01*
X152557000Y-113159000D01*
X152557000Y-112657000D01*
X153259000Y-112657000D01*
X153259000Y-113159000D01*
X153259000Y-113159000D01*
G37*
G36*
X180691000Y-112895000D02*
G01*
X179989000Y-112895000D01*
X179989000Y-112393000D01*
X180691000Y-112393000D01*
X180691000Y-112895000D01*
X180691000Y-112895000D01*
G37*
G36*
X124430000Y-112651000D02*
G01*
X123728000Y-112651000D01*
X123728000Y-112149000D01*
X124430000Y-112149000D01*
X124430000Y-112651000D01*
X124430000Y-112651000D01*
G37*
G36*
X179545000Y-112514000D02*
G01*
X178383000Y-112514000D01*
X178383000Y-109862000D01*
X179545000Y-109862000D01*
X179545000Y-112514000D01*
X179545000Y-112514000D01*
G37*
G36*
X177345000Y-112514000D02*
G01*
X176183000Y-112514000D01*
X176183000Y-109862000D01*
X177345000Y-109862000D01*
X177345000Y-112514000D01*
X177345000Y-112514000D01*
G37*
G36*
X156584000Y-112425000D02*
G01*
X153932000Y-112425000D01*
X153932000Y-111263000D01*
X156584000Y-111263000D01*
X156584000Y-112425000D01*
X156584000Y-112425000D01*
G37*
G36*
X153259000Y-112259000D02*
G01*
X152557000Y-112259000D01*
X152557000Y-111757000D01*
X153259000Y-111757000D01*
X153259000Y-112259000D01*
X153259000Y-112259000D01*
G37*
G36*
X130935232Y-111522563D02*
G01*
X130944595Y-111525403D01*
X130953224Y-111530016D01*
X130960782Y-111536218D01*
X130966984Y-111543776D01*
X130971597Y-111552405D01*
X130974437Y-111561768D01*
X130976000Y-111577640D01*
X130976000Y-111916360D01*
X130974437Y-111932232D01*
X130971597Y-111941595D01*
X130966984Y-111950224D01*
X130960782Y-111957782D01*
X130953224Y-111963984D01*
X130944595Y-111968597D01*
X130935232Y-111971437D01*
X130919360Y-111973000D01*
X130180640Y-111973000D01*
X130164768Y-111971437D01*
X130155405Y-111968597D01*
X130146776Y-111963984D01*
X130139218Y-111957782D01*
X130133016Y-111950224D01*
X130128403Y-111941595D01*
X130125563Y-111932232D01*
X130124000Y-111916360D01*
X130124000Y-111577640D01*
X130125563Y-111561768D01*
X130128403Y-111552405D01*
X130133016Y-111543776D01*
X130139218Y-111536218D01*
X130146776Y-111530016D01*
X130155405Y-111525403D01*
X130164768Y-111522563D01*
X130180640Y-111521000D01*
X130919360Y-111521000D01*
X130935232Y-111522563D01*
X130935232Y-111522563D01*
G37*
G36*
X128535232Y-111522563D02*
G01*
X128544595Y-111525403D01*
X128553224Y-111530016D01*
X128560782Y-111536218D01*
X128566984Y-111543776D01*
X128571597Y-111552405D01*
X128574437Y-111561768D01*
X128576000Y-111577640D01*
X128576000Y-111916360D01*
X128574437Y-111932232D01*
X128571597Y-111941595D01*
X128566984Y-111950224D01*
X128560782Y-111957782D01*
X128553224Y-111963984D01*
X128544595Y-111968597D01*
X128535232Y-111971437D01*
X128519360Y-111973000D01*
X127780640Y-111973000D01*
X127764768Y-111971437D01*
X127755405Y-111968597D01*
X127746776Y-111963984D01*
X127739218Y-111957782D01*
X127733016Y-111950224D01*
X127728403Y-111941595D01*
X127725563Y-111932232D01*
X127724000Y-111916360D01*
X127724000Y-111577640D01*
X127725563Y-111561768D01*
X127728403Y-111552405D01*
X127733016Y-111543776D01*
X127739218Y-111536218D01*
X127746776Y-111530016D01*
X127755405Y-111525403D01*
X127764768Y-111522563D01*
X127780640Y-111521000D01*
X128519360Y-111521000D01*
X128535232Y-111522563D01*
X128535232Y-111522563D01*
G37*
G36*
X124430000Y-111751000D02*
G01*
X123728000Y-111751000D01*
X123728000Y-111249000D01*
X124430000Y-111249000D01*
X124430000Y-111751000D01*
X124430000Y-111751000D01*
G37*
G36*
X180691000Y-111445000D02*
G01*
X179989000Y-111445000D01*
X179989000Y-110943000D01*
X180691000Y-110943000D01*
X180691000Y-111445000D01*
X180691000Y-111445000D01*
G37*
G36*
X153259000Y-111445000D02*
G01*
X152557000Y-111445000D01*
X152557000Y-110943000D01*
X153259000Y-110943000D01*
X153259000Y-111445000D01*
X153259000Y-111445000D01*
G37*
G36*
X123383000Y-111222000D02*
G01*
X122881000Y-111222000D01*
X122881000Y-110520000D01*
X123383000Y-110520000D01*
X123383000Y-111222000D01*
X123383000Y-111222000D01*
G37*
G36*
X122483000Y-111222000D02*
G01*
X121981000Y-111222000D01*
X121981000Y-110520000D01*
X122483000Y-110520000D01*
X122483000Y-111222000D01*
X122483000Y-111222000D01*
G37*
G36*
X128535232Y-110722563D02*
G01*
X128544595Y-110725403D01*
X128553224Y-110730016D01*
X128560782Y-110736218D01*
X128566984Y-110743776D01*
X128571597Y-110752405D01*
X128574437Y-110761768D01*
X128576000Y-110777640D01*
X128576000Y-111116360D01*
X128574437Y-111132232D01*
X128571597Y-111141595D01*
X128566984Y-111150224D01*
X128560782Y-111157782D01*
X128553224Y-111163984D01*
X128544595Y-111168597D01*
X128535232Y-111171437D01*
X128519360Y-111173000D01*
X127780640Y-111173000D01*
X127764768Y-111171437D01*
X127755405Y-111168597D01*
X127746776Y-111163984D01*
X127739218Y-111157782D01*
X127733016Y-111150224D01*
X127728403Y-111141595D01*
X127725563Y-111132232D01*
X127724000Y-111116360D01*
X127724000Y-110777640D01*
X127725563Y-110761768D01*
X127728403Y-110752405D01*
X127733016Y-110743776D01*
X127739218Y-110736218D01*
X127746776Y-110730016D01*
X127755405Y-110725403D01*
X127764768Y-110722563D01*
X127780640Y-110721000D01*
X128519360Y-110721000D01*
X128535232Y-110722563D01*
X128535232Y-110722563D01*
G37*
G36*
X130935232Y-110722563D02*
G01*
X130944595Y-110725403D01*
X130953224Y-110730016D01*
X130960782Y-110736218D01*
X130966984Y-110743776D01*
X130971597Y-110752405D01*
X130974437Y-110761768D01*
X130976000Y-110777640D01*
X130976000Y-111116360D01*
X130974437Y-111132232D01*
X130971597Y-111141595D01*
X130966984Y-111150224D01*
X130960782Y-111157782D01*
X130953224Y-111163984D01*
X130944595Y-111168597D01*
X130935232Y-111171437D01*
X130919360Y-111173000D01*
X130180640Y-111173000D01*
X130164768Y-111171437D01*
X130155405Y-111168597D01*
X130146776Y-111163984D01*
X130139218Y-111157782D01*
X130133016Y-111150224D01*
X130128403Y-111141595D01*
X130125563Y-111132232D01*
X130124000Y-111116360D01*
X130124000Y-110777640D01*
X130125563Y-110761768D01*
X130128403Y-110752405D01*
X130133016Y-110743776D01*
X130139218Y-110736218D01*
X130146776Y-110730016D01*
X130155405Y-110725403D01*
X130164768Y-110722563D01*
X130180640Y-110721000D01*
X130919360Y-110721000D01*
X130935232Y-110722563D01*
X130935232Y-110722563D01*
G37*
G36*
X108662615Y-107882045D02*
G01*
X108846410Y-107918604D01*
X109128674Y-108035521D01*
X109382705Y-108205259D01*
X109598741Y-108421295D01*
X109768479Y-108675326D01*
X109885396Y-108957590D01*
X109903123Y-109046710D01*
X109945000Y-109257239D01*
X109945000Y-109562761D01*
X109924265Y-109667000D01*
X109885396Y-109862410D01*
X109768479Y-110144674D01*
X109598741Y-110398705D01*
X109382705Y-110614741D01*
X109128674Y-110784479D01*
X108846410Y-110901396D01*
X108696585Y-110931198D01*
X108546761Y-110961000D01*
X108241239Y-110961000D01*
X108091415Y-110931198D01*
X107941590Y-110901396D01*
X107659326Y-110784479D01*
X107405295Y-110614741D01*
X107189259Y-110398705D01*
X107019521Y-110144674D01*
X106902604Y-109862410D01*
X106863735Y-109667000D01*
X106843000Y-109562761D01*
X106843000Y-109257239D01*
X106884877Y-109046710D01*
X106902604Y-108957590D01*
X107019521Y-108675326D01*
X107189259Y-108421295D01*
X107405295Y-108205259D01*
X107659326Y-108035521D01*
X107941590Y-107918604D01*
X108125385Y-107882045D01*
X108241239Y-107859000D01*
X108546761Y-107859000D01*
X108662615Y-107882045D01*
X108662615Y-107882045D01*
G37*
G36*
X198515615Y-107882045D02*
G01*
X198699410Y-107918604D01*
X198981674Y-108035521D01*
X199235705Y-108205259D01*
X199451741Y-108421295D01*
X199621479Y-108675326D01*
X199738396Y-108957590D01*
X199756123Y-109046710D01*
X199798000Y-109257239D01*
X199798000Y-109562761D01*
X199777265Y-109667000D01*
X199738396Y-109862410D01*
X199621479Y-110144674D01*
X199451741Y-110398705D01*
X199235705Y-110614741D01*
X198981674Y-110784479D01*
X198699410Y-110901396D01*
X198549585Y-110931198D01*
X198399761Y-110961000D01*
X198094239Y-110961000D01*
X197944415Y-110931198D01*
X197794590Y-110901396D01*
X197512326Y-110784479D01*
X197258295Y-110614741D01*
X197042259Y-110398705D01*
X196872521Y-110144674D01*
X196755604Y-109862410D01*
X196716735Y-109667000D01*
X196696000Y-109562761D01*
X196696000Y-109257239D01*
X196737877Y-109046710D01*
X196755604Y-108957590D01*
X196872521Y-108675326D01*
X197042259Y-108421295D01*
X197258295Y-108205259D01*
X197512326Y-108035521D01*
X197794590Y-107918604D01*
X197978385Y-107882045D01*
X198094239Y-107859000D01*
X198399761Y-107859000D01*
X198515615Y-107882045D01*
X198515615Y-107882045D01*
G37*
G36*
X135119000Y-110714000D02*
G01*
X134617000Y-110714000D01*
X134617000Y-110012000D01*
X135119000Y-110012000D01*
X135119000Y-110714000D01*
X135119000Y-110714000D01*
G37*
G36*
X136019000Y-110714000D02*
G01*
X135517000Y-110714000D01*
X135517000Y-110012000D01*
X136019000Y-110012000D01*
X136019000Y-110714000D01*
X136019000Y-110714000D01*
G37*
G36*
X153259000Y-110545000D02*
G01*
X152557000Y-110545000D01*
X152557000Y-110043000D01*
X153259000Y-110043000D01*
X153259000Y-110545000D01*
X153259000Y-110545000D01*
G37*
G36*
X180691000Y-110545000D02*
G01*
X179989000Y-110545000D01*
X179989000Y-110043000D01*
X180691000Y-110043000D01*
X180691000Y-110545000D01*
X180691000Y-110545000D01*
G37*
G36*
X128535232Y-109922563D02*
G01*
X128544595Y-109925403D01*
X128553224Y-109930016D01*
X128560782Y-109936218D01*
X128566984Y-109943776D01*
X128571597Y-109952405D01*
X128574437Y-109961768D01*
X128576000Y-109977640D01*
X128576000Y-110316360D01*
X128574437Y-110332232D01*
X128571597Y-110341595D01*
X128566984Y-110350224D01*
X128560782Y-110357782D01*
X128553224Y-110363984D01*
X128544595Y-110368597D01*
X128535232Y-110371437D01*
X128519360Y-110373000D01*
X127780640Y-110373000D01*
X127764768Y-110371437D01*
X127755405Y-110368597D01*
X127746776Y-110363984D01*
X127739218Y-110357782D01*
X127733016Y-110350224D01*
X127728403Y-110341595D01*
X127725563Y-110332232D01*
X127724000Y-110316360D01*
X127724000Y-109977640D01*
X127725563Y-109961768D01*
X127728403Y-109952405D01*
X127733016Y-109943776D01*
X127739218Y-109936218D01*
X127746776Y-109930016D01*
X127755405Y-109925403D01*
X127764768Y-109922563D01*
X127780640Y-109921000D01*
X128519360Y-109921000D01*
X128535232Y-109922563D01*
X128535232Y-109922563D01*
G37*
G36*
X130935232Y-109922563D02*
G01*
X130944595Y-109925403D01*
X130953224Y-109930016D01*
X130960782Y-109936218D01*
X130966984Y-109943776D01*
X130971597Y-109952405D01*
X130974437Y-109961768D01*
X130976000Y-109977640D01*
X130976000Y-110316360D01*
X130974437Y-110332232D01*
X130971597Y-110341595D01*
X130966984Y-110350224D01*
X130960782Y-110357782D01*
X130953224Y-110363984D01*
X130944595Y-110368597D01*
X130935232Y-110371437D01*
X130919360Y-110373000D01*
X130180640Y-110373000D01*
X130164768Y-110371437D01*
X130155405Y-110368597D01*
X130146776Y-110363984D01*
X130139218Y-110357782D01*
X130133016Y-110350224D01*
X130128403Y-110341595D01*
X130125563Y-110332232D01*
X130124000Y-110316360D01*
X130124000Y-109977640D01*
X130125563Y-109961768D01*
X130128403Y-109952405D01*
X130133016Y-109943776D01*
X130139218Y-109936218D01*
X130146776Y-109930016D01*
X130155405Y-109925403D01*
X130164768Y-109922563D01*
X130180640Y-109921000D01*
X130919360Y-109921000D01*
X130935232Y-109922563D01*
X130935232Y-109922563D01*
G37*
G36*
X156584000Y-110225000D02*
G01*
X153932000Y-110225000D01*
X153932000Y-109063000D01*
X156584000Y-109063000D01*
X156584000Y-110225000D01*
X156584000Y-110225000D01*
G37*
G36*
X166043722Y-109100225D02*
G01*
X166094136Y-109110253D01*
X166129537Y-109124917D01*
X166185311Y-109148019D01*
X166185312Y-109148020D01*
X166267369Y-109202848D01*
X166337152Y-109272631D01*
X166337153Y-109272633D01*
X166391981Y-109354689D01*
X166429747Y-109445865D01*
X166449000Y-109542655D01*
X166449000Y-109641345D01*
X166429747Y-109738135D01*
X166391981Y-109829311D01*
X166391980Y-109829312D01*
X166337152Y-109911369D01*
X166267369Y-109981152D01*
X166252994Y-109990757D01*
X166185311Y-110035981D01*
X166168365Y-110043000D01*
X166094136Y-110073747D01*
X166045740Y-110083374D01*
X165997345Y-110093000D01*
X165898655Y-110093000D01*
X165850260Y-110083374D01*
X165801864Y-110073747D01*
X165727635Y-110043000D01*
X165710689Y-110035981D01*
X165643006Y-109990757D01*
X165628631Y-109981152D01*
X165558848Y-109911369D01*
X165504020Y-109829312D01*
X165504019Y-109829311D01*
X165466253Y-109738135D01*
X165447000Y-109641345D01*
X165447000Y-109542655D01*
X165466253Y-109445865D01*
X165504019Y-109354689D01*
X165558847Y-109272633D01*
X165558848Y-109272631D01*
X165628631Y-109202848D01*
X165710688Y-109148020D01*
X165710689Y-109148019D01*
X165766463Y-109124917D01*
X165801864Y-109110253D01*
X165852278Y-109100225D01*
X165898655Y-109091000D01*
X165997345Y-109091000D01*
X166043722Y-109100225D01*
X166043722Y-109100225D01*
G37*
G36*
X170443722Y-109100225D02*
G01*
X170494136Y-109110253D01*
X170529537Y-109124917D01*
X170585311Y-109148019D01*
X170585312Y-109148020D01*
X170667369Y-109202848D01*
X170737152Y-109272631D01*
X170737153Y-109272633D01*
X170791981Y-109354689D01*
X170829747Y-109445865D01*
X170849000Y-109542655D01*
X170849000Y-109641345D01*
X170829747Y-109738135D01*
X170791981Y-109829311D01*
X170791980Y-109829312D01*
X170737152Y-109911369D01*
X170667369Y-109981152D01*
X170652994Y-109990757D01*
X170585311Y-110035981D01*
X170568365Y-110043000D01*
X170494136Y-110073747D01*
X170445740Y-110083374D01*
X170397345Y-110093000D01*
X170298655Y-110093000D01*
X170250260Y-110083374D01*
X170201864Y-110073747D01*
X170127635Y-110043000D01*
X170110689Y-110035981D01*
X170043006Y-109990757D01*
X170028631Y-109981152D01*
X169958848Y-109911369D01*
X169904020Y-109829312D01*
X169904019Y-109829311D01*
X169866253Y-109738135D01*
X169847000Y-109641345D01*
X169847000Y-109542655D01*
X169866253Y-109445865D01*
X169904019Y-109354689D01*
X169958847Y-109272633D01*
X169958848Y-109272631D01*
X170028631Y-109202848D01*
X170110688Y-109148020D01*
X170110689Y-109148019D01*
X170166463Y-109124917D01*
X170201864Y-109110253D01*
X170252278Y-109100225D01*
X170298655Y-109091000D01*
X170397345Y-109091000D01*
X170443722Y-109100225D01*
X170443722Y-109100225D01*
G37*
G36*
X122059000Y-110029000D02*
G01*
X121357000Y-110029000D01*
X121357000Y-109427000D01*
X122059000Y-109427000D01*
X122059000Y-110029000D01*
X122059000Y-110029000D01*
G37*
G36*
X120959000Y-110029000D02*
G01*
X120257000Y-110029000D01*
X120257000Y-109427000D01*
X120959000Y-109427000D01*
X120959000Y-110029000D01*
X120959000Y-110029000D01*
G37*
G36*
X153259000Y-109731000D02*
G01*
X152557000Y-109731000D01*
X152557000Y-109229000D01*
X153259000Y-109229000D01*
X153259000Y-109731000D01*
X153259000Y-109731000D01*
G37*
G36*
X119985000Y-109667000D02*
G01*
X119283000Y-109667000D01*
X119283000Y-109165000D01*
X119985000Y-109165000D01*
X119985000Y-109667000D01*
X119985000Y-109667000D01*
G37*
G36*
X130935232Y-109122563D02*
G01*
X130944595Y-109125403D01*
X130953224Y-109130016D01*
X130960782Y-109136218D01*
X130966984Y-109143776D01*
X130971597Y-109152405D01*
X130974437Y-109161768D01*
X130976000Y-109177640D01*
X130976000Y-109516360D01*
X130974437Y-109532232D01*
X130971597Y-109541595D01*
X130966984Y-109550224D01*
X130960782Y-109557782D01*
X130953224Y-109563984D01*
X130944595Y-109568597D01*
X130935232Y-109571437D01*
X130919360Y-109573000D01*
X130180640Y-109573000D01*
X130164768Y-109571437D01*
X130155405Y-109568597D01*
X130146776Y-109563984D01*
X130139218Y-109557782D01*
X130133016Y-109550224D01*
X130128403Y-109541595D01*
X130125563Y-109532232D01*
X130124000Y-109516360D01*
X130124000Y-109177640D01*
X130125563Y-109161768D01*
X130128403Y-109152405D01*
X130133016Y-109143776D01*
X130139218Y-109136218D01*
X130146776Y-109130016D01*
X130155405Y-109125403D01*
X130164768Y-109122563D01*
X130180640Y-109121000D01*
X130919360Y-109121000D01*
X130935232Y-109122563D01*
X130935232Y-109122563D01*
G37*
G36*
X128535232Y-109122563D02*
G01*
X128544595Y-109125403D01*
X128553224Y-109130016D01*
X128560782Y-109136218D01*
X128566984Y-109143776D01*
X128571597Y-109152405D01*
X128574437Y-109161768D01*
X128576000Y-109177640D01*
X128576000Y-109516360D01*
X128574437Y-109532232D01*
X128571597Y-109541595D01*
X128566984Y-109550224D01*
X128560782Y-109557782D01*
X128553224Y-109563984D01*
X128544595Y-109568597D01*
X128535232Y-109571437D01*
X128519360Y-109573000D01*
X127780640Y-109573000D01*
X127764768Y-109571437D01*
X127755405Y-109568597D01*
X127746776Y-109563984D01*
X127739218Y-109557782D01*
X127733016Y-109550224D01*
X127728403Y-109541595D01*
X127725563Y-109532232D01*
X127724000Y-109516360D01*
X127724000Y-109177640D01*
X127725563Y-109161768D01*
X127728403Y-109152405D01*
X127733016Y-109143776D01*
X127739218Y-109136218D01*
X127746776Y-109130016D01*
X127755405Y-109125403D01*
X127764768Y-109122563D01*
X127780640Y-109121000D01*
X128519360Y-109121000D01*
X128535232Y-109122563D01*
X128535232Y-109122563D01*
G37*
G36*
X138294000Y-109328000D02*
G01*
X136742000Y-109328000D01*
X136742000Y-106826000D01*
X138294000Y-106826000D01*
X138294000Y-109328000D01*
X138294000Y-109328000D01*
G37*
G36*
X133894000Y-109328000D02*
G01*
X132342000Y-109328000D01*
X132342000Y-106826000D01*
X133894000Y-106826000D01*
X133894000Y-109328000D01*
X133894000Y-109328000D01*
G37*
G36*
X177665000Y-109203000D02*
G01*
X176963000Y-109203000D01*
X176963000Y-108601000D01*
X177665000Y-108601000D01*
X177665000Y-109203000D01*
X177665000Y-109203000D01*
G37*
G36*
X178765000Y-109203000D02*
G01*
X178063000Y-109203000D01*
X178063000Y-108601000D01*
X178765000Y-108601000D01*
X178765000Y-109203000D01*
X178765000Y-109203000D01*
G37*
G36*
X116324355Y-106775083D02*
G01*
X116329029Y-106776501D01*
X116333331Y-106778800D01*
X116337104Y-106781896D01*
X116340200Y-106785669D01*
X116342499Y-106789971D01*
X116346362Y-106802707D01*
X116347867Y-106810275D01*
X116357242Y-106832915D01*
X116370854Y-106853290D01*
X116388179Y-106870619D01*
X116408552Y-106884235D01*
X116431190Y-106893614D01*
X116455223Y-106898397D01*
X116467487Y-106899000D01*
X117720513Y-106899000D01*
X117744899Y-106896598D01*
X117768348Y-106889485D01*
X117789959Y-106877934D01*
X117808901Y-106862389D01*
X117824446Y-106843447D01*
X117835997Y-106821836D01*
X117843110Y-106798387D01*
X117843265Y-106797342D01*
X117845501Y-106789971D01*
X117847800Y-106785669D01*
X117850896Y-106781896D01*
X117854669Y-106778800D01*
X117858971Y-106776501D01*
X117863645Y-106775083D01*
X117874641Y-106774000D01*
X118738359Y-106774000D01*
X118749355Y-106775083D01*
X118754029Y-106776501D01*
X118758331Y-106778800D01*
X118762104Y-106781896D01*
X118765200Y-106785669D01*
X118767499Y-106789971D01*
X118768917Y-106794645D01*
X118770000Y-106805641D01*
X118770000Y-107094359D01*
X118768917Y-107105355D01*
X118767499Y-107110029D01*
X118765200Y-107114330D01*
X118759971Y-107120702D01*
X118746357Y-107141076D01*
X118736980Y-107163715D01*
X118732200Y-107187749D01*
X118732200Y-107212253D01*
X118736981Y-107236286D01*
X118746358Y-107258925D01*
X118759971Y-107279298D01*
X118765200Y-107285670D01*
X118767499Y-107289971D01*
X118768917Y-107294645D01*
X118770000Y-107305641D01*
X118770000Y-107594359D01*
X118768917Y-107605355D01*
X118767499Y-107610029D01*
X118765200Y-107614330D01*
X118759971Y-107620702D01*
X118746357Y-107641076D01*
X118736980Y-107663715D01*
X118732200Y-107687749D01*
X118732200Y-107712253D01*
X118736981Y-107736286D01*
X118746358Y-107758925D01*
X118759971Y-107779298D01*
X118765200Y-107785670D01*
X118767499Y-107789971D01*
X118768917Y-107794645D01*
X118770000Y-107805641D01*
X118770000Y-108094359D01*
X118768917Y-108105355D01*
X118767499Y-108110029D01*
X118765200Y-108114330D01*
X118759971Y-108120702D01*
X118746357Y-108141076D01*
X118736980Y-108163715D01*
X118732200Y-108187749D01*
X118732200Y-108212253D01*
X118736981Y-108236286D01*
X118746358Y-108258925D01*
X118759971Y-108279298D01*
X118765200Y-108285670D01*
X118767499Y-108289971D01*
X118768917Y-108294645D01*
X118770000Y-108305641D01*
X118770000Y-108594359D01*
X118768917Y-108605355D01*
X118767499Y-108610029D01*
X118765200Y-108614330D01*
X118759971Y-108620702D01*
X118746357Y-108641076D01*
X118736980Y-108663715D01*
X118732200Y-108687749D01*
X118732200Y-108712253D01*
X118736981Y-108736286D01*
X118746358Y-108758925D01*
X118759971Y-108779298D01*
X118765200Y-108785670D01*
X118767499Y-108789971D01*
X118768917Y-108794645D01*
X118770000Y-108805641D01*
X118770000Y-109094359D01*
X118768917Y-109105355D01*
X118767499Y-109110029D01*
X118765200Y-109114331D01*
X118762104Y-109118104D01*
X118758331Y-109121200D01*
X118754029Y-109123499D01*
X118749355Y-109124917D01*
X118738359Y-109126000D01*
X117874641Y-109126000D01*
X117863645Y-109124917D01*
X117858971Y-109123499D01*
X117854669Y-109121200D01*
X117850896Y-109118104D01*
X117847800Y-109114331D01*
X117845501Y-109110029D01*
X117841638Y-109097293D01*
X117840133Y-109089725D01*
X117830758Y-109067085D01*
X117817146Y-109046710D01*
X117799821Y-109029381D01*
X117779448Y-109015765D01*
X117756810Y-109006386D01*
X117732777Y-109001603D01*
X117720513Y-109001000D01*
X116467487Y-109001000D01*
X116443101Y-109003402D01*
X116419652Y-109010515D01*
X116398041Y-109022066D01*
X116379099Y-109037611D01*
X116363554Y-109056553D01*
X116352003Y-109078164D01*
X116344890Y-109101613D01*
X116344735Y-109102658D01*
X116342499Y-109110029D01*
X116340200Y-109114331D01*
X116337104Y-109118104D01*
X116333331Y-109121200D01*
X116329029Y-109123499D01*
X116324355Y-109124917D01*
X116313359Y-109126000D01*
X115449641Y-109126000D01*
X115438645Y-109124917D01*
X115433971Y-109123499D01*
X115429669Y-109121200D01*
X115425896Y-109118104D01*
X115422800Y-109114331D01*
X115420501Y-109110029D01*
X115419083Y-109105355D01*
X115418000Y-109094359D01*
X115418000Y-108805641D01*
X115419083Y-108794645D01*
X115420501Y-108789971D01*
X115422800Y-108785670D01*
X115428029Y-108779298D01*
X115441643Y-108758924D01*
X115451020Y-108736285D01*
X115455800Y-108712251D01*
X115455800Y-108687747D01*
X115451019Y-108663714D01*
X115441642Y-108641075D01*
X115428029Y-108620702D01*
X115422800Y-108614330D01*
X115420501Y-108610029D01*
X115419083Y-108605355D01*
X115418000Y-108594359D01*
X115418000Y-108305641D01*
X115419083Y-108294645D01*
X115420501Y-108289971D01*
X115422800Y-108285670D01*
X115428029Y-108279298D01*
X115441643Y-108258924D01*
X115451020Y-108236285D01*
X115455800Y-108212251D01*
X115455800Y-108187747D01*
X115451019Y-108163714D01*
X115441642Y-108141075D01*
X115428029Y-108120702D01*
X115422800Y-108114330D01*
X115420501Y-108110029D01*
X115419083Y-108105355D01*
X115418000Y-108094359D01*
X115418000Y-107805641D01*
X115419083Y-107794645D01*
X115420501Y-107789971D01*
X115422800Y-107785670D01*
X115428029Y-107779298D01*
X115441643Y-107758924D01*
X115451020Y-107736285D01*
X115455800Y-107712251D01*
X115455800Y-107687747D01*
X115451019Y-107663714D01*
X115441642Y-107641075D01*
X115428029Y-107620702D01*
X115422800Y-107614330D01*
X115420501Y-107610029D01*
X115419083Y-107605355D01*
X115418000Y-107594359D01*
X115418000Y-107305641D01*
X115419083Y-107294645D01*
X115420501Y-107289971D01*
X115422800Y-107285670D01*
X115428029Y-107279298D01*
X115441643Y-107258924D01*
X115451020Y-107236285D01*
X115455800Y-107212251D01*
X115455800Y-107187747D01*
X115451019Y-107163714D01*
X115441642Y-107141075D01*
X115428029Y-107120702D01*
X115422800Y-107114330D01*
X115420501Y-107110029D01*
X115419083Y-107105355D01*
X115418000Y-107094359D01*
X115418000Y-106805641D01*
X115419083Y-106794645D01*
X115420501Y-106789971D01*
X115422800Y-106785669D01*
X115425896Y-106781896D01*
X115429669Y-106778800D01*
X115433971Y-106776501D01*
X115438645Y-106775083D01*
X115449641Y-106774000D01*
X116313359Y-106774000D01*
X116324355Y-106775083D01*
X116324355Y-106775083D01*
G37*
G36*
X121859000Y-108936000D02*
G01*
X121357000Y-108936000D01*
X121357000Y-108234000D01*
X121859000Y-108234000D01*
X121859000Y-108936000D01*
X121859000Y-108936000D01*
G37*
G36*
X120959000Y-108936000D02*
G01*
X120457000Y-108936000D01*
X120457000Y-108234000D01*
X120959000Y-108234000D01*
X120959000Y-108936000D01*
X120959000Y-108936000D01*
G37*
G36*
X153259000Y-108831000D02*
G01*
X152557000Y-108831000D01*
X152557000Y-108329000D01*
X153259000Y-108329000D01*
X153259000Y-108831000D01*
X153259000Y-108831000D01*
G37*
G36*
X128535232Y-108322563D02*
G01*
X128544595Y-108325403D01*
X128553224Y-108330016D01*
X128560782Y-108336218D01*
X128566984Y-108343776D01*
X128571597Y-108352405D01*
X128574437Y-108361768D01*
X128576000Y-108377640D01*
X128576000Y-108716360D01*
X128574437Y-108732232D01*
X128571597Y-108741595D01*
X128566984Y-108750224D01*
X128560782Y-108757782D01*
X128553224Y-108763984D01*
X128544595Y-108768597D01*
X128535232Y-108771437D01*
X128519360Y-108773000D01*
X127780640Y-108773000D01*
X127764768Y-108771437D01*
X127755405Y-108768597D01*
X127746776Y-108763984D01*
X127739218Y-108757782D01*
X127733016Y-108750224D01*
X127728403Y-108741595D01*
X127725563Y-108732232D01*
X127724000Y-108716360D01*
X127724000Y-108377640D01*
X127725563Y-108361768D01*
X127728403Y-108352405D01*
X127733016Y-108343776D01*
X127739218Y-108336218D01*
X127746776Y-108330016D01*
X127755405Y-108325403D01*
X127764768Y-108322563D01*
X127780640Y-108321000D01*
X128519360Y-108321000D01*
X128535232Y-108322563D01*
X128535232Y-108322563D01*
G37*
G36*
X130935232Y-108322563D02*
G01*
X130944595Y-108325403D01*
X130953224Y-108330016D01*
X130960782Y-108336218D01*
X130966984Y-108343776D01*
X130971597Y-108352405D01*
X130974437Y-108361768D01*
X130976000Y-108377640D01*
X130976000Y-108716360D01*
X130974437Y-108732232D01*
X130971597Y-108741595D01*
X130966984Y-108750224D01*
X130960782Y-108757782D01*
X130953224Y-108763984D01*
X130944595Y-108768597D01*
X130935232Y-108771437D01*
X130919360Y-108773000D01*
X130180640Y-108773000D01*
X130164768Y-108771437D01*
X130155405Y-108768597D01*
X130146776Y-108763984D01*
X130139218Y-108757782D01*
X130133016Y-108750224D01*
X130128403Y-108741595D01*
X130125563Y-108732232D01*
X130124000Y-108716360D01*
X130124000Y-108377640D01*
X130125563Y-108361768D01*
X130128403Y-108352405D01*
X130133016Y-108343776D01*
X130139218Y-108336218D01*
X130146776Y-108330016D01*
X130155405Y-108325403D01*
X130164768Y-108322563D01*
X130180640Y-108321000D01*
X130919360Y-108321000D01*
X130935232Y-108322563D01*
X130935232Y-108322563D01*
G37*
G36*
X119985000Y-108767000D02*
G01*
X119283000Y-108767000D01*
X119283000Y-108265000D01*
X119985000Y-108265000D01*
X119985000Y-108767000D01*
X119985000Y-108767000D01*
G37*
G36*
X155503000Y-108682000D02*
G01*
X155001000Y-108682000D01*
X155001000Y-107980000D01*
X155503000Y-107980000D01*
X155503000Y-108682000D01*
X155503000Y-108682000D01*
G37*
G36*
X156403000Y-108682000D02*
G01*
X155901000Y-108682000D01*
X155901000Y-107980000D01*
X156403000Y-107980000D01*
X156403000Y-108682000D01*
X156403000Y-108682000D01*
G37*
G36*
X173649000Y-108393000D02*
G01*
X171547000Y-108393000D01*
X171547000Y-105791000D01*
X173649000Y-105791000D01*
X173649000Y-108393000D01*
X173649000Y-108393000D01*
G37*
G36*
X164749000Y-108393000D02*
G01*
X162647000Y-108393000D01*
X162647000Y-105791000D01*
X164749000Y-105791000D01*
X164749000Y-108393000D01*
X164749000Y-108393000D01*
G37*
G36*
X170049000Y-108193000D02*
G01*
X166247000Y-108193000D01*
X166247000Y-105791000D01*
X170049000Y-105791000D01*
X170049000Y-108193000D01*
X170049000Y-108193000D01*
G37*
G36*
X177465000Y-108133000D02*
G01*
X176963000Y-108133000D01*
X176963000Y-107381000D01*
X177465000Y-107381000D01*
X177465000Y-108133000D01*
X177465000Y-108133000D01*
G37*
G36*
X178765000Y-108133000D02*
G01*
X178263000Y-108133000D01*
X178263000Y-107381000D01*
X178765000Y-107381000D01*
X178765000Y-108133000D01*
X178765000Y-108133000D01*
G37*
G36*
X114855000Y-108025000D02*
G01*
X114253000Y-108025000D01*
X114253000Y-107323000D01*
X114855000Y-107323000D01*
X114855000Y-108025000D01*
X114855000Y-108025000D01*
G37*
G36*
X128535232Y-107522563D02*
G01*
X128544595Y-107525403D01*
X128553224Y-107530016D01*
X128560782Y-107536218D01*
X128566984Y-107543776D01*
X128571597Y-107552405D01*
X128574437Y-107561768D01*
X128576000Y-107577640D01*
X128576000Y-107916360D01*
X128574437Y-107932232D01*
X128571597Y-107941595D01*
X128566984Y-107950224D01*
X128560782Y-107957782D01*
X128553224Y-107963984D01*
X128544595Y-107968597D01*
X128535232Y-107971437D01*
X128519360Y-107973000D01*
X127780640Y-107973000D01*
X127764768Y-107971437D01*
X127755405Y-107968597D01*
X127746776Y-107963984D01*
X127739218Y-107957782D01*
X127733016Y-107950224D01*
X127728403Y-107941595D01*
X127725563Y-107932232D01*
X127724000Y-107916360D01*
X127724000Y-107577640D01*
X127725563Y-107561768D01*
X127728403Y-107552405D01*
X127733016Y-107543776D01*
X127739218Y-107536218D01*
X127746776Y-107530016D01*
X127755405Y-107525403D01*
X127764768Y-107522563D01*
X127780640Y-107521000D01*
X128519360Y-107521000D01*
X128535232Y-107522563D01*
X128535232Y-107522563D01*
G37*
G36*
X130935232Y-107522563D02*
G01*
X130944595Y-107525403D01*
X130953224Y-107530016D01*
X130960782Y-107536218D01*
X130966984Y-107543776D01*
X130971597Y-107552405D01*
X130974437Y-107561768D01*
X130976000Y-107577640D01*
X130976000Y-107916360D01*
X130974437Y-107932232D01*
X130971597Y-107941595D01*
X130966984Y-107950224D01*
X130960782Y-107957782D01*
X130953224Y-107963984D01*
X130944595Y-107968597D01*
X130935232Y-107971437D01*
X130919360Y-107973000D01*
X130180640Y-107973000D01*
X130164768Y-107971437D01*
X130155405Y-107968597D01*
X130146776Y-107963984D01*
X130139218Y-107957782D01*
X130133016Y-107950224D01*
X130128403Y-107941595D01*
X130125563Y-107932232D01*
X130124000Y-107916360D01*
X130124000Y-107577640D01*
X130125563Y-107561768D01*
X130128403Y-107552405D01*
X130133016Y-107543776D01*
X130139218Y-107536218D01*
X130146776Y-107530016D01*
X130155405Y-107525403D01*
X130164768Y-107522563D01*
X130180640Y-107521000D01*
X130919360Y-107521000D01*
X130935232Y-107522563D01*
X130935232Y-107522563D01*
G37*
G36*
X180006000Y-107708000D02*
G01*
X179404000Y-107708000D01*
X179404000Y-107006000D01*
X180006000Y-107006000D01*
X180006000Y-107708000D01*
X180006000Y-107708000D01*
G37*
G36*
X154402000Y-107699000D02*
G01*
X153700000Y-107699000D01*
X153700000Y-107197000D01*
X154402000Y-107197000D01*
X154402000Y-107699000D01*
X154402000Y-107699000D01*
G37*
G36*
X155418000Y-107699000D02*
G01*
X154716000Y-107699000D01*
X154716000Y-107197000D01*
X155418000Y-107197000D01*
X155418000Y-107699000D01*
X155418000Y-107699000D01*
G37*
G36*
X120428000Y-107696000D02*
G01*
X119526000Y-107696000D01*
X119526000Y-104394000D01*
X120428000Y-104394000D01*
X120428000Y-107696000D01*
X120428000Y-107696000D01*
G37*
G36*
X122028000Y-107696000D02*
G01*
X121126000Y-107696000D01*
X121126000Y-104394000D01*
X122028000Y-104394000D01*
X122028000Y-107696000D01*
X122028000Y-107696000D01*
G37*
G36*
X130935232Y-106722563D02*
G01*
X130944595Y-106725403D01*
X130953224Y-106730016D01*
X130960782Y-106736218D01*
X130966984Y-106743776D01*
X130971597Y-106752405D01*
X130974437Y-106761768D01*
X130976000Y-106777640D01*
X130976000Y-107116360D01*
X130974437Y-107132232D01*
X130971597Y-107141595D01*
X130966984Y-107150224D01*
X130960782Y-107157782D01*
X130953224Y-107163984D01*
X130944595Y-107168597D01*
X130935232Y-107171437D01*
X130919360Y-107173000D01*
X130180640Y-107173000D01*
X130164768Y-107171437D01*
X130155405Y-107168597D01*
X130146776Y-107163984D01*
X130139218Y-107157782D01*
X130133016Y-107150224D01*
X130128403Y-107141595D01*
X130125563Y-107132232D01*
X130124000Y-107116360D01*
X130124000Y-106777640D01*
X130125563Y-106761768D01*
X130128403Y-106752405D01*
X130133016Y-106743776D01*
X130139218Y-106736218D01*
X130146776Y-106730016D01*
X130155405Y-106725403D01*
X130164768Y-106722563D01*
X130180640Y-106721000D01*
X130919360Y-106721000D01*
X130935232Y-106722563D01*
X130935232Y-106722563D01*
G37*
G36*
X128535232Y-106722563D02*
G01*
X128544595Y-106725403D01*
X128553224Y-106730016D01*
X128560782Y-106736218D01*
X128566984Y-106743776D01*
X128571597Y-106752405D01*
X128574437Y-106761768D01*
X128576000Y-106777640D01*
X128576000Y-107116360D01*
X128574437Y-107132232D01*
X128571597Y-107141595D01*
X128566984Y-107150224D01*
X128560782Y-107157782D01*
X128553224Y-107163984D01*
X128544595Y-107168597D01*
X128535232Y-107171437D01*
X128519360Y-107173000D01*
X127780640Y-107173000D01*
X127764768Y-107171437D01*
X127755405Y-107168597D01*
X127746776Y-107163984D01*
X127739218Y-107157782D01*
X127733016Y-107150224D01*
X127728403Y-107141595D01*
X127725563Y-107132232D01*
X127724000Y-107116360D01*
X127724000Y-106777640D01*
X127725563Y-106761768D01*
X127728403Y-106752405D01*
X127733016Y-106743776D01*
X127739218Y-106736218D01*
X127746776Y-106730016D01*
X127755405Y-106725403D01*
X127764768Y-106722563D01*
X127780640Y-106721000D01*
X128519360Y-106721000D01*
X128535232Y-106722563D01*
X128535232Y-106722563D01*
G37*
G36*
X114855000Y-106925000D02*
G01*
X114253000Y-106925000D01*
X114253000Y-106223000D01*
X114855000Y-106223000D01*
X114855000Y-106925000D01*
X114855000Y-106925000D01*
G37*
G36*
X154402000Y-106799000D02*
G01*
X153700000Y-106799000D01*
X153700000Y-106297000D01*
X154402000Y-106297000D01*
X154402000Y-106799000D01*
X154402000Y-106799000D01*
G37*
G36*
X155418000Y-106799000D02*
G01*
X154716000Y-106799000D01*
X154716000Y-106297000D01*
X155418000Y-106297000D01*
X155418000Y-106799000D01*
X155418000Y-106799000D01*
G37*
G36*
X180006000Y-106608000D02*
G01*
X179404000Y-106608000D01*
X179404000Y-105906000D01*
X180006000Y-105906000D01*
X180006000Y-106608000D01*
X180006000Y-106608000D01*
G37*
G36*
X115879000Y-106283000D02*
G01*
X115177000Y-106283000D01*
X115177000Y-105681000D01*
X115879000Y-105681000D01*
X115879000Y-106283000D01*
X115879000Y-106283000D01*
G37*
G36*
X116979000Y-106283000D02*
G01*
X116277000Y-106283000D01*
X116277000Y-105681000D01*
X116979000Y-105681000D01*
X116979000Y-106283000D01*
X116979000Y-106283000D01*
G37*
G36*
X117975000Y-106283000D02*
G01*
X117273000Y-106283000D01*
X117273000Y-105681000D01*
X117975000Y-105681000D01*
X117975000Y-106283000D01*
X117975000Y-106283000D01*
G37*
G36*
X119075000Y-106283000D02*
G01*
X118373000Y-106283000D01*
X118373000Y-105681000D01*
X119075000Y-105681000D01*
X119075000Y-106283000D01*
X119075000Y-106283000D01*
G37*
G36*
X178765000Y-106233000D02*
G01*
X176963000Y-106233000D01*
X176963000Y-105481000D01*
X178765000Y-105481000D01*
X178765000Y-106233000D01*
X178765000Y-106233000D01*
G37*
G36*
X160943000Y-105984000D02*
G01*
X160241000Y-105984000D01*
X160241000Y-105482000D01*
X160943000Y-105482000D01*
X160943000Y-105984000D01*
X160943000Y-105984000D01*
G37*
G36*
X159314000Y-105821000D02*
G01*
X156662000Y-105821000D01*
X156662000Y-104659000D01*
X159314000Y-104659000D01*
X159314000Y-105821000D01*
X159314000Y-105821000D01*
G37*
G36*
X154210000Y-105791000D02*
G01*
X153308000Y-105791000D01*
X153308000Y-102489000D01*
X154210000Y-102489000D01*
X154210000Y-105791000D01*
X154210000Y-105791000D01*
G37*
G36*
X155810000Y-105791000D02*
G01*
X154908000Y-105791000D01*
X154908000Y-102489000D01*
X155810000Y-102489000D01*
X155810000Y-105791000D01*
X155810000Y-105791000D01*
G37*
G36*
X117975000Y-105393000D02*
G01*
X117273000Y-105393000D01*
X117273000Y-104791000D01*
X117975000Y-104791000D01*
X117975000Y-105393000D01*
X117975000Y-105393000D01*
G37*
G36*
X119075000Y-105393000D02*
G01*
X118373000Y-105393000D01*
X118373000Y-104791000D01*
X119075000Y-104791000D01*
X119075000Y-105393000D01*
X119075000Y-105393000D01*
G37*
G36*
X165282000Y-105189000D02*
G01*
X164780000Y-105189000D01*
X164780000Y-104487000D01*
X165282000Y-104487000D01*
X165282000Y-105189000D01*
X165282000Y-105189000D01*
G37*
G36*
X166182000Y-105189000D02*
G01*
X165680000Y-105189000D01*
X165680000Y-104487000D01*
X166182000Y-104487000D01*
X166182000Y-105189000D01*
X166182000Y-105189000D01*
G37*
G36*
X160943000Y-105084000D02*
G01*
X160241000Y-105084000D01*
X160241000Y-104582000D01*
X160943000Y-104582000D01*
X160943000Y-105084000D01*
X160943000Y-105084000D01*
G37*
G36*
X160639000Y-104152000D02*
G01*
X160037000Y-104152000D01*
X160037000Y-103450000D01*
X160639000Y-103450000D01*
X160639000Y-104152000D01*
X160639000Y-104152000D01*
G37*
G36*
X152828000Y-104025000D02*
G01*
X152226000Y-104025000D01*
X152226000Y-103323000D01*
X152828000Y-103323000D01*
X152828000Y-104025000D01*
X152828000Y-104025000D01*
G37*
G36*
X120620000Y-103825000D02*
G01*
X119918000Y-103825000D01*
X119918000Y-103323000D01*
X120620000Y-103323000D01*
X120620000Y-103825000D01*
X120620000Y-103825000D01*
G37*
G36*
X121636000Y-103825000D02*
G01*
X120934000Y-103825000D01*
X120934000Y-103323000D01*
X121636000Y-103323000D01*
X121636000Y-103825000D01*
X121636000Y-103825000D01*
G37*
G36*
X159314000Y-103621000D02*
G01*
X156662000Y-103621000D01*
X156662000Y-102459000D01*
X159314000Y-102459000D01*
X159314000Y-103621000D01*
X159314000Y-103621000D01*
G37*
G36*
X160639000Y-103052000D02*
G01*
X160037000Y-103052000D01*
X160037000Y-102350000D01*
X160639000Y-102350000D01*
X160639000Y-103052000D01*
X160639000Y-103052000D01*
G37*
G36*
X121636000Y-102925000D02*
G01*
X120934000Y-102925000D01*
X120934000Y-102423000D01*
X121636000Y-102423000D01*
X121636000Y-102925000D01*
X121636000Y-102925000D01*
G37*
G36*
X152828000Y-102925000D02*
G01*
X152226000Y-102925000D01*
X152226000Y-102223000D01*
X152828000Y-102223000D01*
X152828000Y-102925000D01*
X152828000Y-102925000D01*
G37*
G36*
X120620000Y-102925000D02*
G01*
X119918000Y-102925000D01*
X119918000Y-102423000D01*
X120620000Y-102423000D01*
X120620000Y-102925000D01*
X120620000Y-102925000D01*
G37*
G36*
X174701000Y-102282000D02*
G01*
X173999000Y-102282000D01*
X173999000Y-101680000D01*
X174701000Y-101680000D01*
X174701000Y-102282000D01*
X174701000Y-102282000D01*
G37*
G36*
X173601000Y-102282000D02*
G01*
X172899000Y-102282000D01*
X172899000Y-101680000D01*
X173601000Y-101680000D01*
X173601000Y-102282000D01*
X173601000Y-102282000D01*
G37*
G36*
X171776000Y-101111000D02*
G01*
X170924000Y-101111000D01*
X170924000Y-99209000D01*
X171776000Y-99209000D01*
X171776000Y-101111000D01*
X171776000Y-101111000D01*
G37*
G36*
X174676000Y-101111000D02*
G01*
X173824000Y-101111000D01*
X173824000Y-99209000D01*
X174676000Y-99209000D01*
X174676000Y-101111000D01*
X174676000Y-101111000D01*
G37*
G36*
X173501000Y-100961000D02*
G01*
X172099000Y-100961000D01*
X172099000Y-99359000D01*
X173501000Y-99359000D01*
X173501000Y-100961000D01*
X173501000Y-100961000D01*
G37*
G36*
X107009000Y-100342000D02*
G01*
X105207000Y-100342000D01*
X105207000Y-98540000D01*
X107009000Y-98540000D01*
X107009000Y-100342000D01*
X107009000Y-100342000D01*
G37*
G36*
X198469000Y-100101500D02*
G01*
X196007000Y-100101500D01*
X196007000Y-98939500D01*
X198469000Y-98939500D01*
X198469000Y-100101500D01*
X198469000Y-100101500D01*
G37*
G36*
X189452564Y-98034389D02*
G01*
X189643833Y-98113615D01*
X189643835Y-98113616D01*
X189815973Y-98228635D01*
X189962365Y-98375027D01*
X190069590Y-98535500D01*
X190077385Y-98547167D01*
X190156611Y-98738436D01*
X190197000Y-98941484D01*
X190197000Y-99148516D01*
X190156611Y-99351564D01*
X190077385Y-99542833D01*
X190077384Y-99542835D01*
X189962365Y-99714973D01*
X189815973Y-99861365D01*
X189643835Y-99976384D01*
X189643834Y-99976385D01*
X189643833Y-99976385D01*
X189452564Y-100055611D01*
X189249516Y-100096000D01*
X189042484Y-100096000D01*
X188839436Y-100055611D01*
X188648167Y-99976385D01*
X188648166Y-99976385D01*
X188648165Y-99976384D01*
X188476027Y-99861365D01*
X188329635Y-99714973D01*
X188214616Y-99542835D01*
X188214615Y-99542833D01*
X188135389Y-99351564D01*
X188095000Y-99148516D01*
X188095000Y-98941484D01*
X188135389Y-98738436D01*
X188214615Y-98547167D01*
X188222411Y-98535500D01*
X188329635Y-98375027D01*
X188476027Y-98228635D01*
X188648165Y-98113616D01*
X188648167Y-98113615D01*
X188839436Y-98034389D01*
X189042484Y-97994000D01*
X189249516Y-97994000D01*
X189452564Y-98034389D01*
X189452564Y-98034389D01*
G37*
G36*
X199818000Y-99326000D02*
G01*
X199216000Y-99326000D01*
X199216000Y-98624000D01*
X199818000Y-98624000D01*
X199818000Y-99326000D01*
X199818000Y-99326000D01*
G37*
G36*
X135203000Y-98535500D02*
G01*
X134501000Y-98535500D01*
X134501000Y-97933500D01*
X135203000Y-97933500D01*
X135203000Y-98535500D01*
X135203000Y-98535500D01*
G37*
G36*
X134103000Y-98535500D02*
G01*
X133401000Y-98535500D01*
X133401000Y-97933500D01*
X134103000Y-97933500D01*
X134103000Y-98535500D01*
X134103000Y-98535500D01*
G37*
G36*
X199818000Y-98226000D02*
G01*
X199216000Y-98226000D01*
X199216000Y-97524000D01*
X199818000Y-97524000D01*
X199818000Y-98226000D01*
X199818000Y-98226000D01*
G37*
G36*
X198469000Y-97901500D02*
G01*
X196007000Y-97901500D01*
X196007000Y-96739500D01*
X198469000Y-96739500D01*
X198469000Y-97901500D01*
X198469000Y-97901500D01*
G37*
G36*
X135003000Y-97633000D02*
G01*
X134501000Y-97633000D01*
X134501000Y-96931000D01*
X135003000Y-96931000D01*
X135003000Y-97633000D01*
X135003000Y-97633000D01*
G37*
G36*
X134103000Y-97633000D02*
G01*
X133601000Y-97633000D01*
X133601000Y-96931000D01*
X134103000Y-96931000D01*
X134103000Y-97633000D01*
X134103000Y-97633000D01*
G37*
G36*
X196397000Y-96313000D02*
G01*
X195695000Y-96313000D01*
X195695000Y-95711000D01*
X196397000Y-95711000D01*
X196397000Y-96313000D01*
X196397000Y-96313000D01*
G37*
G36*
X197497000Y-96313000D02*
G01*
X196795000Y-96313000D01*
X196795000Y-95711000D01*
X197497000Y-95711000D01*
X197497000Y-96313000D01*
X197497000Y-96313000D01*
G37*
G36*
X135203000Y-94408000D02*
G01*
X134501000Y-94408000D01*
X134501000Y-93806000D01*
X135203000Y-93806000D01*
X135203000Y-94408000D01*
X135203000Y-94408000D01*
G37*
G36*
X134103000Y-94408000D02*
G01*
X133401000Y-94408000D01*
X133401000Y-93806000D01*
X134103000Y-93806000D01*
X134103000Y-94408000D01*
X134103000Y-94408000D01*
G37*
G36*
X106218443Y-92514019D02*
G01*
X106284627Y-92520537D01*
X106454466Y-92572057D01*
X106610991Y-92655722D01*
X106636309Y-92676500D01*
X106748186Y-92768314D01*
X106831448Y-92869771D01*
X106860778Y-92905509D01*
X106944443Y-93062034D01*
X106995963Y-93231873D01*
X107013359Y-93408500D01*
X106995963Y-93585127D01*
X106944443Y-93754966D01*
X106860778Y-93911491D01*
X106831448Y-93947229D01*
X106748186Y-94048686D01*
X106646729Y-94131948D01*
X106610991Y-94161278D01*
X106454466Y-94244943D01*
X106284627Y-94296463D01*
X106218443Y-94302981D01*
X106152260Y-94309500D01*
X106063740Y-94309500D01*
X105997557Y-94302981D01*
X105931373Y-94296463D01*
X105761534Y-94244943D01*
X105605009Y-94161278D01*
X105569271Y-94131948D01*
X105467814Y-94048686D01*
X105384552Y-93947229D01*
X105355222Y-93911491D01*
X105271557Y-93754966D01*
X105220037Y-93585127D01*
X105202641Y-93408500D01*
X105220037Y-93231873D01*
X105271557Y-93062034D01*
X105355222Y-92905509D01*
X105384552Y-92869771D01*
X105467814Y-92768314D01*
X105579691Y-92676500D01*
X105605009Y-92655722D01*
X105761534Y-92572057D01*
X105931373Y-92520537D01*
X105997557Y-92514019D01*
X106063740Y-92507500D01*
X106152260Y-92507500D01*
X106218443Y-92514019D01*
X106218443Y-92514019D01*
G37*
G36*
X134103000Y-93505500D02*
G01*
X133601000Y-93505500D01*
X133601000Y-92803500D01*
X134103000Y-92803500D01*
X134103000Y-93505500D01*
X134103000Y-93505500D01*
G37*
G36*
X135003000Y-93505500D02*
G01*
X134501000Y-93505500D01*
X134501000Y-92803500D01*
X135003000Y-92803500D01*
X135003000Y-93505500D01*
X135003000Y-93505500D01*
G37*
G36*
X194111000Y-93378500D02*
G01*
X193609000Y-93378500D01*
X193609000Y-92676500D01*
X194111000Y-92676500D01*
X194111000Y-93378500D01*
X194111000Y-93378500D01*
G37*
G36*
X195011000Y-93378500D02*
G01*
X194509000Y-93378500D01*
X194509000Y-92676500D01*
X195011000Y-92676500D01*
X195011000Y-93378500D01*
X195011000Y-93378500D01*
G37*
G36*
X199120000Y-92973000D02*
G01*
X197218000Y-92973000D01*
X197218000Y-92121000D01*
X199120000Y-92121000D01*
X199120000Y-92973000D01*
X199120000Y-92973000D01*
G37*
G36*
X114379642Y-91164781D02*
G01*
X114525414Y-91225162D01*
X114525416Y-91225163D01*
X114656608Y-91312822D01*
X114768178Y-91424392D01*
X114824500Y-91508685D01*
X114855838Y-91555586D01*
X114916219Y-91701358D01*
X114947000Y-91856107D01*
X114947000Y-92013893D01*
X114916219Y-92168642D01*
X114855838Y-92314414D01*
X114855837Y-92314416D01*
X114768178Y-92445608D01*
X114656608Y-92557178D01*
X114525416Y-92644837D01*
X114525415Y-92644838D01*
X114525414Y-92644838D01*
X114379642Y-92705219D01*
X114224893Y-92736000D01*
X114067107Y-92736000D01*
X113912358Y-92705219D01*
X113766586Y-92644838D01*
X113766585Y-92644838D01*
X113766584Y-92644837D01*
X113635392Y-92557178D01*
X113523822Y-92445608D01*
X113436163Y-92314416D01*
X113436162Y-92314414D01*
X113375781Y-92168642D01*
X113345000Y-92013893D01*
X113345000Y-91856107D01*
X113375781Y-91701358D01*
X113436162Y-91555586D01*
X113467500Y-91508685D01*
X113523822Y-91424392D01*
X113635392Y-91312822D01*
X113766584Y-91225163D01*
X113766586Y-91225162D01*
X113912358Y-91164781D01*
X114067107Y-91134000D01*
X114224893Y-91134000D01*
X114379642Y-91164781D01*
X114379642Y-91164781D01*
G37*
G36*
X189379642Y-91164781D02*
G01*
X189525414Y-91225162D01*
X189525416Y-91225163D01*
X189656608Y-91312822D01*
X189768178Y-91424392D01*
X189824500Y-91508685D01*
X189855838Y-91555586D01*
X189916219Y-91701358D01*
X189947000Y-91856107D01*
X189947000Y-92013893D01*
X189916219Y-92168642D01*
X189855838Y-92314414D01*
X189855837Y-92314416D01*
X189768178Y-92445608D01*
X189656608Y-92557178D01*
X189525416Y-92644837D01*
X189525415Y-92644838D01*
X189525414Y-92644838D01*
X189379642Y-92705219D01*
X189224893Y-92736000D01*
X189067107Y-92736000D01*
X188912358Y-92705219D01*
X188766586Y-92644838D01*
X188766585Y-92644838D01*
X188766584Y-92644837D01*
X188635392Y-92557178D01*
X188523822Y-92445608D01*
X188436163Y-92314416D01*
X188436162Y-92314414D01*
X188375781Y-92168642D01*
X188345000Y-92013893D01*
X188345000Y-91856107D01*
X188375781Y-91701358D01*
X188436162Y-91555586D01*
X188467500Y-91508685D01*
X188523822Y-91424392D01*
X188635392Y-91312822D01*
X188766584Y-91225163D01*
X188766586Y-91225162D01*
X188912358Y-91164781D01*
X189067107Y-91134000D01*
X189224893Y-91134000D01*
X189379642Y-91164781D01*
X189379642Y-91164781D01*
G37*
G36*
X198970000Y-91798000D02*
G01*
X197368000Y-91798000D01*
X197368000Y-90396000D01*
X198970000Y-90396000D01*
X198970000Y-91798000D01*
X198970000Y-91798000D01*
G37*
G36*
X106218443Y-89974019D02*
G01*
X106284627Y-89980537D01*
X106454466Y-90032057D01*
X106610991Y-90115722D01*
X106636309Y-90136500D01*
X106748186Y-90228314D01*
X106831448Y-90329771D01*
X106860778Y-90365509D01*
X106944443Y-90522034D01*
X106995963Y-90691873D01*
X107013359Y-90868500D01*
X106995963Y-91045127D01*
X106944443Y-91214966D01*
X106860778Y-91371491D01*
X106854615Y-91379000D01*
X106748186Y-91508686D01*
X106646729Y-91591948D01*
X106610991Y-91621278D01*
X106454466Y-91704943D01*
X106284627Y-91756463D01*
X106218443Y-91762981D01*
X106152260Y-91769500D01*
X106063740Y-91769500D01*
X105997557Y-91762981D01*
X105931373Y-91756463D01*
X105761534Y-91704943D01*
X105605009Y-91621278D01*
X105569271Y-91591948D01*
X105467814Y-91508686D01*
X105361385Y-91379000D01*
X105355222Y-91371491D01*
X105271557Y-91214966D01*
X105220037Y-91045127D01*
X105202641Y-90868500D01*
X105220037Y-90691873D01*
X105271557Y-90522034D01*
X105355222Y-90365509D01*
X105384552Y-90329771D01*
X105467814Y-90228314D01*
X105579691Y-90136500D01*
X105605009Y-90115722D01*
X105761534Y-90032057D01*
X105931373Y-89980537D01*
X105997557Y-89974019D01*
X106063740Y-89967500D01*
X106152260Y-89967500D01*
X106218443Y-89974019D01*
X106218443Y-89974019D01*
G37*
G36*
X161959000Y-91379000D02*
G01*
X161257000Y-91379000D01*
X161257000Y-90877000D01*
X161959000Y-90877000D01*
X161959000Y-91379000D01*
X161959000Y-91379000D01*
G37*
G36*
X200263000Y-91261500D02*
G01*
X199661000Y-91261500D01*
X199661000Y-90559500D01*
X200263000Y-90559500D01*
X200263000Y-91261500D01*
X200263000Y-91261500D01*
G37*
G36*
X195011000Y-90838500D02*
G01*
X194509000Y-90838500D01*
X194509000Y-90136500D01*
X195011000Y-90136500D01*
X195011000Y-90838500D01*
X195011000Y-90838500D01*
G37*
G36*
X194111000Y-90838500D02*
G01*
X193609000Y-90838500D01*
X193609000Y-90136500D01*
X194111000Y-90136500D01*
X194111000Y-90838500D01*
X194111000Y-90838500D01*
G37*
G36*
X161959000Y-90479000D02*
G01*
X161257000Y-90479000D01*
X161257000Y-89977000D01*
X161959000Y-89977000D01*
X161959000Y-90479000D01*
X161959000Y-90479000D01*
G37*
G36*
X135203000Y-90280500D02*
G01*
X134501000Y-90280500D01*
X134501000Y-89678500D01*
X135203000Y-89678500D01*
X135203000Y-90280500D01*
X135203000Y-90280500D01*
G37*
G36*
X134103000Y-90280500D02*
G01*
X133401000Y-90280500D01*
X133401000Y-89678500D01*
X134103000Y-89678500D01*
X134103000Y-90280500D01*
X134103000Y-90280500D01*
G37*
G36*
X179697000Y-90203500D02*
G01*
X179195000Y-90203500D01*
X179195000Y-89501500D01*
X179697000Y-89501500D01*
X179697000Y-90203500D01*
X179697000Y-90203500D01*
G37*
G36*
X180597000Y-90203500D02*
G01*
X180095000Y-90203500D01*
X180095000Y-89501500D01*
X180597000Y-89501500D01*
X180597000Y-90203500D01*
X180597000Y-90203500D01*
G37*
G36*
X189379642Y-88624781D02*
G01*
X189503295Y-88676000D01*
X189525416Y-88685163D01*
X189656608Y-88772822D01*
X189768178Y-88884392D01*
X189855837Y-89015584D01*
X189855838Y-89015586D01*
X189916219Y-89161358D01*
X189947000Y-89316107D01*
X189947000Y-89473893D01*
X189916219Y-89628642D01*
X189895567Y-89678500D01*
X189855837Y-89774416D01*
X189768178Y-89905608D01*
X189656608Y-90017178D01*
X189525416Y-90104837D01*
X189525415Y-90104838D01*
X189525414Y-90104838D01*
X189379642Y-90165219D01*
X189224893Y-90196000D01*
X189067107Y-90196000D01*
X188912358Y-90165219D01*
X188766586Y-90104838D01*
X188766585Y-90104838D01*
X188766584Y-90104837D01*
X188635392Y-90017178D01*
X188523822Y-89905608D01*
X188436163Y-89774416D01*
X188396433Y-89678500D01*
X188375781Y-89628642D01*
X188345000Y-89473893D01*
X188345000Y-89316107D01*
X188375781Y-89161358D01*
X188436162Y-89015586D01*
X188436163Y-89015584D01*
X188523822Y-88884392D01*
X188635392Y-88772822D01*
X188766584Y-88685163D01*
X188788705Y-88676000D01*
X188912358Y-88624781D01*
X189067107Y-88594000D01*
X189224893Y-88594000D01*
X189379642Y-88624781D01*
X189379642Y-88624781D01*
G37*
G36*
X114379642Y-88624781D02*
G01*
X114503295Y-88676000D01*
X114525416Y-88685163D01*
X114656608Y-88772822D01*
X114768178Y-88884392D01*
X114855837Y-89015584D01*
X114855838Y-89015586D01*
X114916219Y-89161358D01*
X114947000Y-89316107D01*
X114947000Y-89473893D01*
X114916219Y-89628642D01*
X114895567Y-89678500D01*
X114855837Y-89774416D01*
X114768178Y-89905608D01*
X114656608Y-90017178D01*
X114525416Y-90104837D01*
X114525415Y-90104838D01*
X114525414Y-90104838D01*
X114379642Y-90165219D01*
X114224893Y-90196000D01*
X114067107Y-90196000D01*
X113912358Y-90165219D01*
X113766586Y-90104838D01*
X113766585Y-90104838D01*
X113766584Y-90104837D01*
X113635392Y-90017178D01*
X113523822Y-89905608D01*
X113436163Y-89774416D01*
X113396433Y-89678500D01*
X113375781Y-89628642D01*
X113345000Y-89473893D01*
X113345000Y-89316107D01*
X113375781Y-89161358D01*
X113436162Y-89015586D01*
X113436163Y-89015584D01*
X113523822Y-88884392D01*
X113635392Y-88772822D01*
X113766584Y-88685163D01*
X113788705Y-88676000D01*
X113912358Y-88624781D01*
X114067107Y-88594000D01*
X114224893Y-88594000D01*
X114379642Y-88624781D01*
X114379642Y-88624781D01*
G37*
G36*
X200263000Y-90161500D02*
G01*
X199661000Y-90161500D01*
X199661000Y-89459500D01*
X200263000Y-89459500D01*
X200263000Y-90161500D01*
X200263000Y-90161500D01*
G37*
G36*
X199120000Y-90073000D02*
G01*
X197218000Y-90073000D01*
X197218000Y-89221000D01*
X199120000Y-89221000D01*
X199120000Y-90073000D01*
X199120000Y-90073000D01*
G37*
G36*
X158371000Y-89378000D02*
G01*
X157869000Y-89378000D01*
X157869000Y-88676000D01*
X158371000Y-88676000D01*
X158371000Y-89378000D01*
X158371000Y-89378000D01*
G37*
G36*
X157471000Y-89378000D02*
G01*
X156969000Y-89378000D01*
X156969000Y-88676000D01*
X157471000Y-88676000D01*
X157471000Y-89378000D01*
X157471000Y-89378000D01*
G37*
G36*
X134103000Y-89378000D02*
G01*
X133601000Y-89378000D01*
X133601000Y-88676000D01*
X134103000Y-88676000D01*
X134103000Y-89378000D01*
X134103000Y-89378000D01*
G37*
G36*
X135003000Y-89378000D02*
G01*
X134501000Y-89378000D01*
X134501000Y-88676000D01*
X135003000Y-88676000D01*
X135003000Y-89378000D01*
X135003000Y-89378000D01*
G37*
G36*
X107009000Y-89229500D02*
G01*
X105207000Y-89229500D01*
X105207000Y-87427500D01*
X107009000Y-87427500D01*
X107009000Y-89229500D01*
X107009000Y-89229500D01*
G37*
G36*
X189379642Y-86084781D02*
G01*
X189525414Y-86145162D01*
X189525416Y-86145163D01*
X189656608Y-86232822D01*
X189768178Y-86344392D01*
X189855837Y-86475584D01*
X189855838Y-86475586D01*
X189916219Y-86621358D01*
X189947000Y-86776107D01*
X189947000Y-86933893D01*
X189916219Y-87088642D01*
X189855838Y-87234414D01*
X189855837Y-87234416D01*
X189768178Y-87365608D01*
X189656608Y-87477178D01*
X189525416Y-87564837D01*
X189525415Y-87564838D01*
X189525414Y-87564838D01*
X189379642Y-87625219D01*
X189224893Y-87656000D01*
X189067107Y-87656000D01*
X188912358Y-87625219D01*
X188766586Y-87564838D01*
X188766585Y-87564838D01*
X188766584Y-87564837D01*
X188635392Y-87477178D01*
X188523822Y-87365608D01*
X188436163Y-87234416D01*
X188436162Y-87234414D01*
X188375781Y-87088642D01*
X188345000Y-86933893D01*
X188345000Y-86776107D01*
X188375781Y-86621358D01*
X188436162Y-86475586D01*
X188436163Y-86475584D01*
X188523822Y-86344392D01*
X188635392Y-86232822D01*
X188766584Y-86145163D01*
X188766586Y-86145162D01*
X188912358Y-86084781D01*
X189067107Y-86054000D01*
X189224893Y-86054000D01*
X189379642Y-86084781D01*
X189379642Y-86084781D01*
G37*
G36*
X114379642Y-86084781D02*
G01*
X114525414Y-86145162D01*
X114525416Y-86145163D01*
X114656608Y-86232822D01*
X114768178Y-86344392D01*
X114855837Y-86475584D01*
X114855838Y-86475586D01*
X114916219Y-86621358D01*
X114947000Y-86776107D01*
X114947000Y-86933893D01*
X114916219Y-87088642D01*
X114855838Y-87234414D01*
X114855837Y-87234416D01*
X114768178Y-87365608D01*
X114656608Y-87477178D01*
X114525416Y-87564837D01*
X114525415Y-87564838D01*
X114525414Y-87564838D01*
X114379642Y-87625219D01*
X114224893Y-87656000D01*
X114067107Y-87656000D01*
X113912358Y-87625219D01*
X113766586Y-87564838D01*
X113766585Y-87564838D01*
X113766584Y-87564837D01*
X113635392Y-87477178D01*
X113523822Y-87365608D01*
X113436163Y-87234416D01*
X113436162Y-87234414D01*
X113375781Y-87088642D01*
X113345000Y-86933893D01*
X113345000Y-86776107D01*
X113375781Y-86621358D01*
X113436162Y-86475586D01*
X113436163Y-86475584D01*
X113523822Y-86344392D01*
X113635392Y-86232822D01*
X113766584Y-86145163D01*
X113766586Y-86145162D01*
X113912358Y-86084781D01*
X114067107Y-86054000D01*
X114224893Y-86054000D01*
X114379642Y-86084781D01*
X114379642Y-86084781D01*
G37*
G36*
X134103000Y-86153000D02*
G01*
X133401000Y-86153000D01*
X133401000Y-85551000D01*
X134103000Y-85551000D01*
X134103000Y-86153000D01*
X134103000Y-86153000D01*
G37*
G36*
X135203000Y-86153000D02*
G01*
X134501000Y-86153000D01*
X134501000Y-85551000D01*
X135203000Y-85551000D01*
X135203000Y-86153000D01*
X135203000Y-86153000D01*
G37*
G36*
X199937000Y-85812500D02*
G01*
X196335000Y-85812500D01*
X196335000Y-82210500D01*
X199937000Y-82210500D01*
X199937000Y-85812500D01*
X199937000Y-85812500D01*
G37*
G36*
X135003000Y-85250500D02*
G01*
X134501000Y-85250500D01*
X134501000Y-84548500D01*
X135003000Y-84548500D01*
X135003000Y-85250500D01*
X135003000Y-85250500D01*
G37*
G36*
X134103000Y-85250500D02*
G01*
X133601000Y-85250500D01*
X133601000Y-84548500D01*
X134103000Y-84548500D01*
X134103000Y-85250500D01*
X134103000Y-85250500D01*
G37*
G36*
X114379642Y-83544781D02*
G01*
X114525414Y-83605162D01*
X114525416Y-83605163D01*
X114656608Y-83692822D01*
X114768178Y-83804392D01*
X114855837Y-83935584D01*
X114855838Y-83935586D01*
X114916219Y-84081358D01*
X114947000Y-84236107D01*
X114947000Y-84393893D01*
X114916219Y-84548642D01*
X114855838Y-84694414D01*
X114855837Y-84694416D01*
X114768178Y-84825608D01*
X114656608Y-84937178D01*
X114525416Y-85024837D01*
X114525415Y-85024838D01*
X114525414Y-85024838D01*
X114379642Y-85085219D01*
X114224893Y-85116000D01*
X114067107Y-85116000D01*
X113912358Y-85085219D01*
X113766586Y-85024838D01*
X113766585Y-85024838D01*
X113766584Y-85024837D01*
X113635392Y-84937178D01*
X113523822Y-84825608D01*
X113436163Y-84694416D01*
X113436162Y-84694414D01*
X113375781Y-84548642D01*
X113345000Y-84393893D01*
X113345000Y-84236107D01*
X113375781Y-84081358D01*
X113436162Y-83935586D01*
X113436163Y-83935584D01*
X113523822Y-83804392D01*
X113635392Y-83692822D01*
X113766584Y-83605163D01*
X113766586Y-83605162D01*
X113912358Y-83544781D01*
X114067107Y-83514000D01*
X114224893Y-83514000D01*
X114379642Y-83544781D01*
X114379642Y-83544781D01*
G37*
G36*
X189379642Y-83544781D02*
G01*
X189525414Y-83605162D01*
X189525416Y-83605163D01*
X189656608Y-83692822D01*
X189768178Y-83804392D01*
X189855837Y-83935584D01*
X189855838Y-83935586D01*
X189916219Y-84081358D01*
X189947000Y-84236107D01*
X189947000Y-84393893D01*
X189916219Y-84548642D01*
X189855838Y-84694414D01*
X189855837Y-84694416D01*
X189768178Y-84825608D01*
X189656608Y-84937178D01*
X189525416Y-85024837D01*
X189525415Y-85024838D01*
X189525414Y-85024838D01*
X189379642Y-85085219D01*
X189224893Y-85116000D01*
X189067107Y-85116000D01*
X188912358Y-85085219D01*
X188766586Y-85024838D01*
X188766585Y-85024838D01*
X188766584Y-85024837D01*
X188635392Y-84937178D01*
X188523822Y-84825608D01*
X188436163Y-84694416D01*
X188436162Y-84694414D01*
X188375781Y-84548642D01*
X188345000Y-84393893D01*
X188345000Y-84236107D01*
X188375781Y-84081358D01*
X188436162Y-83935586D01*
X188436163Y-83935584D01*
X188523822Y-83804392D01*
X188635392Y-83692822D01*
X188766584Y-83605163D01*
X188766586Y-83605162D01*
X188912358Y-83544781D01*
X189067107Y-83514000D01*
X189224893Y-83514000D01*
X189379642Y-83544781D01*
X189379642Y-83544781D01*
G37*
G36*
X161133000Y-84013000D02*
G01*
X160431000Y-84013000D01*
X160431000Y-83511000D01*
X161133000Y-83511000D01*
X161133000Y-84013000D01*
X161133000Y-84013000D01*
G37*
G36*
X160117000Y-84013000D02*
G01*
X159415000Y-84013000D01*
X159415000Y-83511000D01*
X160117000Y-83511000D01*
X160117000Y-84013000D01*
X160117000Y-84013000D01*
G37*
G36*
X106219442Y-81832518D02*
G01*
X106285627Y-81839037D01*
X106455466Y-81890557D01*
X106611991Y-81974222D01*
X106647729Y-82003552D01*
X106749186Y-82086814D01*
X106832448Y-82188271D01*
X106861778Y-82224009D01*
X106945443Y-82380534D01*
X106996963Y-82550373D01*
X107014359Y-82727000D01*
X106996963Y-82903627D01*
X106945443Y-83073466D01*
X106945442Y-83073468D01*
X106903611Y-83151728D01*
X106861778Y-83229991D01*
X106832448Y-83265729D01*
X106749186Y-83367186D01*
X106647729Y-83450448D01*
X106611991Y-83479778D01*
X106455466Y-83563443D01*
X106285627Y-83614963D01*
X106219443Y-83621481D01*
X106153260Y-83628000D01*
X106064740Y-83628000D01*
X105998557Y-83621481D01*
X105932373Y-83614963D01*
X105762534Y-83563443D01*
X105606009Y-83479778D01*
X105570271Y-83450448D01*
X105468814Y-83367186D01*
X105385552Y-83265729D01*
X105356222Y-83229991D01*
X105314390Y-83151729D01*
X105272558Y-83073468D01*
X105272557Y-83073466D01*
X105221037Y-82903627D01*
X105203641Y-82727000D01*
X105221037Y-82550373D01*
X105272557Y-82380534D01*
X105356222Y-82224009D01*
X105385552Y-82188271D01*
X105468814Y-82086814D01*
X105570271Y-82003552D01*
X105606009Y-81974222D01*
X105762534Y-81890557D01*
X105932373Y-81839037D01*
X105998558Y-81832518D01*
X106064740Y-81826000D01*
X106153260Y-81826000D01*
X106219442Y-81832518D01*
X106219442Y-81832518D01*
G37*
G36*
X161133000Y-83113000D02*
G01*
X160431000Y-83113000D01*
X160431000Y-82611000D01*
X161133000Y-82611000D01*
X161133000Y-83113000D01*
X161133000Y-83113000D01*
G37*
G36*
X160117000Y-83113000D02*
G01*
X159415000Y-83113000D01*
X159415000Y-82611000D01*
X160117000Y-82611000D01*
X160117000Y-83113000D01*
X160117000Y-83113000D01*
G37*
G36*
X189379642Y-81004781D02*
G01*
X189525414Y-81065162D01*
X189525416Y-81065163D01*
X189656608Y-81152822D01*
X189768178Y-81264392D01*
X189855837Y-81395584D01*
X189855838Y-81395586D01*
X189916219Y-81541358D01*
X189947000Y-81696107D01*
X189947000Y-81853893D01*
X189916219Y-82008642D01*
X189855838Y-82154414D01*
X189855837Y-82154416D01*
X189768178Y-82285608D01*
X189656608Y-82397178D01*
X189525416Y-82484837D01*
X189525415Y-82484838D01*
X189525414Y-82484838D01*
X189379642Y-82545219D01*
X189224893Y-82576000D01*
X189067107Y-82576000D01*
X188912358Y-82545219D01*
X188766586Y-82484838D01*
X188766585Y-82484838D01*
X188766584Y-82484837D01*
X188635392Y-82397178D01*
X188523822Y-82285608D01*
X188436163Y-82154416D01*
X188436162Y-82154414D01*
X188375781Y-82008642D01*
X188345000Y-81853893D01*
X188345000Y-81696107D01*
X188375781Y-81541358D01*
X188436162Y-81395586D01*
X188436163Y-81395584D01*
X188523822Y-81264392D01*
X188635392Y-81152822D01*
X188766584Y-81065163D01*
X188766586Y-81065162D01*
X188912358Y-81004781D01*
X189067107Y-80974000D01*
X189224893Y-80974000D01*
X189379642Y-81004781D01*
X189379642Y-81004781D01*
G37*
G36*
X114379642Y-81004781D02*
G01*
X114525414Y-81065162D01*
X114525416Y-81065163D01*
X114656608Y-81152822D01*
X114768178Y-81264392D01*
X114855837Y-81395584D01*
X114855838Y-81395586D01*
X114916219Y-81541358D01*
X114947000Y-81696107D01*
X114947000Y-81853893D01*
X114916219Y-82008642D01*
X114855838Y-82154414D01*
X114855837Y-82154416D01*
X114768178Y-82285608D01*
X114656608Y-82397178D01*
X114525416Y-82484837D01*
X114525415Y-82484838D01*
X114525414Y-82484838D01*
X114379642Y-82545219D01*
X114224893Y-82576000D01*
X114067107Y-82576000D01*
X113912358Y-82545219D01*
X113766586Y-82484838D01*
X113766585Y-82484838D01*
X113766584Y-82484837D01*
X113635392Y-82397178D01*
X113523822Y-82285608D01*
X113436163Y-82154416D01*
X113436162Y-82154414D01*
X113375781Y-82008642D01*
X113345000Y-81853893D01*
X113345000Y-81696107D01*
X113375781Y-81541358D01*
X113436162Y-81395586D01*
X113436163Y-81395584D01*
X113523822Y-81264392D01*
X113635392Y-81152822D01*
X113766584Y-81065163D01*
X113766586Y-81065162D01*
X113912358Y-81004781D01*
X114067107Y-80974000D01*
X114224893Y-80974000D01*
X114379642Y-81004781D01*
X114379642Y-81004781D01*
G37*
G36*
X168775000Y-81517500D02*
G01*
X168073000Y-81517500D01*
X168073000Y-80915500D01*
X168775000Y-80915500D01*
X168775000Y-81517500D01*
X168775000Y-81517500D01*
G37*
G36*
X169875000Y-81517500D02*
G01*
X169173000Y-81517500D01*
X169173000Y-80915500D01*
X169875000Y-80915500D01*
X169875000Y-81517500D01*
X169875000Y-81517500D01*
G37*
G36*
X202937000Y-81112500D02*
G01*
X199335000Y-81112500D01*
X199335000Y-77510500D01*
X202937000Y-77510500D01*
X202937000Y-81112500D01*
X202937000Y-81112500D01*
G37*
G36*
X196937000Y-81112500D02*
G01*
X193335000Y-81112500D01*
X193335000Y-77510500D01*
X196937000Y-77510500D01*
X196937000Y-81112500D01*
X196937000Y-81112500D01*
G37*
G36*
X106219443Y-79292519D02*
G01*
X106285627Y-79299037D01*
X106455466Y-79350557D01*
X106611991Y-79434222D01*
X106647729Y-79463552D01*
X106749186Y-79546814D01*
X106832448Y-79648271D01*
X106861778Y-79684009D01*
X106945443Y-79840534D01*
X106996963Y-80010373D01*
X107014359Y-80187000D01*
X106996963Y-80363627D01*
X106945443Y-80533466D01*
X106861778Y-80689991D01*
X106832448Y-80725729D01*
X106749186Y-80827186D01*
X106647729Y-80910448D01*
X106611991Y-80939778D01*
X106455466Y-81023443D01*
X106285627Y-81074963D01*
X106219443Y-81081481D01*
X106153260Y-81088000D01*
X106064740Y-81088000D01*
X105998557Y-81081481D01*
X105932373Y-81074963D01*
X105762534Y-81023443D01*
X105606009Y-80939778D01*
X105570271Y-80910448D01*
X105468814Y-80827186D01*
X105385552Y-80725729D01*
X105356222Y-80689991D01*
X105272557Y-80533466D01*
X105221037Y-80363627D01*
X105203641Y-80187000D01*
X105221037Y-80010373D01*
X105272557Y-79840534D01*
X105356222Y-79684009D01*
X105385552Y-79648271D01*
X105468814Y-79546814D01*
X105570271Y-79463552D01*
X105606009Y-79434222D01*
X105762534Y-79350557D01*
X105932373Y-79299037D01*
X105998557Y-79292519D01*
X106064740Y-79286000D01*
X106153260Y-79286000D01*
X106219443Y-79292519D01*
X106219443Y-79292519D01*
G37*
G36*
X114379642Y-78464781D02*
G01*
X114525414Y-78525162D01*
X114525416Y-78525163D01*
X114656608Y-78612822D01*
X114768178Y-78724392D01*
X114855837Y-78855584D01*
X114855838Y-78855586D01*
X114916219Y-79001358D01*
X114947000Y-79156107D01*
X114947000Y-79313893D01*
X114916219Y-79468642D01*
X114855838Y-79614414D01*
X114855837Y-79614416D01*
X114768178Y-79745608D01*
X114656608Y-79857178D01*
X114525416Y-79944837D01*
X114525415Y-79944838D01*
X114525414Y-79944838D01*
X114379642Y-80005219D01*
X114224893Y-80036000D01*
X114067107Y-80036000D01*
X113912358Y-80005219D01*
X113766586Y-79944838D01*
X113766585Y-79944838D01*
X113766584Y-79944837D01*
X113635392Y-79857178D01*
X113523822Y-79745608D01*
X113436163Y-79614416D01*
X113436162Y-79614414D01*
X113375781Y-79468642D01*
X113345000Y-79313893D01*
X113345000Y-79156107D01*
X113375781Y-79001358D01*
X113436162Y-78855586D01*
X113436163Y-78855584D01*
X113523822Y-78724392D01*
X113635392Y-78612822D01*
X113766584Y-78525163D01*
X113766586Y-78525162D01*
X113912358Y-78464781D01*
X114067107Y-78434000D01*
X114224893Y-78434000D01*
X114379642Y-78464781D01*
X114379642Y-78464781D01*
G37*
G36*
X189379642Y-78464781D02*
G01*
X189525414Y-78525162D01*
X189525416Y-78525163D01*
X189656608Y-78612822D01*
X189768178Y-78724392D01*
X189855837Y-78855584D01*
X189855838Y-78855586D01*
X189916219Y-79001358D01*
X189947000Y-79156107D01*
X189947000Y-79313893D01*
X189916219Y-79468642D01*
X189855838Y-79614414D01*
X189855837Y-79614416D01*
X189768178Y-79745608D01*
X189656608Y-79857178D01*
X189525416Y-79944837D01*
X189525415Y-79944838D01*
X189525414Y-79944838D01*
X189379642Y-80005219D01*
X189224893Y-80036000D01*
X189067107Y-80036000D01*
X188912358Y-80005219D01*
X188766586Y-79944838D01*
X188766585Y-79944838D01*
X188766584Y-79944837D01*
X188635392Y-79857178D01*
X188523822Y-79745608D01*
X188436163Y-79614416D01*
X188436162Y-79614414D01*
X188375781Y-79468642D01*
X188345000Y-79313893D01*
X188345000Y-79156107D01*
X188375781Y-79001358D01*
X188436162Y-78855586D01*
X188436163Y-78855584D01*
X188523822Y-78724392D01*
X188635392Y-78612822D01*
X188766584Y-78525163D01*
X188766586Y-78525162D01*
X188912358Y-78464781D01*
X189067107Y-78434000D01*
X189224893Y-78434000D01*
X189379642Y-78464781D01*
X189379642Y-78464781D01*
G37*
G36*
X107010000Y-78548000D02*
G01*
X105208000Y-78548000D01*
X105208000Y-76746000D01*
X107010000Y-76746000D01*
X107010000Y-78548000D01*
X107010000Y-78548000D01*
G37*
G36*
X114379642Y-75924781D02*
G01*
X114525414Y-75985162D01*
X114525416Y-75985163D01*
X114656608Y-76072822D01*
X114768178Y-76184392D01*
X114855837Y-76315584D01*
X114855838Y-76315586D01*
X114916219Y-76461358D01*
X114947000Y-76616107D01*
X114947000Y-76773893D01*
X114916219Y-76928642D01*
X114855838Y-77074414D01*
X114855837Y-77074416D01*
X114768178Y-77205608D01*
X114656608Y-77317178D01*
X114525416Y-77404837D01*
X114525415Y-77404838D01*
X114525414Y-77404838D01*
X114379642Y-77465219D01*
X114224893Y-77496000D01*
X114067107Y-77496000D01*
X113912358Y-77465219D01*
X113766586Y-77404838D01*
X113766585Y-77404838D01*
X113766584Y-77404837D01*
X113635392Y-77317178D01*
X113523822Y-77205608D01*
X113436163Y-77074416D01*
X113436162Y-77074414D01*
X113375781Y-76928642D01*
X113345000Y-76773893D01*
X113345000Y-76616107D01*
X113375781Y-76461358D01*
X113436162Y-76315586D01*
X113436163Y-76315584D01*
X113523822Y-76184392D01*
X113635392Y-76072822D01*
X113766584Y-75985163D01*
X113766586Y-75985162D01*
X113912358Y-75924781D01*
X114067107Y-75894000D01*
X114224893Y-75894000D01*
X114379642Y-75924781D01*
X114379642Y-75924781D01*
G37*
G36*
X189379642Y-75924781D02*
G01*
X189525414Y-75985162D01*
X189525416Y-75985163D01*
X189656608Y-76072822D01*
X189768178Y-76184392D01*
X189855837Y-76315584D01*
X189855838Y-76315586D01*
X189916219Y-76461358D01*
X189947000Y-76616107D01*
X189947000Y-76773893D01*
X189916219Y-76928642D01*
X189855838Y-77074414D01*
X189855837Y-77074416D01*
X189768178Y-77205608D01*
X189656608Y-77317178D01*
X189525416Y-77404837D01*
X189525415Y-77404838D01*
X189525414Y-77404838D01*
X189379642Y-77465219D01*
X189224893Y-77496000D01*
X189067107Y-77496000D01*
X188912358Y-77465219D01*
X188766586Y-77404838D01*
X188766585Y-77404838D01*
X188766584Y-77404837D01*
X188635392Y-77317178D01*
X188523822Y-77205608D01*
X188436163Y-77074416D01*
X188436162Y-77074414D01*
X188375781Y-76928642D01*
X188345000Y-76773893D01*
X188345000Y-76616107D01*
X188375781Y-76461358D01*
X188436162Y-76315586D01*
X188436163Y-76315584D01*
X188523822Y-76184392D01*
X188635392Y-76072822D01*
X188766584Y-75985163D01*
X188766586Y-75985162D01*
X188912358Y-75924781D01*
X189067107Y-75894000D01*
X189224893Y-75894000D01*
X189379642Y-75924781D01*
X189379642Y-75924781D01*
G37*
G36*
X168775000Y-77390000D02*
G01*
X168073000Y-77390000D01*
X168073000Y-76788000D01*
X168775000Y-76788000D01*
X168775000Y-77390000D01*
X168775000Y-77390000D01*
G37*
G36*
X169875000Y-77390000D02*
G01*
X169173000Y-77390000D01*
X169173000Y-76788000D01*
X169875000Y-76788000D01*
X169875000Y-77390000D01*
X169875000Y-77390000D01*
G37*
G36*
X114379642Y-73384781D02*
G01*
X114525414Y-73445162D01*
X114525416Y-73445163D01*
X114656608Y-73532822D01*
X114768178Y-73644392D01*
X114855837Y-73775584D01*
X114855838Y-73775586D01*
X114916219Y-73921358D01*
X114947000Y-74076107D01*
X114947000Y-74233893D01*
X114916219Y-74388642D01*
X114855838Y-74534414D01*
X114855837Y-74534416D01*
X114768178Y-74665608D01*
X114656608Y-74777178D01*
X114525416Y-74864837D01*
X114525415Y-74864838D01*
X114525414Y-74864838D01*
X114379642Y-74925219D01*
X114224893Y-74956000D01*
X114067107Y-74956000D01*
X113912358Y-74925219D01*
X113766586Y-74864838D01*
X113766585Y-74864838D01*
X113766584Y-74864837D01*
X113635392Y-74777178D01*
X113523822Y-74665608D01*
X113436163Y-74534416D01*
X113436162Y-74534414D01*
X113375781Y-74388642D01*
X113345000Y-74233893D01*
X113345000Y-74076107D01*
X113375781Y-73921358D01*
X113436162Y-73775586D01*
X113436163Y-73775584D01*
X113523822Y-73644392D01*
X113635392Y-73532822D01*
X113766584Y-73445163D01*
X113766586Y-73445162D01*
X113912358Y-73384781D01*
X114067107Y-73354000D01*
X114224893Y-73354000D01*
X114379642Y-73384781D01*
X114379642Y-73384781D01*
G37*
G36*
X189947000Y-74956000D02*
G01*
X188345000Y-74956000D01*
X188345000Y-73354000D01*
X189947000Y-73354000D01*
X189947000Y-74956000D01*
X189947000Y-74956000D01*
G37*
G36*
X132894564Y-71561389D02*
G01*
X133085833Y-71640615D01*
X133085835Y-71640616D01*
X133257973Y-71755635D01*
X133404365Y-71902027D01*
X133519385Y-72074167D01*
X133598611Y-72265436D01*
X133639000Y-72468484D01*
X133639000Y-72675516D01*
X133598611Y-72878564D01*
X133519385Y-73069833D01*
X133519384Y-73069835D01*
X133404365Y-73241973D01*
X133257973Y-73388365D01*
X133085835Y-73503384D01*
X133085834Y-73503385D01*
X133085833Y-73503385D01*
X132894564Y-73582611D01*
X132691516Y-73623000D01*
X132484484Y-73623000D01*
X132281436Y-73582611D01*
X132090167Y-73503385D01*
X132090166Y-73503385D01*
X132090165Y-73503384D01*
X131918027Y-73388365D01*
X131771635Y-73241973D01*
X131656616Y-73069835D01*
X131656615Y-73069833D01*
X131577389Y-72878564D01*
X131537000Y-72675516D01*
X131537000Y-72468484D01*
X131577389Y-72265436D01*
X131656615Y-72074167D01*
X131771635Y-71902027D01*
X131918027Y-71755635D01*
X132090165Y-71640616D01*
X132090167Y-71640615D01*
X132281436Y-71561389D01*
X132484484Y-71521000D01*
X132691516Y-71521000D01*
X132894564Y-71561389D01*
X132894564Y-71561389D01*
G37*
G36*
X139394564Y-71561389D02*
G01*
X139585833Y-71640615D01*
X139585835Y-71640616D01*
X139757973Y-71755635D01*
X139904365Y-71902027D01*
X140019385Y-72074167D01*
X140098611Y-72265436D01*
X140139000Y-72468484D01*
X140139000Y-72675516D01*
X140098611Y-72878564D01*
X140019385Y-73069833D01*
X140019384Y-73069835D01*
X139904365Y-73241973D01*
X139757973Y-73388365D01*
X139585835Y-73503384D01*
X139585834Y-73503385D01*
X139585833Y-73503385D01*
X139394564Y-73582611D01*
X139191516Y-73623000D01*
X138984484Y-73623000D01*
X138781436Y-73582611D01*
X138590167Y-73503385D01*
X138590166Y-73503385D01*
X138590165Y-73503384D01*
X138418027Y-73388365D01*
X138271635Y-73241973D01*
X138156616Y-73069835D01*
X138156615Y-73069833D01*
X138077389Y-72878564D01*
X138037000Y-72675516D01*
X138037000Y-72468484D01*
X138077389Y-72265436D01*
X138156615Y-72074167D01*
X138271635Y-71902027D01*
X138418027Y-71755635D01*
X138590165Y-71640616D01*
X138590167Y-71640615D01*
X138781436Y-71561389D01*
X138984484Y-71521000D01*
X139191516Y-71521000D01*
X139394564Y-71561389D01*
X139394564Y-71561389D01*
G37*
G36*
X169875000Y-73262500D02*
G01*
X169173000Y-73262500D01*
X169173000Y-72660500D01*
X169875000Y-72660500D01*
X169875000Y-73262500D01*
X169875000Y-73262500D01*
G37*
G36*
X168775000Y-73262500D02*
G01*
X168073000Y-73262500D01*
X168073000Y-72660500D01*
X168775000Y-72660500D01*
X168775000Y-73262500D01*
X168775000Y-73262500D01*
G37*
G36*
X108696585Y-68011302D02*
G01*
X108846410Y-68041104D01*
X109128674Y-68158021D01*
X109382705Y-68327759D01*
X109598741Y-68543795D01*
X109768479Y-68797826D01*
X109885396Y-69080090D01*
X109945000Y-69379740D01*
X109945000Y-69685260D01*
X109885396Y-69984910D01*
X109768479Y-70267174D01*
X109598741Y-70521205D01*
X109382705Y-70737241D01*
X109128674Y-70906979D01*
X108846410Y-71023896D01*
X108696585Y-71053698D01*
X108546761Y-71083500D01*
X108241239Y-71083500D01*
X108091415Y-71053698D01*
X107941590Y-71023896D01*
X107659326Y-70906979D01*
X107405295Y-70737241D01*
X107189259Y-70521205D01*
X107019521Y-70267174D01*
X106902604Y-69984910D01*
X106843000Y-69685260D01*
X106843000Y-69379740D01*
X106902604Y-69080090D01*
X107019521Y-68797826D01*
X107189259Y-68543795D01*
X107405295Y-68327759D01*
X107659326Y-68158021D01*
X107941590Y-68041104D01*
X108091415Y-68011302D01*
X108241239Y-67981500D01*
X108546761Y-67981500D01*
X108696585Y-68011302D01*
X108696585Y-68011302D01*
G37*
G36*
X198549585Y-68011302D02*
G01*
X198699410Y-68041104D01*
X198981674Y-68158021D01*
X199235705Y-68327759D01*
X199451741Y-68543795D01*
X199621479Y-68797826D01*
X199738396Y-69080090D01*
X199798000Y-69379740D01*
X199798000Y-69685260D01*
X199738396Y-69984910D01*
X199621479Y-70267174D01*
X199451741Y-70521205D01*
X199235705Y-70737241D01*
X198981674Y-70906979D01*
X198699410Y-71023896D01*
X198549585Y-71053698D01*
X198399761Y-71083500D01*
X198094239Y-71083500D01*
X197944415Y-71053698D01*
X197794590Y-71023896D01*
X197512326Y-70906979D01*
X197258295Y-70737241D01*
X197042259Y-70521205D01*
X196872521Y-70267174D01*
X196755604Y-69984910D01*
X196696000Y-69685260D01*
X196696000Y-69379740D01*
X196755604Y-69080090D01*
X196872521Y-68797826D01*
X197042259Y-68543795D01*
X197258295Y-68327759D01*
X197512326Y-68158021D01*
X197794590Y-68041104D01*
X197944415Y-68011302D01*
X198094239Y-67981500D01*
X198399761Y-67981500D01*
X198549585Y-68011302D01*
X198549585Y-68011302D01*
G37*
G36*
X168775000Y-69135000D02*
G01*
X168073000Y-69135000D01*
X168073000Y-68533000D01*
X168775000Y-68533000D01*
X168775000Y-69135000D01*
X168775000Y-69135000D01*
G37*
G36*
X169875000Y-69135000D02*
G01*
X169173000Y-69135000D01*
X169173000Y-68533000D01*
X169875000Y-68533000D01*
X169875000Y-69135000D01*
X169875000Y-69135000D01*
G37*
G36*
X139394564Y-67061389D02*
G01*
X139585833Y-67140615D01*
X139585835Y-67140616D01*
X139757973Y-67255635D01*
X139904365Y-67402027D01*
X139998449Y-67542833D01*
X140019385Y-67574167D01*
X140098611Y-67765436D01*
X140139000Y-67968484D01*
X140139000Y-68175516D01*
X140098611Y-68378564D01*
X140030170Y-68543795D01*
X140019384Y-68569835D01*
X139904365Y-68741973D01*
X139757973Y-68888365D01*
X139585835Y-69003384D01*
X139585834Y-69003385D01*
X139585833Y-69003385D01*
X139394564Y-69082611D01*
X139191516Y-69123000D01*
X138984484Y-69123000D01*
X138781436Y-69082611D01*
X138590167Y-69003385D01*
X138590166Y-69003385D01*
X138590165Y-69003384D01*
X138418027Y-68888365D01*
X138271635Y-68741973D01*
X138156616Y-68569835D01*
X138145830Y-68543795D01*
X138077389Y-68378564D01*
X138037000Y-68175516D01*
X138037000Y-67968484D01*
X138077389Y-67765436D01*
X138156615Y-67574167D01*
X138177552Y-67542833D01*
X138271635Y-67402027D01*
X138418027Y-67255635D01*
X138590165Y-67140616D01*
X138590167Y-67140615D01*
X138781436Y-67061389D01*
X138984484Y-67021000D01*
X139191516Y-67021000D01*
X139394564Y-67061389D01*
X139394564Y-67061389D01*
G37*
G36*
X132894564Y-67061389D02*
G01*
X133085833Y-67140615D01*
X133085835Y-67140616D01*
X133257973Y-67255635D01*
X133404365Y-67402027D01*
X133498449Y-67542833D01*
X133519385Y-67574167D01*
X133598611Y-67765436D01*
X133639000Y-67968484D01*
X133639000Y-68175516D01*
X133598611Y-68378564D01*
X133530170Y-68543795D01*
X133519384Y-68569835D01*
X133404365Y-68741973D01*
X133257973Y-68888365D01*
X133085835Y-69003384D01*
X133085834Y-69003385D01*
X133085833Y-69003385D01*
X132894564Y-69082611D01*
X132691516Y-69123000D01*
X132484484Y-69123000D01*
X132281436Y-69082611D01*
X132090167Y-69003385D01*
X132090166Y-69003385D01*
X132090165Y-69003384D01*
X131918027Y-68888365D01*
X131771635Y-68741973D01*
X131656616Y-68569835D01*
X131645830Y-68543795D01*
X131577389Y-68378564D01*
X131537000Y-68175516D01*
X131537000Y-67968484D01*
X131577389Y-67765436D01*
X131656615Y-67574167D01*
X131677552Y-67542833D01*
X131771635Y-67402027D01*
X131918027Y-67255635D01*
X132090165Y-67140616D01*
X132090167Y-67140615D01*
X132281436Y-67061389D01*
X132484484Y-67021000D01*
X132691516Y-67021000D01*
X132894564Y-67061389D01*
X132894564Y-67061389D01*
G37*
G36*
X114452564Y-66034389D02*
G01*
X114643833Y-66113615D01*
X114643835Y-66113616D01*
X114815973Y-66228635D01*
X114962365Y-66375027D01*
X115077385Y-66547167D01*
X115156611Y-66738436D01*
X115197000Y-66941484D01*
X115197000Y-67148516D01*
X115156611Y-67351564D01*
X115077385Y-67542833D01*
X115077384Y-67542835D01*
X114962365Y-67714973D01*
X114815973Y-67861365D01*
X114643835Y-67976384D01*
X114643834Y-67976385D01*
X114643833Y-67976385D01*
X114452564Y-68055611D01*
X114249516Y-68096000D01*
X114042484Y-68096000D01*
X113839436Y-68055611D01*
X113648167Y-67976385D01*
X113648166Y-67976385D01*
X113648165Y-67976384D01*
X113476027Y-67861365D01*
X113329635Y-67714973D01*
X113214616Y-67542835D01*
X113214615Y-67542833D01*
X113135389Y-67351564D01*
X113095000Y-67148516D01*
X113095000Y-66941484D01*
X113135389Y-66738436D01*
X113214615Y-66547167D01*
X113329635Y-66375027D01*
X113476027Y-66228635D01*
X113648165Y-66113616D01*
X113648167Y-66113615D01*
X113839436Y-66034389D01*
X114042484Y-65994000D01*
X114249516Y-65994000D01*
X114452564Y-66034389D01*
X114452564Y-66034389D01*
G37*
M02*
