G04 #@! TF.GenerationSoftware,KiCad,Pcbnew,(5.1.4)-1*
G04 #@! TF.CreationDate,2020-06-05T19:42:11-05:00*
G04 #@! TF.ProjectId,Pulse_Oximeter,50756c73-655f-44f7-9869-6d657465722e,rev?*
G04 #@! TF.SameCoordinates,Original*
G04 #@! TF.FileFunction,Copper,L4,Bot*
G04 #@! TF.FilePolarity,Positive*
%FSLAX46Y46*%
G04 Gerber Fmt 4.6, Leading zero omitted, Abs format (unit mm)*
G04 Created by KiCad (PCBNEW (5.1.4)-1) date 2020-06-05 19:42:11*
%MOMM*%
%LPD*%
G04 APERTURE LIST*
%ADD10C,0.200000*%
%ADD11R,0.600000X0.500000*%
%ADD12R,0.500000X0.600000*%
%ADD13R,3.500000X3.500000*%
%ADD14O,1.700000X1.700000*%
%ADD15R,1.700000X1.700000*%
%ADD16R,0.500000X2.300000*%
%ADD17R,2.000000X2.500000*%
%ADD18R,0.600000X0.400000*%
%ADD19R,0.400000X0.600000*%
%ADD20R,0.800000X3.200000*%
%ADD21C,2.000000*%
%ADD22R,10.000000X10.000000*%
%ADD23R,0.400000X1.060000*%
%ADD24R,0.300000X0.750000*%
%ADD25R,1.500000X1.300000*%
%ADD26R,0.750000X0.300000*%
%ADD27R,1.300000X1.500000*%
%ADD28C,0.100000*%
%ADD29C,0.250000*%
%ADD30R,1.200000X2.000000*%
%ADD31R,0.650000X1.060000*%
%ADD32R,1.450000X0.450000*%
%ADD33C,0.350000*%
%ADD34C,1.500000*%
%ADD35R,1.500000X1.500000*%
%ADD36R,0.400000X0.650000*%
%ADD37R,1.060000X0.650000*%
%ADD38C,0.431800*%
%ADD39C,0.299800*%
%ADD40C,0.635000*%
%ADD41C,0.254000*%
%ADD42C,0.250200*%
%ADD43C,0.350400*%
G04 APERTURE END LIST*
D10*
X160083476Y-65825714D02*
X160083476Y-66492380D01*
X159845380Y-65444761D02*
X159607285Y-66159047D01*
X160226333Y-66159047D01*
D11*
X197146000Y-96012000D03*
X196046000Y-96012000D03*
D12*
X199517000Y-98975000D03*
X199517000Y-97875000D03*
X199962000Y-89810500D03*
X199962000Y-90910500D03*
D11*
X174350000Y-101981000D03*
X173250000Y-101981000D03*
X116628000Y-105982000D03*
X115528000Y-105982000D03*
D12*
X114554000Y-106574000D03*
X114554000Y-107674000D03*
D11*
X117624000Y-105982000D03*
X118724000Y-105982000D03*
X118724000Y-105092000D03*
X117624000Y-105092000D03*
X121708000Y-109728000D03*
X120608000Y-109728000D03*
D12*
X152527000Y-102574000D03*
X152527000Y-103674000D03*
X160338000Y-103801000D03*
X160338000Y-102701000D03*
D11*
X122132000Y-113094000D03*
X123232000Y-113094000D03*
D12*
X179705000Y-106257000D03*
X179705000Y-107357000D03*
D11*
X177314000Y-113474000D03*
X178414000Y-113474000D03*
X177314000Y-108902000D03*
X178414000Y-108902000D03*
X168424000Y-68834000D03*
X169524000Y-68834000D03*
X168424000Y-81216500D03*
X169524000Y-81216500D03*
X169524000Y-77089000D03*
X168424000Y-77089000D03*
X168424000Y-72961500D03*
X169524000Y-72961500D03*
X134852000Y-85852000D03*
X133752000Y-85852000D03*
X134852000Y-89979500D03*
X133752000Y-89979500D03*
X133752000Y-94107000D03*
X134852000Y-94107000D03*
X134852000Y-98234500D03*
X133752000Y-98234500D03*
D13*
X195136000Y-79311500D03*
X201136000Y-79311500D03*
X198136000Y-84011500D03*
D14*
X146558000Y-112966000D03*
X144018000Y-112966000D03*
X141478000Y-112966000D03*
X138938000Y-112966000D03*
X136398000Y-112966000D03*
D15*
X133858000Y-112966000D03*
D16*
X169748000Y-106992000D03*
X168948000Y-106992000D03*
X168148000Y-106992000D03*
X167348000Y-106992000D03*
X166548000Y-106992000D03*
D17*
X172598000Y-107092000D03*
X172598000Y-112592000D03*
X163698000Y-107092000D03*
X163698000Y-112592000D03*
D14*
X106109000Y-82727000D03*
X106109000Y-80187000D03*
D15*
X106109000Y-77647000D03*
X106108000Y-88328500D03*
D14*
X106108000Y-90868500D03*
X106108000Y-93408500D03*
D18*
X160592000Y-104833000D03*
X160592000Y-105733000D03*
D19*
X165931000Y-104838000D03*
X165031000Y-104838000D03*
X194760000Y-90487500D03*
X193860000Y-90487500D03*
X194760000Y-93027500D03*
X193860000Y-93027500D03*
X180346000Y-89852500D03*
X179446000Y-89852500D03*
D18*
X120269000Y-103574000D03*
X120269000Y-102674000D03*
D20*
X119977000Y-106045000D03*
X121577000Y-106045000D03*
D18*
X121285000Y-102674000D03*
X121285000Y-103574000D03*
D19*
X120708000Y-108585000D03*
X121608000Y-108585000D03*
D18*
X119634000Y-108516000D03*
X119634000Y-109416000D03*
X161608000Y-90228000D03*
X161608000Y-91128000D03*
D19*
X158120000Y-89027000D03*
X157220000Y-89027000D03*
D18*
X159766000Y-83762000D03*
X159766000Y-82862000D03*
X160782000Y-82862000D03*
X160782000Y-83762000D03*
X152908000Y-112008000D03*
X152908000Y-112908000D03*
X152908000Y-111194000D03*
X152908000Y-110294000D03*
X152908000Y-108580000D03*
X152908000Y-109480000D03*
D19*
X156152000Y-108331000D03*
X155252000Y-108331000D03*
D18*
X154051000Y-107448000D03*
X154051000Y-106548000D03*
D20*
X155359000Y-104140000D03*
X153759000Y-104140000D03*
D18*
X155067000Y-106548000D03*
X155067000Y-107448000D03*
D19*
X123132000Y-110871000D03*
X122232000Y-110871000D03*
X134868000Y-110363000D03*
X135768000Y-110363000D03*
D18*
X124079000Y-111500000D03*
X124079000Y-112400000D03*
X180340000Y-112644000D03*
X180340000Y-113544000D03*
X180340000Y-110294000D03*
X180340000Y-111194000D03*
D19*
X133852000Y-84899500D03*
X134752000Y-84899500D03*
X134752000Y-89027000D03*
X133852000Y-89027000D03*
X133852000Y-93154500D03*
X134752000Y-93154500D03*
X134752000Y-97282000D03*
X133852000Y-97282000D03*
D21*
X132588000Y-72572000D03*
X132588000Y-68072000D03*
X139088000Y-72572000D03*
X139088000Y-68072000D03*
D22*
X186246000Y-108776000D03*
D15*
X106108000Y-99441000D03*
D23*
X196258000Y-99520500D03*
X196908000Y-99520500D03*
X197568000Y-99520500D03*
X198218000Y-99520500D03*
X198218000Y-97320500D03*
X197568000Y-97320500D03*
X196908000Y-97320500D03*
X196258000Y-97320500D03*
D24*
X198919000Y-92547000D03*
X198419000Y-92547000D03*
X197919000Y-92547000D03*
X197419000Y-92547000D03*
X197419000Y-89647000D03*
X197919000Y-89647000D03*
X198419000Y-89647000D03*
X198919000Y-89647000D03*
D25*
X198169000Y-91097000D03*
D26*
X171350000Y-100910000D03*
X171350000Y-100410000D03*
X171350000Y-99910000D03*
X171350000Y-99410000D03*
X174250000Y-99410000D03*
X174250000Y-99910000D03*
X174250000Y-100410000D03*
X174250000Y-100910000D03*
D27*
X172800000Y-100160000D03*
D28*
G36*
X118662626Y-106825301D02*
G01*
X118668693Y-106826201D01*
X118674643Y-106827691D01*
X118680418Y-106829758D01*
X118685962Y-106832380D01*
X118691223Y-106835533D01*
X118696150Y-106839187D01*
X118700694Y-106843306D01*
X118704813Y-106847850D01*
X118708467Y-106852777D01*
X118711620Y-106858038D01*
X118714242Y-106863582D01*
X118716309Y-106869357D01*
X118717799Y-106875307D01*
X118718699Y-106881374D01*
X118719000Y-106887500D01*
X118719000Y-107012500D01*
X118718699Y-107018626D01*
X118717799Y-107024693D01*
X118716309Y-107030643D01*
X118714242Y-107036418D01*
X118711620Y-107041962D01*
X118708467Y-107047223D01*
X118704813Y-107052150D01*
X118700694Y-107056694D01*
X118696150Y-107060813D01*
X118691223Y-107064467D01*
X118685962Y-107067620D01*
X118680418Y-107070242D01*
X118674643Y-107072309D01*
X118668693Y-107073799D01*
X118662626Y-107074699D01*
X118656500Y-107075000D01*
X117956500Y-107075000D01*
X117950374Y-107074699D01*
X117944307Y-107073799D01*
X117938357Y-107072309D01*
X117932582Y-107070242D01*
X117927038Y-107067620D01*
X117921777Y-107064467D01*
X117916850Y-107060813D01*
X117912306Y-107056694D01*
X117908187Y-107052150D01*
X117904533Y-107047223D01*
X117901380Y-107041962D01*
X117898758Y-107036418D01*
X117896691Y-107030643D01*
X117895201Y-107024693D01*
X117894301Y-107018626D01*
X117894000Y-107012500D01*
X117894000Y-106887500D01*
X117894301Y-106881374D01*
X117895201Y-106875307D01*
X117896691Y-106869357D01*
X117898758Y-106863582D01*
X117901380Y-106858038D01*
X117904533Y-106852777D01*
X117908187Y-106847850D01*
X117912306Y-106843306D01*
X117916850Y-106839187D01*
X117921777Y-106835533D01*
X117927038Y-106832380D01*
X117932582Y-106829758D01*
X117938357Y-106827691D01*
X117944307Y-106826201D01*
X117950374Y-106825301D01*
X117956500Y-106825000D01*
X118656500Y-106825000D01*
X118662626Y-106825301D01*
X118662626Y-106825301D01*
G37*
D29*
X118306500Y-106950000D03*
D28*
G36*
X118662626Y-107325301D02*
G01*
X118668693Y-107326201D01*
X118674643Y-107327691D01*
X118680418Y-107329758D01*
X118685962Y-107332380D01*
X118691223Y-107335533D01*
X118696150Y-107339187D01*
X118700694Y-107343306D01*
X118704813Y-107347850D01*
X118708467Y-107352777D01*
X118711620Y-107358038D01*
X118714242Y-107363582D01*
X118716309Y-107369357D01*
X118717799Y-107375307D01*
X118718699Y-107381374D01*
X118719000Y-107387500D01*
X118719000Y-107512500D01*
X118718699Y-107518626D01*
X118717799Y-107524693D01*
X118716309Y-107530643D01*
X118714242Y-107536418D01*
X118711620Y-107541962D01*
X118708467Y-107547223D01*
X118704813Y-107552150D01*
X118700694Y-107556694D01*
X118696150Y-107560813D01*
X118691223Y-107564467D01*
X118685962Y-107567620D01*
X118680418Y-107570242D01*
X118674643Y-107572309D01*
X118668693Y-107573799D01*
X118662626Y-107574699D01*
X118656500Y-107575000D01*
X117956500Y-107575000D01*
X117950374Y-107574699D01*
X117944307Y-107573799D01*
X117938357Y-107572309D01*
X117932582Y-107570242D01*
X117927038Y-107567620D01*
X117921777Y-107564467D01*
X117916850Y-107560813D01*
X117912306Y-107556694D01*
X117908187Y-107552150D01*
X117904533Y-107547223D01*
X117901380Y-107541962D01*
X117898758Y-107536418D01*
X117896691Y-107530643D01*
X117895201Y-107524693D01*
X117894301Y-107518626D01*
X117894000Y-107512500D01*
X117894000Y-107387500D01*
X117894301Y-107381374D01*
X117895201Y-107375307D01*
X117896691Y-107369357D01*
X117898758Y-107363582D01*
X117901380Y-107358038D01*
X117904533Y-107352777D01*
X117908187Y-107347850D01*
X117912306Y-107343306D01*
X117916850Y-107339187D01*
X117921777Y-107335533D01*
X117927038Y-107332380D01*
X117932582Y-107329758D01*
X117938357Y-107327691D01*
X117944307Y-107326201D01*
X117950374Y-107325301D01*
X117956500Y-107325000D01*
X118656500Y-107325000D01*
X118662626Y-107325301D01*
X118662626Y-107325301D01*
G37*
D29*
X118306500Y-107450000D03*
D28*
G36*
X118662626Y-107825301D02*
G01*
X118668693Y-107826201D01*
X118674643Y-107827691D01*
X118680418Y-107829758D01*
X118685962Y-107832380D01*
X118691223Y-107835533D01*
X118696150Y-107839187D01*
X118700694Y-107843306D01*
X118704813Y-107847850D01*
X118708467Y-107852777D01*
X118711620Y-107858038D01*
X118714242Y-107863582D01*
X118716309Y-107869357D01*
X118717799Y-107875307D01*
X118718699Y-107881374D01*
X118719000Y-107887500D01*
X118719000Y-108012500D01*
X118718699Y-108018626D01*
X118717799Y-108024693D01*
X118716309Y-108030643D01*
X118714242Y-108036418D01*
X118711620Y-108041962D01*
X118708467Y-108047223D01*
X118704813Y-108052150D01*
X118700694Y-108056694D01*
X118696150Y-108060813D01*
X118691223Y-108064467D01*
X118685962Y-108067620D01*
X118680418Y-108070242D01*
X118674643Y-108072309D01*
X118668693Y-108073799D01*
X118662626Y-108074699D01*
X118656500Y-108075000D01*
X117956500Y-108075000D01*
X117950374Y-108074699D01*
X117944307Y-108073799D01*
X117938357Y-108072309D01*
X117932582Y-108070242D01*
X117927038Y-108067620D01*
X117921777Y-108064467D01*
X117916850Y-108060813D01*
X117912306Y-108056694D01*
X117908187Y-108052150D01*
X117904533Y-108047223D01*
X117901380Y-108041962D01*
X117898758Y-108036418D01*
X117896691Y-108030643D01*
X117895201Y-108024693D01*
X117894301Y-108018626D01*
X117894000Y-108012500D01*
X117894000Y-107887500D01*
X117894301Y-107881374D01*
X117895201Y-107875307D01*
X117896691Y-107869357D01*
X117898758Y-107863582D01*
X117901380Y-107858038D01*
X117904533Y-107852777D01*
X117908187Y-107847850D01*
X117912306Y-107843306D01*
X117916850Y-107839187D01*
X117921777Y-107835533D01*
X117927038Y-107832380D01*
X117932582Y-107829758D01*
X117938357Y-107827691D01*
X117944307Y-107826201D01*
X117950374Y-107825301D01*
X117956500Y-107825000D01*
X118656500Y-107825000D01*
X118662626Y-107825301D01*
X118662626Y-107825301D01*
G37*
D29*
X118306500Y-107950000D03*
D28*
G36*
X118662626Y-108325301D02*
G01*
X118668693Y-108326201D01*
X118674643Y-108327691D01*
X118680418Y-108329758D01*
X118685962Y-108332380D01*
X118691223Y-108335533D01*
X118696150Y-108339187D01*
X118700694Y-108343306D01*
X118704813Y-108347850D01*
X118708467Y-108352777D01*
X118711620Y-108358038D01*
X118714242Y-108363582D01*
X118716309Y-108369357D01*
X118717799Y-108375307D01*
X118718699Y-108381374D01*
X118719000Y-108387500D01*
X118719000Y-108512500D01*
X118718699Y-108518626D01*
X118717799Y-108524693D01*
X118716309Y-108530643D01*
X118714242Y-108536418D01*
X118711620Y-108541962D01*
X118708467Y-108547223D01*
X118704813Y-108552150D01*
X118700694Y-108556694D01*
X118696150Y-108560813D01*
X118691223Y-108564467D01*
X118685962Y-108567620D01*
X118680418Y-108570242D01*
X118674643Y-108572309D01*
X118668693Y-108573799D01*
X118662626Y-108574699D01*
X118656500Y-108575000D01*
X117956500Y-108575000D01*
X117950374Y-108574699D01*
X117944307Y-108573799D01*
X117938357Y-108572309D01*
X117932582Y-108570242D01*
X117927038Y-108567620D01*
X117921777Y-108564467D01*
X117916850Y-108560813D01*
X117912306Y-108556694D01*
X117908187Y-108552150D01*
X117904533Y-108547223D01*
X117901380Y-108541962D01*
X117898758Y-108536418D01*
X117896691Y-108530643D01*
X117895201Y-108524693D01*
X117894301Y-108518626D01*
X117894000Y-108512500D01*
X117894000Y-108387500D01*
X117894301Y-108381374D01*
X117895201Y-108375307D01*
X117896691Y-108369357D01*
X117898758Y-108363582D01*
X117901380Y-108358038D01*
X117904533Y-108352777D01*
X117908187Y-108347850D01*
X117912306Y-108343306D01*
X117916850Y-108339187D01*
X117921777Y-108335533D01*
X117927038Y-108332380D01*
X117932582Y-108329758D01*
X117938357Y-108327691D01*
X117944307Y-108326201D01*
X117950374Y-108325301D01*
X117956500Y-108325000D01*
X118656500Y-108325000D01*
X118662626Y-108325301D01*
X118662626Y-108325301D01*
G37*
D29*
X118306500Y-108450000D03*
D28*
G36*
X118662626Y-108825301D02*
G01*
X118668693Y-108826201D01*
X118674643Y-108827691D01*
X118680418Y-108829758D01*
X118685962Y-108832380D01*
X118691223Y-108835533D01*
X118696150Y-108839187D01*
X118700694Y-108843306D01*
X118704813Y-108847850D01*
X118708467Y-108852777D01*
X118711620Y-108858038D01*
X118714242Y-108863582D01*
X118716309Y-108869357D01*
X118717799Y-108875307D01*
X118718699Y-108881374D01*
X118719000Y-108887500D01*
X118719000Y-109012500D01*
X118718699Y-109018626D01*
X118717799Y-109024693D01*
X118716309Y-109030643D01*
X118714242Y-109036418D01*
X118711620Y-109041962D01*
X118708467Y-109047223D01*
X118704813Y-109052150D01*
X118700694Y-109056694D01*
X118696150Y-109060813D01*
X118691223Y-109064467D01*
X118685962Y-109067620D01*
X118680418Y-109070242D01*
X118674643Y-109072309D01*
X118668693Y-109073799D01*
X118662626Y-109074699D01*
X118656500Y-109075000D01*
X117956500Y-109075000D01*
X117950374Y-109074699D01*
X117944307Y-109073799D01*
X117938357Y-109072309D01*
X117932582Y-109070242D01*
X117927038Y-109067620D01*
X117921777Y-109064467D01*
X117916850Y-109060813D01*
X117912306Y-109056694D01*
X117908187Y-109052150D01*
X117904533Y-109047223D01*
X117901380Y-109041962D01*
X117898758Y-109036418D01*
X117896691Y-109030643D01*
X117895201Y-109024693D01*
X117894301Y-109018626D01*
X117894000Y-109012500D01*
X117894000Y-108887500D01*
X117894301Y-108881374D01*
X117895201Y-108875307D01*
X117896691Y-108869357D01*
X117898758Y-108863582D01*
X117901380Y-108858038D01*
X117904533Y-108852777D01*
X117908187Y-108847850D01*
X117912306Y-108843306D01*
X117916850Y-108839187D01*
X117921777Y-108835533D01*
X117927038Y-108832380D01*
X117932582Y-108829758D01*
X117938357Y-108827691D01*
X117944307Y-108826201D01*
X117950374Y-108825301D01*
X117956500Y-108825000D01*
X118656500Y-108825000D01*
X118662626Y-108825301D01*
X118662626Y-108825301D01*
G37*
D29*
X118306500Y-108950000D03*
D28*
G36*
X116237626Y-108825301D02*
G01*
X116243693Y-108826201D01*
X116249643Y-108827691D01*
X116255418Y-108829758D01*
X116260962Y-108832380D01*
X116266223Y-108835533D01*
X116271150Y-108839187D01*
X116275694Y-108843306D01*
X116279813Y-108847850D01*
X116283467Y-108852777D01*
X116286620Y-108858038D01*
X116289242Y-108863582D01*
X116291309Y-108869357D01*
X116292799Y-108875307D01*
X116293699Y-108881374D01*
X116294000Y-108887500D01*
X116294000Y-109012500D01*
X116293699Y-109018626D01*
X116292799Y-109024693D01*
X116291309Y-109030643D01*
X116289242Y-109036418D01*
X116286620Y-109041962D01*
X116283467Y-109047223D01*
X116279813Y-109052150D01*
X116275694Y-109056694D01*
X116271150Y-109060813D01*
X116266223Y-109064467D01*
X116260962Y-109067620D01*
X116255418Y-109070242D01*
X116249643Y-109072309D01*
X116243693Y-109073799D01*
X116237626Y-109074699D01*
X116231500Y-109075000D01*
X115531500Y-109075000D01*
X115525374Y-109074699D01*
X115519307Y-109073799D01*
X115513357Y-109072309D01*
X115507582Y-109070242D01*
X115502038Y-109067620D01*
X115496777Y-109064467D01*
X115491850Y-109060813D01*
X115487306Y-109056694D01*
X115483187Y-109052150D01*
X115479533Y-109047223D01*
X115476380Y-109041962D01*
X115473758Y-109036418D01*
X115471691Y-109030643D01*
X115470201Y-109024693D01*
X115469301Y-109018626D01*
X115469000Y-109012500D01*
X115469000Y-108887500D01*
X115469301Y-108881374D01*
X115470201Y-108875307D01*
X115471691Y-108869357D01*
X115473758Y-108863582D01*
X115476380Y-108858038D01*
X115479533Y-108852777D01*
X115483187Y-108847850D01*
X115487306Y-108843306D01*
X115491850Y-108839187D01*
X115496777Y-108835533D01*
X115502038Y-108832380D01*
X115507582Y-108829758D01*
X115513357Y-108827691D01*
X115519307Y-108826201D01*
X115525374Y-108825301D01*
X115531500Y-108825000D01*
X116231500Y-108825000D01*
X116237626Y-108825301D01*
X116237626Y-108825301D01*
G37*
D29*
X115881500Y-108950000D03*
D28*
G36*
X116237626Y-108325301D02*
G01*
X116243693Y-108326201D01*
X116249643Y-108327691D01*
X116255418Y-108329758D01*
X116260962Y-108332380D01*
X116266223Y-108335533D01*
X116271150Y-108339187D01*
X116275694Y-108343306D01*
X116279813Y-108347850D01*
X116283467Y-108352777D01*
X116286620Y-108358038D01*
X116289242Y-108363582D01*
X116291309Y-108369357D01*
X116292799Y-108375307D01*
X116293699Y-108381374D01*
X116294000Y-108387500D01*
X116294000Y-108512500D01*
X116293699Y-108518626D01*
X116292799Y-108524693D01*
X116291309Y-108530643D01*
X116289242Y-108536418D01*
X116286620Y-108541962D01*
X116283467Y-108547223D01*
X116279813Y-108552150D01*
X116275694Y-108556694D01*
X116271150Y-108560813D01*
X116266223Y-108564467D01*
X116260962Y-108567620D01*
X116255418Y-108570242D01*
X116249643Y-108572309D01*
X116243693Y-108573799D01*
X116237626Y-108574699D01*
X116231500Y-108575000D01*
X115531500Y-108575000D01*
X115525374Y-108574699D01*
X115519307Y-108573799D01*
X115513357Y-108572309D01*
X115507582Y-108570242D01*
X115502038Y-108567620D01*
X115496777Y-108564467D01*
X115491850Y-108560813D01*
X115487306Y-108556694D01*
X115483187Y-108552150D01*
X115479533Y-108547223D01*
X115476380Y-108541962D01*
X115473758Y-108536418D01*
X115471691Y-108530643D01*
X115470201Y-108524693D01*
X115469301Y-108518626D01*
X115469000Y-108512500D01*
X115469000Y-108387500D01*
X115469301Y-108381374D01*
X115470201Y-108375307D01*
X115471691Y-108369357D01*
X115473758Y-108363582D01*
X115476380Y-108358038D01*
X115479533Y-108352777D01*
X115483187Y-108347850D01*
X115487306Y-108343306D01*
X115491850Y-108339187D01*
X115496777Y-108335533D01*
X115502038Y-108332380D01*
X115507582Y-108329758D01*
X115513357Y-108327691D01*
X115519307Y-108326201D01*
X115525374Y-108325301D01*
X115531500Y-108325000D01*
X116231500Y-108325000D01*
X116237626Y-108325301D01*
X116237626Y-108325301D01*
G37*
D29*
X115881500Y-108450000D03*
D28*
G36*
X116237626Y-107825301D02*
G01*
X116243693Y-107826201D01*
X116249643Y-107827691D01*
X116255418Y-107829758D01*
X116260962Y-107832380D01*
X116266223Y-107835533D01*
X116271150Y-107839187D01*
X116275694Y-107843306D01*
X116279813Y-107847850D01*
X116283467Y-107852777D01*
X116286620Y-107858038D01*
X116289242Y-107863582D01*
X116291309Y-107869357D01*
X116292799Y-107875307D01*
X116293699Y-107881374D01*
X116294000Y-107887500D01*
X116294000Y-108012500D01*
X116293699Y-108018626D01*
X116292799Y-108024693D01*
X116291309Y-108030643D01*
X116289242Y-108036418D01*
X116286620Y-108041962D01*
X116283467Y-108047223D01*
X116279813Y-108052150D01*
X116275694Y-108056694D01*
X116271150Y-108060813D01*
X116266223Y-108064467D01*
X116260962Y-108067620D01*
X116255418Y-108070242D01*
X116249643Y-108072309D01*
X116243693Y-108073799D01*
X116237626Y-108074699D01*
X116231500Y-108075000D01*
X115531500Y-108075000D01*
X115525374Y-108074699D01*
X115519307Y-108073799D01*
X115513357Y-108072309D01*
X115507582Y-108070242D01*
X115502038Y-108067620D01*
X115496777Y-108064467D01*
X115491850Y-108060813D01*
X115487306Y-108056694D01*
X115483187Y-108052150D01*
X115479533Y-108047223D01*
X115476380Y-108041962D01*
X115473758Y-108036418D01*
X115471691Y-108030643D01*
X115470201Y-108024693D01*
X115469301Y-108018626D01*
X115469000Y-108012500D01*
X115469000Y-107887500D01*
X115469301Y-107881374D01*
X115470201Y-107875307D01*
X115471691Y-107869357D01*
X115473758Y-107863582D01*
X115476380Y-107858038D01*
X115479533Y-107852777D01*
X115483187Y-107847850D01*
X115487306Y-107843306D01*
X115491850Y-107839187D01*
X115496777Y-107835533D01*
X115502038Y-107832380D01*
X115507582Y-107829758D01*
X115513357Y-107827691D01*
X115519307Y-107826201D01*
X115525374Y-107825301D01*
X115531500Y-107825000D01*
X116231500Y-107825000D01*
X116237626Y-107825301D01*
X116237626Y-107825301D01*
G37*
D29*
X115881500Y-107950000D03*
D28*
G36*
X116237626Y-107325301D02*
G01*
X116243693Y-107326201D01*
X116249643Y-107327691D01*
X116255418Y-107329758D01*
X116260962Y-107332380D01*
X116266223Y-107335533D01*
X116271150Y-107339187D01*
X116275694Y-107343306D01*
X116279813Y-107347850D01*
X116283467Y-107352777D01*
X116286620Y-107358038D01*
X116289242Y-107363582D01*
X116291309Y-107369357D01*
X116292799Y-107375307D01*
X116293699Y-107381374D01*
X116294000Y-107387500D01*
X116294000Y-107512500D01*
X116293699Y-107518626D01*
X116292799Y-107524693D01*
X116291309Y-107530643D01*
X116289242Y-107536418D01*
X116286620Y-107541962D01*
X116283467Y-107547223D01*
X116279813Y-107552150D01*
X116275694Y-107556694D01*
X116271150Y-107560813D01*
X116266223Y-107564467D01*
X116260962Y-107567620D01*
X116255418Y-107570242D01*
X116249643Y-107572309D01*
X116243693Y-107573799D01*
X116237626Y-107574699D01*
X116231500Y-107575000D01*
X115531500Y-107575000D01*
X115525374Y-107574699D01*
X115519307Y-107573799D01*
X115513357Y-107572309D01*
X115507582Y-107570242D01*
X115502038Y-107567620D01*
X115496777Y-107564467D01*
X115491850Y-107560813D01*
X115487306Y-107556694D01*
X115483187Y-107552150D01*
X115479533Y-107547223D01*
X115476380Y-107541962D01*
X115473758Y-107536418D01*
X115471691Y-107530643D01*
X115470201Y-107524693D01*
X115469301Y-107518626D01*
X115469000Y-107512500D01*
X115469000Y-107387500D01*
X115469301Y-107381374D01*
X115470201Y-107375307D01*
X115471691Y-107369357D01*
X115473758Y-107363582D01*
X115476380Y-107358038D01*
X115479533Y-107352777D01*
X115483187Y-107347850D01*
X115487306Y-107343306D01*
X115491850Y-107339187D01*
X115496777Y-107335533D01*
X115502038Y-107332380D01*
X115507582Y-107329758D01*
X115513357Y-107327691D01*
X115519307Y-107326201D01*
X115525374Y-107325301D01*
X115531500Y-107325000D01*
X116231500Y-107325000D01*
X116237626Y-107325301D01*
X116237626Y-107325301D01*
G37*
D29*
X115881500Y-107450000D03*
D28*
G36*
X116237626Y-106825301D02*
G01*
X116243693Y-106826201D01*
X116249643Y-106827691D01*
X116255418Y-106829758D01*
X116260962Y-106832380D01*
X116266223Y-106835533D01*
X116271150Y-106839187D01*
X116275694Y-106843306D01*
X116279813Y-106847850D01*
X116283467Y-106852777D01*
X116286620Y-106858038D01*
X116289242Y-106863582D01*
X116291309Y-106869357D01*
X116292799Y-106875307D01*
X116293699Y-106881374D01*
X116294000Y-106887500D01*
X116294000Y-107012500D01*
X116293699Y-107018626D01*
X116292799Y-107024693D01*
X116291309Y-107030643D01*
X116289242Y-107036418D01*
X116286620Y-107041962D01*
X116283467Y-107047223D01*
X116279813Y-107052150D01*
X116275694Y-107056694D01*
X116271150Y-107060813D01*
X116266223Y-107064467D01*
X116260962Y-107067620D01*
X116255418Y-107070242D01*
X116249643Y-107072309D01*
X116243693Y-107073799D01*
X116237626Y-107074699D01*
X116231500Y-107075000D01*
X115531500Y-107075000D01*
X115525374Y-107074699D01*
X115519307Y-107073799D01*
X115513357Y-107072309D01*
X115507582Y-107070242D01*
X115502038Y-107067620D01*
X115496777Y-107064467D01*
X115491850Y-107060813D01*
X115487306Y-107056694D01*
X115483187Y-107052150D01*
X115479533Y-107047223D01*
X115476380Y-107041962D01*
X115473758Y-107036418D01*
X115471691Y-107030643D01*
X115470201Y-107024693D01*
X115469301Y-107018626D01*
X115469000Y-107012500D01*
X115469000Y-106887500D01*
X115469301Y-106881374D01*
X115470201Y-106875307D01*
X115471691Y-106869357D01*
X115473758Y-106863582D01*
X115476380Y-106858038D01*
X115479533Y-106852777D01*
X115483187Y-106847850D01*
X115487306Y-106843306D01*
X115491850Y-106839187D01*
X115496777Y-106835533D01*
X115502038Y-106832380D01*
X115507582Y-106829758D01*
X115513357Y-106827691D01*
X115519307Y-106826201D01*
X115525374Y-106825301D01*
X115531500Y-106825000D01*
X116231500Y-106825000D01*
X116237626Y-106825301D01*
X116237626Y-106825301D01*
G37*
D29*
X115881500Y-106950000D03*
D30*
X117094000Y-107950000D03*
D31*
X155258000Y-109644000D03*
X156208000Y-109644000D03*
X154308000Y-109644000D03*
X154308000Y-111844000D03*
X155258000Y-111844000D03*
X156208000Y-111844000D03*
X157988000Y-105240000D03*
X157038000Y-105240000D03*
X158938000Y-105240000D03*
X158938000Y-103040000D03*
X157988000Y-103040000D03*
X157038000Y-103040000D03*
D32*
X137518000Y-107102000D03*
X137518000Y-107752000D03*
X137518000Y-108402000D03*
X137518000Y-109052000D03*
X133118000Y-109052000D03*
X133118000Y-108402000D03*
X133118000Y-107752000D03*
X133118000Y-107102000D03*
D28*
G36*
X130846076Y-106772421D02*
G01*
X130854570Y-106773681D01*
X130862900Y-106775768D01*
X130870985Y-106778661D01*
X130878747Y-106782332D01*
X130886112Y-106786746D01*
X130893009Y-106791862D01*
X130899372Y-106797628D01*
X130905138Y-106803991D01*
X130910254Y-106810888D01*
X130914668Y-106818253D01*
X130918339Y-106826015D01*
X130921232Y-106834100D01*
X130923319Y-106842430D01*
X130924579Y-106850924D01*
X130925000Y-106859500D01*
X130925000Y-107034500D01*
X130924579Y-107043076D01*
X130923319Y-107051570D01*
X130921232Y-107059900D01*
X130918339Y-107067985D01*
X130914668Y-107075747D01*
X130910254Y-107083112D01*
X130905138Y-107090009D01*
X130899372Y-107096372D01*
X130893009Y-107102138D01*
X130886112Y-107107254D01*
X130878747Y-107111668D01*
X130870985Y-107115339D01*
X130862900Y-107118232D01*
X130854570Y-107120319D01*
X130846076Y-107121579D01*
X130837500Y-107122000D01*
X130262500Y-107122000D01*
X130253924Y-107121579D01*
X130245430Y-107120319D01*
X130237100Y-107118232D01*
X130229015Y-107115339D01*
X130221253Y-107111668D01*
X130213888Y-107107254D01*
X130206991Y-107102138D01*
X130200628Y-107096372D01*
X130194862Y-107090009D01*
X130189746Y-107083112D01*
X130185332Y-107075747D01*
X130181661Y-107067985D01*
X130178768Y-107059900D01*
X130176681Y-107051570D01*
X130175421Y-107043076D01*
X130175000Y-107034500D01*
X130175000Y-106859500D01*
X130175421Y-106850924D01*
X130176681Y-106842430D01*
X130178768Y-106834100D01*
X130181661Y-106826015D01*
X130185332Y-106818253D01*
X130189746Y-106810888D01*
X130194862Y-106803991D01*
X130200628Y-106797628D01*
X130206991Y-106791862D01*
X130213888Y-106786746D01*
X130221253Y-106782332D01*
X130229015Y-106778661D01*
X130237100Y-106775768D01*
X130245430Y-106773681D01*
X130253924Y-106772421D01*
X130262500Y-106772000D01*
X130837500Y-106772000D01*
X130846076Y-106772421D01*
X130846076Y-106772421D01*
G37*
D33*
X130550000Y-106947000D03*
D28*
G36*
X130846076Y-107572421D02*
G01*
X130854570Y-107573681D01*
X130862900Y-107575768D01*
X130870985Y-107578661D01*
X130878747Y-107582332D01*
X130886112Y-107586746D01*
X130893009Y-107591862D01*
X130899372Y-107597628D01*
X130905138Y-107603991D01*
X130910254Y-107610888D01*
X130914668Y-107618253D01*
X130918339Y-107626015D01*
X130921232Y-107634100D01*
X130923319Y-107642430D01*
X130924579Y-107650924D01*
X130925000Y-107659500D01*
X130925000Y-107834500D01*
X130924579Y-107843076D01*
X130923319Y-107851570D01*
X130921232Y-107859900D01*
X130918339Y-107867985D01*
X130914668Y-107875747D01*
X130910254Y-107883112D01*
X130905138Y-107890009D01*
X130899372Y-107896372D01*
X130893009Y-107902138D01*
X130886112Y-107907254D01*
X130878747Y-107911668D01*
X130870985Y-107915339D01*
X130862900Y-107918232D01*
X130854570Y-107920319D01*
X130846076Y-107921579D01*
X130837500Y-107922000D01*
X130262500Y-107922000D01*
X130253924Y-107921579D01*
X130245430Y-107920319D01*
X130237100Y-107918232D01*
X130229015Y-107915339D01*
X130221253Y-107911668D01*
X130213888Y-107907254D01*
X130206991Y-107902138D01*
X130200628Y-107896372D01*
X130194862Y-107890009D01*
X130189746Y-107883112D01*
X130185332Y-107875747D01*
X130181661Y-107867985D01*
X130178768Y-107859900D01*
X130176681Y-107851570D01*
X130175421Y-107843076D01*
X130175000Y-107834500D01*
X130175000Y-107659500D01*
X130175421Y-107650924D01*
X130176681Y-107642430D01*
X130178768Y-107634100D01*
X130181661Y-107626015D01*
X130185332Y-107618253D01*
X130189746Y-107610888D01*
X130194862Y-107603991D01*
X130200628Y-107597628D01*
X130206991Y-107591862D01*
X130213888Y-107586746D01*
X130221253Y-107582332D01*
X130229015Y-107578661D01*
X130237100Y-107575768D01*
X130245430Y-107573681D01*
X130253924Y-107572421D01*
X130262500Y-107572000D01*
X130837500Y-107572000D01*
X130846076Y-107572421D01*
X130846076Y-107572421D01*
G37*
D33*
X130550000Y-107747000D03*
D28*
G36*
X130846076Y-108372421D02*
G01*
X130854570Y-108373681D01*
X130862900Y-108375768D01*
X130870985Y-108378661D01*
X130878747Y-108382332D01*
X130886112Y-108386746D01*
X130893009Y-108391862D01*
X130899372Y-108397628D01*
X130905138Y-108403991D01*
X130910254Y-108410888D01*
X130914668Y-108418253D01*
X130918339Y-108426015D01*
X130921232Y-108434100D01*
X130923319Y-108442430D01*
X130924579Y-108450924D01*
X130925000Y-108459500D01*
X130925000Y-108634500D01*
X130924579Y-108643076D01*
X130923319Y-108651570D01*
X130921232Y-108659900D01*
X130918339Y-108667985D01*
X130914668Y-108675747D01*
X130910254Y-108683112D01*
X130905138Y-108690009D01*
X130899372Y-108696372D01*
X130893009Y-108702138D01*
X130886112Y-108707254D01*
X130878747Y-108711668D01*
X130870985Y-108715339D01*
X130862900Y-108718232D01*
X130854570Y-108720319D01*
X130846076Y-108721579D01*
X130837500Y-108722000D01*
X130262500Y-108722000D01*
X130253924Y-108721579D01*
X130245430Y-108720319D01*
X130237100Y-108718232D01*
X130229015Y-108715339D01*
X130221253Y-108711668D01*
X130213888Y-108707254D01*
X130206991Y-108702138D01*
X130200628Y-108696372D01*
X130194862Y-108690009D01*
X130189746Y-108683112D01*
X130185332Y-108675747D01*
X130181661Y-108667985D01*
X130178768Y-108659900D01*
X130176681Y-108651570D01*
X130175421Y-108643076D01*
X130175000Y-108634500D01*
X130175000Y-108459500D01*
X130175421Y-108450924D01*
X130176681Y-108442430D01*
X130178768Y-108434100D01*
X130181661Y-108426015D01*
X130185332Y-108418253D01*
X130189746Y-108410888D01*
X130194862Y-108403991D01*
X130200628Y-108397628D01*
X130206991Y-108391862D01*
X130213888Y-108386746D01*
X130221253Y-108382332D01*
X130229015Y-108378661D01*
X130237100Y-108375768D01*
X130245430Y-108373681D01*
X130253924Y-108372421D01*
X130262500Y-108372000D01*
X130837500Y-108372000D01*
X130846076Y-108372421D01*
X130846076Y-108372421D01*
G37*
D33*
X130550000Y-108547000D03*
D28*
G36*
X130846076Y-109172421D02*
G01*
X130854570Y-109173681D01*
X130862900Y-109175768D01*
X130870985Y-109178661D01*
X130878747Y-109182332D01*
X130886112Y-109186746D01*
X130893009Y-109191862D01*
X130899372Y-109197628D01*
X130905138Y-109203991D01*
X130910254Y-109210888D01*
X130914668Y-109218253D01*
X130918339Y-109226015D01*
X130921232Y-109234100D01*
X130923319Y-109242430D01*
X130924579Y-109250924D01*
X130925000Y-109259500D01*
X130925000Y-109434500D01*
X130924579Y-109443076D01*
X130923319Y-109451570D01*
X130921232Y-109459900D01*
X130918339Y-109467985D01*
X130914668Y-109475747D01*
X130910254Y-109483112D01*
X130905138Y-109490009D01*
X130899372Y-109496372D01*
X130893009Y-109502138D01*
X130886112Y-109507254D01*
X130878747Y-109511668D01*
X130870985Y-109515339D01*
X130862900Y-109518232D01*
X130854570Y-109520319D01*
X130846076Y-109521579D01*
X130837500Y-109522000D01*
X130262500Y-109522000D01*
X130253924Y-109521579D01*
X130245430Y-109520319D01*
X130237100Y-109518232D01*
X130229015Y-109515339D01*
X130221253Y-109511668D01*
X130213888Y-109507254D01*
X130206991Y-109502138D01*
X130200628Y-109496372D01*
X130194862Y-109490009D01*
X130189746Y-109483112D01*
X130185332Y-109475747D01*
X130181661Y-109467985D01*
X130178768Y-109459900D01*
X130176681Y-109451570D01*
X130175421Y-109443076D01*
X130175000Y-109434500D01*
X130175000Y-109259500D01*
X130175421Y-109250924D01*
X130176681Y-109242430D01*
X130178768Y-109234100D01*
X130181661Y-109226015D01*
X130185332Y-109218253D01*
X130189746Y-109210888D01*
X130194862Y-109203991D01*
X130200628Y-109197628D01*
X130206991Y-109191862D01*
X130213888Y-109186746D01*
X130221253Y-109182332D01*
X130229015Y-109178661D01*
X130237100Y-109175768D01*
X130245430Y-109173681D01*
X130253924Y-109172421D01*
X130262500Y-109172000D01*
X130837500Y-109172000D01*
X130846076Y-109172421D01*
X130846076Y-109172421D01*
G37*
D33*
X130550000Y-109347000D03*
D28*
G36*
X130846076Y-109972421D02*
G01*
X130854570Y-109973681D01*
X130862900Y-109975768D01*
X130870985Y-109978661D01*
X130878747Y-109982332D01*
X130886112Y-109986746D01*
X130893009Y-109991862D01*
X130899372Y-109997628D01*
X130905138Y-110003991D01*
X130910254Y-110010888D01*
X130914668Y-110018253D01*
X130918339Y-110026015D01*
X130921232Y-110034100D01*
X130923319Y-110042430D01*
X130924579Y-110050924D01*
X130925000Y-110059500D01*
X130925000Y-110234500D01*
X130924579Y-110243076D01*
X130923319Y-110251570D01*
X130921232Y-110259900D01*
X130918339Y-110267985D01*
X130914668Y-110275747D01*
X130910254Y-110283112D01*
X130905138Y-110290009D01*
X130899372Y-110296372D01*
X130893009Y-110302138D01*
X130886112Y-110307254D01*
X130878747Y-110311668D01*
X130870985Y-110315339D01*
X130862900Y-110318232D01*
X130854570Y-110320319D01*
X130846076Y-110321579D01*
X130837500Y-110322000D01*
X130262500Y-110322000D01*
X130253924Y-110321579D01*
X130245430Y-110320319D01*
X130237100Y-110318232D01*
X130229015Y-110315339D01*
X130221253Y-110311668D01*
X130213888Y-110307254D01*
X130206991Y-110302138D01*
X130200628Y-110296372D01*
X130194862Y-110290009D01*
X130189746Y-110283112D01*
X130185332Y-110275747D01*
X130181661Y-110267985D01*
X130178768Y-110259900D01*
X130176681Y-110251570D01*
X130175421Y-110243076D01*
X130175000Y-110234500D01*
X130175000Y-110059500D01*
X130175421Y-110050924D01*
X130176681Y-110042430D01*
X130178768Y-110034100D01*
X130181661Y-110026015D01*
X130185332Y-110018253D01*
X130189746Y-110010888D01*
X130194862Y-110003991D01*
X130200628Y-109997628D01*
X130206991Y-109991862D01*
X130213888Y-109986746D01*
X130221253Y-109982332D01*
X130229015Y-109978661D01*
X130237100Y-109975768D01*
X130245430Y-109973681D01*
X130253924Y-109972421D01*
X130262500Y-109972000D01*
X130837500Y-109972000D01*
X130846076Y-109972421D01*
X130846076Y-109972421D01*
G37*
D33*
X130550000Y-110147000D03*
D28*
G36*
X130846076Y-110772421D02*
G01*
X130854570Y-110773681D01*
X130862900Y-110775768D01*
X130870985Y-110778661D01*
X130878747Y-110782332D01*
X130886112Y-110786746D01*
X130893009Y-110791862D01*
X130899372Y-110797628D01*
X130905138Y-110803991D01*
X130910254Y-110810888D01*
X130914668Y-110818253D01*
X130918339Y-110826015D01*
X130921232Y-110834100D01*
X130923319Y-110842430D01*
X130924579Y-110850924D01*
X130925000Y-110859500D01*
X130925000Y-111034500D01*
X130924579Y-111043076D01*
X130923319Y-111051570D01*
X130921232Y-111059900D01*
X130918339Y-111067985D01*
X130914668Y-111075747D01*
X130910254Y-111083112D01*
X130905138Y-111090009D01*
X130899372Y-111096372D01*
X130893009Y-111102138D01*
X130886112Y-111107254D01*
X130878747Y-111111668D01*
X130870985Y-111115339D01*
X130862900Y-111118232D01*
X130854570Y-111120319D01*
X130846076Y-111121579D01*
X130837500Y-111122000D01*
X130262500Y-111122000D01*
X130253924Y-111121579D01*
X130245430Y-111120319D01*
X130237100Y-111118232D01*
X130229015Y-111115339D01*
X130221253Y-111111668D01*
X130213888Y-111107254D01*
X130206991Y-111102138D01*
X130200628Y-111096372D01*
X130194862Y-111090009D01*
X130189746Y-111083112D01*
X130185332Y-111075747D01*
X130181661Y-111067985D01*
X130178768Y-111059900D01*
X130176681Y-111051570D01*
X130175421Y-111043076D01*
X130175000Y-111034500D01*
X130175000Y-110859500D01*
X130175421Y-110850924D01*
X130176681Y-110842430D01*
X130178768Y-110834100D01*
X130181661Y-110826015D01*
X130185332Y-110818253D01*
X130189746Y-110810888D01*
X130194862Y-110803991D01*
X130200628Y-110797628D01*
X130206991Y-110791862D01*
X130213888Y-110786746D01*
X130221253Y-110782332D01*
X130229015Y-110778661D01*
X130237100Y-110775768D01*
X130245430Y-110773681D01*
X130253924Y-110772421D01*
X130262500Y-110772000D01*
X130837500Y-110772000D01*
X130846076Y-110772421D01*
X130846076Y-110772421D01*
G37*
D33*
X130550000Y-110947000D03*
D28*
G36*
X130846076Y-111572421D02*
G01*
X130854570Y-111573681D01*
X130862900Y-111575768D01*
X130870985Y-111578661D01*
X130878747Y-111582332D01*
X130886112Y-111586746D01*
X130893009Y-111591862D01*
X130899372Y-111597628D01*
X130905138Y-111603991D01*
X130910254Y-111610888D01*
X130914668Y-111618253D01*
X130918339Y-111626015D01*
X130921232Y-111634100D01*
X130923319Y-111642430D01*
X130924579Y-111650924D01*
X130925000Y-111659500D01*
X130925000Y-111834500D01*
X130924579Y-111843076D01*
X130923319Y-111851570D01*
X130921232Y-111859900D01*
X130918339Y-111867985D01*
X130914668Y-111875747D01*
X130910254Y-111883112D01*
X130905138Y-111890009D01*
X130899372Y-111896372D01*
X130893009Y-111902138D01*
X130886112Y-111907254D01*
X130878747Y-111911668D01*
X130870985Y-111915339D01*
X130862900Y-111918232D01*
X130854570Y-111920319D01*
X130846076Y-111921579D01*
X130837500Y-111922000D01*
X130262500Y-111922000D01*
X130253924Y-111921579D01*
X130245430Y-111920319D01*
X130237100Y-111918232D01*
X130229015Y-111915339D01*
X130221253Y-111911668D01*
X130213888Y-111907254D01*
X130206991Y-111902138D01*
X130200628Y-111896372D01*
X130194862Y-111890009D01*
X130189746Y-111883112D01*
X130185332Y-111875747D01*
X130181661Y-111867985D01*
X130178768Y-111859900D01*
X130176681Y-111851570D01*
X130175421Y-111843076D01*
X130175000Y-111834500D01*
X130175000Y-111659500D01*
X130175421Y-111650924D01*
X130176681Y-111642430D01*
X130178768Y-111634100D01*
X130181661Y-111626015D01*
X130185332Y-111618253D01*
X130189746Y-111610888D01*
X130194862Y-111603991D01*
X130200628Y-111597628D01*
X130206991Y-111591862D01*
X130213888Y-111586746D01*
X130221253Y-111582332D01*
X130229015Y-111578661D01*
X130237100Y-111575768D01*
X130245430Y-111573681D01*
X130253924Y-111572421D01*
X130262500Y-111572000D01*
X130837500Y-111572000D01*
X130846076Y-111572421D01*
X130846076Y-111572421D01*
G37*
D33*
X130550000Y-111747000D03*
D28*
G36*
X128446076Y-111572421D02*
G01*
X128454570Y-111573681D01*
X128462900Y-111575768D01*
X128470985Y-111578661D01*
X128478747Y-111582332D01*
X128486112Y-111586746D01*
X128493009Y-111591862D01*
X128499372Y-111597628D01*
X128505138Y-111603991D01*
X128510254Y-111610888D01*
X128514668Y-111618253D01*
X128518339Y-111626015D01*
X128521232Y-111634100D01*
X128523319Y-111642430D01*
X128524579Y-111650924D01*
X128525000Y-111659500D01*
X128525000Y-111834500D01*
X128524579Y-111843076D01*
X128523319Y-111851570D01*
X128521232Y-111859900D01*
X128518339Y-111867985D01*
X128514668Y-111875747D01*
X128510254Y-111883112D01*
X128505138Y-111890009D01*
X128499372Y-111896372D01*
X128493009Y-111902138D01*
X128486112Y-111907254D01*
X128478747Y-111911668D01*
X128470985Y-111915339D01*
X128462900Y-111918232D01*
X128454570Y-111920319D01*
X128446076Y-111921579D01*
X128437500Y-111922000D01*
X127862500Y-111922000D01*
X127853924Y-111921579D01*
X127845430Y-111920319D01*
X127837100Y-111918232D01*
X127829015Y-111915339D01*
X127821253Y-111911668D01*
X127813888Y-111907254D01*
X127806991Y-111902138D01*
X127800628Y-111896372D01*
X127794862Y-111890009D01*
X127789746Y-111883112D01*
X127785332Y-111875747D01*
X127781661Y-111867985D01*
X127778768Y-111859900D01*
X127776681Y-111851570D01*
X127775421Y-111843076D01*
X127775000Y-111834500D01*
X127775000Y-111659500D01*
X127775421Y-111650924D01*
X127776681Y-111642430D01*
X127778768Y-111634100D01*
X127781661Y-111626015D01*
X127785332Y-111618253D01*
X127789746Y-111610888D01*
X127794862Y-111603991D01*
X127800628Y-111597628D01*
X127806991Y-111591862D01*
X127813888Y-111586746D01*
X127821253Y-111582332D01*
X127829015Y-111578661D01*
X127837100Y-111575768D01*
X127845430Y-111573681D01*
X127853924Y-111572421D01*
X127862500Y-111572000D01*
X128437500Y-111572000D01*
X128446076Y-111572421D01*
X128446076Y-111572421D01*
G37*
D33*
X128150000Y-111747000D03*
D28*
G36*
X128446076Y-110772421D02*
G01*
X128454570Y-110773681D01*
X128462900Y-110775768D01*
X128470985Y-110778661D01*
X128478747Y-110782332D01*
X128486112Y-110786746D01*
X128493009Y-110791862D01*
X128499372Y-110797628D01*
X128505138Y-110803991D01*
X128510254Y-110810888D01*
X128514668Y-110818253D01*
X128518339Y-110826015D01*
X128521232Y-110834100D01*
X128523319Y-110842430D01*
X128524579Y-110850924D01*
X128525000Y-110859500D01*
X128525000Y-111034500D01*
X128524579Y-111043076D01*
X128523319Y-111051570D01*
X128521232Y-111059900D01*
X128518339Y-111067985D01*
X128514668Y-111075747D01*
X128510254Y-111083112D01*
X128505138Y-111090009D01*
X128499372Y-111096372D01*
X128493009Y-111102138D01*
X128486112Y-111107254D01*
X128478747Y-111111668D01*
X128470985Y-111115339D01*
X128462900Y-111118232D01*
X128454570Y-111120319D01*
X128446076Y-111121579D01*
X128437500Y-111122000D01*
X127862500Y-111122000D01*
X127853924Y-111121579D01*
X127845430Y-111120319D01*
X127837100Y-111118232D01*
X127829015Y-111115339D01*
X127821253Y-111111668D01*
X127813888Y-111107254D01*
X127806991Y-111102138D01*
X127800628Y-111096372D01*
X127794862Y-111090009D01*
X127789746Y-111083112D01*
X127785332Y-111075747D01*
X127781661Y-111067985D01*
X127778768Y-111059900D01*
X127776681Y-111051570D01*
X127775421Y-111043076D01*
X127775000Y-111034500D01*
X127775000Y-110859500D01*
X127775421Y-110850924D01*
X127776681Y-110842430D01*
X127778768Y-110834100D01*
X127781661Y-110826015D01*
X127785332Y-110818253D01*
X127789746Y-110810888D01*
X127794862Y-110803991D01*
X127800628Y-110797628D01*
X127806991Y-110791862D01*
X127813888Y-110786746D01*
X127821253Y-110782332D01*
X127829015Y-110778661D01*
X127837100Y-110775768D01*
X127845430Y-110773681D01*
X127853924Y-110772421D01*
X127862500Y-110772000D01*
X128437500Y-110772000D01*
X128446076Y-110772421D01*
X128446076Y-110772421D01*
G37*
D33*
X128150000Y-110947000D03*
D28*
G36*
X128446076Y-109972421D02*
G01*
X128454570Y-109973681D01*
X128462900Y-109975768D01*
X128470985Y-109978661D01*
X128478747Y-109982332D01*
X128486112Y-109986746D01*
X128493009Y-109991862D01*
X128499372Y-109997628D01*
X128505138Y-110003991D01*
X128510254Y-110010888D01*
X128514668Y-110018253D01*
X128518339Y-110026015D01*
X128521232Y-110034100D01*
X128523319Y-110042430D01*
X128524579Y-110050924D01*
X128525000Y-110059500D01*
X128525000Y-110234500D01*
X128524579Y-110243076D01*
X128523319Y-110251570D01*
X128521232Y-110259900D01*
X128518339Y-110267985D01*
X128514668Y-110275747D01*
X128510254Y-110283112D01*
X128505138Y-110290009D01*
X128499372Y-110296372D01*
X128493009Y-110302138D01*
X128486112Y-110307254D01*
X128478747Y-110311668D01*
X128470985Y-110315339D01*
X128462900Y-110318232D01*
X128454570Y-110320319D01*
X128446076Y-110321579D01*
X128437500Y-110322000D01*
X127862500Y-110322000D01*
X127853924Y-110321579D01*
X127845430Y-110320319D01*
X127837100Y-110318232D01*
X127829015Y-110315339D01*
X127821253Y-110311668D01*
X127813888Y-110307254D01*
X127806991Y-110302138D01*
X127800628Y-110296372D01*
X127794862Y-110290009D01*
X127789746Y-110283112D01*
X127785332Y-110275747D01*
X127781661Y-110267985D01*
X127778768Y-110259900D01*
X127776681Y-110251570D01*
X127775421Y-110243076D01*
X127775000Y-110234500D01*
X127775000Y-110059500D01*
X127775421Y-110050924D01*
X127776681Y-110042430D01*
X127778768Y-110034100D01*
X127781661Y-110026015D01*
X127785332Y-110018253D01*
X127789746Y-110010888D01*
X127794862Y-110003991D01*
X127800628Y-109997628D01*
X127806991Y-109991862D01*
X127813888Y-109986746D01*
X127821253Y-109982332D01*
X127829015Y-109978661D01*
X127837100Y-109975768D01*
X127845430Y-109973681D01*
X127853924Y-109972421D01*
X127862500Y-109972000D01*
X128437500Y-109972000D01*
X128446076Y-109972421D01*
X128446076Y-109972421D01*
G37*
D33*
X128150000Y-110147000D03*
D28*
G36*
X128446076Y-109172421D02*
G01*
X128454570Y-109173681D01*
X128462900Y-109175768D01*
X128470985Y-109178661D01*
X128478747Y-109182332D01*
X128486112Y-109186746D01*
X128493009Y-109191862D01*
X128499372Y-109197628D01*
X128505138Y-109203991D01*
X128510254Y-109210888D01*
X128514668Y-109218253D01*
X128518339Y-109226015D01*
X128521232Y-109234100D01*
X128523319Y-109242430D01*
X128524579Y-109250924D01*
X128525000Y-109259500D01*
X128525000Y-109434500D01*
X128524579Y-109443076D01*
X128523319Y-109451570D01*
X128521232Y-109459900D01*
X128518339Y-109467985D01*
X128514668Y-109475747D01*
X128510254Y-109483112D01*
X128505138Y-109490009D01*
X128499372Y-109496372D01*
X128493009Y-109502138D01*
X128486112Y-109507254D01*
X128478747Y-109511668D01*
X128470985Y-109515339D01*
X128462900Y-109518232D01*
X128454570Y-109520319D01*
X128446076Y-109521579D01*
X128437500Y-109522000D01*
X127862500Y-109522000D01*
X127853924Y-109521579D01*
X127845430Y-109520319D01*
X127837100Y-109518232D01*
X127829015Y-109515339D01*
X127821253Y-109511668D01*
X127813888Y-109507254D01*
X127806991Y-109502138D01*
X127800628Y-109496372D01*
X127794862Y-109490009D01*
X127789746Y-109483112D01*
X127785332Y-109475747D01*
X127781661Y-109467985D01*
X127778768Y-109459900D01*
X127776681Y-109451570D01*
X127775421Y-109443076D01*
X127775000Y-109434500D01*
X127775000Y-109259500D01*
X127775421Y-109250924D01*
X127776681Y-109242430D01*
X127778768Y-109234100D01*
X127781661Y-109226015D01*
X127785332Y-109218253D01*
X127789746Y-109210888D01*
X127794862Y-109203991D01*
X127800628Y-109197628D01*
X127806991Y-109191862D01*
X127813888Y-109186746D01*
X127821253Y-109182332D01*
X127829015Y-109178661D01*
X127837100Y-109175768D01*
X127845430Y-109173681D01*
X127853924Y-109172421D01*
X127862500Y-109172000D01*
X128437500Y-109172000D01*
X128446076Y-109172421D01*
X128446076Y-109172421D01*
G37*
D33*
X128150000Y-109347000D03*
D28*
G36*
X128446076Y-108372421D02*
G01*
X128454570Y-108373681D01*
X128462900Y-108375768D01*
X128470985Y-108378661D01*
X128478747Y-108382332D01*
X128486112Y-108386746D01*
X128493009Y-108391862D01*
X128499372Y-108397628D01*
X128505138Y-108403991D01*
X128510254Y-108410888D01*
X128514668Y-108418253D01*
X128518339Y-108426015D01*
X128521232Y-108434100D01*
X128523319Y-108442430D01*
X128524579Y-108450924D01*
X128525000Y-108459500D01*
X128525000Y-108634500D01*
X128524579Y-108643076D01*
X128523319Y-108651570D01*
X128521232Y-108659900D01*
X128518339Y-108667985D01*
X128514668Y-108675747D01*
X128510254Y-108683112D01*
X128505138Y-108690009D01*
X128499372Y-108696372D01*
X128493009Y-108702138D01*
X128486112Y-108707254D01*
X128478747Y-108711668D01*
X128470985Y-108715339D01*
X128462900Y-108718232D01*
X128454570Y-108720319D01*
X128446076Y-108721579D01*
X128437500Y-108722000D01*
X127862500Y-108722000D01*
X127853924Y-108721579D01*
X127845430Y-108720319D01*
X127837100Y-108718232D01*
X127829015Y-108715339D01*
X127821253Y-108711668D01*
X127813888Y-108707254D01*
X127806991Y-108702138D01*
X127800628Y-108696372D01*
X127794862Y-108690009D01*
X127789746Y-108683112D01*
X127785332Y-108675747D01*
X127781661Y-108667985D01*
X127778768Y-108659900D01*
X127776681Y-108651570D01*
X127775421Y-108643076D01*
X127775000Y-108634500D01*
X127775000Y-108459500D01*
X127775421Y-108450924D01*
X127776681Y-108442430D01*
X127778768Y-108434100D01*
X127781661Y-108426015D01*
X127785332Y-108418253D01*
X127789746Y-108410888D01*
X127794862Y-108403991D01*
X127800628Y-108397628D01*
X127806991Y-108391862D01*
X127813888Y-108386746D01*
X127821253Y-108382332D01*
X127829015Y-108378661D01*
X127837100Y-108375768D01*
X127845430Y-108373681D01*
X127853924Y-108372421D01*
X127862500Y-108372000D01*
X128437500Y-108372000D01*
X128446076Y-108372421D01*
X128446076Y-108372421D01*
G37*
D33*
X128150000Y-108547000D03*
D28*
G36*
X128446076Y-107572421D02*
G01*
X128454570Y-107573681D01*
X128462900Y-107575768D01*
X128470985Y-107578661D01*
X128478747Y-107582332D01*
X128486112Y-107586746D01*
X128493009Y-107591862D01*
X128499372Y-107597628D01*
X128505138Y-107603991D01*
X128510254Y-107610888D01*
X128514668Y-107618253D01*
X128518339Y-107626015D01*
X128521232Y-107634100D01*
X128523319Y-107642430D01*
X128524579Y-107650924D01*
X128525000Y-107659500D01*
X128525000Y-107834500D01*
X128524579Y-107843076D01*
X128523319Y-107851570D01*
X128521232Y-107859900D01*
X128518339Y-107867985D01*
X128514668Y-107875747D01*
X128510254Y-107883112D01*
X128505138Y-107890009D01*
X128499372Y-107896372D01*
X128493009Y-107902138D01*
X128486112Y-107907254D01*
X128478747Y-107911668D01*
X128470985Y-107915339D01*
X128462900Y-107918232D01*
X128454570Y-107920319D01*
X128446076Y-107921579D01*
X128437500Y-107922000D01*
X127862500Y-107922000D01*
X127853924Y-107921579D01*
X127845430Y-107920319D01*
X127837100Y-107918232D01*
X127829015Y-107915339D01*
X127821253Y-107911668D01*
X127813888Y-107907254D01*
X127806991Y-107902138D01*
X127800628Y-107896372D01*
X127794862Y-107890009D01*
X127789746Y-107883112D01*
X127785332Y-107875747D01*
X127781661Y-107867985D01*
X127778768Y-107859900D01*
X127776681Y-107851570D01*
X127775421Y-107843076D01*
X127775000Y-107834500D01*
X127775000Y-107659500D01*
X127775421Y-107650924D01*
X127776681Y-107642430D01*
X127778768Y-107634100D01*
X127781661Y-107626015D01*
X127785332Y-107618253D01*
X127789746Y-107610888D01*
X127794862Y-107603991D01*
X127800628Y-107597628D01*
X127806991Y-107591862D01*
X127813888Y-107586746D01*
X127821253Y-107582332D01*
X127829015Y-107578661D01*
X127837100Y-107575768D01*
X127845430Y-107573681D01*
X127853924Y-107572421D01*
X127862500Y-107572000D01*
X128437500Y-107572000D01*
X128446076Y-107572421D01*
X128446076Y-107572421D01*
G37*
D33*
X128150000Y-107747000D03*
D28*
G36*
X128446076Y-106772421D02*
G01*
X128454570Y-106773681D01*
X128462900Y-106775768D01*
X128470985Y-106778661D01*
X128478747Y-106782332D01*
X128486112Y-106786746D01*
X128493009Y-106791862D01*
X128499372Y-106797628D01*
X128505138Y-106803991D01*
X128510254Y-106810888D01*
X128514668Y-106818253D01*
X128518339Y-106826015D01*
X128521232Y-106834100D01*
X128523319Y-106842430D01*
X128524579Y-106850924D01*
X128525000Y-106859500D01*
X128525000Y-107034500D01*
X128524579Y-107043076D01*
X128523319Y-107051570D01*
X128521232Y-107059900D01*
X128518339Y-107067985D01*
X128514668Y-107075747D01*
X128510254Y-107083112D01*
X128505138Y-107090009D01*
X128499372Y-107096372D01*
X128493009Y-107102138D01*
X128486112Y-107107254D01*
X128478747Y-107111668D01*
X128470985Y-107115339D01*
X128462900Y-107118232D01*
X128454570Y-107120319D01*
X128446076Y-107121579D01*
X128437500Y-107122000D01*
X127862500Y-107122000D01*
X127853924Y-107121579D01*
X127845430Y-107120319D01*
X127837100Y-107118232D01*
X127829015Y-107115339D01*
X127821253Y-107111668D01*
X127813888Y-107107254D01*
X127806991Y-107102138D01*
X127800628Y-107096372D01*
X127794862Y-107090009D01*
X127789746Y-107083112D01*
X127785332Y-107075747D01*
X127781661Y-107067985D01*
X127778768Y-107059900D01*
X127776681Y-107051570D01*
X127775421Y-107043076D01*
X127775000Y-107034500D01*
X127775000Y-106859500D01*
X127775421Y-106850924D01*
X127776681Y-106842430D01*
X127778768Y-106834100D01*
X127781661Y-106826015D01*
X127785332Y-106818253D01*
X127789746Y-106810888D01*
X127794862Y-106803991D01*
X127800628Y-106797628D01*
X127806991Y-106791862D01*
X127813888Y-106786746D01*
X127821253Y-106782332D01*
X127829015Y-106778661D01*
X127837100Y-106775768D01*
X127845430Y-106773681D01*
X127853924Y-106772421D01*
X127862500Y-106772000D01*
X128437500Y-106772000D01*
X128446076Y-106772421D01*
X128446076Y-106772421D01*
G37*
D33*
X128150000Y-106947000D03*
D34*
X114146000Y-89395000D03*
X114146000Y-91935000D03*
X114146000Y-74155000D03*
X114146000Y-86855000D03*
X114146000Y-84315000D03*
X114146000Y-81775000D03*
X114146000Y-79235000D03*
X114146000Y-76695000D03*
X189146000Y-91935000D03*
X189146000Y-89395000D03*
X189146000Y-86855000D03*
X189146000Y-84315000D03*
X189146000Y-81775000D03*
X189146000Y-79235000D03*
X189146000Y-76695000D03*
D35*
X189146000Y-74155000D03*
D36*
X177214000Y-105857000D03*
X178514000Y-105857000D03*
X177864000Y-105857000D03*
X178514000Y-107757000D03*
X177214000Y-107757000D03*
D37*
X178964000Y-110238000D03*
X178964000Y-111188000D03*
X178964000Y-112138000D03*
X176764000Y-112138000D03*
X176764000Y-110238000D03*
X176764000Y-111188000D03*
D38*
X180340000Y-106236000D03*
X159165000Y-108776000D03*
X159165000Y-106113000D03*
X152527000Y-101918000D03*
X152503000Y-108011000D03*
X150558000Y-111125000D03*
X155258000Y-112776000D03*
X157988000Y-102172000D03*
X115888000Y-111950000D03*
X114618000Y-107032000D03*
X116967000Y-105156000D03*
X116713000Y-108331000D03*
X117475000Y-107569000D03*
X117475000Y-108331000D03*
X116713000Y-107569000D03*
X134874000Y-109284000D03*
X172148000Y-99504500D03*
X172784000Y-100774000D03*
X172784000Y-99504500D03*
X172148000Y-100774000D03*
X173418000Y-100140000D03*
X172784000Y-100140000D03*
X172148000Y-100140000D03*
X173418000Y-99504500D03*
X173418000Y-100774000D03*
X176720000Y-96544000D03*
X176212000Y-96544000D03*
X175704000Y-96544000D03*
X174220000Y-97345500D03*
X174220000Y-96329500D03*
X174220000Y-96837500D03*
X159639000Y-99377500D03*
X177228000Y-91757500D03*
X173228000Y-93726000D03*
X194818000Y-94551500D03*
X178372000Y-103124000D03*
X177927000Y-111188000D03*
X159385000Y-86042500D03*
X170180000Y-102298000D03*
X176086000Y-102298000D03*
X166814000Y-104902000D03*
X124016000Y-71691500D03*
X124333000Y-69088000D03*
X119634000Y-109982000D03*
X125476000Y-107760000D03*
X123190000Y-112204000D03*
X125476000Y-112204000D03*
X129032000Y-108394000D03*
X133985000Y-98869500D03*
X134048000Y-94805500D03*
X134176000Y-90614500D03*
X134048000Y-86550500D03*
X168720000Y-81851500D03*
X168720000Y-77787500D03*
X168846000Y-73660000D03*
X119190000Y-91630500D03*
X186500000Y-66992500D03*
X180276000Y-78359000D03*
X198169000Y-91097000D03*
X184340000Y-74930000D03*
X179260000Y-108902000D03*
X117094000Y-107950000D03*
X159830000Y-110998000D03*
X155731000Y-107769000D03*
X155806000Y-107027000D03*
X156996000Y-107027000D03*
X156996000Y-107857000D03*
X168846000Y-69596000D03*
X144272000Y-71183500D03*
X141796000Y-72263000D03*
X151511000Y-72009000D03*
X152908000Y-72898000D03*
X163004000Y-82740500D03*
X158877000Y-89496900D03*
X162496000Y-90678000D03*
X156210000Y-90106500D03*
X150686000Y-94488000D03*
X152400000Y-92583000D03*
X141668000Y-81724500D03*
X117221000Y-86868000D03*
X117221000Y-84328000D03*
X117221000Y-81788000D03*
X117221000Y-79248000D03*
X117221000Y-76708000D03*
X117221000Y-74168000D03*
X182436000Y-84963000D03*
X184658000Y-92329000D03*
X186182000Y-91948000D03*
X186182000Y-89408000D03*
X186182000Y-84328000D03*
X186182000Y-81788000D03*
X182562000Y-90212000D03*
X182562000Y-89112000D03*
X124650500Y-78422500D03*
X162623500Y-77152500D03*
X160338000Y-102133410D03*
X193993000Y-99695000D03*
X193230500Y-98933000D03*
X194754500Y-98933000D03*
X194754500Y-100457000D03*
X193230500Y-100457000D03*
X196024500Y-98361500D03*
X180213000Y-92710000D03*
X178752000Y-90995500D03*
X196964000Y-95606300D03*
X196024000Y-95059500D03*
X180340000Y-107378000D03*
X150558000Y-108712000D03*
X154750000Y-110744000D03*
X122809000Y-105156000D03*
X118364000Y-111950000D03*
X115760000Y-109410000D03*
X117221000Y-104013000D03*
X116014000Y-105283000D03*
X115443000Y-105283000D03*
X136271000Y-106934000D03*
X163449000Y-78676500D03*
X159639000Y-98171000D03*
X169672000Y-92773500D03*
X169037000Y-92773500D03*
X168402000Y-92773500D03*
X167767000Y-92773500D03*
X167132000Y-92773500D03*
X169672000Y-92138500D03*
X169037000Y-92138500D03*
X168402000Y-92138500D03*
X167767000Y-92138500D03*
X167132000Y-92138500D03*
X169672000Y-91503500D03*
X169037000Y-91503500D03*
X168402000Y-91503500D03*
X167767000Y-91503500D03*
X167132000Y-91503500D03*
X178816000Y-93472000D03*
X200279000Y-97853500D03*
X177292000Y-103124000D03*
X172593000Y-97853500D03*
X171196000Y-104458000D03*
X122872000Y-71691500D03*
X122174000Y-112141000D03*
X124841000Y-113030000D03*
X135572000Y-98234500D03*
X135572000Y-94107000D03*
X135572000Y-89916000D03*
X135636000Y-85915500D03*
X170244000Y-81216500D03*
X170180000Y-77089000D03*
X170244000Y-72961500D03*
X119190000Y-90487500D03*
X180276000Y-80645000D03*
X184340000Y-76073000D03*
X150368000Y-72009000D03*
X154051000Y-72898000D03*
X163004000Y-83883500D03*
X158686000Y-92456000D03*
X149288000Y-94488000D03*
X153543000Y-92583000D03*
X141668000Y-82867500D03*
X186182000Y-86868000D03*
X159766000Y-84455000D03*
X122174000Y-107188000D03*
X133096000Y-106616000D03*
X128968000Y-109474000D03*
X120886000Y-101896000D03*
X121539000Y-101410000D03*
X152908000Y-113792000D03*
X153759000Y-104140000D03*
X161290000Y-108331000D03*
X168269000Y-109284000D03*
X161290000Y-106744000D03*
X168827000Y-109284000D03*
X154305000Y-108077000D03*
X152210000Y-107442000D03*
X138205700Y-77407100D03*
X124841000Y-111125000D03*
X128968000Y-110490000D03*
X170244000Y-68834000D03*
X146558000Y-74549000D03*
X146558000Y-76708000D03*
X162000900Y-111248000D03*
X157580000Y-113930300D03*
X152018200Y-113253600D03*
X123841700Y-98042600D03*
X138497300Y-100407500D03*
X119220200Y-106747800D03*
X161822100Y-100718700D03*
X149240200Y-111639600D03*
X121201200Y-79047900D03*
X157036000Y-81978500D03*
X129867700Y-113941100D03*
X164725100Y-100626800D03*
X149223200Y-112213500D03*
X113988100Y-108449100D03*
X164705700Y-110990000D03*
X157036000Y-82550000D03*
X160845500Y-100647500D03*
X140055500Y-100993900D03*
X116675400Y-97791600D03*
X155829000Y-86296500D03*
X154559000Y-94551500D03*
X151892000Y-100711000D03*
X151765000Y-106553000D03*
X140282800Y-99263800D03*
X155067000Y-86233000D03*
X155194000Y-92710000D03*
X195772000Y-90487500D03*
X195772000Y-93027500D03*
X183198000Y-93831800D03*
X180912000Y-89408000D03*
X167444600Y-74316800D03*
X165862000Y-96583500D03*
X181420000Y-88265000D03*
X168715400Y-68192500D03*
X176022000Y-90170000D03*
X179988000Y-89852500D03*
X157030800Y-79937500D03*
X118682000Y-109792000D03*
X157374400Y-77633400D03*
X115062000Y-110554000D03*
X162687000Y-91757500D03*
X157578000Y-89027000D03*
X162144100Y-85983200D03*
X159606200Y-104656100D03*
X159712000Y-96810500D03*
X155831800Y-98948800D03*
X159384100Y-102133410D03*
X127179500Y-87911400D03*
X121539000Y-110871000D03*
X144792300Y-86778300D03*
X131699000Y-106870000D03*
X131382000Y-108966000D03*
X145696100Y-85672600D03*
X136326900Y-105177300D03*
X128884900Y-107032400D03*
X142812000Y-79502000D03*
X145796000Y-81534000D03*
X176403000Y-81470500D03*
X176784000Y-82931000D03*
X176911000Y-84709000D03*
X180276000Y-109538000D03*
X152400700Y-76031100D03*
X132652000Y-85852000D03*
X156229400Y-80083800D03*
X132652000Y-89979500D03*
X150632600Y-78236900D03*
X132588000Y-94107000D03*
X160117400Y-81054000D03*
X132588000Y-98234500D03*
X177419000Y-86931500D03*
X147955000Y-85026500D03*
X152844500Y-84963000D03*
X156781500Y-86423500D03*
X161036000Y-86550500D03*
X171196000Y-86550500D03*
X180911500Y-96583500D03*
X180340000Y-101981000D03*
D39*
X171444900Y-99315100D02*
X171350000Y-99410000D01*
D40*
X171700000Y-99315100D02*
X171444900Y-99315100D01*
D39*
X171700000Y-99410500D02*
X171700000Y-99315100D01*
D41*
X171700000Y-99410500D02*
X172050000Y-99410500D01*
X172050000Y-99410500D02*
X172800000Y-100160000D01*
X171350000Y-99410500D02*
X171700000Y-99410500D01*
D40*
X174249500Y-99410500D02*
X174250000Y-99410000D01*
D41*
X174249500Y-99410500D02*
X173550000Y-99410500D01*
X173550000Y-99410500D02*
X172800000Y-100160000D01*
X174250000Y-99410500D02*
X174249500Y-99410500D01*
D39*
X174155100Y-99815100D02*
X174250000Y-99910000D01*
D40*
X173650000Y-99815300D02*
X173650200Y-99815100D01*
X173650200Y-99815100D02*
X174155100Y-99815100D01*
D41*
X173650000Y-99910500D02*
X173050000Y-99910500D01*
X173050000Y-99910500D02*
X172800000Y-100160000D01*
X174250000Y-99910500D02*
X173650000Y-99910500D01*
D39*
X173650000Y-99910500D02*
X173650000Y-99815300D01*
D42*
X118306000Y-108450000D02*
X118306500Y-108450000D01*
D41*
X118306000Y-108450000D02*
X117594000Y-108450000D01*
X117594000Y-108450000D02*
X117094000Y-107950000D01*
D40*
X172784000Y-100140000D02*
X172800000Y-100156000D01*
X172800000Y-100156000D02*
X172800000Y-100160000D01*
D41*
X197919000Y-90847000D02*
X198169000Y-91097000D01*
D40*
X166548000Y-105456000D02*
X166548000Y-105168000D01*
X166548000Y-105168000D02*
X166814000Y-104902000D01*
X166548000Y-106992000D02*
X166548000Y-105456000D01*
D41*
X197676000Y-98488500D02*
X197231000Y-98488500D01*
X199517000Y-98975000D02*
X199013000Y-98975000D01*
X199013000Y-98975000D02*
X198526000Y-98488500D01*
X198526000Y-98488500D02*
X197676000Y-98488500D01*
X196660000Y-98488500D02*
X196469000Y-98488500D01*
X197156000Y-98488500D02*
X196660000Y-98488500D01*
X197231000Y-98488500D02*
X197156000Y-98488500D01*
D40*
X117094000Y-106511000D02*
X117094000Y-107950000D01*
D41*
X179705000Y-106257000D02*
X180318000Y-106257000D01*
X180318000Y-106257000D02*
X180340000Y-106236000D01*
X152527000Y-102574000D02*
X152527000Y-101918000D01*
X152908000Y-108580000D02*
X152908000Y-108416000D01*
X152908000Y-108416000D02*
X152503000Y-108011000D01*
X155258000Y-112776000D02*
X155258000Y-111844000D01*
X157988000Y-103040000D02*
X157988000Y-102172000D01*
X135768000Y-110363000D02*
X135768000Y-110178000D01*
X135768000Y-110178000D02*
X134874000Y-109284000D01*
X114618000Y-107032000D02*
X114618000Y-106638000D01*
X114618000Y-106638000D02*
X114554000Y-106574000D01*
X117624000Y-105092000D02*
X117030000Y-105092000D01*
X117030000Y-105092000D02*
X116967000Y-105156000D01*
D40*
X117624000Y-105092000D02*
X117624000Y-105982000D01*
X117624000Y-105982000D02*
X117094000Y-106511000D01*
X117094000Y-106511000D02*
X117094000Y-107950000D01*
X116628000Y-105982000D02*
X117094000Y-106448000D01*
X117094000Y-106448000D02*
X117094000Y-106511000D01*
D41*
X137518000Y-109052000D02*
X135106000Y-109052000D01*
X135106000Y-109052000D02*
X134874000Y-109284000D01*
X196660000Y-98488500D02*
X196469000Y-98488500D01*
X197568000Y-97320500D02*
X197568000Y-98380500D01*
X197568000Y-98380500D02*
X197676000Y-98488500D01*
X196908000Y-99520500D02*
X196908000Y-98736500D01*
X196908000Y-98736500D02*
X197156000Y-98488500D01*
X197156000Y-98488500D02*
X197231000Y-98488500D01*
X196469000Y-98488500D02*
X196258000Y-98700000D01*
X196258000Y-98700000D02*
X196258000Y-99520500D01*
X178964000Y-111188000D02*
X177927000Y-111188000D01*
X180340000Y-111194000D02*
X178969000Y-111194000D01*
X178969000Y-111194000D02*
X178964000Y-111188000D01*
X173250000Y-101981000D02*
X173250000Y-100610000D01*
X173250000Y-100610000D02*
X172800000Y-100160000D01*
X179446000Y-89852500D02*
X179446000Y-89298500D01*
X179446000Y-89298500D02*
X179908000Y-88836500D01*
X179908000Y-88836500D02*
X181728000Y-88836500D01*
X181728000Y-88836500D02*
X182004000Y-89112000D01*
X182004000Y-89112000D02*
X182562000Y-89112000D01*
X199962000Y-90910500D02*
X198355000Y-90910500D01*
X198355000Y-90910500D02*
X198169000Y-91097000D01*
X198419000Y-89647000D02*
X198419000Y-90847000D01*
X198419000Y-90847000D02*
X198169000Y-91097000D01*
X197919000Y-89647000D02*
X197919000Y-90847000D01*
X197919000Y-90847000D02*
X198169000Y-91097000D01*
X197419000Y-89647000D02*
X197419000Y-90347000D01*
X197419000Y-90347000D02*
X197919000Y-90847000D01*
X197419000Y-92547000D02*
X197419000Y-91847000D01*
X197419000Y-91847000D02*
X198169000Y-91097000D01*
X119634000Y-109416000D02*
X119634000Y-109982000D01*
X120608000Y-109728000D02*
X119946000Y-109728000D01*
X119946000Y-109728000D02*
X119634000Y-109416000D01*
X123132000Y-110871000D02*
X123132000Y-112146000D01*
X123132000Y-112146000D02*
X123190000Y-112204000D01*
D40*
X123232000Y-113094000D02*
X123232000Y-112246000D01*
X123232000Y-112246000D02*
X123190000Y-112204000D01*
X130550000Y-109347000D02*
X129984000Y-109347000D01*
X129984000Y-109347000D02*
X129032000Y-108394000D01*
X128150000Y-108547000D02*
X128880000Y-108547000D01*
X128880000Y-108547000D02*
X129032000Y-108394000D01*
D41*
X133752000Y-85852000D02*
X133800000Y-85852000D01*
X133800000Y-85852000D02*
X134752000Y-84899500D01*
X133752000Y-89979500D02*
X133800000Y-89979500D01*
X133800000Y-89979500D02*
X134752000Y-89027000D01*
X133752000Y-98234500D02*
X133800000Y-98234500D01*
X133800000Y-98234500D02*
X134752000Y-97282000D01*
X133752000Y-98234500D02*
X133752000Y-98637000D01*
X133752000Y-98637000D02*
X133985000Y-98869500D01*
X133752000Y-94107000D02*
X133752000Y-94509500D01*
X133752000Y-94509500D02*
X134048000Y-94805500D01*
X133752000Y-89979500D02*
X133752000Y-90191500D01*
X133752000Y-90191500D02*
X134176000Y-90614500D01*
X133752000Y-85852000D02*
X133752000Y-86254500D01*
X133752000Y-86254500D02*
X134048000Y-86550500D01*
X168424000Y-81216500D02*
X168424000Y-81555500D01*
X168424000Y-81555500D02*
X168720000Y-81851500D01*
X168424000Y-77089000D02*
X168424000Y-77491500D01*
X168424000Y-77491500D02*
X168720000Y-77787500D01*
X168424000Y-72961500D02*
X168424000Y-73237000D01*
X168424000Y-73237000D02*
X168846000Y-73660000D01*
X177864000Y-105857000D02*
X177864000Y-106436000D01*
X177864000Y-106436000D02*
X178006000Y-106578000D01*
X178006000Y-106578000D02*
X178880000Y-106578000D01*
X178880000Y-106578000D02*
X179201000Y-106257000D01*
X179201000Y-106257000D02*
X179705000Y-106257000D01*
D40*
X178414000Y-108902000D02*
X179260000Y-108902000D01*
X166548000Y-106992000D02*
X166548000Y-105456000D01*
X166548000Y-105456000D02*
X165931000Y-104838000D01*
D41*
X168846000Y-69596000D02*
X168846000Y-69257000D01*
X168846000Y-69257000D02*
X168424000Y-68834000D01*
X158120000Y-89027000D02*
X158407000Y-89027000D01*
X158407000Y-89027000D02*
X158877000Y-89496900D01*
X161608000Y-90228000D02*
X162046000Y-90228000D01*
X162046000Y-90228000D02*
X162496000Y-90678000D01*
X160338000Y-102701000D02*
X160338000Y-102133410D01*
X196469000Y-98488500D02*
X196151500Y-98488500D01*
X196151500Y-98488500D02*
X196024500Y-98361500D01*
X178752000Y-90995500D02*
X178752000Y-91249500D01*
X178752000Y-91249500D02*
X180213000Y-92710000D01*
X197146000Y-96012000D02*
X197146000Y-95788000D01*
X197146000Y-95788000D02*
X196964000Y-95606300D01*
X196908000Y-97320500D02*
X196908000Y-96250500D01*
X196908000Y-96250500D02*
X197146000Y-96012000D01*
X196046000Y-96012000D02*
X196046000Y-95081000D01*
X196046000Y-95081000D02*
X196024000Y-95059500D01*
X196258000Y-97320500D02*
X196258000Y-96223500D01*
X196258000Y-96223500D02*
X196046000Y-96012000D01*
D40*
X174350000Y-101981000D02*
X174350000Y-102675800D01*
X177292000Y-103124000D02*
X174798200Y-103124000D01*
X174798200Y-103124000D02*
X174350000Y-102675800D01*
X159766000Y-83762000D02*
X160782000Y-83762000D01*
D42*
X115881500Y-109022000D02*
X115881500Y-108950000D01*
D40*
X115882000Y-109120000D02*
X115881500Y-109119500D01*
X115881500Y-109119500D02*
X115881500Y-109022000D01*
D41*
X115882000Y-109120000D02*
X115882000Y-109290000D01*
X115882000Y-109290000D02*
X115760000Y-109410000D01*
X115882000Y-108950000D02*
X115882000Y-109120000D01*
D40*
X199962000Y-89810500D02*
X200656800Y-89810500D01*
X200279000Y-97853500D02*
X200656800Y-97475700D01*
X200656800Y-97475700D02*
X200656800Y-89810500D01*
D41*
X179705000Y-107357000D02*
X180318000Y-107357000D01*
X180318000Y-107357000D02*
X180340000Y-107378000D01*
X155258000Y-109644000D02*
X155258000Y-110236000D01*
X155258000Y-110236000D02*
X154750000Y-110744000D01*
X155258000Y-109644000D02*
X155258000Y-108336000D01*
X155258000Y-108336000D02*
X155252000Y-108331000D01*
X137518000Y-107102000D02*
X136439000Y-107102000D01*
X136439000Y-107102000D02*
X136271000Y-106934000D01*
X199517000Y-97875000D02*
X200258000Y-97875000D01*
X200258000Y-97875000D02*
X200279000Y-97853500D01*
X199517000Y-97875000D02*
X198772000Y-97875000D01*
X198772000Y-97875000D02*
X198218000Y-97320500D01*
X174350000Y-101981000D02*
X174350000Y-101010000D01*
X174350000Y-101010000D02*
X174250000Y-100910000D01*
X174250000Y-100910000D02*
X174250000Y-100410000D01*
X199962000Y-89810500D02*
X199082000Y-89810500D01*
X199082000Y-89810500D02*
X198919000Y-89647000D01*
D40*
X122174000Y-112141000D02*
X122174000Y-113052000D01*
X122174000Y-113052000D02*
X122132000Y-113094000D01*
D41*
X134752000Y-93154500D02*
X134752000Y-94007000D01*
X134752000Y-94007000D02*
X134852000Y-94107000D01*
X134852000Y-98234500D02*
X135572000Y-98234500D01*
X134852000Y-94107000D02*
X135572000Y-94107000D01*
X134852000Y-89979500D02*
X135509000Y-89979500D01*
X135509000Y-89979500D02*
X135572000Y-89916000D01*
X134852000Y-85852000D02*
X135572000Y-85852000D01*
X135572000Y-85852000D02*
X135636000Y-85915500D01*
X169524000Y-81216500D02*
X170244000Y-81216500D01*
X169524000Y-77089000D02*
X170180000Y-77089000D01*
X169524000Y-72961500D02*
X170244000Y-72961500D01*
X179705000Y-107357000D02*
X178914000Y-107357000D01*
X178914000Y-107357000D02*
X178514000Y-107757000D01*
X159766000Y-83762000D02*
X159766000Y-84455000D01*
X115881500Y-107950000D02*
X115882000Y-107950000D01*
X114554000Y-107674000D02*
X114830000Y-107950000D01*
X114830000Y-107950000D02*
X115881500Y-107950000D01*
X120269000Y-103574000D02*
X120269000Y-105753000D01*
X120269000Y-105753000D02*
X119977000Y-106045000D01*
D40*
X121577000Y-106045000D02*
X121577000Y-106591000D01*
X121577000Y-106591000D02*
X122174000Y-107188000D01*
D41*
X121285000Y-103574000D02*
X121285000Y-105753000D01*
X121285000Y-105753000D02*
X121577000Y-106045000D01*
X121708000Y-109728000D02*
X121708000Y-108685000D01*
X121708000Y-108685000D02*
X121608000Y-108585000D01*
X121608000Y-108585000D02*
X121608000Y-106076000D01*
X121608000Y-106076000D02*
X121577000Y-106045000D01*
X133096000Y-106616000D02*
X133096000Y-107080000D01*
X133096000Y-107080000D02*
X133118000Y-107102000D01*
D40*
X128968000Y-109474000D02*
X128276000Y-109474000D01*
X128276000Y-109474000D02*
X128150000Y-109347000D01*
D41*
X121285000Y-102674000D02*
X121285000Y-102294000D01*
X121285000Y-102294000D02*
X120886000Y-101896000D01*
X120269000Y-102674000D02*
X120269000Y-101727000D01*
X120269000Y-101727000D02*
X120586000Y-101410000D01*
X120586000Y-101410000D02*
X121539000Y-101410000D01*
X152908000Y-113792000D02*
X152908000Y-112908000D01*
X153759000Y-104140000D02*
X152993000Y-104140000D01*
X152993000Y-104140000D02*
X152527000Y-103674000D01*
X154051000Y-106548000D02*
X154051000Y-104432000D01*
X154051000Y-104432000D02*
X153759000Y-104140000D01*
X157038000Y-105240000D02*
X157038000Y-106024000D01*
X157038000Y-106024000D02*
X159345000Y-108331000D01*
X159345000Y-108331000D02*
X161290000Y-108331000D01*
X168148000Y-106992000D02*
X168148000Y-108717000D01*
X168148000Y-108717000D02*
X168358000Y-108926000D01*
X168358000Y-108926000D02*
X168358000Y-109195000D01*
X168358000Y-109195000D02*
X168269000Y-109284000D01*
X157988000Y-105240000D02*
X157988000Y-106024000D01*
X157988000Y-106024000D02*
X158708000Y-106744000D01*
X158708000Y-106744000D02*
X161290000Y-106744000D01*
X168948000Y-106992000D02*
X168948000Y-108717000D01*
X168948000Y-108717000D02*
X168738000Y-108926000D01*
X168738000Y-108926000D02*
X168738000Y-109195000D01*
X168738000Y-109195000D02*
X168827000Y-109284000D01*
D40*
X160592000Y-104833000D02*
X160592000Y-104055000D01*
X160592000Y-104055000D02*
X160338000Y-103801000D01*
X158750000Y-104076000D02*
X159026000Y-103801000D01*
X159026000Y-103801000D02*
X160338000Y-103801000D01*
X158750000Y-104076000D02*
X158938000Y-103888000D01*
X158938000Y-103888000D02*
X158938000Y-103040000D01*
X157038000Y-103040000D02*
X157038000Y-103745000D01*
X157038000Y-103745000D02*
X157369000Y-104076000D01*
X157369000Y-104076000D02*
X158750000Y-104076000D01*
D41*
X154305000Y-108077000D02*
X154438000Y-108077000D01*
X154438000Y-108077000D02*
X155067000Y-107448000D01*
X154051000Y-107448000D02*
X152215000Y-107448000D01*
X152215000Y-107448000D02*
X152210000Y-107442000D01*
X138205700Y-77407100D02*
X138205700Y-77694300D01*
X138205700Y-77694300D02*
X126581700Y-89318300D01*
X126581700Y-89318300D02*
X126581700Y-110065100D01*
X126581700Y-110065100D02*
X124633300Y-112013500D01*
X124633300Y-112013500D02*
X124633300Y-112400000D01*
X124079000Y-112400000D02*
X124633300Y-112400000D01*
D43*
X128150000Y-110236000D02*
X128150000Y-110147000D01*
D40*
X128150000Y-110672000D02*
X128150000Y-110236000D01*
D41*
X124079000Y-111500000D02*
X124466000Y-111500000D01*
X124466000Y-111500000D02*
X124841000Y-111125000D01*
D40*
X128968000Y-110490000D02*
X128663000Y-110490000D01*
X128663000Y-110490000D02*
X128481000Y-110672000D01*
X128481000Y-110672000D02*
X128150000Y-110672000D01*
X128150000Y-110947000D02*
X128150000Y-110672000D01*
D41*
X177314000Y-113474000D02*
X177314000Y-112688000D01*
X177314000Y-112688000D02*
X176764000Y-112138000D01*
X178414000Y-113474000D02*
X178414000Y-112688000D01*
X178414000Y-112688000D02*
X178964000Y-112138000D01*
X180340000Y-112644000D02*
X179468000Y-112644000D01*
X179468000Y-112644000D02*
X178964000Y-112138000D01*
X176764000Y-111188000D02*
X176764000Y-110238000D01*
X177214000Y-107757000D02*
X177214000Y-108802000D01*
X177214000Y-108802000D02*
X177314000Y-108902000D01*
X176764000Y-110238000D02*
X176764000Y-109452000D01*
X176764000Y-109452000D02*
X177314000Y-108902000D01*
X169524000Y-68834000D02*
X170244000Y-68834000D01*
X146558000Y-76708000D02*
X146558000Y-74549000D01*
D40*
X160592000Y-105733000D02*
X161526000Y-105733000D01*
X161526000Y-105733000D02*
X163564000Y-103696000D01*
X163564000Y-103696000D02*
X168529000Y-103696000D01*
X168529000Y-103696000D02*
X169748000Y-104914000D01*
X169748000Y-104914000D02*
X169748000Y-106992000D01*
X172598000Y-112592000D02*
X172598000Y-107092000D01*
X163698000Y-112592000D02*
X172598000Y-112592000D01*
X163698000Y-107092000D02*
X163698000Y-112592000D01*
X163698000Y-107092000D02*
X163698000Y-106172000D01*
X163698000Y-106172000D02*
X165031000Y-104838000D01*
D41*
X163157300Y-100135600D02*
X162405200Y-100135600D01*
X162405200Y-100135600D02*
X161822100Y-100718700D01*
X170696300Y-100135600D02*
X163157300Y-100135600D01*
X163157300Y-100135600D02*
X163157300Y-85776400D01*
X163157300Y-85776400D02*
X161865700Y-84484800D01*
X161865700Y-84484800D02*
X161865700Y-83945700D01*
X161865700Y-83945700D02*
X160782000Y-82862000D01*
X196978400Y-93176300D02*
X196318700Y-93176300D01*
X196318700Y-93176300D02*
X195913100Y-93581900D01*
X195913100Y-93581900D02*
X191742600Y-93581900D01*
X191742600Y-93581900D02*
X186602500Y-98722000D01*
X186602500Y-98722000D02*
X171118300Y-98722000D01*
X171118300Y-98722000D02*
X170696300Y-99144000D01*
X170696300Y-99144000D02*
X170696300Y-100135600D01*
X198419000Y-93176300D02*
X196978400Y-93176300D01*
X198218000Y-100304800D02*
X199119900Y-100304800D01*
X199119900Y-100304800D02*
X201268200Y-98156500D01*
X201268200Y-98156500D02*
X201268200Y-89556900D01*
X201268200Y-89556900D02*
X200728900Y-89017600D01*
X200728900Y-89017600D02*
X197130700Y-89017600D01*
X197130700Y-89017600D02*
X196978400Y-89169900D01*
X196978400Y-89169900D02*
X196978400Y-93176300D01*
X198218000Y-99520500D02*
X198218000Y-100304800D01*
X198419000Y-92547000D02*
X198419000Y-93176300D01*
X171350000Y-100410000D02*
X170720700Y-100410000D01*
X170720700Y-100410000D02*
X170720700Y-100160000D01*
X170720700Y-100160000D02*
X170696300Y-100135600D01*
X149240200Y-111639600D02*
X150404200Y-111639600D01*
X150404200Y-111639600D02*
X152018200Y-113253600D01*
X138497300Y-107752000D02*
X145352600Y-107752000D01*
X145352600Y-107752000D02*
X149240200Y-111639600D01*
X157580000Y-113930300D02*
X160262300Y-111248000D01*
X160262300Y-111248000D02*
X162000900Y-111248000D01*
X123409600Y-98042600D02*
X121201200Y-95834200D01*
X121201200Y-95834200D02*
X121201200Y-79047900D01*
X123841700Y-98042600D02*
X123409600Y-98042600D01*
X123409600Y-98042600D02*
X119322600Y-102129600D01*
X119322600Y-102129600D02*
X119322600Y-106645400D01*
X119322600Y-106645400D02*
X119220200Y-106747800D01*
X138497300Y-100407500D02*
X138497300Y-107752000D01*
X157036000Y-81978500D02*
X156825200Y-81978500D01*
X156825200Y-81978500D02*
X138497300Y-100306400D01*
X138497300Y-100306400D02*
X138497300Y-100407500D01*
X107213300Y-80187000D02*
X109195200Y-78205100D01*
X109195200Y-78205100D02*
X120358400Y-78205100D01*
X120358400Y-78205100D02*
X121201200Y-79047900D01*
X106109000Y-80187000D02*
X107213300Y-80187000D01*
X137518000Y-107752000D02*
X138497300Y-107752000D01*
X160782000Y-82862000D02*
X160682000Y-82862000D01*
X160682000Y-82862000D02*
X159862000Y-82042000D01*
X159862000Y-82042000D02*
X157099000Y-82042000D01*
X157099000Y-82042000D02*
X157036000Y-81978500D01*
X159766000Y-82862000D02*
X157348000Y-82862000D01*
X157348000Y-82862000D02*
X157036000Y-82550000D01*
X195451400Y-99809800D02*
X195946400Y-100304800D01*
X195946400Y-100304800D02*
X197568000Y-100304800D01*
X198919000Y-93176300D02*
X198918900Y-93176300D01*
X198918900Y-93176300D02*
X198918900Y-93215600D01*
X198918900Y-93215600D02*
X198576900Y-93557600D01*
X198576900Y-93557600D02*
X196836100Y-93557600D01*
X196836100Y-93557600D02*
X195451400Y-94942300D01*
X195451400Y-94942300D02*
X195451400Y-99809800D01*
X137518000Y-108402000D02*
X138497300Y-108402000D01*
X138497300Y-109408200D02*
X138497300Y-108402000D01*
X129867700Y-113941100D02*
X132844700Y-110964100D01*
X132844700Y-110964100D02*
X136941400Y-110964100D01*
X136941400Y-110964100D02*
X138497300Y-109408200D01*
X138497300Y-109408200D02*
X145497600Y-109408200D01*
X145497600Y-109408200D02*
X148302900Y-112213500D01*
X148302900Y-112213500D02*
X149223200Y-112213500D01*
X169708300Y-101569500D02*
X165667800Y-101569500D01*
X165667800Y-101569500D02*
X164725100Y-100626800D01*
X106109000Y-77647000D02*
X106109000Y-78751300D01*
X106109000Y-78751300D02*
X105971000Y-78751300D01*
X105971000Y-78751300D02*
X105003600Y-79718700D01*
X105003600Y-79718700D02*
X105003600Y-89283700D01*
X105003600Y-89283700D02*
X105183500Y-89463600D01*
X105183500Y-89463600D02*
X106324800Y-89463600D01*
X106324800Y-89463600D02*
X113988100Y-97126900D01*
X113988100Y-97126900D02*
X113988100Y-108449100D01*
X198919000Y-92547000D02*
X198919000Y-93176300D01*
X197568000Y-99520500D02*
X197568000Y-100304800D01*
X169708300Y-101569500D02*
X169708300Y-103850400D01*
X169708300Y-103850400D02*
X170326300Y-104468400D01*
X170326300Y-104468400D02*
X170326300Y-108449800D01*
X170326300Y-108449800D02*
X167786100Y-110990000D01*
X167786100Y-110990000D02*
X164705700Y-110990000D01*
X170720700Y-100910000D02*
X170061200Y-101569500D01*
X170061200Y-101569500D02*
X169708300Y-101569500D01*
X171350000Y-100910000D02*
X170720700Y-100910000D01*
X157036000Y-82550000D02*
X157036000Y-84011000D01*
X157036000Y-84011000D02*
X158305500Y-85280500D01*
X162115500Y-85280500D02*
X162687000Y-85852000D01*
X158305500Y-85280500D02*
X162115500Y-85280500D01*
X162687000Y-88065428D02*
X160655000Y-90097428D01*
X162687000Y-85852000D02*
X162687000Y-88065428D01*
X160655000Y-90097428D02*
X160655000Y-95313500D01*
X160655000Y-95313500D02*
X160845500Y-95504000D01*
X160845500Y-95504000D02*
X160845500Y-100647500D01*
X195451400Y-101919100D02*
X193967000Y-103403500D01*
X195451400Y-99809800D02*
X195451400Y-101919100D01*
X171350000Y-101057500D02*
X171350000Y-100910000D01*
X193967000Y-103403500D02*
X179634500Y-103403500D01*
X179634500Y-103403500D02*
X179262000Y-103776000D01*
X179262000Y-103776000D02*
X174068500Y-103776000D01*
X174068500Y-103776000D02*
X171350000Y-101057500D01*
X107212300Y-88328500D02*
X116675400Y-97791600D01*
X106108000Y-88328500D02*
X107212300Y-88328500D01*
X151777000Y-100826000D02*
X151892000Y-100711000D01*
X151765000Y-106553000D02*
X151765000Y-100838000D01*
X151765000Y-100838000D02*
X151777000Y-100826000D01*
X140055500Y-100993900D02*
X140223400Y-100826000D01*
X140223400Y-100826000D02*
X151777000Y-100826000D01*
X155829000Y-86296500D02*
X155829000Y-86601800D01*
X155829000Y-86601800D02*
X155664000Y-86766900D01*
X155664000Y-86766900D02*
X155664000Y-93446600D01*
X155664000Y-93446600D02*
X154775000Y-94335600D01*
X154775000Y-94335600D02*
X154559000Y-94551500D01*
X155194000Y-87273400D02*
X143203600Y-99263800D01*
X143203600Y-99263800D02*
X140282800Y-99263800D01*
X155194000Y-87273400D02*
X155194000Y-86360000D01*
X155194000Y-86360000D02*
X155067000Y-86233000D01*
X155194000Y-92710000D02*
X155194000Y-87273400D01*
X194760000Y-90487500D02*
X195772000Y-90487500D01*
X194760000Y-93027500D02*
X195772000Y-93027500D01*
X180912000Y-89408000D02*
X183198000Y-91694000D01*
X183198000Y-91694000D02*
X183198000Y-93831800D01*
X166632600Y-75128800D02*
X167444600Y-74316800D01*
X165862000Y-96583500D02*
X166632600Y-95812900D01*
X166632600Y-95812900D02*
X166632600Y-75128800D01*
X181420000Y-88265000D02*
X186309000Y-88265000D01*
X186309000Y-88265000D02*
X188532000Y-90487500D01*
X188532000Y-90487500D02*
X193860000Y-90487500D01*
X193860000Y-93027500D02*
X193860000Y-90487500D01*
X176022000Y-90170000D02*
X167867500Y-82015500D01*
X167867500Y-82015500D02*
X167867500Y-74584400D01*
X167867500Y-74584400D02*
X167927500Y-74524400D01*
X167927500Y-74524400D02*
X167927500Y-74134800D01*
X167927500Y-74134800D02*
X167867500Y-74074800D01*
X167867500Y-74074800D02*
X167867500Y-68432500D01*
X167867500Y-68432500D02*
X168107500Y-68192500D01*
X168107500Y-68192500D02*
X168715400Y-68192500D01*
X179988000Y-89852500D02*
X179988000Y-90266800D01*
X179988000Y-90266800D02*
X179768000Y-90487500D01*
X179768000Y-90487500D02*
X176340000Y-90487500D01*
X176340000Y-90487500D02*
X176022000Y-90170000D01*
X179988000Y-89852500D02*
X180346000Y-89852500D01*
X157030800Y-79937500D02*
X154464800Y-77371500D01*
X154464800Y-77371500D02*
X150195000Y-77371500D01*
X150195000Y-77371500D02*
X149813700Y-77752800D01*
X149813700Y-77752800D02*
X143875300Y-77752800D01*
X143875300Y-77752800D02*
X141931200Y-79696900D01*
X141931200Y-79696900D02*
X141931200Y-80362100D01*
X141931200Y-80362100D02*
X135503000Y-86790300D01*
X135503000Y-86790300D02*
X135175300Y-86790300D01*
X135175300Y-86790300D02*
X127120700Y-94844900D01*
X127120700Y-94844900D02*
X127120700Y-111432600D01*
X127120700Y-111432600D02*
X124887400Y-113665900D01*
X124887400Y-113665900D02*
X121774300Y-113665900D01*
X121774300Y-113665900D02*
X118682000Y-110573600D01*
X118682000Y-110573600D02*
X118682000Y-109792000D01*
X118682000Y-109792000D02*
X118682000Y-109325000D01*
X118682000Y-109325000D02*
X118494000Y-109137500D01*
X118494000Y-109137500D02*
X118306000Y-108950000D01*
X118494000Y-109137500D02*
X118306500Y-108950000D01*
X157374400Y-77633400D02*
X157537600Y-77796600D01*
X157537600Y-77796600D02*
X157537600Y-80105500D01*
X157537600Y-80105500D02*
X157044200Y-80598900D01*
X157044200Y-80598900D02*
X148954900Y-80598900D01*
X148954900Y-80598900D02*
X144740800Y-84813000D01*
X144740800Y-84813000D02*
X144740800Y-85603200D01*
X144740800Y-85603200D02*
X133616400Y-96727600D01*
X133616400Y-96727600D02*
X133397600Y-96727600D01*
X133397600Y-96727600D02*
X127502100Y-102623100D01*
X127502100Y-102623100D02*
X127502100Y-111593900D01*
X127502100Y-111593900D02*
X125028100Y-114067900D01*
X125028100Y-114067900D02*
X118773700Y-114067900D01*
X118773700Y-114067900D02*
X115247100Y-110541300D01*
X115247100Y-110541300D02*
X115049300Y-110541300D01*
X115049300Y-110541300D02*
X115062000Y-110554000D01*
X115881500Y-108450000D02*
X115369000Y-108450000D01*
X115369000Y-108450000D02*
X114998000Y-108820000D01*
X114998000Y-108820000D02*
X114998000Y-110490000D01*
X114998000Y-110490000D02*
X115049300Y-110541300D01*
X115882000Y-108450000D02*
X115881500Y-108450000D01*
X118306000Y-107950000D02*
X118306500Y-107950000D01*
X118306500Y-107950000D02*
X119068000Y-107950000D01*
X119068000Y-107950000D02*
X119634000Y-108516000D01*
X120708000Y-108585000D02*
X119703000Y-108585000D01*
X119703000Y-108585000D02*
X119634000Y-108516000D01*
X161608000Y-91128000D02*
X162058000Y-91128000D01*
X162058000Y-91128000D02*
X162687000Y-91757500D01*
X157220000Y-89027000D02*
X157578000Y-89027000D01*
X154308000Y-111844000D02*
X153072000Y-111844000D01*
X153072000Y-111844000D02*
X152908000Y-112008000D01*
X152908000Y-112008000D02*
X152908000Y-111194000D01*
X154308000Y-109644000D02*
X153072000Y-109644000D01*
X153072000Y-109644000D02*
X152908000Y-109480000D01*
X152908000Y-110294000D02*
X152908000Y-109480000D01*
X162144100Y-85983200D02*
X162144100Y-88069500D01*
X162144100Y-88069500D02*
X156318400Y-93895200D01*
X156318400Y-93895200D02*
X156318400Y-108220100D01*
X156318400Y-108220100D02*
X156180000Y-108358500D01*
X156180000Y-108358500D02*
X156152000Y-108331000D01*
X156208000Y-109644000D02*
X156208000Y-108386000D01*
X156208000Y-108386000D02*
X156180000Y-108358500D01*
X156208000Y-111844000D02*
X156208000Y-109644000D01*
X155359000Y-104140000D02*
X155359000Y-102285700D01*
X155359000Y-102285700D02*
X155831800Y-101812900D01*
X155831800Y-101812900D02*
X155831800Y-98948800D01*
X159606200Y-104656100D02*
X159521900Y-104656100D01*
X159521900Y-104656100D02*
X158938000Y-105240000D01*
X155067000Y-106548000D02*
X155067000Y-104432000D01*
X155067000Y-104432000D02*
X155359000Y-104140000D01*
X159712000Y-96810500D02*
X160119800Y-97218300D01*
X160119800Y-97218300D02*
X160119800Y-101397710D01*
X160119800Y-101397710D02*
X159599999Y-101917511D01*
X159599999Y-101917511D02*
X159384100Y-102133410D01*
X122232000Y-110871000D02*
X124311900Y-108791100D01*
X124311900Y-108791100D02*
X124311900Y-90779000D01*
X124311900Y-90779000D02*
X127179500Y-87911400D01*
X122232000Y-110871000D02*
X121539000Y-110871000D01*
X133118000Y-109710100D02*
X133156900Y-109710100D01*
X133156900Y-109710100D02*
X135200700Y-107666300D01*
X135200700Y-107666300D02*
X135200700Y-99834500D01*
X135200700Y-99834500D02*
X144792300Y-90242900D01*
X144792300Y-90242900D02*
X144792300Y-86778300D01*
X133118000Y-109710100D02*
X133118000Y-109052000D01*
X134868000Y-110363000D02*
X133540000Y-110363000D01*
X133540000Y-110363000D02*
X133118000Y-109941000D01*
X133118000Y-109941000D02*
X133118000Y-109710100D01*
X133118000Y-107752000D02*
X132140000Y-107752000D01*
X131699000Y-106870000D02*
X131699000Y-107312000D01*
X131699000Y-107312000D02*
X132140000Y-107752000D01*
X132140000Y-107752000D02*
X133118000Y-107752000D01*
X132140000Y-107752000D02*
X130554000Y-107752000D01*
X130554000Y-107752000D02*
X130550000Y-107747000D01*
X133118000Y-108402000D02*
X131946000Y-108402000D01*
X131382000Y-108966000D02*
X131946000Y-108402000D01*
X131946000Y-108402000D02*
X133118000Y-108402000D01*
X131946000Y-108402000D02*
X130694000Y-108402000D01*
X130694000Y-108402000D02*
X130550000Y-108547000D01*
X136326900Y-105177300D02*
X136326900Y-100459100D01*
X136326900Y-100459100D02*
X145696100Y-91089900D01*
X145696100Y-91089900D02*
X145696100Y-85672600D01*
X128150000Y-107747000D02*
X128293500Y-107747000D01*
X128293500Y-107747000D02*
X128884900Y-107155600D01*
X128884900Y-107155600D02*
X128884900Y-107032400D01*
X145796000Y-81534000D02*
X143764000Y-79502000D01*
X143764000Y-79502000D02*
X142812000Y-79502000D01*
X176403000Y-81470500D02*
X177546000Y-82613500D01*
X177546000Y-82613500D02*
X188308000Y-82613500D01*
X188308000Y-82613500D02*
X189146000Y-81775000D01*
X176784000Y-82931000D02*
X177165000Y-83312000D01*
X177165000Y-83312000D02*
X188143000Y-83312000D01*
X188143000Y-83312000D02*
X189146000Y-84315000D01*
X176911000Y-84709000D02*
X177546000Y-84074000D01*
X177546000Y-84074000D02*
X184023000Y-84074000D01*
X184023000Y-84074000D02*
X185610000Y-85661500D01*
X185610000Y-85661500D02*
X187953000Y-85661500D01*
X187953000Y-85661500D02*
X189146000Y-86855000D01*
X180340000Y-113544000D02*
X181478000Y-113544000D01*
X181478000Y-113544000D02*
X186246000Y-108776000D01*
X180276000Y-109538000D02*
X180276000Y-110230000D01*
X180276000Y-110230000D02*
X180340000Y-110294000D01*
X180340000Y-110294000D02*
X179019000Y-110294000D01*
X179019000Y-110294000D02*
X178964000Y-110238000D01*
X152400700Y-76031100D02*
X150996200Y-76031100D01*
X150996200Y-76031100D02*
X149656000Y-77371300D01*
X149656000Y-77371300D02*
X141256200Y-77371300D01*
X141256200Y-77371300D02*
X133728000Y-84899500D01*
X133728000Y-84899500D02*
X133604000Y-84899500D01*
X133604000Y-84899500D02*
X132652000Y-85852000D01*
X133852000Y-84899500D02*
X133728000Y-84899500D01*
X133852000Y-89027000D02*
X134671700Y-88207300D01*
X134671700Y-88207300D02*
X137739400Y-88207300D01*
X137739400Y-88207300D02*
X143808100Y-82138600D01*
X143808100Y-82138600D02*
X146024200Y-82138600D01*
X146024200Y-82138600D02*
X150410000Y-77752800D01*
X150410000Y-77752800D02*
X153898400Y-77752800D01*
X153898400Y-77752800D02*
X156229400Y-80083800D01*
X133852000Y-89027000D02*
X133604000Y-89027000D01*
X133604000Y-89027000D02*
X132652000Y-89979500D01*
X133696000Y-93154500D02*
X144140000Y-82710500D01*
X144140000Y-82710500D02*
X146159000Y-82710500D01*
X146159000Y-82710500D02*
X150632600Y-78236900D01*
X133696000Y-93154500D02*
X133540000Y-93154500D01*
X133540000Y-93154500D02*
X132588000Y-94107000D01*
X133852000Y-93154500D02*
X133696000Y-93154500D01*
X133696000Y-97282000D02*
X133696000Y-97187500D01*
X133696000Y-97187500D02*
X145145000Y-85738500D01*
X145145000Y-85738500D02*
X145145000Y-84948000D01*
X145145000Y-84948000D02*
X149038900Y-81054100D01*
X149038900Y-81054100D02*
X160117400Y-81054100D01*
X160117400Y-81054100D02*
X160117400Y-81054000D01*
X133696000Y-97282000D02*
X133540000Y-97282000D01*
X133540000Y-97282000D02*
X132588000Y-98234500D01*
X133852000Y-97282000D02*
X133696000Y-97282000D01*
X177419000Y-86931500D02*
X178118000Y-87630000D01*
X178118000Y-87630000D02*
X187381000Y-87630000D01*
X187381000Y-87630000D02*
X189146000Y-89395000D01*
X147955000Y-85026500D02*
X152781000Y-85026500D01*
X152781000Y-85026500D02*
X152844500Y-84963000D01*
X160947101Y-86639399D02*
X161036000Y-86550500D01*
X156781500Y-86423500D02*
X156997399Y-86639399D01*
X156997399Y-86639399D02*
X160947101Y-86639399D01*
X171196000Y-86550500D02*
X180911500Y-96266000D01*
X180911500Y-96266000D02*
X180911500Y-96583500D01*
G36*
X116189149Y-105167967D02*
G01*
X116229543Y-105194957D01*
X116256533Y-105235351D01*
X116268500Y-105295510D01*
X116268500Y-105355017D01*
X116253311Y-105356513D01*
X116181492Y-105378299D01*
X116115304Y-105413678D01*
X116057289Y-105461289D01*
X116009678Y-105519304D01*
X115974299Y-105585492D01*
X115952513Y-105657311D01*
X115945157Y-105732000D01*
X115945157Y-105826778D01*
X115939608Y-105845071D01*
X115926122Y-105982000D01*
X115939608Y-106118929D01*
X115945157Y-106137222D01*
X115945157Y-106232000D01*
X115952513Y-106306689D01*
X115974299Y-106378508D01*
X116009678Y-106444696D01*
X116057289Y-106502711D01*
X116115304Y-106550322D01*
X116181492Y-106585701D01*
X116253311Y-106607487D01*
X116267009Y-106608836D01*
X116268500Y-106610327D01*
X116268500Y-106642186D01*
X116223289Y-106679289D01*
X116175678Y-106737304D01*
X116140299Y-106803492D01*
X116118513Y-106875311D01*
X116111157Y-106950000D01*
X116111157Y-107442157D01*
X115908541Y-107442157D01*
X115906947Y-107442000D01*
X115338558Y-107442000D01*
X115327967Y-107426149D01*
X115316000Y-107365990D01*
X115316000Y-105295510D01*
X115327967Y-105235351D01*
X115354957Y-105194957D01*
X115395351Y-105167967D01*
X115455510Y-105156000D01*
X116128990Y-105156000D01*
X116189149Y-105167967D01*
X116189149Y-105167967D01*
G37*
X116189149Y-105167967D02*
X116229543Y-105194957D01*
X116256533Y-105235351D01*
X116268500Y-105295510D01*
X116268500Y-105355017D01*
X116253311Y-105356513D01*
X116181492Y-105378299D01*
X116115304Y-105413678D01*
X116057289Y-105461289D01*
X116009678Y-105519304D01*
X115974299Y-105585492D01*
X115952513Y-105657311D01*
X115945157Y-105732000D01*
X115945157Y-105826778D01*
X115939608Y-105845071D01*
X115926122Y-105982000D01*
X115939608Y-106118929D01*
X115945157Y-106137222D01*
X115945157Y-106232000D01*
X115952513Y-106306689D01*
X115974299Y-106378508D01*
X116009678Y-106444696D01*
X116057289Y-106502711D01*
X116115304Y-106550322D01*
X116181492Y-106585701D01*
X116253311Y-106607487D01*
X116267009Y-106608836D01*
X116268500Y-106610327D01*
X116268500Y-106642186D01*
X116223289Y-106679289D01*
X116175678Y-106737304D01*
X116140299Y-106803492D01*
X116118513Y-106875311D01*
X116111157Y-106950000D01*
X116111157Y-107442157D01*
X115908541Y-107442157D01*
X115906947Y-107442000D01*
X115338558Y-107442000D01*
X115327967Y-107426149D01*
X115316000Y-107365990D01*
X115316000Y-105295510D01*
X115327967Y-105235351D01*
X115354957Y-105194957D01*
X115395351Y-105167967D01*
X115455510Y-105156000D01*
X116128990Y-105156000D01*
X116189149Y-105167967D01*
G36*
X118814601Y-106309256D02*
G01*
X118756558Y-106367299D01*
X118691234Y-106465062D01*
X118646239Y-106573691D01*
X118623300Y-106689010D01*
X118623300Y-106806590D01*
X118646239Y-106921909D01*
X118691234Y-107030538D01*
X118756558Y-107128301D01*
X118839699Y-107211442D01*
X118937462Y-107276766D01*
X119046091Y-107321761D01*
X119161410Y-107344700D01*
X119278990Y-107344700D01*
X119394309Y-107321761D01*
X119502938Y-107276766D01*
X119600701Y-107211442D01*
X119683842Y-107128301D01*
X119749166Y-107030538D01*
X119794161Y-106921909D01*
X119817100Y-106806590D01*
X119817100Y-106765255D01*
X119823249Y-106744985D01*
X119830600Y-106670347D01*
X119830600Y-106670345D01*
X119833057Y-106645401D01*
X119830600Y-106620457D01*
X119830600Y-104521000D01*
X120129490Y-104521000D01*
X120189649Y-104532967D01*
X120230043Y-104559957D01*
X120257033Y-104600351D01*
X120269000Y-104660510D01*
X120269000Y-107429490D01*
X120257033Y-107489649D01*
X120230043Y-107530043D01*
X120189649Y-107557033D01*
X120129490Y-107569000D01*
X119404514Y-107569000D01*
X119351595Y-107525571D01*
X119263343Y-107478399D01*
X119167585Y-107449351D01*
X119092947Y-107442000D01*
X119092944Y-107442000D01*
X119068000Y-107439543D01*
X119043056Y-107442000D01*
X118281053Y-107442000D01*
X118279459Y-107442157D01*
X118076843Y-107442157D01*
X118076843Y-106950000D01*
X118069487Y-106875311D01*
X118047701Y-106803492D01*
X118012322Y-106737304D01*
X117983000Y-106701575D01*
X117983000Y-106610574D01*
X117984714Y-106608863D01*
X117998689Y-106607487D01*
X118070508Y-106585701D01*
X118136696Y-106550322D01*
X118194711Y-106502711D01*
X118242322Y-106444696D01*
X118277701Y-106378508D01*
X118299487Y-106306689D01*
X118306843Y-106232000D01*
X118306843Y-106137385D01*
X118312262Y-106119581D01*
X118312294Y-106119255D01*
X118312393Y-106118930D01*
X118319254Y-106049265D01*
X118325877Y-105982664D01*
X118322500Y-105948039D01*
X118322500Y-105057691D01*
X118312393Y-104955070D01*
X118306843Y-104936774D01*
X118306843Y-104842000D01*
X118299487Y-104767311D01*
X118277701Y-104695492D01*
X118242322Y-104629304D01*
X118194711Y-104571289D01*
X118136696Y-104523678D01*
X118131686Y-104521000D01*
X118814601Y-104521000D01*
X118814601Y-106309256D01*
X118814601Y-106309256D01*
G37*
X118814601Y-106309256D02*
X118756558Y-106367299D01*
X118691234Y-106465062D01*
X118646239Y-106573691D01*
X118623300Y-106689010D01*
X118623300Y-106806590D01*
X118646239Y-106921909D01*
X118691234Y-107030538D01*
X118756558Y-107128301D01*
X118839699Y-107211442D01*
X118937462Y-107276766D01*
X119046091Y-107321761D01*
X119161410Y-107344700D01*
X119278990Y-107344700D01*
X119394309Y-107321761D01*
X119502938Y-107276766D01*
X119600701Y-107211442D01*
X119683842Y-107128301D01*
X119749166Y-107030538D01*
X119794161Y-106921909D01*
X119817100Y-106806590D01*
X119817100Y-106765255D01*
X119823249Y-106744985D01*
X119830600Y-106670347D01*
X119830600Y-106670345D01*
X119833057Y-106645401D01*
X119830600Y-106620457D01*
X119830600Y-104521000D01*
X120129490Y-104521000D01*
X120189649Y-104532967D01*
X120230043Y-104559957D01*
X120257033Y-104600351D01*
X120269000Y-104660510D01*
X120269000Y-107429490D01*
X120257033Y-107489649D01*
X120230043Y-107530043D01*
X120189649Y-107557033D01*
X120129490Y-107569000D01*
X119404514Y-107569000D01*
X119351595Y-107525571D01*
X119263343Y-107478399D01*
X119167585Y-107449351D01*
X119092947Y-107442000D01*
X119092944Y-107442000D01*
X119068000Y-107439543D01*
X119043056Y-107442000D01*
X118281053Y-107442000D01*
X118279459Y-107442157D01*
X118076843Y-107442157D01*
X118076843Y-106950000D01*
X118069487Y-106875311D01*
X118047701Y-106803492D01*
X118012322Y-106737304D01*
X117983000Y-106701575D01*
X117983000Y-106610574D01*
X117984714Y-106608863D01*
X117998689Y-106607487D01*
X118070508Y-106585701D01*
X118136696Y-106550322D01*
X118194711Y-106502711D01*
X118242322Y-106444696D01*
X118277701Y-106378508D01*
X118299487Y-106306689D01*
X118306843Y-106232000D01*
X118306843Y-106137385D01*
X118312262Y-106119581D01*
X118312294Y-106119255D01*
X118312393Y-106118930D01*
X118319254Y-106049265D01*
X118325877Y-105982664D01*
X118322500Y-105948039D01*
X118322500Y-105057691D01*
X118312393Y-104955070D01*
X118306843Y-104936774D01*
X118306843Y-104842000D01*
X118299487Y-104767311D01*
X118277701Y-104695492D01*
X118242322Y-104629304D01*
X118194711Y-104571289D01*
X118136696Y-104523678D01*
X118131686Y-104521000D01*
X118814601Y-104521000D01*
X118814601Y-106309256D01*
M02*
