G04 #@! TF.GenerationSoftware,KiCad,Pcbnew,(5.1.4)-1*
G04 #@! TF.CreationDate,2020-06-05T19:42:11-05:00*
G04 #@! TF.ProjectId,Pulse_Oximeter,50756c73-655f-44f7-9869-6d657465722e,rev?*
G04 #@! TF.SameCoordinates,Original*
G04 #@! TF.FileFunction,Paste,Top*
G04 #@! TF.FilePolarity,Positive*
%FSLAX46Y46*%
G04 Gerber Fmt 4.6, Leading zero omitted, Abs format (unit mm)*
G04 Created by KiCad (PCBNEW (5.1.4)-1) date 2020-06-05 19:42:11*
%MOMM*%
%LPD*%
G04 APERTURE LIST*
%ADD10R,0.500000X0.600000*%
%ADD11C,0.100000*%
%ADD12C,0.600000*%
%ADD13R,0.600000X0.500000*%
%ADD14R,2.550000X2.700000*%
%ADD15R,1.600000X1.000000*%
%ADD16R,1.000000X1.600000*%
%ADD17R,2.500000X1.800000*%
%ADD18R,0.450000X0.600000*%
%ADD19R,0.700000X0.600000*%
%ADD20R,0.600000X0.450000*%
%ADD21R,0.600000X0.700000*%
%ADD22R,1.200000X1.500000*%
%ADD23R,0.600000X0.400000*%
%ADD24R,0.400000X0.600000*%
%ADD25R,0.450000X0.700000*%
%ADD26R,0.900000X0.800000*%
%ADD27R,3.200000X0.800000*%
%ADD28R,1.300000X1.300000*%
%ADD29R,2.000000X1.300000*%
%ADD30R,0.700000X0.250000*%
%ADD31R,0.366000X0.660000*%
%ADD32O,0.750000X0.300000*%
%ADD33O,0.300000X0.750000*%
%ADD34R,0.730000X0.730000*%
%ADD35R,0.400000X1.060000*%
%ADD36R,0.300000X0.750000*%
%ADD37C,0.300000*%
%ADD38R,0.250000X0.700000*%
%ADD39R,0.714000X0.498000*%
%ADD40R,0.750000X0.300000*%
%ADD41R,1.550000X0.600000*%
%ADD42R,0.650000X1.060000*%
%ADD43R,0.400000X0.650000*%
%ADD44R,0.650000X0.400000*%
%ADD45R,1.100000X1.300000*%
G04 APERTURE END LIST*
D10*
X155067000Y-103400000D03*
X155067000Y-104500000D03*
D11*
G36*
X201561703Y-88918222D02*
G01*
X201576264Y-88920382D01*
X201590543Y-88923959D01*
X201604403Y-88928918D01*
X201617710Y-88935212D01*
X201630336Y-88942780D01*
X201642159Y-88951548D01*
X201653066Y-88961434D01*
X201662952Y-88972341D01*
X201671720Y-88984164D01*
X201679288Y-88996790D01*
X201685582Y-89010097D01*
X201690541Y-89023957D01*
X201694118Y-89038236D01*
X201696278Y-89052797D01*
X201697000Y-89067500D01*
X201697000Y-89367500D01*
X201696278Y-89382203D01*
X201694118Y-89396764D01*
X201690541Y-89411043D01*
X201685582Y-89424903D01*
X201679288Y-89438210D01*
X201671720Y-89450836D01*
X201662952Y-89462659D01*
X201653066Y-89473566D01*
X201642159Y-89483452D01*
X201630336Y-89492220D01*
X201617710Y-89499788D01*
X201604403Y-89506082D01*
X201590543Y-89511041D01*
X201576264Y-89514618D01*
X201561703Y-89516778D01*
X201547000Y-89517500D01*
X199897000Y-89517500D01*
X199882297Y-89516778D01*
X199867736Y-89514618D01*
X199853457Y-89511041D01*
X199839597Y-89506082D01*
X199826290Y-89499788D01*
X199813664Y-89492220D01*
X199801841Y-89483452D01*
X199790934Y-89473566D01*
X199781048Y-89462659D01*
X199772280Y-89450836D01*
X199764712Y-89438210D01*
X199758418Y-89424903D01*
X199753459Y-89411043D01*
X199749882Y-89396764D01*
X199747722Y-89382203D01*
X199747000Y-89367500D01*
X199747000Y-89067500D01*
X199747722Y-89052797D01*
X199749882Y-89038236D01*
X199753459Y-89023957D01*
X199758418Y-89010097D01*
X199764712Y-88996790D01*
X199772280Y-88984164D01*
X199781048Y-88972341D01*
X199790934Y-88961434D01*
X199801841Y-88951548D01*
X199813664Y-88942780D01*
X199826290Y-88935212D01*
X199839597Y-88928918D01*
X199853457Y-88923959D01*
X199867736Y-88920382D01*
X199882297Y-88918222D01*
X199897000Y-88917500D01*
X201547000Y-88917500D01*
X201561703Y-88918222D01*
X201561703Y-88918222D01*
G37*
D12*
X200722000Y-89217500D03*
D11*
G36*
X201561703Y-90188222D02*
G01*
X201576264Y-90190382D01*
X201590543Y-90193959D01*
X201604403Y-90198918D01*
X201617710Y-90205212D01*
X201630336Y-90212780D01*
X201642159Y-90221548D01*
X201653066Y-90231434D01*
X201662952Y-90242341D01*
X201671720Y-90254164D01*
X201679288Y-90266790D01*
X201685582Y-90280097D01*
X201690541Y-90293957D01*
X201694118Y-90308236D01*
X201696278Y-90322797D01*
X201697000Y-90337500D01*
X201697000Y-90637500D01*
X201696278Y-90652203D01*
X201694118Y-90666764D01*
X201690541Y-90681043D01*
X201685582Y-90694903D01*
X201679288Y-90708210D01*
X201671720Y-90720836D01*
X201662952Y-90732659D01*
X201653066Y-90743566D01*
X201642159Y-90753452D01*
X201630336Y-90762220D01*
X201617710Y-90769788D01*
X201604403Y-90776082D01*
X201590543Y-90781041D01*
X201576264Y-90784618D01*
X201561703Y-90786778D01*
X201547000Y-90787500D01*
X199897000Y-90787500D01*
X199882297Y-90786778D01*
X199867736Y-90784618D01*
X199853457Y-90781041D01*
X199839597Y-90776082D01*
X199826290Y-90769788D01*
X199813664Y-90762220D01*
X199801841Y-90753452D01*
X199790934Y-90743566D01*
X199781048Y-90732659D01*
X199772280Y-90720836D01*
X199764712Y-90708210D01*
X199758418Y-90694903D01*
X199753459Y-90681043D01*
X199749882Y-90666764D01*
X199747722Y-90652203D01*
X199747000Y-90637500D01*
X199747000Y-90337500D01*
X199747722Y-90322797D01*
X199749882Y-90308236D01*
X199753459Y-90293957D01*
X199758418Y-90280097D01*
X199764712Y-90266790D01*
X199772280Y-90254164D01*
X199781048Y-90242341D01*
X199790934Y-90231434D01*
X199801841Y-90221548D01*
X199813664Y-90212780D01*
X199826290Y-90205212D01*
X199839597Y-90198918D01*
X199853457Y-90193959D01*
X199867736Y-90190382D01*
X199882297Y-90188222D01*
X199897000Y-90187500D01*
X201547000Y-90187500D01*
X201561703Y-90188222D01*
X201561703Y-90188222D01*
G37*
D12*
X200722000Y-90487500D03*
D11*
G36*
X201561703Y-91458222D02*
G01*
X201576264Y-91460382D01*
X201590543Y-91463959D01*
X201604403Y-91468918D01*
X201617710Y-91475212D01*
X201630336Y-91482780D01*
X201642159Y-91491548D01*
X201653066Y-91501434D01*
X201662952Y-91512341D01*
X201671720Y-91524164D01*
X201679288Y-91536790D01*
X201685582Y-91550097D01*
X201690541Y-91563957D01*
X201694118Y-91578236D01*
X201696278Y-91592797D01*
X201697000Y-91607500D01*
X201697000Y-91907500D01*
X201696278Y-91922203D01*
X201694118Y-91936764D01*
X201690541Y-91951043D01*
X201685582Y-91964903D01*
X201679288Y-91978210D01*
X201671720Y-91990836D01*
X201662952Y-92002659D01*
X201653066Y-92013566D01*
X201642159Y-92023452D01*
X201630336Y-92032220D01*
X201617710Y-92039788D01*
X201604403Y-92046082D01*
X201590543Y-92051041D01*
X201576264Y-92054618D01*
X201561703Y-92056778D01*
X201547000Y-92057500D01*
X199897000Y-92057500D01*
X199882297Y-92056778D01*
X199867736Y-92054618D01*
X199853457Y-92051041D01*
X199839597Y-92046082D01*
X199826290Y-92039788D01*
X199813664Y-92032220D01*
X199801841Y-92023452D01*
X199790934Y-92013566D01*
X199781048Y-92002659D01*
X199772280Y-91990836D01*
X199764712Y-91978210D01*
X199758418Y-91964903D01*
X199753459Y-91951043D01*
X199749882Y-91936764D01*
X199747722Y-91922203D01*
X199747000Y-91907500D01*
X199747000Y-91607500D01*
X199747722Y-91592797D01*
X199749882Y-91578236D01*
X199753459Y-91563957D01*
X199758418Y-91550097D01*
X199764712Y-91536790D01*
X199772280Y-91524164D01*
X199781048Y-91512341D01*
X199790934Y-91501434D01*
X199801841Y-91491548D01*
X199813664Y-91482780D01*
X199826290Y-91475212D01*
X199839597Y-91468918D01*
X199853457Y-91463959D01*
X199867736Y-91460382D01*
X199882297Y-91458222D01*
X199897000Y-91457500D01*
X201547000Y-91457500D01*
X201561703Y-91458222D01*
X201561703Y-91458222D01*
G37*
D12*
X200722000Y-91757500D03*
D11*
G36*
X201561703Y-92728222D02*
G01*
X201576264Y-92730382D01*
X201590543Y-92733959D01*
X201604403Y-92738918D01*
X201617710Y-92745212D01*
X201630336Y-92752780D01*
X201642159Y-92761548D01*
X201653066Y-92771434D01*
X201662952Y-92782341D01*
X201671720Y-92794164D01*
X201679288Y-92806790D01*
X201685582Y-92820097D01*
X201690541Y-92833957D01*
X201694118Y-92848236D01*
X201696278Y-92862797D01*
X201697000Y-92877500D01*
X201697000Y-93177500D01*
X201696278Y-93192203D01*
X201694118Y-93206764D01*
X201690541Y-93221043D01*
X201685582Y-93234903D01*
X201679288Y-93248210D01*
X201671720Y-93260836D01*
X201662952Y-93272659D01*
X201653066Y-93283566D01*
X201642159Y-93293452D01*
X201630336Y-93302220D01*
X201617710Y-93309788D01*
X201604403Y-93316082D01*
X201590543Y-93321041D01*
X201576264Y-93324618D01*
X201561703Y-93326778D01*
X201547000Y-93327500D01*
X199897000Y-93327500D01*
X199882297Y-93326778D01*
X199867736Y-93324618D01*
X199853457Y-93321041D01*
X199839597Y-93316082D01*
X199826290Y-93309788D01*
X199813664Y-93302220D01*
X199801841Y-93293452D01*
X199790934Y-93283566D01*
X199781048Y-93272659D01*
X199772280Y-93260836D01*
X199764712Y-93248210D01*
X199758418Y-93234903D01*
X199753459Y-93221043D01*
X199749882Y-93206764D01*
X199747722Y-93192203D01*
X199747000Y-93177500D01*
X199747000Y-92877500D01*
X199747722Y-92862797D01*
X199749882Y-92848236D01*
X199753459Y-92833957D01*
X199758418Y-92820097D01*
X199764712Y-92806790D01*
X199772280Y-92794164D01*
X199781048Y-92782341D01*
X199790934Y-92771434D01*
X199801841Y-92761548D01*
X199813664Y-92752780D01*
X199826290Y-92745212D01*
X199839597Y-92738918D01*
X199853457Y-92733959D01*
X199867736Y-92730382D01*
X199882297Y-92728222D01*
X199897000Y-92727500D01*
X201547000Y-92727500D01*
X201561703Y-92728222D01*
X201561703Y-92728222D01*
G37*
D12*
X200722000Y-93027500D03*
D11*
G36*
X196611703Y-92728222D02*
G01*
X196626264Y-92730382D01*
X196640543Y-92733959D01*
X196654403Y-92738918D01*
X196667710Y-92745212D01*
X196680336Y-92752780D01*
X196692159Y-92761548D01*
X196703066Y-92771434D01*
X196712952Y-92782341D01*
X196721720Y-92794164D01*
X196729288Y-92806790D01*
X196735582Y-92820097D01*
X196740541Y-92833957D01*
X196744118Y-92848236D01*
X196746278Y-92862797D01*
X196747000Y-92877500D01*
X196747000Y-93177500D01*
X196746278Y-93192203D01*
X196744118Y-93206764D01*
X196740541Y-93221043D01*
X196735582Y-93234903D01*
X196729288Y-93248210D01*
X196721720Y-93260836D01*
X196712952Y-93272659D01*
X196703066Y-93283566D01*
X196692159Y-93293452D01*
X196680336Y-93302220D01*
X196667710Y-93309788D01*
X196654403Y-93316082D01*
X196640543Y-93321041D01*
X196626264Y-93324618D01*
X196611703Y-93326778D01*
X196597000Y-93327500D01*
X194947000Y-93327500D01*
X194932297Y-93326778D01*
X194917736Y-93324618D01*
X194903457Y-93321041D01*
X194889597Y-93316082D01*
X194876290Y-93309788D01*
X194863664Y-93302220D01*
X194851841Y-93293452D01*
X194840934Y-93283566D01*
X194831048Y-93272659D01*
X194822280Y-93260836D01*
X194814712Y-93248210D01*
X194808418Y-93234903D01*
X194803459Y-93221043D01*
X194799882Y-93206764D01*
X194797722Y-93192203D01*
X194797000Y-93177500D01*
X194797000Y-92877500D01*
X194797722Y-92862797D01*
X194799882Y-92848236D01*
X194803459Y-92833957D01*
X194808418Y-92820097D01*
X194814712Y-92806790D01*
X194822280Y-92794164D01*
X194831048Y-92782341D01*
X194840934Y-92771434D01*
X194851841Y-92761548D01*
X194863664Y-92752780D01*
X194876290Y-92745212D01*
X194889597Y-92738918D01*
X194903457Y-92733959D01*
X194917736Y-92730382D01*
X194932297Y-92728222D01*
X194947000Y-92727500D01*
X196597000Y-92727500D01*
X196611703Y-92728222D01*
X196611703Y-92728222D01*
G37*
D12*
X195772000Y-93027500D03*
D11*
G36*
X196611703Y-91458222D02*
G01*
X196626264Y-91460382D01*
X196640543Y-91463959D01*
X196654403Y-91468918D01*
X196667710Y-91475212D01*
X196680336Y-91482780D01*
X196692159Y-91491548D01*
X196703066Y-91501434D01*
X196712952Y-91512341D01*
X196721720Y-91524164D01*
X196729288Y-91536790D01*
X196735582Y-91550097D01*
X196740541Y-91563957D01*
X196744118Y-91578236D01*
X196746278Y-91592797D01*
X196747000Y-91607500D01*
X196747000Y-91907500D01*
X196746278Y-91922203D01*
X196744118Y-91936764D01*
X196740541Y-91951043D01*
X196735582Y-91964903D01*
X196729288Y-91978210D01*
X196721720Y-91990836D01*
X196712952Y-92002659D01*
X196703066Y-92013566D01*
X196692159Y-92023452D01*
X196680336Y-92032220D01*
X196667710Y-92039788D01*
X196654403Y-92046082D01*
X196640543Y-92051041D01*
X196626264Y-92054618D01*
X196611703Y-92056778D01*
X196597000Y-92057500D01*
X194947000Y-92057500D01*
X194932297Y-92056778D01*
X194917736Y-92054618D01*
X194903457Y-92051041D01*
X194889597Y-92046082D01*
X194876290Y-92039788D01*
X194863664Y-92032220D01*
X194851841Y-92023452D01*
X194840934Y-92013566D01*
X194831048Y-92002659D01*
X194822280Y-91990836D01*
X194814712Y-91978210D01*
X194808418Y-91964903D01*
X194803459Y-91951043D01*
X194799882Y-91936764D01*
X194797722Y-91922203D01*
X194797000Y-91907500D01*
X194797000Y-91607500D01*
X194797722Y-91592797D01*
X194799882Y-91578236D01*
X194803459Y-91563957D01*
X194808418Y-91550097D01*
X194814712Y-91536790D01*
X194822280Y-91524164D01*
X194831048Y-91512341D01*
X194840934Y-91501434D01*
X194851841Y-91491548D01*
X194863664Y-91482780D01*
X194876290Y-91475212D01*
X194889597Y-91468918D01*
X194903457Y-91463959D01*
X194917736Y-91460382D01*
X194932297Y-91458222D01*
X194947000Y-91457500D01*
X196597000Y-91457500D01*
X196611703Y-91458222D01*
X196611703Y-91458222D01*
G37*
D12*
X195772000Y-91757500D03*
D11*
G36*
X196611703Y-90188222D02*
G01*
X196626264Y-90190382D01*
X196640543Y-90193959D01*
X196654403Y-90198918D01*
X196667710Y-90205212D01*
X196680336Y-90212780D01*
X196692159Y-90221548D01*
X196703066Y-90231434D01*
X196712952Y-90242341D01*
X196721720Y-90254164D01*
X196729288Y-90266790D01*
X196735582Y-90280097D01*
X196740541Y-90293957D01*
X196744118Y-90308236D01*
X196746278Y-90322797D01*
X196747000Y-90337500D01*
X196747000Y-90637500D01*
X196746278Y-90652203D01*
X196744118Y-90666764D01*
X196740541Y-90681043D01*
X196735582Y-90694903D01*
X196729288Y-90708210D01*
X196721720Y-90720836D01*
X196712952Y-90732659D01*
X196703066Y-90743566D01*
X196692159Y-90753452D01*
X196680336Y-90762220D01*
X196667710Y-90769788D01*
X196654403Y-90776082D01*
X196640543Y-90781041D01*
X196626264Y-90784618D01*
X196611703Y-90786778D01*
X196597000Y-90787500D01*
X194947000Y-90787500D01*
X194932297Y-90786778D01*
X194917736Y-90784618D01*
X194903457Y-90781041D01*
X194889597Y-90776082D01*
X194876290Y-90769788D01*
X194863664Y-90762220D01*
X194851841Y-90753452D01*
X194840934Y-90743566D01*
X194831048Y-90732659D01*
X194822280Y-90720836D01*
X194814712Y-90708210D01*
X194808418Y-90694903D01*
X194803459Y-90681043D01*
X194799882Y-90666764D01*
X194797722Y-90652203D01*
X194797000Y-90637500D01*
X194797000Y-90337500D01*
X194797722Y-90322797D01*
X194799882Y-90308236D01*
X194803459Y-90293957D01*
X194808418Y-90280097D01*
X194814712Y-90266790D01*
X194822280Y-90254164D01*
X194831048Y-90242341D01*
X194840934Y-90231434D01*
X194851841Y-90221548D01*
X194863664Y-90212780D01*
X194876290Y-90205212D01*
X194889597Y-90198918D01*
X194903457Y-90193959D01*
X194917736Y-90190382D01*
X194932297Y-90188222D01*
X194947000Y-90187500D01*
X196597000Y-90187500D01*
X196611703Y-90188222D01*
X196611703Y-90188222D01*
G37*
D12*
X195772000Y-90487500D03*
D11*
G36*
X196611703Y-88918222D02*
G01*
X196626264Y-88920382D01*
X196640543Y-88923959D01*
X196654403Y-88928918D01*
X196667710Y-88935212D01*
X196680336Y-88942780D01*
X196692159Y-88951548D01*
X196703066Y-88961434D01*
X196712952Y-88972341D01*
X196721720Y-88984164D01*
X196729288Y-88996790D01*
X196735582Y-89010097D01*
X196740541Y-89023957D01*
X196744118Y-89038236D01*
X196746278Y-89052797D01*
X196747000Y-89067500D01*
X196747000Y-89367500D01*
X196746278Y-89382203D01*
X196744118Y-89396764D01*
X196740541Y-89411043D01*
X196735582Y-89424903D01*
X196729288Y-89438210D01*
X196721720Y-89450836D01*
X196712952Y-89462659D01*
X196703066Y-89473566D01*
X196692159Y-89483452D01*
X196680336Y-89492220D01*
X196667710Y-89499788D01*
X196654403Y-89506082D01*
X196640543Y-89511041D01*
X196626264Y-89514618D01*
X196611703Y-89516778D01*
X196597000Y-89517500D01*
X194947000Y-89517500D01*
X194932297Y-89516778D01*
X194917736Y-89514618D01*
X194903457Y-89511041D01*
X194889597Y-89506082D01*
X194876290Y-89499788D01*
X194863664Y-89492220D01*
X194851841Y-89483452D01*
X194840934Y-89473566D01*
X194831048Y-89462659D01*
X194822280Y-89450836D01*
X194814712Y-89438210D01*
X194808418Y-89424903D01*
X194803459Y-89411043D01*
X194799882Y-89396764D01*
X194797722Y-89382203D01*
X194797000Y-89367500D01*
X194797000Y-89067500D01*
X194797722Y-89052797D01*
X194799882Y-89038236D01*
X194803459Y-89023957D01*
X194808418Y-89010097D01*
X194814712Y-88996790D01*
X194822280Y-88984164D01*
X194831048Y-88972341D01*
X194840934Y-88961434D01*
X194851841Y-88951548D01*
X194863664Y-88942780D01*
X194876290Y-88935212D01*
X194889597Y-88928918D01*
X194903457Y-88923959D01*
X194917736Y-88920382D01*
X194932297Y-88918222D01*
X194947000Y-88917500D01*
X196597000Y-88917500D01*
X196611703Y-88918222D01*
X196611703Y-88918222D01*
G37*
D12*
X195772000Y-89217500D03*
D13*
X183557000Y-85598000D03*
X182457000Y-85598000D03*
X183557000Y-86487000D03*
X182457000Y-86487000D03*
X182457000Y-87376000D03*
X183557000Y-87376000D03*
X179346000Y-87947500D03*
X180446000Y-87947500D03*
D14*
X200343000Y-99695000D03*
X193993000Y-99695000D03*
D15*
X176212000Y-96544000D03*
X176212000Y-99544000D03*
D10*
X177228000Y-92414000D03*
X177228000Y-93514000D03*
X174244000Y-103992000D03*
X174244000Y-102892000D03*
X175387000Y-101177000D03*
X175387000Y-102277000D03*
D16*
X171220000Y-96837500D03*
X174220000Y-96837500D03*
D10*
X170180000Y-103992000D03*
X170180000Y-102892000D03*
D13*
X163872000Y-96329500D03*
X162772000Y-96329500D03*
D10*
X160338000Y-99292500D03*
X160338000Y-98192500D03*
X115316000Y-106574000D03*
X115316000Y-107674000D03*
D13*
X120418000Y-102235000D03*
X121518000Y-102235000D03*
D10*
X117983000Y-104098000D03*
X117983000Y-105198000D03*
D13*
X137118000Y-110680000D03*
X138218000Y-110680000D03*
D10*
X141796000Y-71543000D03*
X141796000Y-70443000D03*
X161544000Y-82762000D03*
X161544000Y-83862000D03*
X143320000Y-81746000D03*
X143320000Y-82846000D03*
X142430000Y-81746000D03*
X142430000Y-82846000D03*
X160655000Y-82762000D03*
X160655000Y-83862000D03*
X144208000Y-81746000D03*
X144208000Y-82846000D03*
X159766000Y-83862000D03*
X159766000Y-82762000D03*
X145098000Y-82846000D03*
X145098000Y-81746000D03*
D13*
X154030000Y-73469500D03*
X152930000Y-73469500D03*
X151490000Y-72580500D03*
X150390000Y-72580500D03*
X154030000Y-74358500D03*
X152930000Y-74358500D03*
X152930000Y-75247500D03*
X154030000Y-75247500D03*
X151490000Y-73469500D03*
X150390000Y-73469500D03*
D10*
X162433000Y-82762000D03*
X162433000Y-83862000D03*
D13*
X151490000Y-74358500D03*
X150390000Y-74358500D03*
X150390000Y-75247500D03*
X151490000Y-75247500D03*
X153522000Y-91948000D03*
X152422000Y-91948000D03*
X149437000Y-92011500D03*
X150537000Y-92011500D03*
X153522000Y-91122500D03*
X152422000Y-91122500D03*
X149437000Y-91122500D03*
X150537000Y-91122500D03*
X152422000Y-90233500D03*
X153522000Y-90233500D03*
X150537000Y-90233500D03*
X149437000Y-90233500D03*
D10*
X156782000Y-91228000D03*
X156782000Y-90128000D03*
X157670000Y-91228000D03*
X157670000Y-90128000D03*
X158560000Y-90128000D03*
X158560000Y-91228000D03*
X156146000Y-110194000D03*
X156146000Y-111294000D03*
X155258000Y-111294000D03*
X155258000Y-110194000D03*
X155956000Y-104500000D03*
X155956000Y-103400000D03*
X156845000Y-103400000D03*
X156845000Y-104500000D03*
D13*
X159808000Y-108902000D03*
X158708000Y-108902000D03*
X158708000Y-105982000D03*
X159808000Y-105982000D03*
X154030000Y-107442000D03*
X152930000Y-107442000D03*
D10*
X150558000Y-110405000D03*
X150558000Y-109305000D03*
X157036000Y-111294000D03*
X157036000Y-110194000D03*
X125984000Y-72094000D03*
X125984000Y-73194000D03*
X127762000Y-73194000D03*
X127762000Y-72094000D03*
X126873000Y-72094000D03*
X126873000Y-73194000D03*
X128651000Y-73194000D03*
X128651000Y-72094000D03*
X136652000Y-107527000D03*
X136652000Y-108627000D03*
X135763000Y-108627000D03*
X135763000Y-107527000D03*
X133985000Y-107527000D03*
X133985000Y-108627000D03*
X134874000Y-108627000D03*
X134874000Y-107527000D03*
D13*
X144756000Y-80729000D03*
X143656000Y-80729000D03*
D10*
X125476000Y-109516000D03*
X125476000Y-108416000D03*
X126365000Y-109516000D03*
X126365000Y-108416000D03*
X127254000Y-108416000D03*
X127254000Y-109516000D03*
X128143000Y-108416000D03*
X128143000Y-109516000D03*
X126365000Y-111612000D03*
X126365000Y-110512000D03*
X127254000Y-110512000D03*
X127254000Y-111612000D03*
X128143000Y-111612000D03*
X128143000Y-110512000D03*
X125476000Y-110512000D03*
X125476000Y-111612000D03*
X185801000Y-76051500D03*
X185801000Y-74951500D03*
X184912000Y-76051500D03*
X184912000Y-74951500D03*
X118554000Y-91609000D03*
X118554000Y-90509000D03*
X186690000Y-76051500D03*
X186690000Y-74951500D03*
X187579000Y-74951500D03*
X187579000Y-76051500D03*
D13*
X178414000Y-107950000D03*
X177314000Y-107950000D03*
X177314000Y-103759000D03*
X178414000Y-103759000D03*
X184806000Y-66992500D03*
X185906000Y-66992500D03*
X122894000Y-70866000D03*
X123994000Y-70866000D03*
D17*
X196056000Y-74993500D03*
X200056000Y-74993500D03*
D18*
X178816000Y-94839500D03*
X178816000Y-92739500D03*
D19*
X148717000Y-108182000D03*
X148717000Y-107082000D03*
D20*
X122712000Y-72707500D03*
X124812000Y-72707500D03*
D21*
X172254000Y-69405500D03*
X171154000Y-69405500D03*
X172254000Y-81724500D03*
X171154000Y-81724500D03*
X171154000Y-77597000D03*
X172254000Y-77597000D03*
X171154000Y-73469500D03*
X172254000Y-73469500D03*
X136483000Y-86360000D03*
X137583000Y-86360000D03*
X137583000Y-90487500D03*
X136483000Y-90487500D03*
X136483000Y-94615000D03*
X137583000Y-94615000D03*
X136483000Y-98742500D03*
X137583000Y-98742500D03*
D22*
X168402000Y-99775000D03*
X168402000Y-97075000D03*
D23*
X149288000Y-93022000D03*
X149288000Y-93922000D03*
X150686000Y-93922000D03*
X150686000Y-93022000D03*
D24*
X157220000Y-92456000D03*
X158120000Y-92456000D03*
D25*
X175974000Y-92853000D03*
X174674000Y-92853000D03*
X175324000Y-94853000D03*
D26*
X173212000Y-94803000D03*
X173212000Y-92903000D03*
X171212000Y-93853000D03*
D25*
X143637000Y-69993000D03*
X144287000Y-71993000D03*
X142987000Y-71993000D03*
D23*
X184658000Y-87561000D03*
X184658000Y-88461000D03*
X184658000Y-90112000D03*
X184658000Y-89212000D03*
X184658000Y-90863000D03*
X184658000Y-91763000D03*
D24*
X180346000Y-90805000D03*
X179446000Y-90805000D03*
X180346000Y-89852500D03*
X179446000Y-89852500D03*
X197490000Y-94996000D03*
X196590000Y-94996000D03*
D27*
X199962000Y-94704000D03*
X199962000Y-96304000D03*
D24*
X180346000Y-88900000D03*
X179446000Y-88900000D03*
X196590000Y-96012000D03*
X197490000Y-96012000D03*
D23*
X194818000Y-95054000D03*
X194818000Y-95954000D03*
X176022000Y-91699500D03*
X176022000Y-90799500D03*
X171196000Y-103892000D03*
X171196000Y-102992000D03*
X177228000Y-95319000D03*
X177228000Y-94419000D03*
D24*
X165931000Y-94996000D03*
X165031000Y-94996000D03*
D27*
X168402000Y-95288000D03*
X168402000Y-93688000D03*
D24*
X165031000Y-93980000D03*
X165931000Y-93980000D03*
D23*
X172212000Y-102992000D03*
X172212000Y-103892000D03*
X173228000Y-102992000D03*
X173228000Y-103892000D03*
X118364000Y-111448000D03*
X118364000Y-110548000D03*
X115888000Y-111448000D03*
X115888000Y-110548000D03*
D24*
X141790000Y-73215500D03*
X142690000Y-73215500D03*
X144404000Y-73215500D03*
X143504000Y-73215500D03*
X143695000Y-68770500D03*
X144595000Y-68770500D03*
X141980000Y-68770500D03*
X142880000Y-68770500D03*
X142870000Y-67691000D03*
X143770000Y-67691000D03*
X158120000Y-89027000D03*
X157220000Y-89027000D03*
X158808000Y-107950000D03*
X159708000Y-107950000D03*
X158808000Y-106934000D03*
X159708000Y-106934000D03*
D23*
X148717000Y-109988000D03*
X148717000Y-109088000D03*
D24*
X143758000Y-79756000D03*
X144658000Y-79756000D03*
X131884000Y-107632000D03*
X132784000Y-107632000D03*
X132784000Y-108585000D03*
X131884000Y-108585000D03*
X128148000Y-107315000D03*
X127248000Y-107315000D03*
X117480000Y-93218000D03*
X116580000Y-93218000D03*
X186684000Y-81788000D03*
X187584000Y-81788000D03*
X186684000Y-84328000D03*
X187584000Y-84328000D03*
X117163000Y-88963500D03*
X116263000Y-88963500D03*
X186684000Y-86868000D03*
X187584000Y-86868000D03*
X178314000Y-108902000D03*
X177414000Y-108902000D03*
X171254000Y-68326000D03*
X172154000Y-68326000D03*
X171254000Y-80708500D03*
X172154000Y-80708500D03*
X171254000Y-76581000D03*
X172154000Y-76581000D03*
X171254000Y-72453500D03*
X172154000Y-72453500D03*
X137483000Y-85344000D03*
X136583000Y-85344000D03*
X136583000Y-89471500D03*
X137483000Y-89471500D03*
X137483000Y-93599000D03*
X136583000Y-93599000D03*
X137483000Y-97726500D03*
X136583000Y-97726500D03*
D23*
X163449000Y-79179000D03*
X163449000Y-80079000D03*
X163449000Y-80893500D03*
X163449000Y-81793500D03*
D28*
X179241000Y-78352000D03*
D29*
X184741000Y-79502000D03*
D28*
X179241000Y-80652000D03*
D30*
X183487000Y-90412000D03*
X183487000Y-89912000D03*
X183487000Y-89412000D03*
X183487000Y-88912000D03*
X181637000Y-88912000D03*
X181637000Y-89412000D03*
X181637000Y-89912000D03*
X181637000Y-90412000D03*
D31*
X182562000Y-89112000D03*
X182562000Y-90212000D03*
D32*
X171309000Y-99390000D03*
X171309000Y-99890000D03*
X171309000Y-100390000D03*
X171309000Y-100890000D03*
D33*
X172034000Y-101615000D03*
X172534000Y-101615000D03*
X173034000Y-101615000D03*
X173534000Y-101615000D03*
D32*
X174259000Y-100890000D03*
X174259000Y-100390000D03*
X174259000Y-99890000D03*
X174259000Y-99390000D03*
D33*
X173534000Y-98665000D03*
X173034000Y-98665000D03*
X172534000Y-98665000D03*
X172034000Y-98665000D03*
D34*
X172334000Y-100590000D03*
X173234000Y-100590000D03*
X173234000Y-99690000D03*
X172334000Y-99690000D03*
D35*
X163604000Y-99842500D03*
X162954000Y-99842500D03*
X162294000Y-99842500D03*
X161644000Y-99842500D03*
X161644000Y-97642500D03*
X162294000Y-97642500D03*
X162954000Y-97642500D03*
X163604000Y-97642500D03*
D36*
X116348000Y-109390000D03*
X116848000Y-109390000D03*
X117348000Y-109390000D03*
X117848000Y-109390000D03*
X117848000Y-106490000D03*
X117348000Y-106490000D03*
X116848000Y-106490000D03*
X116348000Y-106490000D03*
D13*
X116723000Y-108265000D03*
X117473000Y-108265000D03*
X116723000Y-107615000D03*
X117473000Y-107615000D03*
D35*
X121312000Y-103548000D03*
X120662000Y-103548000D03*
X120002000Y-103548000D03*
X119352000Y-103548000D03*
X119352000Y-105748000D03*
X120002000Y-105748000D03*
X120662000Y-105748000D03*
X121312000Y-105748000D03*
D11*
G36*
X148796351Y-76404361D02*
G01*
X148803632Y-76405441D01*
X148810771Y-76407229D01*
X148817701Y-76409709D01*
X148824355Y-76412856D01*
X148830668Y-76416640D01*
X148836579Y-76421024D01*
X148842033Y-76425967D01*
X148846976Y-76431421D01*
X148851360Y-76437332D01*
X148855144Y-76443645D01*
X148858291Y-76450299D01*
X148860771Y-76457229D01*
X148862559Y-76464368D01*
X148863639Y-76471649D01*
X148864000Y-76479000D01*
X148864000Y-77804000D01*
X148863639Y-77811351D01*
X148862559Y-77818632D01*
X148860771Y-77825771D01*
X148858291Y-77832701D01*
X148855144Y-77839355D01*
X148851360Y-77845668D01*
X148846976Y-77851579D01*
X148842033Y-77857033D01*
X148836579Y-77861976D01*
X148830668Y-77866360D01*
X148824355Y-77870144D01*
X148817701Y-77873291D01*
X148810771Y-77875771D01*
X148803632Y-77877559D01*
X148796351Y-77878639D01*
X148789000Y-77879000D01*
X148639000Y-77879000D01*
X148631649Y-77878639D01*
X148624368Y-77877559D01*
X148617229Y-77875771D01*
X148610299Y-77873291D01*
X148603645Y-77870144D01*
X148597332Y-77866360D01*
X148591421Y-77861976D01*
X148585967Y-77857033D01*
X148581024Y-77851579D01*
X148576640Y-77845668D01*
X148572856Y-77839355D01*
X148569709Y-77832701D01*
X148567229Y-77825771D01*
X148565441Y-77818632D01*
X148564361Y-77811351D01*
X148564000Y-77804000D01*
X148564000Y-76479000D01*
X148564361Y-76471649D01*
X148565441Y-76464368D01*
X148567229Y-76457229D01*
X148569709Y-76450299D01*
X148572856Y-76443645D01*
X148576640Y-76437332D01*
X148581024Y-76431421D01*
X148585967Y-76425967D01*
X148591421Y-76421024D01*
X148597332Y-76416640D01*
X148603645Y-76412856D01*
X148610299Y-76409709D01*
X148617229Y-76407229D01*
X148624368Y-76405441D01*
X148631649Y-76404361D01*
X148639000Y-76404000D01*
X148789000Y-76404000D01*
X148796351Y-76404361D01*
X148796351Y-76404361D01*
G37*
D37*
X148714000Y-77141500D03*
D11*
G36*
X149296351Y-76404361D02*
G01*
X149303632Y-76405441D01*
X149310771Y-76407229D01*
X149317701Y-76409709D01*
X149324355Y-76412856D01*
X149330668Y-76416640D01*
X149336579Y-76421024D01*
X149342033Y-76425967D01*
X149346976Y-76431421D01*
X149351360Y-76437332D01*
X149355144Y-76443645D01*
X149358291Y-76450299D01*
X149360771Y-76457229D01*
X149362559Y-76464368D01*
X149363639Y-76471649D01*
X149364000Y-76479000D01*
X149364000Y-77804000D01*
X149363639Y-77811351D01*
X149362559Y-77818632D01*
X149360771Y-77825771D01*
X149358291Y-77832701D01*
X149355144Y-77839355D01*
X149351360Y-77845668D01*
X149346976Y-77851579D01*
X149342033Y-77857033D01*
X149336579Y-77861976D01*
X149330668Y-77866360D01*
X149324355Y-77870144D01*
X149317701Y-77873291D01*
X149310771Y-77875771D01*
X149303632Y-77877559D01*
X149296351Y-77878639D01*
X149289000Y-77879000D01*
X149139000Y-77879000D01*
X149131649Y-77878639D01*
X149124368Y-77877559D01*
X149117229Y-77875771D01*
X149110299Y-77873291D01*
X149103645Y-77870144D01*
X149097332Y-77866360D01*
X149091421Y-77861976D01*
X149085967Y-77857033D01*
X149081024Y-77851579D01*
X149076640Y-77845668D01*
X149072856Y-77839355D01*
X149069709Y-77832701D01*
X149067229Y-77825771D01*
X149065441Y-77818632D01*
X149064361Y-77811351D01*
X149064000Y-77804000D01*
X149064000Y-76479000D01*
X149064361Y-76471649D01*
X149065441Y-76464368D01*
X149067229Y-76457229D01*
X149069709Y-76450299D01*
X149072856Y-76443645D01*
X149076640Y-76437332D01*
X149081024Y-76431421D01*
X149085967Y-76425967D01*
X149091421Y-76421024D01*
X149097332Y-76416640D01*
X149103645Y-76412856D01*
X149110299Y-76409709D01*
X149117229Y-76407229D01*
X149124368Y-76405441D01*
X149131649Y-76404361D01*
X149139000Y-76404000D01*
X149289000Y-76404000D01*
X149296351Y-76404361D01*
X149296351Y-76404361D01*
G37*
D37*
X149214000Y-77141500D03*
D11*
G36*
X149796351Y-76404361D02*
G01*
X149803632Y-76405441D01*
X149810771Y-76407229D01*
X149817701Y-76409709D01*
X149824355Y-76412856D01*
X149830668Y-76416640D01*
X149836579Y-76421024D01*
X149842033Y-76425967D01*
X149846976Y-76431421D01*
X149851360Y-76437332D01*
X149855144Y-76443645D01*
X149858291Y-76450299D01*
X149860771Y-76457229D01*
X149862559Y-76464368D01*
X149863639Y-76471649D01*
X149864000Y-76479000D01*
X149864000Y-77804000D01*
X149863639Y-77811351D01*
X149862559Y-77818632D01*
X149860771Y-77825771D01*
X149858291Y-77832701D01*
X149855144Y-77839355D01*
X149851360Y-77845668D01*
X149846976Y-77851579D01*
X149842033Y-77857033D01*
X149836579Y-77861976D01*
X149830668Y-77866360D01*
X149824355Y-77870144D01*
X149817701Y-77873291D01*
X149810771Y-77875771D01*
X149803632Y-77877559D01*
X149796351Y-77878639D01*
X149789000Y-77879000D01*
X149639000Y-77879000D01*
X149631649Y-77878639D01*
X149624368Y-77877559D01*
X149617229Y-77875771D01*
X149610299Y-77873291D01*
X149603645Y-77870144D01*
X149597332Y-77866360D01*
X149591421Y-77861976D01*
X149585967Y-77857033D01*
X149581024Y-77851579D01*
X149576640Y-77845668D01*
X149572856Y-77839355D01*
X149569709Y-77832701D01*
X149567229Y-77825771D01*
X149565441Y-77818632D01*
X149564361Y-77811351D01*
X149564000Y-77804000D01*
X149564000Y-76479000D01*
X149564361Y-76471649D01*
X149565441Y-76464368D01*
X149567229Y-76457229D01*
X149569709Y-76450299D01*
X149572856Y-76443645D01*
X149576640Y-76437332D01*
X149581024Y-76431421D01*
X149585967Y-76425967D01*
X149591421Y-76421024D01*
X149597332Y-76416640D01*
X149603645Y-76412856D01*
X149610299Y-76409709D01*
X149617229Y-76407229D01*
X149624368Y-76405441D01*
X149631649Y-76404361D01*
X149639000Y-76404000D01*
X149789000Y-76404000D01*
X149796351Y-76404361D01*
X149796351Y-76404361D01*
G37*
D37*
X149714000Y-77141500D03*
D11*
G36*
X150296351Y-76404361D02*
G01*
X150303632Y-76405441D01*
X150310771Y-76407229D01*
X150317701Y-76409709D01*
X150324355Y-76412856D01*
X150330668Y-76416640D01*
X150336579Y-76421024D01*
X150342033Y-76425967D01*
X150346976Y-76431421D01*
X150351360Y-76437332D01*
X150355144Y-76443645D01*
X150358291Y-76450299D01*
X150360771Y-76457229D01*
X150362559Y-76464368D01*
X150363639Y-76471649D01*
X150364000Y-76479000D01*
X150364000Y-77804000D01*
X150363639Y-77811351D01*
X150362559Y-77818632D01*
X150360771Y-77825771D01*
X150358291Y-77832701D01*
X150355144Y-77839355D01*
X150351360Y-77845668D01*
X150346976Y-77851579D01*
X150342033Y-77857033D01*
X150336579Y-77861976D01*
X150330668Y-77866360D01*
X150324355Y-77870144D01*
X150317701Y-77873291D01*
X150310771Y-77875771D01*
X150303632Y-77877559D01*
X150296351Y-77878639D01*
X150289000Y-77879000D01*
X150139000Y-77879000D01*
X150131649Y-77878639D01*
X150124368Y-77877559D01*
X150117229Y-77875771D01*
X150110299Y-77873291D01*
X150103645Y-77870144D01*
X150097332Y-77866360D01*
X150091421Y-77861976D01*
X150085967Y-77857033D01*
X150081024Y-77851579D01*
X150076640Y-77845668D01*
X150072856Y-77839355D01*
X150069709Y-77832701D01*
X150067229Y-77825771D01*
X150065441Y-77818632D01*
X150064361Y-77811351D01*
X150064000Y-77804000D01*
X150064000Y-76479000D01*
X150064361Y-76471649D01*
X150065441Y-76464368D01*
X150067229Y-76457229D01*
X150069709Y-76450299D01*
X150072856Y-76443645D01*
X150076640Y-76437332D01*
X150081024Y-76431421D01*
X150085967Y-76425967D01*
X150091421Y-76421024D01*
X150097332Y-76416640D01*
X150103645Y-76412856D01*
X150110299Y-76409709D01*
X150117229Y-76407229D01*
X150124368Y-76405441D01*
X150131649Y-76404361D01*
X150139000Y-76404000D01*
X150289000Y-76404000D01*
X150296351Y-76404361D01*
X150296351Y-76404361D01*
G37*
D37*
X150214000Y-77141500D03*
D11*
G36*
X150796351Y-76404361D02*
G01*
X150803632Y-76405441D01*
X150810771Y-76407229D01*
X150817701Y-76409709D01*
X150824355Y-76412856D01*
X150830668Y-76416640D01*
X150836579Y-76421024D01*
X150842033Y-76425967D01*
X150846976Y-76431421D01*
X150851360Y-76437332D01*
X150855144Y-76443645D01*
X150858291Y-76450299D01*
X150860771Y-76457229D01*
X150862559Y-76464368D01*
X150863639Y-76471649D01*
X150864000Y-76479000D01*
X150864000Y-77804000D01*
X150863639Y-77811351D01*
X150862559Y-77818632D01*
X150860771Y-77825771D01*
X150858291Y-77832701D01*
X150855144Y-77839355D01*
X150851360Y-77845668D01*
X150846976Y-77851579D01*
X150842033Y-77857033D01*
X150836579Y-77861976D01*
X150830668Y-77866360D01*
X150824355Y-77870144D01*
X150817701Y-77873291D01*
X150810771Y-77875771D01*
X150803632Y-77877559D01*
X150796351Y-77878639D01*
X150789000Y-77879000D01*
X150639000Y-77879000D01*
X150631649Y-77878639D01*
X150624368Y-77877559D01*
X150617229Y-77875771D01*
X150610299Y-77873291D01*
X150603645Y-77870144D01*
X150597332Y-77866360D01*
X150591421Y-77861976D01*
X150585967Y-77857033D01*
X150581024Y-77851579D01*
X150576640Y-77845668D01*
X150572856Y-77839355D01*
X150569709Y-77832701D01*
X150567229Y-77825771D01*
X150565441Y-77818632D01*
X150564361Y-77811351D01*
X150564000Y-77804000D01*
X150564000Y-76479000D01*
X150564361Y-76471649D01*
X150565441Y-76464368D01*
X150567229Y-76457229D01*
X150569709Y-76450299D01*
X150572856Y-76443645D01*
X150576640Y-76437332D01*
X150581024Y-76431421D01*
X150585967Y-76425967D01*
X150591421Y-76421024D01*
X150597332Y-76416640D01*
X150603645Y-76412856D01*
X150610299Y-76409709D01*
X150617229Y-76407229D01*
X150624368Y-76405441D01*
X150631649Y-76404361D01*
X150639000Y-76404000D01*
X150789000Y-76404000D01*
X150796351Y-76404361D01*
X150796351Y-76404361D01*
G37*
D37*
X150714000Y-77141500D03*
D11*
G36*
X151296351Y-76404361D02*
G01*
X151303632Y-76405441D01*
X151310771Y-76407229D01*
X151317701Y-76409709D01*
X151324355Y-76412856D01*
X151330668Y-76416640D01*
X151336579Y-76421024D01*
X151342033Y-76425967D01*
X151346976Y-76431421D01*
X151351360Y-76437332D01*
X151355144Y-76443645D01*
X151358291Y-76450299D01*
X151360771Y-76457229D01*
X151362559Y-76464368D01*
X151363639Y-76471649D01*
X151364000Y-76479000D01*
X151364000Y-77804000D01*
X151363639Y-77811351D01*
X151362559Y-77818632D01*
X151360771Y-77825771D01*
X151358291Y-77832701D01*
X151355144Y-77839355D01*
X151351360Y-77845668D01*
X151346976Y-77851579D01*
X151342033Y-77857033D01*
X151336579Y-77861976D01*
X151330668Y-77866360D01*
X151324355Y-77870144D01*
X151317701Y-77873291D01*
X151310771Y-77875771D01*
X151303632Y-77877559D01*
X151296351Y-77878639D01*
X151289000Y-77879000D01*
X151139000Y-77879000D01*
X151131649Y-77878639D01*
X151124368Y-77877559D01*
X151117229Y-77875771D01*
X151110299Y-77873291D01*
X151103645Y-77870144D01*
X151097332Y-77866360D01*
X151091421Y-77861976D01*
X151085967Y-77857033D01*
X151081024Y-77851579D01*
X151076640Y-77845668D01*
X151072856Y-77839355D01*
X151069709Y-77832701D01*
X151067229Y-77825771D01*
X151065441Y-77818632D01*
X151064361Y-77811351D01*
X151064000Y-77804000D01*
X151064000Y-76479000D01*
X151064361Y-76471649D01*
X151065441Y-76464368D01*
X151067229Y-76457229D01*
X151069709Y-76450299D01*
X151072856Y-76443645D01*
X151076640Y-76437332D01*
X151081024Y-76431421D01*
X151085967Y-76425967D01*
X151091421Y-76421024D01*
X151097332Y-76416640D01*
X151103645Y-76412856D01*
X151110299Y-76409709D01*
X151117229Y-76407229D01*
X151124368Y-76405441D01*
X151131649Y-76404361D01*
X151139000Y-76404000D01*
X151289000Y-76404000D01*
X151296351Y-76404361D01*
X151296351Y-76404361D01*
G37*
D37*
X151214000Y-77141500D03*
D11*
G36*
X151796351Y-76404361D02*
G01*
X151803632Y-76405441D01*
X151810771Y-76407229D01*
X151817701Y-76409709D01*
X151824355Y-76412856D01*
X151830668Y-76416640D01*
X151836579Y-76421024D01*
X151842033Y-76425967D01*
X151846976Y-76431421D01*
X151851360Y-76437332D01*
X151855144Y-76443645D01*
X151858291Y-76450299D01*
X151860771Y-76457229D01*
X151862559Y-76464368D01*
X151863639Y-76471649D01*
X151864000Y-76479000D01*
X151864000Y-77804000D01*
X151863639Y-77811351D01*
X151862559Y-77818632D01*
X151860771Y-77825771D01*
X151858291Y-77832701D01*
X151855144Y-77839355D01*
X151851360Y-77845668D01*
X151846976Y-77851579D01*
X151842033Y-77857033D01*
X151836579Y-77861976D01*
X151830668Y-77866360D01*
X151824355Y-77870144D01*
X151817701Y-77873291D01*
X151810771Y-77875771D01*
X151803632Y-77877559D01*
X151796351Y-77878639D01*
X151789000Y-77879000D01*
X151639000Y-77879000D01*
X151631649Y-77878639D01*
X151624368Y-77877559D01*
X151617229Y-77875771D01*
X151610299Y-77873291D01*
X151603645Y-77870144D01*
X151597332Y-77866360D01*
X151591421Y-77861976D01*
X151585967Y-77857033D01*
X151581024Y-77851579D01*
X151576640Y-77845668D01*
X151572856Y-77839355D01*
X151569709Y-77832701D01*
X151567229Y-77825771D01*
X151565441Y-77818632D01*
X151564361Y-77811351D01*
X151564000Y-77804000D01*
X151564000Y-76479000D01*
X151564361Y-76471649D01*
X151565441Y-76464368D01*
X151567229Y-76457229D01*
X151569709Y-76450299D01*
X151572856Y-76443645D01*
X151576640Y-76437332D01*
X151581024Y-76431421D01*
X151585967Y-76425967D01*
X151591421Y-76421024D01*
X151597332Y-76416640D01*
X151603645Y-76412856D01*
X151610299Y-76409709D01*
X151617229Y-76407229D01*
X151624368Y-76405441D01*
X151631649Y-76404361D01*
X151639000Y-76404000D01*
X151789000Y-76404000D01*
X151796351Y-76404361D01*
X151796351Y-76404361D01*
G37*
D37*
X151714000Y-77141500D03*
D11*
G36*
X152296351Y-76404361D02*
G01*
X152303632Y-76405441D01*
X152310771Y-76407229D01*
X152317701Y-76409709D01*
X152324355Y-76412856D01*
X152330668Y-76416640D01*
X152336579Y-76421024D01*
X152342033Y-76425967D01*
X152346976Y-76431421D01*
X152351360Y-76437332D01*
X152355144Y-76443645D01*
X152358291Y-76450299D01*
X152360771Y-76457229D01*
X152362559Y-76464368D01*
X152363639Y-76471649D01*
X152364000Y-76479000D01*
X152364000Y-77804000D01*
X152363639Y-77811351D01*
X152362559Y-77818632D01*
X152360771Y-77825771D01*
X152358291Y-77832701D01*
X152355144Y-77839355D01*
X152351360Y-77845668D01*
X152346976Y-77851579D01*
X152342033Y-77857033D01*
X152336579Y-77861976D01*
X152330668Y-77866360D01*
X152324355Y-77870144D01*
X152317701Y-77873291D01*
X152310771Y-77875771D01*
X152303632Y-77877559D01*
X152296351Y-77878639D01*
X152289000Y-77879000D01*
X152139000Y-77879000D01*
X152131649Y-77878639D01*
X152124368Y-77877559D01*
X152117229Y-77875771D01*
X152110299Y-77873291D01*
X152103645Y-77870144D01*
X152097332Y-77866360D01*
X152091421Y-77861976D01*
X152085967Y-77857033D01*
X152081024Y-77851579D01*
X152076640Y-77845668D01*
X152072856Y-77839355D01*
X152069709Y-77832701D01*
X152067229Y-77825771D01*
X152065441Y-77818632D01*
X152064361Y-77811351D01*
X152064000Y-77804000D01*
X152064000Y-76479000D01*
X152064361Y-76471649D01*
X152065441Y-76464368D01*
X152067229Y-76457229D01*
X152069709Y-76450299D01*
X152072856Y-76443645D01*
X152076640Y-76437332D01*
X152081024Y-76431421D01*
X152085967Y-76425967D01*
X152091421Y-76421024D01*
X152097332Y-76416640D01*
X152103645Y-76412856D01*
X152110299Y-76409709D01*
X152117229Y-76407229D01*
X152124368Y-76405441D01*
X152131649Y-76404361D01*
X152139000Y-76404000D01*
X152289000Y-76404000D01*
X152296351Y-76404361D01*
X152296351Y-76404361D01*
G37*
D37*
X152214000Y-77141500D03*
D11*
G36*
X152796351Y-76404361D02*
G01*
X152803632Y-76405441D01*
X152810771Y-76407229D01*
X152817701Y-76409709D01*
X152824355Y-76412856D01*
X152830668Y-76416640D01*
X152836579Y-76421024D01*
X152842033Y-76425967D01*
X152846976Y-76431421D01*
X152851360Y-76437332D01*
X152855144Y-76443645D01*
X152858291Y-76450299D01*
X152860771Y-76457229D01*
X152862559Y-76464368D01*
X152863639Y-76471649D01*
X152864000Y-76479000D01*
X152864000Y-77804000D01*
X152863639Y-77811351D01*
X152862559Y-77818632D01*
X152860771Y-77825771D01*
X152858291Y-77832701D01*
X152855144Y-77839355D01*
X152851360Y-77845668D01*
X152846976Y-77851579D01*
X152842033Y-77857033D01*
X152836579Y-77861976D01*
X152830668Y-77866360D01*
X152824355Y-77870144D01*
X152817701Y-77873291D01*
X152810771Y-77875771D01*
X152803632Y-77877559D01*
X152796351Y-77878639D01*
X152789000Y-77879000D01*
X152639000Y-77879000D01*
X152631649Y-77878639D01*
X152624368Y-77877559D01*
X152617229Y-77875771D01*
X152610299Y-77873291D01*
X152603645Y-77870144D01*
X152597332Y-77866360D01*
X152591421Y-77861976D01*
X152585967Y-77857033D01*
X152581024Y-77851579D01*
X152576640Y-77845668D01*
X152572856Y-77839355D01*
X152569709Y-77832701D01*
X152567229Y-77825771D01*
X152565441Y-77818632D01*
X152564361Y-77811351D01*
X152564000Y-77804000D01*
X152564000Y-76479000D01*
X152564361Y-76471649D01*
X152565441Y-76464368D01*
X152567229Y-76457229D01*
X152569709Y-76450299D01*
X152572856Y-76443645D01*
X152576640Y-76437332D01*
X152581024Y-76431421D01*
X152585967Y-76425967D01*
X152591421Y-76421024D01*
X152597332Y-76416640D01*
X152603645Y-76412856D01*
X152610299Y-76409709D01*
X152617229Y-76407229D01*
X152624368Y-76405441D01*
X152631649Y-76404361D01*
X152639000Y-76404000D01*
X152789000Y-76404000D01*
X152796351Y-76404361D01*
X152796351Y-76404361D01*
G37*
D37*
X152714000Y-77141500D03*
D11*
G36*
X153296351Y-76404361D02*
G01*
X153303632Y-76405441D01*
X153310771Y-76407229D01*
X153317701Y-76409709D01*
X153324355Y-76412856D01*
X153330668Y-76416640D01*
X153336579Y-76421024D01*
X153342033Y-76425967D01*
X153346976Y-76431421D01*
X153351360Y-76437332D01*
X153355144Y-76443645D01*
X153358291Y-76450299D01*
X153360771Y-76457229D01*
X153362559Y-76464368D01*
X153363639Y-76471649D01*
X153364000Y-76479000D01*
X153364000Y-77804000D01*
X153363639Y-77811351D01*
X153362559Y-77818632D01*
X153360771Y-77825771D01*
X153358291Y-77832701D01*
X153355144Y-77839355D01*
X153351360Y-77845668D01*
X153346976Y-77851579D01*
X153342033Y-77857033D01*
X153336579Y-77861976D01*
X153330668Y-77866360D01*
X153324355Y-77870144D01*
X153317701Y-77873291D01*
X153310771Y-77875771D01*
X153303632Y-77877559D01*
X153296351Y-77878639D01*
X153289000Y-77879000D01*
X153139000Y-77879000D01*
X153131649Y-77878639D01*
X153124368Y-77877559D01*
X153117229Y-77875771D01*
X153110299Y-77873291D01*
X153103645Y-77870144D01*
X153097332Y-77866360D01*
X153091421Y-77861976D01*
X153085967Y-77857033D01*
X153081024Y-77851579D01*
X153076640Y-77845668D01*
X153072856Y-77839355D01*
X153069709Y-77832701D01*
X153067229Y-77825771D01*
X153065441Y-77818632D01*
X153064361Y-77811351D01*
X153064000Y-77804000D01*
X153064000Y-76479000D01*
X153064361Y-76471649D01*
X153065441Y-76464368D01*
X153067229Y-76457229D01*
X153069709Y-76450299D01*
X153072856Y-76443645D01*
X153076640Y-76437332D01*
X153081024Y-76431421D01*
X153085967Y-76425967D01*
X153091421Y-76421024D01*
X153097332Y-76416640D01*
X153103645Y-76412856D01*
X153110299Y-76409709D01*
X153117229Y-76407229D01*
X153124368Y-76405441D01*
X153131649Y-76404361D01*
X153139000Y-76404000D01*
X153289000Y-76404000D01*
X153296351Y-76404361D01*
X153296351Y-76404361D01*
G37*
D37*
X153214000Y-77141500D03*
D11*
G36*
X153796351Y-76404361D02*
G01*
X153803632Y-76405441D01*
X153810771Y-76407229D01*
X153817701Y-76409709D01*
X153824355Y-76412856D01*
X153830668Y-76416640D01*
X153836579Y-76421024D01*
X153842033Y-76425967D01*
X153846976Y-76431421D01*
X153851360Y-76437332D01*
X153855144Y-76443645D01*
X153858291Y-76450299D01*
X153860771Y-76457229D01*
X153862559Y-76464368D01*
X153863639Y-76471649D01*
X153864000Y-76479000D01*
X153864000Y-77804000D01*
X153863639Y-77811351D01*
X153862559Y-77818632D01*
X153860771Y-77825771D01*
X153858291Y-77832701D01*
X153855144Y-77839355D01*
X153851360Y-77845668D01*
X153846976Y-77851579D01*
X153842033Y-77857033D01*
X153836579Y-77861976D01*
X153830668Y-77866360D01*
X153824355Y-77870144D01*
X153817701Y-77873291D01*
X153810771Y-77875771D01*
X153803632Y-77877559D01*
X153796351Y-77878639D01*
X153789000Y-77879000D01*
X153639000Y-77879000D01*
X153631649Y-77878639D01*
X153624368Y-77877559D01*
X153617229Y-77875771D01*
X153610299Y-77873291D01*
X153603645Y-77870144D01*
X153597332Y-77866360D01*
X153591421Y-77861976D01*
X153585967Y-77857033D01*
X153581024Y-77851579D01*
X153576640Y-77845668D01*
X153572856Y-77839355D01*
X153569709Y-77832701D01*
X153567229Y-77825771D01*
X153565441Y-77818632D01*
X153564361Y-77811351D01*
X153564000Y-77804000D01*
X153564000Y-76479000D01*
X153564361Y-76471649D01*
X153565441Y-76464368D01*
X153567229Y-76457229D01*
X153569709Y-76450299D01*
X153572856Y-76443645D01*
X153576640Y-76437332D01*
X153581024Y-76431421D01*
X153585967Y-76425967D01*
X153591421Y-76421024D01*
X153597332Y-76416640D01*
X153603645Y-76412856D01*
X153610299Y-76409709D01*
X153617229Y-76407229D01*
X153624368Y-76405441D01*
X153631649Y-76404361D01*
X153639000Y-76404000D01*
X153789000Y-76404000D01*
X153796351Y-76404361D01*
X153796351Y-76404361D01*
G37*
D37*
X153714000Y-77141500D03*
D11*
G36*
X154296351Y-76404361D02*
G01*
X154303632Y-76405441D01*
X154310771Y-76407229D01*
X154317701Y-76409709D01*
X154324355Y-76412856D01*
X154330668Y-76416640D01*
X154336579Y-76421024D01*
X154342033Y-76425967D01*
X154346976Y-76431421D01*
X154351360Y-76437332D01*
X154355144Y-76443645D01*
X154358291Y-76450299D01*
X154360771Y-76457229D01*
X154362559Y-76464368D01*
X154363639Y-76471649D01*
X154364000Y-76479000D01*
X154364000Y-77804000D01*
X154363639Y-77811351D01*
X154362559Y-77818632D01*
X154360771Y-77825771D01*
X154358291Y-77832701D01*
X154355144Y-77839355D01*
X154351360Y-77845668D01*
X154346976Y-77851579D01*
X154342033Y-77857033D01*
X154336579Y-77861976D01*
X154330668Y-77866360D01*
X154324355Y-77870144D01*
X154317701Y-77873291D01*
X154310771Y-77875771D01*
X154303632Y-77877559D01*
X154296351Y-77878639D01*
X154289000Y-77879000D01*
X154139000Y-77879000D01*
X154131649Y-77878639D01*
X154124368Y-77877559D01*
X154117229Y-77875771D01*
X154110299Y-77873291D01*
X154103645Y-77870144D01*
X154097332Y-77866360D01*
X154091421Y-77861976D01*
X154085967Y-77857033D01*
X154081024Y-77851579D01*
X154076640Y-77845668D01*
X154072856Y-77839355D01*
X154069709Y-77832701D01*
X154067229Y-77825771D01*
X154065441Y-77818632D01*
X154064361Y-77811351D01*
X154064000Y-77804000D01*
X154064000Y-76479000D01*
X154064361Y-76471649D01*
X154065441Y-76464368D01*
X154067229Y-76457229D01*
X154069709Y-76450299D01*
X154072856Y-76443645D01*
X154076640Y-76437332D01*
X154081024Y-76431421D01*
X154085967Y-76425967D01*
X154091421Y-76421024D01*
X154097332Y-76416640D01*
X154103645Y-76412856D01*
X154110299Y-76409709D01*
X154117229Y-76407229D01*
X154124368Y-76405441D01*
X154131649Y-76404361D01*
X154139000Y-76404000D01*
X154289000Y-76404000D01*
X154296351Y-76404361D01*
X154296351Y-76404361D01*
G37*
D37*
X154214000Y-77141500D03*
D11*
G36*
X154796351Y-76404361D02*
G01*
X154803632Y-76405441D01*
X154810771Y-76407229D01*
X154817701Y-76409709D01*
X154824355Y-76412856D01*
X154830668Y-76416640D01*
X154836579Y-76421024D01*
X154842033Y-76425967D01*
X154846976Y-76431421D01*
X154851360Y-76437332D01*
X154855144Y-76443645D01*
X154858291Y-76450299D01*
X154860771Y-76457229D01*
X154862559Y-76464368D01*
X154863639Y-76471649D01*
X154864000Y-76479000D01*
X154864000Y-77804000D01*
X154863639Y-77811351D01*
X154862559Y-77818632D01*
X154860771Y-77825771D01*
X154858291Y-77832701D01*
X154855144Y-77839355D01*
X154851360Y-77845668D01*
X154846976Y-77851579D01*
X154842033Y-77857033D01*
X154836579Y-77861976D01*
X154830668Y-77866360D01*
X154824355Y-77870144D01*
X154817701Y-77873291D01*
X154810771Y-77875771D01*
X154803632Y-77877559D01*
X154796351Y-77878639D01*
X154789000Y-77879000D01*
X154639000Y-77879000D01*
X154631649Y-77878639D01*
X154624368Y-77877559D01*
X154617229Y-77875771D01*
X154610299Y-77873291D01*
X154603645Y-77870144D01*
X154597332Y-77866360D01*
X154591421Y-77861976D01*
X154585967Y-77857033D01*
X154581024Y-77851579D01*
X154576640Y-77845668D01*
X154572856Y-77839355D01*
X154569709Y-77832701D01*
X154567229Y-77825771D01*
X154565441Y-77818632D01*
X154564361Y-77811351D01*
X154564000Y-77804000D01*
X154564000Y-76479000D01*
X154564361Y-76471649D01*
X154565441Y-76464368D01*
X154567229Y-76457229D01*
X154569709Y-76450299D01*
X154572856Y-76443645D01*
X154576640Y-76437332D01*
X154581024Y-76431421D01*
X154585967Y-76425967D01*
X154591421Y-76421024D01*
X154597332Y-76416640D01*
X154603645Y-76412856D01*
X154610299Y-76409709D01*
X154617229Y-76407229D01*
X154624368Y-76405441D01*
X154631649Y-76404361D01*
X154639000Y-76404000D01*
X154789000Y-76404000D01*
X154796351Y-76404361D01*
X154796351Y-76404361D01*
G37*
D37*
X154714000Y-77141500D03*
D11*
G36*
X155296351Y-76404361D02*
G01*
X155303632Y-76405441D01*
X155310771Y-76407229D01*
X155317701Y-76409709D01*
X155324355Y-76412856D01*
X155330668Y-76416640D01*
X155336579Y-76421024D01*
X155342033Y-76425967D01*
X155346976Y-76431421D01*
X155351360Y-76437332D01*
X155355144Y-76443645D01*
X155358291Y-76450299D01*
X155360771Y-76457229D01*
X155362559Y-76464368D01*
X155363639Y-76471649D01*
X155364000Y-76479000D01*
X155364000Y-77804000D01*
X155363639Y-77811351D01*
X155362559Y-77818632D01*
X155360771Y-77825771D01*
X155358291Y-77832701D01*
X155355144Y-77839355D01*
X155351360Y-77845668D01*
X155346976Y-77851579D01*
X155342033Y-77857033D01*
X155336579Y-77861976D01*
X155330668Y-77866360D01*
X155324355Y-77870144D01*
X155317701Y-77873291D01*
X155310771Y-77875771D01*
X155303632Y-77877559D01*
X155296351Y-77878639D01*
X155289000Y-77879000D01*
X155139000Y-77879000D01*
X155131649Y-77878639D01*
X155124368Y-77877559D01*
X155117229Y-77875771D01*
X155110299Y-77873291D01*
X155103645Y-77870144D01*
X155097332Y-77866360D01*
X155091421Y-77861976D01*
X155085967Y-77857033D01*
X155081024Y-77851579D01*
X155076640Y-77845668D01*
X155072856Y-77839355D01*
X155069709Y-77832701D01*
X155067229Y-77825771D01*
X155065441Y-77818632D01*
X155064361Y-77811351D01*
X155064000Y-77804000D01*
X155064000Y-76479000D01*
X155064361Y-76471649D01*
X155065441Y-76464368D01*
X155067229Y-76457229D01*
X155069709Y-76450299D01*
X155072856Y-76443645D01*
X155076640Y-76437332D01*
X155081024Y-76431421D01*
X155085967Y-76425967D01*
X155091421Y-76421024D01*
X155097332Y-76416640D01*
X155103645Y-76412856D01*
X155110299Y-76409709D01*
X155117229Y-76407229D01*
X155124368Y-76405441D01*
X155131649Y-76404361D01*
X155139000Y-76404000D01*
X155289000Y-76404000D01*
X155296351Y-76404361D01*
X155296351Y-76404361D01*
G37*
D37*
X155214000Y-77141500D03*
D11*
G36*
X155796351Y-76404361D02*
G01*
X155803632Y-76405441D01*
X155810771Y-76407229D01*
X155817701Y-76409709D01*
X155824355Y-76412856D01*
X155830668Y-76416640D01*
X155836579Y-76421024D01*
X155842033Y-76425967D01*
X155846976Y-76431421D01*
X155851360Y-76437332D01*
X155855144Y-76443645D01*
X155858291Y-76450299D01*
X155860771Y-76457229D01*
X155862559Y-76464368D01*
X155863639Y-76471649D01*
X155864000Y-76479000D01*
X155864000Y-77804000D01*
X155863639Y-77811351D01*
X155862559Y-77818632D01*
X155860771Y-77825771D01*
X155858291Y-77832701D01*
X155855144Y-77839355D01*
X155851360Y-77845668D01*
X155846976Y-77851579D01*
X155842033Y-77857033D01*
X155836579Y-77861976D01*
X155830668Y-77866360D01*
X155824355Y-77870144D01*
X155817701Y-77873291D01*
X155810771Y-77875771D01*
X155803632Y-77877559D01*
X155796351Y-77878639D01*
X155789000Y-77879000D01*
X155639000Y-77879000D01*
X155631649Y-77878639D01*
X155624368Y-77877559D01*
X155617229Y-77875771D01*
X155610299Y-77873291D01*
X155603645Y-77870144D01*
X155597332Y-77866360D01*
X155591421Y-77861976D01*
X155585967Y-77857033D01*
X155581024Y-77851579D01*
X155576640Y-77845668D01*
X155572856Y-77839355D01*
X155569709Y-77832701D01*
X155567229Y-77825771D01*
X155565441Y-77818632D01*
X155564361Y-77811351D01*
X155564000Y-77804000D01*
X155564000Y-76479000D01*
X155564361Y-76471649D01*
X155565441Y-76464368D01*
X155567229Y-76457229D01*
X155569709Y-76450299D01*
X155572856Y-76443645D01*
X155576640Y-76437332D01*
X155581024Y-76431421D01*
X155585967Y-76425967D01*
X155591421Y-76421024D01*
X155597332Y-76416640D01*
X155603645Y-76412856D01*
X155610299Y-76409709D01*
X155617229Y-76407229D01*
X155624368Y-76405441D01*
X155631649Y-76404361D01*
X155639000Y-76404000D01*
X155789000Y-76404000D01*
X155796351Y-76404361D01*
X155796351Y-76404361D01*
G37*
D37*
X155714000Y-77141500D03*
D11*
G36*
X156296351Y-76404361D02*
G01*
X156303632Y-76405441D01*
X156310771Y-76407229D01*
X156317701Y-76409709D01*
X156324355Y-76412856D01*
X156330668Y-76416640D01*
X156336579Y-76421024D01*
X156342033Y-76425967D01*
X156346976Y-76431421D01*
X156351360Y-76437332D01*
X156355144Y-76443645D01*
X156358291Y-76450299D01*
X156360771Y-76457229D01*
X156362559Y-76464368D01*
X156363639Y-76471649D01*
X156364000Y-76479000D01*
X156364000Y-77804000D01*
X156363639Y-77811351D01*
X156362559Y-77818632D01*
X156360771Y-77825771D01*
X156358291Y-77832701D01*
X156355144Y-77839355D01*
X156351360Y-77845668D01*
X156346976Y-77851579D01*
X156342033Y-77857033D01*
X156336579Y-77861976D01*
X156330668Y-77866360D01*
X156324355Y-77870144D01*
X156317701Y-77873291D01*
X156310771Y-77875771D01*
X156303632Y-77877559D01*
X156296351Y-77878639D01*
X156289000Y-77879000D01*
X156139000Y-77879000D01*
X156131649Y-77878639D01*
X156124368Y-77877559D01*
X156117229Y-77875771D01*
X156110299Y-77873291D01*
X156103645Y-77870144D01*
X156097332Y-77866360D01*
X156091421Y-77861976D01*
X156085967Y-77857033D01*
X156081024Y-77851579D01*
X156076640Y-77845668D01*
X156072856Y-77839355D01*
X156069709Y-77832701D01*
X156067229Y-77825771D01*
X156065441Y-77818632D01*
X156064361Y-77811351D01*
X156064000Y-77804000D01*
X156064000Y-76479000D01*
X156064361Y-76471649D01*
X156065441Y-76464368D01*
X156067229Y-76457229D01*
X156069709Y-76450299D01*
X156072856Y-76443645D01*
X156076640Y-76437332D01*
X156081024Y-76431421D01*
X156085967Y-76425967D01*
X156091421Y-76421024D01*
X156097332Y-76416640D01*
X156103645Y-76412856D01*
X156110299Y-76409709D01*
X156117229Y-76407229D01*
X156124368Y-76405441D01*
X156131649Y-76404361D01*
X156139000Y-76404000D01*
X156289000Y-76404000D01*
X156296351Y-76404361D01*
X156296351Y-76404361D01*
G37*
D37*
X156214000Y-77141500D03*
D11*
G36*
X158796351Y-78904361D02*
G01*
X158803632Y-78905441D01*
X158810771Y-78907229D01*
X158817701Y-78909709D01*
X158824355Y-78912856D01*
X158830668Y-78916640D01*
X158836579Y-78921024D01*
X158842033Y-78925967D01*
X158846976Y-78931421D01*
X158851360Y-78937332D01*
X158855144Y-78943645D01*
X158858291Y-78950299D01*
X158860771Y-78957229D01*
X158862559Y-78964368D01*
X158863639Y-78971649D01*
X158864000Y-78979000D01*
X158864000Y-79129000D01*
X158863639Y-79136351D01*
X158862559Y-79143632D01*
X158860771Y-79150771D01*
X158858291Y-79157701D01*
X158855144Y-79164355D01*
X158851360Y-79170668D01*
X158846976Y-79176579D01*
X158842033Y-79182033D01*
X158836579Y-79186976D01*
X158830668Y-79191360D01*
X158824355Y-79195144D01*
X158817701Y-79198291D01*
X158810771Y-79200771D01*
X158803632Y-79202559D01*
X158796351Y-79203639D01*
X158789000Y-79204000D01*
X157464000Y-79204000D01*
X157456649Y-79203639D01*
X157449368Y-79202559D01*
X157442229Y-79200771D01*
X157435299Y-79198291D01*
X157428645Y-79195144D01*
X157422332Y-79191360D01*
X157416421Y-79186976D01*
X157410967Y-79182033D01*
X157406024Y-79176579D01*
X157401640Y-79170668D01*
X157397856Y-79164355D01*
X157394709Y-79157701D01*
X157392229Y-79150771D01*
X157390441Y-79143632D01*
X157389361Y-79136351D01*
X157389000Y-79129000D01*
X157389000Y-78979000D01*
X157389361Y-78971649D01*
X157390441Y-78964368D01*
X157392229Y-78957229D01*
X157394709Y-78950299D01*
X157397856Y-78943645D01*
X157401640Y-78937332D01*
X157406024Y-78931421D01*
X157410967Y-78925967D01*
X157416421Y-78921024D01*
X157422332Y-78916640D01*
X157428645Y-78912856D01*
X157435299Y-78909709D01*
X157442229Y-78907229D01*
X157449368Y-78905441D01*
X157456649Y-78904361D01*
X157464000Y-78904000D01*
X158789000Y-78904000D01*
X158796351Y-78904361D01*
X158796351Y-78904361D01*
G37*
D37*
X158126500Y-79054000D03*
D11*
G36*
X158796351Y-79404361D02*
G01*
X158803632Y-79405441D01*
X158810771Y-79407229D01*
X158817701Y-79409709D01*
X158824355Y-79412856D01*
X158830668Y-79416640D01*
X158836579Y-79421024D01*
X158842033Y-79425967D01*
X158846976Y-79431421D01*
X158851360Y-79437332D01*
X158855144Y-79443645D01*
X158858291Y-79450299D01*
X158860771Y-79457229D01*
X158862559Y-79464368D01*
X158863639Y-79471649D01*
X158864000Y-79479000D01*
X158864000Y-79629000D01*
X158863639Y-79636351D01*
X158862559Y-79643632D01*
X158860771Y-79650771D01*
X158858291Y-79657701D01*
X158855144Y-79664355D01*
X158851360Y-79670668D01*
X158846976Y-79676579D01*
X158842033Y-79682033D01*
X158836579Y-79686976D01*
X158830668Y-79691360D01*
X158824355Y-79695144D01*
X158817701Y-79698291D01*
X158810771Y-79700771D01*
X158803632Y-79702559D01*
X158796351Y-79703639D01*
X158789000Y-79704000D01*
X157464000Y-79704000D01*
X157456649Y-79703639D01*
X157449368Y-79702559D01*
X157442229Y-79700771D01*
X157435299Y-79698291D01*
X157428645Y-79695144D01*
X157422332Y-79691360D01*
X157416421Y-79686976D01*
X157410967Y-79682033D01*
X157406024Y-79676579D01*
X157401640Y-79670668D01*
X157397856Y-79664355D01*
X157394709Y-79657701D01*
X157392229Y-79650771D01*
X157390441Y-79643632D01*
X157389361Y-79636351D01*
X157389000Y-79629000D01*
X157389000Y-79479000D01*
X157389361Y-79471649D01*
X157390441Y-79464368D01*
X157392229Y-79457229D01*
X157394709Y-79450299D01*
X157397856Y-79443645D01*
X157401640Y-79437332D01*
X157406024Y-79431421D01*
X157410967Y-79425967D01*
X157416421Y-79421024D01*
X157422332Y-79416640D01*
X157428645Y-79412856D01*
X157435299Y-79409709D01*
X157442229Y-79407229D01*
X157449368Y-79405441D01*
X157456649Y-79404361D01*
X157464000Y-79404000D01*
X158789000Y-79404000D01*
X158796351Y-79404361D01*
X158796351Y-79404361D01*
G37*
D37*
X158126500Y-79554000D03*
D11*
G36*
X158796351Y-79904361D02*
G01*
X158803632Y-79905441D01*
X158810771Y-79907229D01*
X158817701Y-79909709D01*
X158824355Y-79912856D01*
X158830668Y-79916640D01*
X158836579Y-79921024D01*
X158842033Y-79925967D01*
X158846976Y-79931421D01*
X158851360Y-79937332D01*
X158855144Y-79943645D01*
X158858291Y-79950299D01*
X158860771Y-79957229D01*
X158862559Y-79964368D01*
X158863639Y-79971649D01*
X158864000Y-79979000D01*
X158864000Y-80129000D01*
X158863639Y-80136351D01*
X158862559Y-80143632D01*
X158860771Y-80150771D01*
X158858291Y-80157701D01*
X158855144Y-80164355D01*
X158851360Y-80170668D01*
X158846976Y-80176579D01*
X158842033Y-80182033D01*
X158836579Y-80186976D01*
X158830668Y-80191360D01*
X158824355Y-80195144D01*
X158817701Y-80198291D01*
X158810771Y-80200771D01*
X158803632Y-80202559D01*
X158796351Y-80203639D01*
X158789000Y-80204000D01*
X157464000Y-80204000D01*
X157456649Y-80203639D01*
X157449368Y-80202559D01*
X157442229Y-80200771D01*
X157435299Y-80198291D01*
X157428645Y-80195144D01*
X157422332Y-80191360D01*
X157416421Y-80186976D01*
X157410967Y-80182033D01*
X157406024Y-80176579D01*
X157401640Y-80170668D01*
X157397856Y-80164355D01*
X157394709Y-80157701D01*
X157392229Y-80150771D01*
X157390441Y-80143632D01*
X157389361Y-80136351D01*
X157389000Y-80129000D01*
X157389000Y-79979000D01*
X157389361Y-79971649D01*
X157390441Y-79964368D01*
X157392229Y-79957229D01*
X157394709Y-79950299D01*
X157397856Y-79943645D01*
X157401640Y-79937332D01*
X157406024Y-79931421D01*
X157410967Y-79925967D01*
X157416421Y-79921024D01*
X157422332Y-79916640D01*
X157428645Y-79912856D01*
X157435299Y-79909709D01*
X157442229Y-79907229D01*
X157449368Y-79905441D01*
X157456649Y-79904361D01*
X157464000Y-79904000D01*
X158789000Y-79904000D01*
X158796351Y-79904361D01*
X158796351Y-79904361D01*
G37*
D37*
X158126500Y-80054000D03*
D11*
G36*
X158796351Y-80404361D02*
G01*
X158803632Y-80405441D01*
X158810771Y-80407229D01*
X158817701Y-80409709D01*
X158824355Y-80412856D01*
X158830668Y-80416640D01*
X158836579Y-80421024D01*
X158842033Y-80425967D01*
X158846976Y-80431421D01*
X158851360Y-80437332D01*
X158855144Y-80443645D01*
X158858291Y-80450299D01*
X158860771Y-80457229D01*
X158862559Y-80464368D01*
X158863639Y-80471649D01*
X158864000Y-80479000D01*
X158864000Y-80629000D01*
X158863639Y-80636351D01*
X158862559Y-80643632D01*
X158860771Y-80650771D01*
X158858291Y-80657701D01*
X158855144Y-80664355D01*
X158851360Y-80670668D01*
X158846976Y-80676579D01*
X158842033Y-80682033D01*
X158836579Y-80686976D01*
X158830668Y-80691360D01*
X158824355Y-80695144D01*
X158817701Y-80698291D01*
X158810771Y-80700771D01*
X158803632Y-80702559D01*
X158796351Y-80703639D01*
X158789000Y-80704000D01*
X157464000Y-80704000D01*
X157456649Y-80703639D01*
X157449368Y-80702559D01*
X157442229Y-80700771D01*
X157435299Y-80698291D01*
X157428645Y-80695144D01*
X157422332Y-80691360D01*
X157416421Y-80686976D01*
X157410967Y-80682033D01*
X157406024Y-80676579D01*
X157401640Y-80670668D01*
X157397856Y-80664355D01*
X157394709Y-80657701D01*
X157392229Y-80650771D01*
X157390441Y-80643632D01*
X157389361Y-80636351D01*
X157389000Y-80629000D01*
X157389000Y-80479000D01*
X157389361Y-80471649D01*
X157390441Y-80464368D01*
X157392229Y-80457229D01*
X157394709Y-80450299D01*
X157397856Y-80443645D01*
X157401640Y-80437332D01*
X157406024Y-80431421D01*
X157410967Y-80425967D01*
X157416421Y-80421024D01*
X157422332Y-80416640D01*
X157428645Y-80412856D01*
X157435299Y-80409709D01*
X157442229Y-80407229D01*
X157449368Y-80405441D01*
X157456649Y-80404361D01*
X157464000Y-80404000D01*
X158789000Y-80404000D01*
X158796351Y-80404361D01*
X158796351Y-80404361D01*
G37*
D37*
X158126500Y-80554000D03*
D11*
G36*
X158796351Y-80904361D02*
G01*
X158803632Y-80905441D01*
X158810771Y-80907229D01*
X158817701Y-80909709D01*
X158824355Y-80912856D01*
X158830668Y-80916640D01*
X158836579Y-80921024D01*
X158842033Y-80925967D01*
X158846976Y-80931421D01*
X158851360Y-80937332D01*
X158855144Y-80943645D01*
X158858291Y-80950299D01*
X158860771Y-80957229D01*
X158862559Y-80964368D01*
X158863639Y-80971649D01*
X158864000Y-80979000D01*
X158864000Y-81129000D01*
X158863639Y-81136351D01*
X158862559Y-81143632D01*
X158860771Y-81150771D01*
X158858291Y-81157701D01*
X158855144Y-81164355D01*
X158851360Y-81170668D01*
X158846976Y-81176579D01*
X158842033Y-81182033D01*
X158836579Y-81186976D01*
X158830668Y-81191360D01*
X158824355Y-81195144D01*
X158817701Y-81198291D01*
X158810771Y-81200771D01*
X158803632Y-81202559D01*
X158796351Y-81203639D01*
X158789000Y-81204000D01*
X157464000Y-81204000D01*
X157456649Y-81203639D01*
X157449368Y-81202559D01*
X157442229Y-81200771D01*
X157435299Y-81198291D01*
X157428645Y-81195144D01*
X157422332Y-81191360D01*
X157416421Y-81186976D01*
X157410967Y-81182033D01*
X157406024Y-81176579D01*
X157401640Y-81170668D01*
X157397856Y-81164355D01*
X157394709Y-81157701D01*
X157392229Y-81150771D01*
X157390441Y-81143632D01*
X157389361Y-81136351D01*
X157389000Y-81129000D01*
X157389000Y-80979000D01*
X157389361Y-80971649D01*
X157390441Y-80964368D01*
X157392229Y-80957229D01*
X157394709Y-80950299D01*
X157397856Y-80943645D01*
X157401640Y-80937332D01*
X157406024Y-80931421D01*
X157410967Y-80925967D01*
X157416421Y-80921024D01*
X157422332Y-80916640D01*
X157428645Y-80912856D01*
X157435299Y-80909709D01*
X157442229Y-80907229D01*
X157449368Y-80905441D01*
X157456649Y-80904361D01*
X157464000Y-80904000D01*
X158789000Y-80904000D01*
X158796351Y-80904361D01*
X158796351Y-80904361D01*
G37*
D37*
X158126500Y-81054000D03*
D11*
G36*
X158796351Y-81404361D02*
G01*
X158803632Y-81405441D01*
X158810771Y-81407229D01*
X158817701Y-81409709D01*
X158824355Y-81412856D01*
X158830668Y-81416640D01*
X158836579Y-81421024D01*
X158842033Y-81425967D01*
X158846976Y-81431421D01*
X158851360Y-81437332D01*
X158855144Y-81443645D01*
X158858291Y-81450299D01*
X158860771Y-81457229D01*
X158862559Y-81464368D01*
X158863639Y-81471649D01*
X158864000Y-81479000D01*
X158864000Y-81629000D01*
X158863639Y-81636351D01*
X158862559Y-81643632D01*
X158860771Y-81650771D01*
X158858291Y-81657701D01*
X158855144Y-81664355D01*
X158851360Y-81670668D01*
X158846976Y-81676579D01*
X158842033Y-81682033D01*
X158836579Y-81686976D01*
X158830668Y-81691360D01*
X158824355Y-81695144D01*
X158817701Y-81698291D01*
X158810771Y-81700771D01*
X158803632Y-81702559D01*
X158796351Y-81703639D01*
X158789000Y-81704000D01*
X157464000Y-81704000D01*
X157456649Y-81703639D01*
X157449368Y-81702559D01*
X157442229Y-81700771D01*
X157435299Y-81698291D01*
X157428645Y-81695144D01*
X157422332Y-81691360D01*
X157416421Y-81686976D01*
X157410967Y-81682033D01*
X157406024Y-81676579D01*
X157401640Y-81670668D01*
X157397856Y-81664355D01*
X157394709Y-81657701D01*
X157392229Y-81650771D01*
X157390441Y-81643632D01*
X157389361Y-81636351D01*
X157389000Y-81629000D01*
X157389000Y-81479000D01*
X157389361Y-81471649D01*
X157390441Y-81464368D01*
X157392229Y-81457229D01*
X157394709Y-81450299D01*
X157397856Y-81443645D01*
X157401640Y-81437332D01*
X157406024Y-81431421D01*
X157410967Y-81425967D01*
X157416421Y-81421024D01*
X157422332Y-81416640D01*
X157428645Y-81412856D01*
X157435299Y-81409709D01*
X157442229Y-81407229D01*
X157449368Y-81405441D01*
X157456649Y-81404361D01*
X157464000Y-81404000D01*
X158789000Y-81404000D01*
X158796351Y-81404361D01*
X158796351Y-81404361D01*
G37*
D37*
X158126500Y-81554000D03*
D11*
G36*
X158796351Y-81904361D02*
G01*
X158803632Y-81905441D01*
X158810771Y-81907229D01*
X158817701Y-81909709D01*
X158824355Y-81912856D01*
X158830668Y-81916640D01*
X158836579Y-81921024D01*
X158842033Y-81925967D01*
X158846976Y-81931421D01*
X158851360Y-81937332D01*
X158855144Y-81943645D01*
X158858291Y-81950299D01*
X158860771Y-81957229D01*
X158862559Y-81964368D01*
X158863639Y-81971649D01*
X158864000Y-81979000D01*
X158864000Y-82129000D01*
X158863639Y-82136351D01*
X158862559Y-82143632D01*
X158860771Y-82150771D01*
X158858291Y-82157701D01*
X158855144Y-82164355D01*
X158851360Y-82170668D01*
X158846976Y-82176579D01*
X158842033Y-82182033D01*
X158836579Y-82186976D01*
X158830668Y-82191360D01*
X158824355Y-82195144D01*
X158817701Y-82198291D01*
X158810771Y-82200771D01*
X158803632Y-82202559D01*
X158796351Y-82203639D01*
X158789000Y-82204000D01*
X157464000Y-82204000D01*
X157456649Y-82203639D01*
X157449368Y-82202559D01*
X157442229Y-82200771D01*
X157435299Y-82198291D01*
X157428645Y-82195144D01*
X157422332Y-82191360D01*
X157416421Y-82186976D01*
X157410967Y-82182033D01*
X157406024Y-82176579D01*
X157401640Y-82170668D01*
X157397856Y-82164355D01*
X157394709Y-82157701D01*
X157392229Y-82150771D01*
X157390441Y-82143632D01*
X157389361Y-82136351D01*
X157389000Y-82129000D01*
X157389000Y-81979000D01*
X157389361Y-81971649D01*
X157390441Y-81964368D01*
X157392229Y-81957229D01*
X157394709Y-81950299D01*
X157397856Y-81943645D01*
X157401640Y-81937332D01*
X157406024Y-81931421D01*
X157410967Y-81925967D01*
X157416421Y-81921024D01*
X157422332Y-81916640D01*
X157428645Y-81912856D01*
X157435299Y-81909709D01*
X157442229Y-81907229D01*
X157449368Y-81905441D01*
X157456649Y-81904361D01*
X157464000Y-81904000D01*
X158789000Y-81904000D01*
X158796351Y-81904361D01*
X158796351Y-81904361D01*
G37*
D37*
X158126500Y-82054000D03*
D11*
G36*
X158796351Y-82404361D02*
G01*
X158803632Y-82405441D01*
X158810771Y-82407229D01*
X158817701Y-82409709D01*
X158824355Y-82412856D01*
X158830668Y-82416640D01*
X158836579Y-82421024D01*
X158842033Y-82425967D01*
X158846976Y-82431421D01*
X158851360Y-82437332D01*
X158855144Y-82443645D01*
X158858291Y-82450299D01*
X158860771Y-82457229D01*
X158862559Y-82464368D01*
X158863639Y-82471649D01*
X158864000Y-82479000D01*
X158864000Y-82629000D01*
X158863639Y-82636351D01*
X158862559Y-82643632D01*
X158860771Y-82650771D01*
X158858291Y-82657701D01*
X158855144Y-82664355D01*
X158851360Y-82670668D01*
X158846976Y-82676579D01*
X158842033Y-82682033D01*
X158836579Y-82686976D01*
X158830668Y-82691360D01*
X158824355Y-82695144D01*
X158817701Y-82698291D01*
X158810771Y-82700771D01*
X158803632Y-82702559D01*
X158796351Y-82703639D01*
X158789000Y-82704000D01*
X157464000Y-82704000D01*
X157456649Y-82703639D01*
X157449368Y-82702559D01*
X157442229Y-82700771D01*
X157435299Y-82698291D01*
X157428645Y-82695144D01*
X157422332Y-82691360D01*
X157416421Y-82686976D01*
X157410967Y-82682033D01*
X157406024Y-82676579D01*
X157401640Y-82670668D01*
X157397856Y-82664355D01*
X157394709Y-82657701D01*
X157392229Y-82650771D01*
X157390441Y-82643632D01*
X157389361Y-82636351D01*
X157389000Y-82629000D01*
X157389000Y-82479000D01*
X157389361Y-82471649D01*
X157390441Y-82464368D01*
X157392229Y-82457229D01*
X157394709Y-82450299D01*
X157397856Y-82443645D01*
X157401640Y-82437332D01*
X157406024Y-82431421D01*
X157410967Y-82425967D01*
X157416421Y-82421024D01*
X157422332Y-82416640D01*
X157428645Y-82412856D01*
X157435299Y-82409709D01*
X157442229Y-82407229D01*
X157449368Y-82405441D01*
X157456649Y-82404361D01*
X157464000Y-82404000D01*
X158789000Y-82404000D01*
X158796351Y-82404361D01*
X158796351Y-82404361D01*
G37*
D37*
X158126500Y-82554000D03*
D11*
G36*
X158796351Y-82904361D02*
G01*
X158803632Y-82905441D01*
X158810771Y-82907229D01*
X158817701Y-82909709D01*
X158824355Y-82912856D01*
X158830668Y-82916640D01*
X158836579Y-82921024D01*
X158842033Y-82925967D01*
X158846976Y-82931421D01*
X158851360Y-82937332D01*
X158855144Y-82943645D01*
X158858291Y-82950299D01*
X158860771Y-82957229D01*
X158862559Y-82964368D01*
X158863639Y-82971649D01*
X158864000Y-82979000D01*
X158864000Y-83129000D01*
X158863639Y-83136351D01*
X158862559Y-83143632D01*
X158860771Y-83150771D01*
X158858291Y-83157701D01*
X158855144Y-83164355D01*
X158851360Y-83170668D01*
X158846976Y-83176579D01*
X158842033Y-83182033D01*
X158836579Y-83186976D01*
X158830668Y-83191360D01*
X158824355Y-83195144D01*
X158817701Y-83198291D01*
X158810771Y-83200771D01*
X158803632Y-83202559D01*
X158796351Y-83203639D01*
X158789000Y-83204000D01*
X157464000Y-83204000D01*
X157456649Y-83203639D01*
X157449368Y-83202559D01*
X157442229Y-83200771D01*
X157435299Y-83198291D01*
X157428645Y-83195144D01*
X157422332Y-83191360D01*
X157416421Y-83186976D01*
X157410967Y-83182033D01*
X157406024Y-83176579D01*
X157401640Y-83170668D01*
X157397856Y-83164355D01*
X157394709Y-83157701D01*
X157392229Y-83150771D01*
X157390441Y-83143632D01*
X157389361Y-83136351D01*
X157389000Y-83129000D01*
X157389000Y-82979000D01*
X157389361Y-82971649D01*
X157390441Y-82964368D01*
X157392229Y-82957229D01*
X157394709Y-82950299D01*
X157397856Y-82943645D01*
X157401640Y-82937332D01*
X157406024Y-82931421D01*
X157410967Y-82925967D01*
X157416421Y-82921024D01*
X157422332Y-82916640D01*
X157428645Y-82912856D01*
X157435299Y-82909709D01*
X157442229Y-82907229D01*
X157449368Y-82905441D01*
X157456649Y-82904361D01*
X157464000Y-82904000D01*
X158789000Y-82904000D01*
X158796351Y-82904361D01*
X158796351Y-82904361D01*
G37*
D37*
X158126500Y-83054000D03*
D11*
G36*
X158796351Y-83404361D02*
G01*
X158803632Y-83405441D01*
X158810771Y-83407229D01*
X158817701Y-83409709D01*
X158824355Y-83412856D01*
X158830668Y-83416640D01*
X158836579Y-83421024D01*
X158842033Y-83425967D01*
X158846976Y-83431421D01*
X158851360Y-83437332D01*
X158855144Y-83443645D01*
X158858291Y-83450299D01*
X158860771Y-83457229D01*
X158862559Y-83464368D01*
X158863639Y-83471649D01*
X158864000Y-83479000D01*
X158864000Y-83629000D01*
X158863639Y-83636351D01*
X158862559Y-83643632D01*
X158860771Y-83650771D01*
X158858291Y-83657701D01*
X158855144Y-83664355D01*
X158851360Y-83670668D01*
X158846976Y-83676579D01*
X158842033Y-83682033D01*
X158836579Y-83686976D01*
X158830668Y-83691360D01*
X158824355Y-83695144D01*
X158817701Y-83698291D01*
X158810771Y-83700771D01*
X158803632Y-83702559D01*
X158796351Y-83703639D01*
X158789000Y-83704000D01*
X157464000Y-83704000D01*
X157456649Y-83703639D01*
X157449368Y-83702559D01*
X157442229Y-83700771D01*
X157435299Y-83698291D01*
X157428645Y-83695144D01*
X157422332Y-83691360D01*
X157416421Y-83686976D01*
X157410967Y-83682033D01*
X157406024Y-83676579D01*
X157401640Y-83670668D01*
X157397856Y-83664355D01*
X157394709Y-83657701D01*
X157392229Y-83650771D01*
X157390441Y-83643632D01*
X157389361Y-83636351D01*
X157389000Y-83629000D01*
X157389000Y-83479000D01*
X157389361Y-83471649D01*
X157390441Y-83464368D01*
X157392229Y-83457229D01*
X157394709Y-83450299D01*
X157397856Y-83443645D01*
X157401640Y-83437332D01*
X157406024Y-83431421D01*
X157410967Y-83425967D01*
X157416421Y-83421024D01*
X157422332Y-83416640D01*
X157428645Y-83412856D01*
X157435299Y-83409709D01*
X157442229Y-83407229D01*
X157449368Y-83405441D01*
X157456649Y-83404361D01*
X157464000Y-83404000D01*
X158789000Y-83404000D01*
X158796351Y-83404361D01*
X158796351Y-83404361D01*
G37*
D37*
X158126500Y-83554000D03*
D11*
G36*
X158796351Y-83904361D02*
G01*
X158803632Y-83905441D01*
X158810771Y-83907229D01*
X158817701Y-83909709D01*
X158824355Y-83912856D01*
X158830668Y-83916640D01*
X158836579Y-83921024D01*
X158842033Y-83925967D01*
X158846976Y-83931421D01*
X158851360Y-83937332D01*
X158855144Y-83943645D01*
X158858291Y-83950299D01*
X158860771Y-83957229D01*
X158862559Y-83964368D01*
X158863639Y-83971649D01*
X158864000Y-83979000D01*
X158864000Y-84129000D01*
X158863639Y-84136351D01*
X158862559Y-84143632D01*
X158860771Y-84150771D01*
X158858291Y-84157701D01*
X158855144Y-84164355D01*
X158851360Y-84170668D01*
X158846976Y-84176579D01*
X158842033Y-84182033D01*
X158836579Y-84186976D01*
X158830668Y-84191360D01*
X158824355Y-84195144D01*
X158817701Y-84198291D01*
X158810771Y-84200771D01*
X158803632Y-84202559D01*
X158796351Y-84203639D01*
X158789000Y-84204000D01*
X157464000Y-84204000D01*
X157456649Y-84203639D01*
X157449368Y-84202559D01*
X157442229Y-84200771D01*
X157435299Y-84198291D01*
X157428645Y-84195144D01*
X157422332Y-84191360D01*
X157416421Y-84186976D01*
X157410967Y-84182033D01*
X157406024Y-84176579D01*
X157401640Y-84170668D01*
X157397856Y-84164355D01*
X157394709Y-84157701D01*
X157392229Y-84150771D01*
X157390441Y-84143632D01*
X157389361Y-84136351D01*
X157389000Y-84129000D01*
X157389000Y-83979000D01*
X157389361Y-83971649D01*
X157390441Y-83964368D01*
X157392229Y-83957229D01*
X157394709Y-83950299D01*
X157397856Y-83943645D01*
X157401640Y-83937332D01*
X157406024Y-83931421D01*
X157410967Y-83925967D01*
X157416421Y-83921024D01*
X157422332Y-83916640D01*
X157428645Y-83912856D01*
X157435299Y-83909709D01*
X157442229Y-83907229D01*
X157449368Y-83905441D01*
X157456649Y-83904361D01*
X157464000Y-83904000D01*
X158789000Y-83904000D01*
X158796351Y-83904361D01*
X158796351Y-83904361D01*
G37*
D37*
X158126500Y-84054000D03*
D11*
G36*
X158796351Y-84404361D02*
G01*
X158803632Y-84405441D01*
X158810771Y-84407229D01*
X158817701Y-84409709D01*
X158824355Y-84412856D01*
X158830668Y-84416640D01*
X158836579Y-84421024D01*
X158842033Y-84425967D01*
X158846976Y-84431421D01*
X158851360Y-84437332D01*
X158855144Y-84443645D01*
X158858291Y-84450299D01*
X158860771Y-84457229D01*
X158862559Y-84464368D01*
X158863639Y-84471649D01*
X158864000Y-84479000D01*
X158864000Y-84629000D01*
X158863639Y-84636351D01*
X158862559Y-84643632D01*
X158860771Y-84650771D01*
X158858291Y-84657701D01*
X158855144Y-84664355D01*
X158851360Y-84670668D01*
X158846976Y-84676579D01*
X158842033Y-84682033D01*
X158836579Y-84686976D01*
X158830668Y-84691360D01*
X158824355Y-84695144D01*
X158817701Y-84698291D01*
X158810771Y-84700771D01*
X158803632Y-84702559D01*
X158796351Y-84703639D01*
X158789000Y-84704000D01*
X157464000Y-84704000D01*
X157456649Y-84703639D01*
X157449368Y-84702559D01*
X157442229Y-84700771D01*
X157435299Y-84698291D01*
X157428645Y-84695144D01*
X157422332Y-84691360D01*
X157416421Y-84686976D01*
X157410967Y-84682033D01*
X157406024Y-84676579D01*
X157401640Y-84670668D01*
X157397856Y-84664355D01*
X157394709Y-84657701D01*
X157392229Y-84650771D01*
X157390441Y-84643632D01*
X157389361Y-84636351D01*
X157389000Y-84629000D01*
X157389000Y-84479000D01*
X157389361Y-84471649D01*
X157390441Y-84464368D01*
X157392229Y-84457229D01*
X157394709Y-84450299D01*
X157397856Y-84443645D01*
X157401640Y-84437332D01*
X157406024Y-84431421D01*
X157410967Y-84425967D01*
X157416421Y-84421024D01*
X157422332Y-84416640D01*
X157428645Y-84412856D01*
X157435299Y-84409709D01*
X157442229Y-84407229D01*
X157449368Y-84405441D01*
X157456649Y-84404361D01*
X157464000Y-84404000D01*
X158789000Y-84404000D01*
X158796351Y-84404361D01*
X158796351Y-84404361D01*
G37*
D37*
X158126500Y-84554000D03*
D11*
G36*
X158796351Y-84904361D02*
G01*
X158803632Y-84905441D01*
X158810771Y-84907229D01*
X158817701Y-84909709D01*
X158824355Y-84912856D01*
X158830668Y-84916640D01*
X158836579Y-84921024D01*
X158842033Y-84925967D01*
X158846976Y-84931421D01*
X158851360Y-84937332D01*
X158855144Y-84943645D01*
X158858291Y-84950299D01*
X158860771Y-84957229D01*
X158862559Y-84964368D01*
X158863639Y-84971649D01*
X158864000Y-84979000D01*
X158864000Y-85129000D01*
X158863639Y-85136351D01*
X158862559Y-85143632D01*
X158860771Y-85150771D01*
X158858291Y-85157701D01*
X158855144Y-85164355D01*
X158851360Y-85170668D01*
X158846976Y-85176579D01*
X158842033Y-85182033D01*
X158836579Y-85186976D01*
X158830668Y-85191360D01*
X158824355Y-85195144D01*
X158817701Y-85198291D01*
X158810771Y-85200771D01*
X158803632Y-85202559D01*
X158796351Y-85203639D01*
X158789000Y-85204000D01*
X157464000Y-85204000D01*
X157456649Y-85203639D01*
X157449368Y-85202559D01*
X157442229Y-85200771D01*
X157435299Y-85198291D01*
X157428645Y-85195144D01*
X157422332Y-85191360D01*
X157416421Y-85186976D01*
X157410967Y-85182033D01*
X157406024Y-85176579D01*
X157401640Y-85170668D01*
X157397856Y-85164355D01*
X157394709Y-85157701D01*
X157392229Y-85150771D01*
X157390441Y-85143632D01*
X157389361Y-85136351D01*
X157389000Y-85129000D01*
X157389000Y-84979000D01*
X157389361Y-84971649D01*
X157390441Y-84964368D01*
X157392229Y-84957229D01*
X157394709Y-84950299D01*
X157397856Y-84943645D01*
X157401640Y-84937332D01*
X157406024Y-84931421D01*
X157410967Y-84925967D01*
X157416421Y-84921024D01*
X157422332Y-84916640D01*
X157428645Y-84912856D01*
X157435299Y-84909709D01*
X157442229Y-84907229D01*
X157449368Y-84905441D01*
X157456649Y-84904361D01*
X157464000Y-84904000D01*
X158789000Y-84904000D01*
X158796351Y-84904361D01*
X158796351Y-84904361D01*
G37*
D37*
X158126500Y-85054000D03*
D11*
G36*
X158796351Y-85404361D02*
G01*
X158803632Y-85405441D01*
X158810771Y-85407229D01*
X158817701Y-85409709D01*
X158824355Y-85412856D01*
X158830668Y-85416640D01*
X158836579Y-85421024D01*
X158842033Y-85425967D01*
X158846976Y-85431421D01*
X158851360Y-85437332D01*
X158855144Y-85443645D01*
X158858291Y-85450299D01*
X158860771Y-85457229D01*
X158862559Y-85464368D01*
X158863639Y-85471649D01*
X158864000Y-85479000D01*
X158864000Y-85629000D01*
X158863639Y-85636351D01*
X158862559Y-85643632D01*
X158860771Y-85650771D01*
X158858291Y-85657701D01*
X158855144Y-85664355D01*
X158851360Y-85670668D01*
X158846976Y-85676579D01*
X158842033Y-85682033D01*
X158836579Y-85686976D01*
X158830668Y-85691360D01*
X158824355Y-85695144D01*
X158817701Y-85698291D01*
X158810771Y-85700771D01*
X158803632Y-85702559D01*
X158796351Y-85703639D01*
X158789000Y-85704000D01*
X157464000Y-85704000D01*
X157456649Y-85703639D01*
X157449368Y-85702559D01*
X157442229Y-85700771D01*
X157435299Y-85698291D01*
X157428645Y-85695144D01*
X157422332Y-85691360D01*
X157416421Y-85686976D01*
X157410967Y-85682033D01*
X157406024Y-85676579D01*
X157401640Y-85670668D01*
X157397856Y-85664355D01*
X157394709Y-85657701D01*
X157392229Y-85650771D01*
X157390441Y-85643632D01*
X157389361Y-85636351D01*
X157389000Y-85629000D01*
X157389000Y-85479000D01*
X157389361Y-85471649D01*
X157390441Y-85464368D01*
X157392229Y-85457229D01*
X157394709Y-85450299D01*
X157397856Y-85443645D01*
X157401640Y-85437332D01*
X157406024Y-85431421D01*
X157410967Y-85425967D01*
X157416421Y-85421024D01*
X157422332Y-85416640D01*
X157428645Y-85412856D01*
X157435299Y-85409709D01*
X157442229Y-85407229D01*
X157449368Y-85405441D01*
X157456649Y-85404361D01*
X157464000Y-85404000D01*
X158789000Y-85404000D01*
X158796351Y-85404361D01*
X158796351Y-85404361D01*
G37*
D37*
X158126500Y-85554000D03*
D11*
G36*
X158796351Y-85904361D02*
G01*
X158803632Y-85905441D01*
X158810771Y-85907229D01*
X158817701Y-85909709D01*
X158824355Y-85912856D01*
X158830668Y-85916640D01*
X158836579Y-85921024D01*
X158842033Y-85925967D01*
X158846976Y-85931421D01*
X158851360Y-85937332D01*
X158855144Y-85943645D01*
X158858291Y-85950299D01*
X158860771Y-85957229D01*
X158862559Y-85964368D01*
X158863639Y-85971649D01*
X158864000Y-85979000D01*
X158864000Y-86129000D01*
X158863639Y-86136351D01*
X158862559Y-86143632D01*
X158860771Y-86150771D01*
X158858291Y-86157701D01*
X158855144Y-86164355D01*
X158851360Y-86170668D01*
X158846976Y-86176579D01*
X158842033Y-86182033D01*
X158836579Y-86186976D01*
X158830668Y-86191360D01*
X158824355Y-86195144D01*
X158817701Y-86198291D01*
X158810771Y-86200771D01*
X158803632Y-86202559D01*
X158796351Y-86203639D01*
X158789000Y-86204000D01*
X157464000Y-86204000D01*
X157456649Y-86203639D01*
X157449368Y-86202559D01*
X157442229Y-86200771D01*
X157435299Y-86198291D01*
X157428645Y-86195144D01*
X157422332Y-86191360D01*
X157416421Y-86186976D01*
X157410967Y-86182033D01*
X157406024Y-86176579D01*
X157401640Y-86170668D01*
X157397856Y-86164355D01*
X157394709Y-86157701D01*
X157392229Y-86150771D01*
X157390441Y-86143632D01*
X157389361Y-86136351D01*
X157389000Y-86129000D01*
X157389000Y-85979000D01*
X157389361Y-85971649D01*
X157390441Y-85964368D01*
X157392229Y-85957229D01*
X157394709Y-85950299D01*
X157397856Y-85943645D01*
X157401640Y-85937332D01*
X157406024Y-85931421D01*
X157410967Y-85925967D01*
X157416421Y-85921024D01*
X157422332Y-85916640D01*
X157428645Y-85912856D01*
X157435299Y-85909709D01*
X157442229Y-85907229D01*
X157449368Y-85905441D01*
X157456649Y-85904361D01*
X157464000Y-85904000D01*
X158789000Y-85904000D01*
X158796351Y-85904361D01*
X158796351Y-85904361D01*
G37*
D37*
X158126500Y-86054000D03*
D11*
G36*
X158796351Y-86404361D02*
G01*
X158803632Y-86405441D01*
X158810771Y-86407229D01*
X158817701Y-86409709D01*
X158824355Y-86412856D01*
X158830668Y-86416640D01*
X158836579Y-86421024D01*
X158842033Y-86425967D01*
X158846976Y-86431421D01*
X158851360Y-86437332D01*
X158855144Y-86443645D01*
X158858291Y-86450299D01*
X158860771Y-86457229D01*
X158862559Y-86464368D01*
X158863639Y-86471649D01*
X158864000Y-86479000D01*
X158864000Y-86629000D01*
X158863639Y-86636351D01*
X158862559Y-86643632D01*
X158860771Y-86650771D01*
X158858291Y-86657701D01*
X158855144Y-86664355D01*
X158851360Y-86670668D01*
X158846976Y-86676579D01*
X158842033Y-86682033D01*
X158836579Y-86686976D01*
X158830668Y-86691360D01*
X158824355Y-86695144D01*
X158817701Y-86698291D01*
X158810771Y-86700771D01*
X158803632Y-86702559D01*
X158796351Y-86703639D01*
X158789000Y-86704000D01*
X157464000Y-86704000D01*
X157456649Y-86703639D01*
X157449368Y-86702559D01*
X157442229Y-86700771D01*
X157435299Y-86698291D01*
X157428645Y-86695144D01*
X157422332Y-86691360D01*
X157416421Y-86686976D01*
X157410967Y-86682033D01*
X157406024Y-86676579D01*
X157401640Y-86670668D01*
X157397856Y-86664355D01*
X157394709Y-86657701D01*
X157392229Y-86650771D01*
X157390441Y-86643632D01*
X157389361Y-86636351D01*
X157389000Y-86629000D01*
X157389000Y-86479000D01*
X157389361Y-86471649D01*
X157390441Y-86464368D01*
X157392229Y-86457229D01*
X157394709Y-86450299D01*
X157397856Y-86443645D01*
X157401640Y-86437332D01*
X157406024Y-86431421D01*
X157410967Y-86425967D01*
X157416421Y-86421024D01*
X157422332Y-86416640D01*
X157428645Y-86412856D01*
X157435299Y-86409709D01*
X157442229Y-86407229D01*
X157449368Y-86405441D01*
X157456649Y-86404361D01*
X157464000Y-86404000D01*
X158789000Y-86404000D01*
X158796351Y-86404361D01*
X158796351Y-86404361D01*
G37*
D37*
X158126500Y-86554000D03*
D11*
G36*
X156296351Y-87729361D02*
G01*
X156303632Y-87730441D01*
X156310771Y-87732229D01*
X156317701Y-87734709D01*
X156324355Y-87737856D01*
X156330668Y-87741640D01*
X156336579Y-87746024D01*
X156342033Y-87750967D01*
X156346976Y-87756421D01*
X156351360Y-87762332D01*
X156355144Y-87768645D01*
X156358291Y-87775299D01*
X156360771Y-87782229D01*
X156362559Y-87789368D01*
X156363639Y-87796649D01*
X156364000Y-87804000D01*
X156364000Y-89129000D01*
X156363639Y-89136351D01*
X156362559Y-89143632D01*
X156360771Y-89150771D01*
X156358291Y-89157701D01*
X156355144Y-89164355D01*
X156351360Y-89170668D01*
X156346976Y-89176579D01*
X156342033Y-89182033D01*
X156336579Y-89186976D01*
X156330668Y-89191360D01*
X156324355Y-89195144D01*
X156317701Y-89198291D01*
X156310771Y-89200771D01*
X156303632Y-89202559D01*
X156296351Y-89203639D01*
X156289000Y-89204000D01*
X156139000Y-89204000D01*
X156131649Y-89203639D01*
X156124368Y-89202559D01*
X156117229Y-89200771D01*
X156110299Y-89198291D01*
X156103645Y-89195144D01*
X156097332Y-89191360D01*
X156091421Y-89186976D01*
X156085967Y-89182033D01*
X156081024Y-89176579D01*
X156076640Y-89170668D01*
X156072856Y-89164355D01*
X156069709Y-89157701D01*
X156067229Y-89150771D01*
X156065441Y-89143632D01*
X156064361Y-89136351D01*
X156064000Y-89129000D01*
X156064000Y-87804000D01*
X156064361Y-87796649D01*
X156065441Y-87789368D01*
X156067229Y-87782229D01*
X156069709Y-87775299D01*
X156072856Y-87768645D01*
X156076640Y-87762332D01*
X156081024Y-87756421D01*
X156085967Y-87750967D01*
X156091421Y-87746024D01*
X156097332Y-87741640D01*
X156103645Y-87737856D01*
X156110299Y-87734709D01*
X156117229Y-87732229D01*
X156124368Y-87730441D01*
X156131649Y-87729361D01*
X156139000Y-87729000D01*
X156289000Y-87729000D01*
X156296351Y-87729361D01*
X156296351Y-87729361D01*
G37*
D37*
X156214000Y-88466500D03*
D11*
G36*
X155796351Y-87729361D02*
G01*
X155803632Y-87730441D01*
X155810771Y-87732229D01*
X155817701Y-87734709D01*
X155824355Y-87737856D01*
X155830668Y-87741640D01*
X155836579Y-87746024D01*
X155842033Y-87750967D01*
X155846976Y-87756421D01*
X155851360Y-87762332D01*
X155855144Y-87768645D01*
X155858291Y-87775299D01*
X155860771Y-87782229D01*
X155862559Y-87789368D01*
X155863639Y-87796649D01*
X155864000Y-87804000D01*
X155864000Y-89129000D01*
X155863639Y-89136351D01*
X155862559Y-89143632D01*
X155860771Y-89150771D01*
X155858291Y-89157701D01*
X155855144Y-89164355D01*
X155851360Y-89170668D01*
X155846976Y-89176579D01*
X155842033Y-89182033D01*
X155836579Y-89186976D01*
X155830668Y-89191360D01*
X155824355Y-89195144D01*
X155817701Y-89198291D01*
X155810771Y-89200771D01*
X155803632Y-89202559D01*
X155796351Y-89203639D01*
X155789000Y-89204000D01*
X155639000Y-89204000D01*
X155631649Y-89203639D01*
X155624368Y-89202559D01*
X155617229Y-89200771D01*
X155610299Y-89198291D01*
X155603645Y-89195144D01*
X155597332Y-89191360D01*
X155591421Y-89186976D01*
X155585967Y-89182033D01*
X155581024Y-89176579D01*
X155576640Y-89170668D01*
X155572856Y-89164355D01*
X155569709Y-89157701D01*
X155567229Y-89150771D01*
X155565441Y-89143632D01*
X155564361Y-89136351D01*
X155564000Y-89129000D01*
X155564000Y-87804000D01*
X155564361Y-87796649D01*
X155565441Y-87789368D01*
X155567229Y-87782229D01*
X155569709Y-87775299D01*
X155572856Y-87768645D01*
X155576640Y-87762332D01*
X155581024Y-87756421D01*
X155585967Y-87750967D01*
X155591421Y-87746024D01*
X155597332Y-87741640D01*
X155603645Y-87737856D01*
X155610299Y-87734709D01*
X155617229Y-87732229D01*
X155624368Y-87730441D01*
X155631649Y-87729361D01*
X155639000Y-87729000D01*
X155789000Y-87729000D01*
X155796351Y-87729361D01*
X155796351Y-87729361D01*
G37*
D37*
X155714000Y-88466500D03*
D11*
G36*
X155296351Y-87729361D02*
G01*
X155303632Y-87730441D01*
X155310771Y-87732229D01*
X155317701Y-87734709D01*
X155324355Y-87737856D01*
X155330668Y-87741640D01*
X155336579Y-87746024D01*
X155342033Y-87750967D01*
X155346976Y-87756421D01*
X155351360Y-87762332D01*
X155355144Y-87768645D01*
X155358291Y-87775299D01*
X155360771Y-87782229D01*
X155362559Y-87789368D01*
X155363639Y-87796649D01*
X155364000Y-87804000D01*
X155364000Y-89129000D01*
X155363639Y-89136351D01*
X155362559Y-89143632D01*
X155360771Y-89150771D01*
X155358291Y-89157701D01*
X155355144Y-89164355D01*
X155351360Y-89170668D01*
X155346976Y-89176579D01*
X155342033Y-89182033D01*
X155336579Y-89186976D01*
X155330668Y-89191360D01*
X155324355Y-89195144D01*
X155317701Y-89198291D01*
X155310771Y-89200771D01*
X155303632Y-89202559D01*
X155296351Y-89203639D01*
X155289000Y-89204000D01*
X155139000Y-89204000D01*
X155131649Y-89203639D01*
X155124368Y-89202559D01*
X155117229Y-89200771D01*
X155110299Y-89198291D01*
X155103645Y-89195144D01*
X155097332Y-89191360D01*
X155091421Y-89186976D01*
X155085967Y-89182033D01*
X155081024Y-89176579D01*
X155076640Y-89170668D01*
X155072856Y-89164355D01*
X155069709Y-89157701D01*
X155067229Y-89150771D01*
X155065441Y-89143632D01*
X155064361Y-89136351D01*
X155064000Y-89129000D01*
X155064000Y-87804000D01*
X155064361Y-87796649D01*
X155065441Y-87789368D01*
X155067229Y-87782229D01*
X155069709Y-87775299D01*
X155072856Y-87768645D01*
X155076640Y-87762332D01*
X155081024Y-87756421D01*
X155085967Y-87750967D01*
X155091421Y-87746024D01*
X155097332Y-87741640D01*
X155103645Y-87737856D01*
X155110299Y-87734709D01*
X155117229Y-87732229D01*
X155124368Y-87730441D01*
X155131649Y-87729361D01*
X155139000Y-87729000D01*
X155289000Y-87729000D01*
X155296351Y-87729361D01*
X155296351Y-87729361D01*
G37*
D37*
X155214000Y-88466500D03*
D11*
G36*
X154796351Y-87729361D02*
G01*
X154803632Y-87730441D01*
X154810771Y-87732229D01*
X154817701Y-87734709D01*
X154824355Y-87737856D01*
X154830668Y-87741640D01*
X154836579Y-87746024D01*
X154842033Y-87750967D01*
X154846976Y-87756421D01*
X154851360Y-87762332D01*
X154855144Y-87768645D01*
X154858291Y-87775299D01*
X154860771Y-87782229D01*
X154862559Y-87789368D01*
X154863639Y-87796649D01*
X154864000Y-87804000D01*
X154864000Y-89129000D01*
X154863639Y-89136351D01*
X154862559Y-89143632D01*
X154860771Y-89150771D01*
X154858291Y-89157701D01*
X154855144Y-89164355D01*
X154851360Y-89170668D01*
X154846976Y-89176579D01*
X154842033Y-89182033D01*
X154836579Y-89186976D01*
X154830668Y-89191360D01*
X154824355Y-89195144D01*
X154817701Y-89198291D01*
X154810771Y-89200771D01*
X154803632Y-89202559D01*
X154796351Y-89203639D01*
X154789000Y-89204000D01*
X154639000Y-89204000D01*
X154631649Y-89203639D01*
X154624368Y-89202559D01*
X154617229Y-89200771D01*
X154610299Y-89198291D01*
X154603645Y-89195144D01*
X154597332Y-89191360D01*
X154591421Y-89186976D01*
X154585967Y-89182033D01*
X154581024Y-89176579D01*
X154576640Y-89170668D01*
X154572856Y-89164355D01*
X154569709Y-89157701D01*
X154567229Y-89150771D01*
X154565441Y-89143632D01*
X154564361Y-89136351D01*
X154564000Y-89129000D01*
X154564000Y-87804000D01*
X154564361Y-87796649D01*
X154565441Y-87789368D01*
X154567229Y-87782229D01*
X154569709Y-87775299D01*
X154572856Y-87768645D01*
X154576640Y-87762332D01*
X154581024Y-87756421D01*
X154585967Y-87750967D01*
X154591421Y-87746024D01*
X154597332Y-87741640D01*
X154603645Y-87737856D01*
X154610299Y-87734709D01*
X154617229Y-87732229D01*
X154624368Y-87730441D01*
X154631649Y-87729361D01*
X154639000Y-87729000D01*
X154789000Y-87729000D01*
X154796351Y-87729361D01*
X154796351Y-87729361D01*
G37*
D37*
X154714000Y-88466500D03*
D11*
G36*
X154296351Y-87729361D02*
G01*
X154303632Y-87730441D01*
X154310771Y-87732229D01*
X154317701Y-87734709D01*
X154324355Y-87737856D01*
X154330668Y-87741640D01*
X154336579Y-87746024D01*
X154342033Y-87750967D01*
X154346976Y-87756421D01*
X154351360Y-87762332D01*
X154355144Y-87768645D01*
X154358291Y-87775299D01*
X154360771Y-87782229D01*
X154362559Y-87789368D01*
X154363639Y-87796649D01*
X154364000Y-87804000D01*
X154364000Y-89129000D01*
X154363639Y-89136351D01*
X154362559Y-89143632D01*
X154360771Y-89150771D01*
X154358291Y-89157701D01*
X154355144Y-89164355D01*
X154351360Y-89170668D01*
X154346976Y-89176579D01*
X154342033Y-89182033D01*
X154336579Y-89186976D01*
X154330668Y-89191360D01*
X154324355Y-89195144D01*
X154317701Y-89198291D01*
X154310771Y-89200771D01*
X154303632Y-89202559D01*
X154296351Y-89203639D01*
X154289000Y-89204000D01*
X154139000Y-89204000D01*
X154131649Y-89203639D01*
X154124368Y-89202559D01*
X154117229Y-89200771D01*
X154110299Y-89198291D01*
X154103645Y-89195144D01*
X154097332Y-89191360D01*
X154091421Y-89186976D01*
X154085967Y-89182033D01*
X154081024Y-89176579D01*
X154076640Y-89170668D01*
X154072856Y-89164355D01*
X154069709Y-89157701D01*
X154067229Y-89150771D01*
X154065441Y-89143632D01*
X154064361Y-89136351D01*
X154064000Y-89129000D01*
X154064000Y-87804000D01*
X154064361Y-87796649D01*
X154065441Y-87789368D01*
X154067229Y-87782229D01*
X154069709Y-87775299D01*
X154072856Y-87768645D01*
X154076640Y-87762332D01*
X154081024Y-87756421D01*
X154085967Y-87750967D01*
X154091421Y-87746024D01*
X154097332Y-87741640D01*
X154103645Y-87737856D01*
X154110299Y-87734709D01*
X154117229Y-87732229D01*
X154124368Y-87730441D01*
X154131649Y-87729361D01*
X154139000Y-87729000D01*
X154289000Y-87729000D01*
X154296351Y-87729361D01*
X154296351Y-87729361D01*
G37*
D37*
X154214000Y-88466500D03*
D11*
G36*
X153796351Y-87729361D02*
G01*
X153803632Y-87730441D01*
X153810771Y-87732229D01*
X153817701Y-87734709D01*
X153824355Y-87737856D01*
X153830668Y-87741640D01*
X153836579Y-87746024D01*
X153842033Y-87750967D01*
X153846976Y-87756421D01*
X153851360Y-87762332D01*
X153855144Y-87768645D01*
X153858291Y-87775299D01*
X153860771Y-87782229D01*
X153862559Y-87789368D01*
X153863639Y-87796649D01*
X153864000Y-87804000D01*
X153864000Y-89129000D01*
X153863639Y-89136351D01*
X153862559Y-89143632D01*
X153860771Y-89150771D01*
X153858291Y-89157701D01*
X153855144Y-89164355D01*
X153851360Y-89170668D01*
X153846976Y-89176579D01*
X153842033Y-89182033D01*
X153836579Y-89186976D01*
X153830668Y-89191360D01*
X153824355Y-89195144D01*
X153817701Y-89198291D01*
X153810771Y-89200771D01*
X153803632Y-89202559D01*
X153796351Y-89203639D01*
X153789000Y-89204000D01*
X153639000Y-89204000D01*
X153631649Y-89203639D01*
X153624368Y-89202559D01*
X153617229Y-89200771D01*
X153610299Y-89198291D01*
X153603645Y-89195144D01*
X153597332Y-89191360D01*
X153591421Y-89186976D01*
X153585967Y-89182033D01*
X153581024Y-89176579D01*
X153576640Y-89170668D01*
X153572856Y-89164355D01*
X153569709Y-89157701D01*
X153567229Y-89150771D01*
X153565441Y-89143632D01*
X153564361Y-89136351D01*
X153564000Y-89129000D01*
X153564000Y-87804000D01*
X153564361Y-87796649D01*
X153565441Y-87789368D01*
X153567229Y-87782229D01*
X153569709Y-87775299D01*
X153572856Y-87768645D01*
X153576640Y-87762332D01*
X153581024Y-87756421D01*
X153585967Y-87750967D01*
X153591421Y-87746024D01*
X153597332Y-87741640D01*
X153603645Y-87737856D01*
X153610299Y-87734709D01*
X153617229Y-87732229D01*
X153624368Y-87730441D01*
X153631649Y-87729361D01*
X153639000Y-87729000D01*
X153789000Y-87729000D01*
X153796351Y-87729361D01*
X153796351Y-87729361D01*
G37*
D37*
X153714000Y-88466500D03*
D11*
G36*
X153296351Y-87729361D02*
G01*
X153303632Y-87730441D01*
X153310771Y-87732229D01*
X153317701Y-87734709D01*
X153324355Y-87737856D01*
X153330668Y-87741640D01*
X153336579Y-87746024D01*
X153342033Y-87750967D01*
X153346976Y-87756421D01*
X153351360Y-87762332D01*
X153355144Y-87768645D01*
X153358291Y-87775299D01*
X153360771Y-87782229D01*
X153362559Y-87789368D01*
X153363639Y-87796649D01*
X153364000Y-87804000D01*
X153364000Y-89129000D01*
X153363639Y-89136351D01*
X153362559Y-89143632D01*
X153360771Y-89150771D01*
X153358291Y-89157701D01*
X153355144Y-89164355D01*
X153351360Y-89170668D01*
X153346976Y-89176579D01*
X153342033Y-89182033D01*
X153336579Y-89186976D01*
X153330668Y-89191360D01*
X153324355Y-89195144D01*
X153317701Y-89198291D01*
X153310771Y-89200771D01*
X153303632Y-89202559D01*
X153296351Y-89203639D01*
X153289000Y-89204000D01*
X153139000Y-89204000D01*
X153131649Y-89203639D01*
X153124368Y-89202559D01*
X153117229Y-89200771D01*
X153110299Y-89198291D01*
X153103645Y-89195144D01*
X153097332Y-89191360D01*
X153091421Y-89186976D01*
X153085967Y-89182033D01*
X153081024Y-89176579D01*
X153076640Y-89170668D01*
X153072856Y-89164355D01*
X153069709Y-89157701D01*
X153067229Y-89150771D01*
X153065441Y-89143632D01*
X153064361Y-89136351D01*
X153064000Y-89129000D01*
X153064000Y-87804000D01*
X153064361Y-87796649D01*
X153065441Y-87789368D01*
X153067229Y-87782229D01*
X153069709Y-87775299D01*
X153072856Y-87768645D01*
X153076640Y-87762332D01*
X153081024Y-87756421D01*
X153085967Y-87750967D01*
X153091421Y-87746024D01*
X153097332Y-87741640D01*
X153103645Y-87737856D01*
X153110299Y-87734709D01*
X153117229Y-87732229D01*
X153124368Y-87730441D01*
X153131649Y-87729361D01*
X153139000Y-87729000D01*
X153289000Y-87729000D01*
X153296351Y-87729361D01*
X153296351Y-87729361D01*
G37*
D37*
X153214000Y-88466500D03*
D11*
G36*
X152796351Y-87729361D02*
G01*
X152803632Y-87730441D01*
X152810771Y-87732229D01*
X152817701Y-87734709D01*
X152824355Y-87737856D01*
X152830668Y-87741640D01*
X152836579Y-87746024D01*
X152842033Y-87750967D01*
X152846976Y-87756421D01*
X152851360Y-87762332D01*
X152855144Y-87768645D01*
X152858291Y-87775299D01*
X152860771Y-87782229D01*
X152862559Y-87789368D01*
X152863639Y-87796649D01*
X152864000Y-87804000D01*
X152864000Y-89129000D01*
X152863639Y-89136351D01*
X152862559Y-89143632D01*
X152860771Y-89150771D01*
X152858291Y-89157701D01*
X152855144Y-89164355D01*
X152851360Y-89170668D01*
X152846976Y-89176579D01*
X152842033Y-89182033D01*
X152836579Y-89186976D01*
X152830668Y-89191360D01*
X152824355Y-89195144D01*
X152817701Y-89198291D01*
X152810771Y-89200771D01*
X152803632Y-89202559D01*
X152796351Y-89203639D01*
X152789000Y-89204000D01*
X152639000Y-89204000D01*
X152631649Y-89203639D01*
X152624368Y-89202559D01*
X152617229Y-89200771D01*
X152610299Y-89198291D01*
X152603645Y-89195144D01*
X152597332Y-89191360D01*
X152591421Y-89186976D01*
X152585967Y-89182033D01*
X152581024Y-89176579D01*
X152576640Y-89170668D01*
X152572856Y-89164355D01*
X152569709Y-89157701D01*
X152567229Y-89150771D01*
X152565441Y-89143632D01*
X152564361Y-89136351D01*
X152564000Y-89129000D01*
X152564000Y-87804000D01*
X152564361Y-87796649D01*
X152565441Y-87789368D01*
X152567229Y-87782229D01*
X152569709Y-87775299D01*
X152572856Y-87768645D01*
X152576640Y-87762332D01*
X152581024Y-87756421D01*
X152585967Y-87750967D01*
X152591421Y-87746024D01*
X152597332Y-87741640D01*
X152603645Y-87737856D01*
X152610299Y-87734709D01*
X152617229Y-87732229D01*
X152624368Y-87730441D01*
X152631649Y-87729361D01*
X152639000Y-87729000D01*
X152789000Y-87729000D01*
X152796351Y-87729361D01*
X152796351Y-87729361D01*
G37*
D37*
X152714000Y-88466500D03*
D11*
G36*
X152296351Y-87729361D02*
G01*
X152303632Y-87730441D01*
X152310771Y-87732229D01*
X152317701Y-87734709D01*
X152324355Y-87737856D01*
X152330668Y-87741640D01*
X152336579Y-87746024D01*
X152342033Y-87750967D01*
X152346976Y-87756421D01*
X152351360Y-87762332D01*
X152355144Y-87768645D01*
X152358291Y-87775299D01*
X152360771Y-87782229D01*
X152362559Y-87789368D01*
X152363639Y-87796649D01*
X152364000Y-87804000D01*
X152364000Y-89129000D01*
X152363639Y-89136351D01*
X152362559Y-89143632D01*
X152360771Y-89150771D01*
X152358291Y-89157701D01*
X152355144Y-89164355D01*
X152351360Y-89170668D01*
X152346976Y-89176579D01*
X152342033Y-89182033D01*
X152336579Y-89186976D01*
X152330668Y-89191360D01*
X152324355Y-89195144D01*
X152317701Y-89198291D01*
X152310771Y-89200771D01*
X152303632Y-89202559D01*
X152296351Y-89203639D01*
X152289000Y-89204000D01*
X152139000Y-89204000D01*
X152131649Y-89203639D01*
X152124368Y-89202559D01*
X152117229Y-89200771D01*
X152110299Y-89198291D01*
X152103645Y-89195144D01*
X152097332Y-89191360D01*
X152091421Y-89186976D01*
X152085967Y-89182033D01*
X152081024Y-89176579D01*
X152076640Y-89170668D01*
X152072856Y-89164355D01*
X152069709Y-89157701D01*
X152067229Y-89150771D01*
X152065441Y-89143632D01*
X152064361Y-89136351D01*
X152064000Y-89129000D01*
X152064000Y-87804000D01*
X152064361Y-87796649D01*
X152065441Y-87789368D01*
X152067229Y-87782229D01*
X152069709Y-87775299D01*
X152072856Y-87768645D01*
X152076640Y-87762332D01*
X152081024Y-87756421D01*
X152085967Y-87750967D01*
X152091421Y-87746024D01*
X152097332Y-87741640D01*
X152103645Y-87737856D01*
X152110299Y-87734709D01*
X152117229Y-87732229D01*
X152124368Y-87730441D01*
X152131649Y-87729361D01*
X152139000Y-87729000D01*
X152289000Y-87729000D01*
X152296351Y-87729361D01*
X152296351Y-87729361D01*
G37*
D37*
X152214000Y-88466500D03*
D11*
G36*
X151796351Y-87729361D02*
G01*
X151803632Y-87730441D01*
X151810771Y-87732229D01*
X151817701Y-87734709D01*
X151824355Y-87737856D01*
X151830668Y-87741640D01*
X151836579Y-87746024D01*
X151842033Y-87750967D01*
X151846976Y-87756421D01*
X151851360Y-87762332D01*
X151855144Y-87768645D01*
X151858291Y-87775299D01*
X151860771Y-87782229D01*
X151862559Y-87789368D01*
X151863639Y-87796649D01*
X151864000Y-87804000D01*
X151864000Y-89129000D01*
X151863639Y-89136351D01*
X151862559Y-89143632D01*
X151860771Y-89150771D01*
X151858291Y-89157701D01*
X151855144Y-89164355D01*
X151851360Y-89170668D01*
X151846976Y-89176579D01*
X151842033Y-89182033D01*
X151836579Y-89186976D01*
X151830668Y-89191360D01*
X151824355Y-89195144D01*
X151817701Y-89198291D01*
X151810771Y-89200771D01*
X151803632Y-89202559D01*
X151796351Y-89203639D01*
X151789000Y-89204000D01*
X151639000Y-89204000D01*
X151631649Y-89203639D01*
X151624368Y-89202559D01*
X151617229Y-89200771D01*
X151610299Y-89198291D01*
X151603645Y-89195144D01*
X151597332Y-89191360D01*
X151591421Y-89186976D01*
X151585967Y-89182033D01*
X151581024Y-89176579D01*
X151576640Y-89170668D01*
X151572856Y-89164355D01*
X151569709Y-89157701D01*
X151567229Y-89150771D01*
X151565441Y-89143632D01*
X151564361Y-89136351D01*
X151564000Y-89129000D01*
X151564000Y-87804000D01*
X151564361Y-87796649D01*
X151565441Y-87789368D01*
X151567229Y-87782229D01*
X151569709Y-87775299D01*
X151572856Y-87768645D01*
X151576640Y-87762332D01*
X151581024Y-87756421D01*
X151585967Y-87750967D01*
X151591421Y-87746024D01*
X151597332Y-87741640D01*
X151603645Y-87737856D01*
X151610299Y-87734709D01*
X151617229Y-87732229D01*
X151624368Y-87730441D01*
X151631649Y-87729361D01*
X151639000Y-87729000D01*
X151789000Y-87729000D01*
X151796351Y-87729361D01*
X151796351Y-87729361D01*
G37*
D37*
X151714000Y-88466500D03*
D11*
G36*
X151296351Y-87729361D02*
G01*
X151303632Y-87730441D01*
X151310771Y-87732229D01*
X151317701Y-87734709D01*
X151324355Y-87737856D01*
X151330668Y-87741640D01*
X151336579Y-87746024D01*
X151342033Y-87750967D01*
X151346976Y-87756421D01*
X151351360Y-87762332D01*
X151355144Y-87768645D01*
X151358291Y-87775299D01*
X151360771Y-87782229D01*
X151362559Y-87789368D01*
X151363639Y-87796649D01*
X151364000Y-87804000D01*
X151364000Y-89129000D01*
X151363639Y-89136351D01*
X151362559Y-89143632D01*
X151360771Y-89150771D01*
X151358291Y-89157701D01*
X151355144Y-89164355D01*
X151351360Y-89170668D01*
X151346976Y-89176579D01*
X151342033Y-89182033D01*
X151336579Y-89186976D01*
X151330668Y-89191360D01*
X151324355Y-89195144D01*
X151317701Y-89198291D01*
X151310771Y-89200771D01*
X151303632Y-89202559D01*
X151296351Y-89203639D01*
X151289000Y-89204000D01*
X151139000Y-89204000D01*
X151131649Y-89203639D01*
X151124368Y-89202559D01*
X151117229Y-89200771D01*
X151110299Y-89198291D01*
X151103645Y-89195144D01*
X151097332Y-89191360D01*
X151091421Y-89186976D01*
X151085967Y-89182033D01*
X151081024Y-89176579D01*
X151076640Y-89170668D01*
X151072856Y-89164355D01*
X151069709Y-89157701D01*
X151067229Y-89150771D01*
X151065441Y-89143632D01*
X151064361Y-89136351D01*
X151064000Y-89129000D01*
X151064000Y-87804000D01*
X151064361Y-87796649D01*
X151065441Y-87789368D01*
X151067229Y-87782229D01*
X151069709Y-87775299D01*
X151072856Y-87768645D01*
X151076640Y-87762332D01*
X151081024Y-87756421D01*
X151085967Y-87750967D01*
X151091421Y-87746024D01*
X151097332Y-87741640D01*
X151103645Y-87737856D01*
X151110299Y-87734709D01*
X151117229Y-87732229D01*
X151124368Y-87730441D01*
X151131649Y-87729361D01*
X151139000Y-87729000D01*
X151289000Y-87729000D01*
X151296351Y-87729361D01*
X151296351Y-87729361D01*
G37*
D37*
X151214000Y-88466500D03*
D11*
G36*
X150796351Y-87729361D02*
G01*
X150803632Y-87730441D01*
X150810771Y-87732229D01*
X150817701Y-87734709D01*
X150824355Y-87737856D01*
X150830668Y-87741640D01*
X150836579Y-87746024D01*
X150842033Y-87750967D01*
X150846976Y-87756421D01*
X150851360Y-87762332D01*
X150855144Y-87768645D01*
X150858291Y-87775299D01*
X150860771Y-87782229D01*
X150862559Y-87789368D01*
X150863639Y-87796649D01*
X150864000Y-87804000D01*
X150864000Y-89129000D01*
X150863639Y-89136351D01*
X150862559Y-89143632D01*
X150860771Y-89150771D01*
X150858291Y-89157701D01*
X150855144Y-89164355D01*
X150851360Y-89170668D01*
X150846976Y-89176579D01*
X150842033Y-89182033D01*
X150836579Y-89186976D01*
X150830668Y-89191360D01*
X150824355Y-89195144D01*
X150817701Y-89198291D01*
X150810771Y-89200771D01*
X150803632Y-89202559D01*
X150796351Y-89203639D01*
X150789000Y-89204000D01*
X150639000Y-89204000D01*
X150631649Y-89203639D01*
X150624368Y-89202559D01*
X150617229Y-89200771D01*
X150610299Y-89198291D01*
X150603645Y-89195144D01*
X150597332Y-89191360D01*
X150591421Y-89186976D01*
X150585967Y-89182033D01*
X150581024Y-89176579D01*
X150576640Y-89170668D01*
X150572856Y-89164355D01*
X150569709Y-89157701D01*
X150567229Y-89150771D01*
X150565441Y-89143632D01*
X150564361Y-89136351D01*
X150564000Y-89129000D01*
X150564000Y-87804000D01*
X150564361Y-87796649D01*
X150565441Y-87789368D01*
X150567229Y-87782229D01*
X150569709Y-87775299D01*
X150572856Y-87768645D01*
X150576640Y-87762332D01*
X150581024Y-87756421D01*
X150585967Y-87750967D01*
X150591421Y-87746024D01*
X150597332Y-87741640D01*
X150603645Y-87737856D01*
X150610299Y-87734709D01*
X150617229Y-87732229D01*
X150624368Y-87730441D01*
X150631649Y-87729361D01*
X150639000Y-87729000D01*
X150789000Y-87729000D01*
X150796351Y-87729361D01*
X150796351Y-87729361D01*
G37*
D37*
X150714000Y-88466500D03*
D11*
G36*
X150296351Y-87729361D02*
G01*
X150303632Y-87730441D01*
X150310771Y-87732229D01*
X150317701Y-87734709D01*
X150324355Y-87737856D01*
X150330668Y-87741640D01*
X150336579Y-87746024D01*
X150342033Y-87750967D01*
X150346976Y-87756421D01*
X150351360Y-87762332D01*
X150355144Y-87768645D01*
X150358291Y-87775299D01*
X150360771Y-87782229D01*
X150362559Y-87789368D01*
X150363639Y-87796649D01*
X150364000Y-87804000D01*
X150364000Y-89129000D01*
X150363639Y-89136351D01*
X150362559Y-89143632D01*
X150360771Y-89150771D01*
X150358291Y-89157701D01*
X150355144Y-89164355D01*
X150351360Y-89170668D01*
X150346976Y-89176579D01*
X150342033Y-89182033D01*
X150336579Y-89186976D01*
X150330668Y-89191360D01*
X150324355Y-89195144D01*
X150317701Y-89198291D01*
X150310771Y-89200771D01*
X150303632Y-89202559D01*
X150296351Y-89203639D01*
X150289000Y-89204000D01*
X150139000Y-89204000D01*
X150131649Y-89203639D01*
X150124368Y-89202559D01*
X150117229Y-89200771D01*
X150110299Y-89198291D01*
X150103645Y-89195144D01*
X150097332Y-89191360D01*
X150091421Y-89186976D01*
X150085967Y-89182033D01*
X150081024Y-89176579D01*
X150076640Y-89170668D01*
X150072856Y-89164355D01*
X150069709Y-89157701D01*
X150067229Y-89150771D01*
X150065441Y-89143632D01*
X150064361Y-89136351D01*
X150064000Y-89129000D01*
X150064000Y-87804000D01*
X150064361Y-87796649D01*
X150065441Y-87789368D01*
X150067229Y-87782229D01*
X150069709Y-87775299D01*
X150072856Y-87768645D01*
X150076640Y-87762332D01*
X150081024Y-87756421D01*
X150085967Y-87750967D01*
X150091421Y-87746024D01*
X150097332Y-87741640D01*
X150103645Y-87737856D01*
X150110299Y-87734709D01*
X150117229Y-87732229D01*
X150124368Y-87730441D01*
X150131649Y-87729361D01*
X150139000Y-87729000D01*
X150289000Y-87729000D01*
X150296351Y-87729361D01*
X150296351Y-87729361D01*
G37*
D37*
X150214000Y-88466500D03*
D11*
G36*
X149796351Y-87729361D02*
G01*
X149803632Y-87730441D01*
X149810771Y-87732229D01*
X149817701Y-87734709D01*
X149824355Y-87737856D01*
X149830668Y-87741640D01*
X149836579Y-87746024D01*
X149842033Y-87750967D01*
X149846976Y-87756421D01*
X149851360Y-87762332D01*
X149855144Y-87768645D01*
X149858291Y-87775299D01*
X149860771Y-87782229D01*
X149862559Y-87789368D01*
X149863639Y-87796649D01*
X149864000Y-87804000D01*
X149864000Y-89129000D01*
X149863639Y-89136351D01*
X149862559Y-89143632D01*
X149860771Y-89150771D01*
X149858291Y-89157701D01*
X149855144Y-89164355D01*
X149851360Y-89170668D01*
X149846976Y-89176579D01*
X149842033Y-89182033D01*
X149836579Y-89186976D01*
X149830668Y-89191360D01*
X149824355Y-89195144D01*
X149817701Y-89198291D01*
X149810771Y-89200771D01*
X149803632Y-89202559D01*
X149796351Y-89203639D01*
X149789000Y-89204000D01*
X149639000Y-89204000D01*
X149631649Y-89203639D01*
X149624368Y-89202559D01*
X149617229Y-89200771D01*
X149610299Y-89198291D01*
X149603645Y-89195144D01*
X149597332Y-89191360D01*
X149591421Y-89186976D01*
X149585967Y-89182033D01*
X149581024Y-89176579D01*
X149576640Y-89170668D01*
X149572856Y-89164355D01*
X149569709Y-89157701D01*
X149567229Y-89150771D01*
X149565441Y-89143632D01*
X149564361Y-89136351D01*
X149564000Y-89129000D01*
X149564000Y-87804000D01*
X149564361Y-87796649D01*
X149565441Y-87789368D01*
X149567229Y-87782229D01*
X149569709Y-87775299D01*
X149572856Y-87768645D01*
X149576640Y-87762332D01*
X149581024Y-87756421D01*
X149585967Y-87750967D01*
X149591421Y-87746024D01*
X149597332Y-87741640D01*
X149603645Y-87737856D01*
X149610299Y-87734709D01*
X149617229Y-87732229D01*
X149624368Y-87730441D01*
X149631649Y-87729361D01*
X149639000Y-87729000D01*
X149789000Y-87729000D01*
X149796351Y-87729361D01*
X149796351Y-87729361D01*
G37*
D37*
X149714000Y-88466500D03*
D11*
G36*
X149296351Y-87729361D02*
G01*
X149303632Y-87730441D01*
X149310771Y-87732229D01*
X149317701Y-87734709D01*
X149324355Y-87737856D01*
X149330668Y-87741640D01*
X149336579Y-87746024D01*
X149342033Y-87750967D01*
X149346976Y-87756421D01*
X149351360Y-87762332D01*
X149355144Y-87768645D01*
X149358291Y-87775299D01*
X149360771Y-87782229D01*
X149362559Y-87789368D01*
X149363639Y-87796649D01*
X149364000Y-87804000D01*
X149364000Y-89129000D01*
X149363639Y-89136351D01*
X149362559Y-89143632D01*
X149360771Y-89150771D01*
X149358291Y-89157701D01*
X149355144Y-89164355D01*
X149351360Y-89170668D01*
X149346976Y-89176579D01*
X149342033Y-89182033D01*
X149336579Y-89186976D01*
X149330668Y-89191360D01*
X149324355Y-89195144D01*
X149317701Y-89198291D01*
X149310771Y-89200771D01*
X149303632Y-89202559D01*
X149296351Y-89203639D01*
X149289000Y-89204000D01*
X149139000Y-89204000D01*
X149131649Y-89203639D01*
X149124368Y-89202559D01*
X149117229Y-89200771D01*
X149110299Y-89198291D01*
X149103645Y-89195144D01*
X149097332Y-89191360D01*
X149091421Y-89186976D01*
X149085967Y-89182033D01*
X149081024Y-89176579D01*
X149076640Y-89170668D01*
X149072856Y-89164355D01*
X149069709Y-89157701D01*
X149067229Y-89150771D01*
X149065441Y-89143632D01*
X149064361Y-89136351D01*
X149064000Y-89129000D01*
X149064000Y-87804000D01*
X149064361Y-87796649D01*
X149065441Y-87789368D01*
X149067229Y-87782229D01*
X149069709Y-87775299D01*
X149072856Y-87768645D01*
X149076640Y-87762332D01*
X149081024Y-87756421D01*
X149085967Y-87750967D01*
X149091421Y-87746024D01*
X149097332Y-87741640D01*
X149103645Y-87737856D01*
X149110299Y-87734709D01*
X149117229Y-87732229D01*
X149124368Y-87730441D01*
X149131649Y-87729361D01*
X149139000Y-87729000D01*
X149289000Y-87729000D01*
X149296351Y-87729361D01*
X149296351Y-87729361D01*
G37*
D37*
X149214000Y-88466500D03*
D11*
G36*
X148796351Y-87729361D02*
G01*
X148803632Y-87730441D01*
X148810771Y-87732229D01*
X148817701Y-87734709D01*
X148824355Y-87737856D01*
X148830668Y-87741640D01*
X148836579Y-87746024D01*
X148842033Y-87750967D01*
X148846976Y-87756421D01*
X148851360Y-87762332D01*
X148855144Y-87768645D01*
X148858291Y-87775299D01*
X148860771Y-87782229D01*
X148862559Y-87789368D01*
X148863639Y-87796649D01*
X148864000Y-87804000D01*
X148864000Y-89129000D01*
X148863639Y-89136351D01*
X148862559Y-89143632D01*
X148860771Y-89150771D01*
X148858291Y-89157701D01*
X148855144Y-89164355D01*
X148851360Y-89170668D01*
X148846976Y-89176579D01*
X148842033Y-89182033D01*
X148836579Y-89186976D01*
X148830668Y-89191360D01*
X148824355Y-89195144D01*
X148817701Y-89198291D01*
X148810771Y-89200771D01*
X148803632Y-89202559D01*
X148796351Y-89203639D01*
X148789000Y-89204000D01*
X148639000Y-89204000D01*
X148631649Y-89203639D01*
X148624368Y-89202559D01*
X148617229Y-89200771D01*
X148610299Y-89198291D01*
X148603645Y-89195144D01*
X148597332Y-89191360D01*
X148591421Y-89186976D01*
X148585967Y-89182033D01*
X148581024Y-89176579D01*
X148576640Y-89170668D01*
X148572856Y-89164355D01*
X148569709Y-89157701D01*
X148567229Y-89150771D01*
X148565441Y-89143632D01*
X148564361Y-89136351D01*
X148564000Y-89129000D01*
X148564000Y-87804000D01*
X148564361Y-87796649D01*
X148565441Y-87789368D01*
X148567229Y-87782229D01*
X148569709Y-87775299D01*
X148572856Y-87768645D01*
X148576640Y-87762332D01*
X148581024Y-87756421D01*
X148585967Y-87750967D01*
X148591421Y-87746024D01*
X148597332Y-87741640D01*
X148603645Y-87737856D01*
X148610299Y-87734709D01*
X148617229Y-87732229D01*
X148624368Y-87730441D01*
X148631649Y-87729361D01*
X148639000Y-87729000D01*
X148789000Y-87729000D01*
X148796351Y-87729361D01*
X148796351Y-87729361D01*
G37*
D37*
X148714000Y-88466500D03*
D11*
G36*
X147471351Y-86404361D02*
G01*
X147478632Y-86405441D01*
X147485771Y-86407229D01*
X147492701Y-86409709D01*
X147499355Y-86412856D01*
X147505668Y-86416640D01*
X147511579Y-86421024D01*
X147517033Y-86425967D01*
X147521976Y-86431421D01*
X147526360Y-86437332D01*
X147530144Y-86443645D01*
X147533291Y-86450299D01*
X147535771Y-86457229D01*
X147537559Y-86464368D01*
X147538639Y-86471649D01*
X147539000Y-86479000D01*
X147539000Y-86629000D01*
X147538639Y-86636351D01*
X147537559Y-86643632D01*
X147535771Y-86650771D01*
X147533291Y-86657701D01*
X147530144Y-86664355D01*
X147526360Y-86670668D01*
X147521976Y-86676579D01*
X147517033Y-86682033D01*
X147511579Y-86686976D01*
X147505668Y-86691360D01*
X147499355Y-86695144D01*
X147492701Y-86698291D01*
X147485771Y-86700771D01*
X147478632Y-86702559D01*
X147471351Y-86703639D01*
X147464000Y-86704000D01*
X146139000Y-86704000D01*
X146131649Y-86703639D01*
X146124368Y-86702559D01*
X146117229Y-86700771D01*
X146110299Y-86698291D01*
X146103645Y-86695144D01*
X146097332Y-86691360D01*
X146091421Y-86686976D01*
X146085967Y-86682033D01*
X146081024Y-86676579D01*
X146076640Y-86670668D01*
X146072856Y-86664355D01*
X146069709Y-86657701D01*
X146067229Y-86650771D01*
X146065441Y-86643632D01*
X146064361Y-86636351D01*
X146064000Y-86629000D01*
X146064000Y-86479000D01*
X146064361Y-86471649D01*
X146065441Y-86464368D01*
X146067229Y-86457229D01*
X146069709Y-86450299D01*
X146072856Y-86443645D01*
X146076640Y-86437332D01*
X146081024Y-86431421D01*
X146085967Y-86425967D01*
X146091421Y-86421024D01*
X146097332Y-86416640D01*
X146103645Y-86412856D01*
X146110299Y-86409709D01*
X146117229Y-86407229D01*
X146124368Y-86405441D01*
X146131649Y-86404361D01*
X146139000Y-86404000D01*
X147464000Y-86404000D01*
X147471351Y-86404361D01*
X147471351Y-86404361D01*
G37*
D37*
X146801500Y-86554000D03*
D11*
G36*
X147471351Y-85904361D02*
G01*
X147478632Y-85905441D01*
X147485771Y-85907229D01*
X147492701Y-85909709D01*
X147499355Y-85912856D01*
X147505668Y-85916640D01*
X147511579Y-85921024D01*
X147517033Y-85925967D01*
X147521976Y-85931421D01*
X147526360Y-85937332D01*
X147530144Y-85943645D01*
X147533291Y-85950299D01*
X147535771Y-85957229D01*
X147537559Y-85964368D01*
X147538639Y-85971649D01*
X147539000Y-85979000D01*
X147539000Y-86129000D01*
X147538639Y-86136351D01*
X147537559Y-86143632D01*
X147535771Y-86150771D01*
X147533291Y-86157701D01*
X147530144Y-86164355D01*
X147526360Y-86170668D01*
X147521976Y-86176579D01*
X147517033Y-86182033D01*
X147511579Y-86186976D01*
X147505668Y-86191360D01*
X147499355Y-86195144D01*
X147492701Y-86198291D01*
X147485771Y-86200771D01*
X147478632Y-86202559D01*
X147471351Y-86203639D01*
X147464000Y-86204000D01*
X146139000Y-86204000D01*
X146131649Y-86203639D01*
X146124368Y-86202559D01*
X146117229Y-86200771D01*
X146110299Y-86198291D01*
X146103645Y-86195144D01*
X146097332Y-86191360D01*
X146091421Y-86186976D01*
X146085967Y-86182033D01*
X146081024Y-86176579D01*
X146076640Y-86170668D01*
X146072856Y-86164355D01*
X146069709Y-86157701D01*
X146067229Y-86150771D01*
X146065441Y-86143632D01*
X146064361Y-86136351D01*
X146064000Y-86129000D01*
X146064000Y-85979000D01*
X146064361Y-85971649D01*
X146065441Y-85964368D01*
X146067229Y-85957229D01*
X146069709Y-85950299D01*
X146072856Y-85943645D01*
X146076640Y-85937332D01*
X146081024Y-85931421D01*
X146085967Y-85925967D01*
X146091421Y-85921024D01*
X146097332Y-85916640D01*
X146103645Y-85912856D01*
X146110299Y-85909709D01*
X146117229Y-85907229D01*
X146124368Y-85905441D01*
X146131649Y-85904361D01*
X146139000Y-85904000D01*
X147464000Y-85904000D01*
X147471351Y-85904361D01*
X147471351Y-85904361D01*
G37*
D37*
X146801500Y-86054000D03*
D11*
G36*
X147471351Y-85404361D02*
G01*
X147478632Y-85405441D01*
X147485771Y-85407229D01*
X147492701Y-85409709D01*
X147499355Y-85412856D01*
X147505668Y-85416640D01*
X147511579Y-85421024D01*
X147517033Y-85425967D01*
X147521976Y-85431421D01*
X147526360Y-85437332D01*
X147530144Y-85443645D01*
X147533291Y-85450299D01*
X147535771Y-85457229D01*
X147537559Y-85464368D01*
X147538639Y-85471649D01*
X147539000Y-85479000D01*
X147539000Y-85629000D01*
X147538639Y-85636351D01*
X147537559Y-85643632D01*
X147535771Y-85650771D01*
X147533291Y-85657701D01*
X147530144Y-85664355D01*
X147526360Y-85670668D01*
X147521976Y-85676579D01*
X147517033Y-85682033D01*
X147511579Y-85686976D01*
X147505668Y-85691360D01*
X147499355Y-85695144D01*
X147492701Y-85698291D01*
X147485771Y-85700771D01*
X147478632Y-85702559D01*
X147471351Y-85703639D01*
X147464000Y-85704000D01*
X146139000Y-85704000D01*
X146131649Y-85703639D01*
X146124368Y-85702559D01*
X146117229Y-85700771D01*
X146110299Y-85698291D01*
X146103645Y-85695144D01*
X146097332Y-85691360D01*
X146091421Y-85686976D01*
X146085967Y-85682033D01*
X146081024Y-85676579D01*
X146076640Y-85670668D01*
X146072856Y-85664355D01*
X146069709Y-85657701D01*
X146067229Y-85650771D01*
X146065441Y-85643632D01*
X146064361Y-85636351D01*
X146064000Y-85629000D01*
X146064000Y-85479000D01*
X146064361Y-85471649D01*
X146065441Y-85464368D01*
X146067229Y-85457229D01*
X146069709Y-85450299D01*
X146072856Y-85443645D01*
X146076640Y-85437332D01*
X146081024Y-85431421D01*
X146085967Y-85425967D01*
X146091421Y-85421024D01*
X146097332Y-85416640D01*
X146103645Y-85412856D01*
X146110299Y-85409709D01*
X146117229Y-85407229D01*
X146124368Y-85405441D01*
X146131649Y-85404361D01*
X146139000Y-85404000D01*
X147464000Y-85404000D01*
X147471351Y-85404361D01*
X147471351Y-85404361D01*
G37*
D37*
X146801500Y-85554000D03*
D11*
G36*
X147471351Y-84904361D02*
G01*
X147478632Y-84905441D01*
X147485771Y-84907229D01*
X147492701Y-84909709D01*
X147499355Y-84912856D01*
X147505668Y-84916640D01*
X147511579Y-84921024D01*
X147517033Y-84925967D01*
X147521976Y-84931421D01*
X147526360Y-84937332D01*
X147530144Y-84943645D01*
X147533291Y-84950299D01*
X147535771Y-84957229D01*
X147537559Y-84964368D01*
X147538639Y-84971649D01*
X147539000Y-84979000D01*
X147539000Y-85129000D01*
X147538639Y-85136351D01*
X147537559Y-85143632D01*
X147535771Y-85150771D01*
X147533291Y-85157701D01*
X147530144Y-85164355D01*
X147526360Y-85170668D01*
X147521976Y-85176579D01*
X147517033Y-85182033D01*
X147511579Y-85186976D01*
X147505668Y-85191360D01*
X147499355Y-85195144D01*
X147492701Y-85198291D01*
X147485771Y-85200771D01*
X147478632Y-85202559D01*
X147471351Y-85203639D01*
X147464000Y-85204000D01*
X146139000Y-85204000D01*
X146131649Y-85203639D01*
X146124368Y-85202559D01*
X146117229Y-85200771D01*
X146110299Y-85198291D01*
X146103645Y-85195144D01*
X146097332Y-85191360D01*
X146091421Y-85186976D01*
X146085967Y-85182033D01*
X146081024Y-85176579D01*
X146076640Y-85170668D01*
X146072856Y-85164355D01*
X146069709Y-85157701D01*
X146067229Y-85150771D01*
X146065441Y-85143632D01*
X146064361Y-85136351D01*
X146064000Y-85129000D01*
X146064000Y-84979000D01*
X146064361Y-84971649D01*
X146065441Y-84964368D01*
X146067229Y-84957229D01*
X146069709Y-84950299D01*
X146072856Y-84943645D01*
X146076640Y-84937332D01*
X146081024Y-84931421D01*
X146085967Y-84925967D01*
X146091421Y-84921024D01*
X146097332Y-84916640D01*
X146103645Y-84912856D01*
X146110299Y-84909709D01*
X146117229Y-84907229D01*
X146124368Y-84905441D01*
X146131649Y-84904361D01*
X146139000Y-84904000D01*
X147464000Y-84904000D01*
X147471351Y-84904361D01*
X147471351Y-84904361D01*
G37*
D37*
X146801500Y-85054000D03*
D11*
G36*
X147471351Y-84404361D02*
G01*
X147478632Y-84405441D01*
X147485771Y-84407229D01*
X147492701Y-84409709D01*
X147499355Y-84412856D01*
X147505668Y-84416640D01*
X147511579Y-84421024D01*
X147517033Y-84425967D01*
X147521976Y-84431421D01*
X147526360Y-84437332D01*
X147530144Y-84443645D01*
X147533291Y-84450299D01*
X147535771Y-84457229D01*
X147537559Y-84464368D01*
X147538639Y-84471649D01*
X147539000Y-84479000D01*
X147539000Y-84629000D01*
X147538639Y-84636351D01*
X147537559Y-84643632D01*
X147535771Y-84650771D01*
X147533291Y-84657701D01*
X147530144Y-84664355D01*
X147526360Y-84670668D01*
X147521976Y-84676579D01*
X147517033Y-84682033D01*
X147511579Y-84686976D01*
X147505668Y-84691360D01*
X147499355Y-84695144D01*
X147492701Y-84698291D01*
X147485771Y-84700771D01*
X147478632Y-84702559D01*
X147471351Y-84703639D01*
X147464000Y-84704000D01*
X146139000Y-84704000D01*
X146131649Y-84703639D01*
X146124368Y-84702559D01*
X146117229Y-84700771D01*
X146110299Y-84698291D01*
X146103645Y-84695144D01*
X146097332Y-84691360D01*
X146091421Y-84686976D01*
X146085967Y-84682033D01*
X146081024Y-84676579D01*
X146076640Y-84670668D01*
X146072856Y-84664355D01*
X146069709Y-84657701D01*
X146067229Y-84650771D01*
X146065441Y-84643632D01*
X146064361Y-84636351D01*
X146064000Y-84629000D01*
X146064000Y-84479000D01*
X146064361Y-84471649D01*
X146065441Y-84464368D01*
X146067229Y-84457229D01*
X146069709Y-84450299D01*
X146072856Y-84443645D01*
X146076640Y-84437332D01*
X146081024Y-84431421D01*
X146085967Y-84425967D01*
X146091421Y-84421024D01*
X146097332Y-84416640D01*
X146103645Y-84412856D01*
X146110299Y-84409709D01*
X146117229Y-84407229D01*
X146124368Y-84405441D01*
X146131649Y-84404361D01*
X146139000Y-84404000D01*
X147464000Y-84404000D01*
X147471351Y-84404361D01*
X147471351Y-84404361D01*
G37*
D37*
X146801500Y-84554000D03*
D11*
G36*
X147471351Y-83904361D02*
G01*
X147478632Y-83905441D01*
X147485771Y-83907229D01*
X147492701Y-83909709D01*
X147499355Y-83912856D01*
X147505668Y-83916640D01*
X147511579Y-83921024D01*
X147517033Y-83925967D01*
X147521976Y-83931421D01*
X147526360Y-83937332D01*
X147530144Y-83943645D01*
X147533291Y-83950299D01*
X147535771Y-83957229D01*
X147537559Y-83964368D01*
X147538639Y-83971649D01*
X147539000Y-83979000D01*
X147539000Y-84129000D01*
X147538639Y-84136351D01*
X147537559Y-84143632D01*
X147535771Y-84150771D01*
X147533291Y-84157701D01*
X147530144Y-84164355D01*
X147526360Y-84170668D01*
X147521976Y-84176579D01*
X147517033Y-84182033D01*
X147511579Y-84186976D01*
X147505668Y-84191360D01*
X147499355Y-84195144D01*
X147492701Y-84198291D01*
X147485771Y-84200771D01*
X147478632Y-84202559D01*
X147471351Y-84203639D01*
X147464000Y-84204000D01*
X146139000Y-84204000D01*
X146131649Y-84203639D01*
X146124368Y-84202559D01*
X146117229Y-84200771D01*
X146110299Y-84198291D01*
X146103645Y-84195144D01*
X146097332Y-84191360D01*
X146091421Y-84186976D01*
X146085967Y-84182033D01*
X146081024Y-84176579D01*
X146076640Y-84170668D01*
X146072856Y-84164355D01*
X146069709Y-84157701D01*
X146067229Y-84150771D01*
X146065441Y-84143632D01*
X146064361Y-84136351D01*
X146064000Y-84129000D01*
X146064000Y-83979000D01*
X146064361Y-83971649D01*
X146065441Y-83964368D01*
X146067229Y-83957229D01*
X146069709Y-83950299D01*
X146072856Y-83943645D01*
X146076640Y-83937332D01*
X146081024Y-83931421D01*
X146085967Y-83925967D01*
X146091421Y-83921024D01*
X146097332Y-83916640D01*
X146103645Y-83912856D01*
X146110299Y-83909709D01*
X146117229Y-83907229D01*
X146124368Y-83905441D01*
X146131649Y-83904361D01*
X146139000Y-83904000D01*
X147464000Y-83904000D01*
X147471351Y-83904361D01*
X147471351Y-83904361D01*
G37*
D37*
X146801500Y-84054000D03*
D11*
G36*
X147471351Y-83404361D02*
G01*
X147478632Y-83405441D01*
X147485771Y-83407229D01*
X147492701Y-83409709D01*
X147499355Y-83412856D01*
X147505668Y-83416640D01*
X147511579Y-83421024D01*
X147517033Y-83425967D01*
X147521976Y-83431421D01*
X147526360Y-83437332D01*
X147530144Y-83443645D01*
X147533291Y-83450299D01*
X147535771Y-83457229D01*
X147537559Y-83464368D01*
X147538639Y-83471649D01*
X147539000Y-83479000D01*
X147539000Y-83629000D01*
X147538639Y-83636351D01*
X147537559Y-83643632D01*
X147535771Y-83650771D01*
X147533291Y-83657701D01*
X147530144Y-83664355D01*
X147526360Y-83670668D01*
X147521976Y-83676579D01*
X147517033Y-83682033D01*
X147511579Y-83686976D01*
X147505668Y-83691360D01*
X147499355Y-83695144D01*
X147492701Y-83698291D01*
X147485771Y-83700771D01*
X147478632Y-83702559D01*
X147471351Y-83703639D01*
X147464000Y-83704000D01*
X146139000Y-83704000D01*
X146131649Y-83703639D01*
X146124368Y-83702559D01*
X146117229Y-83700771D01*
X146110299Y-83698291D01*
X146103645Y-83695144D01*
X146097332Y-83691360D01*
X146091421Y-83686976D01*
X146085967Y-83682033D01*
X146081024Y-83676579D01*
X146076640Y-83670668D01*
X146072856Y-83664355D01*
X146069709Y-83657701D01*
X146067229Y-83650771D01*
X146065441Y-83643632D01*
X146064361Y-83636351D01*
X146064000Y-83629000D01*
X146064000Y-83479000D01*
X146064361Y-83471649D01*
X146065441Y-83464368D01*
X146067229Y-83457229D01*
X146069709Y-83450299D01*
X146072856Y-83443645D01*
X146076640Y-83437332D01*
X146081024Y-83431421D01*
X146085967Y-83425967D01*
X146091421Y-83421024D01*
X146097332Y-83416640D01*
X146103645Y-83412856D01*
X146110299Y-83409709D01*
X146117229Y-83407229D01*
X146124368Y-83405441D01*
X146131649Y-83404361D01*
X146139000Y-83404000D01*
X147464000Y-83404000D01*
X147471351Y-83404361D01*
X147471351Y-83404361D01*
G37*
D37*
X146801500Y-83554000D03*
D11*
G36*
X147471351Y-82904361D02*
G01*
X147478632Y-82905441D01*
X147485771Y-82907229D01*
X147492701Y-82909709D01*
X147499355Y-82912856D01*
X147505668Y-82916640D01*
X147511579Y-82921024D01*
X147517033Y-82925967D01*
X147521976Y-82931421D01*
X147526360Y-82937332D01*
X147530144Y-82943645D01*
X147533291Y-82950299D01*
X147535771Y-82957229D01*
X147537559Y-82964368D01*
X147538639Y-82971649D01*
X147539000Y-82979000D01*
X147539000Y-83129000D01*
X147538639Y-83136351D01*
X147537559Y-83143632D01*
X147535771Y-83150771D01*
X147533291Y-83157701D01*
X147530144Y-83164355D01*
X147526360Y-83170668D01*
X147521976Y-83176579D01*
X147517033Y-83182033D01*
X147511579Y-83186976D01*
X147505668Y-83191360D01*
X147499355Y-83195144D01*
X147492701Y-83198291D01*
X147485771Y-83200771D01*
X147478632Y-83202559D01*
X147471351Y-83203639D01*
X147464000Y-83204000D01*
X146139000Y-83204000D01*
X146131649Y-83203639D01*
X146124368Y-83202559D01*
X146117229Y-83200771D01*
X146110299Y-83198291D01*
X146103645Y-83195144D01*
X146097332Y-83191360D01*
X146091421Y-83186976D01*
X146085967Y-83182033D01*
X146081024Y-83176579D01*
X146076640Y-83170668D01*
X146072856Y-83164355D01*
X146069709Y-83157701D01*
X146067229Y-83150771D01*
X146065441Y-83143632D01*
X146064361Y-83136351D01*
X146064000Y-83129000D01*
X146064000Y-82979000D01*
X146064361Y-82971649D01*
X146065441Y-82964368D01*
X146067229Y-82957229D01*
X146069709Y-82950299D01*
X146072856Y-82943645D01*
X146076640Y-82937332D01*
X146081024Y-82931421D01*
X146085967Y-82925967D01*
X146091421Y-82921024D01*
X146097332Y-82916640D01*
X146103645Y-82912856D01*
X146110299Y-82909709D01*
X146117229Y-82907229D01*
X146124368Y-82905441D01*
X146131649Y-82904361D01*
X146139000Y-82904000D01*
X147464000Y-82904000D01*
X147471351Y-82904361D01*
X147471351Y-82904361D01*
G37*
D37*
X146801500Y-83054000D03*
D11*
G36*
X147471351Y-82404361D02*
G01*
X147478632Y-82405441D01*
X147485771Y-82407229D01*
X147492701Y-82409709D01*
X147499355Y-82412856D01*
X147505668Y-82416640D01*
X147511579Y-82421024D01*
X147517033Y-82425967D01*
X147521976Y-82431421D01*
X147526360Y-82437332D01*
X147530144Y-82443645D01*
X147533291Y-82450299D01*
X147535771Y-82457229D01*
X147537559Y-82464368D01*
X147538639Y-82471649D01*
X147539000Y-82479000D01*
X147539000Y-82629000D01*
X147538639Y-82636351D01*
X147537559Y-82643632D01*
X147535771Y-82650771D01*
X147533291Y-82657701D01*
X147530144Y-82664355D01*
X147526360Y-82670668D01*
X147521976Y-82676579D01*
X147517033Y-82682033D01*
X147511579Y-82686976D01*
X147505668Y-82691360D01*
X147499355Y-82695144D01*
X147492701Y-82698291D01*
X147485771Y-82700771D01*
X147478632Y-82702559D01*
X147471351Y-82703639D01*
X147464000Y-82704000D01*
X146139000Y-82704000D01*
X146131649Y-82703639D01*
X146124368Y-82702559D01*
X146117229Y-82700771D01*
X146110299Y-82698291D01*
X146103645Y-82695144D01*
X146097332Y-82691360D01*
X146091421Y-82686976D01*
X146085967Y-82682033D01*
X146081024Y-82676579D01*
X146076640Y-82670668D01*
X146072856Y-82664355D01*
X146069709Y-82657701D01*
X146067229Y-82650771D01*
X146065441Y-82643632D01*
X146064361Y-82636351D01*
X146064000Y-82629000D01*
X146064000Y-82479000D01*
X146064361Y-82471649D01*
X146065441Y-82464368D01*
X146067229Y-82457229D01*
X146069709Y-82450299D01*
X146072856Y-82443645D01*
X146076640Y-82437332D01*
X146081024Y-82431421D01*
X146085967Y-82425967D01*
X146091421Y-82421024D01*
X146097332Y-82416640D01*
X146103645Y-82412856D01*
X146110299Y-82409709D01*
X146117229Y-82407229D01*
X146124368Y-82405441D01*
X146131649Y-82404361D01*
X146139000Y-82404000D01*
X147464000Y-82404000D01*
X147471351Y-82404361D01*
X147471351Y-82404361D01*
G37*
D37*
X146801500Y-82554000D03*
D11*
G36*
X147471351Y-81904361D02*
G01*
X147478632Y-81905441D01*
X147485771Y-81907229D01*
X147492701Y-81909709D01*
X147499355Y-81912856D01*
X147505668Y-81916640D01*
X147511579Y-81921024D01*
X147517033Y-81925967D01*
X147521976Y-81931421D01*
X147526360Y-81937332D01*
X147530144Y-81943645D01*
X147533291Y-81950299D01*
X147535771Y-81957229D01*
X147537559Y-81964368D01*
X147538639Y-81971649D01*
X147539000Y-81979000D01*
X147539000Y-82129000D01*
X147538639Y-82136351D01*
X147537559Y-82143632D01*
X147535771Y-82150771D01*
X147533291Y-82157701D01*
X147530144Y-82164355D01*
X147526360Y-82170668D01*
X147521976Y-82176579D01*
X147517033Y-82182033D01*
X147511579Y-82186976D01*
X147505668Y-82191360D01*
X147499355Y-82195144D01*
X147492701Y-82198291D01*
X147485771Y-82200771D01*
X147478632Y-82202559D01*
X147471351Y-82203639D01*
X147464000Y-82204000D01*
X146139000Y-82204000D01*
X146131649Y-82203639D01*
X146124368Y-82202559D01*
X146117229Y-82200771D01*
X146110299Y-82198291D01*
X146103645Y-82195144D01*
X146097332Y-82191360D01*
X146091421Y-82186976D01*
X146085967Y-82182033D01*
X146081024Y-82176579D01*
X146076640Y-82170668D01*
X146072856Y-82164355D01*
X146069709Y-82157701D01*
X146067229Y-82150771D01*
X146065441Y-82143632D01*
X146064361Y-82136351D01*
X146064000Y-82129000D01*
X146064000Y-81979000D01*
X146064361Y-81971649D01*
X146065441Y-81964368D01*
X146067229Y-81957229D01*
X146069709Y-81950299D01*
X146072856Y-81943645D01*
X146076640Y-81937332D01*
X146081024Y-81931421D01*
X146085967Y-81925967D01*
X146091421Y-81921024D01*
X146097332Y-81916640D01*
X146103645Y-81912856D01*
X146110299Y-81909709D01*
X146117229Y-81907229D01*
X146124368Y-81905441D01*
X146131649Y-81904361D01*
X146139000Y-81904000D01*
X147464000Y-81904000D01*
X147471351Y-81904361D01*
X147471351Y-81904361D01*
G37*
D37*
X146801500Y-82054000D03*
D11*
G36*
X147471351Y-81404361D02*
G01*
X147478632Y-81405441D01*
X147485771Y-81407229D01*
X147492701Y-81409709D01*
X147499355Y-81412856D01*
X147505668Y-81416640D01*
X147511579Y-81421024D01*
X147517033Y-81425967D01*
X147521976Y-81431421D01*
X147526360Y-81437332D01*
X147530144Y-81443645D01*
X147533291Y-81450299D01*
X147535771Y-81457229D01*
X147537559Y-81464368D01*
X147538639Y-81471649D01*
X147539000Y-81479000D01*
X147539000Y-81629000D01*
X147538639Y-81636351D01*
X147537559Y-81643632D01*
X147535771Y-81650771D01*
X147533291Y-81657701D01*
X147530144Y-81664355D01*
X147526360Y-81670668D01*
X147521976Y-81676579D01*
X147517033Y-81682033D01*
X147511579Y-81686976D01*
X147505668Y-81691360D01*
X147499355Y-81695144D01*
X147492701Y-81698291D01*
X147485771Y-81700771D01*
X147478632Y-81702559D01*
X147471351Y-81703639D01*
X147464000Y-81704000D01*
X146139000Y-81704000D01*
X146131649Y-81703639D01*
X146124368Y-81702559D01*
X146117229Y-81700771D01*
X146110299Y-81698291D01*
X146103645Y-81695144D01*
X146097332Y-81691360D01*
X146091421Y-81686976D01*
X146085967Y-81682033D01*
X146081024Y-81676579D01*
X146076640Y-81670668D01*
X146072856Y-81664355D01*
X146069709Y-81657701D01*
X146067229Y-81650771D01*
X146065441Y-81643632D01*
X146064361Y-81636351D01*
X146064000Y-81629000D01*
X146064000Y-81479000D01*
X146064361Y-81471649D01*
X146065441Y-81464368D01*
X146067229Y-81457229D01*
X146069709Y-81450299D01*
X146072856Y-81443645D01*
X146076640Y-81437332D01*
X146081024Y-81431421D01*
X146085967Y-81425967D01*
X146091421Y-81421024D01*
X146097332Y-81416640D01*
X146103645Y-81412856D01*
X146110299Y-81409709D01*
X146117229Y-81407229D01*
X146124368Y-81405441D01*
X146131649Y-81404361D01*
X146139000Y-81404000D01*
X147464000Y-81404000D01*
X147471351Y-81404361D01*
X147471351Y-81404361D01*
G37*
D37*
X146801500Y-81554000D03*
D11*
G36*
X147471351Y-80904361D02*
G01*
X147478632Y-80905441D01*
X147485771Y-80907229D01*
X147492701Y-80909709D01*
X147499355Y-80912856D01*
X147505668Y-80916640D01*
X147511579Y-80921024D01*
X147517033Y-80925967D01*
X147521976Y-80931421D01*
X147526360Y-80937332D01*
X147530144Y-80943645D01*
X147533291Y-80950299D01*
X147535771Y-80957229D01*
X147537559Y-80964368D01*
X147538639Y-80971649D01*
X147539000Y-80979000D01*
X147539000Y-81129000D01*
X147538639Y-81136351D01*
X147537559Y-81143632D01*
X147535771Y-81150771D01*
X147533291Y-81157701D01*
X147530144Y-81164355D01*
X147526360Y-81170668D01*
X147521976Y-81176579D01*
X147517033Y-81182033D01*
X147511579Y-81186976D01*
X147505668Y-81191360D01*
X147499355Y-81195144D01*
X147492701Y-81198291D01*
X147485771Y-81200771D01*
X147478632Y-81202559D01*
X147471351Y-81203639D01*
X147464000Y-81204000D01*
X146139000Y-81204000D01*
X146131649Y-81203639D01*
X146124368Y-81202559D01*
X146117229Y-81200771D01*
X146110299Y-81198291D01*
X146103645Y-81195144D01*
X146097332Y-81191360D01*
X146091421Y-81186976D01*
X146085967Y-81182033D01*
X146081024Y-81176579D01*
X146076640Y-81170668D01*
X146072856Y-81164355D01*
X146069709Y-81157701D01*
X146067229Y-81150771D01*
X146065441Y-81143632D01*
X146064361Y-81136351D01*
X146064000Y-81129000D01*
X146064000Y-80979000D01*
X146064361Y-80971649D01*
X146065441Y-80964368D01*
X146067229Y-80957229D01*
X146069709Y-80950299D01*
X146072856Y-80943645D01*
X146076640Y-80937332D01*
X146081024Y-80931421D01*
X146085967Y-80925967D01*
X146091421Y-80921024D01*
X146097332Y-80916640D01*
X146103645Y-80912856D01*
X146110299Y-80909709D01*
X146117229Y-80907229D01*
X146124368Y-80905441D01*
X146131649Y-80904361D01*
X146139000Y-80904000D01*
X147464000Y-80904000D01*
X147471351Y-80904361D01*
X147471351Y-80904361D01*
G37*
D37*
X146801500Y-81054000D03*
D11*
G36*
X147471351Y-80404361D02*
G01*
X147478632Y-80405441D01*
X147485771Y-80407229D01*
X147492701Y-80409709D01*
X147499355Y-80412856D01*
X147505668Y-80416640D01*
X147511579Y-80421024D01*
X147517033Y-80425967D01*
X147521976Y-80431421D01*
X147526360Y-80437332D01*
X147530144Y-80443645D01*
X147533291Y-80450299D01*
X147535771Y-80457229D01*
X147537559Y-80464368D01*
X147538639Y-80471649D01*
X147539000Y-80479000D01*
X147539000Y-80629000D01*
X147538639Y-80636351D01*
X147537559Y-80643632D01*
X147535771Y-80650771D01*
X147533291Y-80657701D01*
X147530144Y-80664355D01*
X147526360Y-80670668D01*
X147521976Y-80676579D01*
X147517033Y-80682033D01*
X147511579Y-80686976D01*
X147505668Y-80691360D01*
X147499355Y-80695144D01*
X147492701Y-80698291D01*
X147485771Y-80700771D01*
X147478632Y-80702559D01*
X147471351Y-80703639D01*
X147464000Y-80704000D01*
X146139000Y-80704000D01*
X146131649Y-80703639D01*
X146124368Y-80702559D01*
X146117229Y-80700771D01*
X146110299Y-80698291D01*
X146103645Y-80695144D01*
X146097332Y-80691360D01*
X146091421Y-80686976D01*
X146085967Y-80682033D01*
X146081024Y-80676579D01*
X146076640Y-80670668D01*
X146072856Y-80664355D01*
X146069709Y-80657701D01*
X146067229Y-80650771D01*
X146065441Y-80643632D01*
X146064361Y-80636351D01*
X146064000Y-80629000D01*
X146064000Y-80479000D01*
X146064361Y-80471649D01*
X146065441Y-80464368D01*
X146067229Y-80457229D01*
X146069709Y-80450299D01*
X146072856Y-80443645D01*
X146076640Y-80437332D01*
X146081024Y-80431421D01*
X146085967Y-80425967D01*
X146091421Y-80421024D01*
X146097332Y-80416640D01*
X146103645Y-80412856D01*
X146110299Y-80409709D01*
X146117229Y-80407229D01*
X146124368Y-80405441D01*
X146131649Y-80404361D01*
X146139000Y-80404000D01*
X147464000Y-80404000D01*
X147471351Y-80404361D01*
X147471351Y-80404361D01*
G37*
D37*
X146801500Y-80554000D03*
D11*
G36*
X147471351Y-79904361D02*
G01*
X147478632Y-79905441D01*
X147485771Y-79907229D01*
X147492701Y-79909709D01*
X147499355Y-79912856D01*
X147505668Y-79916640D01*
X147511579Y-79921024D01*
X147517033Y-79925967D01*
X147521976Y-79931421D01*
X147526360Y-79937332D01*
X147530144Y-79943645D01*
X147533291Y-79950299D01*
X147535771Y-79957229D01*
X147537559Y-79964368D01*
X147538639Y-79971649D01*
X147539000Y-79979000D01*
X147539000Y-80129000D01*
X147538639Y-80136351D01*
X147537559Y-80143632D01*
X147535771Y-80150771D01*
X147533291Y-80157701D01*
X147530144Y-80164355D01*
X147526360Y-80170668D01*
X147521976Y-80176579D01*
X147517033Y-80182033D01*
X147511579Y-80186976D01*
X147505668Y-80191360D01*
X147499355Y-80195144D01*
X147492701Y-80198291D01*
X147485771Y-80200771D01*
X147478632Y-80202559D01*
X147471351Y-80203639D01*
X147464000Y-80204000D01*
X146139000Y-80204000D01*
X146131649Y-80203639D01*
X146124368Y-80202559D01*
X146117229Y-80200771D01*
X146110299Y-80198291D01*
X146103645Y-80195144D01*
X146097332Y-80191360D01*
X146091421Y-80186976D01*
X146085967Y-80182033D01*
X146081024Y-80176579D01*
X146076640Y-80170668D01*
X146072856Y-80164355D01*
X146069709Y-80157701D01*
X146067229Y-80150771D01*
X146065441Y-80143632D01*
X146064361Y-80136351D01*
X146064000Y-80129000D01*
X146064000Y-79979000D01*
X146064361Y-79971649D01*
X146065441Y-79964368D01*
X146067229Y-79957229D01*
X146069709Y-79950299D01*
X146072856Y-79943645D01*
X146076640Y-79937332D01*
X146081024Y-79931421D01*
X146085967Y-79925967D01*
X146091421Y-79921024D01*
X146097332Y-79916640D01*
X146103645Y-79912856D01*
X146110299Y-79909709D01*
X146117229Y-79907229D01*
X146124368Y-79905441D01*
X146131649Y-79904361D01*
X146139000Y-79904000D01*
X147464000Y-79904000D01*
X147471351Y-79904361D01*
X147471351Y-79904361D01*
G37*
D37*
X146801500Y-80054000D03*
D11*
G36*
X147471351Y-79404361D02*
G01*
X147478632Y-79405441D01*
X147485771Y-79407229D01*
X147492701Y-79409709D01*
X147499355Y-79412856D01*
X147505668Y-79416640D01*
X147511579Y-79421024D01*
X147517033Y-79425967D01*
X147521976Y-79431421D01*
X147526360Y-79437332D01*
X147530144Y-79443645D01*
X147533291Y-79450299D01*
X147535771Y-79457229D01*
X147537559Y-79464368D01*
X147538639Y-79471649D01*
X147539000Y-79479000D01*
X147539000Y-79629000D01*
X147538639Y-79636351D01*
X147537559Y-79643632D01*
X147535771Y-79650771D01*
X147533291Y-79657701D01*
X147530144Y-79664355D01*
X147526360Y-79670668D01*
X147521976Y-79676579D01*
X147517033Y-79682033D01*
X147511579Y-79686976D01*
X147505668Y-79691360D01*
X147499355Y-79695144D01*
X147492701Y-79698291D01*
X147485771Y-79700771D01*
X147478632Y-79702559D01*
X147471351Y-79703639D01*
X147464000Y-79704000D01*
X146139000Y-79704000D01*
X146131649Y-79703639D01*
X146124368Y-79702559D01*
X146117229Y-79700771D01*
X146110299Y-79698291D01*
X146103645Y-79695144D01*
X146097332Y-79691360D01*
X146091421Y-79686976D01*
X146085967Y-79682033D01*
X146081024Y-79676579D01*
X146076640Y-79670668D01*
X146072856Y-79664355D01*
X146069709Y-79657701D01*
X146067229Y-79650771D01*
X146065441Y-79643632D01*
X146064361Y-79636351D01*
X146064000Y-79629000D01*
X146064000Y-79479000D01*
X146064361Y-79471649D01*
X146065441Y-79464368D01*
X146067229Y-79457229D01*
X146069709Y-79450299D01*
X146072856Y-79443645D01*
X146076640Y-79437332D01*
X146081024Y-79431421D01*
X146085967Y-79425967D01*
X146091421Y-79421024D01*
X146097332Y-79416640D01*
X146103645Y-79412856D01*
X146110299Y-79409709D01*
X146117229Y-79407229D01*
X146124368Y-79405441D01*
X146131649Y-79404361D01*
X146139000Y-79404000D01*
X147464000Y-79404000D01*
X147471351Y-79404361D01*
X147471351Y-79404361D01*
G37*
D37*
X146801500Y-79554000D03*
D11*
G36*
X147471351Y-78904361D02*
G01*
X147478632Y-78905441D01*
X147485771Y-78907229D01*
X147492701Y-78909709D01*
X147499355Y-78912856D01*
X147505668Y-78916640D01*
X147511579Y-78921024D01*
X147517033Y-78925967D01*
X147521976Y-78931421D01*
X147526360Y-78937332D01*
X147530144Y-78943645D01*
X147533291Y-78950299D01*
X147535771Y-78957229D01*
X147537559Y-78964368D01*
X147538639Y-78971649D01*
X147539000Y-78979000D01*
X147539000Y-79129000D01*
X147538639Y-79136351D01*
X147537559Y-79143632D01*
X147535771Y-79150771D01*
X147533291Y-79157701D01*
X147530144Y-79164355D01*
X147526360Y-79170668D01*
X147521976Y-79176579D01*
X147517033Y-79182033D01*
X147511579Y-79186976D01*
X147505668Y-79191360D01*
X147499355Y-79195144D01*
X147492701Y-79198291D01*
X147485771Y-79200771D01*
X147478632Y-79202559D01*
X147471351Y-79203639D01*
X147464000Y-79204000D01*
X146139000Y-79204000D01*
X146131649Y-79203639D01*
X146124368Y-79202559D01*
X146117229Y-79200771D01*
X146110299Y-79198291D01*
X146103645Y-79195144D01*
X146097332Y-79191360D01*
X146091421Y-79186976D01*
X146085967Y-79182033D01*
X146081024Y-79176579D01*
X146076640Y-79170668D01*
X146072856Y-79164355D01*
X146069709Y-79157701D01*
X146067229Y-79150771D01*
X146065441Y-79143632D01*
X146064361Y-79136351D01*
X146064000Y-79129000D01*
X146064000Y-78979000D01*
X146064361Y-78971649D01*
X146065441Y-78964368D01*
X146067229Y-78957229D01*
X146069709Y-78950299D01*
X146072856Y-78943645D01*
X146076640Y-78937332D01*
X146081024Y-78931421D01*
X146085967Y-78925967D01*
X146091421Y-78921024D01*
X146097332Y-78916640D01*
X146103645Y-78912856D01*
X146110299Y-78909709D01*
X146117229Y-78907229D01*
X146124368Y-78905441D01*
X146131649Y-78904361D01*
X146139000Y-78904000D01*
X147464000Y-78904000D01*
X147471351Y-78904361D01*
X147471351Y-78904361D01*
G37*
D37*
X146801500Y-79054000D03*
D38*
X157525000Y-106042000D03*
X157075000Y-106042000D03*
X156625000Y-106042000D03*
X156175000Y-106042000D03*
X155725000Y-106042000D03*
X155275000Y-106042000D03*
X155275000Y-108842000D03*
X155725000Y-108842000D03*
X156175000Y-108842000D03*
X156625000Y-108842000D03*
X157075000Y-108842000D03*
X157525000Y-108842000D03*
D39*
X155805000Y-107857000D03*
X156995000Y-107857000D03*
X155805000Y-107027000D03*
X156995000Y-107027000D03*
D35*
X153824000Y-108755000D03*
X153174000Y-108755000D03*
X152514000Y-108755000D03*
X151864000Y-108755000D03*
X151864000Y-110955000D03*
X152514000Y-110955000D03*
X153174000Y-110955000D03*
X153824000Y-110955000D03*
D10*
X159505000Y-110623000D03*
X159505000Y-111373000D03*
X160155000Y-110623000D03*
X160155000Y-111373000D03*
D40*
X158380000Y-111748000D03*
X158380000Y-111248000D03*
X158380000Y-110748000D03*
X158380000Y-110248000D03*
X161280000Y-110248000D03*
X161280000Y-110748000D03*
X161280000Y-111248000D03*
X161280000Y-111748000D03*
D41*
X123470000Y-74663500D03*
X123470000Y-75933500D03*
X123470000Y-77203500D03*
X123470000Y-78473500D03*
X128870000Y-78473500D03*
X128870000Y-77203500D03*
X128870000Y-75933500D03*
X128870000Y-74663500D03*
D42*
X124076000Y-110850000D03*
X123126000Y-110850000D03*
X122176000Y-110850000D03*
X122176000Y-113050000D03*
X124076000Y-113050000D03*
X123126000Y-113050000D03*
D43*
X116049000Y-92012000D03*
X117349000Y-92012000D03*
X116699000Y-92012000D03*
X117349000Y-90112000D03*
X116049000Y-90112000D03*
X177214000Y-104904000D03*
X178514000Y-104904000D03*
X177864000Y-106804000D03*
X178514000Y-106804000D03*
X177214000Y-106804000D03*
D44*
X184406000Y-69547500D03*
X184406000Y-68247500D03*
X186306000Y-68897500D03*
X186306000Y-68247500D03*
X186306000Y-69547500D03*
X169924000Y-68184000D03*
X169924000Y-69484000D03*
X168024000Y-68834000D03*
X168024000Y-69484000D03*
X168024000Y-68184000D03*
X169924000Y-80566500D03*
X169924000Y-81866500D03*
X168024000Y-81216500D03*
X168024000Y-81866500D03*
X168024000Y-80566500D03*
X169924000Y-76439000D03*
X169924000Y-77739000D03*
X168024000Y-77089000D03*
X168024000Y-77739000D03*
X168024000Y-76439000D03*
X168024000Y-72311500D03*
X168024000Y-73611500D03*
X168024000Y-72961500D03*
X169924000Y-73611500D03*
X169924000Y-72311500D03*
X133352000Y-85202000D03*
X133352000Y-86502000D03*
X133352000Y-85852000D03*
X135252000Y-86502000D03*
X135252000Y-85202000D03*
X133352000Y-89329500D03*
X133352000Y-90629500D03*
X133352000Y-89979500D03*
X135252000Y-90629500D03*
X135252000Y-89329500D03*
X133352000Y-93457000D03*
X133352000Y-94757000D03*
X133352000Y-94107000D03*
X135252000Y-94757000D03*
X135252000Y-93457000D03*
X135252000Y-97584500D03*
X135252000Y-98884500D03*
X133352000Y-98234500D03*
X133352000Y-98884500D03*
X133352000Y-97584500D03*
D10*
X124008000Y-68713000D03*
X124008000Y-69463000D03*
X124658000Y-68713000D03*
X124658000Y-69463000D03*
D40*
X122883000Y-69838000D03*
X122883000Y-69338000D03*
X122883000Y-68838000D03*
X122883000Y-68338000D03*
X125783000Y-68338000D03*
X125783000Y-68838000D03*
X125783000Y-69338000D03*
X125783000Y-69838000D03*
D45*
X159957000Y-91728000D03*
X159957000Y-89628000D03*
X161607000Y-89628000D03*
X161607000Y-91728000D03*
D23*
X163322000Y-77147000D03*
X163322000Y-78047000D03*
D24*
X187584000Y-89408000D03*
X186684000Y-89408000D03*
X186684000Y-91948000D03*
X187584000Y-91948000D03*
X115692000Y-74168000D03*
X116592000Y-74168000D03*
X116592000Y-76708000D03*
X115692000Y-76708000D03*
X115692000Y-79248000D03*
X116592000Y-79248000D03*
X116592000Y-81788000D03*
X115692000Y-81788000D03*
X115692000Y-84328000D03*
X116592000Y-84328000D03*
X116592000Y-86868000D03*
X115692000Y-86868000D03*
M02*
